<?xml version="1.0" standalone="no"?>
<!DOCTYPE svg PUBLIC "-//W3C//DTD SVG 1.1//EN" "http://www.w3.org/Graphics/SVG/1.1/DTD/svg11.dtd" >
<svg xmlns="http://www.w3.org/2000/svg" xmlns:xlink="http://www.w3.org/1999/xlink" version="1.1">
<metadata>
Created by FontForge 20170731 at Thu Oct  8 13:58:42 2009
 By Aleksey,,,
Copyright 2003, 2009 B. Jackowski and J. M. Nowacki (on behalf of TeX users groups). This work is released under the GUST Font License --  see http://tug.org/fonts/licenses/GUST-FONT-LICENSE.txt for details.
</metadata>
<defs>
<font id="LMRomanDemi10-Oblique" horiz-adv-x="500" >
  <font-face 
    font-family="LM Roman Demi 10"
    font-weight="600"
    font-style="oblique"
    font-stretch="normal"
    units-per-em="1000"
    panose-1="0 0 7 0 0 0 0 0 0 0"
    ascent="806"
    descent="-194"
    x-height="444"
    cap-height="686"
    bbox="-448 -295 1436.28 1136"
    underline-thickness="60"
    underline-position="-266"
    slope="-9.4626"
    unicode-range="U+0020-FB04"
  />
<missing-glyph horiz-adv-x="280" 
 />
    <glyph glyph-name="I_J" unicode="IJ" horiz-adv-x="874" 
d="M368 0q-35 3 -169 3t-171 -3l8 47h99l99 592h-99l7 47q36 -3 170 -3t170 3l-7 -47h-99l-99 -592h99zM923 639h-71l-82 -490q-12 -75 -78.5 -117.5t-160.5 -42.5q-77 0 -120.5 35t-34.5 90q6 37 32.5 57t57.5 20q29 0 49 -20t14 -57q-4 -22 -17.5 -39.5t-24.5 -24
t-20 -9.5q28 -16 65 -16q35 0 63.5 29.5t38.5 92.5l82 492h-123l7 47q41 -3 183 -3q110 0 147 3z" />
    <glyph glyph-name="i_j" unicode="ij" horiz-adv-x="556" 
d="M315 609q-5 -31 -31.5 -54.5t-60.5 -23.5q-32 0 -51 23t-14 55q5 31 31.5 54.5t60.5 23.5q32 0 51 -23t14 -55zM594 609q-5 -31 -31.5 -54.5t-60.5 -23.5q-32 0 -51 23t-14 55q5 31 31.5 54.5t60.5 23.5q32 0 51 -23t14 -55zM265 0l-116 3l-123 -3l8 47h69l51 309
q5 28 -4 33.5t-55 5.5l8 47l175 8l-67 -403h62zM485 -42q-12 -73 -70.5 -115.5t-126.5 -42.5q-56 0 -90.5 24.5t-27.5 66.5q5 27 25 45t48 18q27 0 42 -18t10 -44q-8 -35 -35 -51q15 -5 32 -5q26 0 45.5 23t27 46.5t12.5 50.5l66 399q2 13 2.5 19t-3.5 11.5t-14 7.5
q-15 2 -54 2l8 47l185 8z" />
    <glyph glyph-name="f_k" unicode="fk" horiz-adv-x="810" 
d="M791 0q-66 3 -100 3l-121 -3l8 47q37 0 39 10q1 4 -32 67.5t-46 87.5l-39 -31l-22 -134h69l-8 -47l-122 3l-124 -3l8 47h69l58 350h-169l-58 -350h69l-8 -47l-122 3l-124 -3l8 47h69l58 350h-58l8 47h58l17 100q9 54 51.5 90t97 51t118.5 15q37 0 61 -8q9 -3 15 -3
q27 0 67 5l-75 -448l164 130q9 9 9 10q1 3 -5.5 6t-16.5 4t-19 1l8 47q39 -3 114 -3q54 0 77 3l-8 -47q-44 0 -59.5 -4t-28.5 -15l-123 -99l109 -213q6 -11 9 -14t14 -4t44 -1zM436 444l17 101q3 18 -1 22q-18 17 -13 46q8 32 29 47q-14 4 -36 4q-59 0 -101 -29
q-46 -33 -53 -92l-17 -99h175z" />
    <glyph glyph-name="f_f" unicode="ff" horiz-adv-x="583" 
d="M766 613q-5 -29 -26.5 -45.5t-45.5 -16.5q-23 0 -39.5 16t-11.5 46q7 35 33 50q-4 1 -11 1q-10 0 -21 -2.5t-31 -12.5t-36 -36.5t-23 -66.5l-17 -102h100l-8 -47h-94l-58 -350h87l-8 -47q-35 3 -137 3l-127 -3l8 47h69l58 350h-168l-58 -350h69l-8 -47l-122 3l-124 -3
l8 47h69l58 350h-58l8 47h58l17 100q9 54 52 91t97 51t116 14q64 0 98 -33q55 33 134 33q52 0 75.5 -26.5t17.5 -60.5zM477 655q-19 9 -47 9q-66 0 -104.5 -33t-47.5 -88l-17 -99h174l18 106q-23 17 -17 50q7 38 41 55z" />
    <glyph glyph-name="f_i" unicode="fi" horiz-adv-x="556" 
d="M539 0l-122 3l-124 -3l8 47h69l52 315q4 25 0 30t-24 5h-139l-58 -350h69l-8 -47l-122 3l-124 -3l8 47h69l58 350h-58l8 47h58l17 100q9 55 53.5 91.5t99 50.5t116.5 14q67 0 96 -36.5t23 -78.5q-6 -32 -28 -49.5t-50 -17.5q-27 0 -42.5 18t-11.5 47q5 27 22.5 43
t36.5 21q-24 17 -57 17q-64 0 -105.5 -32t-50.5 -89l-17 -99h106l2 4l177 6l-68 -407h69z" />
    <glyph glyph-name="f_l" unicode="fl" horiz-adv-x="556" 
d="M539 0l-122 3l-124 -3l8 47h69l58 350h-169l-58 -350h69l-8 -47l-122 3l-124 -3l8 47h69l58 350h-58l8 47h58l17 100q9 54 51.5 90t97 51t118.5 15q37 0 61 -8q9 -3 15 -3q27 0 67 5l-108 -647h69zM436 444l17 101q3 18 -1 22q-18 17 -13 46q8 32 29 47q-14 4 -36 4
q-59 0 -101 -29q-46 -33 -53 -92l-17 -99h175z" />
    <glyph glyph-name="f_f_i" unicode="&#xfb00;i" horiz-adv-x="833" 
d="M816 0l-122 3l-124 -3l8 47h69l52 315q4 25 -0.5 30t-23.5 5h-139l-58 -350h69l-8 -47l-122 3l-124 -3l8 47h69l58 350h-169l-58 -350h69l-8 -47l-122 3l-124 -3l8 47h69l58 350h-58l8 47h58l17 100q7 41 33 72.5t64.5 49t81 26t87.5 8.5q63 0 98 -40q78 40 182 40
q67 0 96 -36.5t23 -78.5q-6 -32 -28 -49.5t-50 -17.5q-27 0 -42.5 18t-11.5 47q5 27 22.5 43t36.5 21q-24 17 -57 17q-64 0 -105.5 -32t-50.5 -89l-17 -99h106l2 4l177 6l-68 -407h69zM486 647q-24 17 -55 17q-58 0 -100 -29q-46 -33 -53 -92l-17 -99h175l14 82
q-31 19 -24 57q10 50 60 64z" />
    <glyph glyph-name="f_f_l" unicode="ffl" horiz-adv-x="833" 
d="M816 0l-122 3l-124 -3l8 47h69l58 350h-169l-58 -350h69l-8 -47l-122 3l-124 -3l8 47h69l58 350h-169l-58 -350h69l-8 -47l-122 3l-124 -3l8 47h69l58 350h-58l8 47h58l17 100q7 41 33 72.5t64.5 49t81 26t87.5 8.5q69 0 103 -38q73 38 175 38q37 0 61 -8q9 -3 15 -3
q27 0 67 5l-108 -647h69zM478 655q-18 9 -47 9q-58 0 -100 -29q-46 -33 -53 -92l-17 -99h175l18 106q-22 17 -17 50q7 38 41 55zM713 444l17 101q3 18 -1 22q-18 17 -13 46q8 32 29 47q-14 4 -36 4q-59 0 -101 -29q-46 -33 -53 -92l-17 -99h175z" />
    <glyph glyph-name=".notdef" horiz-adv-x="280" 
 />
    <glyph glyph-name=".null" horiz-adv-x="0" 
 />
    <glyph glyph-name="nonmarkingreturn" horiz-adv-x="333" 
 />
    <glyph glyph-name="space" unicode=" " horiz-adv-x="333" 
 />
    <glyph glyph-name="exclam" unicode="!" horiz-adv-x="306" 
d="M338 634l-4 -13l-115 -373q-4 -15 -9 -18.5t-19 -3.5q-16 0 -19 4t-2 22l9 364q-1 8 1 18q4 29 31.5 50t59.5 21t52 -21t15 -50zM244 78q-5 -32 -32 -55t-59 -23t-51 23t-14 55t32 55t59 23t51 -23t14 -55z" />
    <glyph glyph-name="quotedbl" unicode="&#x22;" horiz-adv-x="440" 
d="M303 640l-70 -222h-48l4 222q0 23 20 40t46 17q25 0 40 -17t8 -40zM465 640l-70 -222h-48l4 222q0 23 20 40t46 17q25 0 40 -17t8 -40z" />
    <glyph glyph-name="numbersign" unicode="#" horiz-adv-x="833" 
d="M799 139q-5 -31 -51 -31h-211l-116 -272q-13 -30 -36 -30q-14 0 -21 9t-5 21q0 5 7 20l108 252h-156l-116 -272q-13 -30 -36 -30q-14 0 -21 9t-5 21q0 5 7 20l108 252h-135q-12 0 -19.5 1t-15.5 8.5t-6 21.5q5 30 46 30h157l69 163h-199q-10 0 -16.5 1t-14 8t-5.5 21
q6 31 52 31h211l116 271q10 30 36 30q14 0 21 -9t5 -21q-3 -10 -8 -20l-107 -251h156l116 271q10 30 36 30q14 0 21 -9t5 -21q-3 -10 -8 -20l-107 -251h135q12 0 19.5 -1t15.5 -8.5t5 -21.5q-5 -30 -46 -30h-157l-69 -163h199q10 0 16.5 -1t14 -8t5.5 -21zM570 332h-156
l-69 -163h156z" />
    <glyph glyph-name="dollar" unicode="$" 
d="M478 210q-13 -82 -65 -142.5t-141 -72.5l-8 -51h-47l8 51q-87 9 -118.5 65t-19.5 125q5 29 23 45.5t30 19t21 2.5q22 0 39.5 -15.5t12.5 -47.5q-4 -22 -22.5 -42t-55.5 -20q14 -74 98 -85l42 252q-60 12 -94.5 49.5t-41 76t-0.5 78.5q13 80 66.5 136t137.5 65l8 51h47
l-8 -51q83 -8 117.5 -58.5t22.5 -118.5q-6 -37 -29.5 -51.5t-44.5 -14.5q-23 0 -39.5 16t-11.5 47q4 23 22.5 42.5t52.5 19.5q-18 62 -98 71l-38 -224q40 -9 69 -29.5t42.5 -44t20 -52t6.5 -50.5t-4 -42zM299 440l36 211q-29 -5 -50.5 -17.5t-33 -30t-17 -31t-7.5 -26.5
q-5 -34 12 -64.5t60 -41.5zM390 161q7 41 -10.5 75t-59.5 46l-40 -239q93 19 110 118z" />
    <glyph glyph-name="percent" unicode="%" horiz-adv-x="833" 
d="M813 719q-3 -11 -13 -23l-608 -733q-17 -19 -31 -19q-13 0 -20.5 9t-5.5 22q1 8 15 25l523 632q-49 -21 -108 -21q-72 0 -136 36q5 -41 -4 -98q-18 -104 -63.5 -153t-96.5 -49q-25 0 -48 10t-43.5 33t-27 62t1.5 97q9 53 29.5 93.5t47 63t53.5 33.5t54 11q38 0 67 -29
q72 -75 171 -75q110 0 187 87q15 17 31 17q11 0 19 -8.5t6 -22.5zM800 145q-17 -101 -62 -151t-97 -50q-25 0 -48 10t-44 33t-27.5 62t1.5 97q17 102 71.5 151.5t113.5 49.5q51 0 80 -49t12 -153zM378 549q11 60 3.5 97t-21.5 52.5t-32 15.5q-12 0 -22 -6.5t-18 -21
t-13 -26.5t-10.5 -37t-7.5 -36.5t-7 -38.5q-13 -54 -11.5 -109.5t34.5 -55.5q29 0 60 40.5t45 125.5zM753 146q11 60 4 97t-21 52.5t-32 15.5q-12 0 -22 -6.5t-18 -21t-13 -26.5t-10.5 -37t-7.5 -36.5t-7 -38.5q-13 -54 -11.5 -109.5t34.5 -55.5q29 0 59.5 40t44.5 126z" />
    <glyph glyph-name="ampersand" unicode="&#x26;" horiz-adv-x="778" 
d="M793 397q-43 0 -65 -3q-16 -2 -21.5 -6t-19.5 -22q-17 -22 -30 -40q-106 -143 -172 -208q55 -82 106 -82q27 0 60 19t43 63h47q-11 -57 -57.5 -93t-106.5 -36q-97 0 -170 64q-92 -64 -186 -64q-75 0 -120.5 42.5t-35.5 105.5q8 43 38 76q6 8 64 58q4 3 22.5 19t33 28.5
t16.5 13.5q-23 101 -8 196q13 81 73 129t123 48q34 0 54.5 -22.5t22.5 -51.5t0 -57q-13 -72 -154 -191q24 -98 112 -230q52 52 99 116q3 5 25.5 34t41.5 54.5t19 27.5q0 3 -4 5t-12.5 3.5t-16.5 2t-18 1t-14.5 0.5h-9.5l8 47q40 -3 122 -3q51 0 99 3zM457 575q10 94 -34 94
q-24 0 -48.5 -24.5t-33.5 -79.5q-12 -72 1 -144q106 95 115 154zM376 81q-87 93 -126 216q-36 -38 -51 -123q-6 -47 -7 -74.5t8 -41.5t17.5 -18t21.5 -4q66 0 137 45z" />
    <glyph glyph-name="quotesingle" unicode="'" horiz-adv-x="278" 
d="M303 640l-70 -222h-48l4 222q0 23 20 40t46 17q25 0 40 -17t8 -40z" />
    <glyph glyph-name="parenleft" unicode="(" horiz-adv-x="389" 
d="M293 -235q-3 -14 -21 -14q-19 0 -58 53.5t-60 110.5q-52 149 -20 335q45 277 231 449q9 9 36 30t38 21q7 0 12 -3.5t4 -10.5q-2 -7 -9 -13q-163 -161 -215 -473q-52 -314 55 -468q8 -12 7 -17z" />
    <glyph glyph-name="parenright" unicode=")" horiz-adv-x="389" 
d="M338 250q-46 -276 -231 -448q-9 -9 -36.5 -30t-38.5 -21q-7 0 -11.5 3t-3.5 11q0 5 16 21q156 159 208 465q52 311 -55 468q-8 11 -7 17q3 14 20 14q20 0 60.5 -55.5t64.5 -126.5q43 -138 14 -318z" />
    <glyph glyph-name="asterisk" unicode="*" 
d="M511 443q-4 -21 -20.5 -35t-32.5 -14q-13 0 -26 14l-80 84v-127v-20q-3 -17 -18.5 -28t-33.5 -11q-17 0 -29 10.5t-8 28.5q1 5 4 13l44 134l-108 -85q-17 -13 -30 -13q-16 0 -28.5 14t-8.5 35q4 27 35 37l129 48l-113 48q-27 10 -23 37q4 21 20.5 35t32.5 14q13 0 26 -14
l80 -84v127q0 17 1 20q2 17 17.5 28t33.5 11q17 0 29 -10.5t9 -28.5q-2 -5 -5 -13l-44 -134l108 85q17 13 30 13q16 0 28.5 -14t8.5 -35q-4 -27 -35 -37l-129 -48l113 -48q27 -10 23 -37z" />
    <glyph glyph-name="plus" unicode="+" horiz-adv-x="778" 
d="M763 250q-5 -30 -48 -30h-259l-44 -260q-6 -42 -38 -42q-30 0 -23 42l44 260h-259q-11 0 -18 1t-14.5 8.5t-5.5 21.5q5 30 48 30h259l43 260q6 42 38 42q30 0 23 -42l-43 -260h259q11 0 18 -1t14.5 -8.5t5.5 -21.5z" />
    <glyph glyph-name="comma" unicode="," horiz-adv-x="278" 
d="M233 31q-10 -61 -45.5 -116.5t-65.5 -82t-40 -26.5q-6 0 -11.5 6.5t-4.5 13.5t15 17q90 71 113 175q-20 -18 -55 -18q-36 0 -53.5 23t-11.5 55q5 33 30.5 55.5t59.5 22.5q42 0 60 -36t9 -89z" />
    <glyph glyph-name="hyphen" unicode="-" horiz-adv-x="333" 
d="M305 174h-265l16 97h265z" />
    <glyph glyph-name="period" unicode="." horiz-adv-x="278" 
d="M230 78q-5 -32 -32 -55t-59 -23t-51 23t-14 55t32 55t59 23t51 -23t14 -55z" />
    <glyph glyph-name="slash" unicode="/" 
d="M563 719q-2 -8 -8 -19l-473 -920q-13 -30 -38 -30q-11 0 -19 8.5t-6 22.5q2 7 9 19l473 922q15 28 37 28q11 0 19 -8.5t6 -22.5z" />
    <glyph glyph-name="zero" unicode="0" 
d="M513 319q-5 -30 -8.5 -49.5t-14 -57.5t-22.5 -64t-33 -58.5t-46 -52.5t-62 -34t-80 -14t-75 14t-50.5 34t-28.5 52.5t-13 58.5t-0.5 64.5t5 57.5t7.5 49t9 50t14.5 58.5t22 65t32.5 60t46.5 53.5t62.5 34.5t80 14.5t75 -14.5t50.5 -35t28.5 -53.5t12.5 -60t0.5 -65.5
t-5 -58t-8 -49.5zM387 331q23 135 28 190q5 54 -15.5 76t-47.5 22q-7 0 -16 -2.5t-25.5 -10.5t-31 -30.5t-22.5 -55.5q-15 -65 -35 -190q-28 -183 -29 -199q-3 -33 2.5 -56t17.5 -33t21.5 -13.5t19.5 -3.5q14 0 29.5 6t35.5 30.5t30 64.5q11 46 38 205z" />
    <glyph glyph-name="one" unicode="1" 
d="M430 0q-37 3 -174 3q-134 0 -173 -3l8 47h112l86 514q-56 -17 -129 -17l8 47q140 0 216 64q27 0 32.5 -4.5t1.5 -27.5l-96 -576h116z" />
    <glyph glyph-name="two" unicode="2" 
d="M486 222l-68 -222h-368l3 18q3 20 16 33l191 198q111 114 129 217q3 20 3 40.5t-5 45.5t-23 40.5t-48 15.5q-50 0 -87 -35q26 -5 39.5 -23.5t9.5 -48.5q-6 -35 -31.5 -53.5t-52.5 -18.5q-25 0 -46 17.5t-14 56.5q11 63 72 107.5t140 44.5q92 0 143 -53.5t38 -135.5
q-14 -77 -95 -148q-13 -11 -55 -43t-51 -39l-136 -111h120q86 0 92 8q16 17 37 89h47z" />
    <glyph glyph-name="three" unicode="3" 
d="M487 180q-13 -81 -82 -136t-173 -55q-83 0 -130 44t-37 106q7 37 32 57.5t58 20.5t51 -21t13 -55q-6 -32 -27.5 -51.5t-48.5 -24.5q36 -33 91 -33q21 0 38 11t27 25t17.5 38t10.5 38t7 37q6 34 7.5 56t-2 46t-19.5 35.5t-44 11.5h-26q-11 0 -15.5 0.5t-7.5 4.5t-2 13
q2 12 8.5 15t26.5 5q23 1 35 3.5t26.5 13.5t26.5 32q24 47 32 103q1 19 3.5 40t-10 38.5t-40.5 17.5q-52 0 -92 -37q36 -4 46 -25t6 -44q-5 -29 -27 -49t-54 -20q-29 0 -46 18.5t-12 52.5q10 56 63 99.5t128 43.5q89 0 135.5 -38.5t35.5 -100.5q-10 -61 -56 -103.5
t-97 -61.5q55 -13 86 -44t37.5 -62t0.5 -65z" />
    <glyph glyph-name="four" unicode="4" 
d="M471 0q-38 3 -141 3q-121 0 -157 -3l8 47h97l18 109h-242l8 47l380 438q8 11 14 13t19 2q20 0 23.5 -6t0.5 -26l-70 -421h76l-8 -47h-76l-18 -109h76zM315 203l48 290l-252 -290h204z" />
    <glyph glyph-name="five" unicode="5" 
d="M483 202q-17 -98 -91 -155.5t-174 -57.5q-77 0 -114.5 52.5t-26.5 117.5q5 28 22 45t31 21t25 4q24 0 43 -16.5t13 -51.5q-5 -28 -25.5 -47t-54.5 -20q12 -31 37 -46.5t53 -15.5q26 0 51 14t39 41q15 29 31 121q16 69 11 117t-47 48q-73 0 -120 -58q-10 -10 -22 -10
q-16 0 -19 9t1 24l48 288q5 29 20 29l12 -4q61 -28 128 -28t137 27q9 5 14 5q14 0 11 -18q-2 -16 -31.5 -47t-87 -61t-119.5 -30q-32 0 -51 5l-21 -126q51 31 110 31q90 0 136.5 -57t30.5 -150z" />
    <glyph glyph-name="six" unicode="6" 
d="M491 205q-17 -104 -85 -160t-155 -56q-43 0 -75 15.5t-50 37t-28 56t-13 61.5t-0.5 64t4.5 53.5t6 39.5q13 80 42.5 143t63.5 98.5t75 58.5t73.5 31t62.5 8q66 0 91.5 -38t17.5 -86q-5 -31 -25.5 -48t-48.5 -17t-42.5 18t-9.5 44q5 28 25 44t44 19q-17 25 -56 25
q-13 0 -28 -4t-37 -16t-43 -41t-34 -72q-7 -22 -13.5 -49t-9.5 -44.5t-3 -20.5q35 49 93 49q81 0 128.5 -54.5t29.5 -158.5zM356 209q15 85 16 115q1 25 -12.5 41.5t-39.5 16.5q-27 0 -47 -17.5t-32 -51t-17 -55t-11 -54.5q-16 -93 -11 -116q10 -56 54 -56q28 0 48.5 16
t28.5 44q11 42 23 117z" />
    <glyph glyph-name="seven" unicode="7" 
d="M588 617q-1 -8 -12 -19l-167 -185q-69 -76 -105 -300l-9 -53q-12 -71 -75 -71q-7 0 -13.5 1.5t-18 7t-17 21.5t-1.5 41q11 64 38.5 130t61.5 116.5t53.5 76.5t33.5 42l2 2l85 92h-134q-92 0 -99 -8q-14 -15 -38 -89h-47l78 254h47q0 -13 7 -19t37 -9q35 -4 79 -4h218z
" />
    <glyph glyph-name="eight" unicode="8" 
d="M489 189q-15 -86 -79.5 -143t-163.5 -57q-90 0 -140.5 45.5t-36.5 127.5q10 61 46.5 98t90.5 67q-74 54 -57 151q13 76 68.5 126.5t142.5 50.5q79 0 122.5 -39.5t32.5 -108.5q-7 -43 -33.5 -74.5t-75.5 -61.5q18 -13 29.5 -23.5t29.5 -33t24 -54.5t0 -71zM440 507
q7 46 -14.5 77.5t-74.5 31.5q-44 0 -77.5 -20t-39.5 -58q-7 -38 30 -64l105 -76q59 40 71 109zM393 133q4 24 -4 43.5t-18.5 29.5t-32.5 26q-17 12 -42 29t-53 38q-74 -55 -88 -136q-9 -58 16.5 -94.5t84.5 -36.5q52 0 90.5 26.5t46.5 74.5z" />
    <glyph glyph-name="nine" unicode="9" 
d="M512 330q-13 -81 -41.5 -144t-61 -99t-71.5 -59t-70.5 -31t-61.5 -8q-68 0 -98.5 36t-21.5 88q5 31 25.5 48t48.5 17t42 -18t9 -44q-4 -25 -21 -41.5t-41 -20.5q21 -22 62 -22q55 0 96 53q26 35 44 113q6 26 16 78q-34 -49 -93 -49q-82 0 -129 55t-30 158q16 98 85 156
q70 59 160 59q42 0 73.5 -15t49 -37t27 -56t12.5 -61t0.5 -63.5t-4.5 -53t-6 -39.5zM395 446q12 68 12 111q-9 59 -51 59q-31 0 -51 -17t-27 -37q-10 -24 -27 -127q-14 -74 -17 -115q0 -24 13 -40.5t40 -16.5q46 0 70 49.5t38 133.5z" />
    <glyph glyph-name="colon" unicode=":" horiz-adv-x="278" 
d="M278 366q-5 -32 -32 -55t-59 -23t-51 23t-14 55t32 55t59 23t51 -23t14 -55zM230 78q-5 -32 -32 -55t-59 -23t-51 23t-14 55t32 55t59 23t51 -23t14 -55z" />
    <glyph glyph-name="semicolon" unicode=";" horiz-adv-x="278" 
d="M278 366q-5 -32 -32 -55t-59 -23t-51 23t-14 55t32 55t59 23t51 -23t14 -55zM225 31q-10 -60 -43 -115.5t-61.5 -82.5t-38.5 -27q-6 0 -11.5 6.5t-4.5 13.5t18 21q76 67 101 165q-20 -12 -46 -12q-36 0 -53.5 23t-11.5 55q5 33 30.5 55.5t59.5 22.5q39 0 54.5 -35
t6.5 -90z" />
    <glyph glyph-name="less" unicode="&#x3c;" horiz-adv-x="894" 
d="M788 -56q-2 -11 -12.5 -20.5t-23.5 -9.5q-8 0 -21 7l-573 298q-23 12 -20 32t30 31l676 299q12 6 20 6q13 0 20.5 -9.5t5.5 -20.5q-3 -20 -30 -32l-621 -275l529 -274q22 -12 20 -32z" />
    <glyph glyph-name="equal" unicode="=" horiz-adv-x="778" 
d="M781 362q-5 -30 -46 -30h-583q-10 0 -16.5 1t-14 8t-5.5 21q6 31 52 31h573q12 0 19.5 -1t15.5 -8.5t5 -21.5zM744 139q-5 -31 -51 -31h-573q-12 0 -19.5 1t-15.5 8.5t-6 21.5q5 30 46 30h583q10 0 16.5 -1t14 -8t5.5 -21z" />
    <glyph glyph-name="greater" unicode="&#x3e;" horiz-adv-x="894" 
d="M839 251q-4 -21 -30 -32l-676 -299q-12 -6 -20 -6q-14 0 -21 9.5t-5 20.5q3 20 30 32l621 275l-529 274q-24 13 -20 32q2 12 12.5 21t22.5 9q9 0 22 -7l573 -298q23 -12 20 -31z" />
    <glyph glyph-name="question" unicode="?" horiz-adv-x="472" 
d="M510 571q-9 -61 -68 -97q-130 -80 -148 -189l-5 -29q-3 -20 -7.5 -25t-21.5 -5q-16 0 -19 5t0 22l7 41q19 104 99 200q16 18 23.5 33t13.5 52q11 41 2.5 63t-53.5 22q-54 0 -94 -31q20 -6 30.5 -21.5t6.5 -39.5q-4 -29 -25.5 -46t-47.5 -17q-23 0 -39.5 15.5t-11.5 48.5
q8 51 60 89t133 38q18 0 32.5 -1t44.5 -7.5t49.5 -19t32 -39t6.5 -62.5zM313 78q-5 -32 -32 -55t-59 -23t-51 23t-14 55t32 55t59 23t51 -23t14 -55z" />
    <glyph glyph-name="at" unicode="@" horiz-adv-x="778" 
d="M734 79l-4 -10q-74 -37 -182 -58q-82 -17 -157 -17q-155 0 -229.5 97.5t-47.5 255.5q27 164 136 258.5t255 94.5q143 0 222.5 -92.5t50.5 -264.5q-35 -215 -152 -215q-77 0 -107 40q-51 -40 -111 -40q-83 0 -131 57t-30 162q17 105 84 162t150 57q40 0 74 -20t49 -64h34
q22 0 25.5 -4.5t0.5 -24.5l-39 -232q-8 -57 16 -57q26 0 45 27.5t27 59t16 81.5q26 155 -33 241q-64 91 -197 91q-123 0 -218 -83t-120 -234q-25 -146 39.5 -231.5t195.5 -85.5q124 0 256 56q15 7 33 7h24q10 0 14.5 -0.5t8 -3.5t2.5 -10zM557 478q-26 52 -79 52
q-37 0 -69.5 -47t-47.5 -136t2 -136t54 -47q48 0 92 47l41 242q2 17 7 25z" />
    <glyph glyph-name="A" unicode="A" horiz-adv-x="756" 
d="M720 0q-35 3 -149 3q-127 0 -164 -3l8 47h83l-25 135h-219l-57 -111l-6 -12q0 -3 4.5 -5t13 -3.5t16.5 -2t18.5 -1t15 -0.5h8.5l-8 -47l-117 3l-107 -3l8 47q38 0 58 2q21 2 27 5.5t12 15.5l312 602q9 18 17.5 22t24.5 4q11 0 16 -1t10 -7t7 -18l116 -625h85zM464 229
l-49 264l-137 -264h186z" />
    <glyph glyph-name="B" unicode="B" horiz-adv-x="711" 
d="M685 186q-13 -78 -78 -132t-169 -54h-404l8 47h94l99 592h-94l7 47h378q103 0 151 -50t36 -122q-10 -57 -55.5 -99t-118.5 -56q83 -11 120 -59t26 -114zM571 514q21 125 -65 125h-140l-44 -264h117q57 0 89 38.5t43 100.5zM538 188q13 58 -3 104q-7 22 -20.5 33
t-22.5 12.5t-24 1.5h-152l-49 -292h142q57 0 91 45q28 37 38 96z" />
    <glyph glyph-name="C" unicode="C" horiz-adv-x="722" 
d="M703 227q-15 -88 -98.5 -163t-198.5 -75q-155 0 -237.5 95t-55.5 259q28 165 143 259.5t267 94.5q93 0 153 -62l67 53q12 9 20 9q12 0 14.5 -7t-0.5 -21l-36 -215q-4 -20 -8.5 -24t-23.5 -4q-10 0 -14 0.5t-6.5 4t-2.5 11.5q2 103 -42 155.5t-110 52.5q-111 0 -183 -82
q-27 -30 -46 -76t-25 -74t-14 -75q-12 -76 -12 -125t17 -90q20 -44 64 -68t99 -24q45 0 91 20.5t84 66.5t48 108q2 12 7.5 14.5t17.5 2.5q14 0 18.5 -3.5t2.5 -17.5z" />
    <glyph glyph-name="D" unicode="D" horiz-adv-x="767" 
d="M766 337q-27 -160 -128 -248.5t-232 -88.5h-372l8 47h94l99 592h-94l7 47h372q130 0 202 -91.5t44 -257.5zM619 337q26 153 4 212q-34 90 -152 90h-100l-99 -592h101q118 0 180 85q43 60 66 205z" />
    <glyph glyph-name="E" unicode="E" horiz-adv-x="656" 
d="M673 274l-92 -274h-547l8 47h94l98 586h-94l7 47h534l-9 -241h-47q4 42 0 77.5t-15.5 61.5t-45 40.5t-89.5 14.5h-99l-43 -257h22q33 0 54 7t33 25t17 35t10 50h47l-47 -281h-47q6 37 6.5 63t-18.5 40t-63 14h-22l-47 -282h103q41 0 72.5 7t55.5 23.5t40.5 33.5t31 47.5
t23.5 53t22 62.5h47z" />
    <glyph glyph-name="F" unicode="F" horiz-adv-x="628" 
d="M658 439h-47q4 41 1 76.5t-14.5 61.5t-44 41t-87.5 15h-90l-45 -269h17q62 0 82.5 26t30.5 91h47l-47 -281h-47q6 38 6 64t-18.5 39.5t-61.5 13.5h-17l-45 -270h118l-8 -47q-40 3 -184 3q-134 0 -170 -3l8 47h94l98 586h-94l7 47h520z" />
    <glyph glyph-name="G" unicode="G" horiz-adv-x="786" 
d="M773 229h-69l-33 -201q-2 -10 -3 -14.5t-5 -9t-11 -4.5t-39 17.5t-49 34.5q-57 -63 -158 -63q-153 0 -236.5 94.5t-56.5 259.5q28 164 142.5 259t268.5 95q94 0 153 -62l67 53q12 9 20 9q12 0 14.5 -7t-0.5 -21l-36 -215q-4 -20 -8.5 -24t-23.5 -4q-10 0 -14 0.5t-6.5 4
t-2.5 11.5q2 104 -42.5 156t-109.5 52q-117 0 -193 -93q-51 -63 -76 -214q-24 -149 5 -215q24 -50 71 -71t93 -21q33 0 67 20t43 72l17 101h-125l8 47q44 -3 187 -3q112 0 149 3z" />
    <glyph glyph-name="H" unicode="H" horiz-adv-x="783" 
d="M748 0q-34 3 -164 3t-166 -3l8 47h94l48 286h-242l-48 -286h94l-8 -47q-34 3 -164 3t-166 -3l8 47h94l99 592h-94l7 47q35 -3 165 -3t165 3l-7 -47h-94l-44 -259h242l44 259h-94l7 47q35 -3 165 -3t165 3l-7 -47h-94l-99 -592h94z" />
    <glyph glyph-name="I" unicode="I" horiz-adv-x="397" 
d="M368 0q-35 3 -169 3t-171 -3l8 47h99l99 592h-99l7 47q36 -3 170 -3t170 3l-7 -47h-99l-99 -592h99z" />
    <glyph glyph-name="J" unicode="J" horiz-adv-x="517" 
d="M566 639h-71l-82 -490q-12 -75 -78.5 -117.5t-160.5 -42.5q-77 0 -120.5 35t-34.5 90q6 37 32.5 57t57.5 20q29 0 49 -20t14 -57q-4 -22 -17.5 -39.5t-24.5 -24t-20 -9.5q28 -16 65 -16q35 0 63.5 29.5t38.5 92.5l82 492h-123l7 47q41 -3 183 -3q110 0 147 3z" />
    <glyph glyph-name="K" unicode="K" horiz-adv-x="783" 
d="M741 0q-42 3 -133 3q-124 0 -160 -3l8 47q64 0 66 11q0 3 -4 11l-124 264l-80 -67l-36 -219h94l-8 -47q-34 3 -164 3t-166 -3l8 47h94l99 592h-94l7 47q35 -3 165 -3t165 3l-7 -47h-94l-52 -307l338 286l11 11q-23 10 -62 10l7 47q37 -3 130 -3q47 0 92 3l-7 -47
q-57 0 -73.5 -5t-42.5 -26l-218 -185l168 -357q4 -8 7.5 -11.5t15 -5.5t35.5 -2h23z" />
    <glyph glyph-name="L" unicode="L" horiz-adv-x="600" 
d="M603 274l-77 -274h-492l8 47h94l99 592h-94l7 47q35 -3 169 -3q144 0 185 3l-7 -47h-118l-99 -592h66q43 0 78 17.5t56 40.5t38.5 59t24.5 57.5t15 52.5h47z" />
    <glyph glyph-name="M" unicode="M" horiz-adv-x="950" 
d="M915 0q-34 3 -156 3q-121 0 -157 -3l8 47h94l97 582h-1l-331 -604q-5 -9 -7.5 -12.5t-9.5 -8t-16 -4.5q-10 0 -15.5 4t-7 8t-3.5 13l-126 588h-1l-89 -537q-3 -16 -0.5 -20t20.5 -6q21 -3 49 -3h20l-8 -47l-120 3l-121 -3l8 47h20q28 0 50 3q18 2 22 5.5t7 20.5l94 563
h-94l7 47h209q20 0 26.5 -4.5t10.5 -21.5l107 -502l275 503q9 17 17.5 21t27.5 4h208l-7 -47h-94l-99 -592h94z" />
    <glyph glyph-name="N" unicode="N" horiz-adv-x="783" 
d="M855 639h-20q-28 0 -51 -3q-18 -2 -22 -5.5t-6 -20.5l-97 -578q-2 -13 -4 -19t-8.5 -9.5t-19.5 -3.5q-18 0 -25 13l-323 576l-85 -513q-3 -16 -0.5 -20t20.5 -6q21 -3 49 -3h20l-8 -47l-120 3l-121 -3l8 47h20q28 0 50 3q18 2 22 5.5t7 20.5l94 563h-94l7 47h208
q16 0 21.5 -2t11.5 -13l250 -446l64 385q3 10 1.5 15.5t-5.5 7t-17 3.5q-21 3 -48 3h-20l7 47l121 -3l120 3z" />
    <glyph glyph-name="O" unicode="O" horiz-adv-x="750" 
d="M750 339q-28 -164 -132.5 -257t-245.5 -93q-137 0 -212 92t-47 258q28 168 133 263t245 95q137 0 212 -93.5t47 -264.5zM599 353q11 69 13.5 103.5t-7.5 96.5q-12 50 -44.5 77t-76.5 27q-40 0 -81.5 -24t-72.5 -76q-38 -63 -62 -204q-8 -50 -11.5 -77.5t-3 -70t9.5 -75.5
q12 -45 42.5 -72t74.5 -27q42 0 83.5 28t68.5 75q44 76 67 219z" />
    <glyph glyph-name="P" unicode="P" horiz-adv-x="683" 
d="M708 491q-15 -87 -87.5 -138t-168.5 -51h-132l-42 -255h94l-8 -47q-34 3 -164 3t-166 -3l8 47h94l99 592h-94l7 47h359q109 0 162 -55t39 -140zM555 491q6 44 8 77t-22.5 52t-81.5 19h-88l-50 -296h88q35 0 60 8t39.5 18.5t24 33t13.5 39t9 49.5z" />
    <glyph glyph-name="Q" unicode="Q" horiz-adv-x="750" 
d="M697 -10q-3 -15 -7.5 -33.5t-16.5 -46.5t-28 -50t-42 -38t-57 -16q-34 0 -54.5 15.5t-27.5 42t-9 61t1 73.5q-36 -9 -83 -9q-140 0 -214 92.5t-46 257.5q28 168 133 263t245 95q137 0 212 -93.5t47 -264.5q-7 -42 -21 -82.5t-40 -87t-70 -86.5t-102 -65q10 -27 24 -41
t22 -16t22 -2q65 0 77 38q8 21 22 21q19 0 13 -28zM603 340q22 136 7 202q-13 58 -47.5 86.5t-78.5 28.5q-40 0 -86.5 -27.5t-82.5 -95.5q-33 -62 -55 -194q-8 -47 -11.5 -80.5t-2.5 -73.5t14 -71.5t38 -54.5l1 13q6 34 35.5 58t66.5 24q63 0 93 -77q35 31 59.5 84.5
t32.5 89.5t17 88zM454 49q-3 70 -58 70q-24 0 -41 -14t-20 -32q-1 -8 0 -16t12 -18t33 -10q39 0 74 20z" />
    <glyph glyph-name="R" unicode="R" horiz-adv-x="760" 
d="M772 94q-2 -9 -7.5 -22t-18 -34t-38.5 -35t-60 -14q-166 0 -184 91q-3 21 8 89q9 52 9.5 70t-9.5 48q-18 38 -68 38h-86l-46 -278h94l-8 -47q-34 3 -161 3t-163 -3l8 47h94l99 592h-94l7 47h333q124 0 187 -53t49 -133q-8 -54 -56 -98.5t-122 -62.5q82 -38 83 -120
q0 -5 -3 -74q-2 -24 -1 -45.5t3.5 -38t12.5 -26.5t27 -10q45 0 64 69q4 23 27 23q7 0 11 -0.5t7.5 -6t1.5 -16.5zM564 500q4 24 5.5 35.5t1 31.5t-7 30t-19 21t-35.5 16t-56 5h-82l-47 -278h80q33 0 58.5 5t42 16.5t27 22t17 29.5t9 31t6.5 35z" />
    <glyph glyph-name="S" unicode="S" horiz-adv-x="556" 
d="M533 203q-16 -93 -77.5 -153.5t-155.5 -60.5q-100 0 -158 51l-33 -28q-28 -23 -37 -23t-12 3.5t-3 8t2 16.5l30 182q3 19 7.5 24t21.5 5q15 0 18 -4t1 -19q-6 -49 9 -84.5t44 -53t57.5 -24.5t59.5 -7q55 0 83.5 35.5t37.5 81.5q12 84 -48 113q-13 5 -65 17q-52 14 -72 20
t-42 20.5t-37 37.5q-38 60 -25 136q15 87 76 143.5t152 56.5q83 0 135 -50l31 27q28 23 37 23q12 0 14.5 -7t-0.5 -21l-31 -183q-3 -18 -7.5 -23t-21.5 -5q-12 0 -16 3t-5 14q-1 12 0.5 33t-7 46.5t-21.5 47.5t-42.5 37t-71.5 15q-51 0 -80 -31.5t-36 -73.5
q-6 -35 7.5 -62.5t38.5 -37.5q6 -2 70 -19q39 -10 54.5 -15t37.5 -14.5t34.5 -23t24.5 -34.5q35 -59 21 -140z" />
    <glyph glyph-name="T" unicode="T" horiz-adv-x="694" 
d="M729 434h-47q4 57 4 100t-27.5 68.5t-87.5 25.5h-48l-97 -581h134l-8 -47q-47 3 -204 3t-206 -3l8 47h134l97 581h-49q-27 0 -49 -5.5t-37 -13t-28.5 -24t-21 -28.5t-16.5 -37t-13 -40t-12 -46h-47l62 241h579z" />
    <glyph glyph-name="U" unicode="U" horiz-adv-x="769" 
d="M841 639h-20q-28 0 -51 -3q-18 -2 -22 -5.5t-6 -20.5l-64 -383q-17 -103 -91 -170.5t-185 -67.5q-127 0 -190 67.5t-46 172.5l69 410h-94l7 47q35 -3 165 -3t165 3l-7 -47h-94l-72 -429q-2 -16 -3.5 -24.5t-2 -29t2 -34t9.5 -31.5t19.5 -28.5t34 -18.5t49.5 -8
q73 0 133.5 45.5t77.5 148.5l64 380q3 10 1.5 15.5t-5.5 7t-17 3.5q-21 3 -48 3h-20l7 47l121 -3l120 3z" />
    <glyph glyph-name="V" unicode="V" horiz-adv-x="756" 
d="M840 639q-56 0 -70.5 -4.5t-22.5 -18.5l-329 -599q-6 -11 -9.5 -15t-11.5 -7t-21 -3q-19 0 -24.5 5.5t-8.5 19.5l-133 622h-81l7 47q36 -3 147 -3q126 0 162 3l-7 -47h-82l97 -455l243 445q-23 10 -75 10l7 47l117 -3l102 3z" />
    <glyph glyph-name="W" unicode="W" horiz-adv-x="1033" 
d="M1118 639q-52 0 -66 -4.5t-21 -18.5l-302 -599q-7 -13 -14.5 -19t-22.5 -6q-17 0 -22 5.5t-8 20.5l-72 423l-214 -424q-13 -25 -38 -25q-16 0 -21.5 6t-7.5 19l-106 622h-75l7 47q39 -3 142 -3q125 0 161 3l-7 -47h-84l74 -434l156 310l-21 124h-75l7 47q39 -3 142 -3
q125 0 161 3l-7 -47h-84l74 -434l213 423q-26 11 -87 11l7 47q41 -3 122 -3q47 0 96 3z" />
    <glyph glyph-name="X" unicode="X" horiz-adv-x="756" 
d="M727 0q-36 3 -147 3q-128 0 -165 -3l8 47h73l-102 232l-179 -221q28 -11 82 -11l-8 -47q-36 3 -137 3l-123 -3l8 47h24q63 0 90 10l220 272l-137 310h-85l7 47q36 -3 148 -3q128 0 164 3l-7 -47h-73l82 -188l134 165l9 12q-29 11 -82 11l7 47q36 -3 138 -3l122 3l-7 -47
h-24q-30 0 -55 -3q-22 -2 -28.5 -5t-15.5 -14l-175 -216l157 -354h85z" />
    <glyph glyph-name="Y" unicode="Y" horiz-adv-x="756" 
d="M846 639q-59 0 -75.5 -4.5t-25.5 -16.5l-254 -344l-38 -227h95l-8 -47q-34 3 -162 3q-127 0 -163 -3l8 47h94l38 227l-147 365h-85l7 47q36 -3 150 -3q131 0 167 3l-7 -47h-75l118 -293l209 283q-22 10 -67 10l7 47l119 -3l102 3z" />
    <glyph glyph-name="Z" unicode="Z" horiz-adv-x="611" 
d="M607 284l-65 -284h-454q-13 0 -18.5 1t-8.5 6.5t-1 18.5q3 14 12 26l432 587h-94q-49 0 -87.5 -14.5t-60 -33.5t-38 -50t-22.5 -49.5t-12 -46.5h-47l52 241h441q13 0 18 -1t8.5 -6.5t1.5 -17.5t-11 -24l-430 -586h100q39 0 71 8.5t53.5 20t40 32.5t28.5 37.5t20 45
t14 44.5t10 45h47z" />
    <glyph glyph-name="bracketleft" unicode="[" horiz-adv-x="280" 
d="M215 -250h-150l167 1000h150l-10 -61h-89l-147 -878h89z" />
    <glyph glyph-name="backslash" unicode="\" horiz-adv-x="575" 
d="M473 -219q-2 -14 -12.5 -22.5t-22.5 -8.5q-7 0 -12 2t-8.5 7.5t-4.5 9t-3 11.5l-223 919q-4 16 -3 20q2 14 12.5 22.5t22.5 8.5q10 0 16 -4.5t7.5 -9.5t4.5 -16l224 -919q3 -13 2 -20z" />
    <glyph glyph-name="bracketright" unicode="]" horiz-adv-x="280" 
d="M130 -250h-150l10 61h89l147 878h-89l10 61h150z" />
    <glyph glyph-name="asciicircum" unicode="^" horiz-adv-x="556" 
d="M658 584l-15 -22l-252 123l-291 -123l-8 22l310 160z" />
    <glyph glyph-name="underscore" unicode="_" horiz-adv-x="756" 
d="M731 -149h-756l8 48h756z" />
    <glyph glyph-name="grave" unicode="`" 
d="M406 544l-39 -33l-115 84q-28 22 -24 49q5 24 27 43t46 19q29 0 43 -30z" />
    <glyph glyph-name="a" unicode="a" horiz-adv-x="486" 
d="M484 24q-3 -16 -10.5 -20t-25.5 -4h-42q-26 0 -43.5 6t-25 13.5t-10 20t-2 18.5t1.5 16q-50 -80 -136 -80q-65 0 -112.5 29t-37.5 86q13 74 98.5 114t202.5 42l6 36q9 53 -7 84.5t-59 31.5q-28 0 -60 -6q2 -2 5.5 -6t7.5 -17t1 -27q-5 -30 -26.5 -46.5t-46.5 -16.5
q-23 0 -40 16.5t-12 46.5q4 25 22 44t38 27.5t47.5 13.5t42 6t30.5 1q92 0 137.5 -41t33.5 -112l-36 -216q-1 -11 -1 -18.5t10 -12.5t32 -6q10 -1 14.5 -5t2.5 -18zM321 138l16 95q-14 -1 -27.5 -3t-40.5 -10t-47.5 -20t-39.5 -36t-24 -55t8.5 -55t42.5 -24q31 0 67 25.5
t45 82.5z" />
    <glyph glyph-name="b" unicode="b" horiz-adv-x="556" 
d="M559 222q-17 -106 -90 -167t-168 -61q-72 0 -112 53l-56 -47h-48l100 600q5 28 -4.5 33.5t-57.5 5.5l7 47l179 8l-48 -286q61 42 128 42q88 0 138.5 -59.5t31.5 -168.5zM431 223q16 94 10 129q-5 29 -23 45.5t-45 16.5q-61 0 -114 -57l-45 -268q29 -59 85 -59q27 0 53 16
t42 42q21 38 37 135z" />
    <glyph glyph-name="c" unicode="c" horiz-adv-x="444" 
d="M435 117q-1 -5 -7 -17t-21 -31t-35.5 -35t-53.5 -28t-71 -12q-93 0 -144 60.5t-33 167.5q17 105 87.5 168t169.5 63q65 0 105 -23t32 -69q-5 -30 -26.5 -46.5t-46.5 -16.5q-23 0 -40 16.5t-12 46.5q5 29 28 47q-25 5 -44 5q-22 0 -40.5 -9t-31 -26t-21.5 -34t-15.5 -42
t-9.5 -39t-6 -36q-15 -92 -3 -132q17 -61 75 -61q71 0 117 84q6 13 25 13q7 0 11 -0.5t8 -4t3 -9.5z" />
    <glyph glyph-name="d" unicode="d" horiz-adv-x="556" 
d="M539 0l-184 -6l7 41q-57 -41 -121 -41q-89 0 -139 59.5t-32 168.5q18 107 91 167.5t166 60.5q62 0 104 -38l31 188q5 28 -4.5 33.5t-57.5 5.5l7 47l179 8l-102 -608q-4 -28 5.5 -33.5t57.5 -5.5zM372 94l44 267q-28 53 -85 53q-64 0 -100 -65q-16 -31 -33 -128
q-16 -94 -10 -128q5 -29 23 -46t45 -17q64 0 116 64z" />
    <glyph glyph-name="e" unicode="e" horiz-adv-x="467" 
d="M458 117q-2 -10 -15 -28.5t-35.5 -40.5t-62.5 -38t-87 -16q-101 0 -155.5 62.5t-36.5 168.5q17 104 88 166t169 62q45 0 77.5 -13t49 -34t26 -48t8 -55.5t-4.5 -55.5q-3 -20 -10 -24.5t-27 -4.5h-250q-4 -23 -5 -35t-2.5 -38t3 -42t13.5 -34t27.5 -26.5t45.5 -8.5
q35 0 73.5 20t61.5 62q5 8 7.5 11.5t7.5 5.5t13 2q5 0 9 -0.5t8.5 -5t3.5 -12.5zM385 251q2 13 4 26.5t1.5 41t-6.5 47.5t-22.5 35.5t-43.5 15.5q-91 0 -120 -166h187z" />
    <glyph glyph-name="f" unicode="f" horiz-adv-x="306" 
d="M500 613q-5 -29 -26.5 -45.5t-45.5 -16.5q-23 0 -39.5 16t-11.5 46q7 35 33 50q-4 1 -11 1t-14 -1t-23 -7t-29 -17.5t-25.5 -35.5t-18.5 -57l-17 -102h99l-8 -47h-93l-58 -350h87l-8 -47q-35 3 -137 3l-127 -3l8 47h69l58 350h-58l8 47h58l17 101q9 54 45.5 90.5t81 50.5
t94.5 14q51 0 74.5 -26t17.5 -61z" />
    <glyph glyph-name="g" unicode="g" 
d="M551 397q-3 -18 -17 -30.5t-33 -12.5t-29 12t-7 31l2 8t2.5 6.5t1.5 3.5q-24 -7 -39 -16q30 -41 20 -97q-10 -62 -63.5 -105t-140.5 -43q-61 0 -104 25q-11 -12 -15 -35q-4 -26 8.5 -42.5t33.5 -18.5h58q47 0 72.5 -1t65.5 -9t58.5 -23t30.5 -46t5 -75q-9 -56 -72 -93
t-174 -37q-119 0 -164.5 39.5t-37.5 86.5q10 59 86 86q-32 30 -26 93q10 50 50 92q-42 39 -31 106q10 63 64.5 105.5t140.5 42.5q72 0 113 -32q47 37 95 37q28 0 39 -18.5t7 -39.5zM341 302q4 25 5.5 39.5t-1 34t-16.5 29t-38 9.5q-20 0 -35 -7.5t-23 -16.5t-15 -27.5
t-9 -29l-6 -31.5q-4 -26 -5 -40t1.5 -33.5t16.5 -29t38 -9.5q20 0 35 7.5t23 17t14.5 27t9 29t5.5 31.5zM374 -75q6 33 -21.5 47.5t-87.5 14.5h-94q-61 0 -71 -60q-7 -39 22.5 -65.5t99.5 -26.5q71 0 109 27.5t43 62.5z" />
    <glyph glyph-name="h" unicode="h" horiz-adv-x="556" 
d="M553 0l-124 3l-124 -3l8 47h65l46 274q9 43 4.5 63.5t-10 25t-15.5 4.5q-45 0 -93 -41t-60 -117l-35 -209h69l-8 -47l-125 3l-127 -3l8 47h69l92 553q5 28 -4.5 33.5t-57.5 5.5l7 47l179 8l-56 -335h1q64 91 162 91q77 0 99.5 -38t12.5 -103l-44 -262h69z" />
    <glyph glyph-name="i" unicode="i" horiz-adv-x="278" 
d="M265 0l-116 3l-123 -3l8 47h69l51 309q5 28 -4 33.5t-55 5.5l8 47l175 8l-67 -403h62zM319 609q-5 -31 -31.5 -54.5t-60.5 -23.5q-32 0 -51 23t-14 55q5 31 31.5 54.5t60.5 23.5q32 0 51 -23t14 -55z" />
    <glyph glyph-name="j" unicode="j" horiz-adv-x="306" 
d="M235 -42q-12 -73 -70.5 -115.5t-126.5 -42.5q-56 0 -90.5 24.5t-27.5 66.5q5 27 25 45t48 18q27 0 42 -18t10 -44q-8 -35 -35 -51q15 -5 32 -5q26 0 45.5 23t27 46.5t12.5 50.5l66 399q2 13 2.5 19t-3.5 11.5t-14 7.5q-15 2 -54 2l8 47l185 8zM344 609
q-5 -31 -31.5 -54.5t-60.5 -23.5q-32 0 -51 23t-14 55q5 31 31.5 54.5t60.5 23.5q32 0 51 -23t14 -55z" />
    <glyph glyph-name="k" unicode="k" horiz-adv-x="528" 
d="M511 0q-66 3 -100 3l-121 -3l8 47q37 0 39 10q1 4 -32 67.5t-46 87.5l-41 -33l-22 -132h69l-8 -47l-120 3l-121 -3l8 47h69l92 553q5 28 -4.5 33.5t-57.5 5.5l7 47l179 8l-75 -446l161 128q9 4 9 10q1 3 -5.5 6t-16.5 4t-19 1l8 47q39 -3 114 -3q54 0 77 3l-8 -47
q-44 0 -59.5 -4t-28.5 -15l-123 -99l109 -213q6 -11 9 -14t14 -4t44 -1z" />
    <glyph glyph-name="l" unicode="l" horiz-adv-x="278" 
d="M272 0l-122 3l-124 -3l8 47h69l92 553q5 28 -4.5 33.5t-57.5 5.5l7 47l179 8l-108 -647h69z" />
    <glyph glyph-name="m" unicode="m" horiz-adv-x="833" 
d="M830 0l-124 3l-124 -3l8 47h65l46 274q9 43 4.5 63.5t-10 25t-15.5 4.5q-45 0 -93 -41t-60 -117l-35 -209h69l-8 -47l-124 3l-124 -3l8 47h65l46 274q9 43 4.5 63.5t-10 25t-15.5 4.5q-45 0 -93 -41t-60 -117l-35 -209h69l-8 -47l-125 3l-127 -3l8 47h69l51 309
q5 28 -4.5 33.5t-57.5 5.5l8 47l173 8l-17 -101h1q66 101 169 101q112 0 116 -91q63 91 161 91q77 0 99.5 -38t12.5 -103l-44 -262h69z" />
    <glyph glyph-name="n" unicode="n" horiz-adv-x="556" 
d="M553 0l-124 3l-124 -3l8 47h65l46 274q9 43 4.5 63.5t-10 25t-15.5 4.5q-45 0 -93 -41t-60 -117l-35 -209h69l-8 -47l-125 3l-127 -3l8 47h69l51 309q5 28 -4.5 33.5t-57.5 5.5l8 47l173 8l-17 -101h1q66 101 169 101q77 0 99.5 -38t12.5 -103l-44 -262h69z" />
    <glyph glyph-name="o" unicode="o" 
d="M508 219q-18 -104 -89 -164.5t-171 -60.5q-98 0 -149.5 60t-33.5 165q18 107 90 170.5t170 63.5q100 0 150 -64t33 -170zM381 229q16 93 12 127q-2 25 -22.5 43t-51.5 18q-29 0 -56 -16.5t-39 -44.5q-14 -31 -30 -127q-16 -94 -13 -129q2 -31 23.5 -48.5t51.5 -17.5
q28 0 54.5 17t38.5 45q15 31 32 133z" />
    <glyph glyph-name="p" unicode="p" horiz-adv-x="556" 
d="M559 223q-18 -108 -91 -168.5t-167 -60.5q-58 0 -97 36l-30 -177h69l-7 -47l-126 3l-126 -3l7 47h69l85 509q4 15 2 22t-15 9q-11 2 -50 2l8 47l178 8l-7 -43q62 43 131 43q88 0 136.5 -60.5t30.5 -166.5zM431 223q15 89 -2.5 138t-57.5 49q-59 0 -113 -56l-44 -265
q28 -59 84 -59q42 0 79.5 48t53.5 145z" />
    <glyph glyph-name="q" unicode="q" horiz-adv-x="528" 
d="M507 -194l-126 3l-126 -3l7 47h69l31 185q-56 -44 -121 -44q-88 0 -138.5 59.5t-32.5 168.5q18 108 91 168t164 60q80 0 115 -70l64 70h41l-100 -597h69zM384 132l26 158q7 40 -14.5 80t-65.5 40q-41 0 -78.5 -46t-53.5 -143q-15 -90 2 -140.5t57 -50.5q43 0 83 34
q39 35 44 68z" />
    <glyph glyph-name="r" unicode="r" horiz-adv-x="428" 
d="M461 368q-4 -28 -25.5 -44.5t-45.5 -16.5t-39.5 16t-11.5 45q2 13 9 24.5t12 16.5l6 5q-32 0 -57 -18t-40 -48.5t-24 -59.5t-14 -62l-30 -179h87l-8 -47q-35 3 -137 3l-127 -3l8 47h69l51 309q5 28 -4.5 33.5t-57.5 5.5l8 47l167 8l-15 -91h1q45 91 125 91
q41 0 70.5 -21.5t22.5 -60.5z" />
    <glyph glyph-name="s" unicode="s" horiz-adv-x="394" 
d="M383 139q-10 -63 -54.5 -104t-130.5 -41q-57 0 -92 28q-12 -6 -27 -16q-20 -12 -29 -12t-12 3.5t-3 8t2 16.5l18 109q3 19 7.5 24t21.5 5q13 0 16 -3t5 -14q5 -55 27 -84t72 -29q91 0 102 74q4 22 -2.5 37.5t-23.5 24t-28.5 12.5t-32.5 8q-81 16 -108 49q-32 38 -24 87
q12 72 64 101.5t118 29.5q51 0 80 -18q36 18 44 18q9 0 12 -3.5t3 -8t-2 -16.5l-13 -80q-3 -18 -7.5 -23t-21.5 -5q-14 0 -17.5 3.5t-2.5 15.5q8 85 -81 85t-99 -62q-2 -14 3 -25t11.5 -17.5t22.5 -12.5t24 -8t28 -6q26 -5 39.5 -8.5t31.5 -14t31 -25.5q38 -42 28 -103z" />
    <glyph glyph-name="t" unicode="t" horiz-adv-x="390" 
d="M353 122q-9 -51 -41 -89.5t-85 -38.5q-145 0 -124 129l45 274h-63l6 36q69 3 109.5 63.5t54.5 138.5h47l-32 -191h121l-8 -47h-121l-46 -279q-13 -84 31 -84q21 0 37 24t23 65l9 54h47z" />
    <glyph glyph-name="u" unicode="u" horiz-adv-x="556" 
d="M553 0l-178 -6l11 68h-1q-49 -68 -129 -68q-79 0 -116.5 28.5t-26.5 99.5l39 234q5 28 -4.5 33.5t-57.5 5.5l8 47l184 8l-57 -345q-10 -40 -1.5 -57.5t52.5 -17.5q46 0 79 38t42 95l32 193q5 28 -4.5 33.5t-57.5 5.5l8 47l184 8l-61 -364q-4 -28 5.5 -33.5t57.5 -5.5z
" />
    <glyph glyph-name="v" unicode="v" horiz-adv-x="528" 
d="M571 397q-43 0 -54.5 -4.5t-18.5 -17.5l-195 -352q-6 -10 -9 -14.5t-11 -8.5t-20 -4q-14 0 -21 5t-11 23l-81 373h-62l8 47l112 -3l123 3l-8 -47h-57l55 -250l124 226l6 12q2 12 -49 12l8 47q42 -3 90 -3q42 0 79 3z" />
    <glyph glyph-name="w" unicode="w" horiz-adv-x="722" 
d="M766 397q-28 0 -42 -3t-18 -6.5t-10 -13.5l-181 -352q-14 -26 -39 -26q-14 0 -20.5 4.5t-9.5 21.5l-43 234l-121 -235q-7 -14 -14.5 -19.5t-24.5 -5.5q-11 0 -17.5 3.5t-8 8.5t-3.5 15l-69 374h-58l8 47l106 -3l109 3l-8 -47h-42l44 -237l80 155l6 12l-13 70h-46l8 47
q45 -3 90 -3l112 3l-8 -47h-59l49 -262l123 237l7 15q-21 10 -60 10l8 47l96 -3q41 0 77 3z" />
    <glyph glyph-name="x" unicode="x" horiz-adv-x="528" 
d="M511 0l-106 3l-120 -3l8 47h46l-65 123l-99 -112q14 -10 44 -11l-8 -47l-101 3q-47 0 -92 -3l8 47q30 0 44 0.5t29.5 5t23.5 13.5l130 145l-97 186h-68l8 47q54 -3 107 -3l118 3l-8 -47h-46l57 -108l86 97q-15 11 -45 11l8 47l103 -3q43 0 91 3l-8 -47q-38 0 -58.5 -2.5
t-26.5 -6t-13 -11.5l-115 -128l105 -202h68z" />
    <glyph glyph-name="y" unicode="y" horiz-adv-x="528" 
d="M571 397q-44 0 -55.5 -4.5t-20.5 -19.5l-253 -457q-24 -44 -68 -80t-95 -36q-40 0 -62 28t-16 64q4 27 24 42.5t43 15.5q25 0 39 -16t9 -41q-7 -40 -46 -55q8 -2 16 -2q48 0 90 56q13 18 62 108l-88 397h-62l8 47l112 -3l123 3l-8 -47h-56l55 -247l122 222l7 13
q1 5 -11.5 8t-25.5 3l-13 1l8 47q39 -3 91 -3q42 0 79 3z" />
    <glyph glyph-name="z" unicode="z" horiz-adv-x="444" 
d="M435 202l-52 -202h-323q-9 0 -13 0.5t-9 2.5t-6 6.5t0 12.5q1 10 11 22l294 364h-53q-75 0 -103.5 -31t-46.5 -108h-47l41 175h313q12 0 17 -0.5t9 -5.5t3 -15q-1 -8 -12 -21l-292 -362h55q45 0 74 10.5t47 36t26.5 48.5t19.5 67h47z" />
    <glyph glyph-name="braceleft" unicode="{" horiz-adv-x="575" 
d="M457 -232q-2 -12 -8.5 -15t-25.5 -3q-26 0 -50.5 2t-58 10.5t-56.5 22.5t-37 41t-8 63l36 210q6 38 5 47q-3 32 -31 57.5t-89 28.5q-17 1 -14 18q1 8 5 12t7.5 4.5t12.5 1.5q61 3 105 37q26 20 34.5 39.5t17.5 72.5l34 206q11 58 79.5 92.5t174.5 34.5q10 0 14.5 -0.5
t8.5 -2t5 -5t0 -10.5q-1 -8 -5 -12t-7.5 -4.5t-12.5 -1.5q-50 -3 -97 -28q-43 -29 -52 -80l-35 -210q-4 -23 -8.5 -38.5t-18.5 -38.5t-43 -40.5t-73 -28.5q57 -16 80.5 -48t18.5 -68l-39 -237q-4 -24 -3 -35q12 -69 120 -76q17 -1 14 -18z" />
    <glyph glyph-name="bar" unicode="|" horiz-adv-x="319" 
d="M156 -206q-9 -44 -39 -44q-31 0 -22 44l152 912q6 44 38 44q29 0 23 -44z" />
    <glyph glyph-name="braceright" unicode="}" horiz-adv-x="575" 
d="M538 250q-1 -8 -5 -12t-7.5 -4.5t-12.5 -1.5q-65 -4 -103 -36q-28 -22 -36 -41t-17 -72l-35 -206q-10 -56 -77.5 -91.5t-177.5 -35.5q-13 0 -18 0.5t-8 4.5t-2 13q1 8 5 12t7.5 4.5t12.5 1.5q58 3 100 30q19 13 30.5 28.5t14 24.5t5.5 25l35 210q4 25 9 39t18.5 37.5
t43 41t73.5 28.5q-58 17 -81.5 49t-18.5 67l40 237q3 28 2 35q-4 31 -34 52t-87 24q-17 1 -14 18q2 12 9 15t25 3q38 0 71.5 -5t71 -18t56.5 -43t12 -73l-35 -210q-7 -40 -5 -49q11 -79 119 -84q17 -1 14 -18z" />
    <glyph glyph-name="asciitilde" unicode="~" horiz-adv-x="556" 
d="M603 290l-61 -44q-23 -17 -63 -35q-41 -18 -76 -18q-42 0 -94 34q-59 37 -98 37q-68 0 -165 -71l-11 17l61 44q22 16 63 35q43 18 76 18q41 0 95 -34q57 -37 97 -37q68 0 165 71z" />
    <glyph glyph-name="uni00A0" unicode="&#xa0;" 
 />
    <glyph glyph-name="exclamdown" unicode="&#xa1;" horiz-adv-x="306" 
d="M301 422q-5 -32 -32 -55t-59 -23t-51 23t-14 55q6 32 32.5 55t58.5 23t51.5 -23t13.5 -55zM210 -134q-5 -29 -32 -50t-59 -21t-52 21t-15 50l4 13l114 370q5 17 9.5 21t19.5 4q14 0 17.5 -4t3.5 -18l-9 -368q0 -12 -1 -18z" />
    <glyph glyph-name="cent" unicode="&#xa2;" horiz-adv-x="444" 
d="M435 117q-1 -5 -6.5 -16t-19 -28.5t-31.5 -33.5t-47.5 -28.5t-63.5 -15.5l-7 -43q-2 -10 -10 -17t-18 -7t-16 7t-4 17l7 43q-81 9 -123.5 69t-25.5 158q16 96 77 157.5t148 71.5l7 41q1 10 9.5 17t18.5 7q23 0 20 -24l-6 -39q59 -3 93 -26t27 -66q-5 -30 -26.5 -46.5
t-46.5 -16.5q-23 0 -40 16.5t-12 46.5q5 29 28 47q-25 5 -30 5l-63 -379q69 2 114 84q6 13 25 13q7 0 11 -0.5t8 -4t3 -9.5zM228 47l60 359q-22 -9 -39 -29.5t-27 -52t-14 -49t-9 -48.5q-15 -92 -3 -132q9 -31 32 -48z" />
    <glyph glyph-name="sterling" unicode="&#xa3;" horiz-adv-x="756" 
d="M729 148q-13 -74 -48 -126.5t-89 -52.5q-16 0 -31.5 2t-32.5 8.5t-27 10.5t-29 15t-25 15t-27.5 19t-25.5 17q-49 -67 -232 -67q-46 0 -75 25t-22 65q8 46 57 67.5t114 21.5q37 0 73 -14q1 20 -1 44t-4.5 38.5l-7.5 43.5t-7 39h-116l8 48h101q-3 38 3 77q17 99 94 170.5
t171 71.5q78 0 127 -48.5t37 -120.5q-5 -26 -26 -44.5t-47 -18.5t-41.5 18.5t-11.5 44.5q4 25 24 43t45 20q-15 27 -46 42.5t-69 15.5q-57 0 -93 -56.5t-50 -137.5q-7 -43 -4 -77h163l-8 -48h-151q1 -12 7 -52t8 -58.5t2 -50t-4 -58.5q77 -43 134 -43q48 0 88 25t47 66h48z
M301 107q-37 13 -73 13q-20 0 -31 -0.5t-28.5 -2.5t-27 -6t-18 -12t-10.5 -20q-4 -20 13.5 -31t43.5 -11q43 0 80 18.5t51 51.5z" />
    <glyph glyph-name="currency" unicode="&#xa4;" horiz-adv-x="778" 
d="M705 485q18 -22 -18 -51l-63 -54q34 -58 22 -130q-12 -71 -65 -129l45 -54q26 -29 0 -52q-24 -20 -50 9l-45 54q-64 -44 -136 -44q-71 0 -123 44l-63 -54q-35 -30 -53 -8q-17 20 17 51l63 54q-33 57 -21 129t64 129l-45 55q-24 31 1 52q24 20 50 -9l46 -54q64 43 136 43
q71 0 122 -43l63 54q34 31 53 8zM586 250q11 65 -27 110.5t-102 45.5q-65 0 -118.5 -46t-63.5 -110q-11 -64 27 -110t103 -46q64 0 117 45.5t64 110.5z" />
    <glyph glyph-name="yen" unicode="&#xa5;" horiz-adv-x="756" 
d="M846 639q-59 0 -75.5 -4.5t-25.5 -16.5l-200 -270h117l-8 -48h-144l-19 -26l-13 -74h159l-8 -48h-159l-17 -105h95l-8 -47q-34 3 -162 3q-127 0 -163 -3l8 47h94l17 105h-158l8 48h158l13 74l-11 26h-143l8 48h116l-117 291h-85l7 47q36 -3 150 -3q131 0 167 3l-7 -47
h-75l117 -291h2l208 281q-22 10 -67 10l7 47l119 -3l102 3z" />
    <glyph glyph-name="brokenbar" unicode="&#xa6;" horiz-adv-x="319" 
d="M247 341q-1 -10 -11.5 -17t-22.5 -7t-20 7t-7 17l61 365q6 44 38 44q29 0 23 -44zM156 -206q-9 -44 -39 -44q-31 0 -22 44l61 365q1 10 12 17t23 7t19.5 -7t6.5 -17z" />
    <glyph glyph-name="section" unicode="&#xa7;" horiz-adv-x="604" 
d="M583 200q-12 -76 -106 -126q28 -50 19 -106q-13 -76 -80.5 -128t-148.5 -52q-72 0 -114.5 51t-30.5 124q5 26 26 44.5t47 18.5t41.5 -18.5t11.5 -44.5q-4 -23 -21.5 -40t-39.5 -22q32 -35 93 -35q42 0 76 30t42 72q2 16 -3 29.5t-20 25t-25.5 18t-31.5 16.5l-95 45
q-62 31 -96 82.5t-23 115.5q13 77 106 125q-28 51 -18 107q13 76 80.5 128t148.5 52q72 0 114.5 -51t30.5 -124q-4 -26 -26 -44.5t-48 -18.5t-41.5 18.5t-10.5 44.5q4 23 21 40t39 22q-30 35 -92 35q-42 0 -76.5 -30t-41.5 -72q-3 -16 2.5 -29.5t20 -25t25.5 -18t32 -16.5
l94 -45q62 -31 96 -82.5t23 -115.5zM473 200q9 54 -73 94l-94 45q-34 15 -63 44q-19 -26 -29 -83q-9 -53 73 -94l95 -45q31 -16 63 -44q20 28 28 83z" />
    <glyph glyph-name="dieresis" unicode="&#xa8;" 
d="M294 609q-5 -28 -28.5 -49t-54.5 -21q-29 0 -46 20.5t-12 49.5q5 28 28 49t54 21q29 0 46.5 -20.5t12.5 -49.5zM552 609q-5 -28 -28.5 -49t-54.5 -21q-29 0 -46 20.5t-12 49.5q5 28 28 49t54 21q29 0 46.5 -20.5t12.5 -49.5z" />
    <glyph glyph-name="copyright" unicode="&#xa9;" horiz-adv-x="686" 
d="M743 343q-23 -142 -140.5 -242.5t-259.5 -100.5t-225.5 100.5t-60.5 242.5q24 142 141 242.5t259 100.5q143 0 226.5 -100.5t59.5 -242.5zM683 343q19 117 -50 200t-186 83t-213.5 -83t-116.5 -200q-19 -117 50 -200t186 -83t213.5 83t116.5 200zM523 285
q-7 -44 -49 -81.5t-99 -37.5q-77 0 -118.5 47.5t-28.5 129.5q14 82 71.5 129.5t133.5 47.5q46 0 77 -31l33 26q6 5 10 5q9 0 6 -14l-18 -108q-2 -10 -4 -12t-11 -2q-8 0 -10 1t-2 7q1 51 -20.5 77.5t-54.5 26.5q-56 0 -92 -41q-28 -31 -43 -112q-12 -74 3 -107
q19 -46 82 -46q36 0 69.5 25.5t41.5 71.5q1 9 12 9q7 0 9.5 -2t1.5 -9z" />
    <glyph glyph-name="ordfeminine" unicode="&#xaa;" horiz-adv-x="431" 
d="M473 397q-2 -12 -8.5 -14.5t-20.5 -2.5h-36q-27 0 -43 6t-19.5 14.5t-5.5 17t1 14.5q-40 -56 -113 -56q-55 0 -95 20t-33 60q8 52 79 80t170 30l5 25q12 81 -60 81q-26 0 -50 -4q2 -1 4.5 -4t6.5 -12t3 -19q-4 -21 -21.5 -32.5t-39.5 -11.5q-20 0 -34 11.5t-10 32.5
q10 64 148 64q77 0 116.5 -28.5t30.5 -78.5l-25 -151q-1 -8 -0.5 -13t9 -8.5t27.5 -4.5q4 0 6 -0.5t5.5 -2.5t3 -5t-0.5 -8zM438 329q-4 -17 -27 -17h-287q-10 0 -16.5 5t-4.5 12q1 7 9 12t18 5h287q10 0 16 -5t5 -12zM335 477l11 66q-15 -1 -32 -4t-44.5 -11t-47 -26.5
t-24.5 -45.5q-3 -21 8.5 -38t36.5 -17q26 0 55.5 18t36.5 58z" />
    <glyph glyph-name="guillemotleft" unicode="&#xab;" horiz-adv-x="556" 
d="M326 454q-32 -110 -88 -220q18 -111 14 -221q0 -13 -14 -13h-8q-11 0 -13 12q-20 122 -91 216q-3 3 -3 8q0 7 5 10q104 96 164 218q3 8 12 8h8q14 0 14 -14v-4zM520 454q-32 -110 -88 -220q18 -111 14 -221q0 -13 -14 -13h-8q-11 0 -13 12q-20 122 -91 216q-3 3 -3 8
q0 7 5 10q104 96 164 218q3 8 12 8h8q14 0 14 -14v-4z" />
    <glyph glyph-name="logicalnot" unicode="&#xac;" horiz-adv-x="778" 
d="M744 138q-2 -13 -12 -21.5t-23 -8.5t-20 8.5t-5 21.5l33 195h-575q-13 0 -20 8.5t-5 21.5q1 13 11.5 21.5t23.5 8.5h605q13 0 20 -8.5t5 -21.5z" />
    <glyph glyph-name="uni00AD" unicode="&#xad;" horiz-adv-x="333" 
d="M305 174h-265l16 97h265z" />
    <glyph glyph-name="registered" unicode="&#xae;" horiz-adv-x="686" 
d="M743 343q-23 -142 -140.5 -242.5t-259.5 -100.5t-225.5 100.5t-60.5 242.5q24 142 141 242.5t259 100.5q143 0 226.5 -100.5t59.5 -242.5zM683 343q19 117 -50 200t-186 83t-213.5 -83t-116.5 -200q-19 -117 50 -200t186 -83t213.5 83t116.5 200zM575 222q-1 -7 -5 -17
t-19.5 -23t-37.5 -13q-83 0 -91 46q-1 12 4 44q7 43 0 59q-9 19 -34 19h-43l-23 -139h47l-4 -23q-18 1 -81 1q-64 0 -81 -1l4 23h47l49 296h-47l4 23h166q62 0 93 -26.5t25 -66.5q-5 -27 -29 -49t-61 -31q41 -20 42 -60v-8t-0.5 -15.5t-0.5 -13.5q-1 -12 -0.5 -22.5t1.5 -19
t6 -13.5t14 -5q22 0 32 35q1 11 13 11t10 -11zM472 424q2 19 3 34.5t-13.5 25.5t-45.5 10h-41l-23 -139h40q24 0 40 5.5t23.5 17t10.5 20.5t6 26z" />
    <glyph glyph-name="macron" unicode="&#xaf;" 
d="M528 583h-361l9 52h361z" />
    <glyph glyph-name="degree" unicode="&#xb0;" horiz-adv-x="375" 
d="M417 547q-9 -57 -56.5 -98t-104.5 -41t-91 41t-25 98q10 58 57 98.5t105 40.5q57 0 91 -40.5t24 -98.5zM357 547q6 33 -13.5 56t-51.5 23q-33 0 -59.5 -23t-32.5 -56q-5 -32 14 -55.5t52 -23.5q32 0 59 23.5t32 55.5z" />
    <glyph glyph-name="plusminus" unicode="&#xb1;" horiz-adv-x="778" 
d="M726 30q-5 -30 -48 -30h-579q-11 0 -18 1t-14.5 8.5t-5.5 21.5q5 30 48 30h259l40 241h-259q-11 0 -18 1t-14.5 8.5t-4.5 21.5q5 30 48 30h259l43 260q6 42 38 42q30 0 23 -42l-43 -260h259q11 0 18 -1t14.5 -8.5t4.5 -21.5q-5 -30 -48 -30h-259l-40 -241h259q11 0 18 -1
t14.5 -8.5t5.5 -21.5z" />
    <glyph glyph-name="two.superior" unicode="&#xb2;" horiz-adv-x="359" 
d="M396 437l-44 -133h-265l2 11q1 12 10 20l134 119q79 70 88 130q0 14 1 33t-13 35.5t-42 16.5q-37 0 -63 -21q19 -3 29.5 -14.5t7.5 -28.5q-3 -21 -21 -32t-38 -11q-18 0 -33.5 10.5t-11.5 33.5q6 38 49.5 64.5t100.5 26.5q66 0 103.5 -32t29.5 -81q-8 -47 -64 -89
l-75 -49l-96 -67h86q62 0 67 5q12 12 24 53h34z" />
    <glyph glyph-name="three.superior" unicode="&#xb3;" horiz-adv-x="359" 
d="M398 412q-9 -49 -57 -81.5t-123 -32.5q-60 0 -94.5 26.5t-28.5 63.5q4 22 21.5 34t41.5 12q23 0 36.5 -12.5t10.5 -32.5q-7 -38 -53 -46q27 -20 67 -20q19 0 32.5 8.5t20.5 25.5t10 27t6 29q3 23 4 43t-10.5 33t-38.5 13h-19q-12 0 -15.5 1.5t-2.5 9.5q1 7 5.5 9t19.5 3
q24 1 36.5 6t24.5 23q11 17 22 62q1 11 2 24t-8.5 23.5t-29.5 10.5q-36 0 -65 -22q45 -5 39 -42q-3 -17 -18.5 -29t-39.5 -12q-21 0 -33.5 11t-8.5 31q6 34 43 60t91 26q64 0 98 -23t28 -60t-38 -62.5t-69 -36.5q58 -12 78.5 -41t14.5 -62z" />
    <glyph glyph-name="acute" unicode="&#xb4;" 
d="M486 644q-4 -28 -40 -49l-143 -84l-27 33l106 132q25 30 53 30q24 0 39.5 -19t11.5 -43z" />
    <glyph glyph-name="uni00B5" unicode="&#xb5;" horiz-adv-x="556" 
d="M552 0q-34 -2 -57 -2q-57 0 -121 -4l11 68h-1q-48 -68 -128 -68q-29 0 -50 3l-24 -144h69l-7 -47q-51 3 -126 3q-76 0 -126 -3l7 47h69l84 501q5 30 -4 35.5t-58 5.5l8 47l184 8l-57 -344q-10 -40 -1.5 -58t51.5 -18q46 0 79 37.5t43 97.5l31 189q5 30 -4 35.5t-58 5.5
l8 47l184 8l-60 -362q-5 -30 4 -35.5t58 -5.5z" />
    <glyph glyph-name="paragraph" unicode="&#xb6;" horiz-adv-x="703" 
d="M781 663q-5 -30 -50 -30h-51l-131 -783q-3 -13 -4.5 -19t-10.5 -15.5t-23 -9.5q-29 0 -23 44l131 783h-80l-131 -783q-3 -13 -4.5 -19t-10.5 -15.5t-23 -9.5q-29 0 -23 44l62 370q-137 8 -211 72.5t-58 164.5q17 102 113.5 169.5t213.5 67.5h274q12 0 19.5 -1t15 -8.5
t5.5 -21.5z" />
    <glyph glyph-name="periodcentered" unicode="&#xb7;" horiz-adv-x="778" 
d="M524 343q-5 -32 -32 -55t-59 -23t-51 23t-14 55t32 55t59 23t51 -23t14 -55z" />
    <glyph glyph-name="cedilla" unicode="&#xb8;" horiz-adv-x="444" 
d="M337 -116q-4 -24 -21 -41t-36.5 -25t-55 -12.5t-57.5 -5t-63 -0.5h-48l8 48h24q27 0 41.5 0.5t35 3.5t31.5 11t13 21q2 16 -12.5 25.5t-36.5 9.5l15 86h96l-7 -38q35 0 56.5 -24.5t16.5 -58.5z" />
    <glyph glyph-name="one.superior" unicode="&#xb9;" horiz-adv-x="359" 
d="M361 304q-28 2 -126 2q-97 0 -124 -2l4 28h80l52 309q-40 -10 -92 -10l5 28q100 0 154 38q19 0 23 -2.5t2 -16.5l-58 -346h84z" />
    <glyph glyph-name="ordmasculine" unicode="&#xba;" horiz-adv-x="419" 
d="M485 533q-12 -73 -70.5 -115t-142.5 -42q-82 0 -126.5 42t-32.5 115q13 75 71.5 119.5t140.5 44.5q85 0 128.5 -45t31.5 -119zM427 329q-4 -17 -27 -17h-276q-10 0 -16.5 5t-4.5 12q1 7 9 12t18 5h276q10 0 16 -5t5 -12zM378 540q11 63 8 89q-3 18 -21 30.5t-44 12.5
q-24 0 -46 -11.5t-31 -31.5q-10 -19 -23 -89q-11 -66 -8 -90q3 -22 21 -34t43 -12q23 0 45.5 11.5t32.5 31.5q13 26 23 93z" />
    <glyph glyph-name="guillemotright" unicode="&#xbb;" horiz-adv-x="556" 
d="M511 236q0 -7 -5 -10q-104 -96 -164 -218q-3 -8 -12 -8h-8q-14 0 -14 14v4q36 118 88 220q-18 111 -14 221q0 13 14 13h8q12 0 14 -12q18 -120 90 -215q3 -5 3 -9zM317 236q0 -7 -5 -10q-104 -96 -164 -218q-3 -8 -12 -8h-8q-14 0 -14 14v4q36 118 88 220
q-18 111 -14 221q0 13 14 13h8q12 0 14 -12q18 -120 90 -215q3 -5 3 -9z" />
    <glyph glyph-name="onequarter" unicode="&#xbc;" horiz-adv-x="855" 
d="M361 304q-28 2 -126 2q-97 0 -124 -2l4 28h80l52 309q-40 -10 -92 -10l5 28q100 0 154 38q19 0 23 -2.5t2 -16.5l-58 -346h84zM805 0q-28 2 -102 2q-87 0 -113 -2l5 28h70l11 66h-174l4 28l265 263q9 9 24 9t17.5 -4.5t-0.5 -15.5l-42 -252h55l-4 -28h-55l-11 -66h55z
M811 666q-2 -9 -7 -16l-507 -646q-14 -14 -29 -14q-12 0 -19 8.5t-6 21.5q1 8 8 16l508 646q11 14 27 14q13 0 20 -8.5t5 -21.5zM688 122l29 174l-176 -174h147z" />
    <glyph glyph-name="onehalf" unicode="&#xbd;" horiz-adv-x="855" 
d="M361 304q-28 2 -126 2q-97 0 -124 -2l4 28h80l52 309q-40 -10 -92 -10l5 28q100 0 154 38q19 0 23 -2.5t2 -16.5l-58 -346h84zM827 133l-44 -133h-265l2 11q2 12 10 20l134 118q78 71 89 131q0 14 1 33t-13.5 35.5t-42.5 16.5q-37 0 -64 -21q43 -7 37 -43
q-3 -21 -21 -32.5t-37 -11.5t-34 10.5t-11 34.5q7 38 50 64.5t100 26.5q66 0 104 -32t30 -81q-7 -46 -65 -89l-75 -49q-6 -4 -44.5 -31.5t-51.5 -35.5h87q62 0 65 5q13 11 25 53h34zM768 666q-2 -9 -7 -16l-507 -646q-12 -14 -28 -14q-13 0 -20 8.5t-5 21.5q2 9 7 16
l508 646q10 14 27 14q13 0 20 -8.5t5 -21.5z" />
    <glyph glyph-name="threequarters" unicode="&#xbe;" horiz-adv-x="855" 
d="M428 412q-9 -49 -57 -81.5t-122 -32.5q-60 0 -95 26.5t-29 63.5q4 22 21.5 34t41.5 12t37.5 -12.5t10.5 -32.5q-7 -38 -54 -46q27 -20 67 -20q19 0 32.5 8.5t20.5 25.5t10 27t6 29q3 23 4 43t-10.5 33t-38.5 13h-18q-8 0 -11.5 0.5t-6 3t-1.5 7.5q1 11 26 12q16 1 24 2
t18 7.5t18 19.5q11 17 22 62q1 11 2 24t-8.5 23.5t-29.5 10.5q-36 0 -65 -22q45 -5 39 -42q-3 -17 -18.5 -29t-38.5 -12q-21 0 -34 11t-9 31q6 34 43 60t91 26q64 0 98 -23t28 -60t-38 -62.5t-69 -36.5q58 -12 78.5 -41t14.5 -62zM805 0q-28 2 -102 2q-87 0 -113 -2l5 28h70
l11 66h-174l4 28l265 263q9 9 24 9t17.5 -4.5t-0.5 -15.5l-42 -252h55l-4 -28h-55l-11 -66h55zM811 666q-2 -9 -7 -16l-507 -646q-14 -14 -29 -14q-12 0 -19 8.5t-6 21.5q1 8 8 16l508 646q11 14 27 14q13 0 20 -8.5t5 -21.5zM688 122l29 174l-176 -174h147z" />
    <glyph glyph-name="questiondown" unicode="&#xbf;" horiz-adv-x="472" 
d="M370 422q-5 -32 -32 -55t-59 -23t-51 23t-14 55q6 32 32.5 55t58.5 23t51.5 -23t13.5 -55zM403 -73q-10 -58 -70 -92.5t-145 -34.5q-13 0 -23.5 1t-32 4t-36.5 11.5t-30.5 21.5t-21 36.5t-0.5 54.5q11 62 61 97q38 27 64.5 57t40 59.5t19 48.5t9.5 44l2 12q3 18 7.5 22.5
t20.5 4.5q17 0 19.5 -6t-1.5 -31q-22 -127 -87 -229q-20 -32 -29 -93q-10 -48 -5.5 -63.5t34.5 -15.5q63 0 114 31q-25 13 -32 29q-6 15 -3 32q5 29 26 46t47 17q23 0 40 -16t12 -48z" />
    <glyph glyph-name="Agrave" unicode="&#xc0;" horiz-adv-x="756" 
d="M720 0q-35 3 -149 3q-127 0 -164 -3l8 47h83l-25 135h-219l-57 -111l-6 -12q0 -3 4.5 -5t13 -3.5t16.5 -2t18.5 -1t15 -0.5h8.5l-8 -47l-117 3l-107 -3l8 47q38 0 58 2q21 2 27 5.5t12 15.5l312 602q9 18 17.5 22t24.5 4q11 0 16 -1t10 -7t7 -18l116 -625h85zM464 229
l-49 264l-137 -264h186zM577 776l-32 -38l-132 60q-33 16 -33 43q-1 29 21 51t51 22q24 0 39 -22z" />
    <glyph glyph-name="Aacute" unicode="&#xc1;" horiz-adv-x="756" 
d="M720 0q-35 3 -149 3q-127 0 -164 -3l8 47h83l-25 135h-219l-57 -111l-6 -12q0 -3 4.5 -5t13 -3.5t16.5 -2t18.5 -1t15 -0.5h8.5l-8 -47l-117 3l-107 -3l8 47q38 0 58 2q21 2 27 5.5t12 15.5l312 602q9 18 17.5 22t24.5 4q11 0 16 -1t10 -7t7 -18l116 -625h85zM464 229
l-49 264l-137 -264h186zM656 841q-10 -27 -47 -43l-152 -60l-20 38l124 116q25 22 47 22q29 0 43.5 -22t4.5 -51z" />
    <glyph glyph-name="Acircumflex" unicode="&#xc2;" horiz-adv-x="756" 
d="M720 0q-35 3 -149 3q-127 0 -164 -3l8 47h83l-25 135h-219l-57 -111l-6 -12q0 -3 4.5 -5t13 -3.5t16.5 -2t18.5 -1t15 -0.5h8.5l-8 -47l-117 3l-107 -3l8 47q38 0 58 2q21 2 27 5.5t12 15.5l312 602q9 18 17.5 22t24.5 4q11 0 16 -1t10 -7t7 -18l116 -625h85zM464 229
l-49 264l-137 -264h186zM678 752l-20 -24l-150 58l-170 -58l-10 24l199 141z" />
    <glyph glyph-name="Atilde" unicode="&#xc3;" horiz-adv-x="756" 
d="M720 0q-35 3 -149 3q-127 0 -164 -3l8 47h83l-25 135h-219l-57 -111l-6 -12q0 -3 4.5 -5t13 -3.5t16.5 -2t18.5 -1t15 -0.5h8.5l-8 -47l-117 3l-107 -3l8 47q38 0 58 2q21 2 27 5.5t12 15.5l312 602q9 18 17.5 22t24.5 4q11 0 16 -1t10 -7t7 -18l116 -625h85zM464 229
l-49 264l-137 -264h186zM680 812l-50 -53q-3 -4 -10 -10t-23.5 -13.5t-34.5 -7.5q-19 0 -63 14q-48 17 -70 17q-38 0 -68 -31l-24 22l50 53q3 4 10 10t23.5 13.5t34.5 7.5t62 -14q49 -17 71 -17q38 0 68 31z" />
    <glyph glyph-name="Adieresis" unicode="&#xc4;" horiz-adv-x="756" 
d="M720 0q-35 3 -149 3q-127 0 -164 -3l8 47h83l-25 135h-219l-57 -111l-6 -12q0 -3 4.5 -5t13 -3.5t16.5 -2t18.5 -1t15 -0.5h8.5l-8 -47l-117 3l-107 -3l8 47q38 0 58 2q21 2 27 5.5t12 15.5l312 602q9 18 17.5 22t24.5 4q11 0 16 -1t10 -7t7 -18l116 -625h85zM464 229
l-49 264l-137 -264h186zM429 798q-5 -28 -28.5 -49t-54.5 -21q-29 0 -46 20.5t-12 49.5q5 28 28 49t54 21q29 0 46.5 -20.5t12.5 -49.5zM735 798q-5 -28 -28.5 -49t-54.5 -21q-29 0 -46 20.5t-12 49.5q5 28 28 49t54 21q29 0 46.5 -20.5t12.5 -49.5z" />
    <glyph glyph-name="Aring" unicode="&#xc5;" horiz-adv-x="756" 
d="M720 0q-35 3 -149 3q-127 0 -164 -3l8 47h83l-25 135h-219l-57 -111l-6 -12q0 -3 4.5 -5t13 -3.5t16.5 -2t18.5 -1t15 -0.5h8.5l-8 -47l-117 3l-107 -3l8 47q38 0 58 2q21 2 27 5.5t12 15.5l312 602q9 18 17.5 22t24.5 4q11 0 16 -1t10 -7t7 -18l116 -625h85zM464 229
l-49 264l-137 -264h186zM561 782q4 26 -6 34.5t-40 8.5q-31 0 -43.5 -9t-16.5 -34q-4 -26 6 -34.5t40 -8.5q31 0 43.5 9t16.5 34zM615 783q-6 -36 -37.5 -60.5t-84.5 -24.5q-51 0 -74.5 24t-17.5 61q6 33 37 58t85 25q52 0 75 -24.5t17 -58.5z" />
    <glyph glyph-name="AE" unicode="&#xc6;" horiz-adv-x="906" 
d="M923 274l-92 -274h-483l8 47h71l43 259h-148l-124 -234l-6 -12q-1 -6 18 -9t38 -3l20 -1l-8 -47l-118 3l-107 -3l8 47q42 0 62 2.5t25.5 6.5t10.5 14l302 569h-67l7 47h549l-9 -241h-47q4 41 1 76.5t-13.5 61.5t-41.5 41t-83 15h-81l-48 -286h31q63 0 84.5 26.5
t31.5 90.5h47l-46 -281h-47q6 38 5.5 64t-20 39.5t-63.5 13.5h-31l-43 -259h86q32 0 59 6.5t46.5 15t36.5 27.5t27.5 33.5t23.5 43.5t19.5 47t18.5 54h47zM478 353l48 286h-26l-153 -286h131z" />
    <glyph glyph-name="Ccedilla" unicode="&#xc7;" horiz-adv-x="722" 
d="M703 227q-14 -81 -86 -152t-174 -84l-4 -24q35 0 56.5 -24.5t16.5 -58.5q-4 -24 -21 -41t-36.5 -25t-55 -12.5t-57.5 -5t-63 -0.5h-48l8 48h24q27 0 41.5 0.5t35 3.5t31.5 11t13 21q2 16 -12.5 25.5t-36.5 9.5l13 74q-129 18 -194 110.5t-41 239.5q28 165 143 259.5
t267 94.5q93 0 153 -62l67 53q12 9 20 9q12 0 14.5 -7t-0.5 -21l-36 -215q-4 -20 -8.5 -24t-23.5 -4q-10 0 -14 0.5t-6.5 4t-2.5 11.5q2 103 -42 155.5t-110 52.5q-111 0 -183 -82q-27 -30 -46 -76t-25 -74t-14 -75q-12 -76 -12 -125t17 -90q20 -44 64 -68t99 -24
q45 0 91 20.5t84 66.5t48 108q2 12 7.5 14.5t17.5 2.5q14 0 18.5 -3.5t2.5 -17.5z" />
    <glyph glyph-name="Egrave" unicode="&#xc8;" horiz-adv-x="656" 
d="M673 274l-92 -274h-547l8 47h94l98 586h-94l7 47h534l-9 -241h-47q4 42 0 77.5t-15.5 61.5t-45 40.5t-89.5 14.5h-99l-43 -257h22q33 0 54 7t33 25t17 35t10 50h47l-47 -281h-47q6 37 6.5 63t-18.5 40t-63 14h-22l-47 -282h103q41 0 72.5 7t55.5 23.5t40.5 33.5t31 47.5
t23.5 53t22 62.5h47zM527 776l-32 -38l-132 60q-33 16 -33 43q-1 29 21 51t51 22q24 0 39 -22z" />
    <glyph glyph-name="Eacute" unicode="&#xc9;" horiz-adv-x="656" 
d="M673 274l-92 -274h-547l8 47h94l98 586h-94l7 47h534l-9 -241h-47q4 42 0 77.5t-15.5 61.5t-45 40.5t-89.5 14.5h-99l-43 -257h22q33 0 54 7t33 25t17 35t10 50h47l-47 -281h-47q6 37 6.5 63t-18.5 40t-63 14h-22l-47 -282h103q41 0 72.5 7t55.5 23.5t40.5 33.5t31 47.5
t23.5 53t22 62.5h47zM606 841q-10 -27 -47 -43l-152 -60l-20 38l124 116q25 22 47 22q29 0 43.5 -22t4.5 -51z" />
    <glyph glyph-name="Ecircumflex" unicode="&#xca;" horiz-adv-x="656" 
d="M673 274l-92 -274h-547l8 47h94l98 586h-94l7 47h534l-9 -241h-47q4 42 0 77.5t-15.5 61.5t-45 40.5t-89.5 14.5h-99l-43 -257h22q33 0 54 7t33 25t17 35t10 50h47l-47 -281h-47q6 37 6.5 63t-18.5 40t-63 14h-22l-47 -282h103q41 0 72.5 7t55.5 23.5t40.5 33.5t31 47.5
t23.5 53t22 62.5h47zM628 752l-20 -24l-150 58l-170 -58l-10 24l199 141z" />
    <glyph glyph-name="Edieresis" unicode="&#xcb;" horiz-adv-x="656" 
d="M673 274l-92 -274h-547l8 47h94l98 586h-94l7 47h534l-9 -241h-47q4 42 0 77.5t-15.5 61.5t-45 40.5t-89.5 14.5h-99l-43 -257h22q33 0 54 7t33 25t17 35t10 50h47l-47 -281h-47q6 37 6.5 63t-18.5 40t-63 14h-22l-47 -282h103q41 0 72.5 7t55.5 23.5t40.5 33.5t31 47.5
t23.5 53t22 62.5h47zM379 798q-5 -28 -28.5 -49t-54.5 -21q-29 0 -46 20.5t-12 49.5q5 28 28 49t54 21q29 0 46.5 -20.5t12.5 -49.5zM685 798q-5 -28 -28.5 -49t-54.5 -21q-29 0 -46 20.5t-12 49.5q5 28 28 49t54 21q29 0 46.5 -20.5t12.5 -49.5z" />
    <glyph glyph-name="Igrave" unicode="&#xcc;" horiz-adv-x="397" 
d="M368 0q-35 3 -169 3t-171 -3l8 47h99l99 592h-99l7 47q36 -3 170 -3t170 3l-7 -47h-99l-99 -592h99zM398 776l-32 -38l-132 60q-33 16 -33 43q-1 29 21 51t51 22q24 0 39 -22z" />
    <glyph glyph-name="Iacute" unicode="&#xcd;" horiz-adv-x="397" 
d="M368 0q-35 3 -169 3t-171 -3l8 47h99l99 592h-99l7 47q36 -3 170 -3t170 3l-7 -47h-99l-99 -592h99zM477 841q-10 -27 -47 -43l-152 -60l-20 38l124 116q25 22 47 22q29 0 43.5 -22t4.5 -51z" />
    <glyph glyph-name="Icircumflex" unicode="&#xce;" horiz-adv-x="397" 
d="M368 0q-35 3 -169 3t-171 -3l8 47h99l99 592h-99l7 47q36 -3 170 -3t170 3l-7 -47h-99l-99 -592h99zM499 752l-20 -24l-150 58l-170 -58l-10 24l199 141z" />
    <glyph glyph-name="Idieresis" unicode="&#xcf;" horiz-adv-x="397" 
d="M368 0q-35 3 -169 3t-171 -3l8 47h99l99 592h-99l7 47q36 -3 170 -3t170 3l-7 -47h-99l-99 -592h99zM250 798q-5 -28 -28.5 -49t-54.5 -21q-29 0 -46 20.5t-12 49.5q5 28 28 49t54 21q29 0 46.5 -20.5t12.5 -49.5zM556 798q-5 -28 -28.5 -49t-54.5 -21q-29 0 -46 20.5
t-12 49.5q5 28 28 49t54 21q29 0 46.5 -20.5t12.5 -49.5z" />
    <glyph glyph-name="Eth" unicode="&#xd0;" horiz-adv-x="767" 
d="M766 337q-27 -160 -128 -248.5t-232 -88.5h-372l8 47h94l45 272h-94l8 48h94l46 272h-94l7 47h372q130 0 202 -91.5t44 -257.5zM619 337q26 153 4 212q-34 90 -152 90h-100l-46 -272h119l-8 -48h-119l-45 -272h101q118 0 180 85q43 60 66 205z" />
    <glyph glyph-name="Ntilde" unicode="&#xd1;" horiz-adv-x="783" 
d="M855 639h-20q-28 0 -51 -3q-18 -2 -22 -5.5t-6 -20.5l-97 -578q-2 -13 -4 -19t-8.5 -9.5t-19.5 -3.5q-18 0 -25 13l-323 576l-85 -513q-3 -16 -0.5 -20t20.5 -6q21 -3 49 -3h20l-8 -47l-120 3l-121 -3l8 47h20q28 0 50 3q18 2 22 5.5t7 20.5l94 563h-94l7 47h208
q16 0 21.5 -2t11.5 -13l250 -446l64 385q3 10 1.5 15.5t-5.5 7t-17 3.5q-21 3 -48 3h-20l7 47l121 -3l120 3zM694 812l-50 -53q-3 -4 -10 -10t-23.5 -13.5t-34.5 -7.5q-19 0 -63 14q-48 17 -70 17q-38 0 -68 -31l-24 22l50 53q3 4 10 10t23.5 13.5t34.5 7.5t62 -14
q49 -17 71 -17q38 0 68 31z" />
    <glyph glyph-name="Ograve" unicode="&#xd2;" horiz-adv-x="750" 
d="M750 339q-28 -164 -132.5 -257t-245.5 -93q-137 0 -212 92t-47 258q28 168 133 263t245 95q137 0 212 -93.5t47 -264.5zM599 353q11 69 13.5 103.5t-7.5 96.5q-12 50 -44.5 77t-76.5 27q-40 0 -81.5 -24t-72.5 -76q-38 -63 -62 -204q-8 -50 -11.5 -77.5t-3 -70t9.5 -75.5
q12 -45 42.5 -72t74.5 -27q42 0 83.5 28t68.5 75q44 76 67 219zM574 776l-32 -38l-132 60q-33 16 -33 43q-1 29 21 51t51 22q24 0 39 -22z" />
    <glyph glyph-name="Oacute" unicode="&#xd3;" horiz-adv-x="750" 
d="M750 339q-28 -164 -132.5 -257t-245.5 -93q-137 0 -212 92t-47 258q28 168 133 263t245 95q137 0 212 -93.5t47 -264.5zM599 353q11 69 13.5 103.5t-7.5 96.5q-12 50 -44.5 77t-76.5 27q-40 0 -81.5 -24t-72.5 -76q-38 -63 -62 -204q-8 -50 -11.5 -77.5t-3 -70t9.5 -75.5
q12 -45 42.5 -72t74.5 -27q42 0 83.5 28t68.5 75q44 76 67 219zM653 841q-10 -27 -47 -43l-152 -60l-20 38l124 116q25 22 47 22q29 0 43.5 -22t4.5 -51z" />
    <glyph glyph-name="Ocircumflex" unicode="&#xd4;" horiz-adv-x="750" 
d="M750 339q-28 -164 -132.5 -257t-245.5 -93q-137 0 -212 92t-47 258q28 168 133 263t245 95q137 0 212 -93.5t47 -264.5zM599 353q11 69 13.5 103.5t-7.5 96.5q-12 50 -44.5 77t-76.5 27q-40 0 -81.5 -24t-72.5 -76q-38 -63 -62 -204q-8 -50 -11.5 -77.5t-3 -70t9.5 -75.5
q12 -45 42.5 -72t74.5 -27q42 0 83.5 28t68.5 75q44 76 67 219zM675 752l-20 -24l-150 58l-170 -58l-10 24l199 141z" />
    <glyph glyph-name="Otilde" unicode="&#xd5;" horiz-adv-x="750" 
d="M750 339q-28 -164 -132.5 -257t-245.5 -93q-137 0 -212 92t-47 258q28 168 133 263t245 95q137 0 212 -93.5t47 -264.5zM599 353q11 69 13.5 103.5t-7.5 96.5q-12 50 -44.5 77t-76.5 27q-40 0 -81.5 -24t-72.5 -76q-38 -63 -62 -204q-8 -50 -11.5 -77.5t-3 -70t9.5 -75.5
q12 -45 42.5 -72t74.5 -27q42 0 83.5 28t68.5 75q44 76 67 219zM677 812l-50 -53q-3 -4 -10 -10t-23.5 -13.5t-34.5 -7.5q-19 0 -63 14q-48 17 -70 17q-38 0 -68 -31l-24 22l50 53q3 4 10 10t23.5 13.5t34.5 7.5t62 -14q49 -17 71 -17q38 0 68 31z" />
    <glyph glyph-name="Odieresis" unicode="&#xd6;" horiz-adv-x="750" 
d="M750 339q-28 -164 -132.5 -257t-245.5 -93q-137 0 -212 92t-47 258q28 168 133 263t245 95q137 0 212 -93.5t47 -264.5zM599 353q11 69 13.5 103.5t-7.5 96.5q-12 50 -44.5 77t-76.5 27q-40 0 -81.5 -24t-72.5 -76q-38 -63 -62 -204q-8 -50 -11.5 -77.5t-3 -70t9.5 -75.5
q12 -45 42.5 -72t74.5 -27q42 0 83.5 28t68.5 75q44 76 67 219zM426 798q-5 -28 -28.5 -49t-54.5 -21q-29 0 -46 20.5t-12 49.5q5 28 28 49t54 21q29 0 46.5 -20.5t12.5 -49.5zM732 798q-5 -28 -28.5 -49t-54.5 -21q-29 0 -46 20.5t-12 49.5q5 28 28 49t54 21
q29 0 46.5 -20.5t12.5 -49.5z" />
    <glyph glyph-name="multiply" unicode="&#xd7;" horiz-adv-x="778" 
d="M705 485q18 -22 -18 -51l-213 -183l152 -184q26 -29 0 -52q-24 -20 -50 9l-152 183l-215 -183q-35 -30 -53 -8q-17 20 17 51l214 184l-153 183q-24 31 1 52q24 20 50 -9l153 -183l214 183q34 31 53 8z" />
    <glyph glyph-name="Oslash" unicode="&#xd8;" horiz-adv-x="778" 
d="M778 340q-28 -166 -137 -258.5t-254 -92.5q-89 0 -155 36l-62 -84l-31 20l63 84q-48 33 -78 106.5t-11 188.5q27 163 135 260t257 97q83 0 154 -36l62 84l31 -20l-62 -85q62 -48 82.5 -128t5.5 -172zM618 607q-7 10 -19 20.5t-40 22t-61 11.5q-43 0 -92 -23t-86 -80
q-41 -65 -65 -218q-9 -51 -12.5 -81t-2.5 -73t12 -72zM636 340q9 55 12.5 82.5t2.5 73t-13 75.5l-366 -493q45 -53 121 -53q41 0 88 20.5t82 67.5q21 29 36.5 72t21.5 73t15 82z" />
    <glyph glyph-name="Ugrave" unicode="&#xd9;" horiz-adv-x="769" 
d="M841 639h-20q-28 0 -51 -3q-18 -2 -22 -5.5t-6 -20.5l-64 -383q-17 -103 -91 -170.5t-185 -67.5q-127 0 -190 67.5t-46 172.5l69 410h-94l7 47q35 -3 165 -3t165 3l-7 -47h-94l-72 -429q-2 -16 -3.5 -24.5t-2 -29t2 -34t9.5 -31.5t19.5 -28.5t34 -18.5t49.5 -8
q73 0 133.5 45.5t77.5 148.5l64 380q3 10 1.5 15.5t-5.5 7t-17 3.5q-21 3 -48 3h-20l7 47l121 -3l120 3zM607 776l-32 -38l-132 60q-33 16 -33 43q-1 29 21 51t51 22q24 0 39 -22z" />
    <glyph glyph-name="Uacute" unicode="&#xda;" horiz-adv-x="769" 
d="M841 639h-20q-28 0 -51 -3q-18 -2 -22 -5.5t-6 -20.5l-64 -383q-17 -103 -91 -170.5t-185 -67.5q-127 0 -190 67.5t-46 172.5l69 410h-94l7 47q35 -3 165 -3t165 3l-7 -47h-94l-72 -429q-2 -16 -3.5 -24.5t-2 -29t2 -34t9.5 -31.5t19.5 -28.5t34 -18.5t49.5 -8
q73 0 133.5 45.5t77.5 148.5l64 380q3 10 1.5 15.5t-5.5 7t-17 3.5q-21 3 -48 3h-20l7 47l121 -3l120 3zM686 841q-10 -27 -47 -43l-152 -60l-20 38l124 116q25 22 47 22q29 0 43.5 -22t4.5 -51z" />
    <glyph glyph-name="Ucircumflex" unicode="&#xdb;" horiz-adv-x="769" 
d="M841 639h-20q-28 0 -51 -3q-18 -2 -22 -5.5t-6 -20.5l-64 -383q-17 -103 -91 -170.5t-185 -67.5q-127 0 -190 67.5t-46 172.5l69 410h-94l7 47q35 -3 165 -3t165 3l-7 -47h-94l-72 -429q-2 -16 -3.5 -24.5t-2 -29t2 -34t9.5 -31.5t19.5 -28.5t34 -18.5t49.5 -8
q73 0 133.5 45.5t77.5 148.5l64 380q3 10 1.5 15.5t-5.5 7t-17 3.5q-21 3 -48 3h-20l7 47l121 -3l120 3zM708 752l-20 -24l-150 58l-170 -58l-10 24l199 141z" />
    <glyph glyph-name="Udieresis" unicode="&#xdc;" horiz-adv-x="769" 
d="M841 639h-20q-28 0 -51 -3q-18 -2 -22 -5.5t-6 -20.5l-64 -383q-17 -103 -91 -170.5t-185 -67.5q-127 0 -190 67.5t-46 172.5l69 410h-94l7 47q35 -3 165 -3t165 3l-7 -47h-94l-72 -429q-2 -16 -3.5 -24.5t-2 -29t2 -34t9.5 -31.5t19.5 -28.5t34 -18.5t49.5 -8
q73 0 133.5 45.5t77.5 148.5l64 380q3 10 1.5 15.5t-5.5 7t-17 3.5q-21 3 -48 3h-20l7 47l121 -3l120 3zM459 798q-5 -28 -28.5 -49t-54.5 -21q-29 0 -46 20.5t-12 49.5q5 28 28 49t54 21q29 0 46.5 -20.5t12.5 -49.5zM765 798q-5 -28 -28.5 -49t-54.5 -21q-29 0 -46 20.5
t-12 49.5q5 28 28 49t54 21q29 0 46.5 -20.5t12.5 -49.5z" />
    <glyph glyph-name="Yacute" unicode="&#xdd;" horiz-adv-x="756" 
d="M846 639q-59 0 -75.5 -4.5t-25.5 -16.5l-254 -344l-38 -227h95l-8 -47q-34 3 -162 3q-127 0 -163 -3l8 47h94l38 227l-147 365h-85l7 47q36 -3 150 -3q131 0 167 3l-7 -47h-75l118 -293l209 283q-22 10 -67 10l7 47l119 -3l102 3zM656 841q-10 -27 -47 -43l-152 -60
l-20 38l124 116q25 22 47 22q29 0 43.5 -22t4.5 -51z" />
    <glyph glyph-name="Thorn" unicode="&#xde;" horiz-adv-x="628" 
d="M634 371q-5 -32 -19.5 -62t-41 -61.5t-74.5 -50.5t-111 -19h-99l-22 -131h94l-8 -47l-159 3l-160 -3l8 47h94l99 592h-94l7 47l160 -3l159 3l-7 -47h-94l-13 -75h108q98 0 142.5 -54.5t30.5 -138.5zM487 372q9 64 0 99q-6 21 -16.5 32t-19 12.5t-23.5 1.5h-83l-48 -292
h66q13 0 20.5 1t21 5t26 15.5t23.5 29.5q25 42 33 96z" />
    <glyph glyph-name="germandbls" unicode="&#xdf;" horiz-adv-x="560" 
d="M561 180q-15 -89 -82.5 -137.5t-153.5 -48.5q-48 0 -71.5 26t-18.5 60q5 27 23.5 39t35.5 12q20 0 33 -14t9 -36q-6 -31 -34 -44q10 -7 26 -7q89 0 115 149q36 218 -108 229q-5 1 -6.5 1t-5.5 2t-3 5t0 10q1 8 5 12t7.5 4.5t12.5 1.5q116 7 134 119q16 101 -77 101
q-34 0 -58 -11.5t-35.5 -32t-15.5 -32.5t-7 -29l-93 -559q-41 3 -64 3l-113 -3l8 47h69l58 350h-69l8 47h69l19 112q12 70 74.5 107t156.5 37q106 0 151.5 -40.5t36.5 -97.5q-17 -96 -148 -140q66 -27 96 -92t16 -150z" />
    <glyph glyph-name="agrave" unicode="&#xe0;" horiz-adv-x="486" 
d="M484 24q-3 -16 -10.5 -20t-25.5 -4h-42q-26 0 -43.5 6t-25 13.5t-10 20t-2 18.5t1.5 16q-50 -80 -136 -80q-65 0 -112.5 29t-37.5 86q13 74 98.5 114t202.5 42l6 36q9 53 -7 84.5t-59 31.5q-28 0 -60 -6q2 -2 5.5 -6t7.5 -17t1 -27q-5 -30 -26.5 -46.5t-46.5 -16.5
q-23 0 -40 16.5t-12 46.5q4 25 22 44t38 27.5t47.5 13.5t42 6t30.5 1q92 0 137.5 -41t33.5 -112l-36 -216q-1 -11 -1 -18.5t10 -12.5t32 -6q10 -1 14.5 -5t2.5 -18zM321 138l16 95q-14 -1 -27.5 -3t-40.5 -10t-47.5 -20t-39.5 -36t-24 -55t8.5 -55t42.5 -24q31 0 67 25.5
t45 82.5zM399 544l-39 -33l-115 84q-28 22 -24 49q5 24 27 43t46 19q29 0 43 -30z" />
    <glyph glyph-name="aacute" unicode="&#xe1;" horiz-adv-x="486" 
d="M484 24q-3 -16 -10.5 -20t-25.5 -4h-42q-26 0 -43.5 6t-25 13.5t-10 20t-2 18.5t1.5 16q-50 -80 -136 -80q-65 0 -112.5 29t-37.5 86q13 74 98.5 114t202.5 42l6 36q9 53 -7 84.5t-59 31.5q-28 0 -60 -6q2 -2 5.5 -6t7.5 -17t1 -27q-5 -30 -26.5 -46.5t-46.5 -16.5
q-23 0 -40 16.5t-12 46.5q4 25 22 44t38 27.5t47.5 13.5t42 6t30.5 1q92 0 137.5 -41t33.5 -112l-36 -216q-1 -11 -1 -18.5t10 -12.5t32 -6q10 -1 14.5 -5t2.5 -18zM321 138l16 95q-14 -1 -27.5 -3t-40.5 -10t-47.5 -20t-39.5 -36t-24 -55t8.5 -55t42.5 -24q31 0 67 25.5
t45 82.5zM479 644q-4 -28 -40 -49l-143 -84l-27 33l106 132q25 30 53 30q24 0 39.5 -19t11.5 -43z" />
    <glyph glyph-name="acircumflex" unicode="&#xe2;" horiz-adv-x="486" 
d="M484 24q-3 -16 -10.5 -20t-25.5 -4h-42q-26 0 -43.5 6t-25 13.5t-10 20t-2 18.5t1.5 16q-50 -80 -136 -80q-65 0 -112.5 29t-37.5 86q13 74 98.5 114t202.5 42l6 36q9 53 -7 84.5t-59 31.5q-28 0 -60 -6q2 -2 5.5 -6t7.5 -17t1 -27q-5 -30 -26.5 -46.5t-46.5 -16.5
q-23 0 -40 16.5t-12 46.5q4 25 22 44t38 27.5t47.5 13.5t42 6t30.5 1q92 0 137.5 -41t33.5 -112l-36 -216q-1 -11 -1 -18.5t10 -12.5t32 -6q10 -1 14.5 -5t2.5 -18zM321 138l16 95q-14 -1 -27.5 -3t-40.5 -10t-47.5 -20t-39.5 -36t-24 -55t8.5 -55t42.5 -24q31 0 67 25.5
t45 82.5zM508 527l-24 -22l-141 99l-175 -99l-14 22l208 185z" />
    <glyph glyph-name="atilde" unicode="&#xe3;" horiz-adv-x="486" 
d="M484 24q-3 -16 -10.5 -20t-25.5 -4h-42q-26 0 -43.5 6t-25 13.5t-10 20t-2 18.5t1.5 16q-50 -80 -136 -80q-65 0 -112.5 29t-37.5 86q13 74 98.5 114t202.5 42l6 36q9 53 -7 84.5t-59 31.5q-28 0 -60 -6q2 -2 5.5 -6t7.5 -17t1 -27q-5 -30 -26.5 -46.5t-46.5 -16.5
q-23 0 -40 16.5t-12 46.5q4 25 22 44t38 27.5t47.5 13.5t42 6t30.5 1q92 0 137.5 -41t33.5 -112l-36 -216q-1 -11 -1 -18.5t10 -12.5t32 -6q10 -1 14.5 -5t2.5 -18zM321 138l16 95q-14 -1 -27.5 -3t-40.5 -10t-47.5 -20t-39.5 -36t-24 -55t8.5 -55t42.5 -24q31 0 67 25.5
t45 82.5zM517 640l-50 -53q-31 -31 -68 -31q-19 0 -63 14q-48 17 -70 17q-39 0 -68 -31l-25 22l50 53q31 31 68 31q19 0 63 -14q48 -17 70 -17q39 0 68 31z" />
    <glyph glyph-name="adieresis" unicode="&#xe4;" horiz-adv-x="486" 
d="M484 24q-3 -16 -10.5 -20t-25.5 -4h-42q-26 0 -43.5 6t-25 13.5t-10 20t-2 18.5t1.5 16q-50 -80 -136 -80q-65 0 -112.5 29t-37.5 86q13 74 98.5 114t202.5 42l6 36q9 53 -7 84.5t-59 31.5q-28 0 -60 -6q2 -2 5.5 -6t7.5 -17t1 -27q-5 -30 -26.5 -46.5t-46.5 -16.5
q-23 0 -40 16.5t-12 46.5q4 25 22 44t38 27.5t47.5 13.5t42 6t30.5 1q92 0 137.5 -41t33.5 -112l-36 -216q-1 -11 -1 -18.5t10 -12.5t32 -6q10 -1 14.5 -5t2.5 -18zM321 138l16 95q-14 -1 -27.5 -3t-40.5 -10t-47.5 -20t-39.5 -36t-24 -55t8.5 -55t42.5 -24q31 0 67 25.5
t45 82.5zM287 609q-5 -28 -28.5 -49t-54.5 -21q-29 0 -46 20.5t-12 49.5q5 28 28 49t54 21q29 0 46.5 -20.5t12.5 -49.5zM545 609q-5 -28 -28.5 -49t-54.5 -21q-29 0 -46 20.5t-12 49.5q5 28 28 49t54 21q29 0 46.5 -20.5t12.5 -49.5z" />
    <glyph glyph-name="aring" unicode="&#xe5;" horiz-adv-x="486" 
d="M484 24q-3 -16 -10.5 -20t-25.5 -4h-42q-26 0 -43.5 6t-25 13.5t-10 20t-2 18.5t1.5 16q-50 -80 -136 -80q-65 0 -112.5 29t-37.5 86q13 74 98.5 114t202.5 42l6 36q9 53 -7 84.5t-59 31.5q-28 0 -60 -6q2 -2 5.5 -6t7.5 -17t1 -27q-5 -30 -26.5 -46.5t-46.5 -16.5
q-23 0 -40 16.5t-12 46.5q4 25 22 44t38 27.5t47.5 13.5t42 6t30.5 1q92 0 137.5 -41t33.5 -112l-36 -216q-1 -11 -1 -18.5t10 -12.5t32 -6q10 -1 14.5 -5t2.5 -18zM321 138l16 95q-14 -1 -27.5 -3t-40.5 -10t-47.5 -20t-39.5 -36t-24 -55t8.5 -55t42.5 -24q31 0 67 25.5
t45 82.5zM397 605q4 26 -6 34.5t-40 8.5q-31 0 -43.5 -9t-16.5 -34q-4 -26 6 -34.5t40 -8.5q31 0 43.5 9t16.5 34zM451 606q-6 -36 -37.5 -60.5t-84.5 -24.5q-51 0 -74.5 24t-17.5 61q5 33 36 58t86 25q52 0 75 -24.5t17 -58.5z" />
    <glyph glyph-name="ae" unicode="&#xe6;" horiz-adv-x="722" 
d="M713 117q-6 -30 -56.5 -76.5t-128.5 -46.5q-95 0 -150 60q-71 -60 -179 -60q-73 0 -118 28t-36 81q22 132 300 145l9 53q20 116 -67 116q-29 0 -60 -6q2 -2 5.5 -6t7.5 -17t1 -27q-5 -30 -26.5 -46.5t-46.5 -16.5q-23 0 -40 16.5t-12 46.5q4 25 22 44t38 27.5t47.5 13.5
t42.5 6t31 1q102 0 146 -50q65 50 150 50q86 0 121.5 -56t19.5 -150q-3 -20 -10 -24.5t-27 -4.5h-243q-13 -86 2 -126q23 -58 87 -58q30 0 64 19t57 63q5 11 10.5 15t17.5 4q5 0 9 -0.5t8.5 -5t3.5 -12.5zM640 251q22 166 -53 166q-55 0 -91 -57q-21 -33 -36 -109h180z
M343 121q1 4 -1 9q-8 40 -2 84q-20 -1 -40 -5t-53 -14.5t-56 -34t-29 -57.5q-4 -28 9.5 -50.5t43.5 -22.5q48 0 85.5 30t42.5 61z" />
    <glyph glyph-name="ccedilla" unicode="&#xe7;" horiz-adv-x="444" 
d="M435 117q-2 -10 -14.5 -31t-47.5 -50t-81 -38l-6 -31q35 0 56.5 -24.5t16.5 -58.5q-4 -24 -21 -41t-36.5 -25t-55 -12.5t-57.5 -5t-63 -0.5h-48l8 48h24q27 0 41.5 0.5t35 3.5t31.5 11t13 21q2 16 -12.5 25.5t-36.5 9.5l14 80q-71 16 -106 74t-20 149q17 105 87.5 168
t169.5 63q65 0 105 -23t32 -69q-5 -30 -26.5 -46.5t-46.5 -16.5q-23 0 -40 16.5t-12 46.5q5 29 28 47q-25 5 -44 5q-22 0 -40.5 -9t-31 -26t-21.5 -34t-15.5 -42t-9.5 -39t-6 -36q-15 -92 -3 -132q17 -61 75 -61q71 0 117 84q6 13 25 13q7 0 11 -0.5t8 -4t3 -9.5z" />
    <glyph glyph-name="egrave" unicode="&#xe8;" horiz-adv-x="467" 
d="M458 117q-2 -10 -15 -28.5t-35.5 -40.5t-62.5 -38t-87 -16q-101 0 -155.5 62.5t-36.5 168.5q17 104 88 166t169 62q45 0 77.5 -13t49 -34t26 -48t8 -55.5t-4.5 -55.5q-3 -20 -10 -24.5t-27 -4.5h-250q-4 -23 -5 -35t-2.5 -38t3 -42t13.5 -34t27.5 -26.5t45.5 -8.5
q35 0 73.5 20t61.5 62q5 8 7.5 11.5t7.5 5.5t13 2q5 0 9 -0.5t8.5 -5t3.5 -12.5zM385 251q2 13 4 26.5t1.5 41t-6.5 47.5t-22.5 35.5t-43.5 15.5q-91 0 -120 -166h187zM389 544l-39 -33l-115 84q-28 22 -24 49q5 24 27 43t46 19q29 0 43 -30z" />
    <glyph glyph-name="eacute" unicode="&#xe9;" horiz-adv-x="467" 
d="M458 117q-2 -10 -15 -28.5t-35.5 -40.5t-62.5 -38t-87 -16q-101 0 -155.5 62.5t-36.5 168.5q17 104 88 166t169 62q45 0 77.5 -13t49 -34t26 -48t8 -55.5t-4.5 -55.5q-3 -20 -10 -24.5t-27 -4.5h-250q-4 -23 -5 -35t-2.5 -38t3 -42t13.5 -34t27.5 -26.5t45.5 -8.5
q35 0 73.5 20t61.5 62q5 8 7.5 11.5t7.5 5.5t13 2q5 0 9 -0.5t8.5 -5t3.5 -12.5zM385 251q2 13 4 26.5t1.5 41t-6.5 47.5t-22.5 35.5t-43.5 15.5q-91 0 -120 -166h187zM469 644q-4 -28 -40 -49l-143 -84l-27 33l106 132q25 30 53 30q24 0 39.5 -19t11.5 -43z" />
    <glyph glyph-name="ecircumflex" unicode="&#xea;" horiz-adv-x="467" 
d="M458 117q-2 -10 -15 -28.5t-35.5 -40.5t-62.5 -38t-87 -16q-101 0 -155.5 62.5t-36.5 168.5q17 104 88 166t169 62q45 0 77.5 -13t49 -34t26 -48t8 -55.5t-4.5 -55.5q-3 -20 -10 -24.5t-27 -4.5h-250q-4 -23 -5 -35t-2.5 -38t3 -42t13.5 -34t27.5 -26.5t45.5 -8.5
q35 0 73.5 20t61.5 62q5 8 7.5 11.5t7.5 5.5t13 2q5 0 9 -0.5t8.5 -5t3.5 -12.5zM385 251q2 13 4 26.5t1.5 41t-6.5 47.5t-22.5 35.5t-43.5 15.5q-91 0 -120 -166h187zM498 527l-24 -22l-141 99l-175 -99l-14 22l208 185z" />
    <glyph glyph-name="edieresis" unicode="&#xeb;" horiz-adv-x="467" 
d="M458 117q-2 -10 -15 -28.5t-35.5 -40.5t-62.5 -38t-87 -16q-101 0 -155.5 62.5t-36.5 168.5q17 104 88 166t169 62q45 0 77.5 -13t49 -34t26 -48t8 -55.5t-4.5 -55.5q-3 -20 -10 -24.5t-27 -4.5h-250q-4 -23 -5 -35t-2.5 -38t3 -42t13.5 -34t27.5 -26.5t45.5 -8.5
q35 0 73.5 20t61.5 62q5 8 7.5 11.5t7.5 5.5t13 2q5 0 9 -0.5t8.5 -5t3.5 -12.5zM385 251q2 13 4 26.5t1.5 41t-6.5 47.5t-22.5 35.5t-43.5 15.5q-91 0 -120 -166h187zM277 609q-5 -28 -28.5 -49t-54.5 -21q-29 0 -46 20.5t-12 49.5q5 28 28 49t54 21q29 0 46.5 -20.5
t12.5 -49.5zM535 609q-5 -28 -28.5 -49t-54.5 -21q-29 0 -46 20.5t-12 49.5q5 28 28 49t54 21q29 0 46.5 -20.5t12.5 -49.5z" />
    <glyph glyph-name="igrave" unicode="&#xec;" horiz-adv-x="278" 
d="M265 0l-116 3l-123 -3l8 47h69l51 309q5 28 -4 33.5t-55 5.5l8 47l175 8l-67 -403h62zM295 544l-39 -33l-115 84q-28 22 -24 49q5 24 27 43t46 19q29 0 43 -30z" />
    <glyph glyph-name="iacute" unicode="&#xed;" horiz-adv-x="278" 
d="M265 0l-116 3l-123 -3l8 47h69l51 309q5 28 -4 33.5t-55 5.5l8 47l175 8l-67 -403h62zM375 644q-4 -28 -40 -49l-143 -84l-27 33l106 132q25 30 53 30q24 0 39.5 -19t11.5 -43z" />
    <glyph glyph-name="icircumflex" unicode="&#xee;" horiz-adv-x="278" 
d="M265 0l-116 3l-123 -3l8 47h69l51 309q5 28 -4 33.5t-55 5.5l8 47l175 8l-67 -403h62zM404 527l-24 -22l-141 99l-175 -99l-14 22l208 185z" />
    <glyph glyph-name="idieresis" unicode="&#xef;" horiz-adv-x="278" 
d="M265 0l-116 3l-123 -3l8 47h69l51 309q5 28 -4 33.5t-55 5.5l8 47l175 8l-67 -403h62zM183 609q-5 -28 -28.5 -49t-54.5 -21q-29 0 -46 20.5t-12 49.5q5 28 28 49t54 21q29 0 46.5 -20.5t12.5 -49.5zM441 609q-5 -28 -28.5 -49t-54.5 -21q-29 0 -46 20.5t-12 49.5
q5 28 28 49t54 21q29 0 46.5 -20.5t12.5 -49.5z" />
    <glyph glyph-name="eth" unicode="&#xf0;" 
d="M511 239q-20 -122 -89 -182q-74 -63 -174 -63q-97 0 -149 60.5t-34 164.5q18 110 92 172t165 62q30 0 51 -13q-16 72 -65 132l-103 -55l-17 41l89 47q-44 39 -98 61l10 32q88 -9 159 -55l107 56l17 -41l-85 -45q71 -59 108 -152q37 -97 16 -222zM379 215q11 55 8 92.5
t-8.5 59.5t-18.5 33t-22 14t-19 3q-24 0 -49 -15t-41 -44q-20 -35 -35 -129q-15 -96 -9 -130q6 -33 26 -49t44 -16q55 0 88 56q21 37 36 125z" />
    <glyph glyph-name="ntilde" unicode="&#xf1;" horiz-adv-x="556" 
d="M553 0l-124 3l-124 -3l8 47h65l46 274q9 43 4.5 63.5t-10 25t-15.5 4.5q-45 0 -93 -41t-60 -117l-35 -209h69l-8 -47l-125 3l-127 -3l8 47h69l51 309q5 28 -4.5 33.5t-57.5 5.5l8 47l173 8l-17 -101h1q66 101 169 101q77 0 99.5 -38t12.5 -103l-44 -262h69zM552 640
l-50 -53q-31 -31 -68 -31q-19 0 -63 14q-48 17 -70 17q-39 0 -68 -31l-25 22l50 53q31 31 68 31q19 0 63 -14q48 -17 70 -17q39 0 68 31z" />
    <glyph glyph-name="ograve" unicode="&#xf2;" 
d="M508 219q-18 -104 -89 -164.5t-171 -60.5q-98 0 -149.5 60t-33.5 165q18 107 90 170.5t170 63.5q100 0 150 -64t33 -170zM381 229q16 93 12 127q-2 25 -22.5 43t-51.5 18q-29 0 -56 -16.5t-39 -44.5q-14 -31 -30 -127q-16 -94 -13 -129q2 -31 23.5 -48.5t51.5 -17.5
q28 0 54.5 17t38.5 45q15 31 32 133zM406 544l-39 -33l-115 84q-28 22 -24 49q5 24 27 43t46 19q29 0 43 -30z" />
    <glyph glyph-name="oacute" unicode="&#xf3;" 
d="M508 219q-18 -104 -89 -164.5t-171 -60.5q-98 0 -149.5 60t-33.5 165q18 107 90 170.5t170 63.5q100 0 150 -64t33 -170zM381 229q16 93 12 127q-2 25 -22.5 43t-51.5 18q-29 0 -56 -16.5t-39 -44.5q-14 -31 -30 -127q-16 -94 -13 -129q2 -31 23.5 -48.5t51.5 -17.5
q28 0 54.5 17t38.5 45q15 31 32 133zM486 644q-4 -28 -40 -49l-143 -84l-27 33l106 132q25 30 53 30q24 0 39.5 -19t11.5 -43z" />
    <glyph glyph-name="ocircumflex" unicode="&#xf4;" 
d="M508 219q-18 -104 -89 -164.5t-171 -60.5q-98 0 -149.5 60t-33.5 165q18 107 90 170.5t170 63.5q100 0 150 -64t33 -170zM381 229q16 93 12 127q-2 25 -22.5 43t-51.5 18q-29 0 -56 -16.5t-39 -44.5q-14 -31 -30 -127q-16 -94 -13 -129q2 -31 23.5 -48.5t51.5 -17.5
q28 0 54.5 17t38.5 45q15 31 32 133zM515 527l-24 -22l-141 99l-175 -99l-14 22l208 185z" />
    <glyph glyph-name="otilde" unicode="&#xf5;" 
d="M508 219q-18 -104 -89 -164.5t-171 -60.5q-98 0 -149.5 60t-33.5 165q18 107 90 170.5t170 63.5q100 0 150 -64t33 -170zM381 229q16 93 12 127q-2 25 -22.5 43t-51.5 18q-29 0 -56 -16.5t-39 -44.5q-14 -31 -30 -127q-16 -94 -13 -129q2 -31 23.5 -48.5t51.5 -17.5
q28 0 54.5 17t38.5 45q15 31 32 133zM524 640l-50 -53q-31 -31 -68 -31q-19 0 -63 14q-48 17 -70 17q-39 0 -68 -31l-25 22l50 53q31 31 68 31q19 0 63 -14q48 -17 70 -17q39 0 68 31z" />
    <glyph glyph-name="odieresis" unicode="&#xf6;" 
d="M508 219q-18 -104 -89 -164.5t-171 -60.5q-98 0 -149.5 60t-33.5 165q18 107 90 170.5t170 63.5q100 0 150 -64t33 -170zM381 229q16 93 12 127q-2 25 -22.5 43t-51.5 18q-29 0 -56 -16.5t-39 -44.5q-14 -31 -30 -127q-16 -94 -13 -129q2 -31 23.5 -48.5t51.5 -17.5
q28 0 54.5 17t38.5 45q15 31 32 133zM294 609q-5 -28 -28.5 -49t-54.5 -21q-29 0 -46 20.5t-12 49.5q5 28 28 49t54 21q29 0 46.5 -20.5t12.5 -49.5zM552 609q-5 -28 -28.5 -49t-54.5 -21q-29 0 -46 20.5t-12 49.5q5 28 28 49t54 21q29 0 46.5 -20.5t12.5 -49.5z" />
    <glyph glyph-name="divide" unicode="&#xf7;" horiz-adv-x="778" 
d="M763 250q-5 -30 -46 -30h-583q-10 0 -16.5 1t-14 8t-5.5 21q5 31 51 31h573q12 0 19.5 -1t15.5 -8.5t6 -21.5zM551 504q-5 -32 -32 -55t-59 -23t-51 23t-14 55t32 55t59 23t51 -23t14 -55zM467 -2q-6 -32 -32.5 -55t-58.5 -23t-51.5 23t-13.5 55q5 32 32 55t59 23t51 -23
t14 -55z" />
    <glyph glyph-name="oslash" unicode="&#xf8;" 
d="M508 219q-18 -104 -89 -164.5t-171 -60.5q-47 0 -86 15l-79 -114l-29 16l77 114q-89 61 -66 194q17 106 88.5 170t172.5 64q47 0 87 -16l77 113l29 -16l-77 -114q43 -29 60 -82t6 -119zM383 393q-24 24 -63 24q-31 0 -61 -17t-47 -50q-17 -35 -33 -131q-17 -99 -7 -134z
M394 219q17 103 7 141l-209 -307q23 -23 63 -23q64 0 99 53q21 30 40 136z" />
    <glyph glyph-name="ugrave" unicode="&#xf9;" horiz-adv-x="556" 
d="M553 0l-178 -6l11 68h-1q-49 -68 -129 -68q-79 0 -116.5 28.5t-26.5 99.5l39 234q5 28 -4.5 33.5t-57.5 5.5l8 47l184 8l-57 -345q-10 -40 -1.5 -57.5t52.5 -17.5q46 0 79 38t42 95l32 193q5 28 -4.5 33.5t-57.5 5.5l8 47l184 8l-61 -364q-4 -28 5.5 -33.5t57.5 -5.5z
M434 544l-39 -33l-115 84q-28 22 -24 49q5 24 27 43t46 19q29 0 43 -30z" />
    <glyph glyph-name="uacute" unicode="&#xfa;" horiz-adv-x="556" 
d="M553 0l-178 -6l11 68h-1q-49 -68 -129 -68q-79 0 -116.5 28.5t-26.5 99.5l39 234q5 28 -4.5 33.5t-57.5 5.5l8 47l184 8l-57 -345q-10 -40 -1.5 -57.5t52.5 -17.5q46 0 79 38t42 95l32 193q5 28 -4.5 33.5t-57.5 5.5l8 47l184 8l-61 -364q-4 -28 5.5 -33.5t57.5 -5.5z
M514 644q-4 -28 -40 -49l-143 -84l-27 33l106 132q25 30 53 30q24 0 39.5 -19t11.5 -43z" />
    <glyph glyph-name="ucircumflex" unicode="&#xfb;" horiz-adv-x="556" 
d="M553 0l-178 -6l11 68h-1q-49 -68 -129 -68q-79 0 -116.5 28.5t-26.5 99.5l39 234q5 28 -4.5 33.5t-57.5 5.5l8 47l184 8l-57 -345q-10 -40 -1.5 -57.5t52.5 -17.5q46 0 79 38t42 95l32 193q5 28 -4.5 33.5t-57.5 5.5l8 47l184 8l-61 -364q-4 -28 5.5 -33.5t57.5 -5.5z
M543 527l-24 -22l-141 99l-175 -99l-14 22l208 185z" />
    <glyph glyph-name="udieresis" unicode="&#xfc;" horiz-adv-x="556" 
d="M553 0l-178 -6l11 68h-1q-49 -68 -129 -68q-79 0 -116.5 28.5t-26.5 99.5l39 234q5 28 -4.5 33.5t-57.5 5.5l8 47l184 8l-57 -345q-10 -40 -1.5 -57.5t52.5 -17.5q46 0 79 38t42 95l32 193q5 28 -4.5 33.5t-57.5 5.5l8 47l184 8l-61 -364q-4 -28 5.5 -33.5t57.5 -5.5z
M322 609q-5 -28 -28.5 -49t-54.5 -21q-29 0 -46 20.5t-12 49.5q5 28 28 49t54 21q29 0 46.5 -20.5t12.5 -49.5zM580 609q-5 -28 -28.5 -49t-54.5 -21q-29 0 -46 20.5t-12 49.5q5 28 28 49t54 21q29 0 46.5 -20.5t12.5 -49.5z" />
    <glyph glyph-name="yacute" unicode="&#xfd;" horiz-adv-x="528" 
d="M571 397q-44 0 -55.5 -4.5t-20.5 -19.5l-253 -457q-24 -44 -68 -80t-95 -36q-40 0 -62 28t-16 64q4 27 24 42.5t43 15.5q25 0 39 -16t9 -41q-7 -40 -46 -55q8 -2 16 -2q48 0 90 56q13 18 62 108l-88 397h-62l8 47l112 -3l123 3l-8 -47h-56l55 -247l122 222l7 13
q1 5 -11.5 8t-25.5 3l-13 1l8 47q39 -3 91 -3q42 0 79 3zM500 644q-4 -28 -40 -49l-143 -84l-27 33l106 132q25 30 53 30q24 0 39.5 -19t11.5 -43z" />
    <glyph glyph-name="thorn" unicode="&#xfe;" horiz-adv-x="556" 
d="M559 223q-18 -108 -91 -168.5t-167 -60.5q-58 0 -97 36l-30 -177h69l-7 -47l-126 3l-126 -3l7 47h69l125 747q5 28 -4.5 33.5t-57.5 5.5l7 47l179 8l-48 -287q62 43 131 43q88 0 136.5 -60.5t30.5 -166.5zM431 223q15 89 -2.5 138t-57.5 49q-59 0 -113 -56l-44 -265
q28 -59 84 -59q42 0 79.5 48t53.5 145z" />
    <glyph glyph-name="ydieresis" unicode="&#xff;" horiz-adv-x="528" 
d="M571 397q-44 0 -55.5 -4.5t-20.5 -19.5l-253 -457q-24 -44 -68 -80t-95 -36q-40 0 -62 28t-16 64q4 27 24 42.5t43 15.5q25 0 39 -16t9 -41q-7 -40 -46 -55q8 -2 16 -2q48 0 90 56q13 18 62 108l-88 397h-62l8 47l112 -3l123 3l-8 -47h-56l55 -247l122 222l7 13
q1 5 -11.5 8t-25.5 3l-13 1l8 47q39 -3 91 -3q42 0 79 3zM308 609q-5 -28 -28.5 -49t-54.5 -21q-29 0 -46 20.5t-12 49.5q5 28 28 49t54 21q29 0 46.5 -20.5t12.5 -49.5zM566 609q-5 -28 -28.5 -49t-54.5 -21q-29 0 -46 20.5t-12 49.5q5 28 28 49t54 21q29 0 46.5 -20.5
t12.5 -49.5z" />
    <glyph glyph-name="Amacron" unicode="&#x100;" horiz-adv-x="756" 
d="M720 0q-35 3 -149 3q-127 0 -164 -3l8 47h83l-25 135h-219l-57 -111l-6 -12q0 -3 4.5 -5t13 -3.5t16.5 -2t18.5 -1t15 -0.5h8.5l-8 -47l-117 3l-107 -3l8 47q38 0 58 2q21 2 27 5.5t12 15.5l312 602q9 18 17.5 22t24.5 4q11 0 16 -1t10 -7t7 -18l116 -625h85zM464 229
l-49 264l-137 -264h186zM683 748h-361l9 52h361z" />
    <glyph glyph-name="amacron" unicode="&#x101;" horiz-adv-x="486" 
d="M484 24q-3 -16 -10.5 -20t-25.5 -4h-42q-26 0 -43.5 6t-25 13.5t-10 20t-2 18.5t1.5 16q-50 -80 -136 -80q-65 0 -112.5 29t-37.5 86q13 74 98.5 114t202.5 42l6 36q9 53 -7 84.5t-59 31.5q-28 0 -60 -6q2 -2 5.5 -6t7.5 -17t1 -27q-5 -30 -26.5 -46.5t-46.5 -16.5
q-23 0 -40 16.5t-12 46.5q4 25 22 44t38 27.5t47.5 13.5t42 6t30.5 1q92 0 137.5 -41t33.5 -112l-36 -216q-1 -11 -1 -18.5t10 -12.5t32 -6q10 -1 14.5 -5t2.5 -18zM321 138l16 95q-14 -1 -27.5 -3t-40.5 -10t-47.5 -20t-39.5 -36t-24 -55t8.5 -55t42.5 -24q31 0 67 25.5
t45 82.5zM521 583h-361l9 52h361z" />
    <glyph glyph-name="Abreve" unicode="&#x102;" horiz-adv-x="756" 
d="M720 0q-35 3 -149 3q-127 0 -164 -3l8 47h83l-25 135h-219l-57 -111l-6 -12q0 -3 4.5 -5t13 -3.5t16.5 -2t18.5 -1t15 -0.5h8.5l-8 -47l-117 3l-107 -3l8 47q38 0 58 2q21 2 27 5.5t12 15.5l312 602q9 18 17.5 22t24.5 4q11 0 16 -1t10 -7t7 -18l116 -625h85zM464 229
l-49 264l-137 -264h186zM689 925q-17 -85 -71 -136t-116 -51q-64 0 -101 51.5t-25 135.5h36q-8 -57 22 -91t78 -34q46 0 88 33.5t53 91.5h36z" />
    <glyph glyph-name="abreve" unicode="&#x103;" horiz-adv-x="486" 
d="M484 24q-3 -16 -10.5 -20t-25.5 -4h-42q-26 0 -43.5 6t-25 13.5t-10 20t-2 18.5t1.5 16q-50 -80 -136 -80q-65 0 -112.5 29t-37.5 86q13 74 98.5 114t202.5 42l6 36q9 53 -7 84.5t-59 31.5q-28 0 -60 -6q2 -2 5.5 -6t7.5 -17t1 -27q-5 -30 -26.5 -46.5t-46.5 -16.5
q-23 0 -40 16.5t-12 46.5q4 25 22 44t38 27.5t47.5 13.5t42 6t30.5 1q92 0 137.5 -41t33.5 -112l-36 -216q-1 -11 -1 -18.5t10 -12.5t32 -6q10 -1 14.5 -5t2.5 -18zM321 138l16 95q-14 -1 -27.5 -3t-40.5 -10t-47.5 -20t-39.5 -36t-24 -55t8.5 -55t42.5 -24q31 0 67 25.5
t45 82.5zM517 702q-17 -85 -71 -136t-116 -51q-64 0 -101 51.5t-25 135.5h36q-8 -57 22 -91t78 -34q46 0 88 33.5t53 91.5h36z" />
    <glyph glyph-name="Aogonek" unicode="&#x104;" horiz-adv-x="756" 
d="M720 0q-34 3 -96 3q-65 -28 -78 -79q-10 -40 20 -56q11 -6 26 -6q7 0 12 1t9.5 3.5t7 4t7 5.5t5.5 5q16 10 29 -3q4 -5 4 -14t-5 -14q-59 -54 -116 -54q-50 0 -73 27t-17 63q5 31 32 63.5t59 52.5q-118 0 -139 -2l8 47h83l-25 135h-219l-57 -111l-6 -12q0 -3 4.5 -5
t13 -3.5t16.5 -2t18.5 -1t15 -0.5h8.5l-8 -47l-117 3l-107 -3l8 47q38 0 58 2q21 2 27 5.5t12 15.5l312 602q9 18 17.5 22t24.5 4q11 0 16 -1t10 -7t7 -18l116 -625h85zM464 229l-49 264l-137 -264h186z" />
    <glyph glyph-name="aogonek" unicode="&#x105;" horiz-adv-x="486" 
d="M484 24q-3 -16 -10.5 -20t-25.5 -4h-42q-65 -29 -77 -78q-9 -39 23 -55q11 -5 25 -5q7 0 12 1t9.5 3.5t7 4t7 5.5t5.5 5q16 10 29 -3q4 -5 4 -14t-5 -14q-59 -54 -116 -54q-50 0 -73 27t-17 63q5 32 38 70.5t68 57.5q-25 17 -19 60q-50 -80 -136 -80q-65 0 -112.5 29
t-37.5 86q13 74 98.5 114t202.5 42l6 36q9 53 -7 84.5t-59 31.5q-28 0 -60 -6q2 -2 5.5 -6t7.5 -17t1 -27q-5 -30 -26.5 -46.5t-46.5 -16.5q-23 0 -40 16.5t-12 46.5q4 25 22 44t38 27.5t47.5 13.5t42 6t30.5 1q92 0 137.5 -41t33.5 -112l-36 -216q-1 -11 -1 -18.5t10 -12.5
t32 -6q10 -1 14.5 -5t2.5 -18zM321 138l16 95q-14 -1 -27.5 -3t-40.5 -10t-47.5 -20t-39.5 -36t-24 -55t8.5 -55t42.5 -24q31 0 67 25.5t45 82.5z" />
    <glyph glyph-name="Cacute" unicode="&#x106;" horiz-adv-x="722" 
d="M703 227q-15 -88 -98.5 -163t-198.5 -75q-155 0 -237.5 95t-55.5 259q28 165 143 259.5t267 94.5q93 0 153 -62l67 53q12 9 20 9q12 0 14.5 -7t-0.5 -21l-36 -215q-4 -20 -8.5 -24t-23.5 -4q-10 0 -14 0.5t-6.5 4t-2.5 11.5q2 103 -42 155.5t-110 52.5q-111 0 -183 -82
q-27 -30 -46 -76t-25 -74t-14 -75q-12 -76 -12 -125t17 -90q20 -44 64 -68t99 -24q45 0 91 20.5t84 66.5t48 108q2 12 7.5 14.5t17.5 2.5q14 0 18.5 -3.5t2.5 -17.5zM675 841q-10 -27 -47 -43l-152 -60l-20 38l124 116q25 22 47 22q29 0 43.5 -22t4.5 -51z" />
    <glyph glyph-name="cacute" unicode="&#x107;" horiz-adv-x="444" 
d="M435 117q-1 -5 -7 -17t-21 -31t-35.5 -35t-53.5 -28t-71 -12q-93 0 -144 60.5t-33 167.5q17 105 87.5 168t169.5 63q65 0 105 -23t32 -69q-5 -30 -26.5 -46.5t-46.5 -16.5q-23 0 -40 16.5t-12 46.5q5 29 28 47q-25 5 -44 5q-22 0 -40.5 -9t-31 -26t-21.5 -34t-15.5 -42
t-9.5 -39t-6 -36q-15 -92 -3 -132q17 -61 75 -61q71 0 117 84q6 13 25 13q7 0 11 -0.5t8 -4t3 -9.5zM480 644q-4 -28 -40 -49l-143 -84l-27 33l106 132q25 30 53 30q24 0 39.5 -19t11.5 -43z" />
    <glyph glyph-name="Ccircumflex" unicode="&#x108;" horiz-adv-x="722" 
d="M703 227q-15 -88 -98.5 -163t-198.5 -75q-155 0 -237.5 95t-55.5 259q28 165 143 259.5t267 94.5q93 0 153 -62l67 53q12 9 20 9q12 0 14.5 -7t-0.5 -21l-36 -215q-4 -20 -8.5 -24t-23.5 -4q-10 0 -14 0.5t-6.5 4t-2.5 11.5q2 103 -42 155.5t-110 52.5q-111 0 -183 -82
q-27 -30 -46 -76t-25 -74t-14 -75q-12 -76 -12 -125t17 -90q20 -44 64 -68t99 -24q45 0 91 20.5t84 66.5t48 108q2 12 7.5 14.5t17.5 2.5q14 0 18.5 -3.5t2.5 -17.5zM697 752l-20 -24l-150 58l-170 -58l-10 24l199 141z" />
    <glyph glyph-name="ccircumflex" unicode="&#x109;" horiz-adv-x="444" 
d="M435 117q-1 -5 -7 -17t-21 -31t-35.5 -35t-53.5 -28t-71 -12q-93 0 -144 60.5t-33 167.5q17 105 87.5 168t169.5 63q65 0 105 -23t32 -69q-5 -30 -26.5 -46.5t-46.5 -16.5q-23 0 -40 16.5t-12 46.5q5 29 28 47q-25 5 -44 5q-22 0 -40.5 -9t-31 -26t-21.5 -34t-15.5 -42
t-9.5 -39t-6 -36q-15 -92 -3 -132q17 -61 75 -61q71 0 117 84q6 13 25 13q7 0 11 -0.5t8 -4t3 -9.5zM509 527l-24 -22l-141 99l-175 -99l-14 22l208 185z" />
    <glyph glyph-name="Cdotaccent" unicode="&#x10a;" horiz-adv-x="722" 
d="M703 227q-15 -88 -98.5 -163t-198.5 -75q-155 0 -237.5 95t-55.5 259q28 165 143 259.5t267 94.5q93 0 153 -62l67 53q12 9 20 9q12 0 14.5 -7t-0.5 -21l-36 -215q-4 -20 -8.5 -24t-23.5 -4q-10 0 -14 0.5t-6.5 4t-2.5 11.5q2 103 -42 155.5t-110 52.5q-111 0 -183 -82
q-27 -30 -46 -76t-25 -74t-14 -75q-12 -76 -12 -125t17 -90q20 -44 64 -68t99 -24q45 0 91 20.5t84 66.5t48 108q2 12 7.5 14.5t17.5 2.5q14 0 18.5 -3.5t2.5 -17.5zM611 817q-5 -31 -31.5 -54.5t-60.5 -23.5q-32 0 -51 23t-14 55q5 31 31.5 54.5t60.5 23.5q32 0 51 -23
t14 -55z" />
    <glyph glyph-name="cdotaccent" unicode="&#x10b;" horiz-adv-x="444" 
d="M435 117q-1 -5 -7 -17t-21 -31t-35.5 -35t-53.5 -28t-71 -12q-93 0 -144 60.5t-33 167.5q17 105 87.5 168t169.5 63q65 0 105 -23t32 -69q-5 -30 -26.5 -46.5t-46.5 -16.5q-23 0 -40 16.5t-12 46.5q5 29 28 47q-25 5 -44 5q-22 0 -40.5 -9t-31 -26t-21.5 -34t-15.5 -42
t-9.5 -39t-6 -36q-15 -92 -3 -132q17 -61 75 -61q71 0 117 84q6 13 25 13q7 0 11 -0.5t8 -4t3 -9.5zM424 609q-5 -31 -31.5 -54.5t-60.5 -23.5q-32 0 -51 23t-14 55q5 31 31.5 54.5t60.5 23.5q32 0 51 -23t14 -55z" />
    <glyph glyph-name="Ccaron" unicode="&#x10c;" horiz-adv-x="722" 
d="M703 227q-15 -88 -98.5 -163t-198.5 -75q-155 0 -237.5 95t-55.5 259q28 165 143 259.5t267 94.5q93 0 153 -62l67 53q12 9 20 9q12 0 14.5 -7t-0.5 -21l-36 -215q-4 -20 -8.5 -24t-23.5 -4q-10 0 -14 0.5t-6.5 4t-2.5 11.5q2 103 -42 155.5t-110 52.5q-111 0 -183 -82
q-27 -30 -46 -76t-25 -74t-14 -75q-12 -76 -12 -125t17 -90q20 -44 64 -68t99 -24q45 0 91 20.5t84 66.5t48 108q2 12 7.5 14.5t17.5 2.5q14 0 18.5 -3.5t2.5 -17.5zM717 869l-199 -141l-151 141l20 24l150 -58l170 58z" />
    <glyph glyph-name="ccaron" unicode="&#x10d;" horiz-adv-x="444" 
d="M435 117q-1 -5 -7 -17t-21 -31t-35.5 -35t-53.5 -28t-71 -12q-93 0 -144 60.5t-33 167.5q17 105 87.5 168t169.5 63q65 0 105 -23t32 -69q-5 -30 -26.5 -46.5t-46.5 -16.5q-23 0 -40 16.5t-12 46.5q5 29 28 47q-25 5 -44 5q-22 0 -40.5 -9t-31 -26t-21.5 -34t-15.5 -42
t-9.5 -39t-6 -36q-15 -92 -3 -132q17 -61 75 -61q71 0 117 84q6 13 25 13q7 0 11 -0.5t8 -4t3 -9.5zM536 690l-208 -185l-146 185l24 22l141 -99l175 99z" />
    <glyph glyph-name="Dcaron" unicode="&#x10e;" horiz-adv-x="767" 
d="M766 337q-27 -160 -128 -248.5t-232 -88.5h-372l8 47h94l99 592h-94l7 47h372q130 0 202 -91.5t44 -257.5zM619 337q26 153 4 212q-34 90 -152 90h-100l-99 -592h101q118 0 180 85q43 60 66 205zM634 869l-199 -141l-151 141l20 24l150 -58l170 58z" />
    <glyph glyph-name="dcaron" unicode="&#x10f;" horiz-adv-x="556" 
d="M539 0l-184 -6l7 41q-57 -41 -121 -41q-89 0 -139 59.5t-32 168.5q18 107 91 167.5t166 60.5q62 0 104 -38l31 188q5 28 -4.5 33.5t-57.5 5.5l7 47l179 8l-102 -608q-4 -28 5.5 -33.5t57.5 -5.5zM372 94l44 267q-28 53 -85 53q-64 0 -100 -65q-16 -31 -33 -128
q-16 -94 -10 -128q5 -29 23 -46t45 -17q64 0 116 64zM733 600q-8 -46 -34.5 -87.5t-49 -61t-30.5 -19.5q-5 0 -8.5 5t-2.5 10q0 5 11 12q68 55 85 132q-16 -14 -42 -14q-27 0 -40 17.5t-9 41.5t23.5 41t44.5 17q32 0 45.5 -27t6.5 -67z" />
    <glyph glyph-name="Dcroat" unicode="&#x110;" horiz-adv-x="767" 
d="M766 337q-27 -160 -128 -248.5t-232 -88.5h-372l8 47h94l45 272h-94l8 48h94l46 272h-94l7 47h372q130 0 202 -91.5t44 -257.5zM619 337q26 153 4 212q-34 90 -152 90h-100l-46 -272h119l-8 -48h-119l-45 -272h101q118 0 180 85q43 60 66 205z" />
    <glyph glyph-name="dcroat" unicode="&#x111;" horiz-adv-x="556" 
d="M539 0l-184 -6l7 41q-57 -41 -121 -41q-89 0 -139 59.5t-32 168.5q18 107 91 167.5t166 60.5q62 0 104 -38l18 109h-140l8 48h140l5 31q5 28 -4.5 33.5t-57.5 5.5l7 47l179 8l-21 -125h69l-8 -48h-69l-73 -435q-4 -28 5.5 -33.5t57.5 -5.5zM372 94l44 267q-28 53 -85 53
q-64 0 -100 -65q-16 -31 -33 -128q-16 -94 -10 -128q5 -29 23 -46t45 -17q64 0 116 64z" />
    <glyph glyph-name="Emacron" unicode="&#x112;" horiz-adv-x="656" 
d="M673 274l-92 -274h-547l8 47h94l98 586h-94l7 47h534l-9 -241h-47q4 42 0 77.5t-15.5 61.5t-45 40.5t-89.5 14.5h-99l-43 -257h22q33 0 54 7t33 25t17 35t10 50h47l-47 -281h-47q6 37 6.5 63t-18.5 40t-63 14h-22l-47 -282h103q41 0 72.5 7t55.5 23.5t40.5 33.5t31 47.5
t23.5 53t22 62.5h47zM633 748h-361l9 52h361z" />
    <glyph glyph-name="emacron" unicode="&#x113;" horiz-adv-x="467" 
d="M458 117q-2 -10 -15 -28.5t-35.5 -40.5t-62.5 -38t-87 -16q-101 0 -155.5 62.5t-36.5 168.5q17 104 88 166t169 62q45 0 77.5 -13t49 -34t26 -48t8 -55.5t-4.5 -55.5q-3 -20 -10 -24.5t-27 -4.5h-250q-4 -23 -5 -35t-2.5 -38t3 -42t13.5 -34t27.5 -26.5t45.5 -8.5
q35 0 73.5 20t61.5 62q5 8 7.5 11.5t7.5 5.5t13 2q5 0 9 -0.5t8.5 -5t3.5 -12.5zM385 251q2 13 4 26.5t1.5 41t-6.5 47.5t-22.5 35.5t-43.5 15.5q-91 0 -120 -166h187zM511 583h-361l9 52h361z" />
    <glyph glyph-name="Ebreve" unicode="&#x114;" horiz-adv-x="656" 
d="M673 274l-92 -274h-547l8 47h94l98 586h-94l7 47h534l-9 -241h-47q4 42 0 77.5t-15.5 61.5t-45 40.5t-89.5 14.5h-99l-43 -257h22q33 0 54 7t33 25t17 35t10 50h47l-47 -281h-47q6 37 6.5 63t-18.5 40t-63 14h-22l-47 -282h103q41 0 72.5 7t55.5 23.5t40.5 33.5t31 47.5
t23.5 53t22 62.5h47zM639 925q-17 -85 -71 -136t-116 -51q-64 0 -101 51.5t-25 135.5h36q-8 -57 22 -91t78 -34q46 0 88 33.5t53 91.5h36z" />
    <glyph glyph-name="ebreve" unicode="&#x115;" horiz-adv-x="467" 
d="M458 117q-2 -10 -15 -28.5t-35.5 -40.5t-62.5 -38t-87 -16q-101 0 -155.5 62.5t-36.5 168.5q17 104 88 166t169 62q45 0 77.5 -13t49 -34t26 -48t8 -55.5t-4.5 -55.5q-3 -20 -10 -24.5t-27 -4.5h-250q-4 -23 -5 -35t-2.5 -38t3 -42t13.5 -34t27.5 -26.5t45.5 -8.5
q35 0 73.5 20t61.5 62q5 8 7.5 11.5t7.5 5.5t13 2q5 0 9 -0.5t8.5 -5t3.5 -12.5zM385 251q2 13 4 26.5t1.5 41t-6.5 47.5t-22.5 35.5t-43.5 15.5q-91 0 -120 -166h187zM507 702q-17 -85 -71 -136t-116 -51q-64 0 -101 51.5t-25 135.5h36q-8 -57 22 -91t78 -34q46 0 88 33.5
t53 91.5h36z" />
    <glyph glyph-name="Edotaccent" unicode="&#x116;" horiz-adv-x="656" 
d="M673 274l-92 -274h-547l8 47h94l98 586h-94l7 47h534l-9 -241h-47q4 42 0 77.5t-15.5 61.5t-45 40.5t-89.5 14.5h-99l-43 -257h22q33 0 54 7t33 25t17 35t10 50h47l-47 -281h-47q6 37 6.5 63t-18.5 40t-63 14h-22l-47 -282h103q41 0 72.5 7t55.5 23.5t40.5 33.5t31 47.5
t23.5 53t22 62.5h47zM542 817q-5 -31 -31.5 -54.5t-60.5 -23.5q-32 0 -51 23t-14 55q5 31 31.5 54.5t60.5 23.5q32 0 51 -23t14 -55z" />
    <glyph glyph-name="edotaccent" unicode="&#x117;" horiz-adv-x="467" 
d="M458 117q-2 -10 -15 -28.5t-35.5 -40.5t-62.5 -38t-87 -16q-101 0 -155.5 62.5t-36.5 168.5q17 104 88 166t169 62q45 0 77.5 -13t49 -34t26 -48t8 -55.5t-4.5 -55.5q-3 -20 -10 -24.5t-27 -4.5h-250q-4 -23 -5 -35t-2.5 -38t3 -42t13.5 -34t27.5 -26.5t45.5 -8.5
q35 0 73.5 20t61.5 62q5 8 7.5 11.5t7.5 5.5t13 2q5 0 9 -0.5t8.5 -5t3.5 -12.5zM385 251q2 13 4 26.5t1.5 41t-6.5 47.5t-22.5 35.5t-43.5 15.5q-91 0 -120 -166h187zM413 609q-5 -31 -31.5 -54.5t-60.5 -23.5q-32 0 -51 23t-14 55q5 31 31.5 54.5t60.5 23.5q32 0 51 -23
t14 -55z" />
    <glyph glyph-name="Eogonek" unicode="&#x118;" horiz-adv-x="656" 
d="M673 274l-92 -274h-69q-65 -28 -77 -78q-9 -39 22 -55q11 -5 25 -5q7 0 12 1t9.5 3.5t7 4t7 5.5t5.5 5q16 10 29 -3q4 -5 4 -14t-5 -14q-59 -54 -116 -54q-50 0 -73 27t-17 63q5 31 31 62.5t58 51.5h-400l8 47h94l98 586h-94l7 47h534l-9 -241h-47q4 42 0 77.5
t-15.5 61.5t-45 40.5t-89.5 14.5h-99l-43 -257h22q33 0 54 7t33 25t17 35t10 50h47l-47 -281h-47q6 37 6.5 63t-18.5 40t-63 14h-22l-47 -282h103q41 0 72.5 7t55.5 23.5t40.5 33.5t31 47.5t23.5 53t22 62.5h47z" />
    <glyph glyph-name="eogonek" unicode="&#x119;" horiz-adv-x="467" 
d="M458 117q-4 -20 -36.5 -56t-85.5 -54q-64 -28 -78 -79q-12 -42 18 -60q12 -6 26 -6q7 0 12 1t9.5 3.5t7 4t7 5.5t5.5 5q16 10 29 -3q4 -5 4 -14t-5 -14q-59 -54 -116 -54q-50 0 -73 27t-17 63q4 26 27.5 56t52.5 52q-95 5 -146 66.5t-33 164.5q17 104 88 166t169 62
q45 0 77.5 -13t49 -34t26 -48t8 -55.5t-4.5 -55.5q-3 -20 -10 -24.5t-27 -4.5h-250q-4 -23 -5 -35t-2.5 -38t3 -42t13.5 -34t27.5 -26.5t45.5 -8.5q35 0 73.5 20t61.5 62q5 8 7.5 11.5t7.5 5.5t13 2q5 0 9 -0.5t8.5 -5t3.5 -12.5zM385 251q2 13 4 26.5t1.5 41t-6.5 47.5
t-22.5 35.5t-43.5 15.5q-91 0 -120 -166h187z" />
    <glyph glyph-name="Ecaron" unicode="&#x11a;" horiz-adv-x="656" 
d="M673 274l-92 -274h-547l8 47h94l98 586h-94l7 47h534l-9 -241h-47q4 42 0 77.5t-15.5 61.5t-45 40.5t-89.5 14.5h-99l-43 -257h22q33 0 54 7t33 25t17 35t10 50h47l-47 -281h-47q6 37 6.5 63t-18.5 40t-63 14h-22l-47 -282h103q41 0 72.5 7t55.5 23.5t40.5 33.5t31 47.5
t23.5 53t22 62.5h47zM648 869l-199 -141l-151 141l20 24l150 -58l170 58z" />
    <glyph glyph-name="ecaron" unicode="&#x11b;" horiz-adv-x="467" 
d="M458 117q-2 -10 -15 -28.5t-35.5 -40.5t-62.5 -38t-87 -16q-101 0 -155.5 62.5t-36.5 168.5q17 104 88 166t169 62q45 0 77.5 -13t49 -34t26 -48t8 -55.5t-4.5 -55.5q-3 -20 -10 -24.5t-27 -4.5h-250q-4 -23 -5 -35t-2.5 -38t3 -42t13.5 -34t27.5 -26.5t45.5 -8.5
q35 0 73.5 20t61.5 62q5 8 7.5 11.5t7.5 5.5t13 2q5 0 9 -0.5t8.5 -5t3.5 -12.5zM385 251q2 13 4 26.5t1.5 41t-6.5 47.5t-22.5 35.5t-43.5 15.5q-91 0 -120 -166h187zM525 690l-208 -185l-146 185l24 22l141 -99l175 99z" />
    <glyph glyph-name="Gcircumflex" unicode="&#x11c;" horiz-adv-x="786" 
d="M773 229h-69l-33 -201q-2 -10 -3 -14.5t-5 -9t-11 -4.5t-39 17.5t-49 34.5q-57 -63 -158 -63q-153 0 -236.5 94.5t-56.5 259.5q28 164 142.5 259t268.5 95q94 0 153 -62l67 53q12 9 20 9q12 0 14.5 -7t-0.5 -21l-36 -215q-4 -20 -8.5 -24t-23.5 -4q-10 0 -14 0.5t-6.5 4
t-2.5 11.5q2 104 -42.5 156t-109.5 52q-117 0 -193 -93q-51 -63 -76 -214q-24 -149 5 -215q24 -50 71 -71t93 -21q33 0 67 20t43 72l17 101h-125l8 47q44 -3 187 -3q112 0 149 3zM693 752l-20 -24l-150 58l-170 -58l-10 24l199 141z" />
    <glyph glyph-name="gcircumflex" unicode="&#x11d;" 
d="M551 397q-3 -18 -17 -30.5t-33 -12.5t-29 12t-7 31l2 8t2.5 6.5t1.5 3.5q-24 -7 -39 -16q30 -41 20 -97q-10 -62 -63.5 -105t-140.5 -43q-61 0 -104 25q-11 -12 -15 -35q-4 -26 8.5 -42.5t33.5 -18.5h58q47 0 72.5 -1t65.5 -9t58.5 -23t30.5 -46t5 -75q-9 -56 -72 -93
t-174 -37q-119 0 -164.5 39.5t-37.5 86.5q10 59 86 86q-32 30 -26 93q10 50 50 92q-42 39 -31 106q10 63 64.5 105.5t140.5 42.5q72 0 113 -32q47 37 95 37q28 0 39 -18.5t7 -39.5zM341 302q4 25 5.5 39.5t-1 34t-16.5 29t-38 9.5q-20 0 -35 -7.5t-23 -16.5t-15 -27.5
t-9 -29l-6 -31.5q-4 -26 -5 -40t1.5 -33.5t16.5 -29t38 -9.5q20 0 35 7.5t23 17t14.5 27t9 29t5.5 31.5zM374 -75q6 33 -21.5 47.5t-87.5 14.5h-94q-61 0 -71 -60q-7 -39 22.5 -65.5t99.5 -26.5q71 0 109 27.5t43 62.5zM480 527l-24 -22l-141 99l-175 -99l-14 22l208 185z
" />
    <glyph glyph-name="Gbreve" unicode="&#x11e;" horiz-adv-x="786" 
d="M773 229h-69l-33 -201q-2 -10 -3 -14.5t-5 -9t-11 -4.5t-39 17.5t-49 34.5q-57 -63 -158 -63q-153 0 -236.5 94.5t-56.5 259.5q28 164 142.5 259t268.5 95q94 0 153 -62l67 53q12 9 20 9q12 0 14.5 -7t-0.5 -21l-36 -215q-4 -20 -8.5 -24t-23.5 -4q-10 0 -14 0.5t-6.5 4
t-2.5 11.5q2 104 -42.5 156t-109.5 52q-117 0 -193 -93q-51 -63 -76 -214q-24 -149 5 -215q24 -50 71 -71t93 -21q33 0 67 20t43 72l17 101h-125l8 47q44 -3 187 -3q112 0 149 3zM704 925q-17 -85 -71 -136t-116 -51q-64 0 -101 51.5t-25 135.5h36q-8 -57 22 -91t78 -34
q46 0 88 33.5t53 91.5h36z" />
    <glyph glyph-name="gbreve" unicode="&#x11f;" 
d="M551 397q-3 -18 -17 -30.5t-33 -12.5t-29 12t-7 31l2 8t2.5 6.5t1.5 3.5q-24 -7 -39 -16q30 -41 20 -97q-10 -62 -63.5 -105t-140.5 -43q-61 0 -104 25q-11 -12 -15 -35q-4 -26 8.5 -42.5t33.5 -18.5h58q47 0 72.5 -1t65.5 -9t58.5 -23t30.5 -46t5 -75q-9 -56 -72 -93
t-174 -37q-119 0 -164.5 39.5t-37.5 86.5q10 59 86 86q-32 30 -26 93q10 50 50 92q-42 39 -31 106q10 63 64.5 105.5t140.5 42.5q72 0 113 -32q47 37 95 37q28 0 39 -18.5t7 -39.5zM341 302q4 25 5.5 39.5t-1 34t-16.5 29t-38 9.5q-20 0 -35 -7.5t-23 -16.5t-15 -27.5
t-9 -29l-6 -31.5q-4 -26 -5 -40t1.5 -33.5t16.5 -29t38 -9.5q20 0 35 7.5t23 17t14.5 27t9 29t5.5 31.5zM374 -75q6 33 -21.5 47.5t-87.5 14.5h-94q-61 0 -71 -60q-7 -39 22.5 -65.5t99.5 -26.5q71 0 109 27.5t43 62.5zM489 702q-17 -85 -71 -136t-116 -51q-64 0 -101 51.5
t-25 135.5h36q-8 -57 22 -91t78 -34q46 0 88 33.5t53 91.5h36z" />
    <glyph glyph-name="Gdotaccent" unicode="&#x120;" horiz-adv-x="786" 
d="M773 229h-69l-33 -201q-2 -10 -3 -14.5t-5 -9t-11 -4.5t-39 17.5t-49 34.5q-57 -63 -158 -63q-153 0 -236.5 94.5t-56.5 259.5q28 164 142.5 259t268.5 95q94 0 153 -62l67 53q12 9 20 9q12 0 14.5 -7t-0.5 -21l-36 -215q-4 -20 -8.5 -24t-23.5 -4q-10 0 -14 0.5t-6.5 4
t-2.5 11.5q2 104 -42.5 156t-109.5 52q-117 0 -193 -93q-51 -63 -76 -214q-24 -149 5 -215q24 -50 71 -71t93 -21q33 0 67 20t43 72l17 101h-125l8 47q44 -3 187 -3q112 0 149 3zM607 817q-5 -31 -31.5 -54.5t-60.5 -23.5q-32 0 -51 23t-14 55q5 31 31.5 54.5t60.5 23.5
q32 0 51 -23t14 -55z" />
    <glyph glyph-name="gdotaccent" unicode="&#x121;" 
d="M551 397q-3 -18 -17 -30.5t-33 -12.5t-29 12t-7 31l2 8t2.5 6.5t1.5 3.5q-24 -7 -39 -16q30 -41 20 -97q-10 -62 -63.5 -105t-140.5 -43q-61 0 -104 25q-11 -12 -15 -35q-4 -26 8.5 -42.5t33.5 -18.5h58q47 0 72.5 -1t65.5 -9t58.5 -23t30.5 -46t5 -75q-9 -56 -72 -93
t-174 -37q-119 0 -164.5 39.5t-37.5 86.5q10 59 86 86q-32 30 -26 93q10 50 50 92q-42 39 -31 106q10 63 64.5 105.5t140.5 42.5q72 0 113 -32q47 37 95 37q28 0 39 -18.5t7 -39.5zM341 302q4 25 5.5 39.5t-1 34t-16.5 29t-38 9.5q-20 0 -35 -7.5t-23 -16.5t-15 -27.5
t-9 -29l-6 -31.5q-4 -26 -5 -40t1.5 -33.5t16.5 -29t38 -9.5q20 0 35 7.5t23 17t14.5 27t9 29t5.5 31.5zM374 -75q6 33 -21.5 47.5t-87.5 14.5h-94q-61 0 -71 -60q-7 -39 22.5 -65.5t99.5 -26.5q71 0 109 27.5t43 62.5zM395 609q-5 -31 -31.5 -54.5t-60.5 -23.5
q-32 0 -51 23t-14 55q5 31 31.5 54.5t60.5 23.5q32 0 51 -23t14 -55z" />
    <glyph glyph-name="Gcommaaccent" unicode="&#x122;" horiz-adv-x="786" 
d="M773 229h-69l-33 -201q-2 -10 -3 -14.5t-5 -9t-11 -4.5t-39 17.5t-49 34.5q-57 -63 -158 -63q-153 0 -236.5 94.5t-56.5 259.5q28 164 142.5 259t268.5 95q94 0 153 -62l67 53q12 9 20 9q12 0 14.5 -7t-0.5 -21l-36 -215q-4 -20 -8.5 -24t-23.5 -4q-10 0 -14 0.5t-6.5 4
t-2.5 11.5q2 104 -42.5 156t-109.5 52q-117 0 -193 -93q-51 -63 -76 -214q-24 -149 5 -215q24 -50 71 -71t93 -21q33 0 67 20t43 72l17 101h-125l8 47q44 -3 187 -3q112 0 149 3zM435 -127q-8 -46 -34.5 -87.5t-49 -61t-30.5 -19.5q-5 0 -9 5t-3 10q1 6 11 12q67 52 85 132
q-16 -14 -41 -14q-27 0 -40 17.5t-9 41.5t23 41t44 17q32 0 45.5 -27t7.5 -67z" />
    <glyph glyph-name="gcommaaccent" unicode="&#x123;" 
d="M369 547q-4 -24 -23 -41t-44 -17q-32 0 -45.5 27t-7.5 67q8 46 34.5 87.5t49 61t30.5 19.5q5 0 9 -5t3 -10q-1 -6 -11 -12q-67 -52 -85 -132q16 14 41 14q27 0 40 -17.5t9 -41.5zM551 397q-3 -18 -17 -30.5t-33 -12.5t-29 12t-7 31l2 8t2.5 6.5t1.5 3.5q-24 -7 -39 -16
q30 -41 20 -97q-10 -62 -63.5 -105t-140.5 -43q-61 0 -104 25q-11 -12 -15 -35q-4 -26 8.5 -42.5t33.5 -18.5h58q47 0 72.5 -1t65.5 -9t58.5 -23t30.5 -46t5 -75q-9 -56 -72 -93t-174 -37q-119 0 -164.5 39.5t-37.5 86.5q10 59 86 86q-32 30 -26 93q10 50 50 92
q-42 39 -31 106q10 63 64.5 105.5t140.5 42.5q72 0 113 -32q47 37 95 37q28 0 39 -18.5t7 -39.5zM341 302q4 25 5.5 39.5t-1 34t-16.5 29t-38 9.5q-20 0 -35 -7.5t-23 -16.5t-15 -27.5t-9 -29l-6 -31.5q-4 -26 -5 -40t1.5 -33.5t16.5 -29t38 -9.5q20 0 35 7.5t23 17t14.5 27
t9 29t5.5 31.5zM374 -75q6 33 -21.5 47.5t-87.5 14.5h-94q-61 0 -71 -60q-7 -39 22.5 -65.5t99.5 -26.5q71 0 109 27.5t43 62.5z" />
    <glyph glyph-name="Hcircumflex" unicode="&#x124;" horiz-adv-x="783" 
d="M748 0q-34 3 -164 3t-166 -3l8 47h94l48 286h-242l-48 -286h94l-8 -47q-34 3 -164 3t-166 -3l8 47h94l99 592h-94l7 47q35 -3 165 -3t165 3l-7 -47h-94l-44 -259h242l44 259h-94l7 47q35 -3 165 -3t165 3l-7 -47h-94l-99 -592h94zM692 752l-20 -24l-150 58l-170 -58
l-10 24l199 141z" />
    <glyph glyph-name="hcircumflex" unicode="&#x125;" horiz-adv-x="556" 
d="M553 0l-124 3l-124 -3l8 47h65l46 274q9 43 4.5 63.5t-10 25t-15.5 4.5q-45 0 -93 -41t-60 -117l-35 -209h69l-8 -47l-125 3l-127 -3l8 47h69l92 553q5 28 -4.5 33.5t-57.5 5.5l7 47l179 8l-56 -335h1q64 91 162 91q77 0 99.5 -38t12.5 -103l-44 -262h69zM579 760
l-20 -24l-150 58l-170 -58l-10 24l199 141z" />
    <glyph glyph-name="Hbar" unicode="&#x126;" horiz-adv-x="783" 
d="M748 0q-34 3 -164 3t-166 -3l8 47h94l48 286h-242l-48 -286h94l-8 -47q-34 3 -164 3t-166 -3l8 47h94l74 444h-94l8 48h94l17 100h-94l7 47q35 -3 165 -3t165 3l-7 -47h-94l-17 -100h242l17 100h-94l7 47q35 -3 165 -3t165 3l-7 -47h-94l-17 -100h94l-8 -48h-94l-74 -444
h94zM575 380l19 111h-242l-19 -111h242z" />
    <glyph glyph-name="hbar" unicode="&#x127;" horiz-adv-x="556" 
d="M553 0l-124 3l-124 -3l8 47h65l46 274q9 43 4.5 63.5t-10 25t-15.5 4.5q-45 0 -93 -41t-60 -117l-35 -209h69l-8 -47l-125 3l-127 -3l8 47h69l79 474h-69l8 48h69l5 31q5 28 -4.5 33.5t-57.5 5.5l7 47l179 8l-21 -125h77l-8 -48h-77l-27 -162h1q64 91 162 91
q77 0 99.5 -38t12.5 -103l-44 -262h69z" />
    <glyph glyph-name="Itilde" unicode="&#x128;" horiz-adv-x="397" 
d="M368 0q-35 3 -169 3t-171 -3l8 47h99l99 592h-99l7 47q36 -3 170 -3t170 3l-7 -47h-99l-99 -592h99zM501 812l-50 -53q-3 -4 -10 -10t-23.5 -13.5t-34.5 -7.5q-19 0 -63 14q-48 17 -70 17q-38 0 -68 -31l-24 22l50 53q3 4 10 10t23.5 13.5t34.5 7.5t62 -14q49 -17 71 -17
q38 0 68 31z" />
    <glyph glyph-name="itilde" unicode="&#x129;" horiz-adv-x="278" 
d="M265 0l-116 3l-123 -3l8 47h69l51 309q5 28 -4 33.5t-55 5.5l8 47l175 8l-67 -403h62zM413 640l-50 -53q-31 -31 -68 -31q-19 0 -63 14q-48 17 -70 17q-39 0 -68 -31l-25 22l50 53q31 31 68 31q19 0 63 -14q48 -17 70 -17q39 0 68 31z" />
    <glyph glyph-name="Imacron" unicode="&#x12a;" horiz-adv-x="397" 
d="M368 0q-35 3 -169 3t-171 -3l8 47h99l99 592h-99l7 47q36 -3 170 -3t170 3l-7 -47h-99l-99 -592h99zM504 748h-361l9 52h361z" />
    <glyph glyph-name="imacron" unicode="&#x12b;" horiz-adv-x="278" 
d="M265 0l-116 3l-123 -3l8 47h69l51 309q5 28 -4 33.5t-55 5.5l8 47l175 8l-67 -403h62zM417 583h-361l9 52h361z" />
    <glyph glyph-name="Ibreve" unicode="&#x12c;" horiz-adv-x="397" 
d="M368 0q-35 3 -169 3t-171 -3l8 47h99l99 592h-99l7 47q36 -3 170 -3t170 3l-7 -47h-99l-99 -592h99zM510 925q-17 -85 -71 -136t-116 -51q-64 0 -101 51.5t-25 135.5h36q-8 -57 22 -91t78 -34q46 0 88 33.5t53 91.5h36z" />
    <glyph glyph-name="ibreve" unicode="&#x12d;" horiz-adv-x="278" 
d="M265 0l-116 3l-123 -3l8 47h69l51 309q5 28 -4 33.5t-55 5.5l8 47l175 8l-67 -403h62zM413 702q-17 -85 -71 -136t-116 -51q-64 0 -101 51.5t-25 135.5h36q-8 -57 22 -91t78 -34q46 0 88 33.5t53 91.5h36z" />
    <glyph glyph-name="Iogonek" unicode="&#x12e;" horiz-adv-x="397" 
d="M368 0q-32 2 -71 2q-39 -18 -60 -52q-22 -32 -12 -60t46 -28q7 0 12 1t9.5 3.5t7 4t7 5.5t5.5 5q16 10 29 -3q4 -5 4 -14t-5 -14q-59 -54 -116 -54q-50 0 -73 27t-17 63q4 27 30.5 61t58.5 56h-24q-134 0 -171 -3l8 47h99l99 592h-99l7 47q36 -3 170 -3t170 3l-7 -47h-99
l-99 -592h99z" />
    <glyph glyph-name="iogonek" unicode="&#x12f;" horiz-adv-x="278" 
d="M316 617q-5 -33 -32 -55.5t-59 -22.5t-51 23t-14 55t32 55t59 23t51 -22.5t14 -55.5zM265 0l-88 3q-39 -18 -62 -53q-22 -32 -11.5 -60t45.5 -28q7 0 12 1t9.5 3.5t7 4t7 5.5t5.5 5q16 10 29 -3q4 -5 4 -14t-5 -14q-59 -54 -116 -54q-50 0 -73 27t-17 63q4 27 30.5 60.5
t57.5 55.5l-74 -2l8 47h69l51 309q5 28 -4 33.5t-55 5.5l8 47l175 8l-67 -403h62z" />
    <glyph glyph-name="Idotaccent" unicode="&#x130;" horiz-adv-x="397" 
d="M368 0q-35 3 -169 3t-171 -3l8 47h99l99 592h-99l7 47q36 -3 170 -3t170 3l-7 -47h-99l-99 -592h99zM413 817q-5 -31 -31.5 -54.5t-60.5 -23.5q-32 0 -51 23t-14 55q5 31 31.5 54.5t60.5 23.5q32 0 51 -23t14 -55z" />
    <glyph glyph-name="dotlessi" unicode="&#x131;" horiz-adv-x="278" 
d="M265 0l-116 3l-123 -3l8 47h69l51 309q5 28 -4 33.5t-55 5.5l8 47l175 8l-67 -403h62z" />
    <glyph glyph-name="Jcircumflex" unicode="&#x134;" horiz-adv-x="517" 
d="M566 639h-71l-82 -490q-12 -75 -78.5 -117.5t-160.5 -42.5q-77 0 -120.5 35t-34.5 90q6 37 32.5 57t57.5 20q29 0 49 -20t14 -57q-4 -22 -17.5 -39.5t-24.5 -24t-20 -9.5q28 -16 65 -16q35 0 63.5 29.5t38.5 92.5l82 492h-123l7 47q41 -3 183 -3q110 0 147 3zM594 752
l-20 -24l-150 58l-170 -58l-10 24l199 141z" />
    <glyph glyph-name="jcircumflex" unicode="&#x135;" horiz-adv-x="306" 
d="M235 -42q-12 -73 -70.5 -115.5t-126.5 -42.5q-56 0 -90.5 24.5t-27.5 66.5q5 27 25 45t48 18q27 0 42 -18t10 -44q-8 -35 -35 -51q15 -5 32 -5q26 0 45.5 23t27 46.5t12.5 50.5l66 399q2 13 2.5 19t-3.5 11.5t-14 7.5q-15 2 -54 2l8 47l185 8zM429 527l-24 -22l-141 99
l-175 -99l-14 22l208 185z" />
    <glyph glyph-name="Kcommaaccent" unicode="&#x136;" horiz-adv-x="783" 
d="M741 0q-42 3 -133 3q-124 0 -160 -3l8 47q64 0 66 11q0 3 -4 11l-124 264l-80 -67l-36 -219h94l-8 -47q-34 3 -164 3t-166 -3l8 47h94l99 592h-94l7 47q35 -3 165 -3t165 3l-7 -47h-94l-52 -307l338 286l11 11q-23 10 -62 10l7 47q37 -3 130 -3q47 0 92 3l-7 -47
q-57 0 -73.5 -5t-42.5 -26l-218 -185l168 -357q4 -8 7.5 -11.5t15 -5.5t35.5 -2h23zM434 -127q-8 -46 -34.5 -87.5t-49 -61t-30.5 -19.5q-5 0 -9 5t-3 10q1 6 11 12q67 52 85 132q-16 -14 -41 -14q-27 0 -40 17.5t-9 41.5t23 41t44 17q32 0 45.5 -27t7.5 -67z" />
    <glyph glyph-name="kcommaaccent" unicode="&#x137;" horiz-adv-x="528" 
d="M511 0q-66 3 -100 3l-121 -3l8 47q37 0 39 10q1 4 -32 67.5t-46 87.5l-41 -33l-22 -132h69l-8 -47l-120 3l-121 -3l8 47h69l92 553q5 28 -4.5 33.5t-57.5 5.5l7 47l179 8l-75 -446l161 128q9 4 9 10q1 3 -5.5 6t-16.5 4t-19 1l8 47q39 -3 114 -3q54 0 77 3l-8 -47
q-44 0 -59.5 -4t-28.5 -15l-123 -99l109 -213q6 -11 9 -14t14 -4t44 -1zM306 -127q-8 -46 -34.5 -87.5t-49 -61t-30.5 -19.5q-5 0 -9 5t-3 10q1 6 11 12q67 52 85 132q-16 -14 -41 -14q-27 0 -40 17.5t-9 41.5t23 41t44 17q32 0 45.5 -27t7.5 -67z" />
    <glyph glyph-name="Lacute" unicode="&#x139;" horiz-adv-x="600" 
d="M603 274l-77 -274h-492l8 47h94l99 592h-94l7 47q35 -3 169 -3q144 0 185 3l-7 -47h-118l-99 -592h66q43 0 78 17.5t56 40.5t38.5 59t24.5 57.5t15 52.5h47zM481 841q-10 -27 -47 -43l-152 -60l-20 38l124 116q25 22 47 22q29 0 43.5 -22t4.5 -51z" />
    <glyph glyph-name="lacute" unicode="&#x13a;" horiz-adv-x="278" 
d="M272 0l-122 3l-124 -3l8 47h69l92 553q5 28 -4.5 33.5t-57.5 5.5l7 47l179 8l-108 -647h69zM419 849q-10 -27 -47 -43l-152 -60l-20 38l124 116q25 22 47 22q29 0 43.5 -22t4.5 -51z" />
    <glyph glyph-name="Lcommaaccent" unicode="&#x13b;" horiz-adv-x="600" 
d="M603 274l-77 -274h-492l8 47h94l99 592h-94l7 47q35 -3 169 -3q144 0 185 3l-7 -47h-118l-99 -592h66q43 0 78 17.5t56 40.5t38.5 59t24.5 57.5t15 52.5h47zM342 -127q-8 -46 -34.5 -87.5t-49 -61t-30.5 -19.5q-5 0 -9 5t-3 10q1 6 11 12q67 52 85 132q-16 -14 -41 -14
q-27 0 -40 17.5t-9 41.5t23 41t44 17q32 0 45.5 -27t7.5 -67z" />
    <glyph glyph-name="lcommaaccent" unicode="&#x13c;" horiz-adv-x="278" 
d="M272 0l-122 3l-124 -3l8 47h69l92 553q5 28 -4.5 33.5t-57.5 5.5l7 47l179 8l-108 -647h69zM181 -127q-8 -46 -34.5 -87.5t-49 -61t-30.5 -19.5q-5 0 -9 5t-3 10q1 6 11 12q67 52 85 132q-16 -14 -41 -14q-27 0 -40 17.5t-9 41.5t23 41t44 17q32 0 45.5 -27t7.5 -67z" />
    <glyph glyph-name="Lcaron" unicode="&#x13d;" horiz-adv-x="600" 
d="M603 274l-77 -274h-492l8 47h94l99 592h-94l7 47q35 -3 169 -3q144 0 185 3l-7 -47h-118l-99 -592h66q43 0 78 17.5t56 40.5t38.5 59t24.5 57.5t15 52.5h47zM669 592q-8 -46 -34.5 -87.5t-49 -61t-30.5 -19.5q-5 0 -9 5t-3 10q1 6 11 12q67 52 85 132q-16 -14 -41 -14
q-27 0 -40 17.5t-9 41.5t23 41t44 17q32 0 45.5 -27t7.5 -67z" />
    <glyph glyph-name="lcaron" unicode="&#x13e;" horiz-adv-x="278" 
d="M272 0l-122 3l-124 -3l8 47h69l92 553q5 28 -4.5 33.5t-57.5 5.5l7 47l179 8l-108 -647h69zM466 600q-8 -46 -34.5 -87.5t-49 -61t-30.5 -19.5q-5 0 -8.5 5t-2.5 10q0 5 11 12q68 55 85 132q-16 -14 -42 -14q-27 0 -40 17.5t-9 41.5t23.5 41t44.5 17q32 0 45.5 -27
t6.5 -67z" />
    <glyph glyph-name="Ldot" unicode="&#x13f;" horiz-adv-x="600" 
d="M603 274l-77 -274h-492l8 47h94l99 592h-94l7 47q35 -3 169 -3q144 0 185 3l-7 -47h-118l-99 -592h66q43 0 78 17.5t56 40.5t38.5 59t24.5 57.5t15 52.5h47zM648 428q-5 -31 -31.5 -54.5t-60.5 -23.5q-32 0 -51 23t-14 55q5 31 31.5 54.5t60.5 23.5q32 0 51 -23t14 -55z
" />
    <glyph glyph-name="ldot" unicode="&#x140;" horiz-adv-x="361" 
d="M272 0l-122 3l-124 -3l8 47h69l92 553q5 28 -4.5 33.5t-57.5 5.5l7 47l179 8l-108 -647h69zM467 358q-5 -31 -31.5 -54.5t-60.5 -23.5q-32 0 -51 23t-14 55q5 31 31.5 54.5t60.5 23.5q32 0 51 -23t14 -55z" />
    <glyph glyph-name="Lslash" unicode="&#x141;" horiz-adv-x="600" 
d="M616 274l-77 -274h-492l8 47h94l36 219l-60 -46l-25 37l96 71l52 311h-94l7 47q35 -3 169 -3q144 0 185 3l-7 -47h-118l-32 -188l160 117l27 -36l-197 -145l-57 -340h66q43 0 78 17.5t56 40.5t38.5 59t24.5 57.5t15 52.5h47z" />
    <glyph glyph-name="lslash" unicode="&#x142;" horiz-adv-x="336" 
d="M393 447l-102 -76l-54 -324h69l-8 -47l-122 3l-124 -3l8 47h69l39 233l-46 -35l-24 40l80 59l43 256q5 28 -4.5 33.5t-57.5 5.5l7 47l179 8l-43 -257l64 47z" />
    <glyph glyph-name="Nacute" unicode="&#x143;" horiz-adv-x="783" 
d="M855 639h-20q-28 0 -51 -3q-18 -2 -22 -5.5t-6 -20.5l-97 -578q-2 -13 -4 -19t-8.5 -9.5t-19.5 -3.5q-18 0 -25 13l-323 576l-85 -513q-3 -16 -0.5 -20t20.5 -6q21 -3 49 -3h20l-8 -47l-120 3l-121 -3l8 47h20q28 0 50 3q18 2 22 5.5t7 20.5l94 563h-94l7 47h208
q16 0 21.5 -2t11.5 -13l250 -446l64 385q3 10 1.5 15.5t-5.5 7t-17 3.5q-21 3 -48 3h-20l7 47l121 -3l120 3zM670 841q-10 -27 -47 -43l-152 -60l-20 38l124 116q25 22 47 22q29 0 43.5 -22t4.5 -51z" />
    <glyph glyph-name="nacute" unicode="&#x144;" horiz-adv-x="556" 
d="M553 0l-124 3l-124 -3l8 47h65l46 274q9 43 4.5 63.5t-10 25t-15.5 4.5q-45 0 -93 -41t-60 -117l-35 -209h69l-8 -47l-125 3l-127 -3l8 47h69l51 309q5 28 -4.5 33.5t-57.5 5.5l8 47l173 8l-17 -101h1q66 101 169 101q77 0 99.5 -38t12.5 -103l-44 -262h69zM514 644
q-4 -28 -40 -49l-143 -84l-27 33l106 132q25 30 53 30q24 0 39.5 -19t11.5 -43z" />
    <glyph glyph-name="Ncommaaccent" unicode="&#x145;" horiz-adv-x="783" 
d="M855 639h-20q-28 0 -51 -3q-18 -2 -22 -5.5t-6 -20.5l-97 -578q-2 -13 -4 -19t-8.5 -9.5t-19.5 -3.5q-18 0 -25 13l-323 576l-85 -513q-3 -16 -0.5 -20t20.5 -6q21 -3 49 -3h20l-8 -47l-120 3l-121 -3l8 47h20q28 0 50 3q18 2 22 5.5t7 20.5l94 563h-94l7 47h208
q16 0 21.5 -2t11.5 -13l250 -446l64 385q3 10 1.5 15.5t-5.5 7t-17 3.5q-21 3 -48 3h-20l7 47l121 -3l120 3zM434 -127q-8 -46 -34.5 -87.5t-49 -61t-30.5 -19.5q-5 0 -9 5t-3 10q1 6 11 12q67 52 85 132q-16 -14 -41 -14q-27 0 -40 17.5t-9 41.5t23 41t44 17q32 0 45.5 -27
t7.5 -67z" />
    <glyph glyph-name="ncommaaccent" unicode="&#x146;" horiz-adv-x="556" 
d="M553 0l-124 3l-124 -3l8 47h65l46 274q9 43 4.5 63.5t-10 25t-15.5 4.5q-45 0 -93 -41t-60 -117l-35 -209h69l-8 -47l-125 3l-127 -3l8 47h69l51 309q5 28 -4.5 33.5t-57.5 5.5l8 47l173 8l-17 -101h1q66 101 169 101q77 0 99.5 -38t12.5 -103l-44 -262h69zM320 -127
q-8 -46 -34.5 -87.5t-49 -61t-30.5 -19.5q-5 0 -9 5t-3 10q1 6 11 12q67 52 85 132q-16 -14 -41 -14q-27 0 -40 17.5t-9 41.5t23 41t44 17q32 0 45.5 -27t7.5 -67z" />
    <glyph glyph-name="Ncaron" unicode="&#x147;" horiz-adv-x="783" 
d="M855 639h-20q-28 0 -51 -3q-18 -2 -22 -5.5t-6 -20.5l-97 -578q-2 -13 -4 -19t-8.5 -9.5t-19.5 -3.5q-18 0 -25 13l-323 576l-85 -513q-3 -16 -0.5 -20t20.5 -6q21 -3 49 -3h20l-8 -47l-120 3l-121 -3l8 47h20q28 0 50 3q18 2 22 5.5t7 20.5l94 563h-94l7 47h208
q16 0 21.5 -2t11.5 -13l250 -446l64 385q3 10 1.5 15.5t-5.5 7t-17 3.5q-21 3 -48 3h-20l7 47l121 -3l120 3zM712 869l-199 -141l-151 141l20 24l150 -58l170 58z" />
    <glyph glyph-name="ncaron" unicode="&#x148;" horiz-adv-x="556" 
d="M553 0l-124 3l-124 -3l8 47h65l46 274q9 43 4.5 63.5t-10 25t-15.5 4.5q-45 0 -93 -41t-60 -117l-35 -209h69l-8 -47l-125 3l-127 -3l8 47h69l51 309q5 28 -4.5 33.5t-57.5 5.5l8 47l173 8l-17 -101h1q66 101 169 101q77 0 99.5 -38t12.5 -103l-44 -262h69zM570 690
l-208 -185l-146 185l24 22l141 -99l175 99z" />
    <glyph glyph-name="Eng" unicode="&#x14a;" horiz-adv-x="783" 
d="M774 343q-11 -69 -31 -129t-50 -112t-74.5 -82.5t-98.5 -30.5q-26 0 -41.5 18.5t-10.5 44.5t26 44.5t47 18.5q18 0 33 -10q19 64 48 238q9 51 13 88t3.5 81t-9.5 71.5t-31.5 46.5t-58.5 19q-99 0 -173 -69l-89 -533h99l-8 -47q-35 3 -169 3t-171 -3l8 47h99l99 592h-99
l7 47q36 -3 170 -3q35 0 71 3l-7 -43q79 54 171 54q125 0 188 -105.5t39 -248.5z" />
    <glyph glyph-name="eng" unicode="&#x14b;" horiz-adv-x="520" 
d="M492 47q-18 -102 -78.5 -177t-141.5 -75q-24 0 -38 16.5t-10 40.5q4 23 23.5 40t43.5 17q31 0 43 -27q22 40 44 165l46 274q9 43 4.5 63.5t-10 25t-15.5 4.5q-45 0 -93 -41t-60 -117l-35 -209h69l-8 -47l-125 3l-127 -3l8 47h69l51 309q5 28 -4.5 33.5t-57.5 5.5l8 47
l173 8l-17 -101h1q66 101 169 101q77 0 99.5 -38t12.5 -103z" />
    <glyph glyph-name="Omacron" unicode="&#x14c;" horiz-adv-x="750" 
d="M750 339q-28 -164 -132.5 -257t-245.5 -93q-137 0 -212 92t-47 258q28 168 133 263t245 95q137 0 212 -93.5t47 -264.5zM599 353q11 69 13.5 103.5t-7.5 96.5q-12 50 -44.5 77t-76.5 27q-40 0 -81.5 -24t-72.5 -76q-38 -63 -62 -204q-8 -50 -11.5 -77.5t-3 -70t9.5 -75.5
q12 -45 42.5 -72t74.5 -27q42 0 83.5 28t68.5 75q44 76 67 219zM680 748h-361l9 52h361z" />
    <glyph glyph-name="omacron" unicode="&#x14d;" 
d="M508 219q-18 -104 -89 -164.5t-171 -60.5q-98 0 -149.5 60t-33.5 165q18 107 90 170.5t170 63.5q100 0 150 -64t33 -170zM381 229q16 93 12 127q-2 25 -22.5 43t-51.5 18q-29 0 -56 -16.5t-39 -44.5q-14 -31 -30 -127q-16 -94 -13 -129q2 -31 23.5 -48.5t51.5 -17.5
q28 0 54.5 17t38.5 45q15 31 32 133zM528 583h-361l9 52h361z" />
    <glyph glyph-name="Obreve" unicode="&#x14e;" horiz-adv-x="750" 
d="M750 339q-28 -164 -132.5 -257t-245.5 -93q-137 0 -212 92t-47 258q28 168 133 263t245 95q137 0 212 -93.5t47 -264.5zM599 353q11 69 13.5 103.5t-7.5 96.5q-12 50 -44.5 77t-76.5 27q-40 0 -81.5 -24t-72.5 -76q-38 -63 -62 -204q-8 -50 -11.5 -77.5t-3 -70t9.5 -75.5
q12 -45 42.5 -72t74.5 -27q42 0 83.5 28t68.5 75q44 76 67 219zM686 925q-17 -85 -71 -136t-116 -51q-64 0 -101 51.5t-25 135.5h36q-8 -57 22 -91t78 -34q46 0 88 33.5t53 91.5h36z" />
    <glyph glyph-name="obreve" unicode="&#x14f;" 
d="M508 219q-18 -104 -89 -164.5t-171 -60.5q-98 0 -149.5 60t-33.5 165q18 107 90 170.5t170 63.5q100 0 150 -64t33 -170zM381 229q16 93 12 127q-2 25 -22.5 43t-51.5 18q-29 0 -56 -16.5t-39 -44.5q-14 -31 -30 -127q-16 -94 -13 -129q2 -31 23.5 -48.5t51.5 -17.5
q28 0 54.5 17t38.5 45q15 31 32 133zM524 702q-17 -85 -71 -136t-116 -51q-64 0 -101 51.5t-25 135.5h36q-8 -57 22 -91t78 -34q46 0 88 33.5t53 91.5h36z" />
    <glyph glyph-name="Ohungarumlaut" unicode="&#x150;" horiz-adv-x="750" 
d="M750 339q-28 -164 -132.5 -257t-245.5 -93q-137 0 -212 92t-47 258q28 168 133 263t245 95q137 0 212 -93.5t47 -264.5zM599 353q11 69 13.5 103.5t-7.5 96.5q-12 50 -44.5 77t-76.5 27q-40 0 -81.5 -24t-72.5 -76q-38 -63 -62 -204q-8 -50 -11.5 -77.5t-3 -70t9.5 -75.5
q12 -45 42.5 -72t74.5 -27q42 0 83.5 28t68.5 75q44 76 67 219zM531 874q-2 -19 -28 -45l-95 -91l-39 21l42 120q20 54 63 54q25 0 43 -18t14 -41zM698 874q-2 -19 -28 -45l-95 -91l-39 21l42 120q20 54 63 54q25 0 43 -18t14 -41z" />
    <glyph glyph-name="ohungarumlaut" unicode="&#x151;" 
d="M508 219q-18 -104 -89 -164.5t-171 -60.5q-98 0 -149.5 60t-33.5 165q18 107 90 170.5t170 63.5q100 0 150 -64t33 -170zM381 229q16 93 12 127q-2 25 -22.5 43t-51.5 18q-29 0 -56 -16.5t-39 -44.5q-14 -31 -30 -127q-16 -94 -13 -129q2 -31 23.5 -48.5t51.5 -17.5
q28 0 54.5 17t38.5 45q15 31 32 133zM369 647q-4 -22 -29 -45l-95 -91l-38 21l42 120q20 54 63 54q25 0 43 -17.5t14 -41.5zM536 647q-4 -22 -29 -45l-95 -91l-38 21l42 120q20 54 63 54q25 0 43 -17.5t14 -41.5z" />
    <glyph glyph-name="OE" unicode="&#x152;" horiz-adv-x="1017" 
d="M1034 274l-92 -274h-368q-27 0 -99 -7q-40 -4 -70 -4q-150 0 -226 94t-49 257q26 161 133.5 259t259.5 98q41 0 89 -6q41 -5 76 -5h355l-9 -241h-47q1 34 1 63t-7 53t-21.5 41.5t-43.5 27t-73 9.5h-96l-44 -259h60q66 0 90 27.5t34 89.5h47l-47 -281h-47q6 37 5 63
t-22 40t-67 14h-60l-48 -286h101q34 0 62 6.5t48 15.5t38 28t29 33.5t23.5 43t19 47t18.5 53.5h47zM574 344q30 171 32 216q3 54 -13.5 77.5t-74.5 23.5q-35 0 -70 -16.5t-68.5 -51t-60 -96t-40.5 -142.5q-27 -163 13.5 -246.5t119.5 -83.5q59 0 83.5 24t38.5 78
q12 41 40 217z" />
    <glyph glyph-name="oe" unicode="&#x153;" horiz-adv-x="778" 
d="M769 117q-5 -30 -56.5 -76.5t-128.5 -46.5q-100 0 -157 67q-76 -67 -177 -67q-99 0 -150.5 62.5t-34.5 167.5q18 106 91 167.5t171 61.5q104 0 153 -65q70 65 168 65q89 0 123 -57t19 -149q-3 -20 -10 -24.5t-27 -4.5h-244q-2 -19 -3 -25.5t-2.5 -30.5t1 -36.5t8 -33
t15.5 -31t28 -19t42 -8.5q33 0 67 20t55 62q5 11 10.5 15t17.5 4q5 0 9 -0.5t8.5 -5t3.5 -12.5zM696 251q24 166 -54 166q-23 0 -48.5 -15t-42.5 -42q-21 -33 -36 -109h181zM397 229q16 95 3 133q-8 25 -29.5 40t-49.5 15q-29 0 -55.5 -16t-42.5 -39q-24 -38 -40 -133
q-15 -97 -5 -135q7 -30 29 -47t49 -17q61 0 101 63q24 39 40 136z" />
    <glyph glyph-name="Racute" unicode="&#x154;" horiz-adv-x="760" 
d="M772 94q-2 -9 -7.5 -22t-18 -34t-38.5 -35t-60 -14q-166 0 -184 91q-3 21 8 89q9 52 9.5 70t-9.5 48q-18 38 -68 38h-86l-46 -278h94l-8 -47q-34 3 -161 3t-163 -3l8 47h94l99 592h-94l7 47h333q124 0 187 -53t49 -133q-8 -54 -56 -98.5t-122 -62.5q82 -38 83 -120
q0 -5 -3 -74q-2 -24 -1 -45.5t3.5 -38t12.5 -26.5t27 -10q45 0 64 69q4 23 27 23q7 0 11 -0.5t7.5 -6t1.5 -16.5zM564 500q4 24 5.5 35.5t1 31.5t-7 30t-19 21t-35.5 16t-56 5h-82l-47 -278h80q33 0 58.5 5t42 16.5t27 22t17 29.5t9 31t6.5 35zM658 841q-10 -27 -47 -43
l-152 -60l-20 38l124 116q25 22 47 22q29 0 43.5 -22t4.5 -51z" />
    <glyph glyph-name="racute" unicode="&#x155;" horiz-adv-x="428" 
d="M461 368q-4 -28 -25.5 -44.5t-45.5 -16.5t-39.5 16t-11.5 45q2 13 9 24.5t12 16.5l6 5q-32 0 -57 -18t-40 -48.5t-24 -59.5t-14 -62l-30 -179h87l-8 -47q-35 3 -137 3l-127 -3l8 47h69l51 309q5 28 -4.5 33.5t-57.5 5.5l8 47l167 8l-15 -91h1q45 91 125 91
q41 0 70.5 -21.5t22.5 -60.5zM450 644q-4 -28 -40 -49l-143 -84l-27 33l106 132q25 30 53 30q24 0 39.5 -19t11.5 -43z" />
    <glyph glyph-name="Rcommaaccent" unicode="&#x156;" horiz-adv-x="760" 
d="M772 94q-2 -9 -7.5 -22t-18 -34t-38.5 -35t-60 -14q-166 0 -184 91q-3 21 8 89q9 52 9.5 70t-9.5 48q-18 38 -68 38h-86l-46 -278h94l-8 -47q-34 3 -161 3t-163 -3l8 47h94l99 592h-94l7 47h333q124 0 187 -53t49 -133q-8 -54 -56 -98.5t-122 -62.5q82 -38 83 -120
q0 -5 -3 -74q-2 -24 -1 -45.5t3.5 -38t12.5 -26.5t27 -10q45 0 64 69q4 23 27 23q7 0 11 -0.5t7.5 -6t1.5 -16.5zM564 500q4 24 5.5 35.5t1 31.5t-7 30t-19 21t-35.5 16t-56 5h-82l-47 -278h80q33 0 58.5 5t42 16.5t27 22t17 29.5t9 31t6.5 35zM422 -127q-8 -46 -34.5 -87.5
t-49 -61t-30.5 -19.5q-5 0 -9 5t-3 10q1 6 11 12q67 52 85 132q-16 -14 -41 -14q-27 0 -40 17.5t-9 41.5t23 41t44 17q32 0 45.5 -27t7.5 -67z" />
    <glyph glyph-name="rcommaaccent" unicode="&#x157;" horiz-adv-x="428" 
d="M461 368q-4 -28 -25.5 -44.5t-45.5 -16.5t-39.5 16t-11.5 45q2 13 9 24.5t12 16.5l6 5q-32 0 -57 -18t-40 -48.5t-24 -59.5t-14 -62l-30 -179h87l-8 -47q-35 3 -137 3l-127 -3l8 47h69l51 309q5 28 -4.5 33.5t-57.5 5.5l8 47l167 8l-15 -91h1q45 91 125 91
q41 0 70.5 -21.5t22.5 -60.5zM181 -127q-8 -46 -34.5 -87.5t-49 -61t-30.5 -19.5q-5 0 -9 5t-3 10q1 6 11 12q67 52 85 132q-16 -14 -41 -14q-27 0 -40 17.5t-9 41.5t23 41t44 17q32 0 45.5 -27t7.5 -67z" />
    <glyph glyph-name="Rcaron" unicode="&#x158;" horiz-adv-x="760" 
d="M772 94q-2 -9 -7.5 -22t-18 -34t-38.5 -35t-60 -14q-166 0 -184 91q-3 21 8 89q9 52 9.5 70t-9.5 48q-18 38 -68 38h-86l-46 -278h94l-8 -47q-34 3 -161 3t-163 -3l8 47h94l99 592h-94l7 47h333q124 0 187 -53t49 -133q-8 -54 -56 -98.5t-122 -62.5q82 -38 83 -120
q0 -5 -3 -74q-2 -24 -1 -45.5t3.5 -38t12.5 -26.5t27 -10q45 0 64 69q4 23 27 23q7 0 11 -0.5t7.5 -6t1.5 -16.5zM564 500q4 24 5.5 35.5t1 31.5t-7 30t-19 21t-35.5 16t-56 5h-82l-47 -278h80q33 0 58.5 5t42 16.5t27 22t17 29.5t9 31t6.5 35zM700 869l-199 -141l-151 141
l20 24l150 -58l170 58z" />
    <glyph glyph-name="rcaron" unicode="&#x159;" horiz-adv-x="428" 
d="M461 368q-4 -28 -25.5 -44.5t-45.5 -16.5t-39.5 16t-11.5 45q2 13 9 24.5t12 16.5l6 5q-32 0 -57 -18t-40 -48.5t-24 -59.5t-14 -62l-30 -179h87l-8 -47q-35 3 -137 3l-127 -3l8 47h69l51 309q5 28 -4.5 33.5t-57.5 5.5l8 47l167 8l-15 -91h1q45 91 125 91
q41 0 70.5 -21.5t22.5 -60.5zM506 690l-208 -185l-146 185l24 22l141 -99l175 99z" />
    <glyph glyph-name="Sacute" unicode="&#x15a;" horiz-adv-x="556" 
d="M533 203q-16 -93 -77.5 -153.5t-155.5 -60.5q-100 0 -158 51l-33 -28q-28 -23 -37 -23t-12 3.5t-3 8t2 16.5l30 182q3 19 7.5 24t21.5 5q15 0 18 -4t1 -19q-6 -49 9 -84.5t44 -53t57.5 -24.5t59.5 -7q55 0 83.5 35.5t37.5 81.5q12 84 -48 113q-13 5 -65 17q-52 14 -72 20
t-42 20.5t-37 37.5q-38 60 -25 136q15 87 76 143.5t152 56.5q83 0 135 -50l31 27q28 23 37 23q12 0 14.5 -7t-0.5 -21l-31 -183q-3 -18 -7.5 -23t-21.5 -5q-12 0 -16 3t-5 14q-1 12 0.5 33t-7 46.5t-21.5 47.5t-42.5 37t-71.5 15q-51 0 -80 -31.5t-36 -73.5
q-6 -35 7.5 -62.5t38.5 -37.5q6 -2 70 -19q39 -10 54.5 -15t37.5 -14.5t34.5 -23t24.5 -34.5q35 -59 21 -140zM556 841q-10 -27 -47 -43l-152 -60l-20 38l124 116q25 22 47 22q29 0 43.5 -22t4.5 -51z" />
    <glyph glyph-name="sacute" unicode="&#x15b;" horiz-adv-x="394" 
d="M383 139q-10 -63 -54.5 -104t-130.5 -41q-57 0 -92 28q-12 -6 -27 -16q-20 -12 -29 -12t-12 3.5t-3 8t2 16.5l18 109q3 19 7.5 24t21.5 5q13 0 16 -3t5 -14q5 -55 27 -84t72 -29q91 0 102 74q4 22 -2.5 37.5t-23.5 24t-28.5 12.5t-32.5 8q-81 16 -108 49q-32 38 -24 87
q12 72 64 101.5t118 29.5q51 0 80 -18q36 18 44 18q9 0 12 -3.5t3 -8t-2 -16.5l-13 -80q-3 -18 -7.5 -23t-21.5 -5q-14 0 -17.5 3.5t-2.5 15.5q8 85 -81 85t-99 -62q-2 -14 3 -25t11.5 -17.5t22.5 -12.5t24 -8t28 -6q26 -5 39.5 -8.5t31.5 -14t31 -25.5q38 -42 28 -103z
M433 644q-4 -28 -40 -49l-143 -84l-27 33l106 132q25 30 53 30q24 0 39.5 -19t11.5 -43z" />
    <glyph glyph-name="Scircumflex" unicode="&#x15c;" horiz-adv-x="556" 
d="M533 203q-16 -93 -77.5 -153.5t-155.5 -60.5q-100 0 -158 51l-33 -28q-28 -23 -37 -23t-12 3.5t-3 8t2 16.5l30 182q3 19 7.5 24t21.5 5q15 0 18 -4t1 -19q-6 -49 9 -84.5t44 -53t57.5 -24.5t59.5 -7q55 0 83.5 35.5t37.5 81.5q12 84 -48 113q-13 5 -65 17q-52 14 -72 20
t-42 20.5t-37 37.5q-38 60 -25 136q15 87 76 143.5t152 56.5q83 0 135 -50l31 27q28 23 37 23q12 0 14.5 -7t-0.5 -21l-31 -183q-3 -18 -7.5 -23t-21.5 -5q-12 0 -16 3t-5 14q-1 12 0.5 33t-7 46.5t-21.5 47.5t-42.5 37t-71.5 15q-51 0 -80 -31.5t-36 -73.5
q-6 -35 7.5 -62.5t38.5 -37.5q6 -2 70 -19q39 -10 54.5 -15t37.5 -14.5t34.5 -23t24.5 -34.5q35 -59 21 -140zM578 752l-20 -24l-150 58l-170 -58l-10 24l199 141z" />
    <glyph glyph-name="scircumflex" unicode="&#x15d;" horiz-adv-x="394" 
d="M383 139q-10 -63 -54.5 -104t-130.5 -41q-57 0 -92 28q-12 -6 -27 -16q-20 -12 -29 -12t-12 3.5t-3 8t2 16.5l18 109q3 19 7.5 24t21.5 5q13 0 16 -3t5 -14q5 -55 27 -84t72 -29q91 0 102 74q4 22 -2.5 37.5t-23.5 24t-28.5 12.5t-32.5 8q-81 16 -108 49q-32 38 -24 87
q12 72 64 101.5t118 29.5q51 0 80 -18q36 18 44 18q9 0 12 -3.5t3 -8t-2 -16.5l-13 -80q-3 -18 -7.5 -23t-21.5 -5q-14 0 -17.5 3.5t-2.5 15.5q8 85 -81 85t-99 -62q-2 -14 3 -25t11.5 -17.5t22.5 -12.5t24 -8t28 -6q26 -5 39.5 -8.5t31.5 -14t31 -25.5q38 -42 28 -103z
M462 527l-24 -22l-141 99l-175 -99l-14 22l208 185z" />
    <glyph glyph-name="Scedilla" unicode="&#x15e;" horiz-adv-x="556" 
d="M533 203q-15 -87 -70 -146t-139 -67l-4 -23q35 0 56.5 -24.5t16.5 -58.5q-4 -24 -21 -41t-36.5 -25t-55.5 -12.5t-58 -5t-63 -0.5h-48l8 48h24h27.5t25.5 1t25.5 3.5t20 6t16.5 10t7 15.5q2 16 -12.5 25.5t-36.5 9.5l13 78q-53 13 -87 43l-33 -28q-28 -23 -37 -23
t-12 3.5t-3 8t2 16.5l30 182q3 19 7.5 24t21.5 5q15 0 18 -4t1 -19q-6 -49 9 -84.5t44 -53t57.5 -24.5t59.5 -7q55 0 83.5 35.5t37.5 81.5q12 84 -48 113q-13 5 -65 17q-52 14 -72 20t-42 20.5t-37 37.5q-38 60 -25 136q15 87 76 143.5t152 56.5q83 0 135 -50l31 27
q28 23 37 23q12 0 14.5 -7t-0.5 -21l-31 -183q-3 -18 -7.5 -23t-21.5 -5q-12 0 -16 3t-5 14q-1 12 0.5 33t-7 46.5t-21.5 47.5t-42.5 37t-71.5 15q-51 0 -80 -31.5t-36 -73.5q-6 -35 7.5 -62.5t38.5 -37.5q6 -2 70 -19q39 -10 54.5 -15t37.5 -14.5t34.5 -23t24.5 -34.5
q35 -59 21 -140z" />
    <glyph glyph-name="scedilla" unicode="&#x15f;" horiz-adv-x="394" 
d="M383 139q-21 -121 -138 -141l-6 -31q35 0 56.5 -24.5t16.5 -58.5q-4 -24 -21 -41t-36.5 -25t-55 -12.5t-57.5 -5t-63 -0.5h-48l8 48h24q27 0 41.5 0.5t35 3.5t31.5 11t13 21q2 16 -12.5 25.5t-36.5 9.5l14 81q-24 7 -43 22q-12 -6 -27 -16q-20 -12 -29 -12t-12 3.5t-3 8
t2 16.5l18 109q3 19 7.5 24t21.5 5q13 0 16 -3t5 -14q5 -55 27 -84t72 -29q91 0 102 74q4 22 -2.5 37.5t-23.5 24t-28.5 12.5t-32.5 8q-81 16 -108 49q-32 38 -24 87q12 72 64 101.5t118 29.5q51 0 80 -18q36 18 44 18q9 0 12 -3.5t3 -8t-2 -16.5l-13 -80q-3 -18 -7.5 -23
t-21.5 -5q-14 0 -17.5 3.5t-2.5 15.5q8 85 -81 85t-99 -62q-2 -14 3 -25t11.5 -17.5t22.5 -12.5t24 -8t28 -6q26 -5 39.5 -8.5t31.5 -14t31 -25.5q38 -42 28 -103z" />
    <glyph glyph-name="Scaron" unicode="&#x160;" horiz-adv-x="556" 
d="M533 203q-16 -93 -77.5 -153.5t-155.5 -60.5q-100 0 -158 51l-33 -28q-28 -23 -37 -23t-12 3.5t-3 8t2 16.5l30 182q3 19 7.5 24t21.5 5q15 0 18 -4t1 -19q-6 -49 9 -84.5t44 -53t57.5 -24.5t59.5 -7q55 0 83.5 35.5t37.5 81.5q12 84 -48 113q-13 5 -65 17q-52 14 -72 20
t-42 20.5t-37 37.5q-38 60 -25 136q15 87 76 143.5t152 56.5q83 0 135 -50l31 27q28 23 37 23q12 0 14.5 -7t-0.5 -21l-31 -183q-3 -18 -7.5 -23t-21.5 -5q-12 0 -16 3t-5 14q-1 12 0.5 33t-7 46.5t-21.5 47.5t-42.5 37t-71.5 15q-51 0 -80 -31.5t-36 -73.5
q-6 -35 7.5 -62.5t38.5 -37.5q6 -2 70 -19q39 -10 54.5 -15t37.5 -14.5t34.5 -23t24.5 -34.5q35 -59 21 -140zM598 869l-199 -141l-151 141l20 24l150 -58l170 58z" />
    <glyph glyph-name="scaron" unicode="&#x161;" horiz-adv-x="394" 
d="M383 139q-10 -63 -54.5 -104t-130.5 -41q-57 0 -92 28q-12 -6 -27 -16q-20 -12 -29 -12t-12 3.5t-3 8t2 16.5l18 109q3 19 7.5 24t21.5 5q13 0 16 -3t5 -14q5 -55 27 -84t72 -29q91 0 102 74q4 22 -2.5 37.5t-23.5 24t-28.5 12.5t-32.5 8q-81 16 -108 49q-32 38 -24 87
q12 72 64 101.5t118 29.5q51 0 80 -18q36 18 44 18q9 0 12 -3.5t3 -8t-2 -16.5l-13 -80q-3 -18 -7.5 -23t-21.5 -5q-14 0 -17.5 3.5t-2.5 15.5q8 85 -81 85t-99 -62q-2 -14 3 -25t11.5 -17.5t22.5 -12.5t24 -8t28 -6q26 -5 39.5 -8.5t31.5 -14t31 -25.5q38 -42 28 -103z
M489 690l-208 -185l-146 185l24 22l141 -99l175 99z" />
    <glyph glyph-name="Tcedilla" unicode="&#x162;" horiz-adv-x="694" 
d="M729 434h-47q4 57 4 100t-27.5 68.5t-87.5 25.5h-48l-97 -581h134l-8 -47q-54 3 -157 3l-6 -36q35 0 56.5 -24.5t16.5 -58.5q-4 -24 -21 -41t-36.5 -25t-55 -12.5t-57.5 -5t-63 -0.5h-48l8 48h24q27 0 41.5 0.5t35 3.5t31.5 11t13 21q2 16 -12.5 25.5t-36.5 9.5l14 84
q-103 0 -157 -3l8 47h134l97 581h-49q-27 0 -49 -5.5t-37 -13t-28.5 -24t-21 -28.5t-16.5 -37t-13 -40t-12 -46h-47l62 241h579z" />
    <glyph glyph-name="tcedilla" unicode="&#x163;" horiz-adv-x="390" 
d="M317 -116q-4 -24 -21 -41t-36.5 -25t-55 -12.5t-57.5 -5t-63 -0.5h-48l8 48h24q27 0 41.5 0.5t35 3.5t31.5 11t13 21q3 16 -11.5 25.5t-36.5 9.5l14 86h3q-71 27 -55 118l45 274h-63l6 36q69 3 109.5 63.5t54.5 138.5h47l-32 -191h121l-8 -47h-121l-46 -279
q-13 -84 31 -84q21 0 37 24t23 65l9 54h47l-10 -55q-8 -45 -34 -81.5t-69 -44.5l-5 -29q35 0 56.5 -24.5t15.5 -58.5z" />
    <glyph glyph-name="Tcaron" unicode="&#x164;" horiz-adv-x="694" 
d="M729 434h-47q4 57 4 100t-27.5 68.5t-87.5 25.5h-48l-97 -581h134l-8 -47q-47 3 -204 3t-206 -3l8 47h134l97 581h-49q-27 0 -49 -5.5t-37 -13t-28.5 -24t-21 -28.5t-16.5 -37t-13 -40t-12 -46h-47l62 241h579zM668 869l-199 -141l-151 141l20 24l150 -58l170 58z" />
    <glyph glyph-name="tcaron" unicode="&#x165;" horiz-adv-x="390" 
d="M353 122q-9 -51 -41 -89.5t-85 -38.5q-145 0 -124 129l45 274h-63l6 36q69 3 109.5 63.5t54.5 138.5h47l-32 -191h121l-8 -47h-121l-46 -279q-13 -84 31 -84q21 0 37 24t23 65l9 54h47zM467 649q-8 -46 -34.5 -87.5t-49 -61t-30.5 -19.5q-5 0 -8.5 5t-2.5 10q0 5 11 12
q67 52 85 132q-16 -14 -42 -14q-27 0 -40 17.5t-9 41.5q5 24 24 41t44 17q32 0 45.5 -27t6.5 -67z" />
    <glyph glyph-name="Utilde" unicode="&#x168;" horiz-adv-x="769" 
d="M841 639h-20q-28 0 -51 -3q-18 -2 -22 -5.5t-6 -20.5l-64 -383q-17 -103 -91 -170.5t-185 -67.5q-127 0 -190 67.5t-46 172.5l69 410h-94l7 47q35 -3 165 -3t165 3l-7 -47h-94l-72 -429q-2 -16 -3.5 -24.5t-2 -29t2 -34t9.5 -31.5t19.5 -28.5t34 -18.5t49.5 -8
q73 0 133.5 45.5t77.5 148.5l64 380q3 10 1.5 15.5t-5.5 7t-17 3.5q-21 3 -48 3h-20l7 47l121 -3l120 3zM710 812l-50 -53q-3 -4 -10 -10t-23.5 -13.5t-34.5 -7.5q-19 0 -63 14q-48 17 -70 17q-38 0 -68 -31l-24 22l50 53q3 4 10 10t23.5 13.5t34.5 7.5t62 -14
q49 -17 71 -17q38 0 68 31z" />
    <glyph glyph-name="utilde" unicode="&#x169;" horiz-adv-x="556" 
d="M553 0l-178 -6l11 68h-1q-49 -68 -129 -68q-79 0 -116.5 28.5t-26.5 99.5l39 234q5 28 -4.5 33.5t-57.5 5.5l8 47l184 8l-57 -345q-10 -40 -1.5 -57.5t52.5 -17.5q46 0 79 38t42 95l32 193q5 28 -4.5 33.5t-57.5 5.5l8 47l184 8l-61 -364q-4 -28 5.5 -33.5t57.5 -5.5z
M552 640l-50 -53q-31 -31 -68 -31q-19 0 -63 14q-48 17 -70 17q-39 0 -68 -31l-25 22l50 53q31 31 68 31q19 0 63 -14q48 -17 70 -17q39 0 68 31z" />
    <glyph glyph-name="Umacron" unicode="&#x16a;" horiz-adv-x="769" 
d="M841 639h-20q-28 0 -51 -3q-18 -2 -22 -5.5t-6 -20.5l-64 -383q-17 -103 -91 -170.5t-185 -67.5q-127 0 -190 67.5t-46 172.5l69 410h-94l7 47q35 -3 165 -3t165 3l-7 -47h-94l-72 -429q-2 -16 -3.5 -24.5t-2 -29t2 -34t9.5 -31.5t19.5 -28.5t34 -18.5t49.5 -8
q73 0 133.5 45.5t77.5 148.5l64 380q3 10 1.5 15.5t-5.5 7t-17 3.5q-21 3 -48 3h-20l7 47l121 -3l120 3zM713 748h-361l9 52h361z" />
    <glyph glyph-name="umacron" unicode="&#x16b;" horiz-adv-x="556" 
d="M553 0l-178 -6l11 68h-1q-49 -68 -129 -68q-79 0 -116.5 28.5t-26.5 99.5l39 234q5 28 -4.5 33.5t-57.5 5.5l8 47l184 8l-57 -345q-10 -40 -1.5 -57.5t52.5 -17.5q46 0 79 38t42 95l32 193q5 28 -4.5 33.5t-57.5 5.5l8 47l184 8l-61 -364q-4 -28 5.5 -33.5t57.5 -5.5z
M556 583h-361l9 52h361z" />
    <glyph glyph-name="Ubreve" unicode="&#x16c;" horiz-adv-x="769" 
d="M841 639h-20q-28 0 -51 -3q-18 -2 -22 -5.5t-6 -20.5l-64 -383q-17 -103 -91 -170.5t-185 -67.5q-127 0 -190 67.5t-46 172.5l69 410h-94l7 47q35 -3 165 -3t165 3l-7 -47h-94l-72 -429q-2 -16 -3.5 -24.5t-2 -29t2 -34t9.5 -31.5t19.5 -28.5t34 -18.5t49.5 -8
q73 0 133.5 45.5t77.5 148.5l64 380q3 10 1.5 15.5t-5.5 7t-17 3.5q-21 3 -48 3h-20l7 47l121 -3l120 3zM719 925q-17 -85 -71 -136t-116 -51q-64 0 -101 51.5t-25 135.5h36q-8 -57 22 -91t78 -34q46 0 88 33.5t53 91.5h36z" />
    <glyph glyph-name="ubreve" unicode="&#x16d;" horiz-adv-x="556" 
d="M553 0l-178 -6l11 68h-1q-49 -68 -129 -68q-79 0 -116.5 28.5t-26.5 99.5l39 234q5 28 -4.5 33.5t-57.5 5.5l8 47l184 8l-57 -345q-10 -40 -1.5 -57.5t52.5 -17.5q46 0 79 38t42 95l32 193q5 28 -4.5 33.5t-57.5 5.5l8 47l184 8l-61 -364q-4 -28 5.5 -33.5t57.5 -5.5z
M552 702q-17 -85 -71 -136t-116 -51q-64 0 -101 51.5t-25 135.5h36q-8 -57 22 -91t78 -34q46 0 88 33.5t53 91.5h36z" />
    <glyph glyph-name="Uring" unicode="&#x16e;" horiz-adv-x="769" 
d="M841 639h-20q-28 0 -51 -3q-18 -2 -22 -5.5t-6 -20.5l-64 -383q-17 -103 -91 -170.5t-185 -67.5q-127 0 -190 67.5t-46 172.5l69 410h-94l7 47q35 -3 165 -3t165 3l-7 -47h-94l-72 -429q-2 -16 -3.5 -24.5t-2 -29t2 -34t9.5 -31.5t19.5 -28.5t34 -18.5t49.5 -8
q73 0 133.5 45.5t77.5 148.5l64 380q3 10 1.5 15.5t-5.5 7t-17 3.5q-21 3 -48 3h-20l7 47l121 -3l120 3zM592 782q4 26 -6 34.5t-40 8.5q-31 0 -43.5 -9t-16.5 -34q-4 -26 6 -34.5t40 -8.5q31 0 43.5 9t16.5 34zM646 783q-6 -36 -37.5 -60.5t-84.5 -24.5q-51 0 -74.5 24
t-17.5 61q6 33 37 58t85 25q52 0 75 -24.5t17 -58.5z" />
    <glyph glyph-name="uring" unicode="&#x16f;" horiz-adv-x="556" 
d="M553 0l-178 -6l11 68h-1q-49 -68 -129 -68q-79 0 -116.5 28.5t-26.5 99.5l39 234q5 28 -4.5 33.5t-57.5 5.5l8 47l184 8l-57 -345q-10 -40 -1.5 -57.5t52.5 -17.5q46 0 79 38t42 95l32 193q5 28 -4.5 33.5t-57.5 5.5l8 47l184 8l-61 -364q-4 -28 5.5 -33.5t57.5 -5.5z
M432 605q4 26 -6 34.5t-40 8.5q-31 0 -43.5 -9t-16.5 -34q-4 -26 6 -34.5t40 -8.5q31 0 43.5 9t16.5 34zM486 606q-6 -36 -37.5 -60.5t-84.5 -24.5q-51 0 -74.5 24t-17.5 61q5 33 36 58t86 25q52 0 75 -24.5t17 -58.5z" />
    <glyph glyph-name="Uhungarumlaut" unicode="&#x170;" horiz-adv-x="769" 
d="M841 639h-20q-28 0 -51 -3q-18 -2 -22 -5.5t-6 -20.5l-64 -383q-17 -103 -91 -170.5t-185 -67.5q-127 0 -190 67.5t-46 172.5l69 410h-94l7 47q35 -3 165 -3t165 3l-7 -47h-94l-72 -429q-2 -16 -3.5 -24.5t-2 -29t2 -34t9.5 -31.5t19.5 -28.5t34 -18.5t49.5 -8
q73 0 133.5 45.5t77.5 148.5l64 380q3 10 1.5 15.5t-5.5 7t-17 3.5q-21 3 -48 3h-20l7 47l121 -3l120 3zM564 874q-2 -19 -28 -45l-95 -91l-39 21l42 120q20 54 63 54q25 0 43 -18t14 -41zM731 874q-2 -19 -28 -45l-95 -91l-39 21l42 120q20 54 63 54q25 0 43 -18t14 -41z
" />
    <glyph glyph-name="uhungarumlaut" unicode="&#x171;" horiz-adv-x="556" 
d="M553 0l-178 -6l11 68h-1q-49 -68 -129 -68q-79 0 -116.5 28.5t-26.5 99.5l39 234q5 28 -4.5 33.5t-57.5 5.5l8 47l184 8l-57 -345q-10 -40 -1.5 -57.5t52.5 -17.5q46 0 79 38t42 95l32 193q5 28 -4.5 33.5t-57.5 5.5l8 47l184 8l-61 -364q-4 -28 5.5 -33.5t57.5 -5.5z
M397 647q-4 -22 -29 -45l-95 -91l-38 21l42 120q20 54 63 54q25 0 43 -17.5t14 -41.5zM564 647q-4 -22 -29 -45l-95 -91l-38 21l42 120q20 54 63 54q25 0 43 -17.5t14 -41.5z" />
    <glyph glyph-name="Uogonek" unicode="&#x172;" horiz-adv-x="769" 
d="M841 639h-20q-28 0 -51 -3q-18 -2 -22 -5.5t-6 -20.5l-64 -383q-15 -90 -74.5 -154.5t-150.5 -79.5q-28 -18 -44 -43q-22 -32 -11.5 -60t45.5 -28q7 0 12 1t9.5 3.5t7 4t7 5.5t5.5 5q16 10 29 -3q4 -5 4 -14t-5 -14q-59 -54 -116 -54q-50 0 -73 27t-17 63q8 51 72 104
q-115 7 -171.5 73t-40.5 166l69 410h-94l7 47q35 -3 165 -3t165 3l-7 -47h-94l-72 -429q-2 -16 -3.5 -24.5t-2 -29t2 -34t9.5 -31.5t19.5 -28.5t34 -18.5t49.5 -8q73 0 133.5 45.5t77.5 148.5l64 380q3 10 1.5 15.5t-5.5 7t-17 3.5q-21 3 -48 3h-20l7 47l121 -3l120 3z" />
    <glyph glyph-name="uogonek" unicode="&#x173;" horiz-adv-x="556" 
d="M545 -150q-59 -54 -116 -54q-50 0 -73 27t-17 63q4 25 26.5 55.5t51.5 53.5l-42 -1l11 68h-1q-49 -68 -129 -68q-79 0 -116.5 28.5t-26.5 99.5l39 234q5 28 -4.5 33.5t-57.5 5.5l8 47l184 8l-57 -345q-10 -40 -1.5 -57.5t52.5 -17.5q46 0 79 38t42 95l32 193
q5 28 -4.5 33.5t-57.5 5.5l8 47l184 8l-61 -364q-4 -28 5.5 -33.5t57.5 -5.5l-8 -47l-59 -2q-32 -17 -52 -48q-22 -32 -12 -60t46 -28q7 0 12 1t9.5 3.5t7 4t7 5.5t5.5 5q16 10 29 -3q4 -5 4 -14t-5 -14z" />
    <glyph glyph-name="Wcircumflex" unicode="&#x174;" horiz-adv-x="1033" 
d="M1118 639q-52 0 -66 -4.5t-21 -18.5l-302 -599q-7 -13 -14.5 -19t-22.5 -6q-17 0 -22 5.5t-8 20.5l-72 423l-214 -424q-13 -25 -38 -25q-16 0 -21.5 6t-7.5 19l-106 622h-75l7 47q39 -3 142 -3q125 0 161 3l-7 -47h-84l74 -434l156 310l-21 124h-75l7 47q39 -3 142 -3
q125 0 161 3l-7 -47h-84l74 -434l213 423q-26 11 -87 11l7 47q41 -3 122 -3q47 0 96 3zM817 752l-20 -24l-150 58l-170 -58l-10 24l199 141z" />
    <glyph glyph-name="wcircumflex" unicode="&#x175;" horiz-adv-x="722" 
d="M766 397q-28 0 -42 -3t-18 -6.5t-10 -13.5l-181 -352q-14 -26 -39 -26q-14 0 -20.5 4.5t-9.5 21.5l-43 234l-121 -235q-7 -14 -14.5 -19.5t-24.5 -5.5q-11 0 -17.5 3.5t-8 8.5t-3.5 15l-69 374h-58l8 47l106 -3l109 3l-8 -47h-42l44 -237l80 155l6 12l-13 70h-46l8 47
q45 -3 90 -3l112 3l-8 -47h-59l49 -262l123 237l7 15q-21 10 -60 10l8 47l96 -3q41 0 77 3zM626 527l-24 -22l-141 99l-175 -99l-14 22l208 185z" />
    <glyph glyph-name="Ycircumflex" unicode="&#x176;" horiz-adv-x="756" 
d="M846 639q-59 0 -75.5 -4.5t-25.5 -16.5l-254 -344l-38 -227h95l-8 -47q-34 3 -162 3q-127 0 -163 -3l8 47h94l38 227l-147 365h-85l7 47q36 -3 150 -3q131 0 167 3l-7 -47h-75l118 -293l209 283q-22 10 -67 10l7 47l119 -3l102 3zM678 752l-20 -24l-150 58l-170 -58
l-10 24l199 141z" />
    <glyph glyph-name="ycircumflex" unicode="&#x177;" horiz-adv-x="528" 
d="M571 397q-44 0 -55.5 -4.5t-20.5 -19.5l-253 -457q-24 -44 -68 -80t-95 -36q-40 0 -62 28t-16 64q4 27 24 42.5t43 15.5q25 0 39 -16t9 -41q-7 -40 -46 -55q8 -2 16 -2q48 0 90 56q13 18 62 108l-88 397h-62l8 47l112 -3l123 3l-8 -47h-56l55 -247l122 222l7 13
q1 5 -11.5 8t-25.5 3l-13 1l8 47q39 -3 91 -3q42 0 79 3zM529 527l-24 -22l-141 99l-175 -99l-14 22l208 185z" />
    <glyph glyph-name="Ydieresis" unicode="&#x178;" horiz-adv-x="756" 
d="M846 639q-59 0 -75.5 -4.5t-25.5 -16.5l-254 -344l-38 -227h95l-8 -47q-34 3 -162 3q-127 0 -163 -3l8 47h94l38 227l-147 365h-85l7 47q36 -3 150 -3q131 0 167 3l-7 -47h-75l118 -293l209 283q-22 10 -67 10l7 47l119 -3l102 3zM429 798q-5 -28 -28.5 -49t-54.5 -21
q-29 0 -46 20.5t-12 49.5q5 28 28 49t54 21q29 0 46.5 -20.5t12.5 -49.5zM735 798q-5 -28 -28.5 -49t-54.5 -21q-29 0 -46 20.5t-12 49.5q5 28 28 49t54 21q29 0 46.5 -20.5t12.5 -49.5z" />
    <glyph glyph-name="Zacute" unicode="&#x179;" horiz-adv-x="611" 
d="M607 284l-65 -284h-454q-13 0 -18.5 1t-8.5 6.5t-1 18.5q3 14 12 26l432 587h-94q-49 0 -87.5 -14.5t-60 -33.5t-38 -50t-22.5 -49.5t-12 -46.5h-47l52 241h441q13 0 18 -1t8.5 -6.5t1.5 -17.5t-11 -24l-430 -586h100q39 0 71 8.5t53.5 20t40 32.5t28.5 37.5t20 45
t14 44.5t10 45h47zM584 841q-10 -27 -47 -43l-152 -60l-20 38l124 116q25 22 47 22q29 0 43.5 -22t4.5 -51z" />
    <glyph glyph-name="zacute" unicode="&#x17a;" horiz-adv-x="444" 
d="M435 202l-52 -202h-323q-9 0 -13 0.5t-9 2.5t-6 6.5t0 12.5q1 10 11 22l294 364h-53q-75 0 -103.5 -31t-46.5 -108h-47l41 175h313q12 0 17 -0.5t9 -5.5t3 -15q-1 -8 -12 -21l-292 -362h55q45 0 74 10.5t47 36t26.5 48.5t19.5 67h47zM458 644q-4 -28 -40 -49l-143 -84
l-27 33l106 132q25 30 53 30q24 0 39.5 -19t11.5 -43z" />
    <glyph glyph-name="Zdotaccent" unicode="&#x17b;" horiz-adv-x="611" 
d="M607 284l-65 -284h-454q-13 0 -18.5 1t-8.5 6.5t-1 18.5q3 14 12 26l432 587h-94q-49 0 -87.5 -14.5t-60 -33.5t-38 -50t-22.5 -49.5t-12 -46.5h-47l52 241h441q13 0 18 -1t8.5 -6.5t1.5 -17.5t-11 -24l-430 -586h100q39 0 71 8.5t53.5 20t40 32.5t28.5 37.5t20 45
t14 44.5t10 45h47zM520 817q-5 -31 -31.5 -54.5t-60.5 -23.5q-32 0 -51 23t-14 55q5 31 31.5 54.5t60.5 23.5q32 0 51 -23t14 -55z" />
    <glyph glyph-name="zdotaccent" unicode="&#x17c;" horiz-adv-x="444" 
d="M435 202l-52 -202h-323q-9 0 -13 0.5t-9 2.5t-6 6.5t0 12.5q1 10 11 22l294 364h-53q-75 0 -103.5 -31t-46.5 -108h-47l41 175h313q12 0 17 -0.5t9 -5.5t3 -15q-1 -8 -12 -21l-292 -362h55q45 0 74 10.5t47 36t26.5 48.5t19.5 67h47zM402 609q-5 -31 -31.5 -54.5
t-60.5 -23.5q-32 0 -51 23t-14 55q5 31 31.5 54.5t60.5 23.5q32 0 51 -23t14 -55z" />
    <glyph glyph-name="Zcaron" unicode="&#x17d;" horiz-adv-x="611" 
d="M607 284l-65 -284h-454q-13 0 -18.5 1t-8.5 6.5t-1 18.5q3 14 12 26l432 587h-94q-49 0 -87.5 -14.5t-60 -33.5t-38 -50t-22.5 -49.5t-12 -46.5h-47l52 241h441q13 0 18 -1t8.5 -6.5t1.5 -17.5t-11 -24l-430 -586h100q39 0 71 8.5t53.5 20t40 32.5t28.5 37.5t20 45
t14 44.5t10 45h47zM626 869l-199 -141l-151 141l20 24l150 -58l170 58z" />
    <glyph glyph-name="zcaron" unicode="&#x17e;" horiz-adv-x="444" 
d="M435 202l-52 -202h-323q-9 0 -13 0.5t-9 2.5t-6 6.5t0 12.5q1 10 11 22l294 364h-53q-75 0 -103.5 -31t-46.5 -108h-47l41 175h313q12 0 17 -0.5t9 -5.5t3 -15q-1 -8 -12 -21l-292 -362h55q45 0 74 10.5t47 36t26.5 48.5t19.5 67h47zM514 690l-208 -185l-146 185l24 22
l141 -99l175 99z" />
    <glyph glyph-name="longs" unicode="&#x17f;" horiz-adv-x="306" 
d="M500 613q-5 -29 -26.5 -45.5t-45.5 -16.5q-23 0 -39.5 16t-11.5 46q7 36 33 50l-11 1q-7 0 -13.5 -1t-21.5 -7t-27 -17.5t-24 -35.5t-18 -57l-83 -499h87l-8 -47q-35 3 -137 3l-127 -3l8 47h69l58 350h-58l8 47h58l17 101q9 54 45.5 90.5t81 50.5t94.5 14q51 0 74.5 -26
t17.5 -61z" />
    <glyph glyph-name="Ereversed" unicode="&#x18e;" horiz-adv-x="656" 
d="M627 0h-547v274h47q0 -40 1 -63t5.5 -53t15.5 -47t29 -33.5t47.5 -23.5t70.5 -7h103l47 282h-22q-62 0 -83 -26.5t-32 -90.5h-47l47 281h47q-6 -37 -6 -63t19 -40t63 -14h22l43 257h-99q-45 0 -79 -10.5t-54 -24.5t-37 -43.5t-25 -51.5t-21 -64h-47l71 241h534l-7 -47
h-94l-98 -586h94z" />
    <glyph glyph-name="florin" unicode="&#x192;" horiz-adv-x="306" 
d="M500 613q-5 -29 -26.5 -45.5t-45.5 -16.5q-23 0 -39.5 16t-11.5 46q7 35 33 50q-4 1 -11 1t-14 -1t-23 -7t-29 -17.5t-25.5 -35.5t-18.5 -57l-17 -102h99l-8 -47h-93l-58 -350h87l-8 -47q-35 3 -137 3l-127 -3l8 47h69l58 350h-58l8 47h58l17 101q9 54 45.5 90.5t81 50.5
t94.5 14q51 0 74.5 -26t17.5 -61z" />
    <glyph glyph-name="Ohorn" unicode="&#x1a0;" horiz-adv-x="750" 
d="M749 339q-28 -160 -129 -255q-104 -95 -248 -95q-145 0 -216 95q-71 98 -44 255q26 163 130 260q102 98 248 98q103 0 171 -53q36 12 60 42h-5q-32 0 -46 19.5t-9 47.5q4 27 25 46.5t53 19.5q28 0 42.5 -24t9.5 -57q-7 -42 -33.5 -77t-62.5 -48q1 -1 11 -14
q69 -96 43 -260zM600 357q8 48 11 77.5t0.5 70t-14.5 71.5q-14 37 -43.5 59t-69.5 22t-77.5 -22t-64.5 -59q-32 -44 -47.5 -96t-26.5 -123q-9 -52 -13 -84t-2.5 -76.5t13.5 -78.5q13 -39 43 -63t70 -24t78 24t64 63q23 34 39.5 78.5t23.5 75.5t16 85z" />
    <glyph glyph-name="ohorn" unicode="&#x1a1;" 
d="M591 496q-8 -44 -36.5 -80t-66.5 -47q33 -62 18 -151q-17 -101 -87 -163q-71 -61 -171 -61t-151 61q-50 61 -33 163q19 108 89 171q71 64 172 64q87 0 137 -50q35 11 59 41h-6q-31 0 -45 20t-10 47q5 27 25.5 47t51.5 20q29 0 44 -24.5t10 -57.5zM381 231q17 114 10 138
q-7 22 -27 35t-45 13q-56 0 -88 -48q-21 -31 -37 -138q-21 -115 -11 -147q7 -22 26.5 -35.5t45.5 -13.5q55 0 88 49q16 26 38 147z" />
    <glyph glyph-name="Uhorn" unicode="&#x1af;" horiz-adv-x="769" 
d="M902 736q-10 -55 -56.5 -94.5t-106.5 -47.5l-61 -365q-18 -108 -93 -174q-73 -66 -181 -66q-126 0 -190 65q-67 67 -49 175l69 410h-94l7 47l165 -3l165 3l-7 -47h-94l-69 -410q-17 -105 5 -144q29 -49 100 -49q85 0 142 51q57 52 71 142l66 397q1 4 -4.5 6t-17.5 4
q-22 3 -69 3l7 47l120 -3q13 0 27 3l-7 -44q53 10 83 44h-4q-31 0 -45 19.5t-9 47.5q4 27 25 46.5t52 19.5q30 0 44 -24.5t9 -58.5z" />
    <glyph glyph-name="uhorn" unicode="&#x1b0;" horiz-adv-x="611" 
d="M704 494q-9 -52 -53.5 -88t-107.5 -49l-47 -282q-4 -19 8 -23q10 -5 56 -5l-8 -47l-178 -6l12 70q-50 -70 -119 -70q-91 0 -127 28q-39 30 -27 96l41 249q4 17 -8 23q-11 4 -57 4l8 48l184 8l-55 -332q-11 -60 -4 -70q11 -17 57 -17q41 0 74.5 36.5t41.5 88.5l35 211
q4 17 -7 23q-11 4 -57 4l8 48l184 8l-8 -46q51 11 81 40h-1q-32 0 -46 20t-10 47q5 27 25.5 47t52.5 20q29 0 43.5 -25t8.5 -59z" />
    <glyph glyph-name="Acaron" unicode="&#x1cd;" horiz-adv-x="756" 
d="M720 0q-35 3 -149 3q-127 0 -164 -3l8 47h83l-25 135h-219l-57 -111l-6 -12q0 -3 4.5 -5t13 -3.5t16.5 -2t18.5 -1t15 -0.5h8.5l-8 -47l-117 3l-107 -3l8 47q38 0 58 2q21 2 27 5.5t12 15.5l312 602q9 18 17.5 22t24.5 4q11 0 16 -1t10 -7t7 -18l116 -625h85zM464 229
l-49 264l-137 -264h186zM698 869l-199 -141l-151 141l20 24l150 -58l170 58z" />
    <glyph glyph-name="acaron" unicode="&#x1ce;" horiz-adv-x="486" 
d="M484 24q-3 -16 -10.5 -20t-25.5 -4h-42q-26 0 -43.5 6t-25 13.5t-10 20t-2 18.5t1.5 16q-50 -80 -136 -80q-65 0 -112.5 29t-37.5 86q13 74 98.5 114t202.5 42l6 36q9 53 -7 84.5t-59 31.5q-28 0 -60 -6q2 -2 5.5 -6t7.5 -17t1 -27q-5 -30 -26.5 -46.5t-46.5 -16.5
q-23 0 -40 16.5t-12 46.5q4 25 22 44t38 27.5t47.5 13.5t42 6t30.5 1q92 0 137.5 -41t33.5 -112l-36 -216q-1 -11 -1 -18.5t10 -12.5t32 -6q10 -1 14.5 -5t2.5 -18zM321 138l16 95q-14 -1 -27.5 -3t-40.5 -10t-47.5 -20t-39.5 -36t-24 -55t8.5 -55t42.5 -24q31 0 67 25.5
t45 82.5zM535 690l-208 -185l-146 185l24 22l141 -99l175 99z" />
    <glyph glyph-name="Icaron" unicode="&#x1cf;" horiz-adv-x="397" 
d="M368 0q-35 3 -169 3t-171 -3l8 47h99l99 592h-99l7 47q36 -3 170 -3t170 3l-7 -47h-99l-99 -592h99zM519 869l-199 -141l-151 141l20 24l150 -58l170 58z" />
    <glyph glyph-name="icaron" unicode="&#x1d0;" horiz-adv-x="278" 
d="M265 0l-116 3l-123 -3l8 47h69l51 309q5 28 -4 33.5t-55 5.5l8 47l175 8l-67 -403h62zM431 690l-208 -185l-146 185l24 22l141 -99l175 99z" />
    <glyph glyph-name="Ocaron" unicode="&#x1d1;" horiz-adv-x="750" 
d="M750 339q-28 -164 -132.5 -257t-245.5 -93q-137 0 -212 92t-47 258q28 168 133 263t245 95q137 0 212 -93.5t47 -264.5zM599 353q11 69 13.5 103.5t-7.5 96.5q-12 50 -44.5 77t-76.5 27q-40 0 -81.5 -24t-72.5 -76q-38 -63 -62 -204q-8 -50 -11.5 -77.5t-3 -70t9.5 -75.5
q12 -45 42.5 -72t74.5 -27q42 0 83.5 28t68.5 75q44 76 67 219zM695 869l-199 -141l-151 141l20 24l150 -58l170 58z" />
    <glyph glyph-name="ocaron" unicode="&#x1d2;" 
d="M508 219q-18 -104 -89 -164.5t-171 -60.5q-98 0 -149.5 60t-33.5 165q18 107 90 170.5t170 63.5q100 0 150 -64t33 -170zM381 229q16 93 12 127q-2 25 -22.5 43t-51.5 18q-29 0 -56 -16.5t-39 -44.5q-14 -31 -30 -127q-16 -94 -13 -129q2 -31 23.5 -48.5t51.5 -17.5
q28 0 54.5 17t38.5 45q15 31 32 133zM542 690l-208 -185l-146 185l24 22l141 -99l175 99z" />
    <glyph glyph-name="Ucaron" unicode="&#x1d3;" horiz-adv-x="769" 
d="M841 639h-20q-28 0 -51 -3q-18 -2 -22 -5.5t-6 -20.5l-64 -383q-17 -103 -91 -170.5t-185 -67.5q-127 0 -190 67.5t-46 172.5l69 410h-94l7 47q35 -3 165 -3t165 3l-7 -47h-94l-72 -429q-2 -16 -3.5 -24.5t-2 -29t2 -34t9.5 -31.5t19.5 -28.5t34 -18.5t49.5 -8
q73 0 133.5 45.5t77.5 148.5l64 380q3 10 1.5 15.5t-5.5 7t-17 3.5q-21 3 -48 3h-20l7 47l121 -3l120 3zM728 869l-199 -141l-151 141l20 24l150 -58l170 58z" />
    <glyph glyph-name="ucaron" unicode="&#x1d4;" horiz-adv-x="556" 
d="M553 0l-178 -6l11 68h-1q-49 -68 -129 -68q-79 0 -116.5 28.5t-26.5 99.5l39 234q5 28 -4.5 33.5t-57.5 5.5l8 47l184 8l-57 -345q-10 -40 -1.5 -57.5t52.5 -17.5q46 0 79 38t42 95l32 193q5 28 -4.5 33.5t-57.5 5.5l8 47l184 8l-61 -364q-4 -28 5.5 -33.5t57.5 -5.5z
M570 690l-208 -185l-146 185l24 22l141 -99l175 99z" />
    <glyph glyph-name="Udieresisacute" unicode="&#x1d7;" horiz-adv-x="769" 
d="M841 639h-20q-28 0 -51 -3q-18 -2 -22 -5.5t-6 -20.5l-64 -383q-17 -103 -91 -170.5t-185 -67.5q-127 0 -190 67.5t-46 172.5l69 410h-94l7 47q35 -3 165 -3t165 3l-7 -47h-94l-72 -429q-2 -16 -3.5 -24.5t-2 -29t2 -34t9.5 -31.5t19.5 -28.5t34 -18.5t49.5 -8
q73 0 133.5 45.5t77.5 148.5l64 380q3 10 1.5 15.5t-5.5 7t-17 3.5q-21 3 -48 3h-20l7 47l121 -3l120 3zM459 798q-5 -28 -28.5 -49t-54.5 -21q-29 0 -46 20.5t-12 49.5q5 28 28 49t54 21q29 0 46.5 -20.5t12.5 -49.5zM765 798q-5 -28 -28.5 -49t-54.5 -21q-29 0 -46 20.5
t-12 49.5q5 28 28 49t54 21q29 0 46.5 -20.5t12.5 -49.5zM716 1023q-10 -27 -47 -43l-152 -60l-20 38l124 116q25 22 47 22q29 0 43.5 -22t4.5 -51z" />
    <glyph glyph-name="udieresisacute" unicode="&#x1d8;" horiz-adv-x="556" 
d="M553 0l-178 -6l11 68h-1q-49 -68 -129 -68q-79 0 -116.5 28.5t-26.5 99.5l39 234q5 28 -4.5 33.5t-57.5 5.5l8 47l184 8l-57 -345q-10 -40 -1.5 -57.5t52.5 -17.5q46 0 79 38t42 95l32 193q5 28 -4.5 33.5t-57.5 5.5l8 47l184 8l-61 -364q-4 -28 5.5 -33.5t57.5 -5.5z
M322 609q-5 -28 -28.5 -49t-54.5 -21q-29 0 -46 20.5t-12 49.5q5 28 28 49t54 21q29 0 46.5 -20.5t12.5 -49.5zM580 609q-5 -28 -28.5 -49t-54.5 -21q-29 0 -46 20.5t-12 49.5q5 28 28 49t54 21q29 0 46.5 -20.5t12.5 -49.5zM555 834q-10 -27 -47 -43l-152 -60l-20 38
l124 116q25 22 47 22q29 0 43.5 -22t4.5 -51z" />
    <glyph glyph-name="Udieresiscaron" unicode="&#x1d9;" horiz-adv-x="769" 
d="M841 639h-20q-28 0 -51 -3q-18 -2 -22 -5.5t-6 -20.5l-64 -383q-17 -103 -91 -170.5t-185 -67.5q-127 0 -190 67.5t-46 172.5l69 410h-94l7 47q35 -3 165 -3t165 3l-7 -47h-94l-72 -429q-2 -16 -3.5 -24.5t-2 -29t2 -34t9.5 -31.5t19.5 -28.5t34 -18.5t49.5 -8
q73 0 133.5 45.5t77.5 148.5l64 380q3 10 1.5 15.5t-5.5 7t-17 3.5q-21 3 -48 3h-20l7 47l121 -3l120 3zM459 798q-5 -28 -28.5 -49t-54.5 -21q-29 0 -46 20.5t-12 49.5q5 28 28 49t54 21q29 0 46.5 -20.5t12.5 -49.5zM765 798q-5 -28 -28.5 -49t-54.5 -21q-29 0 -46 20.5
t-12 49.5q5 28 28 49t54 21q29 0 46.5 -20.5t12.5 -49.5zM758 1051l-199 -141l-151 141l20 24l150 -58l170 58z" />
    <glyph glyph-name="udieresiscaron" unicode="&#x1da;" horiz-adv-x="556" 
d="M553 0l-178 -6l11 68h-1q-49 -68 -129 -68q-79 0 -116.5 28.5t-26.5 99.5l39 234q5 28 -4.5 33.5t-57.5 5.5l8 47l184 8l-57 -345q-10 -40 -1.5 -57.5t52.5 -17.5q46 0 79 38t42 95l32 193q5 28 -4.5 33.5t-57.5 5.5l8 47l184 8l-61 -364q-4 -28 5.5 -33.5t57.5 -5.5z
M322 609q-5 -28 -28.5 -49t-54.5 -21q-29 0 -46 20.5t-12 49.5q5 28 28 49t54 21q29 0 46.5 -20.5t12.5 -49.5zM580 609q-5 -28 -28.5 -49t-54.5 -21q-29 0 -46 20.5t-12 49.5q5 28 28 49t54 21q29 0 46.5 -20.5t12.5 -49.5zM597 862l-199 -141l-151 141l20 24l150 -58
l170 58z" />
    <glyph glyph-name="Udieresisgrave" unicode="&#x1db;" horiz-adv-x="769" 
d="M841 639h-20q-28 0 -51 -3q-18 -2 -22 -5.5t-6 -20.5l-64 -383q-17 -103 -91 -170.5t-185 -67.5q-127 0 -190 67.5t-46 172.5l69 410h-94l7 47q35 -3 165 -3t165 3l-7 -47h-94l-72 -429q-2 -16 -3.5 -24.5t-2 -29t2 -34t9.5 -31.5t19.5 -28.5t34 -18.5t49.5 -8
q73 0 133.5 45.5t77.5 148.5l64 380q3 10 1.5 15.5t-5.5 7t-17 3.5q-21 3 -48 3h-20l7 47l121 -3l120 3zM459 798q-5 -28 -28.5 -49t-54.5 -21q-29 0 -46 20.5t-12 49.5q5 28 28 49t54 21q29 0 46.5 -20.5t12.5 -49.5zM765 798q-5 -28 -28.5 -49t-54.5 -21q-29 0 -46 20.5
t-12 49.5q5 28 28 49t54 21q29 0 46.5 -20.5t12.5 -49.5zM637 958l-32 -38l-132 60q-33 16 -33 43q-1 29 21 51t51 22q24 0 39 -22z" />
    <glyph glyph-name="udieresisgrave" unicode="&#x1dc;" horiz-adv-x="556" 
d="M553 0l-178 -6l11 68h-1q-49 -68 -129 -68q-79 0 -116.5 28.5t-26.5 99.5l39 234q5 28 -4.5 33.5t-57.5 5.5l8 47l184 8l-57 -345q-10 -40 -1.5 -57.5t52.5 -17.5q46 0 79 38t42 95l32 193q5 28 -4.5 33.5t-57.5 5.5l8 47l184 8l-61 -364q-4 -28 5.5 -33.5t57.5 -5.5z
M322 609q-5 -28 -28.5 -49t-54.5 -21q-29 0 -46 20.5t-12 49.5q5 28 28 49t54 21q29 0 46.5 -20.5t12.5 -49.5zM580 609q-5 -28 -28.5 -49t-54.5 -21q-29 0 -46 20.5t-12 49.5q5 28 28 49t54 21q29 0 46.5 -20.5t12.5 -49.5zM476 769l-32 -38l-132 60q-33 17 -33 43
q-1 29 21 51t51 22q24 0 39 -22z" />
    <glyph glyph-name="eturned" unicode="&#x1dd;" horiz-adv-x="467" 
d="M475 222q-17 -104 -88 -166t-169 -62q-45 0 -77.5 13t-49 34t-26 48t-8.5 55.5t4 55.5q4 20 10.5 24.5t26.5 4.5h250q4 21 5.5 34.5t3 38.5t-3 41.5t-13.5 34t-27.5 26.5t-45.5 9q-35 0 -74 -20t-62 -62q-6 -12 -10.5 -15.5t-16.5 -3.5q-5 0 -9 0.5t-8.5 5t-3.5 12.5
q2 10 15 28.5t35.5 40.5t62.5 38t87 16q101 0 155.5 -62.5t36.5 -168.5zM343 196h-187q-2 -13 -4 -26.5t-1.5 -41t6.5 -47.5t22.5 -35.5t43.5 -15.5q25 0 45.5 13.5t32 29.5t21.5 43.5t13 42t8 37.5z" />
    <glyph glyph-name="Gcaron" unicode="&#x1e6;" horiz-adv-x="786" 
d="M773 229h-69l-33 -201q-2 -10 -3 -14.5t-5 -9t-11 -4.5t-39 17.5t-49 34.5q-57 -63 -158 -63q-153 0 -236.5 94.5t-56.5 259.5q28 164 142.5 259t268.5 95q94 0 153 -62l67 53q12 9 20 9q12 0 14.5 -7t-0.5 -21l-36 -215q-4 -20 -8.5 -24t-23.5 -4q-10 0 -14 0.5t-6.5 4
t-2.5 11.5q2 104 -42.5 156t-109.5 52q-117 0 -193 -93q-51 -63 -76 -214q-24 -149 5 -215q24 -50 71 -71t93 -21q33 0 67 20t43 72l17 101h-125l8 47q44 -3 187 -3q112 0 149 3zM713 869l-199 -141l-151 141l20 24l150 -58l170 58z" />
    <glyph glyph-name="gcaron" unicode="&#x1e7;" 
d="M551 397q-3 -18 -17 -30.5t-33 -12.5t-29 12t-7 31l2 8t2.5 6.5t1.5 3.5q-24 -7 -39 -16q30 -41 20 -97q-10 -62 -63.5 -105t-140.5 -43q-61 0 -104 25q-11 -12 -15 -35q-4 -26 8.5 -42.5t33.5 -18.5h58q47 0 72.5 -1t65.5 -9t58.5 -23t30.5 -46t5 -75q-9 -56 -72 -93
t-174 -37q-119 0 -164.5 39.5t-37.5 86.5q10 59 86 86q-32 30 -26 93q10 50 50 92q-42 39 -31 106q10 63 64.5 105.5t140.5 42.5q72 0 113 -32q47 37 95 37q28 0 39 -18.5t7 -39.5zM341 302q4 25 5.5 39.5t-1 34t-16.5 29t-38 9.5q-20 0 -35 -7.5t-23 -16.5t-15 -27.5
t-9 -29l-6 -31.5q-4 -26 -5 -40t1.5 -33.5t16.5 -29t38 -9.5q20 0 35 7.5t23 17t14.5 27t9 29t5.5 31.5zM374 -75q6 33 -21.5 47.5t-87.5 14.5h-94q-61 0 -71 -60q-7 -39 22.5 -65.5t99.5 -26.5q71 0 109 27.5t43 62.5zM507 690l-208 -185l-146 185l24 22l141 -99l175 99z
" />
    <glyph glyph-name="Oogonek" unicode="&#x1ea;" horiz-adv-x="750" 
d="M750 339q-26 -151 -117.5 -242t-218.5 -106q-26 -17 -40 -41q-22 -32 -12 -60t46 -28q7 0 12 1t9.5 3.5t7 4t7 5.5t5.5 5q16 10 29 -3q4 -5 4 -14t-5 -14q-59 -54 -116 -54q-50 0 -73 27t-17 63q8 51 72 104q-125 10 -191 101t-39 248q28 168 133 263t245 95
q137 0 212 -93.5t47 -264.5zM599 353q11 69 13.5 103.5t-7.5 96.5q-12 50 -44.5 77t-76.5 27q-40 0 -81.5 -24t-72.5 -76q-38 -63 -62 -204q-8 -50 -11.5 -77.5t-3 -70t9.5 -75.5q12 -45 42.5 -72t74.5 -27q42 0 83.5 28t68.5 75q44 76 67 219z" />
    <glyph glyph-name="oogonek" unicode="&#x1eb;" 
d="M508 219q-16 -93 -76 -152.5t-147 -70.5q-28 -15 -49 -46q-22 -32 -11.5 -60t45.5 -28q7 0 12 1t9.5 3.5t7 4t7 5.5t5.5 5q16 10 29 -3q4 -5 4 -14t-5 -14q-59 -54 -116 -54q-50 0 -73 27t-17 63q4 25 27.5 56t52.5 54q-82 11 -123 69.5t-25 153.5q18 107 90 170.5
t170 63.5q100 0 150 -64t33 -170zM381 229q16 93 12 127q-2 25 -22.5 43t-51.5 18q-29 0 -56 -16.5t-39 -44.5q-14 -31 -30 -127q-16 -94 -13 -129q2 -31 23.5 -48.5t51.5 -17.5q28 0 54.5 17t38.5 45q15 31 32 133z" />
    <glyph glyph-name="jcaron" unicode="&#x1f0;" horiz-adv-x="306" 
d="M235 -42q-12 -73 -70.5 -115.5t-126.5 -42.5q-56 0 -90.5 24.5t-27.5 66.5q5 27 25 45t48 18q27 0 42 -18t10 -44q-8 -35 -35 -51q15 -5 32 -5q26 0 45.5 23t27 46.5t12.5 50.5l66 399q2 13 2.5 19t-3.5 11.5t-14 7.5q-15 2 -54 2l8 47l185 8zM456 690l-208 -185
l-146 185l24 22l141 -99l175 99z" />
    <glyph glyph-name="Gacute" unicode="&#x1f4;" horiz-adv-x="786" 
d="M773 229h-69l-33 -201q-2 -10 -3 -14.5t-5 -9t-11 -4.5t-39 17.5t-49 34.5q-57 -63 -158 -63q-153 0 -236.5 94.5t-56.5 259.5q28 164 142.5 259t268.5 95q94 0 153 -62l67 53q12 9 20 9q12 0 14.5 -7t-0.5 -21l-36 -215q-4 -20 -8.5 -24t-23.5 -4q-10 0 -14 0.5t-6.5 4
t-2.5 11.5q2 104 -42.5 156t-109.5 52q-117 0 -193 -93q-51 -63 -76 -214q-24 -149 5 -215q24 -50 71 -71t93 -21q33 0 67 20t43 72l17 101h-125l8 47q44 -3 187 -3q112 0 149 3zM671 841q-10 -27 -47 -43l-152 -60l-20 38l124 116q25 22 47 22q29 0 43.5 -22t4.5 -51z" />
    <glyph glyph-name="gacute" unicode="&#x1f5;" 
d="M551 397q-3 -18 -17 -30.5t-33 -12.5t-29 12t-7 31l2 8t2.5 6.5t1.5 3.5q-24 -7 -39 -16q30 -41 20 -97q-10 -62 -63.5 -105t-140.5 -43q-61 0 -104 25q-11 -12 -15 -35q-4 -26 8.5 -42.5t33.5 -18.5h58q47 0 72.5 -1t65.5 -9t58.5 -23t30.5 -46t5 -75q-9 -56 -72 -93
t-174 -37q-119 0 -164.5 39.5t-37.5 86.5q10 59 86 86q-32 30 -26 93q10 50 50 92q-42 39 -31 106q10 63 64.5 105.5t140.5 42.5q72 0 113 -32q47 37 95 37q28 0 39 -18.5t7 -39.5zM341 302q4 25 5.5 39.5t-1 34t-16.5 29t-38 9.5q-20 0 -35 -7.5t-23 -16.5t-15 -27.5
t-9 -29l-6 -31.5q-4 -26 -5 -40t1.5 -33.5t16.5 -29t38 -9.5q20 0 35 7.5t23 17t14.5 27t9 29t5.5 31.5zM374 -75q6 33 -21.5 47.5t-87.5 14.5h-94q-61 0 -71 -60q-7 -39 22.5 -65.5t99.5 -26.5q71 0 109 27.5t43 62.5zM451 644q-4 -28 -40 -49l-143 -84l-27 33l106 132
q25 30 53 30q24 0 39.5 -19t11.5 -43z" />
    <glyph glyph-name="Aringacute" unicode="&#x1fa;" horiz-adv-x="756" 
d="M720 0q-35 3 -149 3q-127 0 -164 -3l8 47h83l-25 135h-219l-57 -111l-6 -12q0 -3 4.5 -5t13 -3.5t16.5 -2t18.5 -1t15 -0.5h8.5l-8 -47l-117 3l-107 -3l8 47q38 0 58 2q21 2 27 5.5t12 15.5l312 602q9 18 17.5 22t24.5 4q11 0 16 -1t10 -7t7 -18l116 -625h85zM464 229
l-49 264l-137 -264h186zM561 782q4 26 -6 34.5t-40 8.5q-31 0 -43.5 -9t-16.5 -34q-4 -26 6 -34.5t40 -8.5q31 0 43.5 9t16.5 34zM615 783q-6 -36 -37.5 -60.5t-84.5 -24.5q-51 0 -74.5 24t-17.5 61q6 33 37 58t85 25q52 0 75 -24.5t17 -58.5zM648 1004q-9 -27 -47 -43
l-152 -60l-20 38l125 116q24 22 46 22q29 0 43.5 -22t4.5 -51z" />
    <glyph glyph-name="aringacute" unicode="&#x1fb;" horiz-adv-x="486" 
d="M484 24q-3 -16 -10.5 -20t-25.5 -4h-42q-26 0 -43.5 6t-25 13.5t-10 20t-2 18.5t1.5 16q-50 -80 -136 -80q-65 0 -112.5 29t-37.5 86q13 74 98.5 114t202.5 42l6 36q9 53 -7 84.5t-59 31.5q-28 0 -60 -6q2 -2 5.5 -6t7.5 -17t1 -27q-5 -30 -26.5 -46.5t-46.5 -16.5
q-23 0 -40 16.5t-12 46.5q4 25 22 44t38 27.5t47.5 13.5t42 6t30.5 1q92 0 137.5 -41t33.5 -112l-36 -216q-1 -11 -1 -18.5t10 -12.5t32 -6q10 -1 14.5 -5t2.5 -18zM321 138l16 95q-14 -1 -27.5 -3t-40.5 -10t-47.5 -20t-39.5 -36t-24 -55t8.5 -55t42.5 -24q31 0 67 25.5
t45 82.5zM397 605q4 26 -6 34.5t-40 8.5q-31 0 -43.5 -9t-16.5 -34q-4 -26 6 -34.5t40 -8.5q31 0 43.5 9t16.5 34zM451 606q-6 -36 -37.5 -60.5t-84.5 -24.5q-51 0 -74.5 24t-17.5 61q5 33 36 58t86 25q52 0 75 -24.5t17 -58.5zM484 827q-10 -27 -47 -43l-152 -60l-20 38
l124 116q25 22 47 22q29 0 43.5 -22t4.5 -51z" />
    <glyph glyph-name="AEacute" unicode="&#x1fc;" horiz-adv-x="906" 
d="M923 274l-92 -274h-483l8 47h71l43 259h-148l-124 -234l-6 -12q-1 -6 18 -9t38 -3l20 -1l-8 -47l-118 3l-107 -3l8 47q42 0 62 2.5t25.5 6.5t10.5 14l302 569h-67l7 47h549l-9 -241h-47q4 41 1 76.5t-13.5 61.5t-41.5 41t-83 15h-81l-48 -286h31q63 0 84.5 26.5
t31.5 90.5h47l-46 -281h-47q6 38 5.5 64t-20 39.5t-63.5 13.5h-31l-43 -259h86q32 0 59 6.5t46.5 15t36.5 27.5t27.5 33.5t23.5 43.5t19.5 47t18.5 54h47zM478 353l48 286h-26l-153 -286h131zM731 841q-10 -27 -47 -43l-152 -60l-20 38l124 116q25 22 47 22q29 0 43.5 -22
t4.5 -51z" />
    <glyph glyph-name="aeacute" unicode="&#x1fd;" horiz-adv-x="722" 
d="M713 117q-6 -30 -56.5 -76.5t-128.5 -46.5q-95 0 -150 60q-71 -60 -179 -60q-73 0 -118 28t-36 81q22 132 300 145l9 53q20 116 -67 116q-29 0 -60 -6q2 -2 5.5 -6t7.5 -17t1 -27q-5 -30 -26.5 -46.5t-46.5 -16.5q-23 0 -40 16.5t-12 46.5q4 25 22 44t38 27.5t47.5 13.5
t42.5 6t31 1q102 0 146 -50q65 50 150 50q86 0 121.5 -56t19.5 -150q-3 -20 -10 -24.5t-27 -4.5h-243q-13 -86 2 -126q23 -58 87 -58q30 0 64 19t57 63q5 11 10.5 15t17.5 4q5 0 9 -0.5t8.5 -5t3.5 -12.5zM640 251q22 166 -53 166q-55 0 -91 -57q-21 -33 -36 -109h180z
M343 121q1 4 -1 9q-8 40 -2 84q-20 -1 -40 -5t-53 -14.5t-56 -34t-29 -57.5q-4 -28 9.5 -50.5t43.5 -22.5q48 0 85.5 30t42.5 61zM597 644q-4 -28 -40 -49l-143 -84l-27 33l106 132q25 30 53 30q24 0 39.5 -19t11.5 -43z" />
    <glyph glyph-name="Oslashacute" unicode="&#x1fe;" horiz-adv-x="778" 
d="M778 340q-28 -166 -137 -258.5t-254 -92.5q-89 0 -155 36l-62 -84l-31 20l63 84q-48 33 -78 106.5t-11 188.5q27 163 135 260t257 97q83 0 154 -36l62 84l31 -20l-62 -85q62 -48 82.5 -128t5.5 -172zM618 607q-7 10 -19 20.5t-40 22t-61 11.5q-43 0 -92 -23t-86 -80
q-41 -65 -65 -218q-9 -51 -12.5 -81t-2.5 -73t12 -72zM636 340q9 55 12.5 82.5t2.5 73t-13 75.5l-366 -493q45 -53 121 -53q41 0 88 20.5t82 67.5q21 29 36.5 72t21.5 73t15 82zM667 841q-10 -27 -47 -43l-152 -60l-20 38l124 116q25 22 47 22q29 0 43.5 -22t4.5 -51z" />
    <glyph glyph-name="oslashacute" unicode="&#x1ff;" 
d="M508 219q-18 -104 -89 -164.5t-171 -60.5q-47 0 -86 15l-79 -114l-29 16l77 114q-89 61 -66 194q17 106 88.5 170t172.5 64q47 0 87 -16l77 113l29 -16l-77 -114q43 -29 60 -82t6 -119zM383 393q-24 24 -63 24q-31 0 -61 -17t-47 -50q-17 -35 -33 -131q-17 -99 -7 -134z
M394 219q17 103 7 141l-209 -307q23 -23 63 -23q64 0 99 53q21 30 40 136zM486 644q-4 -28 -40 -49l-143 -84l-27 33l106 132q25 30 53 30q24 0 39.5 -19t11.5 -43z" />
    <glyph glyph-name="Adblgrave" unicode="&#x200;" horiz-adv-x="756" 
d="M720 0q-35 3 -149 3q-127 0 -164 -3l8 47h83l-25 135h-219l-57 -111l-6 -12q0 -3 4.5 -5t13 -3.5t16.5 -2t18.5 -1t15 -0.5h8.5l-8 -47l-117 3l-107 -3l8 47q38 0 58 2q21 2 27 5.5t12 15.5l312 602q9 18 17.5 22t24.5 4q11 0 16 -1t10 -7t7 -18l116 -625h85zM464 229
l-49 264l-137 -264h186zM608 759l-45 -21l-65 91q-16 24 -14 45q4 24 28 41.5t49 17.5q45 0 45 -54zM441 759l-45 -21l-65 91q-16 24 -14 45q4 24 28 41.5t49 17.5q45 0 45 -54z" />
    <glyph glyph-name="adblgrave" unicode="&#x201;" horiz-adv-x="486" 
d="M484 24q-3 -16 -10.5 -20t-25.5 -4h-42q-26 0 -43.5 6t-25 13.5t-10 20t-2 18.5t1.5 16q-50 -80 -136 -80q-65 0 -112.5 29t-37.5 86q13 74 98.5 114t202.5 42l6 36q9 53 -7 84.5t-59 31.5q-28 0 -60 -6q2 -2 5.5 -6t7.5 -17t1 -27q-5 -30 -26.5 -46.5t-46.5 -16.5
q-23 0 -40 16.5t-12 46.5q4 25 22 44t38 27.5t47.5 13.5t42 6t30.5 1q92 0 137.5 -41t33.5 -112l-36 -216q-1 -11 -1 -18.5t10 -12.5t32 -6q10 -1 14.5 -5t2.5 -18zM321 138l16 95q-14 -1 -27.5 -3t-40.5 -10t-47.5 -20t-39.5 -36t-24 -55t8.5 -55t42.5 -24q31 0 67 25.5
t45 82.5zM464 532l-46 -21l-65 91q-16 26 -13 45q4 23 28 41t49 18q45 0 45 -54zM297 532l-46 -21l-65 91q-16 26 -13 45q4 23 28 41t49 18q45 0 45 -54z" />
    <glyph glyph-name="Edblgrave" unicode="&#x204;" horiz-adv-x="656" 
d="M673 274l-92 -274h-547l8 47h94l98 586h-94l7 47h534l-9 -241h-47q4 42 0 77.5t-15.5 61.5t-45 40.5t-89.5 14.5h-99l-43 -257h22q33 0 54 7t33 25t17 35t10 50h47l-47 -281h-47q6 37 6.5 63t-18.5 40t-63 14h-22l-47 -282h103q41 0 72.5 7t55.5 23.5t40.5 33.5t31 47.5
t23.5 53t22 62.5h47zM586 759l-45 -21l-65 91q-16 24 -14 45q4 24 28 41.5t49 17.5q45 0 45 -54zM419 759l-45 -21l-65 91q-16 24 -14 45q4 24 28 41.5t49 17.5q45 0 45 -54z" />
    <glyph glyph-name="edblgrave" unicode="&#x205;" horiz-adv-x="467" 
d="M458 117q-2 -10 -15 -28.5t-35.5 -40.5t-62.5 -38t-87 -16q-101 0 -155.5 62.5t-36.5 168.5q17 104 88 166t169 62q45 0 77.5 -13t49 -34t26 -48t8 -55.5t-4.5 -55.5q-3 -20 -10 -24.5t-27 -4.5h-250q-4 -23 -5 -35t-2.5 -38t3 -42t13.5 -34t27.5 -26.5t45.5 -8.5
q35 0 73.5 20t61.5 62q5 8 7.5 11.5t7.5 5.5t13 2q5 0 9 -0.5t8.5 -5t3.5 -12.5zM385 251q2 13 4 26.5t1.5 41t-6.5 47.5t-22.5 35.5t-43.5 15.5q-91 0 -120 -166h187zM454 532l-46 -21l-65 91q-16 26 -13 45q4 23 28 41t49 18q45 0 45 -54zM287 532l-46 -21l-65 91
q-16 26 -13 45q4 23 28 41t49 18q45 0 45 -54z" />
    <glyph glyph-name="Idblgrave" unicode="&#x208;" horiz-adv-x="397" 
d="M368 0q-35 3 -169 3t-171 -3l8 47h99l99 592h-99l7 47q36 -3 170 -3t170 3l-7 -47h-99l-99 -592h99zM457 759l-45 -21l-65 91q-16 24 -14 45q4 24 28 41.5t49 17.5q45 0 45 -54zM290 759l-45 -21l-65 91q-16 24 -14 45q4 24 28 41.5t49 17.5q45 0 45 -54z" />
    <glyph glyph-name="idblgrave" unicode="&#x209;" horiz-adv-x="278" 
d="M265 0l-116 3l-123 -3l8 47h69l51 309q5 28 -4 33.5t-55 5.5l8 47l175 8l-67 -403h62zM360 532l-46 -21l-65 91q-16 26 -13 45q4 23 28 41t49 18q45 0 45 -54zM193 532l-46 -21l-65 91q-16 26 -13 45q4 23 28 41t49 18q45 0 45 -54z" />
    <glyph glyph-name="Odblgrave" unicode="&#x20c;" horiz-adv-x="750" 
d="M750 339q-28 -164 -132.5 -257t-245.5 -93q-137 0 -212 92t-47 258q28 168 133 263t245 95q137 0 212 -93.5t47 -264.5zM599 353q11 69 13.5 103.5t-7.5 96.5q-12 50 -44.5 77t-76.5 27q-40 0 -81.5 -24t-72.5 -76q-38 -63 -62 -204q-8 -50 -11.5 -77.5t-3 -70t9.5 -75.5
q12 -45 42.5 -72t74.5 -27q42 0 83.5 28t68.5 75q44 76 67 219zM633 759l-45 -21l-65 91q-16 24 -14 45q4 24 28 41.5t49 17.5q45 0 45 -54zM466 759l-45 -21l-65 91q-16 24 -14 45q4 24 28 41.5t49 17.5q45 0 45 -54z" />
    <glyph glyph-name="odblgrave" unicode="&#x20d;" 
d="M508 219q-18 -104 -89 -164.5t-171 -60.5q-98 0 -149.5 60t-33.5 165q18 107 90 170.5t170 63.5q100 0 150 -64t33 -170zM381 229q16 93 12 127q-2 25 -22.5 43t-51.5 18q-29 0 -56 -16.5t-39 -44.5q-14 -31 -30 -127q-16 -94 -13 -129q2 -31 23.5 -48.5t51.5 -17.5
q28 0 54.5 17t38.5 45q15 31 32 133zM471 532l-46 -21l-65 91q-16 26 -13 45q4 23 28 41t49 18q45 0 45 -54zM304 532l-46 -21l-65 91q-16 26 -13 45q4 23 28 41t49 18q45 0 45 -54z" />
    <glyph glyph-name="Rdblgrave" unicode="&#x210;" horiz-adv-x="760" 
d="M772 94q-2 -9 -7.5 -22t-18 -34t-38.5 -35t-60 -14q-166 0 -184 91q-3 21 8 89q9 52 9.5 70t-9.5 48q-18 38 -68 38h-86l-46 -278h94l-8 -47q-34 3 -161 3t-163 -3l8 47h94l99 592h-94l7 47h333q124 0 187 -53t49 -133q-8 -54 -56 -98.5t-122 -62.5q82 -38 83 -120
q0 -5 -3 -74q-2 -24 -1 -45.5t3.5 -38t12.5 -26.5t27 -10q45 0 64 69q4 23 27 23q7 0 11 -0.5t7.5 -6t1.5 -16.5zM564 500q4 24 5.5 35.5t1 31.5t-7 30t-19 21t-35.5 16t-56 5h-82l-47 -278h80q33 0 58.5 5t42 16.5t27 22t17 29.5t9 31t6.5 35zM610 759l-45 -21l-65 91
q-16 24 -14 45q4 24 28 41.5t49 17.5q45 0 45 -54zM443 759l-45 -21l-65 91q-16 24 -14 45q4 24 28 41.5t49 17.5q45 0 45 -54z" />
    <glyph glyph-name="rdblgrave" unicode="&#x211;" horiz-adv-x="428" 
d="M461 368q-4 -28 -25.5 -44.5t-45.5 -16.5t-39.5 16t-11.5 45q2 13 9 24.5t12 16.5l6 5q-32 0 -57 -18t-40 -48.5t-24 -59.5t-14 -62l-30 -179h87l-8 -47q-35 3 -137 3l-127 -3l8 47h69l51 309q5 28 -4.5 33.5t-57.5 5.5l8 47l167 8l-15 -91h1q45 91 125 91
q41 0 70.5 -21.5t22.5 -60.5zM435 532l-46 -21l-65 91q-16 26 -13 45q4 23 28 41t49 18q45 0 45 -54zM268 532l-46 -21l-65 91q-16 26 -13 45q4 23 28 41t49 18q45 0 45 -54z" />
    <glyph glyph-name="Udblgrave" unicode="&#x214;" horiz-adv-x="769" 
d="M841 639h-20q-28 0 -51 -3q-18 -2 -22 -5.5t-6 -20.5l-64 -383q-17 -103 -91 -170.5t-185 -67.5q-127 0 -190 67.5t-46 172.5l69 410h-94l7 47q35 -3 165 -3t165 3l-7 -47h-94l-72 -429q-2 -16 -3.5 -24.5t-2 -29t2 -34t9.5 -31.5t19.5 -28.5t34 -18.5t49.5 -8
q73 0 133.5 45.5t77.5 148.5l64 380q3 10 1.5 15.5t-5.5 7t-17 3.5q-21 3 -48 3h-20l7 47l121 -3l120 3zM666 759l-45 -21l-65 91q-16 24 -14 45q4 24 28 41.5t49 17.5q45 0 45 -54zM499 759l-45 -21l-65 91q-16 24 -14 45q4 24 28 41.5t49 17.5q45 0 45 -54z" />
    <glyph glyph-name="udblgrave" unicode="&#x215;" horiz-adv-x="556" 
d="M553 0l-178 -6l11 68h-1q-49 -68 -129 -68q-79 0 -116.5 28.5t-26.5 99.5l39 234q5 28 -4.5 33.5t-57.5 5.5l8 47l184 8l-57 -345q-10 -40 -1.5 -57.5t52.5 -17.5q46 0 79 38t42 95l32 193q5 28 -4.5 33.5t-57.5 5.5l8 47l184 8l-61 -364q-4 -28 5.5 -33.5t57.5 -5.5z
M499 532l-46 -21l-65 91q-16 26 -13 45q4 23 28 41t49 18q45 0 45 -54zM332 532l-46 -21l-65 91q-16 26 -13 45q4 23 28 41t49 18q45 0 45 -54z" />
    <glyph glyph-name="uni0218" unicode="&#x218;" horiz-adv-x="556" 
d="M533 203q-16 -93 -77.5 -153.5t-155.5 -60.5q-100 0 -158 51l-33 -28q-28 -23 -37 -23t-12 3.5t-3 8t2 16.5l30 182q3 19 7.5 24t21.5 5q15 0 18 -4t1 -19q-6 -49 9 -84.5t44 -53t57.5 -24.5t59.5 -7q55 0 83.5 35.5t37.5 81.5q12 84 -48 113q-13 5 -65 17q-52 14 -72 20
t-42 20.5t-37 37.5q-38 60 -25 136q15 87 76 143.5t152 56.5q83 0 135 -50l31 27q28 23 37 23q12 0 14.5 -7t-0.5 -21l-31 -183q-3 -18 -7.5 -23t-21.5 -5q-12 0 -16 3t-5 14q-1 12 0.5 33t-7 46.5t-21.5 47.5t-42.5 37t-71.5 15q-51 0 -80 -31.5t-36 -73.5
q-6 -35 7.5 -62.5t38.5 -37.5q6 -2 70 -19q39 -10 54.5 -15t37.5 -14.5t34.5 -23t24.5 -34.5q35 -59 21 -140zM320 -127q-8 -46 -34.5 -87.5t-49 -61t-30.5 -19.5q-5 0 -9 5t-3 10q1 6 11 12q67 52 85 132q-16 -14 -41 -14q-27 0 -40 17.5t-9 41.5t23 41t44 17
q32 0 45.5 -27t7.5 -67z" />
    <glyph glyph-name="uni0219" unicode="&#x219;" horiz-adv-x="394" 
d="M383 139q-10 -63 -54.5 -104t-130.5 -41q-57 0 -92 28q-12 -6 -27 -16q-20 -12 -29 -12t-12 3.5t-3 8t2 16.5l18 109q3 19 7.5 24t21.5 5q13 0 16 -3t5 -14q5 -55 27 -84t72 -29q91 0 102 74q4 22 -2.5 37.5t-23.5 24t-28.5 12.5t-32.5 8q-81 16 -108 49q-32 38 -24 87
q12 72 64 101.5t118 29.5q51 0 80 -18q36 18 44 18q9 0 12 -3.5t3 -8t-2 -16.5l-13 -80q-3 -18 -7.5 -23t-21.5 -5q-14 0 -17.5 3.5t-2.5 15.5q8 85 -81 85t-99 -62q-2 -14 3 -25t11.5 -17.5t22.5 -12.5t24 -8t28 -6q26 -5 39.5 -8.5t31.5 -14t31 -25.5q38 -42 28 -103z
M239 -127q-8 -46 -34.5 -87.5t-49 -61t-30.5 -19.5q-5 0 -9 5t-3 10q1 6 11 12q67 52 85 132q-16 -14 -41 -14q-27 0 -40 17.5t-9 41.5t23 41t44 17q32 0 45.5 -27t7.5 -67z" />
    <glyph glyph-name="uni021A" unicode="&#x21a;" horiz-adv-x="694" 
d="M729 434h-47q4 57 4 100t-27.5 68.5t-87.5 25.5h-48l-97 -581h134l-8 -47q-47 3 -204 3t-206 -3l8 47h134l97 581h-49q-27 0 -49 -5.5t-37 -13t-28.5 -24t-21 -28.5t-16.5 -37t-13 -40t-12 -46h-47l62 241h579zM389 -127q-8 -46 -34.5 -87.5t-49 -61t-30.5 -19.5
q-5 0 -9 5t-3 10q1 6 11 12q67 52 85 132q-16 -14 -41 -14q-27 0 -40 17.5t-9 41.5t23 41t44 17q32 0 45.5 -27t7.5 -67z" />
    <glyph glyph-name="uni021B" unicode="&#x21b;" horiz-adv-x="390" 
d="M353 122q-9 -51 -41 -89.5t-85 -38.5q-145 0 -124 129l45 274h-63l6 36q69 3 109.5 63.5t54.5 138.5h47l-32 -191h121l-8 -47h-121l-46 -279q-13 -84 31 -84q21 0 37 24t23 65l9 54h47zM237 -127q-8 -46 -34.5 -87.5t-49 -61t-30.5 -19.5q-5 0 -9 5t-3 10q1 6 11 12
q67 52 85 132q-16 -14 -41 -14q-27 0 -40 17.5t-9 41.5t23 41t44 17q32 0 45.5 -27t7.5 -67z" />
    <glyph glyph-name="uni0237" unicode="&#x237;" horiz-adv-x="306" 
d="M235 -42q-12 -73 -70.5 -115.5t-126.5 -42.5q-56 0 -90.5 24.5t-27.5 66.5q5 27 25 45t48 18q27 0 42 -18t10 -44q-8 -35 -35 -51q15 -5 32 -5q26 0 45.5 23t27 46.5t12.5 50.5l66 399q2 13 2.5 19t-3.5 11.5t-14 7.5q-15 2 -54 2l8 47l185 8z" />
    <glyph glyph-name="ereversed" unicode="&#x258;" horiz-adv-x="467" 
d="M476 225q-18 -106 -93.5 -168.5t-176.5 -62.5q-47 0 -81.5 16t-50 38t-22 40.5t-4.5 28.5q3 18 27 18q12 0 15 -3.5t5 -15.5q10 -42 42 -62t67 -20q32 0 57 14.5t39 32.5t24.5 47.5t14 47t7.5 42.5h-250q-20 0 -25 4.5t-2 24.5q6 37 20.5 70.5t39.5 65.5t68 51t98 19
q98 0 148 -62t33 -166zM352 251q2 17 3 26t2.5 29t0 32t-5.5 29t-11.5 26.5t-21 16.5t-31.5 7q-33 0 -58 -21t-38.5 -55.5t-18.5 -52t-8 -37.5h187z" />
    <glyph glyph-name="schwa" unicode="&#x259;" horiz-adv-x="467" 
d="M475 222q-17 -104 -88 -166t-169 -62q-45 0 -77.5 13t-49 34t-26 48t-8.5 55.5t4 55.5q4 20 10.5 24.5t26.5 4.5h250q4 21 5.5 34.5t3 38.5t-3 41.5t-13.5 34t-27.5 26.5t-45.5 9q-35 0 -74 -20t-62 -62q-6 -12 -10.5 -15.5t-16.5 -3.5q-5 0 -9 0.5t-8.5 5t-3.5 12.5
q2 10 15 28.5t35.5 40.5t62.5 38t87 16q101 0 155.5 -62.5t36.5 -168.5zM343 196h-187q-2 -13 -4 -26.5t-1.5 -41t6.5 -47.5t22.5 -35.5t43.5 -15.5q25 0 45.5 13.5t32 29.5t21.5 43.5t13 42t8 37.5z" />
    <glyph glyph-name="ringhalfright" unicode="&#x2be;" horiz-adv-x="399" 
d="M424 485q-13 -78 -65 -124.5t-126 -46.5q-50 0 -80 18.5t-24 54.5q4 24 21 37t38 13q19 0 32.5 -13.5t9.5 -38.5q-3 -17 -13 -29q6 -1 19 -1q22 0 38.5 12.5t25.5 37.5t12.5 39t7.5 39q9 64 2 92q-12 40 -48 40q-48 0 -79 -57q-7 -13 -23 -13q-11 0 -17.5 3.5t-4.5 13.5
q0 4 4.5 13.5t16 23.5t26.5 26.5t39.5 21.5t53.5 9q70 0 108.5 -45.5t25.5 -125.5z" />
    <glyph glyph-name="ringhalfleft" unicode="&#x2bf;" horiz-adv-x="399" 
d="M411 408q0 -4 -5 -13.5t-16 -23.5t-26.5 -26.5t-40 -21.5t-53.5 -9q-70 0 -108.5 45.5t-24.5 125.5q13 78 64.5 124.5t125.5 46.5q50 0 80.5 -18.5t24.5 -54.5q-4 -24 -21 -37t-38 -13q-19 0 -33 13.5t-9 38.5q3 16 12 29q-5 1 -18 1q-22 0 -38.5 -12.5t-25.5 -37.5
t-12.5 -39t-7.5 -39q-10 -66 -2 -92q12 -40 48 -40q48 0 79 57q7 13 23 13q11 0 17.5 -3.5t4.5 -13.5z" />
    <glyph glyph-name="circumflex" unicode="&#x2c6;" 
d="M515 527l-24 -22l-141 99l-175 -99l-14 22l208 185z" />
    <glyph glyph-name="caron" unicode="&#x2c7;" 
d="M542 690l-208 -185l-146 185l24 22l141 -99l175 99z" />
    <glyph glyph-name="breve" unicode="&#x2d8;" 
d="M524 702q-17 -85 -71 -136t-116 -51q-64 0 -101 51.5t-25 135.5h36q-8 -57 22 -91t78 -34q46 0 88 33.5t53 91.5h36z" />
    <glyph glyph-name="dotaccent" unicode="&#x2d9;" horiz-adv-x="278" 
d="M319 609q-5 -31 -31.5 -54.5t-60.5 -23.5q-32 0 -51 23t-14 55q5 31 31.5 54.5t60.5 23.5q32 0 51 -23t14 -55z" />
    <glyph glyph-name="ring" unicode="&#x2da;" horiz-adv-x="811" 
d="M560 605q4 26 -6 34.5t-40 8.5q-31 0 -43.5 -9t-16.5 -34q-4 -26 6 -34.5t40 -8.5q31 0 43.5 9t16.5 34zM614 606q-6 -36 -37.5 -60.5t-84.5 -24.5q-51 0 -74.5 24t-17.5 61q5 33 36 58t86 25q52 0 75 -24.5t17 -58.5z" />
    <glyph glyph-name="ogonek" unicode="&#x2db;" 
d="M329 -150q-59 -54 -116 -54q-50 0 -73 27t-17 63q4 28 31.5 62.5t60.5 56.5h78q-41 -17 -67 -55q-22 -32 -11.5 -60t45.5 -28q7 0 12 1t9.5 3.5t7 4t7 5.5t5.5 5q16 10 29 -3q4 -5 4 -14t-5 -14z" />
    <glyph glyph-name="tilde" unicode="&#x2dc;" 
d="M524 640l-50 -53q-31 -31 -68 -31q-19 0 -63 14q-48 17 -70 17q-39 0 -68 -31l-25 22l50 53q31 31 68 31q19 0 63 -14q48 -17 70 -17q39 0 68 31z" />
    <glyph glyph-name="hungarumlaut" unicode="&#x2dd;" 
d="M369 647q-4 -22 -29 -45l-95 -91l-38 21l42 120q20 54 63 54q25 0 43 -17.5t14 -41.5zM536 647q-4 -22 -29 -45l-95 -91l-38 21l42 120q20 54 63 54q25 0 43 -17.5t14 -41.5z" />
    <glyph glyph-name="uni0300" unicode="&#x300;" horiz-adv-x="0" 
d="M-87 544l-39 -33l-115 84q-28 22 -24 49q5 24 27 43t46 19q29 0 43 -30z" />
    <glyph glyph-name="uni0301" unicode="&#x301;" horiz-adv-x="0" 
d="M-7 644q-4 -28 -40 -49l-143 -84l-27 33l106 132q25 30 53 30q24 0 39.5 -19t11.5 -43z" />
    <glyph glyph-name="uni0302" unicode="&#x302;" horiz-adv-x="0" 
d="M22 527l-24 -22l-141 99l-175 -99l-14 22l208 185z" />
    <glyph glyph-name="uni0303" unicode="&#x303;" horiz-adv-x="0" 
d="M31 640l-50 -53q-31 -31 -68 -31q-19 0 -63 14q-48 17 -70 17q-39 0 -68 -31l-25 22l50 53q31 31 68 31q19 0 63 -14q48 -17 70 -17q39 0 68 31z" />
    <glyph glyph-name="uni0304" unicode="&#x304;" horiz-adv-x="0" 
d="M35 583h-361l9 52h361z" />
    <glyph glyph-name="uni0306" unicode="&#x306;" horiz-adv-x="0" 
d="M31 702q-17 -85 -71 -136t-116 -51q-64 0 -101 51.5t-25 135.5h36q-8 -57 22 -91t78 -34q46 0 88 33.5t53 91.5h36z" />
    <glyph glyph-name="uni0307" unicode="&#x307;" horiz-adv-x="0" 
d="M-63 609q-5 -31 -31.5 -54.5t-60.5 -23.5q-32 0 -51 23t-14 55q5 31 31.5 54.5t60.5 23.5q32 0 51 -23t14 -55z" />
    <glyph glyph-name="uni0308" unicode="&#x308;" horiz-adv-x="0" 
d="M-199 609q-5 -28 -28.5 -49t-54.5 -21q-29 0 -46 20.5t-12 49.5q5 28 28 49t54 21q29 0 46.5 -20.5t12.5 -49.5zM59 609q-5 -28 -28.5 -49t-54.5 -21q-29 0 -46 20.5t-12 49.5q5 28 28 49t54 21q29 0 46.5 -20.5t12.5 -49.5z" />
    <glyph glyph-name="uni0309" unicode="&#x309;" horiz-adv-x="0" 
d="M-39 642q-4 -30 -37 -44q-65 -27 -69 -55l-3 -17q-4 -14 -17 -14q-6 0 -9 4t-2 10l2 16q7 42 43 78q6 5 9 22q4 21 4 30q-3 6 -19 6q-15 0 -25 -3q13 -11 10 -33q-3 -18 -17 -29.5t-31 -11.5q-16 0 -26 11.5t-7 29.5q5 30 34.5 46.5t66.5 16.5q49 0 71 -14q28 -17 22 -49
z" />
    <glyph glyph-name="uni030A" unicode="&#x30a;" horiz-adv-x="0" 
d="M-89 605q4 26 -6 34.5t-40 8.5q-31 0 -43.5 -9t-16.5 -34q-4 -26 6 -34.5t40 -8.5q31 0 43.5 9t16.5 34zM-35 606q-6 -36 -37.5 -60.5t-84.5 -24.5q-51 0 -74.5 24t-17.5 61q5 33 36 58t86 25q52 0 75 -24.5t17 -58.5z" />
    <glyph glyph-name="uni030B" unicode="&#x30b;" horiz-adv-x="0" 
d="M-124 647q-4 -22 -29 -45l-95 -91l-38 21l42 120q20 54 63 54q25 0 43 -17.5t14 -41.5zM43 647q-4 -22 -29 -45l-95 -91l-38 21l42 120q20 54 63 54q25 0 43 -17.5t14 -41.5z" />
    <glyph glyph-name="uni030C" unicode="&#x30c;" horiz-adv-x="0" 
d="M49 690l-208 -185l-146 185l24 22l141 -99l175 99z" />
    <glyph glyph-name="uni030F" unicode="&#x30f;" horiz-adv-x="0" 
d="M-22 532l-46 -21l-65 91q-16 26 -13 45q4 23 28 41t49 18q45 0 45 -54zM-189 532l-46 -21l-65 91q-16 26 -13 45q4 23 28 41t49 18q45 0 45 -54z" />
    <glyph glyph-name="uni0311" unicode="&#x311;" horiz-adv-x="0" 
d="M0 515h-36q8 57 -22 91t-78 34q-46 0 -88 -33.5t-53 -91.5h-36q17 85 71 136t116 51q64 0 101 -51.5t25 -135.5z" />
    <glyph glyph-name="uni0323" unicode="&#x323;" horiz-adv-x="0" 
d="M-185 -122q-5 -31 -31.5 -54.5t-60.5 -23.5q-32 0 -51 23t-14 55q5 31 31.5 54.5t60.5 23.5q32 0 51 -23t14 -55z" />
    <glyph glyph-name="uni0326" unicode="&#x326;" horiz-adv-x="0" 
d="M-201 -127q-8 -46 -34.5 -87.5t-49 -61t-30.5 -19.5q-5 0 -9 5t-3 10q1 6 11 12q67 52 85 132q-16 -14 -41 -14q-27 0 -40 17.5t-9 41.5t23 41t44 17q32 0 45.5 -27t7.5 -67z" />
    <glyph glyph-name="uni032E" unicode="&#x32e;" horiz-adv-x="0" 
d="M-91 -28q-17 -85 -71 -136t-116 -51q-64 0 -101 51.5t-25 135.5h36q-8 -57 22 -91t78 -34q46 0 88 33.5t53 91.5h36z" />
    <glyph glyph-name="uni032F" unicode="&#x32f;" horiz-adv-x="0" 
d="M-122 -215h-36q8 57 -22 91t-78 34q-46 0 -88 -33.5t-53 -91.5h-36q17 85 71 136t116 51q64 0 101 -51.5t25 -135.5z" />
    <glyph glyph-name="uni0330" unicode="&#x330;" horiz-adv-x="0" 
d="M-91 -91l-50 -53q-31 -31 -68 -31q-19 0 -63 14q-48 17 -70 17q-39 0 -68 -31l-25 22l50 53q31 31 68 31q19 0 63 -14q48 -17 70 -17q39 0 68 31z" />
    <glyph glyph-name="uni0331" unicode="&#x331;" horiz-adv-x="0" 
d="M-87 -148h-361l9 52h361z" />
    <glyph glyph-name="uni0332" unicode="&#x332;" horiz-adv-x="0" 
d="M-87 -148h-361l9 52h361z" />
    <glyph glyph-name="Alpha" unicode="&#x391;" horiz-adv-x="756" 
d="M720 0q-35 3 -149 3q-127 0 -164 -3l8 47h83l-25 135h-219l-57 -111l-6 -12q0 -3 4.5 -5t13 -3.5t16.5 -2t18.5 -1t15 -0.5h8.5l-8 -47l-117 3l-107 -3l8 47q38 0 58 2q21 2 27 5.5t12 15.5l312 602q9 18 17.5 22t24.5 4q11 0 16 -1t10 -7t7 -18l116 -625h85zM464 229
l-49 264l-137 -264h186z" />
    <glyph glyph-name="Beta" unicode="&#x392;" horiz-adv-x="711" 
d="M685 186q-13 -78 -78 -132t-169 -54h-404l8 47h94l99 592h-94l7 47h378q103 0 151 -50t36 -122q-10 -57 -55.5 -99t-118.5 -56q83 -11 120 -59t26 -114zM571 514q21 125 -65 125h-140l-44 -264h117q57 0 89 38.5t43 100.5zM538 188q13 58 -3 104q-7 22 -20.5 33
t-22.5 12.5t-24 1.5h-152l-49 -292h142q57 0 91 45q28 37 38 96z" />
    <glyph glyph-name="Gamma" unicode="&#x393;" horiz-adv-x="600" 
d="M630 439h-47q4 42 1 77.5t-13.5 61.5t-40.5 40.5t-82 14.5h-72l-98 -586h118l-8 -47q-40 3 -184 3q-134 0 -170 -3l8 47h94l98 586h-94l7 47h492z" />
    <glyph glyph-name="Delta" unicode="&#x394;" horiz-adv-x="833" 
d="M784 13q-2 -13 -28 -13h-680q-10 0 -14.5 0.5t-7.5 3.5t-2 9q1 3 7 13l428 648q11 15 19 19.5t26 4.5q17 0 24.5 -4t13.5 -21l211 -647zM592 121l-136 417l-275 -417h411z" />
    <glyph glyph-name="Epsilon" unicode="&#x395;" horiz-adv-x="656" 
d="M673 274l-92 -274h-547l8 47h94l98 586h-94l7 47h534l-9 -241h-47q4 42 0 77.5t-15.5 61.5t-45 40.5t-89.5 14.5h-99l-43 -257h22q33 0 54 7t33 25t17 35t10 50h47l-47 -281h-47q6 37 6.5 63t-18.5 40t-63 14h-22l-47 -282h103q41 0 72.5 7t55.5 23.5t40.5 33.5t31 47.5
t23.5 53t22 62.5h47z" />
    <glyph glyph-name="Zeta" unicode="&#x396;" horiz-adv-x="611" 
d="M607 284l-65 -284h-454q-13 0 -18.5 1t-8.5 6.5t-1 18.5q3 14 12 26l432 587h-94q-49 0 -87.5 -14.5t-60 -33.5t-38 -50t-22.5 -49.5t-12 -46.5h-47l52 241h441q13 0 18 -1t8.5 -6.5t1.5 -17.5t-11 -24l-430 -586h100q39 0 71 8.5t53.5 20t40 32.5t28.5 37.5t20 45
t14 44.5t10 45h47z" />
    <glyph glyph-name="Eta" unicode="&#x397;" horiz-adv-x="783" 
d="M748 0q-34 3 -164 3t-166 -3l8 47h94l48 286h-242l-48 -286h94l-8 -47q-34 3 -164 3t-166 -3l8 47h94l99 592h-94l7 47q35 -3 165 -3t165 3l-7 -47h-94l-44 -259h242l44 259h-94l7 47q35 -3 165 -3t165 3l-7 -47h-94l-99 -592h94z" />
    <glyph glyph-name="Theta" unicode="&#x398;" horiz-adv-x="778" 
d="M778 340q-28 -166 -137 -258.5t-254 -92.5q-147 0 -224.5 93t-49.5 258q27 163 135 260t257 97q146 0 223 -95.5t50 -261.5zM636 340q23 147 1 214q-35 107 -139 107q-47 0 -91.5 -26.5t-74.5 -69.5q-32 -46 -48 -96t-29 -129q-25 -150 3 -220q19 -48 56 -70.5t80 -22.5
q42 0 85.5 22.5t76.5 65.5q55 75 80 225zM564 250h-47l5 34h-173l-5 -34h-47l31 189h47l-5 -34h173l5 34h47z" />
    <glyph glyph-name="Iota" unicode="&#x399;" horiz-adv-x="397" 
d="M368 0q-35 3 -169 3t-171 -3l8 47h99l99 592h-99l7 47q36 -3 170 -3t170 3l-7 -47h-99l-99 -592h99z" />
    <glyph glyph-name="Kappa" unicode="&#x39a;" horiz-adv-x="783" 
d="M741 0q-42 3 -133 3q-124 0 -160 -3l8 47q64 0 66 11q0 3 -4 11l-124 264l-80 -67l-36 -219h94l-8 -47q-34 3 -164 3t-166 -3l8 47h94l99 592h-94l7 47q35 -3 165 -3t165 3l-7 -47h-94l-52 -307l338 286l11 11q-23 10 -62 10l7 47q37 -3 130 -3q47 0 92 3l-7 -47
q-57 0 -73.5 -5t-42.5 -26l-218 -185l168 -357q4 -8 7.5 -11.5t15 -5.5t35.5 -2h23z" />
    <glyph glyph-name="Lambda" unicode="&#x39b;" horiz-adv-x="700" 
d="M664 0q-36 3 -143 3q-128 0 -165 -3l8 47h84l-67 422l-202 -412q25 -10 78 -10l-8 -47l-116 3q-51 0 -98 -3l8 47q36 0 54 3t22.5 6.5t9.5 13.5l296 603q8 17 17 21t24 4q10 0 14.5 -1t10 -6.5t7.5 -17.5l100 -626h74z" />
    <glyph glyph-name="Mu" unicode="&#x39c;" horiz-adv-x="950" 
d="M915 0q-34 3 -156 3q-121 0 -157 -3l8 47h94l97 582h-1l-331 -604q-5 -9 -7.5 -12.5t-9.5 -8t-16 -4.5q-10 0 -15.5 4t-7 8t-3.5 13l-126 588h-1l-89 -537q-3 -16 -0.5 -20t20.5 -6q21 -3 49 -3h20l-8 -47l-120 3l-121 -3l8 47h20q28 0 50 3q18 2 22 5.5t7 20.5l94 563
h-94l7 47h209q20 0 26.5 -4.5t10.5 -21.5l107 -502l275 503q9 17 17.5 21t27.5 4h208l-7 -47h-94l-99 -592h94z" />
    <glyph glyph-name="Nu" unicode="&#x39d;" horiz-adv-x="783" 
d="M855 639h-20q-28 0 -51 -3q-18 -2 -22 -5.5t-6 -20.5l-97 -578q-2 -13 -4 -19t-8.5 -9.5t-19.5 -3.5q-18 0 -25 13l-323 576l-85 -513q-3 -16 -0.5 -20t20.5 -6q21 -3 49 -3h20l-8 -47l-120 3l-121 -3l8 47h20q28 0 50 3q18 2 22 5.5t7 20.5l94 563h-94l7 47h208
q16 0 21.5 -2t11.5 -13l250 -446l64 385q3 10 1.5 15.5t-5.5 7t-17 3.5q-21 3 -48 3h-20l7 47l121 -3l120 3z" />
    <glyph glyph-name="Xi" unicode="&#x39e;" horiz-adv-x="667" 
d="M699 477h-47q6 65 0 77q-4 9 -70 9h-310q-68 0 -76 -12q-11 -18 -22 -74h-47l42 198h554zM659 209l-44 -209h-564l26 209h47q-9 -67 -3 -84q3 -13 75 -13h312q70 0 79 11q9 13 25 86h47zM568 248h-47l8 47h-294l-8 -47h-47l35 206h47l-8 -47h294l8 47h47z" />
    <glyph glyph-name="Omicron" unicode="&#x39f;" horiz-adv-x="750" 
d="M750 339q-28 -164 -132.5 -257t-245.5 -93q-137 0 -212 92t-47 258q28 168 133 263t245 95q137 0 212 -93.5t47 -264.5zM599 353q11 69 13.5 103.5t-7.5 96.5q-12 50 -44.5 77t-76.5 27q-40 0 -81.5 -24t-72.5 -76q-38 -63 -62 -204q-8 -50 -11.5 -77.5t-3 -70t9.5 -75.5
q12 -45 42.5 -72t74.5 -27q42 0 83.5 28t68.5 75q44 76 67 219z" />
    <glyph glyph-name="Pi" unicode="&#x3a0;" horiz-adv-x="783" 
d="M748 0q-34 3 -164 3t-166 -3l8 47h94l98 586h-242l-98 -586h94l-8 -47q-34 3 -164 3t-166 -3l8 47h94l98 586h-94l7 47h714l-7 -47h-94l-98 -586h94z" />
    <glyph glyph-name="Rho" unicode="&#x3a1;" horiz-adv-x="683" 
d="M708 491q-15 -87 -87.5 -138t-168.5 -51h-132l-42 -255h94l-8 -47q-34 3 -164 3t-166 -3l8 47h94l99 592h-94l7 47h359q109 0 162 -55t39 -140zM555 491q6 44 8 77t-22.5 52t-81.5 19h-88l-50 -296h88q35 0 60 8t39.5 18.5t24 33t13.5 39t9 49.5z" />
    <glyph glyph-name="Sigma" unicode="&#x3a3;" horiz-adv-x="722" 
d="M708 260l-74 -260h-546q-10 0 -15.5 0.5t-10 5t-3.5 12.5q1 6 15 19l289 246l-192 355q-6 14 -5 24q3 16 10.5 20t25.5 4h546l-9 -241h-47q4 110 -36 152t-154 42h-156l149 -278q6 -12 5 -18q-1 -8 -17 -21l-300 -256h219q116 0 171.5 41t87.5 153h47z" />
    <glyph glyph-name="Tau" unicode="&#x3a4;" horiz-adv-x="694" 
d="M729 434h-47q4 57 4 100t-27.5 68.5t-87.5 25.5h-48l-97 -581h134l-8 -47q-47 3 -204 3t-206 -3l8 47h134l97 581h-49q-27 0 -49 -5.5t-37 -13t-28.5 -24t-21 -28.5t-16.5 -37t-13 -40t-12 -46h-47l62 241h579z" />
    <glyph glyph-name="Upsilon" unicode="&#x3a5;" horiz-adv-x="778" 
d="M813 554q-1 -11 -6.5 -16t-10 -6t-13.5 -1q-15 0 -19 4.5t-4 17.5q0 12 -10.5 19t-23.5 8.5t-33 1.5q-15 0 -24.5 -1.5t-27 -7.5t-35 -22t-33.5 -41q-17 -27 -30.5 -65.5t-18 -61t-5.5 -32.5l-51 -304h118l-8 -47q-40 3 -188 3t-190 -3l8 47h118l51 304l1 11q2 12 3 23
t1.5 28.5t0 33.5t-3 34.5t-7.5 33.5q-10 31 -29.5 47t-32 18t-32.5 2q-68 0 -77 -31q-4 -14 -10 -17t-19 -3q-7 0 -10.5 0.5t-7.5 2.5t-5.5 7t-0.5 13q9 50 52.5 96.5t106.5 46.5q75 0 116 -57t46 -154h1q11 30 27.5 60t45 67t70 60.5t89.5 23.5q43 0 71.5 -24.5t36.5 -56.5
t3 -62z" />
    <glyph glyph-name="Phi" unicode="&#x3a6;" horiz-adv-x="722" 
d="M722 343q-11 -68 -81 -123.5t-194 -66.5l-18 -106h118l-8 -47q-37 3 -183 3q-145 0 -184 -3l8 47h118l18 107q-107 11 -161 64t-42 125q13 72 83.5 125t182.5 64l18 107h-118l7 47q38 -3 184 -3q145 0 183 3l-7 -47h-118l-18 -106q119 -10 171.5 -65.5t40.5 -124.5z
M322 194l50 298q-26 -7 -45.5 -19.5t-30.5 -25t-18.5 -33.5t-10.5 -34t-7 -37q-4 -25 -5.5 -37.5t-0.5 -33.5t7.5 -33.5t21.5 -25t39 -19.5zM575 343q4 32 7 61.5t-16 55t-63 34.5l-50 -302q29 6 50.5 18.5t33 25t20 34.5t11.5 35.5t7 37.5z" />
    <glyph glyph-name="Chi" unicode="&#x3a7;" horiz-adv-x="756" 
d="M727 0q-36 3 -147 3q-128 0 -165 -3l8 47h73l-102 232l-179 -221q28 -11 82 -11l-8 -47q-36 3 -137 3l-123 -3l8 47h24q63 0 90 10l220 272l-137 310h-85l7 47q36 -3 148 -3q128 0 164 3l-7 -47h-73l82 -188l134 165l9 12q-29 11 -82 11l7 47q36 -3 138 -3l122 3l-7 -47
h-24q-30 0 -55 -3q-22 -2 -28.5 -5t-15.5 -14l-175 -216l157 -354h85z" />
    <glyph glyph-name="Psi" unicode="&#x3a8;" horiz-adv-x="778" 
d="M809 529q-2 -15 -23 -18q-9 -1 -15.5 -9t-11.5 -24t-7 -26.5l-6 -31.5q-43 -241 -271 -266l-18 -107h118l-8 -47q-37 3 -183 3q-145 0 -184 -3l8 47h118l18 107q-210 30 -174 262q17 90 -7 94q-18 5 -19 13v6q3 18 35 18h72q25 0 39 -9.5t16.5 -31.5t1 -41t-7.5 -56
q-27 -167 52 -208l73 438h-118l7 47q38 -3 184 -3q145 0 183 3l-7 -47h-118l-74 -440q36 14 62 40.5t40 64t20 61.5t12 60q12 71 32.5 96.5t59.5 25.5h72q10 0 15.5 -0.5t10 -5t3.5 -12.5z" />
    <glyph glyph-name="Omega" unicode="&#x3a9;" horiz-adv-x="722" 
d="M710 200l-70 -200h-160q-21 0 -26 4.5t-1 24.5q11 65 63 201q59 151 72 228q2 13 3.5 24t2.5 33.5t-1.5 39.5t-10.5 38t-21 35t-36.5 23.5t-54.5 9.5q-80 0 -130 -63q-40 -48 -55 -140q-13 -77 -3 -230q7 -135 -4 -199q-4 -20 -10.5 -24.5t-26.5 -4.5h-160l-4 200h47
q0 -2 1 -30t3 -41q1 -10 3.5 -14.5t15 -8t38.5 -3.5h52q-10 44 -48 122q-24 51 -35 76.5t-20 70t-2 85.5q17 99 105.5 169.5t239.5 70.5q148 0 214.5 -70t49.5 -170q-9 -53 -39 -103.5t-84 -115.5q-75 -91 -100 -135h52q25 0 39 3.5t17.5 7.5t7.5 12q13 23 29 74h47z" />
    <glyph glyph-name="baht" unicode="&#xe3f;" horiz-adv-x="711" 
d="M685 186q-13 -78 -78 -132t-169 -54h-66l-8 -48q-1 -10 -9.5 -17t-18.5 -7t-16 7t-4 17l8 48h-290l8 47h94l99 592h-94l7 47h290l8 48q6 24 28 24q10 0 16 -7t4 -17l-8 -48h40q103 0 151 -50t36 -122q-10 -57 -55.5 -99t-118.5 -56q83 -11 120 -59t26 -114zM571 514
q21 125 -65 125h-27l-44 -264h4q57 0 89 38.5t43 100.5zM387 375l44 264h-65l-44 -264h65zM538 188q13 58 -3 104q-7 22 -20.5 33t-22.5 12.5t-24 1.5h-39l-49 -292h29q57 0 91 45q28 37 38 96zM332 47l49 292h-65l-49 -292h65z" />
    <glyph glyph-name="Ddotbelow" unicode="&#x1e0c;" horiz-adv-x="767" 
d="M766 337q-27 -160 -128 -248.5t-232 -88.5h-372l8 47h94l99 592h-94l7 47h372q130 0 202 -91.5t44 -257.5zM619 337q26 153 4 212q-34 90 -152 90h-100l-99 -592h101q118 0 180 85q43 60 66 205zM372 -122q-5 -31 -31.5 -54.5t-60.5 -23.5q-32 0 -51 23t-14 55
q5 31 31.5 54.5t60.5 23.5q32 0 51 -23t14 -55z" />
    <glyph glyph-name="ddotbelow" unicode="&#x1e0d;" horiz-adv-x="556" 
d="M539 0l-184 -6l7 41q-57 -41 -121 -41q-89 0 -139 59.5t-32 168.5q18 107 91 167.5t166 60.5q62 0 104 -38l31 188q5 28 -4.5 33.5t-57.5 5.5l7 47l179 8l-102 -608q-4 -28 5.5 -33.5t57.5 -5.5zM372 94l44 267q-28 53 -85 53q-64 0 -100 -65q-16 -31 -33 -128
q-16 -94 -10 -128q5 -29 23 -46t45 -17q64 0 116 64zM336 -122q-5 -31 -31.5 -54.5t-60.5 -23.5q-32 0 -51 23t-14 55q5 31 31.5 54.5t60.5 23.5q32 0 51 -23t14 -55z" />
    <glyph glyph-name="Dlinebelow" unicode="&#x1e0e;" horiz-adv-x="767" 
d="M766 337q-27 -160 -128 -248.5t-232 -88.5h-372l8 47h94l99 592h-94l7 47h372q130 0 202 -91.5t44 -257.5zM619 337q26 153 4 212q-34 90 -152 90h-100l-99 -592h101q118 0 180 85q43 60 66 205zM470 -148h-361l9 52h361z" />
    <glyph glyph-name="dlinebelow" unicode="&#x1e0f;" horiz-adv-x="556" 
d="M539 0l-184 -6l7 41q-57 -41 -121 -41q-89 0 -139 59.5t-32 168.5q18 107 91 167.5t166 60.5q62 0 104 -38l31 188q5 28 -4.5 33.5t-57.5 5.5l7 47l179 8l-102 -608q-4 -28 5.5 -33.5t57.5 -5.5zM372 94l44 267q-28 53 -85 53q-64 0 -100 -65q-16 -31 -33 -128
q-16 -94 -10 -128q5 -29 23 -46t45 -17q64 0 116 64zM434 -148h-361l9 52h361z" />
    <glyph glyph-name="Hdotbelow" unicode="&#x1e24;" horiz-adv-x="783" 
d="M748 0q-34 3 -164 3t-166 -3l8 47h94l48 286h-242l-48 -286h94l-8 -47q-34 3 -164 3t-166 -3l8 47h94l99 592h-94l7 47q35 -3 165 -3t165 3l-7 -47h-94l-44 -259h242l44 259h-94l7 47q35 -3 165 -3t165 3l-7 -47h-94l-99 -592h94zM450 -122q-5 -31 -31.5 -54.5
t-60.5 -23.5q-32 0 -51 23t-14 55q5 31 31.5 54.5t60.5 23.5q32 0 51 -23t14 -55z" />
    <glyph glyph-name="hdotbelow" unicode="&#x1e25;" horiz-adv-x="556" 
d="M553 0l-124 3l-124 -3l8 47h65l46 274q9 43 4.5 63.5t-10 25t-15.5 4.5q-45 0 -93 -41t-60 -117l-35 -209h69l-8 -47l-125 3l-127 -3l8 47h69l92 553q5 28 -4.5 33.5t-57.5 5.5l7 47l179 8l-56 -335h1q64 91 162 91q77 0 99.5 -38t12.5 -103l-44 -262h69zM347 -122
q-5 -31 -31.5 -54.5t-60.5 -23.5q-32 0 -51 23t-14 55q5 31 31.5 54.5t60.5 23.5q32 0 51 -23t14 -55z" />
    <glyph glyph-name="Hdieresis" unicode="&#x1e26;" horiz-adv-x="783" 
d="M748 0q-34 3 -164 3t-166 -3l8 47h94l48 286h-242l-48 -286h94l-8 -47q-34 3 -164 3t-166 -3l8 47h94l99 592h-94l7 47q35 -3 165 -3t165 3l-7 -47h-94l-44 -259h242l44 259h-94l7 47q35 -3 165 -3t165 3l-7 -47h-94l-99 -592h94zM443 798q-5 -28 -28.5 -49t-54.5 -21
q-29 0 -46 20.5t-12 49.5q5 28 28 49t54 21q29 0 46.5 -20.5t12.5 -49.5zM749 798q-5 -28 -28.5 -49t-54.5 -21q-29 0 -46 20.5t-12 49.5q5 28 28 49t54 21q29 0 46.5 -20.5t12.5 -49.5z" />
    <glyph glyph-name="hdieresis" unicode="&#x1e27;" horiz-adv-x="556" 
d="M553 0l-124 3l-124 -3l8 47h65l46 274q9 43 4.5 63.5t-10 25t-15.5 4.5q-45 0 -93 -41t-60 -117l-35 -209h69l-8 -47l-125 3l-127 -3l8 47h69l92 553q5 28 -4.5 33.5t-57.5 5.5l7 47l179 8l-56 -335h1q64 91 162 91q77 0 99.5 -38t12.5 -103l-44 -262h69zM330 806
q-5 -28 -28.5 -49t-54.5 -21q-29 0 -46 20.5t-12 49.5q5 28 28 49t54 21q29 0 46.5 -20.5t12.5 -49.5zM636 806q-5 -28 -28.5 -49t-54.5 -21q-29 0 -46 20.5t-12 49.5q5 28 28 49t54 21q29 0 46.5 -20.5t12.5 -49.5z" />
    <glyph glyph-name="Hbrevebelow" unicode="&#x1e2a;" horiz-adv-x="783" 
d="M748 0q-34 3 -164 3t-166 -3l8 47h94l48 286h-242l-48 -286h94l-8 -47q-34 3 -164 3t-166 -3l8 47h94l99 592h-94l7 47q35 -3 165 -3t165 3l-7 -47h-94l-44 -259h242l44 259h-94l7 47q35 -3 165 -3t165 3l-7 -47h-94l-99 -592h94zM544 -28q-17 -85 -71 -136t-116 -51
q-64 0 -101 51.5t-25 135.5h36q-8 -57 22 -91t78 -34q46 0 88 33.5t53 91.5h36z" />
    <glyph glyph-name="hbrevebelow" unicode="&#x1e2b;" horiz-adv-x="556" 
d="M553 0l-124 3l-124 -3l8 47h65l46 274q9 43 4.5 63.5t-10 25t-15.5 4.5q-45 0 -93 -41t-60 -117l-35 -209h69l-8 -47l-125 3l-127 -3l8 47h69l92 553q5 28 -4.5 33.5t-57.5 5.5l7 47l179 8l-56 -335h1q64 91 162 91q77 0 99.5 -38t12.5 -103l-44 -262h69zM441 -28
q-17 -85 -71 -136t-116 -51q-64 0 -101 51.5t-25 135.5h36q-8 -57 22 -91t78 -34q46 0 88 33.5t53 91.5h36z" />
    <glyph glyph-name="Idieresisacute" unicode="&#x1e2e;" horiz-adv-x="397" 
d="M368 0q-35 3 -169 3t-171 -3l8 47h99l99 592h-99l7 47q36 -3 170 -3t170 3l-7 -47h-99l-99 -592h99zM250 798q-5 -28 -28.5 -49t-54.5 -21q-29 0 -46 20.5t-12 49.5q5 28 28 49t54 21q29 0 46.5 -20.5t12.5 -49.5zM556 798q-5 -28 -28.5 -49t-54.5 -21q-29 0 -46 20.5
t-12 49.5q5 28 28 49t54 21q29 0 46.5 -20.5t12.5 -49.5zM507 1023q-10 -27 -47 -43l-152 -60l-20 38l124 116q25 22 47 22q29 0 43.5 -22t4.5 -51z" />
    <glyph glyph-name="idieresisacute" unicode="&#x1e2f;" horiz-adv-x="278" 
d="M265 0l-116 3l-123 -3l8 47h69l51 309q5 28 -4 33.5t-55 5.5l8 47l175 8l-67 -403h62zM183 609q-5 -28 -28.5 -49t-54.5 -21q-29 0 -46 20.5t-12 49.5q5 28 28 49t54 21q29 0 46.5 -20.5t12.5 -49.5zM441 609q-5 -28 -28.5 -49t-54.5 -21q-29 0 -46 20.5t-12 49.5
q5 28 28 49t54 21q29 0 46.5 -20.5t12.5 -49.5zM416 834q-10 -27 -47 -43l-152 -60l-20 38l124 116q25 22 47 22q29 0 43.5 -22t4.5 -51z" />
    <glyph glyph-name="Ldotbelow" unicode="&#x1e36;" horiz-adv-x="600" 
d="M603 274l-77 -274h-492l8 47h94l99 592h-94l7 47q35 -3 169 -3q144 0 185 3l-7 -47h-118l-99 -592h66q43 0 78 17.5t56 40.5t38.5 59t24.5 57.5t15 52.5h47zM358 -122q-5 -31 -31.5 -54.5t-60.5 -23.5q-32 0 -51 23t-14 55q5 31 31.5 54.5t60.5 23.5q32 0 51 -23t14 -55z
" />
    <glyph glyph-name="ldotbelow" unicode="&#x1e37;" horiz-adv-x="278" 
d="M272 0l-122 3l-124 -3l8 47h69l92 553q5 28 -4.5 33.5t-57.5 5.5l7 47l179 8l-108 -647h69zM197 -122q-5 -31 -31.5 -54.5t-60.5 -23.5q-32 0 -51 23t-14 55q5 31 31.5 54.5t60.5 23.5q32 0 51 -23t14 -55z" />
    <glyph glyph-name="Ldotbelowmacron" unicode="&#x1e38;" horiz-adv-x="600" 
d="M603 274l-77 -274h-492l8 47h94l99 592h-94l7 47q35 -3 169 -3q144 0 185 3l-7 -47h-118l-99 -592h66q43 0 78 17.5t56 40.5t38.5 59t24.5 57.5t15 52.5h47zM358 -122q-5 -31 -31.5 -54.5t-60.5 -23.5q-32 0 -51 23t-14 55q5 31 31.5 54.5t60.5 23.5q32 0 51 -23t14 -55z
M516 748h-361l9 52h361z" />
    <glyph glyph-name="ldotbelowmacron" unicode="&#x1e39;" horiz-adv-x="278" 
d="M272 0l-122 3l-124 -3l8 47h69l92 553q5 28 -4.5 33.5t-57.5 5.5l7 47l179 8l-108 -647h69zM197 -122q-5 -31 -31.5 -54.5t-60.5 -23.5q-32 0 -51 23t-14 55q5 31 31.5 54.5t60.5 23.5q32 0 51 -23t14 -55zM451 756h-361l9 52h361z" />
    <glyph glyph-name="Mdotbelow" unicode="&#x1e42;" horiz-adv-x="950" 
d="M915 0q-34 3 -156 3q-121 0 -157 -3l8 47h94l97 582h-1l-331 -604q-5 -9 -7.5 -12.5t-9.5 -8t-16 -4.5q-10 0 -15.5 4t-7 8t-3.5 13l-126 588h-1l-89 -537q-3 -16 -0.5 -20t20.5 -6q21 -3 49 -3h20l-8 -47l-120 3l-121 -3l8 47h20q28 0 50 3q18 2 22 5.5t7 20.5l94 563
h-94l7 47h209q20 0 26.5 -4.5t10.5 -21.5l107 -502l275 503q9 17 17.5 21t27.5 4h208l-7 -47h-94l-99 -592h94zM533 -122q-5 -31 -31.5 -54.5t-60.5 -23.5q-32 0 -51 23t-14 55q5 31 31.5 54.5t60.5 23.5q32 0 51 -23t14 -55z" />
    <glyph glyph-name="mdotbelow" unicode="&#x1e43;" horiz-adv-x="833" 
d="M830 0l-124 3l-124 -3l8 47h65l46 274q9 43 4.5 63.5t-10 25t-15.5 4.5q-45 0 -93 -41t-60 -117l-35 -209h69l-8 -47l-124 3l-124 -3l8 47h65l46 274q9 43 4.5 63.5t-10 25t-15.5 4.5q-45 0 -93 -41t-60 -117l-35 -209h69l-8 -47l-125 3l-127 -3l8 47h69l51 309
q5 28 -4.5 33.5t-57.5 5.5l8 47l173 8l-17 -101h1q66 101 169 101q112 0 116 -91q63 91 161 91q77 0 99.5 -38t12.5 -103l-44 -262h69zM475 -122q-5 -31 -31.5 -54.5t-60.5 -23.5q-32 0 -51 23t-14 55q5 31 31.5 54.5t60.5 23.5q32 0 51 -23t14 -55z" />
    <glyph glyph-name="Ndotaccent" unicode="&#x1e44;" horiz-adv-x="783" 
d="M855 639h-20q-28 0 -51 -3q-18 -2 -22 -5.5t-6 -20.5l-97 -578q-2 -13 -4 -19t-8.5 -9.5t-19.5 -3.5q-18 0 -25 13l-323 576l-85 -513q-3 -16 -0.5 -20t20.5 -6q21 -3 49 -3h20l-8 -47l-120 3l-121 -3l8 47h20q28 0 50 3q18 2 22 5.5t7 20.5l94 563h-94l7 47h208
q16 0 21.5 -2t11.5 -13l250 -446l64 385q3 10 1.5 15.5t-5.5 7t-17 3.5q-21 3 -48 3h-20l7 47l121 -3l120 3zM604 806q-5 -31 -31.5 -54.5t-60.5 -23.5q-32 0 -51 23t-14 55q5 31 31.5 54.5t60.5 23.5q32 0 51 -23t14 -55z" />
    <glyph glyph-name="ndotaccent" unicode="&#x1e45;" horiz-adv-x="556" 
d="M553 0l-124 3l-124 -3l8 47h65l46 274q9 43 4.5 63.5t-10 25t-15.5 4.5q-45 0 -93 -41t-60 -117l-35 -209h69l-8 -47l-125 3l-127 -3l8 47h69l51 309q5 28 -4.5 33.5t-57.5 5.5l8 47l173 8l-17 -101h1q66 101 169 101q77 0 99.5 -38t12.5 -103l-44 -262h69zM458 609
q-5 -31 -31.5 -54.5t-60.5 -23.5q-32 0 -51 23t-14 55q5 31 31.5 54.5t60.5 23.5q32 0 51 -23t14 -55z" />
    <glyph glyph-name="Ndotbelow" unicode="&#x1e46;" horiz-adv-x="783" 
d="M855 639h-20q-28 0 -51 -3q-18 -2 -22 -5.5t-6 -20.5l-97 -578q-2 -13 -4 -19t-8.5 -9.5t-19.5 -3.5q-18 0 -25 13l-323 576l-85 -513q-3 -16 -0.5 -20t20.5 -6q21 -3 49 -3h20l-8 -47l-120 3l-121 -3l8 47h20q28 0 50 3q18 2 22 5.5t7 20.5l94 563h-94l7 47h208
q16 0 21.5 -2t11.5 -13l250 -446l64 385q3 10 1.5 15.5t-5.5 7t-17 3.5q-21 3 -48 3h-20l7 47l121 -3l120 3zM450 -122q-5 -31 -31.5 -54.5t-60.5 -23.5q-32 0 -51 23t-14 55q5 31 31.5 54.5t60.5 23.5q32 0 51 -23t14 -55z" />
    <glyph glyph-name="ndotbelow" unicode="&#x1e47;" horiz-adv-x="556" 
d="M553 0l-124 3l-124 -3l8 47h65l46 274q9 43 4.5 63.5t-10 25t-15.5 4.5q-45 0 -93 -41t-60 -117l-35 -209h69l-8 -47l-125 3l-127 -3l8 47h69l51 309q5 28 -4.5 33.5t-57.5 5.5l8 47l173 8l-17 -101h1q66 101 169 101q77 0 99.5 -38t12.5 -103l-44 -262h69zM336 -122
q-5 -31 -31.5 -54.5t-60.5 -23.5q-32 0 -51 23t-14 55q5 31 31.5 54.5t60.5 23.5q32 0 51 -23t14 -55z" />
    <glyph glyph-name="Rdotaccent" unicode="&#x1e58;" horiz-adv-x="760" 
d="M772 94q-2 -9 -7.5 -22t-18 -34t-38.5 -35t-60 -14q-166 0 -184 91q-3 21 8 89q9 52 9.5 70t-9.5 48q-18 38 -68 38h-86l-46 -278h94l-8 -47q-34 3 -161 3t-163 -3l8 47h94l99 592h-94l7 47h333q124 0 187 -53t49 -133q-8 -54 -56 -98.5t-122 -62.5q82 -38 83 -120
q0 -5 -3 -74q-2 -24 -1 -45.5t3.5 -38t12.5 -26.5t27 -10q45 0 64 69q4 23 27 23q7 0 11 -0.5t7.5 -6t1.5 -16.5zM564 500q4 24 5.5 35.5t1 31.5t-7 30t-19 21t-35.5 16t-56 5h-82l-47 -278h80q33 0 58.5 5t42 16.5t27 22t17 29.5t9 31t6.5 35zM594 817q-5 -31 -31.5 -54.5
t-60.5 -23.5q-32 0 -51 23t-14 55q5 31 31.5 54.5t60.5 23.5q32 0 51 -23t14 -55z" />
    <glyph glyph-name="rdotaccent" unicode="&#x1e59;" horiz-adv-x="428" 
d="M461 368q-4 -28 -25.5 -44.5t-45.5 -16.5t-39.5 16t-11.5 45q2 13 9 24.5t12 16.5l6 5q-32 0 -57 -18t-40 -48.5t-24 -59.5t-14 -62l-30 -179h87l-8 -47q-35 3 -137 3l-127 -3l8 47h69l51 309q5 28 -4.5 33.5t-57.5 5.5l8 47l167 8l-15 -91h1q45 91 125 91
q41 0 70.5 -21.5t22.5 -60.5zM394 609q-5 -31 -31.5 -54.5t-60.5 -23.5q-32 0 -51 23t-14 55q5 31 31.5 54.5t60.5 23.5q32 0 51 -23t14 -55z" />
    <glyph glyph-name="Rdotbelow" unicode="&#x1e5a;" horiz-adv-x="760" 
d="M772 94q-2 -9 -7.5 -22t-18 -34t-38.5 -35t-60 -14q-166 0 -184 91q-3 21 8 89q9 52 9.5 70t-9.5 48q-18 38 -68 38h-86l-46 -278h94l-8 -47q-34 3 -161 3t-163 -3l8 47h94l99 592h-94l7 47h333q124 0 187 -53t49 -133q-8 -54 -56 -98.5t-122 -62.5q82 -38 83 -120
q0 -5 -3 -74q-2 -24 -1 -45.5t3.5 -38t12.5 -26.5t27 -10q45 0 64 69q4 23 27 23q7 0 11 -0.5t7.5 -6t1.5 -16.5zM564 500q4 24 5.5 35.5t1 31.5t-7 30t-19 21t-35.5 16t-56 5h-82l-47 -278h80q33 0 58.5 5t42 16.5t27 22t17 29.5t9 31t6.5 35zM438 -122q-5 -31 -31.5 -54.5
t-60.5 -23.5q-32 0 -51 23t-14 55q5 31 31.5 54.5t60.5 23.5q32 0 51 -23t14 -55z" />
    <glyph glyph-name="rdotbelow" unicode="&#x1e5b;" horiz-adv-x="428" 
d="M461 368q-4 -28 -25.5 -44.5t-45.5 -16.5t-39.5 16t-11.5 45q2 13 9 24.5t12 16.5l6 5q-32 0 -57 -18t-40 -48.5t-24 -59.5t-14 -62l-30 -179h87l-8 -47q-35 3 -137 3l-127 -3l8 47h69l51 309q5 28 -4.5 33.5t-57.5 5.5l8 47l167 8l-15 -91h1q45 91 125 91
q41 0 70.5 -21.5t22.5 -60.5zM206 -122q-5 -31 -31.5 -54.5t-60.5 -23.5q-32 0 -51 23t-14 55q5 31 31.5 54.5t60.5 23.5q32 0 51 -23t14 -55z" />
    <glyph glyph-name="Rdotbelowmacron" unicode="&#x1e5c;" horiz-adv-x="760" 
d="M772 94q-2 -9 -7.5 -22t-18 -34t-38.5 -35t-60 -14q-166 0 -184 91q-3 21 8 89q9 52 9.5 70t-9.5 48q-18 38 -68 38h-86l-46 -278h94l-8 -47q-34 3 -161 3t-163 -3l8 47h94l99 592h-94l7 47h333q124 0 187 -53t49 -133q-8 -54 -56 -98.5t-122 -62.5q82 -38 83 -120
q0 -5 -3 -74q-2 -24 -1 -45.5t3.5 -38t12.5 -26.5t27 -10q45 0 64 69q4 23 27 23q7 0 11 -0.5t7.5 -6t1.5 -16.5zM564 500q4 24 5.5 35.5t1 31.5t-7 30t-19 21t-35.5 16t-56 5h-82l-47 -278h80q33 0 58.5 5t42 16.5t27 22t17 29.5t9 31t6.5 35zM438 -122q-5 -31 -31.5 -54.5
t-60.5 -23.5q-32 0 -51 23t-14 55q5 31 31.5 54.5t60.5 23.5q32 0 51 -23t14 -55zM685 748h-361l9 52h361z" />
    <glyph glyph-name="rdotbelowmacron" unicode="&#x1e5d;" horiz-adv-x="428" 
d="M461 368q-4 -28 -25.5 -44.5t-45.5 -16.5t-39.5 16t-11.5 45q2 13 9 24.5t12 16.5l6 5q-32 0 -57 -18t-40 -48.5t-24 -59.5t-14 -62l-30 -179h87l-8 -47q-35 3 -137 3l-127 -3l8 47h69l51 309q5 28 -4.5 33.5t-57.5 5.5l8 47l167 8l-15 -91h1q45 91 125 91
q41 0 70.5 -21.5t22.5 -60.5zM206 -122q-5 -31 -31.5 -54.5t-60.5 -23.5q-32 0 -51 23t-14 55q5 31 31.5 54.5t60.5 23.5q32 0 51 -23t14 -55zM492 583h-361l9 52h361z" />
    <glyph glyph-name="Sdotbelow" unicode="&#x1e62;" horiz-adv-x="556" 
d="M533 203q-16 -93 -77.5 -153.5t-155.5 -60.5q-100 0 -158 51l-33 -28q-28 -23 -37 -23t-12 3.5t-3 8t2 16.5l30 182q3 19 7.5 24t21.5 5q15 0 18 -4t1 -19q-6 -49 9 -84.5t44 -53t57.5 -24.5t59.5 -7q55 0 83.5 35.5t37.5 81.5q12 84 -48 113q-13 5 -65 17q-52 14 -72 20
t-42 20.5t-37 37.5q-38 60 -25 136q15 87 76 143.5t152 56.5q83 0 135 -50l31 27q28 23 37 23q12 0 14.5 -7t-0.5 -21l-31 -183q-3 -18 -7.5 -23t-21.5 -5q-12 0 -16 3t-5 14q-1 12 0.5 33t-7 46.5t-21.5 47.5t-42.5 37t-71.5 15q-51 0 -80 -31.5t-36 -73.5
q-6 -35 7.5 -62.5t38.5 -37.5q6 -2 70 -19q39 -10 54.5 -15t37.5 -14.5t34.5 -23t24.5 -34.5q35 -59 21 -140zM336 -122q-5 -31 -31.5 -54.5t-60.5 -23.5q-32 0 -51 23t-14 55q5 31 31.5 54.5t60.5 23.5q32 0 51 -23t14 -55z" />
    <glyph glyph-name="sdotbelow" unicode="&#x1e63;" horiz-adv-x="394" 
d="M383 139q-10 -63 -54.5 -104t-130.5 -41q-57 0 -92 28q-12 -6 -27 -16q-20 -12 -29 -12t-12 3.5t-3 8t2 16.5l18 109q3 19 7.5 24t21.5 5q13 0 16 -3t5 -14q5 -55 27 -84t72 -29q91 0 102 74q4 22 -2.5 37.5t-23.5 24t-28.5 12.5t-32.5 8q-81 16 -108 49q-32 38 -24 87
q12 72 64 101.5t118 29.5q51 0 80 -18q36 18 44 18q9 0 12 -3.5t3 -8t-2 -16.5l-13 -80q-3 -18 -7.5 -23t-21.5 -5q-14 0 -17.5 3.5t-2.5 15.5q8 85 -81 85t-99 -62q-2 -14 3 -25t11.5 -17.5t22.5 -12.5t24 -8t28 -6q26 -5 39.5 -8.5t31.5 -14t31 -25.5q38 -42 28 -103z
M255 -122q-5 -31 -31.5 -54.5t-60.5 -23.5q-32 0 -51 23t-14 55q5 31 31.5 54.5t60.5 23.5q32 0 51 -23t14 -55z" />
    <glyph glyph-name="Tdotbelow" unicode="&#x1e6c;" horiz-adv-x="694" 
d="M729 434h-47q4 57 4 100t-27.5 68.5t-87.5 25.5h-48l-97 -581h134l-8 -47q-47 3 -204 3t-206 -3l8 47h134l97 581h-49q-27 0 -49 -5.5t-37 -13t-28.5 -24t-21 -28.5t-16.5 -37t-13 -40t-12 -46h-47l62 241h579zM405 -122q-5 -31 -31.5 -54.5t-60.5 -23.5q-32 0 -51 23
t-14 55q5 31 31.5 54.5t60.5 23.5q32 0 51 -23t14 -55z" />
    <glyph glyph-name="tdotbelow" unicode="&#x1e6d;" horiz-adv-x="390" 
d="M353 122q-9 -51 -41 -89.5t-85 -38.5q-145 0 -124 129l45 274h-63l6 36q69 3 109.5 63.5t54.5 138.5h47l-32 -191h121l-8 -47h-121l-46 -279q-13 -84 31 -84q21 0 37 24t23 65l9 54h47zM253 -122q-5 -31 -31.5 -54.5t-60.5 -23.5q-32 0 -51 23t-14 55q5 31 31.5 54.5
t60.5 23.5q32 0 51 -23t14 -55z" />
    <glyph glyph-name="Tlinebelow" unicode="&#x1e6e;" horiz-adv-x="694" 
d="M729 434h-47q4 57 4 100t-27.5 68.5t-87.5 25.5h-48l-97 -581h134l-8 -47q-47 3 -204 3t-206 -3l8 47h134l97 581h-49q-27 0 -49 -5.5t-37 -13t-28.5 -24t-21 -28.5t-16.5 -37t-13 -40t-12 -46h-47l62 241h579zM503 -148h-361l9 52h361z" />
    <glyph glyph-name="tlinebelow" unicode="&#x1e6f;" horiz-adv-x="390" 
d="M353 122q-9 -51 -41 -89.5t-85 -38.5q-145 0 -124 129l45 274h-63l6 36q69 3 109.5 63.5t54.5 138.5h47l-32 -191h121l-8 -47h-121l-46 -279q-13 -84 31 -84q21 0 37 24t23 65l9 54h47zM351 -148h-361l9 52h361z" />
    <glyph glyph-name="Wgrave" unicode="&#x1e80;" horiz-adv-x="1033" 
d="M1118 639q-52 0 -66 -4.5t-21 -18.5l-302 -599q-7 -13 -14.5 -19t-22.5 -6q-17 0 -22 5.5t-8 20.5l-72 423l-214 -424q-13 -25 -38 -25q-16 0 -21.5 6t-7.5 19l-106 622h-75l7 47q39 -3 142 -3q125 0 161 3l-7 -47h-84l74 -434l156 310l-21 124h-75l7 47q39 -3 142 -3
q125 0 161 3l-7 -47h-84l74 -434l213 423q-26 11 -87 11l7 47q41 -3 122 -3q47 0 96 3zM716 776l-32 -38l-132 60q-33 16 -33 43q-1 29 21 51t51 22q24 0 39 -22z" />
    <glyph glyph-name="wgrave" unicode="&#x1e81;" horiz-adv-x="722" 
d="M766 397q-28 0 -42 -3t-18 -6.5t-10 -13.5l-181 -352q-14 -26 -39 -26q-14 0 -20.5 4.5t-9.5 21.5l-43 234l-121 -235q-7 -14 -14.5 -19.5t-24.5 -5.5q-11 0 -17.5 3.5t-8 8.5t-3.5 15l-69 374h-58l8 47l106 -3l109 3l-8 -47h-42l44 -237l80 155l6 12l-13 70h-46l8 47
q45 -3 90 -3l112 3l-8 -47h-59l49 -262l123 237l7 15q-21 10 -60 10l8 47l96 -3q41 0 77 3zM517 544l-39 -33l-115 84q-28 22 -24 49q5 24 27 43t46 19q29 0 43 -30z" />
    </font>
</defs>
</svg>
