<?xml version="1.0" standalone="no"?>
<!DOCTYPE svg PUBLIC "-//W3C//DTD SVG 1.1//EN" "http://www.w3.org/Graphics/SVG/1.1/DTD/svg11.dtd" >
<svg xmlns="http://www.w3.org/2000/svg" xmlns:xlink="http://www.w3.org/1999/xlink" version="1.1">
<metadata>
Created by FontForge 20170731 at Thu Oct  8 13:58:35 2009
 By Aleksey,,,
Copyright 2003, 2009 B. Jackowski and J. M. Nowacki (on behalf of TeX users groups). This work is released under the GUST Font License --  see http://tug.org/fonts/licenses/GUST-FONT-LICENSE.txt for details.
</metadata>
<defs>
<font id="LMRomanDemi10-Regular" horiz-adv-x="500" >
  <font-face 
    font-family="LM Roman Demi 10"
    font-weight="600"
    font-stretch="normal"
    units-per-em="1000"
    panose-1="0 0 7 0 0 0 0 0 0 0"
    ascent="806"
    descent="-194"
    x-height="444"
    cap-height="686"
    bbox="-442 -295 1406 1136"
    underline-thickness="60"
    underline-position="-266"
    unicode-range="U+0020-FB04"
  />
<missing-glyph horiz-adv-x="280" 
 />
    <glyph glyph-name="I_J" unicode="IJ" horiz-adv-x="874" 
d="M368 0q-36 3 -170 3t-170 -3v47h99v592h-99v47q36 -3 170 -3t170 3v-47h-99v-592h99v-47zM816 639h-71v-490q0 -75 -59 -117.5t-153 -42.5q-77 0 -126.5 35t-49.5 90q0 37 23 57t54 20q29 0 52.5 -20t23.5 -57q0 -22 -11 -39.5t-20.5 -24t-18.5 -9.5q31 -16 68 -16
q35 0 58 29.5t23 92.5v492h-123v47q41 -3 183 -3q110 0 147 3v-47z" />
    <glyph glyph-name="i_j" unicode="ij" horiz-adv-x="556" 
d="M214 609q0 -31 -22.5 -54.5t-56.5 -23.5q-32 0 -55 23t-23 55q0 31 22.5 54.5t56.5 23.5q32 0 55 -23t23 -55zM493 609q0 -31 -22.5 -54.5t-56.5 -23.5q-32 0 -55 23t-23 55q0 31 22.5 54.5t56.5 23.5q32 0 55 -23t23 -55zM265 0l-117 3l-122 -3v47h69v309q0 28 -10 33.5
t-56 5.5v47l174 8v-403h62v-47zM492 -42q0 -73 -51.5 -115.5t-119.5 -42.5q-56 0 -94.5 24.5t-38.5 66.5q0 27 17.5 45t45.5 18q27 0 44.5 -18t17.5 -44q0 -34 -26 -51q15 -5 32 -5q20 0 34 12.5t20 33t8.5 38t2.5 36.5v399q0 13 -1 19t-6 11.5t-15 7.5q-15 2 -54 2v47
l184 8v-492z" />
    <glyph glyph-name="f_k" unicode="fk" horiz-adv-x="810" 
d="M791 0q-66 3 -101 3l-120 -3v47q37 0 37 10q0 4 -43.5 68.5t-59.5 86.5l-34 -31v-134h69v-47l-123 3l-123 -3v47h69v350h-169v-350h69v-47l-123 3l-123 -3v47h69v350h-58v47h58v100q0 54 36 90.5t88.5 51t116.5 14.5q37 0 63 -8q9 -3 15 -3q26 0 66 5v-448l142 130
q8 8 8 10q0 11 -43 11v47q39 -3 114 -3q54 0 77 3v-47q-31 0 -48 -2.5t-23 -6t-14 -10.5l-107 -99l145 -213q7 -11 11 -14t15 -4t44 -1v-47zM362 444v101q0 18 -5 22q-20 16 -20 46q0 29 21 47q-14 4 -37 4q-59 0 -96 -29q-38 -31 -38 -92v-99h175z" />
    <glyph glyph-name="f_f" unicode="ff" horiz-adv-x="583" 
d="M664 613q0 -29 -18.5 -45.5t-43.5 -16.5q-23 0 -42 16t-19 46q0 33 24 50q-4 1 -11 1q-10 0 -20.5 -2.5t-29 -12.5t-30 -36.5t-11.5 -66.5v-102h100v-47h-94v-350h87v-47q-36 3 -138 3l-126 -3v47h69v350h-168v-350h69v-47l-123 3l-123 -3v47h69v350h-58v47h58v100
q0 54 37 91t88.5 51t113.5 14q64 0 104 -33q49 33 128 33q52 0 80 -26.5t28 -60.5zM368 655q-21 9 -49 9q-66 0 -99 -33t-33 -88v-99h174v106q-25 17 -25 50q0 37 32 55z" />
    <glyph glyph-name="f_i" unicode="fi" horiz-adv-x="556" 
d="M539 0l-123 3l-123 -3v47h69v315q0 25 -5 30t-25 5h-139v-350h69v-47l-123 3l-123 -3v47h69v350h-58v47h58v100q0 55 38.5 91.5t90.5 50.5t114 14q68 0 103 -36.5t35 -78.5q0 -32 -19 -49.5t-47 -17.5t-46.5 18t-18.5 47q0 27 15 43t33 21q-27 17 -60 17q-64 0 -100 -32
t-36 -89v-99h106l1 4l176 6v-407h69v-47z" />
    <glyph glyph-name="f_l" unicode="fl" horiz-adv-x="556" 
d="M539 0l-123 3l-123 -3v47h69v350h-169v-350h69v-47l-123 3l-123 -3v47h69v350h-58v47h58v100q0 54 36 90.5t88.5 51t116.5 14.5q37 0 63 -8q9 -3 15 -3q26 0 66 5v-647h69v-47zM362 444v101q0 18 -5 22q-20 16 -20 46q0 29 21 47q-14 4 -37 4q-59 0 -96 -29
q-38 -31 -38 -92v-99h175z" />
    <glyph glyph-name="f_f_i" unicode="&#xfb00;i" horiz-adv-x="833" 
d="M816 0l-123 3l-123 -3v47h69v315q0 25 -5.5 30t-24.5 5h-139v-350h69v-47l-123 3l-123 -3v47h69v350h-169v-350h69v-47l-123 3l-123 -3v47h69v350h-58v47h58v100q0 54 37 90.5t89 51t114 14.5q63 0 105 -40q71 40 175 40q68 0 103 -36.5t35 -78.5q0 -32 -19 -49.5
t-47 -17.5t-46.5 18t-18.5 47q0 27 15 43t33 21q-27 17 -60 17q-64 0 -100 -32t-36 -89v-99h106l1 4l176 6v-407h69v-47zM378 647q-26 17 -58 17q-58 0 -95 -29q-38 -31 -38 -92v-99h175v82q-33 19 -33 57q0 49 49 64z" />
    <glyph glyph-name="f_f_l" unicode="ffl" horiz-adv-x="833" 
d="M816 0l-123 3l-123 -3v47h69v350h-169v-350h69v-47l-123 3l-123 -3v47h69v350h-169v-350h69v-47l-123 3l-123 -3v47h69v350h-58v47h58v100q0 54 37 90.5t89 51t114 14.5q69 0 110 -38q66 38 168 38q37 0 63 -8q9 -3 15 -3q26 0 66 5v-647h69v-47zM369 655q-20 9 -49 9
q-58 0 -95 -29q-38 -31 -38 -92v-99h175v106q-25 17 -25 50q0 39 32 55zM639 444v101q0 18 -5 22q-20 16 -20 46q0 29 21 47q-14 4 -37 4q-59 0 -96 -29q-38 -31 -38 -92v-99h175z" />
    <glyph glyph-name=".notdef" horiz-adv-x="280" 
 />
    <glyph glyph-name=".null" horiz-adv-x="0" 
 />
    <glyph glyph-name="nonmarkingreturn" horiz-adv-x="333" 
 />
    <glyph glyph-name="space" unicode=" " horiz-adv-x="333" 
 />
    <glyph glyph-name="exclam" unicode="!" horiz-adv-x="306" 
d="M232 634l-2 -13l-52 -373q-2 -15 -6.5 -18.5t-18.5 -3.5q-16 0 -19.5 4t-5.5 22l-52 364q-2 10 -2 18q0 29 23.5 50t55.5 21t55.5 -21t23.5 -50zM231 78q0 -32 -23 -55t-55 -23t-55 23t-23 55t23 55t55 23t55 -23t23 -55z" />
    <glyph glyph-name="quotedbl" unicode="&#x22;" horiz-adv-x="440" 
d="M196 640l-33 -222h-48l-33 222q-4 23 13.5 40t43.5 17q25 0 43 -17t14 -40zM358 640l-33 -222h-48l-33 222q-4 23 13.5 40t43.5 17q25 0 43 -17t14 -40z" />
    <glyph glyph-name="numbersign" unicode="#" horiz-adv-x="833" 
d="M776 139q0 -31 -46 -31h-211l-71 -272q-7 -30 -31 -30q-14 0 -22.5 9t-8.5 21q0 5 4 20l66 252h-156l-71 -272q-7 -30 -31 -30q-14 0 -22.5 9t-8.5 21q0 5 4 20l66 252h-135q-46 0 -46 31q0 30 41 30h157l42 163h-199q-41 0 -41 30q0 31 46 31h211l71 271q7 30 31 30
q14 0 22.5 -9t8.5 -21q0 -5 -4 -20l-66 -251h156l71 271q7 30 31 30q14 0 22.5 -9t8.5 -21q0 -5 -4 -20l-66 -251h135q46 0 46 -31q0 -30 -41 -30h-157l-42 -163h199q41 0 41 -30zM515 332h-156l-42 -163h156z" />
    <glyph glyph-name="dollar" unicode="$" 
d="M443 210q0 -82 -41.5 -142.5t-128.5 -72.5v-51h-47v51q-46 5 -81 24t-53.5 47.5t-27 58t-8.5 60.5q0 29 15.5 45.5t27 19t20.5 2.5q22 0 42 -15.5t20 -47.5q0 -13 -4.5 -25.5t-20.5 -24.5t-42 -12q26 -74 112 -85v252q-90 18 -130 78.5t-40 125.5q0 80 44 136t126 65v51
h47v-51q85 -8 127.5 -58.5t42.5 -118.5q0 -37 -21 -51.5t-42 -14.5q-23 0 -42.5 16t-19.5 47q0 23 15.5 42.5t49.5 19.5q-28 62 -110 71v-224q52 -11 88 -38t52.5 -61.5t23 -63t6.5 -55.5zM226 440v211q-52 -9 -71 -41t-19 -64q0 -34 22 -64.5t68 -41.5zM363 161
q0 41 -23 75t-67 46v-239q90 19 90 118z" />
    <glyph glyph-name="percent" unicode="%" horiz-adv-x="833" 
d="M693 719q0 -10 -9 -23l-486 -733q-13 -19 -28 -19q-13 0 -22 9t-9 22q0 8 11 25l418 632q-47 -21 -105 -21q-72 0 -142 36q12 -42 12 -98q0 -104 -37.5 -153t-88.5 -49q-57 0 -104 48.5t-47 153.5q0 102 46 151.5t105 49.5q38 0 72 -29q83 -75 183 -75q109 0 173 87
q12 17 28 17q11 0 20.5 -8.5t9.5 -22.5zM776 145q0 -101 -37 -151t-89 -50q-57 0 -104 48.5t-47 153.5q0 102 46 151.5t105 49.5q51 0 88.5 -49t37.5 -153zM286 549q0 83 -24 124t-53 41q-12 0 -21 -6.5t-14 -21t-8.5 -27.5t-4.5 -36t-1.5 -36.5t-0.5 -38.5t0.5 -38t1.5 -36
t4.5 -36t8.5 -27.5t14 -21t21 -6.5q29 0 53 40t24 126zM729 146q0 83 -24 124t-53 41q-12 0 -21 -6.5t-14 -21t-8.5 -27.5t-4.5 -36t-1.5 -36.5t-0.5 -38.5t0.5 -38t1.5 -36t4.5 -36t8.5 -27.5t14 -21t21 -6.5q29 0 53 40t24 126z" />
    <glyph glyph-name="ampersand" unicode="&#x26;" horiz-adv-x="778" 
d="M727 397q-43 0 -65 -3q-16 -2 -20.5 -6t-15.5 -22q-16 -25 -23 -40q-86 -147 -138 -208q68 -82 120 -82q27 0 56.5 19t32.5 63h47q-1 -57 -41.5 -93t-100.5 -36q-96 0 -181 64q-82 -64 -175 -64q-75 0 -128 42.5t-53 105.5q0 41 25 76q5 8 55 58q58 58 62 61
q-41 100 -41 196q0 81 51.5 129t114.5 48q50 0 74.5 -41.5t24.5 -89.5q0 -69 -122 -191q40 -98 150 -230q43 50 80 116q2 3 20 33.5t32.5 55.5t14.5 27q0 12 -77 12v47q40 -3 122 -3q51 0 99 3v-47zM361 575q0 8 -1.5 19t-5.5 30.5t-15 32t-28 12.5q-24 0 -44 -24.5
t-20 -79.5q0 -72 25 -144q89 94 89 154zM362 81q-102 93 -162 216q-30 -39 -30 -123q0 -45 5.5 -74t15.5 -42t19.5 -17.5t22.5 -4.5q65 0 129 45z" />
    <glyph glyph-name="quotesingle" unicode="'" horiz-adv-x="278" 
d="M196 640l-33 -222h-48l-33 222q-4 23 13.5 40t43.5 17q25 0 43 -17t14 -40z" />
    <glyph glyph-name="parenleft" unicode="(" horiz-adv-x="389" 
d="M332 -235q0 -14 -18 -14q-19 0 -67.5 53.5t-78.5 110.5q-76 149 -76 335q0 278 156 449q51 51 66 51q18 0 18 -14q0 -6 -7 -13q-136 -161 -136 -473q0 -313 133 -468q10 -11 10 -17z" />
    <glyph glyph-name="parenright" unicode=")" horiz-adv-x="389" 
d="M296 250q0 -277 -156 -448q-51 -51 -66 -51q-18 0 -18 14q0 6 13 21q130 160 130 465q0 312 -133 468q-10 11 -10 17q0 14 18 14q19 0 69.5 -55.5t85.5 -126.5q67 -138 67 -318z" />
    <glyph glyph-name="asterisk" unicode="*" 
d="M437 443q0 -21 -14.5 -35t-30.5 -14q-13 0 -28 14l-94 84l21 -127q3 -19 3 -20q0 -17 -13.5 -28t-31.5 -11q-17 0 -30.5 10.5t-13.5 28.5q1 5 2 13l22 134l-94 -85q-15 -13 -28 -13q-16 0 -30.5 14t-14.5 35q0 27 29 37l121 48l-121 48q-29 10 -29 37q0 21 14.5 35
t30.5 14q13 0 28 -14l94 -84l-21 127q-3 19 -3 20q0 17 13.5 28t31.5 11q17 0 30.5 -10.5t13.5 -28.5q-1 -5 -2 -13l-22 -134l94 85q15 13 28 13q16 0 30.5 -14t14.5 -35q0 -27 -29 -37l-121 -48l121 -48q29 -10 29 -37z" />
    <glyph glyph-name="plus" unicode="+" horiz-adv-x="778" 
d="M721 250q0 -30 -43 -30h-259v-260q0 -42 -31 -42q-30 0 -30 42v260h-259q-43 0 -43 31q0 30 43 30h259v260q0 42 31 42q30 0 30 -42v-260h259q43 0 43 -31z" />
    <glyph glyph-name="comma" unicode="," horiz-adv-x="278" 
d="M228 31q0 -61 -26 -116.5t-52 -82t-36 -26.5q-6 0 -12.5 6.5t-6.5 13.5q0 6 12 17q78 69 84 175q-18 -18 -52 -18q-36 0 -57 23t-21 55q0 33 21.5 55.5t55.5 22.5q42 0 66 -36t24 -89z" />
    <glyph glyph-name="hyphen" unicode="-" horiz-adv-x="333" 
d="M276 174h-265v97h265v-97z" />
    <glyph glyph-name="period" unicode="." horiz-adv-x="278" 
d="M217 78q0 -32 -23 -55t-55 -23t-55 23t-23 55t23 55t55 23t55 -23t23 -55z" />
    <glyph glyph-name="slash" unicode="/" 
d="M443 719q0 -6 -5 -19l-319 -920q-9 -30 -33 -30q-11 0 -20.5 8.5t-9.5 22.5q0 6 5 19l320 922q10 28 32 28q11 0 20.5 -8.5t9.5 -22.5z" />
    <glyph glyph-name="zero" unicode="0" 
d="M460 319v-37t-2 -43t-5.5 -49t-11 -48t-17.5 -47.5t-26.5 -41t-37 -34.5t-49 -21.5t-62.5 -8.5q-43 0 -77.5 14t-56 34t-37 52.5t-23 58.5t-11.5 64.5t-4.5 57.5t-0.5 49q0 31 0.5 50t4.5 58t11.5 65.5t23 60t37 53.5t56.5 34.5t78 14.5t77.5 -14.5t56 -35t37 -54t23 -60
t11.5 -65.5t4.5 -58t0.5 -49zM332 331q0 145 -4 190q-4 54 -28 76t-51 22q-7 0 -16 -2.5t-23.5 -10.5t-25.5 -30.5t-14 -55.5q-3 -43 -3 -190q0 -148 4 -199q2 -33 11.5 -56t23.5 -33t24 -13.5t20 -3.5q14 0 28 6t30.5 30.5t19.5 64.5q4 48 4 205z" />
    <glyph glyph-name="one" unicode="1" 
d="M430 0q-38 3 -175 3q-134 0 -172 -3v47h112v514q-53 -17 -126 -17v47q140 0 206 64q27 0 33 -4.5t6 -27.5v-576h116v-47z" />
    <glyph glyph-name="two" unicode="2" 
d="M449 222l-31 -222h-368v18q0 21 10 33l158 198q93 116 93 217q0 20 -3.5 40.5t-12.5 45.5t-29.5 40.5t-50.5 15.5q-51 0 -82 -35q27 -5 44 -23.5t17 -48.5q0 -35 -22.5 -53.5t-49.5 -18.5q-25 0 -48.5 17.5t-23.5 56.5q0 63 54 107.5t133 44.5q92 0 152 -53.5t60 -135.5
q0 -77 -70 -148q-10 -9 -46 -41t-46 -41q-13 -12 -58.5 -55.5t-59.5 -55.5h120q86 0 91 8q13 17 22 89h47z" />
    <glyph glyph-name="three" unicode="3" 
d="M457 180q0 -82 -59.5 -136.5t-163.5 -54.5q-83 0 -137.5 44t-54.5 106q0 37 22 57.5t55 20.5t54.5 -21t21.5 -55q0 -32 -18.5 -51.5t-44.5 -24.5q41 -33 97 -33q21 0 36.5 11t22.5 25t11 38t4.5 38t0.5 37q0 27 -1 44.5t-5.5 39.5t-13 34.5t-24.5 21.5t-39 9h-26
q-11 0 -15.5 0.5t-8.5 4.5t-4 13q0 12 6 15t26 5q17 1 26 2.5t20 6t18.5 14.5t14.5 26q15 41 15 103q0 18 -1.5 30t-6.5 29.5t-19 27t-36 9.5q-51 0 -86 -37q36 -4 50 -25t14 -44q0 -29 -19 -49t-51 -20q-29 0 -49 18.5t-20 52.5q0 56 46 99.5t121 43.5q89 0 141.5 -38.5
t52.5 -100.5q0 -61 -39 -103.5t-87 -61.5q83 -19 118 -67.5t35 -103.5z" />
    <glyph glyph-name="four" unicode="4" 
d="M471 0q-39 3 -142 3q-121 0 -156 -3v47h97v109h-242v47l307 438q7 11 12.5 13t18.5 2q20 0 24.5 -6t4.5 -26v-421h76v-47h-76v-109h76v-47zM281 203v290l-204 -290h204z" />
    <glyph glyph-name="five" unicode="5" 
d="M449 202q0 -98 -64.5 -155.5t-164.5 -57.5q-77 0 -123.5 52.5t-46.5 117.5q0 28 14.5 45t28 21t24.5 4q24 0 45.5 -16.5t21.5 -51.5q0 -28 -17.5 -47t-51.5 -20q17 -30 45 -46t56 -16q26 0 48.5 14t31.5 41q11 30 11 121q0 30 -0.5 45t-2 38t-5.5 34.5t-10.5 24.5t-18 18
t-26.5 5q-71 0 -111 -58q-7 -10 -20 -10q-16 0 -19.5 7.5t-3.5 25.5v288q0 10 0.5 15t4 9.5t10.5 4.5l12 -4q65 -28 133 -28t133 27q8 5 13 5q14 0 14 -18q0 -11 -15 -32.5t-41 -46t-69 -42t-90 -17.5q-32 0 -52 5v-126q45 31 105 31q90 0 145.5 -57t55.5 -150z" />
    <glyph glyph-name="six" unicode="6" 
d="M457 205q0 -104 -58.5 -160t-145.5 -56q-43 0 -78 15.5t-56.5 37.5t-37 56t-23 61t-11.5 64t-4.5 53.5t-0.5 39.5q0 80 19 143t47 98.5t65 58.5t68.5 31t61.5 8q66 0 97.5 -38t31.5 -86q0 -31 -17.5 -48t-45.5 -17t-45 18t-17 44q0 28 17.5 44t40.5 19q-21 25 -60 25
q-13 0 -27 -4t-34.5 -16t-36.5 -41t-22 -72q-7 -48 -7 -114q27 49 85 49q81 0 137.5 -54.5t56.5 -158.5zM321 209q0 89 -3 115q-3 25 -19.5 41.5t-42.5 16.5q-27 0 -44 -17.5t-23.5 -51t-8 -55t-1.5 -54.5q0 -95 8 -116q20 -56 64 -56q28 0 45.5 16t21.5 44q3 30 3 117z" />
    <glyph glyph-name="seven" unicode="7" 
d="M485 617q0 -8 -9 -19l-136 -185q-55 -74 -55 -300v-53q0 -30 -13.5 -47.5t-25.5 -20.5t-24 -3q-6 0 -13 1.5t-20 7t-21 21.5t-8 41q0 55 13.5 113t30 99t38.5 80.5t31 53t15 21.5l69 92h-134q-92 0 -97 -8q-12 -15 -23 -89h-47l35 254h47q2 -9 4.5 -13t13 -8.5t31.5 -6.5
q35 -4 80 -4h218v-27z" />
    <glyph glyph-name="eight" unicode="8" 
d="M457 189q0 -86 -55 -143t-154 -57q-90 0 -148 45.5t-58 127.5q0 61 30 98t79 67q-82 54 -82 151q0 75 47.5 126t134.5 51q79 0 129 -39.5t50 -108.5q0 -78 -86 -136q20 -13 33.5 -23.5t35 -33t33 -54.5t11.5 -71zM355 507q0 46 -27 77.5t-80 31.5q-44 0 -74 -20t-30 -58
t41 -64l118 -76q52 41 52 109zM371 133q0 24 -11.5 44t-23.5 29t-37 26q-18 11 -46 28.5t-60 38.5q-65 -54 -65 -136q0 -58 32 -94.5t91 -36.5q52 0 86 26.5t34 74.5z" />
    <glyph glyph-name="nine" unicode="9" 
d="M457 330q0 -81 -17.5 -144t-44.5 -99t-62 -59t-65 -31t-60 -8q-68 0 -104.5 36t-36.5 88q0 31 17.5 48t45.5 17t45 -18t17 -44q0 -25 -14.5 -41.5t-37.5 -20.5q24 -22 66 -22q55 0 87 53q20 36 25 113q1 12 1.5 25t1 28.5t0.5 24.5q-26 -49 -85 -49q-82 0 -138 55
t-56 158q0 98 59 156q59 59 150 59q42 0 76 -15t55 -37t36.5 -56t22.5 -61t11 -63.5t4.5 -53t0.5 -39.5zM321 446q0 90 -7 111q-19 59 -61 59q-31 0 -48 -17t-21 -37q-6 -27 -6 -127q0 -89 3 -115q3 -24 19 -40.5t43 -16.5q46 0 62 49.5t16 133.5z" />
    <glyph glyph-name="colon" unicode=":" horiz-adv-x="278" 
d="M217 366q0 -32 -23 -55t-55 -23t-55 23t-23 55t23 55t55 23t55 -23t23 -55zM217 78q0 -32 -23 -55t-55 -23t-55 23t-23 55t23 55t55 23t55 -23t23 -55z" />
    <glyph glyph-name="semicolon" unicode=";" horiz-adv-x="278" 
d="M217 366q0 -32 -23 -55t-55 -23t-55 23t-23 55t23 55t55 23t55 -23t23 -55zM220 31q0 -37 -9.5 -73.5t-23.5 -63t-29 -47t-27 -31t-17 -10.5q-6 0 -12.5 6.5t-6.5 13.5t15 21q64 67 73 165q-20 -12 -44 -12q-36 0 -57 23t-21 55q0 33 21.5 55.5t55.5 22.5q39 0 60.5 -35
t21.5 -90z" />
    <glyph glyph-name="less" unicode="&#x3c;" horiz-adv-x="894" 
d="M797 -56q0 -11 -8.5 -20.5t-22.5 -9.5q-8 0 -22 7l-623 298q-25 12 -25 32t25 31l626 299q11 6 19 6q14 0 22.5 -9.5t8.5 -20.5q0 -19 -25 -32l-575 -275l575 -274q25 -12 25 -32z" />
    <glyph glyph-name="equal" unicode="=" horiz-adv-x="778" 
d="M721 362q0 -30 -41 -30h-583q-41 0 -41 30q0 31 46 31h573q46 0 46 -31zM721 139q0 -31 -46 -31h-573q-46 0 -46 31q0 30 41 30h583q41 0 41 -30z" />
    <glyph glyph-name="greater" unicode="&#x3e;" horiz-adv-x="894" 
d="M797 251q0 -21 -25 -32l-626 -299q-10 -6 -19 -6q-14 0 -22.5 9.5t-8.5 20.5q0 20 25 32l575 275l-575 274q-25 13 -25 32q0 12 9 21t21 9q9 0 23 -7l623 -298q25 -11 25 -31z" />
    <glyph glyph-name="question" unicode="?" horiz-adv-x="472" 
d="M415 571q0 -62 -52 -97q-117 -80 -117 -189v-29q0 -20 -3.5 -25t-20.5 -5q-16 0 -19.5 4.5t-3.5 22.5v41q0 102 66 200q13 18 17.5 33t4.5 52q0 26 -1 37.5t-7 25t-19.5 18t-37.5 4.5q-54 0 -89 -31q21 -6 34.5 -21.5t13.5 -39.5q0 -29 -18.5 -46t-44.5 -17
q-23 0 -42.5 15.5t-19.5 48.5q0 51 45.5 89t126.5 38q14 0 25.5 -1t36.5 -4t44 -11.5t39 -21.5t31 -36.5t11 -54.5zM300 78q0 -32 -23 -55t-55 -23t-55 23t-23 55t23 55t55 23t55 -23t23 -55z" />
    <glyph glyph-name="at" unicode="@" horiz-adv-x="778" 
d="M721 79l-3 -10q-68 -37 -172 -58q-80 -17 -154 -17q-155 0 -245.5 97.5t-90.5 255.5q0 164 93 258.5t239 94.5q143 0 238 -92.5t95 -264.5q0 -106 -27 -160.5t-89 -54.5q-78 0 -114 40q-45 -40 -104 -40q-83 0 -140.5 57t-57.5 162t57.5 162t140.5 57q93 0 137 -84h34
q22 0 26 -4t4 -25v-232q0 -57 26 -57q20 0 33 14t18.5 41t7 51.5t1.5 61.5q0 155 -74 241q-78 91 -212 91q-123 0 -204 -83t-81 -234q0 -146 78.5 -231.5t209.5 -85.5q124 0 247 56q13 7 31 7h24q28 0 28 -14zM477 478q-35 52 -87 52q-37 0 -62 -47t-25 -136t25 -136t62 -47
q47 0 84 47v242q0 18 3 25z" />
    <glyph glyph-name="A" unicode="A" horiz-adv-x="756" 
d="M720 0q-36 3 -150 3q-127 0 -163 -3v47h83l-47 135h-219l-39 -111l-4 -12q0 -12 78 -12v-47l-118 3l-106 -3v47q38 0 58 2q21 2 26 5.5t9 15.5l212 602q6 18 14 22t24 4q11 0 16 -1t11 -7t10 -18l220 -625h85v-47zM426 229l-93 264l-93 -264h186z" />
    <glyph glyph-name="B" unicode="B" horiz-adv-x="711" 
d="M654 186q0 -78 -56 -132t-160 -54h-404v47h94v592h-94v47h378q103 0 159 -50t56 -122q0 -57 -39 -99t-109 -56q85 -11 130 -59t45 -114zM485 514q0 125 -86 125h-140v-264h117q57 0 83 39t26 100zM507 188q0 64 -21 104q-23 47 -75 47h-152v-292h142q57 0 84 45
q22 37 22 96z" />
    <glyph glyph-name="C" unicode="C" horiz-adv-x="722" 
d="M665 227q0 -88 -71 -163t-186 -75q-155 0 -253.5 95t-98.5 259q0 165 99.5 259.5t251.5 94.5q92 0 163 -62l58 53q10 9 19 9q12 0 15 -5.5t3 -22.5v-215q0 -20 -4 -24t-23 -4q-10 0 -14 0.5t-7.5 4t-4.5 11.5q-15 103 -67.5 155.5t-118.5 52.5q-111 0 -170 -82
q-22 -30 -33 -75.5t-12.5 -74.5t-1.5 -75q0 -76 8 -125t33 -90q27 -44 75 -68t103 -24q73 0 131.5 51.5t58.5 143.5q1 12 6 14.5t17 2.5q14 0 19 -3.5t5 -17.5z" />
    <glyph glyph-name="D" unicode="D" horiz-adv-x="767" 
d="M710 337q0 -160 -86.5 -248.5t-217.5 -88.5h-372v47h94v592h-94v47h372q130 0 217 -91t87 -258zM563 337q0 155 -32 212q-49 90 -167 90h-100v-592h101q117 0 166 85q32 59 32 205z" />
    <glyph glyph-name="E" unicode="E" horiz-adv-x="656" 
d="M627 274l-46 -274h-547v47h94v586h-94v47h534l31 -241h-47q-6 42 -10 64t-16 51.5t-30 43.5t-50 24.5t-77 10.5h-99v-257h22q62 0 78.5 26.5t16.5 90.5h47v-281h-47q0 33 -2 50t-11 35t-29 25t-53 7h-22v-282h103q41 0 71.5 7t51.5 23.5t34.5 33.5t23.5 47.5t15 53
t11 62.5h47z" />
    <glyph glyph-name="F" unicode="F" horiz-adv-x="628" 
d="M585 439h-47q-4 30 -6.5 46t-8.5 40t-13 37t-20.5 29t-30.5 23.5t-42 13t-57 5.5h-90v-269h17q62 0 78 26t16 91h47v-281h-47q0 65 -16 91t-78 26h-17v-270h118v-47q-41 3 -185 3q-134 0 -169 -3v47h94v586h-94v47h520z" />
    <glyph glyph-name="G" unicode="G" horiz-adv-x="786" 
d="M735 229h-69v-201q0 -28 -14 -28q-7 0 -42.5 17.5t-54.5 34.5q-16 -23 -53 -43t-94 -20q-153 0 -252.5 94.5t-99.5 259.5q0 164 99 259t253 95q93 0 163 -62l58 53q10 9 19 9q12 0 15 -5.5t3 -22.5v-215q0 -20 -4 -24t-23 -4q-10 0 -14 0.5t-7.5 4t-4.5 11.5
q-15 104 -68 156t-118 52q-118 0 -178 -93q-40 -62 -40 -214q0 -149 41 -215q32 -50 82 -71t97 -21q19 0 38 5.5t38 28t19 58.5v101h-125v47q44 -3 187 -3q112 0 149 3v-47z" />
    <glyph glyph-name="H" unicode="H" horiz-adv-x="783" 
d="M748 0q-35 3 -165 3t-165 -3v47h94v286h-242v-286h94v-47q-35 3 -165 3t-165 -3v47h94v592h-94v47q35 -3 165 -3t165 3v-47h-94v-259h242v259h-94v47q35 -3 165 -3t165 3v-47h-94v-592h94v-47z" />
    <glyph glyph-name="I" unicode="I" horiz-adv-x="397" 
d="M368 0q-36 3 -170 3t-170 -3v47h99v592h-99v47q36 -3 170 -3t170 3v-47h-99v-592h99v-47z" />
    <glyph glyph-name="J" unicode="J" horiz-adv-x="517" 
d="M459 639h-71v-490q0 -75 -59 -117.5t-153 -42.5q-77 0 -126.5 35t-49.5 90q0 37 23 57t54 20q29 0 52.5 -20t23.5 -57q0 -22 -11 -39.5t-20.5 -24t-18.5 -9.5q31 -16 68 -16q35 0 58 29.5t23 92.5v492h-123v47q41 -3 183 -3q110 0 147 3v-47z" />
    <glyph glyph-name="K" unicode="K" horiz-adv-x="783" 
d="M741 0q-43 3 -134 3q-124 0 -159 -3v47q64 0 64 11q0 3 -6 11l-168 264l-68 -67v-219h94v-47q-35 3 -165 3t-165 -3v47h94v592h-94v47q35 -3 165 -3t165 3v-47h-94v-307l290 286q2 2 9 11q-25 10 -64 10v47q37 -3 130 -3q47 0 92 3v-47q-57 0 -72.5 -5t-37.5 -26
l-188 -185l228 -357q5 -8 9 -11.5t16 -5.5t36 -2h23v-47z" />
    <glyph glyph-name="L" unicode="L" horiz-adv-x="600" 
d="M557 274l-31 -274h-492v47h94v592h-94v47q35 -3 169 -3q144 0 185 3v-47h-118v-592h66q36 0 64.5 11t46 32.5t30 42.5t19 51t9.5 47.5t5 42.5h47z" />
    <glyph glyph-name="M" unicode="M" horiz-adv-x="950" 
d="M915 0q-35 3 -157 3q-121 0 -156 -3v47h94v582h-1l-230 -604q-4 -9 -5.5 -12.5t-8 -8t-15.5 -4.5q-14 0 -19.5 6t-10.5 19l-224 588h-1v-537q0 -17 3.5 -20.5t21.5 -5.5q21 -3 49 -3h20v-47l-121 3l-120 -3v47h20q28 0 50 3q18 2 21 5.5t3 20.5v563h-94v47h209
q20 0 27 -4.5t14 -21.5l191 -502l191 503q6 17 14 21t27 4h208v-47h-94v-592h94v-47z" />
    <glyph glyph-name="N" unicode="N" horiz-adv-x="783" 
d="M748 639h-20q-28 0 -50 -3q-18 -2 -21 -5.5t-3 -20.5v-578q0 -20 -4 -26t-23 -6q-18 0 -27 13l-419 576v-513q0 -17 3.5 -20.5t21.5 -5.5q21 -3 49 -3h20v-47l-121 3l-120 -3v47h20q28 0 50 3q18 2 21 5.5t3 20.5v563h-94v47h208q16 0 21.5 -2t13.5 -13l324 -446v385
q0 17 -3.5 20.5t-21.5 5.5q-21 3 -49 3h-20v47l121 -3l120 3v-47z" />
    <glyph glyph-name="O" unicode="O" horiz-adv-x="750" 
d="M693 339q0 -164 -89 -257t-230 -93q-137 0 -227.5 92t-90.5 258q0 168 89.5 263t229.5 95q137 0 227.5 -94t90.5 -264zM540 353q0 135 -27 200q-21 50 -58 77t-81 27q-39 0 -76.5 -24t-60.5 -76q-28 -65 -28 -204q0 -151 32 -223q20 -45 55 -72t79 -27q42 0 79 28t56 75
q20 49 25 97t5 122z" />
    <glyph glyph-name="P" unicode="P" horiz-adv-x="683" 
d="M626 491q0 -87 -64 -138t-160 -51h-132v-255h94v-47q-35 3 -165 3t-165 -3v47h94v592h-94v47h359q108 0 170.5 -55t62.5 -140zM473 491q0 34 -1 50t-7 39t-18 33t-36 18t-59 8h-88v-296h88q35 0 59 8t36 18.5t18 33.5t7 39t1 49z" />
    <glyph glyph-name="Q" unicode="Q" horiz-adv-x="750" 
d="M699 -10q0 -20 -4 -45t-15 -59.5t-37.5 -57t-64.5 -22.5q-28 0 -48 11t-32 25.5t-20.5 44.5t-12.5 50.5t-9 60.5q-27 -9 -81 -9q-140 0 -229.5 92.5t-89.5 257.5q0 168 89.5 263t229.5 95q137 0 227.5 -94t90.5 -264q0 -42 -7 -82.5t-25 -87t-55.5 -86.5t-91.5 -65
q15 -27 31 -41t24.5 -16t22.5 -2q65 0 71 38q3 21 18 21q18 0 18 -28zM546 340q0 135 -26 202q-23 58 -62.5 86.5t-83.5 28.5q-40 0 -81.5 -27.5t-66.5 -95.5q-23 -65 -23 -194q0 -48 2.5 -80.5t10 -73t25.5 -72.5t47 -54l-1 13q0 34 25.5 58t62.5 24q63 0 106 -77
q30 31 45.5 85t17.5 88.5t2 88.5zM446 49q-16 70 -70 70q-24 0 -38.5 -14t-14.5 -32q0 -8 2.5 -16t15 -18t34.5 -10q39 0 71 20z" />
    <glyph glyph-name="R" unicode="R" horiz-adv-x="760" 
d="M756 94q0 -8 -3.5 -21.5t-12.5 -34.5t-32.5 -35t-57.5 -14q-166 0 -199 91q-7 22 -7 89q0 53 -3 74.5t-17 43.5q-24 38 -74 38h-86v-278h94v-47q-35 3 -162 3t-162 -3v47h94v592h-94v47h333q124 0 195.5 -53t71.5 -133q0 -54 -40.5 -98.5t-111.5 -62.5q88 -38 103 -120
q1 -2 10 -74q4 -31 7 -46.5t9.5 -36t17.5 -29t28 -8.5q21 0 35 18t17 51q1 13 5.5 18t17.5 5q24 0 24 -23zM481 500q0 35 -2.5 53t-14 41.5t-41 34t-77.5 10.5h-82v-278h80q40 0 67 8.5t40.5 19.5t20.5 33t8 36t1 42z" />
    <glyph glyph-name="S" unicode="S" horiz-adv-x="556" 
d="M499 203q0 -93 -51.5 -153.5t-145.5 -60.5q-100 0 -167 51l-28 -28q-18 -17 -22 -20t-11 -3q-12 0 -15 5.5t-3 22.5v182q0 19 3.5 24t20.5 5q8 0 12.5 -1t7 -4t3 -6.5t0.5 -11.5q2 -49 23 -84.5t52.5 -53t61.5 -24.5t61 -7q55 0 78 35.5t23 81.5q0 83 -66 113
q-19 6 -68 17q-76 19 -106 32t-58 46q-48 59 -48 136q0 87 52 143.5t143 56.5q84 0 143 -50l27 27q18 17 22 20t11 3q12 0 15 -5.5t3 -22.5v-183q0 -18 -3.5 -23t-20.5 -5q-12 0 -17 3t-7 14q-24 179 -172 179q-51 0 -75 -31.5t-24 -73.5q0 -35 18 -62.5t45 -37.5
q7 -2 73 -19q52 -13 74 -20t47 -23t45 -44q44 -60 44 -140z" />
    <glyph glyph-name="T" unicode="T" horiz-adv-x="694" 
d="M657 434h-47q-3 43 -6 64t-12 51t-23 44t-40 24.5t-63 10.5h-48v-581h134v-47q-48 3 -205 3t-205 -3v47h134v581h-49q-27 0 -48 -5.5t-35 -13t-24.5 -24t-16.5 -28.5t-10 -37t-5.5 -40t-4.5 -46h-47l21 241h579z" />
    <glyph glyph-name="U" unicode="U" horiz-adv-x="769" 
d="M734 639h-20q-28 0 -50 -3q-18 -2 -21 -5.5t-3 -20.5v-383q0 -103 -62.5 -170.5t-173.5 -67.5q-127 0 -201.5 67.5t-74.5 172.5v410h-94v47q35 -3 165 -3t165 3v-47h-94v-429q0 -174 138 -174q73 0 126 45.5t53 148.5v380q0 17 -3.5 20.5t-21.5 5.5q-21 3 -49 3h-20v47
l121 -3l120 3v-47z" />
    <glyph glyph-name="V" unicode="V" horiz-adv-x="756" 
d="M733 639q-39 0 -57.5 -2.5t-23 -6.5t-8.5 -14l-229 -599q-4 -10 -7 -14.5t-10 -7.5t-21 -3q-19 0 -25.5 5.5t-11.5 19.5l-237 622h-81v47q36 -3 147 -3q126 0 162 3v-47h-82l173 -455l169 445q-25 10 -77 10v47l117 -3l102 3v-47z" />
    <glyph glyph-name="W" unicode="W" horiz-adv-x="1033" 
d="M1011 639q-52 0 -65 -4.5t-18 -18.5l-202 -599q-4 -13 -11 -19t-22 -6q-17 0 -23 5.5t-11 20.5l-143 423l-143 -424q-9 -25 -34 -25q-16 0 -22.5 5.5t-10.5 19.5l-210 622h-75v47q39 -3 142 -3q125 0 161 3v-47h-84l147 -434l104 310l-42 124h-75v47q39 -3 142 -3
q125 0 161 3v-47h-84l147 -434l142 423q-28 11 -89 11v47q41 -3 122 -3q47 0 96 3v-47z" />
    <glyph glyph-name="X" unicode="X" horiz-adv-x="756" 
d="M727 0q-37 3 -148 3q-128 0 -164 -3v47h73l-141 232l-142 -221q30 -11 84 -11v-47q-37 3 -138 3l-122 -3v47h24q63 0 88 10l175 272l-189 310h-85v47q36 -3 148 -3q128 0 164 3v-47h-73l114 -188l106 165l7 12q-31 11 -84 11v47q36 -3 138 -3l122 3v-47h-24q-30 0 -54 -3
q-22 -2 -27.5 -5t-13.5 -14l-139 -216l216 -354h85v-47z" />
    <glyph glyph-name="Y" unicode="Y" horiz-adv-x="756" 
d="M739 639q-41 0 -61.5 -2.5t-25.5 -6t-10 -12.5l-197 -344v-227h95v-47q-35 3 -163 3q-127 0 -162 -3v47h94v227l-208 365h-85v47q36 -3 150 -3q131 0 167 3v-47h-75l167 -293l162 283q-24 10 -69 10v47l119 -3l102 3v-47z" />
    <glyph glyph-name="Z" unicode="Z" horiz-adv-x="611" 
d="M560 284l-18 -284h-454q-13 0 -18.5 1t-9.5 6.5t-4 18.5q0 14 7 26l334 587h-94q-41 0 -73 -9t-51.5 -27t-32 -35.5t-18.5 -43.5t-8.5 -41t-3.5 -38h-47l12 241h441q13 0 18.5 -1t9.5 -6.5t4 -17.5t-7 -24l-333 -586h100q30 0 55.5 5t44 12.5t33.5 21t24.5 25t17 31.5
t11.5 33t7 36t4 34.5t2 34.5h47z" />
    <glyph glyph-name="bracketleft" unicode="[" horiz-adv-x="280" 
d="M257 -250h-150v1000h150v-61h-89v-878h89v-61z" />
    <glyph glyph-name="backslash" unicode="\" horiz-adv-x="575" 
d="M510 -219q0 -14 -9.5 -22.5t-20.5 -8.5q-10 0 -17 5t-9.5 10t-6.5 15l-377 919q-6 16 -6 20q0 14 9.5 22.5t20.5 8.5q10 0 16.5 -4.5t9 -9.5t7.5 -16l377 -919q6 -16 6 -20z" />
    <glyph glyph-name="bracketright" unicode="]" horiz-adv-x="280" 
d="M172 -250h-150v61h89v878h-89v61h150v-1000z" />
    <glyph glyph-name="asciicircum" unicode="^" horiz-adv-x="556" 
d="M561 584l-12 -22l-272 123l-271 -123l-11 22l283 160z" />
    <glyph glyph-name="underscore" unicode="_" horiz-adv-x="756" 
d="M756 -149h-756v48h756v-48z" />
    <glyph glyph-name="grave" unicode="`" 
d="M315 544l-33 -33l-129 84q-32 21 -32 49q0 24 19 43t43 19q29 0 48 -30z" />
    <glyph glyph-name="a" unicode="a" horiz-adv-x="486" 
d="M480 24q0 -16 -7 -20t-25 -4h-42q-32 0 -52.5 8t-27.5 22t-9 23t-2 21q-37 -80 -123 -80q-65 0 -117 29t-52 86q0 74 79 114t196 42v36q0 53 -21.5 84.5t-64.5 31.5q-28 0 -59 -6q23 -18 23 -50q0 -30 -19 -46.5t-44 -16.5q-23 0 -42.5 16.5t-19.5 46.5q0 25 14.5 44
t33 27.5t45 13.5t41 6t30.5 1q92 0 144.5 -41t52.5 -112v-216q0 -13 1.5 -19t12.5 -11.5t33 -6.5q7 -1 10.5 -2t7 -6.5t3.5 -14.5zM298 138v95q-14 -1 -27 -3t-39 -10t-44.5 -20t-33 -36t-14.5 -55t17.5 -55t46.5 -24q31 0 62.5 25.5t31.5 82.5z" />
    <glyph glyph-name="b" unicode="b" horiz-adv-x="556" 
d="M522 222q0 -107 -62.5 -167.5t-157.5 -60.5q-72 0 -121 53l-48 -47h-48v600q0 28 -10.5 33.5t-58.5 5.5v47l177 8v-286q53 42 121 42q88 0 148 -59.5t60 -168.5zM394 223q0 96 -12 129q-9 29 -30 45.5t-48 16.5q-61 0 -105 -57v-268q39 -59 95 -59q27 0 50.5 16t34.5 42
q15 38 15 135z" />
    <glyph glyph-name="c" unicode="c" horiz-adv-x="444" 
d="M415 117q0 -5 -4 -17t-16 -31t-29.5 -35t-48.5 -28t-69 -12q-92 0 -153.5 60.5t-61.5 167.5q0 105 59.5 168t158.5 63q65 0 109 -23t44 -69q0 -30 -19 -46.5t-44 -16.5q-23 0 -42.5 16.5t-19.5 46.5q0 29 20 47q-27 5 -45 5q-22 0 -39 -9t-26.5 -26.5t-15.5 -33.5
t-8.5 -41.5t-3 -39.5t-0.5 -36q0 -91 19 -132q28 -61 85 -61q74 0 103 84q3 9 7 11t16 2q24 0 24 -14z" />
    <glyph glyph-name="d" unicode="d" horiz-adv-x="556" 
d="M539 0l-183 -6v41q-50 -41 -114 -41q-89 0 -149 59.5t-60 168.5q0 107 62.5 167.5t156.5 60.5q61 0 110 -38v188q0 28 -10.5 33.5t-58.5 5.5v47l177 8v-608q0 -28 10.5 -33.5t58.5 -5.5v-47zM356 94v267q-38 53 -94 53q-31 0 -54.5 -17.5t-34.5 -47.5q-12 -35 -12 -128
q0 -94 11 -128q22 -63 79 -63q64 0 105 64z" />
    <glyph glyph-name="e" unicode="e" horiz-adv-x="467" 
d="M438 117q0 -10 -9.5 -28.5t-29 -40.5t-56.5 -38t-84 -16q-101 0 -166 62.5t-65 168.5q0 104 60.5 166t158.5 62q55 0 94.5 -19t59.5 -51t28.5 -65.5t8.5 -70.5q0 -20 -6 -24.5t-26 -4.5h-250q0 -22 0.5 -35t3.5 -38t10 -41.5t19 -34t32 -26.5t47 -9q35 0 70.5 20t51.5 62
q4 12 8 15.5t16 3.5q24 0 24 -18zM343 251q0 19 -2 37.5t-9.5 52.5t-29 55t-54.5 21q-89 0 -92 -166h187z" />
    <glyph glyph-name="f" unicode="f" horiz-adv-x="306" 
d="M398 613q0 -29 -18.5 -45.5t-43.5 -16.5q-23 0 -42 16t-19 46q0 33 24 50q-4 1 -11 1t-14 -1t-22 -7t-26 -17.5t-19.5 -35.5t-8.5 -57v-102h99v-47h-93v-350h87v-47q-36 3 -138 3l-126 -3v47h69v350h-58v47h58v101q0 79 58 117t137 38q51 0 79 -26t28 -61z" />
    <glyph glyph-name="g" unicode="g" 
d="M485 397q0 -18 -12 -30.5t-31 -12.5t-31 12t-12 31q0 9 3 18q-23 -7 -37 -16q37 -41 37 -97q0 -62 -46.5 -105t-133.5 -43q-62 0 -108 25q-9 -12 -9 -35q0 -26 15.5 -42.5t36.5 -18.5h58q39 0 60 -1t57 -4.5t56.5 -13.5t42.5 -26.5t32 -44t10 -64.5q0 -56 -56.5 -93
t-167.5 -37q-119 0 -171 39.5t-52 86.5q0 59 71 86q-41 34 -41 93q0 48 34 92q-48 38 -48 106q0 63 47 105.5t133 42.5q72 0 118 -32q41 37 89 37q28 0 42 -18.5t14 -39.5zM291 302q0 26 -1.5 40t-7 33.5t-21 29t-39.5 9.5q-20 0 -33.5 -7.5t-20.5 -16.5t-10.5 -27t-4 -29
t-0.5 -32q0 -26 1.5 -40t7 -33.5t21 -29t39.5 -9.5q20 0 33.5 7.5t20.5 16.5t10.5 27t4 29t0.5 32zM387 -75q0 62 -120 62h-94q-61 0 -61 -60q0 -39 34 -65.5t104 -26.5q71 0 104 27.5t33 62.5z" />
    <glyph glyph-name="h" unicode="h" horiz-adv-x="556" 
d="M553 0l-125 3l-123 -3v47h65v274q0 41 -6.5 63t-13 26t-16.5 4q-45 0 -86 -41t-41 -117v-209h69v-47l-126 3l-126 -3v47h69v553q0 28 -10.5 33.5t-58.5 5.5v47l177 8v-335h1q50 91 147 91q77 0 106 -38t29 -103v-262h69v-47z" />
    <glyph glyph-name="i" unicode="i" horiz-adv-x="278" 
d="M265 0l-117 3l-122 -3v47h69v309q0 28 -10 33.5t-56 5.5v47l174 8v-403h62v-47zM217 609q0 -31 -22.5 -54.5t-56.5 -23.5q-32 0 -55 23t-23 55q0 31 22.5 54.5t56.5 23.5q32 0 55 -23t23 -55z" />
    <glyph glyph-name="j" unicode="j" horiz-adv-x="306" 
d="M242 -42q0 -73 -51.5 -115.5t-119.5 -42.5q-56 0 -94.5 24.5t-38.5 66.5q0 27 17.5 45t45.5 18q27 0 44.5 -18t17.5 -44q0 -34 -26 -51q15 -5 32 -5q20 0 34 12.5t20 33t8.5 38t2.5 36.5v399q0 13 -1 19t-6 11.5t-15 7.5q-15 2 -54 2v47l184 8v-492zM242 609
q0 -31 -22.5 -54.5t-56.5 -23.5q-32 0 -55 23t-23 55q0 31 22.5 54.5t56.5 23.5q32 0 55 -23t23 -55z" />
    <glyph glyph-name="k" unicode="k" horiz-adv-x="528" 
d="M511 0q-66 3 -101 3l-120 -3v47q37 0 37 10q0 4 -43.5 68.5t-59.5 86.5l-36 -33v-132h69v-47l-121 3l-120 -3v47h69v553q0 28 -10.5 33.5t-58.5 5.5v47l177 8v-446l139 128q8 4 8 10q0 11 -43 11v47q39 -3 114 -3q54 0 77 3v-47q-31 0 -48 -2.5t-23 -6t-14 -10.5
l-107 -99l145 -213q7 -11 11 -14t15 -4t44 -1v-47z" />
    <glyph glyph-name="l" unicode="l" horiz-adv-x="278" 
d="M272 0l-123 3l-123 -3v47h69v553q0 28 -10.5 33.5t-58.5 5.5v47l177 8v-647h69v-47z" />
    <glyph glyph-name="m" unicode="m" horiz-adv-x="833" 
d="M830 0l-125 3l-123 -3v47h65v274q0 41 -6.5 63t-13 26t-16.5 4q-45 0 -86 -41t-41 -117v-209h69v-47l-125 3l-123 -3v47h65v274q0 41 -6.5 63t-13 26t-16.5 4q-45 0 -86 -41t-41 -117v-209h69v-47l-126 3l-126 -3v47h69v309q0 28 -10.5 33.5t-58.5 5.5v47l172 8v-101h1
q49 101 152 101q111 0 131 -91q47 91 146 91q77 0 106 -38t29 -103v-262h69v-47z" />
    <glyph glyph-name="n" unicode="n" horiz-adv-x="556" 
d="M553 0l-125 3l-123 -3v47h65v274q0 41 -6.5 63t-13 26t-16.5 4q-45 0 -86 -41t-41 -117v-209h69v-47l-126 3l-126 -3v47h69v309q0 28 -10.5 33.5t-58.5 5.5v47l172 8v-101h1q49 101 152 101q77 0 106 -38t29 -103v-262h69v-47z" />
    <glyph glyph-name="o" unicode="o" 
d="M471 219q0 -104 -61 -164.5t-161 -60.5q-98 0 -159.5 60t-61.5 165q0 107 61.5 170.5t159.5 63.5q100 0 161 -64t61 -170zM343 229q0 94 -9 127q-7 25 -30.5 43t-54.5 18q-29 0 -53 -16.5t-31 -44.5q-9 -32 -9 -127q0 -96 8 -129q8 -31 32 -48.5t54 -17.5q28 0 52 17
t31 45q10 34 10 133z" />
    <glyph glyph-name="p" unicode="p" horiz-adv-x="556" 
d="M522 223q0 -108 -63 -168.5t-157 -60.5q-58 0 -103 36v-177h69v-47l-126 3l-126 -3v47h69v509q0 12 -0.5 17t-5 9t-13.5 5q-11 2 -50 2v47l177 8v-43q55 43 124 43q88 0 146.5 -60.5t58.5 -166.5zM394 223q0 89 -25.5 138t-65.5 49q-59 0 -104 -56v-265q37 -59 94 -59
q42 0 71.5 48t29.5 145z" />
    <glyph glyph-name="q" unicode="q" horiz-adv-x="528" 
d="M539 -194l-126 3l-126 -3v47h69v185q-50 -44 -114 -44q-88 0 -148.5 59.5t-60.5 168.5q0 108 63 168t154 60q80 0 127 -70l52 70h41v-597h69v-47zM362 132v158q0 40 -28 80t-72 40q-41 0 -71 -46t-30 -143q0 -90 25.5 -140.5t65.5 -50.5q43 0 77 34q33 35 33 68z" />
    <glyph glyph-name="r" unicode="r" horiz-adv-x="428" 
d="M400 368q0 -28 -18.5 -44.5t-42.5 -16.5t-42.5 16t-18.5 45q0 13 5 24.5t9 16.5l5 5q-32 0 -53.5 -18t-32 -48.5t-14.5 -59.5t-4 -62v-179h87v-47q-36 3 -138 3l-126 -3v47h69v309q0 28 -10.5 33.5t-58.5 5.5v47l166 8v-91h1q30 91 110 91q41 0 74 -21.5t33 -60.5z" />
    <glyph glyph-name="s" unicode="s" horiz-adv-x="394" 
d="M360 139q0 -63 -37.5 -104t-123.5 -41q-57 0 -97 28q-16 -10 -24 -16q-18 -12 -27 -12q-12 0 -15 6t-3 22v109q0 19 3.5 24t20.5 5q14 0 17.5 -3t6.5 -14q14 -55 41 -84t77 -29q90 0 90 74q0 29 -19 47.5t-36 23.5t-46 11t-44.5 10t-36 14t-35.5 25q-39 39 -39 87
q0 38 14.5 65t39 40.5t50.5 19.5t56 6q52 0 83 -18q33 18 41 18q12 0 15 -5.5t3 -22.5v-80q0 -19 -3.5 -23.5t-20.5 -4.5q-14 0 -18 3.5t-5 15.5q-1 14 -3.5 23.5t-11 26t-29 26t-51.5 9.5q-89 0 -89 -62q0 -17 8 -29.5t26.5 -20t29.5 -11t37 -8.5q27 -5 41 -8.5t34 -14
t35 -25.5q45 -42 45 -103z" />
    <glyph glyph-name="t" unicode="t" horiz-adv-x="390" 
d="M333 122q0 -51 -26 -89.5t-79 -38.5q-146 0 -146 129v274h-63v36q68 3 98.5 63.5t31.5 138.5h47v-191h121v-47h-121v-279q0 -84 45 -84q21 0 33 24t12 65v54h47v-55z" />
    <glyph glyph-name="u" unicode="u" horiz-adv-x="556" 
d="M553 0l-177 -6v68h-1q-38 -68 -118 -68q-79 0 -121.5 28.5t-42.5 99.5v234q0 28 -10.5 33.5t-58.5 5.5v47l183 8v-345q0 -45 10 -60t54 -15q46 0 72.5 38t26.5 95v193q0 28 -10.5 33.5t-58.5 5.5v47l183 8v-364q0 -28 10.5 -33.5t58.5 -5.5v-47z" />
    <glyph glyph-name="v" unicode="v" horiz-adv-x="528" 
d="M505 397q-43 0 -54 -4.5t-16 -17.5l-136 -352q-4 -10 -6.5 -14.5t-9.5 -8.5t-19 -4q-14 0 -22 5t-15 23l-143 373h-62v47l112 -3l123 3v-47h-57l96 -250l87 226l4 12q0 12 -51 12v47q42 -3 90 -3q42 0 79 3v-47z" />
    <glyph glyph-name="w" unicode="w" horiz-adv-x="722" 
d="M700 397q-40 0 -50.5 -4.5t-15.5 -18.5l-123 -352q-9 -26 -34 -26q-14 0 -21.5 4.5t-13.5 21.5l-82 234l-82 -235q-3 -9 -5.5 -13.5t-9.5 -8t-19 -3.5q-16 0 -22.5 6t-11.5 21l-131 374h-58v47l106 -3l109 3v-47h-42l83 -237l54 155l4 12l-24 70h-46v47q45 -3 90 -3
l112 3v-47h-59l92 -262l84 237l4 15q-22 10 -61 10v47l96 -3q41 0 77 3v-47z" />
    <glyph glyph-name="x" unicode="x" horiz-adv-x="528" 
d="M511 0l-107 3l-119 -3v47h46l-85 123l-81 -112q16 -10 46 -11v-47l-102 3q-46 0 -91 -3v47q30 0 43.5 0.5t28.5 5t22 13.5l106 145l-128 186h-68v47q54 -3 107 -3l118 3v-47h-46l75 -108l70 97q-18 11 -47 11v47l103 -3q43 0 91 3v-47q-38 0 -58 -2.5t-25.5 -6
t-11.5 -11.5l-94 -128l139 -202h68v-47z" />
    <glyph glyph-name="y" unicode="y" horiz-adv-x="528" 
d="M505 397q-44 0 -55 -4.5t-17 -19.5l-177 -457q-17 -44 -55 -80t-89 -36q-40 0 -66.5 27.5t-26.5 64.5q0 28 17 43t40 15q25 0 41.5 -16t16.5 -41q0 -40 -37 -55q8 -2 16 -2q48 0 81 56q13 23 44 108l-154 397h-62v47l112 -3l123 3v-47h-56l96 -247l85 222l5 13q0 5 -13 8
t-26 3l-13 1v47q39 -3 91 -3q42 0 79 3v-47z" />
    <glyph glyph-name="z" unicode="z" horiz-adv-x="444" 
d="M401 202l-18 -202h-323q-12 0 -17.5 1t-10 6t-4.5 15q0 11 8 22l233 364h-53q-75 0 -98.5 -31t-28.5 -108h-47l12 175h313q12 0 17 -0.5t10 -5.5t5 -15q0 -9 -8 -21l-232 -362h55q36 0 61 8.5t39 20t22.5 35.5t11.5 43.5t6 54.5h47z" />
    <glyph glyph-name="braceleft" unicode="{" horiz-adv-x="575" 
d="M496 -232q0 -12 -6 -15t-25 -3q-21 0 -41 1.5t-49 6t-52.5 14t-45 24t-33.5 38.5t-12 55v210q0 39 -2 47q-8 32 -41 57.5t-94 28.5q-17 1 -17 18q0 8 3 12t6.5 4.5t12.5 1.5q62 3 99 37q23 20 28 40t5 72v206q1 58 64 92.5t169 34.5q13 0 18.5 -0.5t9 -4.5t3.5 -13
q0 -8 -3 -12t-6.5 -4.5t-12.5 -1.5q-53 -3 -92 -28q-39 -29 -39 -80v-210q0 -19 -1 -30t-7 -31t-17.5 -33.5t-35.5 -28t-58 -23.5q60 -16 89 -48t30 -68v-237q0 -25 3 -35q23 -69 133 -76q17 -1 17 -18z" />
    <glyph glyph-name="bar" unicode="|" horiz-adv-x="319" 
d="M190 -206q0 -44 -31 -44q-30 0 -30 44v912q0 44 31 44q30 0 30 -44v-912z" />
    <glyph glyph-name="braceright" unicode="}" horiz-adv-x="575" 
d="M496 250q0 -8 -3 -12t-6.5 -4.5t-12.5 -1.5q-65 -4 -97 -36q-24 -22 -29 -41t-5 -72v-206q-1 -56 -62.5 -91.5t-171.5 -35.5q-13 0 -18 0.5t-9 4.5t-4 13q0 8 3 12t6.5 4.5t12.5 1.5q57 3 95 30q17 13 26 28.5t10 24.5t1 25v210q0 19 1 30t7 31t17.5 33.5t35.5 28
t58 23.5q-61 17 -89.5 48.5t-29.5 67.5v237q0 25 -3 35q-22 70 -134 76q-17 1 -17 18q0 12 6.5 15t24.5 3q38 0 72.5 -5t74 -18t63.5 -43t24 -73v-210q0 -41 3 -49q24 -79 133 -84q17 -1 17 -18z" />
    <glyph glyph-name="asciitilde" unicode="~" horiz-adv-x="556" 
d="M555 290l-54 -44q-20 -17 -57 -35q-40 -18 -73 -18q-42 0 -100 34q-65 37 -104 37q-68 0 -153 -71l-14 17l54 44q20 17 57 35q40 18 73 18q42 0 100 -34q65 -37 104 -37q68 0 153 71z" />
    <glyph glyph-name="uni00A0" unicode="&#xa0;" 
 />
    <glyph glyph-name="exclamdown" unicode="&#xa1;" horiz-adv-x="306" 
d="M231 422q0 -32 -23 -55t-55 -23t-55 23t-23 55t23 55t55 23t55 -23t23 -55zM232 -134q0 -29 -23.5 -50t-55.5 -21t-55.5 21t-23.5 50l2 13l52 370q2 17 6 21t19 4q14 0 18.5 -4t6.5 -18l52 -368q2 -10 2 -18z" />
    <glyph glyph-name="cent" unicode="&#xa2;" horiz-adv-x="444" 
d="M415 117q0 -4 -3.5 -15.5t-14 -29t-26 -33.5t-43 -28.5t-60.5 -15.5v-43q0 -10 -7 -17t-17 -7t-17 7t-7 17v43q-82 9 -134.5 69t-52.5 158q0 96 50.5 157.5t136.5 71.5v41q0 10 7 17t17 7t17 -7t7 -17v-39q60 -3 98 -26t38 -66q0 -30 -19 -46.5t-44 -16.5
q-23 0 -42.5 16.5t-19.5 46.5q0 29 20 47q-24 4 -31 5v-379q71 2 100 84q3 9 7 11t16 2q24 0 24 -14zM220 47v359q-17 -7 -29 -24t-17.5 -34t-8.5 -43.5t-3.5 -40.5t-0.5 -37q0 -91 19 -132q15 -32 40 -48z" />
    <glyph glyph-name="sterling" unicode="&#xa3;" horiz-adv-x="756" 
d="M704 148q0 -74 -26.5 -126.5t-80.5 -52.5q-14 0 -29.5 2.5t-27 5t-28 9.5t-25.5 10.5t-27 14l-24 14t-26.5 16t-24.5 15.5q-39 -67 -221 -67q-46 0 -79 25t-33 65q0 46 45.5 67.5t110.5 21.5q38 0 75 -14q-2 20 -8 44t-10.5 38t-15 44t-13.5 39h-116v48h101
q-10 42 -10 77q0 99 65.5 170.5t159.5 71.5q78 0 135 -48.5t57 -120.5q0 -26 -18.5 -44.5t-44.5 -18.5t-44.5 18.5t-18.5 44.5q0 25 17 43t41 20q-42 58 -124 58q-57 0 -84 -56.5t-27 -137.5q0 -40 9 -77h163v-48h-151q3 -12 15.5 -52t17.5 -58.5t10.5 -50t5.5 -58.5
q84 -43 141 -43q49 0 84.5 25.5t35.5 65.5h48zM283 107q-39 13 -75 13h-26t-24 -1.5t-23.5 -4t-17.5 -6.5t-13 -11.5t-4 -17.5q0 -20 19 -31t45 -11q43 0 77 18.5t42 51.5z" />
    <glyph glyph-name="currency" unicode="&#xa4;" horiz-adv-x="778" 
d="M624 485q21 -21 -9 -51l-54 -54q43 -57 43 -130q0 -72 -43 -129l54 -54q30 -30 8 -52q-21 -21 -51 9l-54 54q-57 -44 -129 -44q-71 0 -130 44l-54 -54q-30 -30 -52 -8q-21 21 9 51l54 54q-43 57 -43 129t43 129l-54 55q-30 30 -8 52q21 21 51 -9l55 -54q57 43 129 43
t129 -43l54 54q30 30 52 8zM544 250q0 65 -45.5 110.5t-109.5 45.5q-65 0 -110.5 -46t-45.5 -110t45.5 -110t110.5 -46q64 0 109.5 45.5t45.5 110.5z" />
    <glyph glyph-name="yen" unicode="&#xa5;" horiz-adv-x="756" 
d="M739 639q-41 0 -61.5 -2.5t-25.5 -6t-10 -12.5l-155 -270h117v-48h-144l-15 -26v-74h159v-48h-159v-105h95v-47q-35 3 -163 3q-127 0 -162 -3v47h94v105h-158v48h158v74l-15 26h-143v48h116l-166 291h-85v47q36 -3 150 -3q131 0 167 3v-47h-75l166 -291h2l161 281
q-24 10 -69 10v47l119 -3l102 3v-47z" />
    <glyph glyph-name="brokenbar" unicode="&#xa6;" horiz-adv-x="319" 
d="M190 341q0 -10 -9 -17t-21 -7t-21.5 7t-9.5 17v365q0 44 31 44q30 0 30 -44v-365zM190 -206q0 -44 -31 -44q-30 0 -30 44v365q0 10 9.5 17t21.5 7t21 -7t9 -17v-365z" />
    <glyph glyph-name="section" unicode="&#xa7;" horiz-adv-x="604" 
d="M550 200q0 -76 -85 -126q36 -51 36 -106q0 -76 -59 -128t-140 -52q-72 0 -123 51t-51 124q0 26 18.5 44.5t44.5 18.5t44.5 -18.5t18.5 -44.5q0 -23 -14.5 -40t-35.5 -22q37 -35 98 -35q42 0 71.5 30t29.5 72q0 21 -16.5 39.5t-32.5 27t-46 22.5l-102 45
q-67 31 -109.5 82.5t-42.5 115.5q0 76 85 125q-36 51 -36 107q0 76 59 128t140 52q72 0 123 -51t51 -124q0 -26 -18.5 -44.5t-44.5 -18.5t-44.5 18.5t-18.5 44.5q0 23 14.5 40t35.5 22q-37 35 -98 35q-42 0 -71.5 -30t-29.5 -72q0 -21 16.5 -39.5t32.5 -27t46 -22.5l102 -45
q67 -31 109.5 -82.5t42.5 -115.5zM440 200q0 54 -89 94l-102 45q-37 16 -70 44q-15 -27 -15 -83q0 -54 89 -94l102 -45q36 -17 70 -44q15 25 15 83z" />
    <glyph glyph-name="dieresis" unicode="&#xa8;" 
d="M192 609q0 -28 -20 -49t-51 -21q-29 0 -49.5 20.5t-20.5 49.5q0 28 20 49t51 21q29 0 49.5 -20.5t20.5 -49.5zM450 609q0 -28 -20 -49t-51 -21q-29 0 -49.5 20.5t-20.5 49.5q0 28 20 49t51 21q29 0 49.5 -20.5t20.5 -49.5z" />
    <glyph glyph-name="copyright" unicode="&#xa9;" horiz-adv-x="686" 
d="M686 343q0 -142 -100.5 -242.5t-242.5 -100.5t-242.5 100.5t-100.5 242.5t100.5 242.5t242.5 100.5q143 0 243 -100t100 -243zM626 343q0 117 -83 200t-200 83t-200 -83t-83 -200t83 -200t200 -83t200 83t83 200zM475 285q0 -44 -35.5 -81.5t-92.5 -37.5
q-77 0 -126.5 47.5t-49.5 129.5t49.5 129.5t125.5 47.5q46 0 82 -31l29 26q5 5 9 5q9 0 9 -14v-108q0 -10 -2 -12t-11 -2q-12 0 -13 8q-8 52 -34 78t-59 26q-56 0 -85 -41q-24 -32 -24 -112q0 -73 21 -107q27 -46 89 -46q36 0 65.5 25.5t29.5 71.5q0 9 11 9q7 0 9.5 -2
t2.5 -9z" />
    <glyph glyph-name="ordfeminine" unicode="&#xaa;" horiz-adv-x="431" 
d="M407 397q0 -12 -5.5 -14.5t-20.5 -2.5h-36q-27 0 -44 5.5t-23 15.5t-7.5 16t-1.5 15q-32 -56 -104 -56q-55 0 -98 20t-43 60q0 52 66 80t165 30v25q0 37 -18 59t-55 22q-26 0 -49 -4q19 -13 19 -35q0 -21 -16 -32.5t-37 -11.5q-20 0 -36 11.5t-16 32.5q0 64 138 64
q77 0 121 -28.5t44 -78.5v-151q0 -9 1.5 -13t10.5 -8t28 -5q17 -2 17 -16zM383 329q0 -7 -7 -12t-17 -5h-287q-10 0 -17 5t-7 12t7 12t17 5h287q10 0 17 -5t7 -12zM255 477v66q-14 -1 -31 -4t-43 -11t-42.5 -26.5t-16.5 -45.5q0 -21 14.5 -38t39.5 -17q26 0 52.5 18t26.5 58
z" />
    <glyph glyph-name="guillemotleft" unicode="&#xab;" horiz-adv-x="556" 
d="M250 16q0 -16 -14 -16h-8q-10 0 -13 10q-41 122 -127 217q-4 3 -4 9t4 10q86 93 127 217q4 9 13 9h8q14 0 14 -16q-15 -112 -51 -220q36 -106 51 -220zM444 16q0 -16 -14 -16h-8q-10 0 -13 10q-41 122 -127 217q-4 3 -4 9t4 10q86 93 127 217q4 9 13 9h8q14 0 14 -16
q-15 -112 -51 -220q36 -106 51 -220z" />
    <glyph glyph-name="logicalnot" unicode="&#xac;" horiz-adv-x="778" 
d="M721 138q0 -13 -8.5 -21.5t-21.5 -8.5t-21.5 8.5t-8.5 21.5v195h-575q-13 0 -21.5 8.5t-8.5 21.5t8.5 21.5t21.5 8.5h605q13 0 21.5 -8.5t8.5 -21.5v-225z" />
    <glyph glyph-name="uni00AD" unicode="&#xad;" horiz-adv-x="333" 
d="M276 174h-265v97h265v-97z" />
    <glyph glyph-name="registered" unicode="&#xae;" horiz-adv-x="686" 
d="M686 343q0 -142 -100.5 -242.5t-242.5 -100.5t-242.5 100.5t-100.5 242.5t100.5 242.5t242.5 100.5q143 0 243 -100t100 -243zM626 343q0 117 -83 200t-200 83t-200 -83t-83 -200t83 -200t200 -83t200 83t83 200zM538 222q0 -7 -2.5 -17t-15.5 -23t-35 -13q-83 0 -99 46
q-3 11 -3 44q0 43 -10 59q-12 19 -37 19h-43v-139h47v-23q-18 1 -81 1q-64 0 -81 -1v23h47v296h-47v23h166q62 0 97.5 -26.5t35.5 -66.5q0 -27 -20 -49t-56 -31q44 -20 52 -60q0 -10 5 -37q3 -21 4.5 -30.5t8.5 -19.5t18 -10q23 0 26 35q0 11 11 11q12 0 12 -11zM401 424
q0 18 -1 27t-7 21t-20.5 17t-38.5 5h-41v-139h40q24 0 39 5.5t20.5 17t7 20.5t1.5 26z" />
    <glyph glyph-name="macron" unicode="&#xaf;" 
d="M431 583h-361v52h361v-52z" />
    <glyph glyph-name="degree" unicode="&#xb0;" horiz-adv-x="375" 
d="M326 547q0 -57 -40.5 -98t-97.5 -41q-58 0 -98.5 41t-40.5 98q0 58 40.5 98.5t98.5 40.5q57 0 97.5 -40.5t40.5 -98.5zM266 547q0 33 -23 56t-55 23q-33 0 -56 -23t-23 -56q0 -32 23 -55.5t56 -23.5q32 0 55 23.5t23 55.5z" />
    <glyph glyph-name="plusminus" unicode="&#xb1;" horiz-adv-x="778" 
d="M721 30q0 -30 -43 -30h-579q-43 0 -43 31q0 30 43 30h259v241h-259q-43 0 -43 31q0 30 43 30h259v260q0 42 31 42q30 0 30 -42v-260h259q43 0 43 -31q0 -30 -43 -30h-259v-241h259q43 0 43 -31z" />
    <glyph glyph-name="two.superior" unicode="&#xb2;" horiz-adv-x="359" 
d="M323 437l-22 -133h-265v11q0 13 7 20l114 119q67 70 67 130q0 17 -4 33.5t-20.5 34t-44.5 17.5q-37 0 -59 -21q44 -7 44 -43q0 -21 -16 -32t-36 -11q-18 0 -35 10.5t-17 33.5q0 38 39 64.5t96 26.5q66 0 109 -32t43 -81q0 -46 -50 -89l-66 -49l-85 -67h86q62 0 66 5
q9 11 15 53h34z" />
    <glyph glyph-name="three.superior" unicode="&#xb3;" horiz-adv-x="359" 
d="M329 412q0 -49 -43 -81.5t-118 -32.5q-60 0 -99 26.5t-39 63.5q0 22 16 34t40 12t39 -12.5t15 -32.5q0 -19 -13 -31t-32 -15q30 -20 70 -20q25 0 38 17.5t14.5 32.5t1.5 40q0 28 -2.5 44t-16.5 30.5t-41 14.5h-19q-12 0 -16 1.5t-4 9.5q0 7 4.5 9t18.5 3q17 1 25 2
t17 7.5t15 19.5q11 25 11 62q0 58 -45 58q-37 0 -62 -22q26 -3 36 -15.5t10 -26.5q0 -17 -13.5 -29t-37.5 -12q-21 0 -35 11t-14 31q0 34 33 60t87 26q64 0 102 -23t38 -60t-28 -62.5t-63 -36.5q60 -12 85 -41t25 -62z" />
    <glyph glyph-name="acute" unicode="&#xb4;" 
d="M379 644q0 -28 -32 -49l-129 -84l-33 33l84 132q19 30 48 30q24 0 43 -19t19 -43z" />
    <glyph glyph-name="uni00B5" unicode="&#xb5;" horiz-adv-x="556" 
d="M552 0q-34 -2 -57 -2q-56 0 -120 -4v68h-1q-37 -68 -117 -68q-29 0 -50 3v-144h69v-47q-51 3 -126 3q-76 0 -126 -3v47h69v501q0 30 -10 35.5t-59 5.5v47l183 8v-344q0 -24 1 -35t7 -22.5t19 -15t36 -3.5q46 0 72.5 37.5t26.5 97.5v189q0 30 -10 35.5t-59 5.5v47l183 8
v-362q0 -30 10 -35.5t59 -5.5v-47z" />
    <glyph glyph-name="paragraph" unicode="&#xb6;" horiz-adv-x="703" 
d="M670 663q0 -30 -45 -30h-51v-783q0 -44 -31 -44q-30 0 -30 44v783h-80v-783q0 -44 -31 -44q-30 0 -30 44v370q-138 8 -223 72.5t-85 164.5q0 102 85 169.5t202 67.5h274q45 0 45 -31z" />
    <glyph glyph-name="periodcentered" unicode="&#xb7;" horiz-adv-x="778" 
d="M467 343q0 -32 -23 -55t-55 -23t-55 23t-23 55t23 55t55 23t55 -23t23 -55z" />
    <glyph glyph-name="cedilla" unicode="&#xb8;" horiz-adv-x="444" 
d="M356 -116q0 -20 -8.5 -35t-27 -24t-35.5 -14.5t-47.5 -7.5t-48.5 -2.5t-52 -0.5h-48v48h24q27 0 41.5 0.5t34.5 3.5t29.5 11t9.5 21q0 16 -16 25.5t-38 9.5v86h96v-38q35 0 60.5 -24.5t25.5 -58.5z" />
    <glyph glyph-name="one.superior" unicode="&#xb9;" horiz-adv-x="359" 
d="M310 304q-28 2 -126 2q-97 0 -124 -2v28h80v309q-38 -10 -90 -10v28q100 0 148 38q19 0 23.5 -2.5t4.5 -16.5v-346h84v-28z" />
    <glyph glyph-name="ordmasculine" unicode="&#xba;" horiz-adv-x="419" 
d="M396 533q0 -73 -51.5 -115t-135.5 -42q-82 0 -133.5 42t-51.5 115q0 75 51.5 119.5t133.5 44.5q85 0 136 -45t51 -119zM372 329q0 -7 -7 -12t-17 -5h-276q-10 0 -17 5t-7 12t7 12t17 5h276q10 0 17 -5t7 -12zM288 540q0 66 -7 89q-6 18 -26 30.5t-46 12.5
q-24 0 -44 -11.5t-26 -31.5q-8 -22 -8 -89t7 -90q6 -22 26.5 -34t45.5 -12q23 0 43 11.5t27 31.5q8 24 8 93z" />
    <glyph glyph-name="guillemotright" unicode="&#xbb;" horiz-adv-x="556" 
d="M472 236q0 -5 -4 -9q-87 -95 -127 -217q-3 -10 -13 -10h-8q-14 0 -14 16q13 107 51 220q-38 115 -51 220q0 16 14 16h8q9 0 13 -9q40 -124 127 -217q4 -6 4 -10zM278 236q0 -5 -4 -9q-87 -95 -127 -217q-3 -10 -13 -10h-8q-14 0 -14 16q13 107 51 220q-38 115 -51 220
q0 16 14 16h8q9 0 13 -9q40 -124 127 -217q4 -6 4 -10z" />
    <glyph glyph-name="onequarter" unicode="&#xbc;" horiz-adv-x="855" 
d="M310 304q-28 2 -126 2q-97 0 -124 -2v28h80v309q-38 -10 -90 -10v28q100 0 148 38q19 0 23.5 -2.5t4.5 -16.5v-346h84v-28zM805 0q-28 2 -102 2q-87 0 -113 -2v28h70v66h-174v28l221 263q7 9 22 9t18 -4t3 -16v-252h55v-28h-55v-66h55v-28zM700 666q0 -9 -4 -16
l-400 -646q-10 -14 -26 -14q-12 0 -21 8.5t-9 21.5q0 8 5 16l400 646q9 14 25 14q13 0 21.5 -8.5t8.5 -21.5zM668 122v174l-147 -174h147z" />
    <glyph glyph-name="onehalf" unicode="&#xbd;" horiz-adv-x="855" 
d="M310 304q-28 2 -126 2q-97 0 -124 -2v28h80v309q-38 -10 -90 -10v28q100 0 148 38q19 0 23.5 -2.5t4.5 -16.5v-346h84v-28zM805 133l-22 -133h-265v11q0 12 7 20l114 118q67 71 67 131q0 17 -4 33.5t-20.5 34t-44.5 17.5q-37 0 -60 -21q44 -7 44 -43q0 -21 -16 -32.5
t-35 -11.5q-18 0 -35 10.5t-17 34.5q0 38 38.5 64.5t95.5 26.5q66 0 109.5 -32t43.5 -81q0 -46 -50 -89q-7 -5 -19.5 -14.5t-28 -20.5t-19.5 -14q-84 -66 -85 -67h87q62 0 65 5q10 10 16 53h34zM657 666q0 -9 -4 -16l-400 -646q-9 -14 -25 -14q-13 0 -21.5 8.5t-8.5 21.5
q0 9 4 16l400 646q9 14 25 14q13 0 21.5 -8.5t8.5 -21.5z" />
    <glyph glyph-name="threequarters" unicode="&#xbe;" horiz-adv-x="855" 
d="M359 412q0 -49 -42.5 -81.5t-117.5 -32.5q-60 0 -99.5 26.5t-39.5 63.5q0 22 16 34t40 12t39.5 -12.5t15.5 -32.5q0 -19 -13.5 -31t-32.5 -15q30 -20 70 -20q25 0 38 17.5t14.5 32.5t1.5 40q0 28 -2.5 44t-16.5 30.5t-41 14.5h-18q-21 0 -21 11q0 7 4.5 9t19.5 3
q16 1 24 2t17 7.5t15 19.5q11 25 11 62q0 58 -45 58q-37 0 -62 -22q46 -5 46 -42q0 -17 -13.5 -29t-36.5 -12q-21 0 -35.5 11t-14.5 31q0 34 33 60t87 26q64 0 102 -23t38 -60t-28 -62.5t-63 -36.5q60 -12 85 -41t25 -62zM805 0q-28 2 -102 2q-87 0 -113 -2v28h70v66h-174
v28l221 263q7 9 22 9t18 -4t3 -16v-252h55v-28h-55v-66h55v-28zM700 666q0 -9 -4 -16l-400 -646q-10 -14 -26 -14q-12 0 -21 8.5t-9 21.5q0 8 5 16l400 646q9 14 25 14q13 0 21.5 -8.5t8.5 -21.5zM668 122v174l-147 -174h147z" />
    <glyph glyph-name="questiondown" unicode="&#xbf;" horiz-adv-x="472" 
d="M300 422q0 -32 -23 -55t-55 -23t-55 23t-23 55t23 55t55 23t55 -23t23 -55zM415 -73q0 -58 -54.5 -92.5t-139.5 -34.5q-17 0 -30 1t-40.5 7.5t-46 19t-33.5 39t-15 62.5q0 61 45 97q44 35 67.5 79t27 69.5t3.5 60.5v12q0 13 1 17.5t5.5 7t16.5 2.5q17 0 20.5 -5.5
t3.5 -31.5q0 -125 -48 -229q-14 -31 -14 -93q0 -52 6 -65.5t36 -13.5q64 0 109 31l-1 1q-2 0 -4.5 1t-5.5 2.5t-6 3.5t-6.5 5t-6.5 6.5t-5.5 8t-5 9.5t-3.5 11t-1 13q0 29 18.5 46t44.5 17q23 0 42.5 -15.5t19.5 -48.5z" />
    <glyph glyph-name="Agrave" unicode="&#xc0;" horiz-adv-x="756" 
d="M720 0q-36 3 -150 3q-127 0 -163 -3v47h83l-47 135h-219l-39 -111l-4 -12q0 -12 78 -12v-47l-118 3l-106 -3v47q38 0 58 2q21 2 26 5.5t9 15.5l212 602q6 18 14 22t24 4q11 0 16 -1t11 -7t10 -18l220 -625h85v-47zM426 229l-93 264l-93 -264h186zM448 776l-26 -38
l-142 60q-35 16 -40 43q-5 29 13 51t47 22q23 0 43 -22z" />
    <glyph glyph-name="Aacute" unicode="&#xc1;" horiz-adv-x="756" 
d="M720 0q-36 3 -150 3q-127 0 -163 -3v47h83l-47 135h-219l-39 -111l-4 -12q0 -12 78 -12v-47l-118 3l-106 -3v47q38 0 58 2q21 2 26 5.5t9 15.5l212 602q6 18 14 22t24 4q11 0 16 -1t11 -7t10 -18l220 -625h85v-47zM426 229l-93 264l-93 -264h186zM516 841q-5 -27 -40 -43
l-142 -60l-26 38l105 116q20 22 43 22q29 0 47 -22t13 -51z" />
    <glyph glyph-name="Acircumflex" unicode="&#xc2;" horiz-adv-x="756" 
d="M720 0q-36 3 -150 3q-127 0 -163 -3v47h83l-47 135h-219l-39 -111l-4 -12q0 -12 78 -12v-47l-118 3l-106 -3v47q38 0 58 2q21 2 26 5.5t9 15.5l212 602q6 18 14 22t24 4q11 0 16 -1t11 -7t10 -18l220 -625h85v-47zM426 229l-93 264l-93 -264h186zM553 752l-16 -24
l-160 58l-160 -58l-14 24l175 141z" />
    <glyph glyph-name="Atilde" unicode="&#xc3;" horiz-adv-x="756" 
d="M720 0q-36 3 -150 3q-127 0 -163 -3v47h83l-47 135h-219l-39 -111l-4 -12q0 -12 78 -12v-47l-118 3l-106 -3v47q38 0 58 2q21 2 26 5.5t9 15.5l212 602q6 18 14 22t24 4q11 0 16 -1t11 -7t10 -18l220 -625h85v-47zM426 229l-93 264l-93 -264h186zM545 812l-41 -53
q-23 -31 -63 -31q-18 0 -65 14q-51 17 -73 17q-39 0 -63 -31l-28 22l41 53q23 31 63 31q18 0 65 -14q51 -17 73 -17q39 0 63 31z" />
    <glyph glyph-name="Adieresis" unicode="&#xc4;" horiz-adv-x="756" 
d="M720 0q-36 3 -150 3q-127 0 -163 -3v47h83l-47 135h-219l-39 -111l-4 -12q0 -12 78 -12v-47l-118 3l-106 -3v47q38 0 58 2q21 2 26 5.5t9 15.5l212 602q6 18 14 22t24 4q11 0 16 -1t11 -7t10 -18l220 -625h85v-47zM426 229l-93 264l-93 -264h186zM296 798q0 -28 -20 -49
t-51 -21q-29 0 -49.5 20.5t-20.5 49.5q0 28 20 49t51 21q29 0 49.5 -20.5t20.5 -49.5zM602 798q0 -28 -20 -49t-51 -21q-29 0 -49.5 20.5t-20.5 49.5q0 28 20 49t51 21q29 0 49.5 -20.5t20.5 -49.5z" />
    <glyph glyph-name="Aring" unicode="&#xc5;" horiz-adv-x="756" 
d="M720 0q-36 3 -150 3q-127 0 -163 -3v47h83l-47 135h-219l-39 -111l-4 -12q0 -12 78 -12v-47l-118 3l-106 -3v47q38 0 58 2q21 2 26 5.5t9 15.5l212 602q6 18 14 22t24 4q11 0 16 -1t11 -7t10 -18l220 -625h85v-47zM426 229l-93 264l-93 -264h186zM431 782
q0 26 -11.5 34.5t-41.5 8.5q-31 0 -42 -9t-11 -34q0 -26 11.5 -34.5t41.5 -8.5q31 0 42 9t11 34zM485 783q0 -36 -27.5 -60.5t-80.5 -24.5q-51 0 -78.5 24t-27.5 61q0 33 27 58t81 25q52 0 79 -24.5t27 -58.5z" />
    <glyph glyph-name="AE" unicode="&#xc6;" horiz-adv-x="906" 
d="M877 274l-46 -274h-483v47h71v259h-148l-85 -234l-4 -12q0 -6 19.5 -9t38.5 -3l20 -1v-47l-119 3l-106 -3v47q42 0 61.5 2.5t24 6.5t8.5 14l207 569h-67v47h549l31 -241h-47q-4 31 -6.5 46t-8 40t-12.5 37.5t-19.5 28.5t-29 23.5t-40.5 13t-54 5.5h-81v-286h31
q63 0 80 26.5t17 90.5h47v-281h-47q0 65 -16.5 91t-80.5 26h-31v-259h86q25 0 46.5 4t37.5 9.5t29.5 17t23 21t18 28t13 30.5t10 36t8 38.5t7.5 42.5h47zM419 353v286h-26l-105 -286h131z" />
    <glyph glyph-name="Ccedilla" unicode="&#xc7;" horiz-adv-x="722" 
d="M665 227q0 -80 -60.5 -151.5t-159.5 -84.5v-24q35 0 60.5 -24.5t25.5 -58.5q0 -20 -8.5 -35t-27 -24t-35.5 -14.5t-47.5 -7.5t-48.5 -2.5t-52 -0.5h-48v48h24q27 0 41.5 0.5t34.5 3.5t29.5 11t9.5 21q0 16 -16 25.5t-38 9.5v74q-132 18 -212.5 110.5t-80.5 239.5
q0 165 99.5 259.5t251.5 94.5q92 0 163 -62l58 53q10 9 19 9q12 0 15 -5.5t3 -22.5v-215q0 -20 -4 -24t-23 -4q-10 0 -14 0.5t-7.5 4t-4.5 11.5q-15 103 -67.5 155.5t-118.5 52.5q-111 0 -170 -82q-22 -30 -33 -75.5t-12.5 -74.5t-1.5 -75q0 -76 8 -125t33 -90
q27 -44 75 -68t103 -24q73 0 131.5 51.5t58.5 143.5q1 12 6 14.5t17 2.5q14 0 19 -3.5t5 -17.5z" />
    <glyph glyph-name="Egrave" unicode="&#xc8;" horiz-adv-x="656" 
d="M627 274l-46 -274h-547v47h94v586h-94v47h534l31 -241h-47q-6 42 -10 64t-16 51.5t-30 43.5t-50 24.5t-77 10.5h-99v-257h22q62 0 78.5 26.5t16.5 90.5h47v-281h-47q0 33 -2 50t-11 35t-29 25t-53 7h-22v-282h103q41 0 71.5 7t51.5 23.5t34.5 33.5t23.5 47.5t15 53
t11 62.5h47zM398 776l-26 -38l-142 60q-35 16 -40 43q-5 29 13 51t47 22q23 0 43 -22z" />
    <glyph glyph-name="Eacute" unicode="&#xc9;" horiz-adv-x="656" 
d="M627 274l-46 -274h-547v47h94v586h-94v47h534l31 -241h-47q-6 42 -10 64t-16 51.5t-30 43.5t-50 24.5t-77 10.5h-99v-257h22q62 0 78.5 26.5t16.5 90.5h47v-281h-47q0 33 -2 50t-11 35t-29 25t-53 7h-22v-282h103q41 0 71.5 7t51.5 23.5t34.5 33.5t23.5 47.5t15 53
t11 62.5h47zM466 841q-5 -27 -40 -43l-142 -60l-26 38l105 116q20 22 43 22q29 0 47 -22t13 -51z" />
    <glyph glyph-name="Ecircumflex" unicode="&#xca;" horiz-adv-x="656" 
d="M627 274l-46 -274h-547v47h94v586h-94v47h534l31 -241h-47q-6 42 -10 64t-16 51.5t-30 43.5t-50 24.5t-77 10.5h-99v-257h22q62 0 78.5 26.5t16.5 90.5h47v-281h-47q0 33 -2 50t-11 35t-29 25t-53 7h-22v-282h103q41 0 71.5 7t51.5 23.5t34.5 33.5t23.5 47.5t15 53
t11 62.5h47zM503 752l-16 -24l-160 58l-160 -58l-14 24l175 141z" />
    <glyph glyph-name="Edieresis" unicode="&#xcb;" horiz-adv-x="656" 
d="M627 274l-46 -274h-547v47h94v586h-94v47h534l31 -241h-47q-6 42 -10 64t-16 51.5t-30 43.5t-50 24.5t-77 10.5h-99v-257h22q62 0 78.5 26.5t16.5 90.5h47v-281h-47q0 33 -2 50t-11 35t-29 25t-53 7h-22v-282h103q41 0 71.5 7t51.5 23.5t34.5 33.5t23.5 47.5t15 53
t11 62.5h47zM246 798q0 -28 -20 -49t-51 -21q-29 0 -49.5 20.5t-20.5 49.5q0 28 20 49t51 21q29 0 49.5 -20.5t20.5 -49.5zM552 798q0 -28 -20 -49t-51 -21q-29 0 -49.5 20.5t-20.5 49.5q0 28 20 49t51 21q29 0 49.5 -20.5t20.5 -49.5z" />
    <glyph glyph-name="Igrave" unicode="&#xcc;" horiz-adv-x="397" 
d="M368 0q-36 3 -170 3t-170 -3v47h99v592h-99v47q36 -3 170 -3t170 3v-47h-99v-592h99v-47zM269 776l-26 -38l-142 60q-35 16 -40 43q-5 29 13 51t47 22q23 0 43 -22z" />
    <glyph glyph-name="Iacute" unicode="&#xcd;" horiz-adv-x="397" 
d="M368 0q-36 3 -170 3t-170 -3v47h99v592h-99v47q36 -3 170 -3t170 3v-47h-99v-592h99v-47zM337 841q-5 -27 -40 -43l-142 -60l-26 38l105 116q20 22 43 22q29 0 47 -22t13 -51z" />
    <glyph glyph-name="Icircumflex" unicode="&#xce;" horiz-adv-x="397" 
d="M368 0q-36 3 -170 3t-170 -3v47h99v592h-99v47q36 -3 170 -3t170 3v-47h-99v-592h99v-47zM374 752l-16 -24l-160 58l-160 -58l-14 24l175 141z" />
    <glyph glyph-name="Idieresis" unicode="&#xcf;" horiz-adv-x="397" 
d="M368 0q-36 3 -170 3t-170 -3v47h99v592h-99v47q36 -3 170 -3t170 3v-47h-99v-592h99v-47zM117 798q0 -28 -20 -49t-51 -21q-29 0 -49.5 20.5t-20.5 49.5q0 28 20 49t51 21q29 0 49.5 -20.5t20.5 -49.5zM423 798q0 -28 -20 -49t-51 -21q-29 0 -49.5 20.5t-20.5 49.5
q0 28 20 49t51 21q29 0 49.5 -20.5t20.5 -49.5z" />
    <glyph glyph-name="Eth" unicode="&#xd0;" horiz-adv-x="767" 
d="M710 337q0 -160 -86.5 -248.5t-217.5 -88.5h-372v47h94v272h-94v48h94v272h-94v47h372q130 0 217 -91t87 -258zM563 337q0 155 -32 212q-49 90 -167 90h-100v-272h119v-48h-119v-272h101q117 0 166 85q32 59 32 205z" />
    <glyph glyph-name="Ntilde" unicode="&#xd1;" horiz-adv-x="783" 
d="M748 639h-20q-28 0 -50 -3q-18 -2 -21 -5.5t-3 -20.5v-578q0 -20 -4 -26t-23 -6q-18 0 -27 13l-419 576v-513q0 -17 3.5 -20.5t21.5 -5.5q21 -3 49 -3h20v-47l-121 3l-120 -3v47h20q28 0 50 3q18 2 21 5.5t3 20.5v563h-94v47h208q16 0 21.5 -2t13.5 -13l324 -446v385
q0 17 -3.5 20.5t-21.5 5.5q-21 3 -49 3h-20v47l121 -3l120 3v-47zM559 812l-41 -53q-23 -31 -63 -31q-18 0 -65 14q-51 17 -73 17q-39 0 -63 -31l-28 22l41 53q23 31 63 31q18 0 65 -14q51 -17 73 -17q39 0 63 31z" />
    <glyph glyph-name="Ograve" unicode="&#xd2;" horiz-adv-x="750" 
d="M693 339q0 -164 -89 -257t-230 -93q-137 0 -227.5 92t-90.5 258q0 168 89.5 263t229.5 95q137 0 227.5 -94t90.5 -264zM540 353q0 135 -27 200q-21 50 -58 77t-81 27q-39 0 -76.5 -24t-60.5 -76q-28 -65 -28 -204q0 -151 32 -223q20 -45 55 -72t79 -27q42 0 79 28t56 75
q20 49 25 97t5 122zM445 776l-26 -38l-142 60q-35 16 -40 43q-5 29 13 51t47 22q23 0 43 -22z" />
    <glyph glyph-name="Oacute" unicode="&#xd3;" horiz-adv-x="750" 
d="M693 339q0 -164 -89 -257t-230 -93q-137 0 -227.5 92t-90.5 258q0 168 89.5 263t229.5 95q137 0 227.5 -94t90.5 -264zM540 353q0 135 -27 200q-21 50 -58 77t-81 27q-39 0 -76.5 -24t-60.5 -76q-28 -65 -28 -204q0 -151 32 -223q20 -45 55 -72t79 -27q42 0 79 28t56 75
q20 49 25 97t5 122zM513 841q-5 -27 -40 -43l-142 -60l-26 38l105 116q20 22 43 22q29 0 47 -22t13 -51z" />
    <glyph glyph-name="Ocircumflex" unicode="&#xd4;" horiz-adv-x="750" 
d="M693 339q0 -164 -89 -257t-230 -93q-137 0 -227.5 92t-90.5 258q0 168 89.5 263t229.5 95q137 0 227.5 -94t90.5 -264zM540 353q0 135 -27 200q-21 50 -58 77t-81 27q-39 0 -76.5 -24t-60.5 -76q-28 -65 -28 -204q0 -151 32 -223q20 -45 55 -72t79 -27q42 0 79 28t56 75
q20 49 25 97t5 122zM550 752l-16 -24l-160 58l-160 -58l-14 24l175 141z" />
    <glyph glyph-name="Otilde" unicode="&#xd5;" horiz-adv-x="750" 
d="M693 339q0 -164 -89 -257t-230 -93q-137 0 -227.5 92t-90.5 258q0 168 89.5 263t229.5 95q137 0 227.5 -94t90.5 -264zM540 353q0 135 -27 200q-21 50 -58 77t-81 27q-39 0 -76.5 -24t-60.5 -76q-28 -65 -28 -204q0 -151 32 -223q20 -45 55 -72t79 -27q42 0 79 28t56 75
q20 49 25 97t5 122zM542 812l-41 -53q-23 -31 -63 -31q-18 0 -65 14q-51 17 -73 17q-39 0 -63 -31l-28 22l41 53q23 31 63 31q18 0 65 -14q51 -17 73 -17q39 0 63 31z" />
    <glyph glyph-name="Odieresis" unicode="&#xd6;" horiz-adv-x="750" 
d="M693 339q0 -164 -89 -257t-230 -93q-137 0 -227.5 92t-90.5 258q0 168 89.5 263t229.5 95q137 0 227.5 -94t90.5 -264zM540 353q0 135 -27 200q-21 50 -58 77t-81 27q-39 0 -76.5 -24t-60.5 -76q-28 -65 -28 -204q0 -151 32 -223q20 -45 55 -72t79 -27q42 0 79 28t56 75
q20 49 25 97t5 122zM293 798q0 -28 -20 -49t-51 -21q-29 0 -49.5 20.5t-20.5 49.5q0 28 20 49t51 21q29 0 49.5 -20.5t20.5 -49.5zM599 798q0 -28 -20 -49t-51 -21q-29 0 -49.5 20.5t-20.5 49.5q0 28 20 49t51 21q29 0 49.5 -20.5t20.5 -49.5z" />
    <glyph glyph-name="multiply" unicode="&#xd7;" horiz-adv-x="778" 
d="M624 485q21 -21 -9 -51l-183 -183l183 -184q30 -30 8 -52q-21 -21 -51 9l-183 183l-184 -183q-30 -30 -52 -8q-21 21 9 51l183 184l-183 183q-30 30 -8 52q21 21 51 -9l184 -183l183 183q30 30 52 8z" />
    <glyph glyph-name="Oslash" unicode="&#xd8;" horiz-adv-x="778" 
d="M721 340q0 -166 -93.5 -258.5t-238.5 -92.5q-89 0 -161 36l-48 -84l-34 20l48 84q-54 33 -96 106.5t-42 188.5q0 163 92 260t241 97q83 0 160 -36l48 84l34 -20l-48 -85q70 -48 104 -127.5t34 -172.5zM517 607q-50 54 -129 54q-43 0 -88 -23t-73 -80q-29 -62 -29 -218
q0 -52 1 -81.5t9.5 -72.5t24.5 -72zM579 340q0 52 -1 82t-9.5 74.5t-25.5 74.5l-284 -493q55 -53 130 -53q41 0 84.5 20.5t70.5 67.5q16 29 24.5 72.5t9.5 73t1 81.5z" />
    <glyph glyph-name="Ugrave" unicode="&#xd9;" horiz-adv-x="769" 
d="M734 639h-20q-28 0 -50 -3q-18 -2 -21 -5.5t-3 -20.5v-383q0 -103 -62.5 -170.5t-173.5 -67.5q-127 0 -201.5 67.5t-74.5 172.5v410h-94v47q35 -3 165 -3t165 3v-47h-94v-429q0 -174 138 -174q73 0 126 45.5t53 148.5v380q0 17 -3.5 20.5t-21.5 5.5q-21 3 -49 3h-20v47
l121 -3l120 3v-47zM478 776l-26 -38l-142 60q-35 16 -40 43q-5 29 13 51t47 22q23 0 43 -22z" />
    <glyph glyph-name="Uacute" unicode="&#xda;" horiz-adv-x="769" 
d="M734 639h-20q-28 0 -50 -3q-18 -2 -21 -5.5t-3 -20.5v-383q0 -103 -62.5 -170.5t-173.5 -67.5q-127 0 -201.5 67.5t-74.5 172.5v410h-94v47q35 -3 165 -3t165 3v-47h-94v-429q0 -174 138 -174q73 0 126 45.5t53 148.5v380q0 17 -3.5 20.5t-21.5 5.5q-21 3 -49 3h-20v47
l121 -3l120 3v-47zM546 841q-5 -27 -40 -43l-142 -60l-26 38l105 116q20 22 43 22q29 0 47 -22t13 -51z" />
    <glyph glyph-name="Ucircumflex" unicode="&#xdb;" horiz-adv-x="769" 
d="M734 639h-20q-28 0 -50 -3q-18 -2 -21 -5.5t-3 -20.5v-383q0 -103 -62.5 -170.5t-173.5 -67.5q-127 0 -201.5 67.5t-74.5 172.5v410h-94v47q35 -3 165 -3t165 3v-47h-94v-429q0 -174 138 -174q73 0 126 45.5t53 148.5v380q0 17 -3.5 20.5t-21.5 5.5q-21 3 -49 3h-20v47
l121 -3l120 3v-47zM583 752l-16 -24l-160 58l-160 -58l-14 24l175 141z" />
    <glyph glyph-name="Udieresis" unicode="&#xdc;" horiz-adv-x="769" 
d="M734 639h-20q-28 0 -50 -3q-18 -2 -21 -5.5t-3 -20.5v-383q0 -103 -62.5 -170.5t-173.5 -67.5q-127 0 -201.5 67.5t-74.5 172.5v410h-94v47q35 -3 165 -3t165 3v-47h-94v-429q0 -174 138 -174q73 0 126 45.5t53 148.5v380q0 17 -3.5 20.5t-21.5 5.5q-21 3 -49 3h-20v47
l121 -3l120 3v-47zM326 798q0 -28 -20 -49t-51 -21q-29 0 -49.5 20.5t-20.5 49.5q0 28 20 49t51 21q29 0 49.5 -20.5t20.5 -49.5zM632 798q0 -28 -20 -49t-51 -21q-29 0 -49.5 20.5t-20.5 49.5q0 28 20 49t51 21q29 0 49.5 -20.5t20.5 -49.5z" />
    <glyph glyph-name="Yacute" unicode="&#xdd;" horiz-adv-x="756" 
d="M739 639q-41 0 -61.5 -2.5t-25.5 -6t-10 -12.5l-197 -344v-227h95v-47q-35 3 -163 3q-127 0 -162 -3v47h94v227l-208 365h-85v47q36 -3 150 -3q131 0 167 3v-47h-75l167 -293l162 283q-24 10 -69 10v47l119 -3l102 3v-47zM516 841q-5 -27 -40 -43l-142 -60l-26 38
l105 116q20 22 43 22q29 0 47 -22t13 -51z" />
    <glyph glyph-name="Thorn" unicode="&#xde;" horiz-adv-x="628" 
d="M572 371q0 -32 -9 -62t-31 -61.5t-66.5 -50.5t-107.5 -19h-99v-131h94v-47l-160 3l-159 -3v47h94v592h-94v47l160 -3l159 3v-47h-94v-75h108q98 0 151.5 -54.5t53.5 -138.5zM425 372q0 61 -17 99q-9 21 -21.5 32t-21 12.5t-23.5 1.5h-83v-292h66q13 0 20.5 1t20 5
t23.5 15.5t19 29.5q17 41 17 96z" />
    <glyph glyph-name="germandbls" unicode="&#xdf;" horiz-adv-x="560" 
d="M531 180q0 -89 -59.5 -137.5t-145.5 -48.5q-48 0 -76 26t-28 60q0 27 16.5 39t33.5 12q20 0 35 -14t15 -36q0 -31 -26 -44q11 -7 27 -7q90 0 90 149q0 218 -146 229q-4 0 -4.5 0.5t-4 1t-4 1.5t-2.5 3t-2.5 5t-0.5 7q0 8 3.5 12t6.5 4.5t12 1.5q114 7 114 119
q0 101 -94 101q-98 0 -98 -105v-559q-41 3 -65 3l-112 -3v47h69v350h-69v47h69v112q0 70 56.5 107t150.5 37q106 0 158.5 -40.5t52.5 -97.5q0 -49 -34 -84.5t-90 -55.5q70 -27 111 -92t41 -150z" />
    <glyph glyph-name="agrave" unicode="&#xe0;" horiz-adv-x="486" 
d="M480 24q0 -16 -7 -20t-25 -4h-42q-32 0 -52.5 8t-27.5 22t-9 23t-2 21q-37 -80 -123 -80q-65 0 -117 29t-52 86q0 74 79 114t196 42v36q0 53 -21.5 84.5t-64.5 31.5q-28 0 -59 -6q23 -18 23 -50q0 -30 -19 -46.5t-44 -16.5q-23 0 -42.5 16.5t-19.5 46.5q0 25 14.5 44
t33 27.5t45 13.5t41 6t30.5 1q92 0 144.5 -41t52.5 -112v-216q0 -13 1.5 -19t12.5 -11.5t33 -6.5q7 -1 10.5 -2t7 -6.5t3.5 -14.5zM298 138v95q-14 -1 -27 -3t-39 -10t-44.5 -20t-33 -36t-14.5 -55t17.5 -55t46.5 -24q31 0 62.5 25.5t31.5 82.5zM308 544l-33 -33l-129 84
q-32 21 -32 49q0 24 19 43t43 19q29 0 48 -30z" />
    <glyph glyph-name="aacute" unicode="&#xe1;" horiz-adv-x="486" 
d="M480 24q0 -16 -7 -20t-25 -4h-42q-32 0 -52.5 8t-27.5 22t-9 23t-2 21q-37 -80 -123 -80q-65 0 -117 29t-52 86q0 74 79 114t196 42v36q0 53 -21.5 84.5t-64.5 31.5q-28 0 -59 -6q23 -18 23 -50q0 -30 -19 -46.5t-44 -16.5q-23 0 -42.5 16.5t-19.5 46.5q0 25 14.5 44
t33 27.5t45 13.5t41 6t30.5 1q92 0 144.5 -41t52.5 -112v-216q0 -13 1.5 -19t12.5 -11.5t33 -6.5q7 -1 10.5 -2t7 -6.5t3.5 -14.5zM298 138v95q-14 -1 -27 -3t-39 -10t-44.5 -20t-33 -36t-14.5 -55t17.5 -55t46.5 -24q31 0 62.5 25.5t31.5 82.5zM372 644q0 -28 -32 -49
l-129 -84l-33 33l84 132q19 30 48 30q24 0 43 -19t19 -43z" />
    <glyph glyph-name="acircumflex" unicode="&#xe2;" horiz-adv-x="486" 
d="M480 24q0 -16 -7 -20t-25 -4h-42q-32 0 -52.5 8t-27.5 22t-9 23t-2 21q-37 -80 -123 -80q-65 0 -117 29t-52 86q0 74 79 114t196 42v36q0 53 -21.5 84.5t-64.5 31.5q-28 0 -59 -6q23 -18 23 -50q0 -30 -19 -46.5t-44 -16.5q-23 0 -42.5 16.5t-19.5 46.5q0 25 14.5 44
t33 27.5t45 13.5t41 6t30.5 1q92 0 144.5 -41t52.5 -112v-216q0 -13 1.5 -19t12.5 -11.5t33 -6.5q7 -1 10.5 -2t7 -6.5t3.5 -14.5zM298 138v95q-14 -1 -27 -3t-39 -10t-44.5 -20t-33 -36t-14.5 -55t17.5 -55t46.5 -24q31 0 62.5 25.5t31.5 82.5zM420 527l-20 -22l-158 99
l-158 -99l-18 22l177 185z" />
    <glyph glyph-name="atilde" unicode="&#xe3;" horiz-adv-x="486" 
d="M480 24q0 -16 -7 -20t-25 -4h-42q-32 0 -52.5 8t-27.5 22t-9 23t-2 21q-37 -80 -123 -80q-65 0 -117 29t-52 86q0 74 79 114t196 42v36q0 53 -21.5 84.5t-64.5 31.5q-28 0 -59 -6q23 -18 23 -50q0 -30 -19 -46.5t-44 -16.5q-23 0 -42.5 16.5t-19.5 46.5q0 25 14.5 44
t33 27.5t45 13.5t41 6t30.5 1q92 0 144.5 -41t52.5 -112v-216q0 -13 1.5 -19t12.5 -11.5t33 -6.5q7 -1 10.5 -2t7 -6.5t3.5 -14.5zM298 138v95q-14 -1 -27 -3t-39 -10t-44.5 -20t-33 -36t-14.5 -55t17.5 -55t46.5 -24q31 0 62.5 25.5t31.5 82.5zM410 640l-41 -53
q-23 -31 -63 -31q-18 0 -65 14q-51 17 -73 17q-39 0 -63 -31l-28 22l41 53q23 31 63 31q18 0 65 -14q51 -17 73 -17q39 0 63 31z" />
    <glyph glyph-name="adieresis" unicode="&#xe4;" horiz-adv-x="486" 
d="M480 24q0 -16 -7 -20t-25 -4h-42q-32 0 -52.5 8t-27.5 22t-9 23t-2 21q-37 -80 -123 -80q-65 0 -117 29t-52 86q0 74 79 114t196 42v36q0 53 -21.5 84.5t-64.5 31.5q-28 0 -59 -6q23 -18 23 -50q0 -30 -19 -46.5t-44 -16.5q-23 0 -42.5 16.5t-19.5 46.5q0 25 14.5 44
t33 27.5t45 13.5t41 6t30.5 1q92 0 144.5 -41t52.5 -112v-216q0 -13 1.5 -19t12.5 -11.5t33 -6.5q7 -1 10.5 -2t7 -6.5t3.5 -14.5zM298 138v95q-14 -1 -27 -3t-39 -10t-44.5 -20t-33 -36t-14.5 -55t17.5 -55t46.5 -24q31 0 62.5 25.5t31.5 82.5zM185 609q0 -28 -20 -49
t-51 -21q-29 0 -49.5 20.5t-20.5 49.5q0 28 20 49t51 21q29 0 49.5 -20.5t20.5 -49.5zM443 609q0 -28 -20 -49t-51 -21q-29 0 -49.5 20.5t-20.5 49.5q0 28 20 49t51 21q29 0 49.5 -20.5t20.5 -49.5z" />
    <glyph glyph-name="aring" unicode="&#xe5;" horiz-adv-x="486" 
d="M480 24q0 -16 -7 -20t-25 -4h-42q-32 0 -52.5 8t-27.5 22t-9 23t-2 21q-37 -80 -123 -80q-65 0 -117 29t-52 86q0 74 79 114t196 42v36q0 53 -21.5 84.5t-64.5 31.5q-28 0 -59 -6q23 -18 23 -50q0 -30 -19 -46.5t-44 -16.5q-23 0 -42.5 16.5t-19.5 46.5q0 25 14.5 44
t33 27.5t45 13.5t41 6t30.5 1q92 0 144.5 -41t52.5 -112v-216q0 -13 1.5 -19t12.5 -11.5t33 -6.5q7 -1 10.5 -2t7 -6.5t3.5 -14.5zM298 138v95q-14 -1 -27 -3t-39 -10t-44.5 -20t-33 -36t-14.5 -55t17.5 -55t46.5 -24q31 0 62.5 25.5t31.5 82.5zM296 605q0 26 -11.5 34.5
t-41.5 8.5q-31 0 -42 -9t-11 -34q0 -26 11.5 -34.5t41.5 -8.5q31 0 42 9t11 34zM350 606q0 -36 -27.5 -60.5t-80.5 -24.5q-51 0 -78.5 24t-27.5 61q0 33 27 58t81 25q52 0 79 -24.5t27 -58.5z" />
    <glyph glyph-name="ae" unicode="&#xe6;" horiz-adv-x="722" 
d="M693 117q0 -10 -9 -28.5t-27 -40.5t-52 -38t-76 -16q-95 0 -160 60q-61 -60 -169 -60q-73 0 -122.5 28t-49.5 81q0 132 276 145v53q0 116 -87 116q-27 0 -59 -6q23 -18 23 -50q0 -30 -19 -46.5t-44 -16.5q-23 0 -42.5 16.5t-19.5 46.5q0 25 14.5 44t33 27.5t45.5 13.5
t41.5 6t30.5 1q102 0 155 -50q57 50 141 50q86 0 131 -56t45 -150q0 -20 -6 -24.5t-26 -4.5h-243q0 -85 23 -126q32 -58 96 -58q30 0 61.5 19t46.5 63q2 6 3 8.5t3.5 5.5t6.5 4t11 1q24 0 24 -18zM598 251q-4 166 -81 166q-54 0 -81 -57q-16 -35 -18 -109h180zM323 121
q0 4 -3 9q-14 39 -16 84q-19 -1 -38.5 -5t-50.5 -14.5t-50.5 -34t-19.5 -57.5q0 -28 17.5 -50.5t47.5 -22.5q48 0 80.5 30t32.5 61z" />
    <glyph glyph-name="ccedilla" unicode="&#xe7;" horiz-adv-x="444" 
d="M415 117q0 -6 -6 -20.5t-18 -34.5t-38.5 -38.5t-60.5 -25.5v-31q35 0 60.5 -24.5t25.5 -58.5q0 -20 -8.5 -35t-27 -24t-35.5 -14.5t-47.5 -7.5t-48.5 -2.5t-52 -0.5h-48v48h24q27 0 41.5 0.5t34.5 3.5t29.5 11t9.5 21q0 16 -16 25.5t-38 9.5v80q-73 16 -118 74t-45 149
q0 105 59.5 168t158.5 63q65 0 109 -23t44 -69q0 -30 -19 -46.5t-44 -16.5q-23 0 -42.5 16.5t-19.5 46.5q0 29 20 47q-27 5 -45 5q-22 0 -39 -9t-26.5 -26.5t-15.5 -33.5t-8.5 -41.5t-3 -39.5t-0.5 -36q0 -91 19 -132q28 -61 85 -61q74 0 103 84q3 9 7 11t16 2q24 0 24 -14z
" />
    <glyph glyph-name="egrave" unicode="&#xe8;" horiz-adv-x="467" 
d="M438 117q0 -10 -9.5 -28.5t-29 -40.5t-56.5 -38t-84 -16q-101 0 -166 62.5t-65 168.5q0 104 60.5 166t158.5 62q55 0 94.5 -19t59.5 -51t28.5 -65.5t8.5 -70.5q0 -20 -6 -24.5t-26 -4.5h-250q0 -22 0.5 -35t3.5 -38t10 -41.5t19 -34t32 -26.5t47 -9q35 0 70.5 20t51.5 62
q4 12 8 15.5t16 3.5q24 0 24 -18zM343 251q0 19 -2 37.5t-9.5 52.5t-29 55t-54.5 21q-89 0 -92 -166h187zM298 544l-33 -33l-129 84q-32 21 -32 49q0 24 19 43t43 19q29 0 48 -30z" />
    <glyph glyph-name="eacute" unicode="&#xe9;" horiz-adv-x="467" 
d="M438 117q0 -10 -9.5 -28.5t-29 -40.5t-56.5 -38t-84 -16q-101 0 -166 62.5t-65 168.5q0 104 60.5 166t158.5 62q55 0 94.5 -19t59.5 -51t28.5 -65.5t8.5 -70.5q0 -20 -6 -24.5t-26 -4.5h-250q0 -22 0.5 -35t3.5 -38t10 -41.5t19 -34t32 -26.5t47 -9q35 0 70.5 20t51.5 62
q4 12 8 15.5t16 3.5q24 0 24 -18zM343 251q0 19 -2 37.5t-9.5 52.5t-29 55t-54.5 21q-89 0 -92 -166h187zM362 644q0 -28 -32 -49l-129 -84l-33 33l84 132q19 30 48 30q24 0 43 -19t19 -43z" />
    <glyph glyph-name="ecircumflex" unicode="&#xea;" horiz-adv-x="467" 
d="M438 117q0 -10 -9.5 -28.5t-29 -40.5t-56.5 -38t-84 -16q-101 0 -166 62.5t-65 168.5q0 104 60.5 166t158.5 62q55 0 94.5 -19t59.5 -51t28.5 -65.5t8.5 -70.5q0 -20 -6 -24.5t-26 -4.5h-250q0 -22 0.5 -35t3.5 -38t10 -41.5t19 -34t32 -26.5t47 -9q35 0 70.5 20t51.5 62
q4 12 8 15.5t16 3.5q24 0 24 -18zM343 251q0 19 -2 37.5t-9.5 52.5t-29 55t-54.5 21q-89 0 -92 -166h187zM410 527l-20 -22l-158 99l-158 -99l-18 22l177 185z" />
    <glyph glyph-name="edieresis" unicode="&#xeb;" horiz-adv-x="467" 
d="M438 117q0 -10 -9.5 -28.5t-29 -40.5t-56.5 -38t-84 -16q-101 0 -166 62.5t-65 168.5q0 104 60.5 166t158.5 62q55 0 94.5 -19t59.5 -51t28.5 -65.5t8.5 -70.5q0 -20 -6 -24.5t-26 -4.5h-250q0 -22 0.5 -35t3.5 -38t10 -41.5t19 -34t32 -26.5t47 -9q35 0 70.5 20t51.5 62
q4 12 8 15.5t16 3.5q24 0 24 -18zM343 251q0 19 -2 37.5t-9.5 52.5t-29 55t-54.5 21q-89 0 -92 -166h187zM175 609q0 -28 -20 -49t-51 -21q-29 0 -49.5 20.5t-20.5 49.5q0 28 20 49t51 21q29 0 49.5 -20.5t20.5 -49.5zM433 609q0 -28 -20 -49t-51 -21q-29 0 -49.5 20.5
t-20.5 49.5q0 28 20 49t51 21q29 0 49.5 -20.5t20.5 -49.5z" />
    <glyph glyph-name="igrave" unicode="&#xec;" horiz-adv-x="278" 
d="M265 0l-117 3l-122 -3v47h69v309q0 28 -10 33.5t-56 5.5v47l174 8v-403h62v-47zM204 544l-33 -33l-129 84q-32 21 -32 49q0 24 19 43t43 19q29 0 48 -30z" />
    <glyph glyph-name="iacute" unicode="&#xed;" horiz-adv-x="278" 
d="M265 0l-117 3l-122 -3v47h69v309q0 28 -10 33.5t-56 5.5v47l174 8v-403h62v-47zM268 644q0 -28 -32 -49l-129 -84l-33 33l84 132q19 30 48 30q24 0 43 -19t19 -43z" />
    <glyph glyph-name="icircumflex" unicode="&#xee;" horiz-adv-x="278" 
d="M265 0l-117 3l-122 -3v47h69v309q0 28 -10 33.5t-56 5.5v47l174 8v-403h62v-47zM316 527l-20 -22l-158 99l-158 -99l-18 22l177 185z" />
    <glyph glyph-name="idieresis" unicode="&#xef;" horiz-adv-x="278" 
d="M265 0l-117 3l-122 -3v47h69v309q0 28 -10 33.5t-56 5.5v47l174 8v-403h62v-47zM81 609q0 -28 -20 -49t-51 -21q-29 0 -49.5 20.5t-20.5 49.5q0 28 20 49t51 21q29 0 49.5 -20.5t20.5 -49.5zM339 609q0 -28 -20 -49t-51 -21q-29 0 -49.5 20.5t-20.5 49.5q0 28 20 49
t51 21q29 0 49.5 -20.5t20.5 -49.5z" />
    <glyph glyph-name="eth" unicode="&#xf0;" 
d="M471 239q0 -122 -59 -182q-63 -63 -163 -63q-97 0 -159 60.5t-62 164.5q0 110 63.5 172t154.5 62q30 0 54 -13q-29 72 -87 132l-94 -55l-24 41l81 47q-49 38 -108 61l5 32q89 -9 168 -55l97 56l24 -41l-77 -45q81 -60 133 -152q53 -97 53 -222zM343 215q0 53 -7.5 92.5
t-18 59.5t-24.5 32t-24 15t-20 3q-24 0 -46.5 -15t-33.5 -44q-13 -34 -13 -129q0 -94 12 -130q11 -33 34 -49t47 -16q25 0 46.5 14.5t32.5 41.5q15 37 15 125z" />
    <glyph glyph-name="ntilde" unicode="&#xf1;" horiz-adv-x="556" 
d="M553 0l-125 3l-123 -3v47h65v274q0 41 -6.5 63t-13 26t-16.5 4q-45 0 -86 -41t-41 -117v-209h69v-47l-126 3l-126 -3v47h69v309q0 28 -10.5 33.5t-58.5 5.5v47l172 8v-101h1q49 101 152 101q77 0 106 -38t29 -103v-262h69v-47zM445 640l-41 -53q-23 -31 -63 -31
q-18 0 -65 14q-51 17 -73 17q-39 0 -63 -31l-28 22l41 53q23 31 63 31q18 0 65 -14q51 -17 73 -17q39 0 63 31z" />
    <glyph glyph-name="ograve" unicode="&#xf2;" 
d="M471 219q0 -104 -61 -164.5t-161 -60.5q-98 0 -159.5 60t-61.5 165q0 107 61.5 170.5t159.5 63.5q100 0 161 -64t61 -170zM343 229q0 94 -9 127q-7 25 -30.5 43t-54.5 18q-29 0 -53 -16.5t-31 -44.5q-9 -32 -9 -127q0 -96 8 -129q8 -31 32 -48.5t54 -17.5q28 0 52 17
t31 45q10 34 10 133zM315 544l-33 -33l-129 84q-32 21 -32 49q0 24 19 43t43 19q29 0 48 -30z" />
    <glyph glyph-name="oacute" unicode="&#xf3;" 
d="M471 219q0 -104 -61 -164.5t-161 -60.5q-98 0 -159.5 60t-61.5 165q0 107 61.5 170.5t159.5 63.5q100 0 161 -64t61 -170zM343 229q0 94 -9 127q-7 25 -30.5 43t-54.5 18q-29 0 -53 -16.5t-31 -44.5q-9 -32 -9 -127q0 -96 8 -129q8 -31 32 -48.5t54 -17.5q28 0 52 17
t31 45q10 34 10 133zM379 644q0 -28 -32 -49l-129 -84l-33 33l84 132q19 30 48 30q24 0 43 -19t19 -43z" />
    <glyph glyph-name="ocircumflex" unicode="&#xf4;" 
d="M471 219q0 -104 -61 -164.5t-161 -60.5q-98 0 -159.5 60t-61.5 165q0 107 61.5 170.5t159.5 63.5q100 0 161 -64t61 -170zM343 229q0 94 -9 127q-7 25 -30.5 43t-54.5 18q-29 0 -53 -16.5t-31 -44.5q-9 -32 -9 -127q0 -96 8 -129q8 -31 32 -48.5t54 -17.5q28 0 52 17
t31 45q10 34 10 133zM427 527l-20 -22l-158 99l-158 -99l-18 22l177 185z" />
    <glyph glyph-name="otilde" unicode="&#xf5;" 
d="M471 219q0 -104 -61 -164.5t-161 -60.5q-98 0 -159.5 60t-61.5 165q0 107 61.5 170.5t159.5 63.5q100 0 161 -64t61 -170zM343 229q0 94 -9 127q-7 25 -30.5 43t-54.5 18q-29 0 -53 -16.5t-31 -44.5q-9 -32 -9 -127q0 -96 8 -129q8 -31 32 -48.5t54 -17.5q28 0 52 17
t31 45q10 34 10 133zM417 640l-41 -53q-23 -31 -63 -31q-18 0 -65 14q-51 17 -73 17q-39 0 -63 -31l-28 22l41 53q23 31 63 31q18 0 65 -14q51 -17 73 -17q39 0 63 31z" />
    <glyph glyph-name="odieresis" unicode="&#xf6;" 
d="M471 219q0 -104 -61 -164.5t-161 -60.5q-98 0 -159.5 60t-61.5 165q0 107 61.5 170.5t159.5 63.5q100 0 161 -64t61 -170zM343 229q0 94 -9 127q-7 25 -30.5 43t-54.5 18q-29 0 -53 -16.5t-31 -44.5q-9 -32 -9 -127q0 -96 8 -129q8 -31 32 -48.5t54 -17.5q28 0 52 17
t31 45q10 34 10 133zM192 609q0 -28 -20 -49t-51 -21q-29 0 -49.5 20.5t-20.5 49.5q0 28 20 49t51 21q29 0 49.5 -20.5t20.5 -49.5zM450 609q0 -28 -20 -49t-51 -21q-29 0 -49.5 20.5t-20.5 49.5q0 28 20 49t51 21q29 0 49.5 -20.5t20.5 -49.5z" />
    <glyph glyph-name="divide" unicode="&#xf7;" horiz-adv-x="778" 
d="M721 250q0 -30 -41 -30h-583q-41 0 -41 30q0 31 46 31h573q46 0 46 -31zM467 504q0 -32 -23 -55t-55 -23t-55 23t-23 55t23 55t55 23t55 -23t23 -55zM467 -2q0 -32 -23 -55t-55 -23t-55 23t-23 55t23 55t55 23t55 -23t23 -55z" />
    <glyph glyph-name="oslash" unicode="&#xf8;" 
d="M471 219q0 -104 -61 -164.5t-161 -60.5q-47 0 -89 15l-59 -114l-32 16l58 114q-99 60 -99 194q0 106 60.5 170t161.5 64q48 0 90 -16l58 113l32 -16l-58 -114q47 -29 73 -82.5t26 -118.5zM317 393q-28 24 -67 24q-31 0 -58 -17t-38 -50q-12 -36 -12 -131q0 -99 16 -134z
M357 219q0 103 -16 141l-158 -307q27 -23 67 -23q64 0 90 53q17 34 17 136z" />
    <glyph glyph-name="ugrave" unicode="&#xf9;" horiz-adv-x="556" 
d="M553 0l-177 -6v68h-1q-38 -68 -118 -68q-79 0 -121.5 28.5t-42.5 99.5v234q0 28 -10.5 33.5t-58.5 5.5v47l183 8v-345q0 -45 10 -60t54 -15q46 0 72.5 38t26.5 95v193q0 28 -10.5 33.5t-58.5 5.5v47l183 8v-364q0 -28 10.5 -33.5t58.5 -5.5v-47zM343 544l-33 -33l-129 84
q-32 21 -32 49q0 24 19 43t43 19q29 0 48 -30z" />
    <glyph glyph-name="uacute" unicode="&#xfa;" horiz-adv-x="556" 
d="M553 0l-177 -6v68h-1q-38 -68 -118 -68q-79 0 -121.5 28.5t-42.5 99.5v234q0 28 -10.5 33.5t-58.5 5.5v47l183 8v-345q0 -45 10 -60t54 -15q46 0 72.5 38t26.5 95v193q0 28 -10.5 33.5t-58.5 5.5v47l183 8v-364q0 -28 10.5 -33.5t58.5 -5.5v-47zM407 644q0 -28 -32 -49
l-129 -84l-33 33l84 132q19 30 48 30q24 0 43 -19t19 -43z" />
    <glyph glyph-name="ucircumflex" unicode="&#xfb;" horiz-adv-x="556" 
d="M553 0l-177 -6v68h-1q-38 -68 -118 -68q-79 0 -121.5 28.5t-42.5 99.5v234q0 28 -10.5 33.5t-58.5 5.5v47l183 8v-345q0 -45 10 -60t54 -15q46 0 72.5 38t26.5 95v193q0 28 -10.5 33.5t-58.5 5.5v47l183 8v-364q0 -28 10.5 -33.5t58.5 -5.5v-47zM455 527l-20 -22l-158 99
l-158 -99l-18 22l177 185z" />
    <glyph glyph-name="udieresis" unicode="&#xfc;" horiz-adv-x="556" 
d="M553 0l-177 -6v68h-1q-38 -68 -118 -68q-79 0 -121.5 28.5t-42.5 99.5v234q0 28 -10.5 33.5t-58.5 5.5v47l183 8v-345q0 -45 10 -60t54 -15q46 0 72.5 38t26.5 95v193q0 28 -10.5 33.5t-58.5 5.5v47l183 8v-364q0 -28 10.5 -33.5t58.5 -5.5v-47zM220 609q0 -28 -20 -49
t-51 -21q-29 0 -49.5 20.5t-20.5 49.5q0 28 20 49t51 21q29 0 49.5 -20.5t20.5 -49.5zM478 609q0 -28 -20 -49t-51 -21q-29 0 -49.5 20.5t-20.5 49.5q0 28 20 49t51 21q29 0 49.5 -20.5t20.5 -49.5z" />
    <glyph glyph-name="yacute" unicode="&#xfd;" horiz-adv-x="528" 
d="M505 397q-44 0 -55 -4.5t-17 -19.5l-177 -457q-17 -44 -55 -80t-89 -36q-40 0 -66.5 27.5t-26.5 64.5q0 28 17 43t40 15q25 0 41.5 -16t16.5 -41q0 -40 -37 -55q8 -2 16 -2q48 0 81 56q13 23 44 108l-154 397h-62v47l112 -3l123 3v-47h-56l96 -247l85 222l5 13q0 5 -13 8
t-26 3l-13 1v47q39 -3 91 -3q42 0 79 3v-47zM393 644q0 -28 -32 -49l-129 -84l-33 33l84 132q19 30 48 30q24 0 43 -19t19 -43z" />
    <glyph glyph-name="thorn" unicode="&#xfe;" horiz-adv-x="556" 
d="M522 223q0 -108 -63 -168.5t-157 -60.5q-58 0 -103 36v-177h69v-47l-126 3l-126 -3v47h69v747q0 28 -10.5 33.5t-58.5 5.5v47l177 8v-287q55 43 124 43q88 0 146.5 -60.5t58.5 -166.5zM394 223q0 89 -25.5 138t-65.5 49q-59 0 -104 -56v-265q37 -59 94 -59q42 0 71.5 48
t29.5 145z" />
    <glyph glyph-name="ydieresis" unicode="&#xff;" horiz-adv-x="528" 
d="M505 397q-44 0 -55 -4.5t-17 -19.5l-177 -457q-17 -44 -55 -80t-89 -36q-40 0 -66.5 27.5t-26.5 64.5q0 28 17 43t40 15q25 0 41.5 -16t16.5 -41q0 -40 -37 -55q8 -2 16 -2q48 0 81 56q13 23 44 108l-154 397h-62v47l112 -3l123 3v-47h-56l96 -247l85 222l5 13q0 5 -13 8
t-26 3l-13 1v47q39 -3 91 -3q42 0 79 3v-47zM206 609q0 -28 -20 -49t-51 -21q-29 0 -49.5 20.5t-20.5 49.5q0 28 20 49t51 21q29 0 49.5 -20.5t20.5 -49.5zM464 609q0 -28 -20 -49t-51 -21q-29 0 -49.5 20.5t-20.5 49.5q0 28 20 49t51 21q29 0 49.5 -20.5t20.5 -49.5z" />
    <glyph glyph-name="Amacron" unicode="&#x100;" horiz-adv-x="756" 
d="M720 0q-36 3 -150 3q-127 0 -163 -3v47h83l-47 135h-219l-39 -111l-4 -12q0 -12 78 -12v-47l-118 3l-106 -3v47q38 0 58 2q21 2 26 5.5t9 15.5l212 602q6 18 14 22t24 4q11 0 16 -1t11 -7t10 -18l220 -625h85v-47zM426 229l-93 264l-93 -264h186zM559 748h-361v52h361
v-52z" />
    <glyph glyph-name="amacron" unicode="&#x101;" horiz-adv-x="486" 
d="M480 24q0 -16 -7 -20t-25 -4h-42q-32 0 -52.5 8t-27.5 22t-9 23t-2 21q-37 -80 -123 -80q-65 0 -117 29t-52 86q0 74 79 114t196 42v36q0 53 -21.5 84.5t-64.5 31.5q-28 0 -59 -6q23 -18 23 -50q0 -30 -19 -46.5t-44 -16.5q-23 0 -42.5 16.5t-19.5 46.5q0 25 14.5 44
t33 27.5t45 13.5t41 6t30.5 1q92 0 144.5 -41t52.5 -112v-216q0 -13 1.5 -19t12.5 -11.5t33 -6.5q7 -1 10.5 -2t7 -6.5t3.5 -14.5zM298 138v95q-14 -1 -27 -3t-39 -10t-44.5 -20t-33 -36t-14.5 -55t17.5 -55t46.5 -24q31 0 62.5 25.5t31.5 82.5zM424 583h-361v52h361v-52z
" />
    <glyph glyph-name="Abreve" unicode="&#x102;" horiz-adv-x="756" 
d="M720 0q-36 3 -150 3q-127 0 -163 -3v47h83l-47 135h-219l-39 -111l-4 -12q0 -12 78 -12v-47l-118 3l-106 -3v47q38 0 58 2q21 2 26 5.5t9 15.5l212 602q6 18 14 22t24 4q11 0 16 -1t11 -7t10 -18l220 -625h85v-47zM426 229l-93 264l-93 -264h186zM535 925
q-2 -85 -48 -136t-108 -51q-64 0 -109.5 51.5t-47.5 135.5h36q1 -57 37 -91t84 -34q46 0 82.5 33.5t37.5 91.5h36z" />
    <glyph glyph-name="abreve" unicode="&#x103;" horiz-adv-x="486" 
d="M480 24q0 -16 -7 -20t-25 -4h-42q-32 0 -52.5 8t-27.5 22t-9 23t-2 21q-37 -80 -123 -80q-65 0 -117 29t-52 86q0 74 79 114t196 42v36q0 53 -21.5 84.5t-64.5 31.5q-28 0 -59 -6q23 -18 23 -50q0 -30 -19 -46.5t-44 -16.5q-23 0 -42.5 16.5t-19.5 46.5q0 25 14.5 44
t33 27.5t45 13.5t41 6t30.5 1q92 0 144.5 -41t52.5 -112v-216q0 -13 1.5 -19t12.5 -11.5t33 -6.5q7 -1 10.5 -2t7 -6.5t3.5 -14.5zM298 138v95q-14 -1 -27 -3t-39 -10t-44.5 -20t-33 -36t-14.5 -55t17.5 -55t46.5 -24q31 0 62.5 25.5t31.5 82.5zM400 702q-2 -85 -48 -136
t-108 -51q-64 0 -109.5 51.5t-47.5 135.5h36q1 -57 37 -91t84 -34q46 0 82.5 33.5t37.5 91.5h36z" />
    <glyph glyph-name="Aogonek" unicode="&#x104;" horiz-adv-x="756" 
d="M720 0q-34 3 -97 3q-27 -13 -43 -31.5t-19.5 -37t1 -35t19 -27t34.5 -10.5q8 0 14.5 2t9 4t8 7t6.5 6q14 10 29 -3q6 -5 7 -14.5t-3 -13.5q-50 -54 -107 -54q-50 0 -77.5 26.5t-27.5 63.5q0 31 21.5 63.5t50.5 52.5q-118 0 -139 -2v47h83l-47 135h-219l-39 -111l-4 -12
q0 -12 78 -12v-47l-118 3l-106 -3v47q38 0 58 2q21 2 26 5.5t9 15.5l212 602q6 18 14 22t24 4q11 0 16 -1t11 -7t10 -18l220 -625h85v-47zM426 229l-93 264l-93 -264h186z" />
    <glyph glyph-name="aogonek" unicode="&#x105;" horiz-adv-x="486" 
d="M480 24q0 -16 -7 -20t-25 -4h-42q-27 -13 -43 -31.5t-19 -36.5t2 -34t19.5 -26t34.5 -10q8 0 14.5 2t9 4t8 7t6.5 6q14 10 29 -3q6 -5 7 -14.5t-3 -13.5q-50 -54 -107 -54q-50 0 -77.5 26.5t-27.5 63.5q0 32 26.5 70.5t58.5 57.5q-29 18 -29 60q-37 -80 -123 -80
q-65 0 -117 29t-52 86q0 74 79 114t196 42v36q0 53 -21.5 84.5t-64.5 31.5q-28 0 -59 -6q23 -18 23 -50q0 -30 -19 -46.5t-44 -16.5q-23 0 -42.5 16.5t-19.5 46.5q0 25 14.5 44t33 27.5t45 13.5t41 6t30.5 1q92 0 144.5 -41t52.5 -112v-216q0 -13 1.5 -19t12.5 -11.5
t33 -6.5q7 -1 10.5 -2t7 -6.5t3.5 -14.5zM298 138v95q-14 -1 -27 -3t-39 -10t-44.5 -20t-33 -36t-14.5 -55t17.5 -55t46.5 -24q31 0 62.5 25.5t31.5 82.5z" />
    <glyph glyph-name="Cacute" unicode="&#x106;" horiz-adv-x="722" 
d="M665 227q0 -88 -71 -163t-186 -75q-155 0 -253.5 95t-98.5 259q0 165 99.5 259.5t251.5 94.5q92 0 163 -62l58 53q10 9 19 9q12 0 15 -5.5t3 -22.5v-215q0 -20 -4 -24t-23 -4q-10 0 -14 0.5t-7.5 4t-4.5 11.5q-15 103 -67.5 155.5t-118.5 52.5q-111 0 -170 -82
q-22 -30 -33 -75.5t-12.5 -74.5t-1.5 -75q0 -76 8 -125t33 -90q27 -44 75 -68t103 -24q73 0 131.5 51.5t58.5 143.5q1 12 6 14.5t17 2.5q14 0 19 -3.5t5 -17.5zM535 841q-5 -27 -40 -43l-142 -60l-26 38l105 116q20 22 43 22q29 0 47 -22t13 -51z" />
    <glyph glyph-name="cacute" unicode="&#x107;" horiz-adv-x="444" 
d="M415 117q0 -5 -4 -17t-16 -31t-29.5 -35t-48.5 -28t-69 -12q-92 0 -153.5 60.5t-61.5 167.5q0 105 59.5 168t158.5 63q65 0 109 -23t44 -69q0 -30 -19 -46.5t-44 -16.5q-23 0 -42.5 16.5t-19.5 46.5q0 29 20 47q-27 5 -45 5q-22 0 -39 -9t-26.5 -26.5t-15.5 -33.5
t-8.5 -41.5t-3 -39.5t-0.5 -36q0 -91 19 -132q28 -61 85 -61q74 0 103 84q3 9 7 11t16 2q24 0 24 -14zM373 644q0 -28 -32 -49l-129 -84l-33 33l84 132q19 30 48 30q24 0 43 -19t19 -43z" />
    <glyph glyph-name="Ccircumflex" unicode="&#x108;" horiz-adv-x="722" 
d="M665 227q0 -88 -71 -163t-186 -75q-155 0 -253.5 95t-98.5 259q0 165 99.5 259.5t251.5 94.5q92 0 163 -62l58 53q10 9 19 9q12 0 15 -5.5t3 -22.5v-215q0 -20 -4 -24t-23 -4q-10 0 -14 0.5t-7.5 4t-4.5 11.5q-15 103 -67.5 155.5t-118.5 52.5q-111 0 -170 -82
q-22 -30 -33 -75.5t-12.5 -74.5t-1.5 -75q0 -76 8 -125t33 -90q27 -44 75 -68t103 -24q73 0 131.5 51.5t58.5 143.5q1 12 6 14.5t17 2.5q14 0 19 -3.5t5 -17.5zM572 752l-16 -24l-160 58l-160 -58l-14 24l175 141z" />
    <glyph glyph-name="ccircumflex" unicode="&#x109;" horiz-adv-x="444" 
d="M415 117q0 -5 -4 -17t-16 -31t-29.5 -35t-48.5 -28t-69 -12q-92 0 -153.5 60.5t-61.5 167.5q0 105 59.5 168t158.5 63q65 0 109 -23t44 -69q0 -30 -19 -46.5t-44 -16.5q-23 0 -42.5 16.5t-19.5 46.5q0 29 20 47q-27 5 -45 5q-22 0 -39 -9t-26.5 -26.5t-15.5 -33.5
t-8.5 -41.5t-3 -39.5t-0.5 -36q0 -91 19 -132q28 -61 85 -61q74 0 103 84q3 9 7 11t16 2q24 0 24 -14zM421 527l-20 -22l-158 99l-158 -99l-18 22l177 185z" />
    <glyph glyph-name="Cdotaccent" unicode="&#x10a;" horiz-adv-x="722" 
d="M665 227q0 -88 -71 -163t-186 -75q-155 0 -253.5 95t-98.5 259q0 165 99.5 259.5t251.5 94.5q92 0 163 -62l58 53q10 9 19 9q12 0 15 -5.5t3 -22.5v-215q0 -20 -4 -24t-23 -4q-10 0 -14 0.5t-7.5 4t-4.5 11.5q-15 103 -67.5 155.5t-118.5 52.5q-111 0 -170 -82
q-22 -30 -33 -75.5t-12.5 -74.5t-1.5 -75q0 -76 8 -125t33 -90q27 -44 75 -68t103 -24q73 0 131.5 51.5t58.5 143.5q1 12 6 14.5t17 2.5q14 0 19 -3.5t5 -17.5zM475 817q0 -31 -22.5 -54.5t-56.5 -23.5q-32 0 -55 23t-23 55q0 31 22.5 54.5t56.5 23.5q32 0 55 -23t23 -55z
" />
    <glyph glyph-name="cdotaccent" unicode="&#x10b;" horiz-adv-x="444" 
d="M415 117q0 -5 -4 -17t-16 -31t-29.5 -35t-48.5 -28t-69 -12q-92 0 -153.5 60.5t-61.5 167.5q0 105 59.5 168t158.5 63q65 0 109 -23t44 -69q0 -30 -19 -46.5t-44 -16.5q-23 0 -42.5 16.5t-19.5 46.5q0 29 20 47q-27 5 -45 5q-22 0 -39 -9t-26.5 -26.5t-15.5 -33.5
t-8.5 -41.5t-3 -39.5t-0.5 -36q0 -91 19 -132q28 -61 85 -61q74 0 103 84q3 9 7 11t16 2q24 0 24 -14zM322 609q0 -31 -22.5 -54.5t-56.5 -23.5q-32 0 -55 23t-23 55q0 31 22.5 54.5t56.5 23.5q32 0 55 -23t23 -55z" />
    <glyph glyph-name="Ccaron" unicode="&#x10c;" horiz-adv-x="722" 
d="M665 227q0 -88 -71 -163t-186 -75q-155 0 -253.5 95t-98.5 259q0 165 99.5 259.5t251.5 94.5q92 0 163 -62l58 53q10 9 19 9q12 0 15 -5.5t3 -22.5v-215q0 -20 -4 -24t-23 -4q-10 0 -14 0.5t-7.5 4t-4.5 11.5q-15 103 -67.5 155.5t-118.5 52.5q-111 0 -170 -82
q-22 -30 -33 -75.5t-12.5 -74.5t-1.5 -75q0 -76 8 -125t33 -90q27 -44 75 -68t103 -24q73 0 131.5 51.5t58.5 143.5q1 12 6 14.5t17 2.5q14 0 19 -3.5t5 -17.5zM572 869l-175 -141l-175 141l16 24l160 -58l160 58z" />
    <glyph glyph-name="ccaron" unicode="&#x10d;" horiz-adv-x="444" 
d="M415 117q0 -5 -4 -17t-16 -31t-29.5 -35t-48.5 -28t-69 -12q-92 0 -153.5 60.5t-61.5 167.5q0 105 59.5 168t158.5 63q65 0 109 -23t44 -69q0 -30 -19 -46.5t-44 -16.5q-23 0 -42.5 16.5t-19.5 46.5q0 29 20 47q-27 5 -45 5q-22 0 -39 -9t-26.5 -26.5t-15.5 -33.5
t-8.5 -41.5t-3 -39.5t-0.5 -36q0 -91 19 -132q28 -61 85 -61q74 0 103 84q3 9 7 11t16 2q24 0 24 -14zM421 690l-177 -185l-177 185l20 22l158 -99l158 99z" />
    <glyph glyph-name="Dcaron" unicode="&#x10e;" horiz-adv-x="767" 
d="M710 337q0 -160 -86.5 -248.5t-217.5 -88.5h-372v47h94v592h-94v47h372q130 0 217 -91t87 -258zM563 337q0 155 -32 212q-49 90 -167 90h-100v-592h101q117 0 166 85q32 59 32 205zM489 869l-175 -141l-175 141l16 24l160 -58l160 58z" />
    <glyph glyph-name="dcaron" unicode="&#x10f;" horiz-adv-x="556" 
d="M539 0l-183 -6v41q-50 -41 -114 -41q-89 0 -149 59.5t-60 168.5q0 107 62.5 167.5t156.5 60.5q61 0 110 -38v188q0 28 -10.5 33.5t-58.5 5.5v47l177 8v-608q0 -28 10.5 -33.5t58.5 -5.5v-47zM356 94v267q-38 53 -94 53q-31 0 -54.5 -17.5t-34.5 -47.5q-12 -35 -12 -128
q0 -94 11 -128q22 -63 79 -63q64 0 105 64zM633 600q0 -29 -8 -56.5t-19.5 -47t-23.5 -34.5t-21.5 -22.5t-13.5 -7.5q-5 0 -9.5 5t-4.5 10t9 12q59 52 63 132q-14 -14 -39 -14q-27 0 -43 17.5t-16 41.5t16.5 41t41.5 17q32 0 50 -27t18 -67z" />
    <glyph glyph-name="Dcroat" unicode="&#x110;" horiz-adv-x="767" 
d="M710 337q0 -160 -86.5 -248.5t-217.5 -88.5h-372v47h94v272h-94v48h94v272h-94v47h372q130 0 217 -91t87 -258zM563 337q0 155 -32 212q-49 90 -167 90h-100v-272h119v-48h-119v-272h101q117 0 166 85q32 59 32 205z" />
    <glyph glyph-name="dcroat" unicode="&#x111;" horiz-adv-x="556" 
d="M539 0l-183 -6v41q-50 -41 -114 -41q-89 0 -149 59.5t-60 168.5q0 107 62.5 167.5t156.5 60.5q61 0 110 -38v109h-140v48h140v31q0 28 -10.5 33.5t-58.5 5.5v47l177 8v-125h69v-48h-69v-435q0 -28 10.5 -33.5t58.5 -5.5v-47zM356 94v267q-38 53 -94 53q-31 0 -54.5 -17.5
t-34.5 -47.5q-12 -35 -12 -128q0 -94 11 -128q22 -63 79 -63q64 0 105 64z" />
    <glyph glyph-name="Emacron" unicode="&#x112;" horiz-adv-x="656" 
d="M627 274l-46 -274h-547v47h94v586h-94v47h534l31 -241h-47q-6 42 -10 64t-16 51.5t-30 43.5t-50 24.5t-77 10.5h-99v-257h22q62 0 78.5 26.5t16.5 90.5h47v-281h-47q0 33 -2 50t-11 35t-29 25t-53 7h-22v-282h103q41 0 71.5 7t51.5 23.5t34.5 33.5t23.5 47.5t15 53
t11 62.5h47zM509 748h-361v52h361v-52z" />
    <glyph glyph-name="emacron" unicode="&#x113;" horiz-adv-x="467" 
d="M438 117q0 -10 -9.5 -28.5t-29 -40.5t-56.5 -38t-84 -16q-101 0 -166 62.5t-65 168.5q0 104 60.5 166t158.5 62q55 0 94.5 -19t59.5 -51t28.5 -65.5t8.5 -70.5q0 -20 -6 -24.5t-26 -4.5h-250q0 -22 0.5 -35t3.5 -38t10 -41.5t19 -34t32 -26.5t47 -9q35 0 70.5 20t51.5 62
q4 12 8 15.5t16 3.5q24 0 24 -18zM343 251q0 19 -2 37.5t-9.5 52.5t-29 55t-54.5 21q-89 0 -92 -166h187zM414 583h-361v52h361v-52z" />
    <glyph glyph-name="Ebreve" unicode="&#x114;" horiz-adv-x="656" 
d="M627 274l-46 -274h-547v47h94v586h-94v47h534l31 -241h-47q-6 42 -10 64t-16 51.5t-30 43.5t-50 24.5t-77 10.5h-99v-257h22q62 0 78.5 26.5t16.5 90.5h47v-281h-47q0 33 -2 50t-11 35t-29 25t-53 7h-22v-282h103q41 0 71.5 7t51.5 23.5t34.5 33.5t23.5 47.5t15 53
t11 62.5h47zM485 925q-2 -85 -48 -136t-108 -51q-64 0 -109.5 51.5t-47.5 135.5h36q1 -57 37 -91t84 -34q46 0 82.5 33.5t37.5 91.5h36z" />
    <glyph glyph-name="ebreve" unicode="&#x115;" horiz-adv-x="467" 
d="M438 117q0 -10 -9.5 -28.5t-29 -40.5t-56.5 -38t-84 -16q-101 0 -166 62.5t-65 168.5q0 104 60.5 166t158.5 62q55 0 94.5 -19t59.5 -51t28.5 -65.5t8.5 -70.5q0 -20 -6 -24.5t-26 -4.5h-250q0 -22 0.5 -35t3.5 -38t10 -41.5t19 -34t32 -26.5t47 -9q35 0 70.5 20t51.5 62
q4 12 8 15.5t16 3.5q24 0 24 -18zM343 251q0 19 -2 37.5t-9.5 52.5t-29 55t-54.5 21q-89 0 -92 -166h187zM390 702q-2 -85 -48 -136t-108 -51q-64 0 -109.5 51.5t-47.5 135.5h36q1 -57 37 -91t84 -34q46 0 82.5 33.5t37.5 91.5h36z" />
    <glyph glyph-name="Edotaccent" unicode="&#x116;" horiz-adv-x="656" 
d="M627 274l-46 -274h-547v47h94v586h-94v47h534l31 -241h-47q-6 42 -10 64t-16 51.5t-30 43.5t-50 24.5t-77 10.5h-99v-257h22q62 0 78.5 26.5t16.5 90.5h47v-281h-47q0 33 -2 50t-11 35t-29 25t-53 7h-22v-282h103q41 0 71.5 7t51.5 23.5t34.5 33.5t23.5 47.5t15 53
t11 62.5h47zM406 817q0 -31 -22.5 -54.5t-56.5 -23.5q-32 0 -55 23t-23 55q0 31 22.5 54.5t56.5 23.5q32 0 55 -23t23 -55z" />
    <glyph glyph-name="edotaccent" unicode="&#x117;" horiz-adv-x="467" 
d="M438 117q0 -10 -9.5 -28.5t-29 -40.5t-56.5 -38t-84 -16q-101 0 -166 62.5t-65 168.5q0 104 60.5 166t158.5 62q55 0 94.5 -19t59.5 -51t28.5 -65.5t8.5 -70.5q0 -20 -6 -24.5t-26 -4.5h-250q0 -22 0.5 -35t3.5 -38t10 -41.5t19 -34t32 -26.5t47 -9q35 0 70.5 20t51.5 62
q4 12 8 15.5t16 3.5q24 0 24 -18zM343 251q0 19 -2 37.5t-9.5 52.5t-29 55t-54.5 21q-89 0 -92 -166h187zM311 609q0 -31 -22.5 -54.5t-56.5 -23.5q-32 0 -55 23t-23 55q0 31 22.5 54.5t56.5 23.5q32 0 55 -23t23 -55z" />
    <glyph glyph-name="Eogonek" unicode="&#x118;" horiz-adv-x="656" 
d="M627 274l-46 -274h-69q-27 -13 -43 -31.5t-19 -36.5t1.5 -34t19 -26t34.5 -10q8 0 14.5 2t9 4t8 7t6.5 6q14 10 29 -3q6 -5 7 -14.5t-3 -13.5q-50 -54 -107 -54q-50 0 -77.5 26.5t-27.5 63.5q0 31 21 62.5t49 51.5h-400v47h94v586h-94v47h534l31 -241h-47q-6 42 -10 64
t-16 51.5t-30 43.5t-50 24.5t-77 10.5h-99v-257h22q62 0 78.5 26.5t16.5 90.5h47v-281h-47q0 33 -2 50t-11 35t-29 25t-53 7h-22v-282h103q41 0 71.5 7t51.5 23.5t34.5 33.5t23.5 47.5t15 53t11 62.5h47z" />
    <glyph glyph-name="eogonek" unicode="&#x119;" horiz-adv-x="467" 
d="M438 117q0 -19 -26.5 -55.5t-76.5 -54.5q-44 -21 -59 -56t0.5 -62t48.5 -27q8 0 14.5 2t9 4t8 7t6.5 6q14 10 29 -3q6 -5 7 -14.5t-3 -13.5q-50 -54 -107 -54q-50 0 -77.5 26.5t-27.5 63.5q0 27 18.5 56.5t43.5 51.5q-96 5 -157 66.5t-61 164.5q0 104 60.5 166t158.5 62
q55 0 94.5 -19t59.5 -51t28.5 -65.5t8.5 -70.5q0 -20 -6 -24.5t-26 -4.5h-250q0 -22 0.5 -35t3.5 -38t10 -41.5t19 -34t32 -26.5t47 -9q35 0 70.5 20t51.5 62q4 12 8 15.5t16 3.5q24 0 24 -18zM343 251q0 19 -2 37.5t-9.5 52.5t-29 55t-54.5 21q-89 0 -92 -166h187z" />
    <glyph glyph-name="Ecaron" unicode="&#x11a;" horiz-adv-x="656" 
d="M627 274l-46 -274h-547v47h94v586h-94v47h534l31 -241h-47q-6 42 -10 64t-16 51.5t-30 43.5t-50 24.5t-77 10.5h-99v-257h22q62 0 78.5 26.5t16.5 90.5h47v-281h-47q0 33 -2 50t-11 35t-29 25t-53 7h-22v-282h103q41 0 71.5 7t51.5 23.5t34.5 33.5t23.5 47.5t15 53
t11 62.5h47zM503 869l-175 -141l-175 141l16 24l160 -58l160 58z" />
    <glyph glyph-name="ecaron" unicode="&#x11b;" horiz-adv-x="467" 
d="M438 117q0 -10 -9.5 -28.5t-29 -40.5t-56.5 -38t-84 -16q-101 0 -166 62.5t-65 168.5q0 104 60.5 166t158.5 62q55 0 94.5 -19t59.5 -51t28.5 -65.5t8.5 -70.5q0 -20 -6 -24.5t-26 -4.5h-250q0 -22 0.5 -35t3.5 -38t10 -41.5t19 -34t32 -26.5t47 -9q35 0 70.5 20t51.5 62
q4 12 8 15.5t16 3.5q24 0 24 -18zM343 251q0 19 -2 37.5t-9.5 52.5t-29 55t-54.5 21q-89 0 -92 -166h187zM410 690l-177 -185l-177 185l20 22l158 -99l158 99z" />
    <glyph glyph-name="Gcircumflex" unicode="&#x11c;" horiz-adv-x="786" 
d="M735 229h-69v-201q0 -28 -14 -28q-7 0 -42.5 17.5t-54.5 34.5q-16 -23 -53 -43t-94 -20q-153 0 -252.5 94.5t-99.5 259.5q0 164 99 259t253 95q93 0 163 -62l58 53q10 9 19 9q12 0 15 -5.5t3 -22.5v-215q0 -20 -4 -24t-23 -4q-10 0 -14 0.5t-7.5 4t-4.5 11.5
q-15 104 -68 156t-118 52q-118 0 -178 -93q-40 -62 -40 -214q0 -149 41 -215q32 -50 82 -71t97 -21q19 0 38 5.5t38 28t19 58.5v101h-125v47q44 -3 187 -3q112 0 149 3v-47zM568 752l-16 -24l-160 58l-160 -58l-14 24l175 141z" />
    <glyph glyph-name="gcircumflex" unicode="&#x11d;" 
d="M485 397q0 -18 -12 -30.5t-31 -12.5t-31 12t-12 31q0 9 3 18q-23 -7 -37 -16q37 -41 37 -97q0 -62 -46.5 -105t-133.5 -43q-62 0 -108 25q-9 -12 -9 -35q0 -26 15.5 -42.5t36.5 -18.5h58q39 0 60 -1t57 -4.5t56.5 -13.5t42.5 -26.5t32 -44t10 -64.5q0 -56 -56.5 -93
t-167.5 -37q-119 0 -171 39.5t-52 86.5q0 59 71 86q-41 34 -41 93q0 48 34 92q-48 38 -48 106q0 63 47 105.5t133 42.5q72 0 118 -32q41 37 89 37q28 0 42 -18.5t14 -39.5zM291 302q0 26 -1.5 40t-7 33.5t-21 29t-39.5 9.5q-20 0 -33.5 -7.5t-20.5 -16.5t-10.5 -27t-4 -29
t-0.5 -32q0 -26 1.5 -40t7 -33.5t21 -29t39.5 -9.5q20 0 33.5 7.5t20.5 16.5t10.5 27t4 29t0.5 32zM387 -75q0 62 -120 62h-94q-61 0 -61 -60q0 -39 34 -65.5t104 -26.5q71 0 104 27.5t33 62.5zM392 527l-20 -22l-158 99l-158 -99l-18 22l177 185z" />
    <glyph glyph-name="Gbreve" unicode="&#x11e;" horiz-adv-x="786" 
d="M735 229h-69v-201q0 -28 -14 -28q-7 0 -42.5 17.5t-54.5 34.5q-16 -23 -53 -43t-94 -20q-153 0 -252.5 94.5t-99.5 259.5q0 164 99 259t253 95q93 0 163 -62l58 53q10 9 19 9q12 0 15 -5.5t3 -22.5v-215q0 -20 -4 -24t-23 -4q-10 0 -14 0.5t-7.5 4t-4.5 11.5
q-15 104 -68 156t-118 52q-118 0 -178 -93q-40 -62 -40 -214q0 -149 41 -215q32 -50 82 -71t97 -21q19 0 38 5.5t38 28t19 58.5v101h-125v47q44 -3 187 -3q112 0 149 3v-47zM550 925q-2 -85 -48 -136t-108 -51q-64 0 -109.5 51.5t-47.5 135.5h36q1 -57 37 -91t84 -34
q46 0 82.5 33.5t37.5 91.5h36z" />
    <glyph glyph-name="gbreve" unicode="&#x11f;" 
d="M485 397q0 -18 -12 -30.5t-31 -12.5t-31 12t-12 31q0 9 3 18q-23 -7 -37 -16q37 -41 37 -97q0 -62 -46.5 -105t-133.5 -43q-62 0 -108 25q-9 -12 -9 -35q0 -26 15.5 -42.5t36.5 -18.5h58q39 0 60 -1t57 -4.5t56.5 -13.5t42.5 -26.5t32 -44t10 -64.5q0 -56 -56.5 -93
t-167.5 -37q-119 0 -171 39.5t-52 86.5q0 59 71 86q-41 34 -41 93q0 48 34 92q-48 38 -48 106q0 63 47 105.5t133 42.5q72 0 118 -32q41 37 89 37q28 0 42 -18.5t14 -39.5zM291 302q0 26 -1.5 40t-7 33.5t-21 29t-39.5 9.5q-20 0 -33.5 -7.5t-20.5 -16.5t-10.5 -27t-4 -29
t-0.5 -32q0 -26 1.5 -40t7 -33.5t21 -29t39.5 -9.5q20 0 33.5 7.5t20.5 16.5t10.5 27t4 29t0.5 32zM387 -75q0 62 -120 62h-94q-61 0 -61 -60q0 -39 34 -65.5t104 -26.5q71 0 104 27.5t33 62.5zM372 702q-2 -85 -48 -136t-108 -51q-64 0 -109.5 51.5t-47.5 135.5h36
q1 -57 37 -91t84 -34q46 0 82.5 33.5t37.5 91.5h36z" />
    <glyph glyph-name="Gdotaccent" unicode="&#x120;" horiz-adv-x="786" 
d="M735 229h-69v-201q0 -28 -14 -28q-7 0 -42.5 17.5t-54.5 34.5q-16 -23 -53 -43t-94 -20q-153 0 -252.5 94.5t-99.5 259.5q0 164 99 259t253 95q93 0 163 -62l58 53q10 9 19 9q12 0 15 -5.5t3 -22.5v-215q0 -20 -4 -24t-23 -4q-10 0 -14 0.5t-7.5 4t-4.5 11.5
q-15 104 -68 156t-118 52q-118 0 -178 -93q-40 -62 -40 -214q0 -149 41 -215q32 -50 82 -71t97 -21q19 0 38 5.5t38 28t19 58.5v101h-125v47q44 -3 187 -3q112 0 149 3v-47zM471 817q0 -31 -22.5 -54.5t-56.5 -23.5q-32 0 -55 23t-23 55q0 31 22.5 54.5t56.5 23.5
q32 0 55 -23t23 -55z" />
    <glyph glyph-name="gdotaccent" unicode="&#x121;" 
d="M485 397q0 -18 -12 -30.5t-31 -12.5t-31 12t-12 31q0 9 3 18q-23 -7 -37 -16q37 -41 37 -97q0 -62 -46.5 -105t-133.5 -43q-62 0 -108 25q-9 -12 -9 -35q0 -26 15.5 -42.5t36.5 -18.5h58q39 0 60 -1t57 -4.5t56.5 -13.5t42.5 -26.5t32 -44t10 -64.5q0 -56 -56.5 -93
t-167.5 -37q-119 0 -171 39.5t-52 86.5q0 59 71 86q-41 34 -41 93q0 48 34 92q-48 38 -48 106q0 63 47 105.5t133 42.5q72 0 118 -32q41 37 89 37q28 0 42 -18.5t14 -39.5zM291 302q0 26 -1.5 40t-7 33.5t-21 29t-39.5 9.5q-20 0 -33.5 -7.5t-20.5 -16.5t-10.5 -27t-4 -29
t-0.5 -32q0 -26 1.5 -40t7 -33.5t21 -29t39.5 -9.5q20 0 33.5 7.5t20.5 16.5t10.5 27t4 29t0.5 32zM387 -75q0 62 -120 62h-94q-61 0 -61 -60q0 -39 34 -65.5t104 -26.5q71 0 104 27.5t33 62.5zM293 609q0 -31 -22.5 -54.5t-56.5 -23.5q-32 0 -55 23t-23 55q0 31 22.5 54.5
t56.5 23.5q32 0 55 -23t23 -55z" />
    <glyph glyph-name="Gcommaaccent" unicode="&#x122;" horiz-adv-x="786" 
d="M735 229h-69v-201q0 -28 -14 -28q-7 0 -42.5 17.5t-54.5 34.5q-16 -23 -53 -43t-94 -20q-153 0 -252.5 94.5t-99.5 259.5q0 164 99 259t253 95q93 0 163 -62l58 53q10 9 19 9q12 0 15 -5.5t3 -22.5v-215q0 -20 -4 -24t-23 -4q-10 0 -14 0.5t-7.5 4t-4.5 11.5
q-15 104 -68 156t-118 52q-118 0 -178 -93q-40 -62 -40 -214q0 -149 41 -215q32 -50 82 -71t97 -21q19 0 38 5.5t38 28t19 58.5v101h-125v47q44 -3 187 -3q112 0 149 3v-47zM456 -127q0 -29 -8 -56.5t-19.5 -47t-23.5 -34.5t-21.5 -22.5t-13.5 -7.5q-5 0 -9.5 5t-4.5 10
t9 12q59 52 63 132q-14 -14 -39 -14q-27 0 -43 17.5t-16 41.5t16.5 41t41.5 17q32 0 50 -27t18 -67z" />
    <glyph glyph-name="gcommaaccent" unicode="&#x123;" 
d="M278 547q0 -24 -16.5 -41t-41.5 -17q-32 0 -50 27t-18 67q0 29 8 56.5t19.5 47t23.5 34.5t21.5 22.5t13.5 7.5q5 0 9.5 -5t4.5 -10t-9 -12q-59 -52 -63 -132q14 14 39 14q27 0 43 -17.5t16 -41.5zM485 397q0 -18 -12 -30.5t-31 -12.5t-31 12t-12 31q0 9 3 18
q-23 -7 -37 -16q37 -41 37 -97q0 -62 -46.5 -105t-133.5 -43q-62 0 -108 25q-9 -12 -9 -35q0 -26 15.5 -42.5t36.5 -18.5h58q39 0 60 -1t57 -4.5t56.5 -13.5t42.5 -26.5t32 -44t10 -64.5q0 -56 -56.5 -93t-167.5 -37q-119 0 -171 39.5t-52 86.5q0 59 71 86q-41 34 -41 93
q0 48 34 92q-48 38 -48 106q0 63 47 105.5t133 42.5q72 0 118 -32q41 37 89 37q28 0 42 -18.5t14 -39.5zM291 302q0 26 -1.5 40t-7 33.5t-21 29t-39.5 9.5q-20 0 -33.5 -7.5t-20.5 -16.5t-10.5 -27t-4 -29t-0.5 -32q0 -26 1.5 -40t7 -33.5t21 -29t39.5 -9.5q20 0 33.5 7.5
t20.5 16.5t10.5 27t4 29t0.5 32zM387 -75q0 62 -120 62h-94q-61 0 -61 -60q0 -39 34 -65.5t104 -26.5q71 0 104 27.5t33 62.5z" />
    <glyph glyph-name="Hcircumflex" unicode="&#x124;" horiz-adv-x="783" 
d="M748 0q-35 3 -165 3t-165 -3v47h94v286h-242v-286h94v-47q-35 3 -165 3t-165 -3v47h94v592h-94v47q35 -3 165 -3t165 3v-47h-94v-259h242v259h-94v47q35 -3 165 -3t165 3v-47h-94v-592h94v-47zM567 752l-16 -24l-160 58l-160 -58l-14 24l175 141z" />
    <glyph glyph-name="hcircumflex" unicode="&#x125;" horiz-adv-x="556" 
d="M553 0l-125 3l-123 -3v47h65v274q0 41 -6.5 63t-13 26t-16.5 4q-45 0 -86 -41t-41 -117v-209h69v-47l-126 3l-126 -3v47h69v553q0 28 -10.5 33.5t-58.5 5.5v47l177 8v-335h1q50 91 147 91q77 0 106 -38t29 -103v-262h69v-47zM453 760l-16 -24l-160 58l-160 -58l-14 24
l175 141z" />
    <glyph glyph-name="Hbar" unicode="&#x126;" horiz-adv-x="783" 
d="M748 0q-35 3 -165 3t-165 -3v47h94v286h-242v-286h94v-47q-35 3 -165 3t-165 -3v47h94v444h-94v48h94v100h-94v47q35 -3 165 -3t165 3v-47h-94v-100h242v100h-94v47q35 -3 165 -3t165 3v-47h-94v-100h94v-48h-94v-444h94v-47zM512 380v111h-242v-111h242z" />
    <glyph glyph-name="hbar" unicode="&#x127;" horiz-adv-x="556" 
d="M553 0l-125 3l-123 -3v47h65v274q0 41 -6.5 63t-13 26t-16.5 4q-45 0 -86 -41t-41 -117v-209h69v-47l-126 3l-126 -3v47h69v474h-69v48h69v31q0 28 -10.5 33.5t-58.5 5.5v47l177 8v-125h77v-48h-77v-162h1q50 91 147 91q77 0 106 -38t29 -103v-262h69v-47z" />
    <glyph glyph-name="Itilde" unicode="&#x128;" horiz-adv-x="397" 
d="M368 0q-36 3 -170 3t-170 -3v47h99v592h-99v47q36 -3 170 -3t170 3v-47h-99v-592h99v-47zM366 812l-41 -53q-23 -31 -63 -31q-18 0 -65 14q-51 17 -73 17q-39 0 -63 -31l-28 22l41 53q23 31 63 31q18 0 65 -14q51 -17 73 -17q39 0 63 31z" />
    <glyph glyph-name="itilde" unicode="&#x129;" horiz-adv-x="278" 
d="M265 0l-117 3l-122 -3v47h69v309q0 28 -10 33.5t-56 5.5v47l174 8v-403h62v-47zM306 640l-41 -53q-23 -31 -63 -31q-18 0 -65 14q-51 17 -73 17q-39 0 -63 -31l-28 22l41 53q23 31 63 31q18 0 65 -14q51 -17 73 -17q39 0 63 31z" />
    <glyph glyph-name="Imacron" unicode="&#x12a;" horiz-adv-x="397" 
d="M368 0q-36 3 -170 3t-170 -3v47h99v592h-99v47q36 -3 170 -3t170 3v-47h-99v-592h99v-47zM380 748h-361v52h361v-52z" />
    <glyph glyph-name="imacron" unicode="&#x12b;" horiz-adv-x="278" 
d="M265 0l-117 3l-122 -3v47h69v309q0 28 -10 33.5t-56 5.5v47l174 8v-403h62v-47zM320 583h-361v52h361v-52z" />
    <glyph glyph-name="Ibreve" unicode="&#x12c;" horiz-adv-x="397" 
d="M368 0q-36 3 -170 3t-170 -3v47h99v592h-99v47q36 -3 170 -3t170 3v-47h-99v-592h99v-47zM356 925q-2 -85 -48 -136t-108 -51q-64 0 -109.5 51.5t-47.5 135.5h36q1 -57 37 -91t84 -34q46 0 82.5 33.5t37.5 91.5h36z" />
    <glyph glyph-name="ibreve" unicode="&#x12d;" horiz-adv-x="278" 
d="M265 0l-117 3l-122 -3v47h69v309q0 28 -10 33.5t-56 5.5v47l174 8v-403h62v-47zM296 702q-2 -85 -48 -136t-108 -51q-64 0 -109.5 51.5t-47.5 135.5h36q1 -57 37 -91t84 -34q46 0 82.5 33.5t37.5 91.5h36z" />
    <glyph glyph-name="Iogonek" unicode="&#x12e;" horiz-adv-x="397" 
d="M368 0q-32 2 -71 2q-36 -18 -52 -52q-17 -32 -2 -60t51 -28q8 0 14.5 2t9 4t8 7t6.5 6q14 10 29 -3q6 -5 7 -14.5t-3 -13.5q-50 -54 -107 -54q-50 0 -77.5 26.5t-27.5 63.5q0 27 20.5 61t48.5 56h-24q-134 0 -170 -3v47h99v592h-99v47q36 -3 170 -3t170 3v-47h-99v-592
h99v-47z" />
    <glyph glyph-name="iogonek" unicode="&#x12f;" horiz-adv-x="278" 
d="M213 617q0 -33 -23 -55.5t-55 -22.5t-55 23t-23 55t23 55t55 23t55 -22.5t23 -55.5zM265 0l-89 3q-35 -18 -53 -53q-17 -32 -1.5 -60t50.5 -28q8 0 14.5 2t9 4t8 7t6.5 6q14 10 29 -3q6 -5 7 -14.5t-3 -13.5q-50 -54 -107 -54q-50 0 -77.5 26.5t-27.5 63.5
q0 27 20.5 60.5t48.5 55.5l-74 -2v47h69v309q0 28 -10 33.5t-56 5.5v47l174 8v-403h62v-47z" />
    <glyph glyph-name="Idotaccent" unicode="&#x130;" horiz-adv-x="397" 
d="M368 0q-36 3 -170 3t-170 -3v47h99v592h-99v47q36 -3 170 -3t170 3v-47h-99v-592h99v-47zM277 817q0 -31 -22.5 -54.5t-56.5 -23.5q-32 0 -55 23t-23 55q0 31 22.5 54.5t56.5 23.5q32 0 55 -23t23 -55z" />
    <glyph glyph-name="dotlessi" unicode="&#x131;" horiz-adv-x="278" 
d="M265 0l-117 3l-122 -3v47h69v309q0 28 -10 33.5t-56 5.5v47l174 8v-403h62v-47z" />
    <glyph glyph-name="Jcircumflex" unicode="&#x134;" horiz-adv-x="517" 
d="M459 639h-71v-490q0 -75 -59 -117.5t-153 -42.5q-77 0 -126.5 35t-49.5 90q0 37 23 57t54 20q29 0 52.5 -20t23.5 -57q0 -22 -11 -39.5t-20.5 -24t-18.5 -9.5q31 -16 68 -16q35 0 58 29.5t23 92.5v492h-123v47q41 -3 183 -3q110 0 147 3v-47zM469 752l-16 -24l-160 58
l-160 -58l-14 24l175 141z" />
    <glyph glyph-name="jcircumflex" unicode="&#x135;" horiz-adv-x="306" 
d="M242 -42q0 -73 -51.5 -115.5t-119.5 -42.5q-56 0 -94.5 24.5t-38.5 66.5q0 27 17.5 45t45.5 18q27 0 44.5 -18t17.5 -44q0 -34 -26 -51q15 -5 32 -5q20 0 34 12.5t20 33t8.5 38t2.5 36.5v399q0 13 -1 19t-6 11.5t-15 7.5q-15 2 -54 2v47l184 8v-492zM341 527l-20 -22
l-158 99l-158 -99l-18 22l177 185z" />
    <glyph glyph-name="Kcommaaccent" unicode="&#x136;" horiz-adv-x="783" 
d="M741 0q-43 3 -134 3q-124 0 -159 -3v47q64 0 64 11q0 3 -6 11l-168 264l-68 -67v-219h94v-47q-35 3 -165 3t-165 -3v47h94v592h-94v47q35 -3 165 -3t165 3v-47h-94v-307l290 286q2 2 9 11q-25 10 -64 10v47q37 -3 130 -3q47 0 92 3v-47q-57 0 -72.5 -5t-37.5 -26
l-188 -185l228 -357q5 -8 9 -11.5t16 -5.5t36 -2h23v-47zM455 -127q0 -29 -8 -56.5t-19.5 -47t-23.5 -34.5t-21.5 -22.5t-13.5 -7.5q-5 0 -9.5 5t-4.5 10t9 12q59 52 63 132q-14 -14 -39 -14q-27 0 -43 17.5t-16 41.5t16.5 41t41.5 17q32 0 50 -27t18 -67z" />
    <glyph glyph-name="kcommaaccent" unicode="&#x137;" horiz-adv-x="528" 
d="M511 0q-66 3 -101 3l-120 -3v47q37 0 37 10q0 4 -43.5 68.5t-59.5 86.5l-36 -33v-132h69v-47l-121 3l-120 -3v47h69v553q0 28 -10.5 33.5t-58.5 5.5v47l177 8v-446l139 128q8 4 8 10q0 11 -43 11v47q39 -3 114 -3q54 0 77 3v-47q-31 0 -48 -2.5t-23 -6t-14 -10.5
l-107 -99l145 -213q7 -11 11 -14t15 -4t44 -1v-47zM327 -127q0 -29 -8 -56.5t-19.5 -47t-23.5 -34.5t-21.5 -22.5t-13.5 -7.5q-5 0 -9.5 5t-4.5 10t9 12q59 52 63 132q-14 -14 -39 -14q-27 0 -43 17.5t-16 41.5t16.5 41t41.5 17q32 0 50 -27t18 -67z" />
    <glyph glyph-name="Lacute" unicode="&#x139;" horiz-adv-x="600" 
d="M557 274l-31 -274h-492v47h94v592h-94v47q35 -3 169 -3q144 0 185 3v-47h-118v-592h66q36 0 64.5 11t46 32.5t30 42.5t19 51t9.5 47.5t5 42.5h47zM341 841q-5 -27 -40 -43l-142 -60l-26 38l105 116q20 22 43 22q29 0 47 -22t13 -51z" />
    <glyph glyph-name="lacute" unicode="&#x13a;" horiz-adv-x="278" 
d="M272 0l-123 3l-123 -3v47h69v553q0 28 -10.5 33.5t-58.5 5.5v47l177 8v-647h69v-47zM277 849q-5 -27 -40 -43l-142 -60l-26 38l105 116q20 22 43 22q29 0 47 -22t13 -51z" />
    <glyph glyph-name="Lcommaaccent" unicode="&#x13b;" horiz-adv-x="600" 
d="M557 274l-31 -274h-492v47h94v592h-94v47q35 -3 169 -3q144 0 185 3v-47h-118v-592h66q36 0 64.5 11t46 32.5t30 42.5t19 51t9.5 47.5t5 42.5h47zM363 -127q0 -29 -8 -56.5t-19.5 -47t-23.5 -34.5t-21.5 -22.5t-13.5 -7.5q-5 0 -9.5 5t-4.5 10t9 12q59 52 63 132
q-14 -14 -39 -14q-27 0 -43 17.5t-16 41.5t16.5 41t41.5 17q32 0 50 -27t18 -67z" />
    <glyph glyph-name="lcommaaccent" unicode="&#x13c;" horiz-adv-x="278" 
d="M272 0l-123 3l-123 -3v47h69v553q0 28 -10.5 33.5t-58.5 5.5v47l177 8v-647h69v-47zM202 -127q0 -29 -8 -56.5t-19.5 -47t-23.5 -34.5t-21.5 -22.5t-13.5 -7.5q-5 0 -9.5 5t-4.5 10t9 12q59 52 63 132q-14 -14 -39 -14q-27 0 -43 17.5t-16 41.5t16.5 41t41.5 17
q32 0 50 -27t18 -67z" />
    <glyph glyph-name="Lcaron" unicode="&#x13d;" horiz-adv-x="600" 
d="M557 274l-31 -274h-492v47h94v592h-94v47q35 -3 169 -3q144 0 185 3v-47h-118v-592h66q36 0 64.5 11t46 32.5t30 42.5t19 51t9.5 47.5t5 42.5h47zM570 592q0 -29 -8 -56.5t-19.5 -47t-23.5 -34.5t-21.5 -22.5t-13.5 -7.5q-5 0 -9.5 5t-4.5 10t9 12q59 52 63 132
q-14 -14 -39 -14q-27 0 -43 17.5t-16 41.5t16.5 41t41.5 17q32 0 50 -27t18 -67z" />
    <glyph glyph-name="lcaron" unicode="&#x13e;" horiz-adv-x="278" 
d="M272 0l-123 3l-123 -3v47h69v553q0 28 -10.5 33.5t-58.5 5.5v47l177 8v-647h69v-47zM366 600q0 -29 -8 -56.5t-19.5 -47t-23.5 -34.5t-21.5 -22.5t-13.5 -7.5q-5 0 -9.5 5t-4.5 10t9 12q59 52 63 132q-14 -14 -39 -14q-27 0 -43 17.5t-16 41.5t16.5 41t41.5 17
q32 0 50 -27t18 -67z" />
    <glyph glyph-name="Ldot" unicode="&#x13f;" horiz-adv-x="600" 
d="M557 274l-31 -274h-492v47h94v592h-94v47q35 -3 169 -3q144 0 185 3v-47h-118v-592h66q36 0 64.5 11t46 32.5t30 42.5t19 51t9.5 47.5t5 42.5h47zM577 428q0 -31 -22.5 -54.5t-56.5 -23.5q-32 0 -55 23t-23 55q0 31 22.5 54.5t56.5 23.5q32 0 55 -23t23 -55z" />
    <glyph glyph-name="ldot" unicode="&#x140;" horiz-adv-x="361" 
d="M272 0l-123 3l-123 -3v47h69v553q0 28 -10.5 33.5t-58.5 5.5v47l177 8v-647h69v-47zM407 358q0 -31 -22.5 -54.5t-56.5 -23.5q-32 0 -55 23t-23 55q0 31 22.5 54.5t56.5 23.5q32 0 55 -23t23 -55z" />
    <glyph glyph-name="Lslash" unicode="&#x141;" horiz-adv-x="600" 
d="M570 274l-31 -274h-492v47h94v219l-53 -46l-31 37l84 71v311h-94v47q35 -3 169 -3q144 0 185 3v-47h-118v-188l140 117l33 -36l-173 -145v-340h66q36 0 64.5 11t46 32.5t30 42.5t19 51t9.5 47.5t5 42.5h47z" />
    <glyph glyph-name="lslash" unicode="&#x142;" horiz-adv-x="336" 
d="M318 447l-89 -76v-324h69v-47l-123 3l-123 -3v47h69v233l-40 -35l-31 40l71 59v256q0 28 -10.5 33.5t-58.5 5.5v47l177 8v-257l56 47z" />
    <glyph glyph-name="Nacute" unicode="&#x143;" horiz-adv-x="783" 
d="M748 639h-20q-28 0 -50 -3q-18 -2 -21 -5.5t-3 -20.5v-578q0 -20 -4 -26t-23 -6q-18 0 -27 13l-419 576v-513q0 -17 3.5 -20.5t21.5 -5.5q21 -3 49 -3h20v-47l-121 3l-120 -3v47h20q28 0 50 3q18 2 21 5.5t3 20.5v563h-94v47h208q16 0 21.5 -2t13.5 -13l324 -446v385
q0 17 -3.5 20.5t-21.5 5.5q-21 3 -49 3h-20v47l121 -3l120 3v-47zM530 841q-5 -27 -40 -43l-142 -60l-26 38l105 116q20 22 43 22q29 0 47 -22t13 -51z" />
    <glyph glyph-name="nacute" unicode="&#x144;" horiz-adv-x="556" 
d="M553 0l-125 3l-123 -3v47h65v274q0 41 -6.5 63t-13 26t-16.5 4q-45 0 -86 -41t-41 -117v-209h69v-47l-126 3l-126 -3v47h69v309q0 28 -10.5 33.5t-58.5 5.5v47l172 8v-101h1q49 101 152 101q77 0 106 -38t29 -103v-262h69v-47zM407 644q0 -28 -32 -49l-129 -84l-33 33
l84 132q19 30 48 30q24 0 43 -19t19 -43z" />
    <glyph glyph-name="Ncommaaccent" unicode="&#x145;" horiz-adv-x="783" 
d="M748 639h-20q-28 0 -50 -3q-18 -2 -21 -5.5t-3 -20.5v-578q0 -20 -4 -26t-23 -6q-18 0 -27 13l-419 576v-513q0 -17 3.5 -20.5t21.5 -5.5q21 -3 49 -3h20v-47l-121 3l-120 -3v47h20q28 0 50 3q18 2 21 5.5t3 20.5v563h-94v47h208q16 0 21.5 -2t13.5 -13l324 -446v385
q0 17 -3.5 20.5t-21.5 5.5q-21 3 -49 3h-20v47l121 -3l120 3v-47zM455 -127q0 -29 -8 -56.5t-19.5 -47t-23.5 -34.5t-21.5 -22.5t-13.5 -7.5q-5 0 -9.5 5t-4.5 10t9 12q59 52 63 132q-14 -14 -39 -14q-27 0 -43 17.5t-16 41.5t16.5 41t41.5 17q32 0 50 -27t18 -67z" />
    <glyph glyph-name="ncommaaccent" unicode="&#x146;" horiz-adv-x="556" 
d="M553 0l-125 3l-123 -3v47h65v274q0 41 -6.5 63t-13 26t-16.5 4q-45 0 -86 -41t-41 -117v-209h69v-47l-126 3l-126 -3v47h69v309q0 28 -10.5 33.5t-58.5 5.5v47l172 8v-101h1q49 101 152 101q77 0 106 -38t29 -103v-262h69v-47zM341 -127q0 -29 -8 -56.5t-19.5 -47
t-23.5 -34.5t-21.5 -22.5t-13.5 -7.5q-5 0 -9.5 5t-4.5 10t9 12q59 52 63 132q-14 -14 -39 -14q-27 0 -43 17.5t-16 41.5t16.5 41t41.5 17q32 0 50 -27t18 -67z" />
    <glyph glyph-name="Ncaron" unicode="&#x147;" horiz-adv-x="783" 
d="M748 639h-20q-28 0 -50 -3q-18 -2 -21 -5.5t-3 -20.5v-578q0 -20 -4 -26t-23 -6q-18 0 -27 13l-419 576v-513q0 -17 3.5 -20.5t21.5 -5.5q21 -3 49 -3h20v-47l-121 3l-120 -3v47h20q28 0 50 3q18 2 21 5.5t3 20.5v563h-94v47h208q16 0 21.5 -2t13.5 -13l324 -446v385
q0 17 -3.5 20.5t-21.5 5.5q-21 3 -49 3h-20v47l121 -3l120 3v-47zM567 869l-175 -141l-175 141l16 24l160 -58l160 58z" />
    <glyph glyph-name="ncaron" unicode="&#x148;" horiz-adv-x="556" 
d="M553 0l-125 3l-123 -3v47h65v274q0 41 -6.5 63t-13 26t-16.5 4q-45 0 -86 -41t-41 -117v-209h69v-47l-126 3l-126 -3v47h69v309q0 28 -10.5 33.5t-58.5 5.5v47l172 8v-101h1q49 101 152 101q77 0 106 -38t29 -103v-262h69v-47zM455 690l-177 -185l-177 185l20 22l158 -99
l158 99z" />
    <glyph glyph-name="Eng" unicode="&#x14a;" horiz-adv-x="783" 
d="M717 343q0 -69 -10 -128.5t-31.5 -112t-60.5 -83t-93 -30.5q-26 0 -44.5 18.5t-18.5 44.5t18.5 44.5t44.5 18.5q17 0 34 -10q9 64 9 238q0 42 -1.5 73.5t-5.5 69.5t-13.5 64.5t-23.5 50.5t-37 36t-53 12q-99 0 -162 -69v-533h99v-47q-36 3 -170 3t-170 -3v47h99v592h-99
v47q36 -3 170 -3q35 0 71 3v-43q70 54 162 54q125 0 205.5 -105.5t80.5 -248.5z" />
    <glyph glyph-name="eng" unicode="&#x14b;" horiz-adv-x="520" 
d="M484 47q0 -102 -48 -177t-130 -75q-24 0 -40.5 16.5t-16.5 40.5q0 23 16.5 40t40.5 17q31 0 48 -27q16 41 16 165v274q0 41 -6.5 63t-13 26t-16.5 4q-45 0 -86 -41t-41 -117v-209h69v-47l-126 3l-126 -3v47h69v309q0 28 -10.5 33.5t-58.5 5.5v47l172 8v-101h1
q49 101 152 101q77 0 106 -38t29 -103v-262z" />
    <glyph glyph-name="Omacron" unicode="&#x14c;" horiz-adv-x="750" 
d="M693 339q0 -164 -89 -257t-230 -93q-137 0 -227.5 92t-90.5 258q0 168 89.5 263t229.5 95q137 0 227.5 -94t90.5 -264zM540 353q0 135 -27 200q-21 50 -58 77t-81 27q-39 0 -76.5 -24t-60.5 -76q-28 -65 -28 -204q0 -151 32 -223q20 -45 55 -72t79 -27q42 0 79 28t56 75
q20 49 25 97t5 122zM556 748h-361v52h361v-52z" />
    <glyph glyph-name="omacron" unicode="&#x14d;" 
d="M471 219q0 -104 -61 -164.5t-161 -60.5q-98 0 -159.5 60t-61.5 165q0 107 61.5 170.5t159.5 63.5q100 0 161 -64t61 -170zM343 229q0 94 -9 127q-7 25 -30.5 43t-54.5 18q-29 0 -53 -16.5t-31 -44.5q-9 -32 -9 -127q0 -96 8 -129q8 -31 32 -48.5t54 -17.5q28 0 52 17
t31 45q10 34 10 133zM431 583h-361v52h361v-52z" />
    <glyph glyph-name="Obreve" unicode="&#x14e;" horiz-adv-x="750" 
d="M693 339q0 -164 -89 -257t-230 -93q-137 0 -227.5 92t-90.5 258q0 168 89.5 263t229.5 95q137 0 227.5 -94t90.5 -264zM540 353q0 135 -27 200q-21 50 -58 77t-81 27q-39 0 -76.5 -24t-60.5 -76q-28 -65 -28 -204q0 -151 32 -223q20 -45 55 -72t79 -27q42 0 79 28t56 75
q20 49 25 97t5 122zM532 925q-2 -85 -48 -136t-108 -51q-64 0 -109.5 51.5t-47.5 135.5h36q1 -57 37 -91t84 -34q46 0 82.5 33.5t37.5 91.5h36z" />
    <glyph glyph-name="obreve" unicode="&#x14f;" 
d="M471 219q0 -104 -61 -164.5t-161 -60.5q-98 0 -159.5 60t-61.5 165q0 107 61.5 170.5t159.5 63.5q100 0 161 -64t61 -170zM343 229q0 94 -9 127q-7 25 -30.5 43t-54.5 18q-29 0 -53 -16.5t-31 -44.5q-9 -32 -9 -127q0 -96 8 -129q8 -31 32 -48.5t54 -17.5q28 0 52 17
t31 45q10 34 10 133zM407 702q-2 -85 -48 -136t-108 -51q-64 0 -109.5 51.5t-47.5 135.5h36q1 -57 37 -91t84 -34q46 0 82.5 33.5t37.5 91.5h36z" />
    <glyph glyph-name="Ohungarumlaut" unicode="&#x150;" horiz-adv-x="750" 
d="M693 339q0 -164 -89 -257t-230 -93q-137 0 -227.5 92t-90.5 258q0 168 89.5 263t229.5 95q137 0 227.5 -94t90.5 -264zM540 353q0 135 -27 200q-21 50 -58 77t-81 27q-39 0 -76.5 -24t-60.5 -76q-28 -65 -28 -204q0 -151 32 -223q20 -45 55 -72t79 -27q42 0 79 28t56 75
q20 49 25 97t5 122zM386 874q0 -20 -21 -45l-80 -91l-42 21l22 120q10 54 54 54q25 0 46 -17.5t21 -41.5zM553 874q0 -20 -21 -45l-80 -91l-42 21l22 120q10 54 54 54q25 0 46 -17.5t21 -41.5z" />
    <glyph glyph-name="ohungarumlaut" unicode="&#x151;" 
d="M471 219q0 -104 -61 -164.5t-161 -60.5q-98 0 -159.5 60t-61.5 165q0 107 61.5 170.5t159.5 63.5q100 0 161 -64t61 -170zM343 229q0 94 -9 127q-7 25 -30.5 43t-54.5 18q-29 0 -53 -16.5t-31 -44.5q-9 -32 -9 -127q0 -96 8 -129q8 -31 32 -48.5t54 -17.5q28 0 52 17
t31 45q10 34 10 133zM261 647q0 -20 -21 -45l-80 -91l-42 21l22 120q10 54 54 54q25 0 46 -17.5t21 -41.5zM428 647q0 -20 -21 -45l-80 -91l-42 21l22 120q10 54 54 54q25 0 46 -17.5t21 -41.5z" />
    <glyph glyph-name="OE" unicode="&#x152;" horiz-adv-x="1017" 
d="M988 274l-46 -274h-368q-26 0 -98 -7q-39 -4 -69 -4q-150 0 -242 94t-92 257q0 161 91 259t243 98q41 0 90 -6q42 -5 77 -5h355l31 -241h-47q-5 36 -8 54t-11 45t-19 40.5t-29.5 28t-45.5 20.5t-64 6h-96v-259h60q66 0 85 27.5t19 89.5h47v-281h-47q0 63 -19 90t-85 27
h-60v-286h101q34 0 61 6.5t45.5 15.5t33.5 27.5t23.5 33.5t16 43.5t11 47t9.5 53.5h47zM517 344q0 179 -4 216q-6 54 -26.5 77.5t-78.5 23.5q-77 0 -132.5 -74.5t-55.5 -231.5q0 -162 54.5 -246t133.5 -84q59 0 79 24t26 78q4 35 4 217z" />
    <glyph glyph-name="oe" unicode="&#x153;" horiz-adv-x="778" 
d="M749 117q0 -30 -43.5 -76.5t-120.5 -46.5q-101 0 -168 67q-66 -67 -166 -67q-99 0 -161 62.5t-62 167.5q0 106 62.5 167.5t160.5 61.5q47 0 87.5 -16t54 -27.5t22.5 -21.5q60 65 157 65q89 0 133 -57t44 -149q0 -20 -6 -24.5t-26 -4.5h-244q0 -16 0.5 -25t3 -31t7 -36
t13 -33.5t20.5 -30.5t31.5 -19.5t43.5 -8.5q33 0 64 20t45 62q2 6 3 8.5t3.5 5.5t6.5 4t11 1q24 0 24 -18zM654 251q-4 166 -82 166q-23 0 -45.5 -15t-35.5 -42q-16 -35 -18 -109h181zM359 229q0 95 -19 133q-28 55 -89 55q-29 0 -52.5 -16t-35.5 -39q-18 -38 -18 -133
q0 -94 17 -135q12 -30 37 -47t52 -17q62 0 90 63q18 39 18 136z" />
    <glyph glyph-name="Racute" unicode="&#x154;" horiz-adv-x="760" 
d="M756 94q0 -8 -3.5 -21.5t-12.5 -34.5t-32.5 -35t-57.5 -14q-166 0 -199 91q-7 22 -7 89q0 53 -3 74.5t-17 43.5q-24 38 -74 38h-86v-278h94v-47q-35 3 -162 3t-162 -3v47h94v592h-94v47h333q124 0 195.5 -53t71.5 -133q0 -54 -40.5 -98.5t-111.5 -62.5q88 -38 103 -120
q1 -2 10 -74q4 -31 7 -46.5t9.5 -36t17.5 -29t28 -8.5q21 0 35 18t17 51q1 13 5.5 18t17.5 5q24 0 24 -23zM481 500q0 35 -2.5 53t-14 41.5t-41 34t-77.5 10.5h-82v-278h80q40 0 67 8.5t40.5 19.5t20.5 33t8 36t1 42zM518 841q-5 -27 -40 -43l-142 -60l-26 38l105 116
q20 22 43 22q29 0 47 -22t13 -51z" />
    <glyph glyph-name="racute" unicode="&#x155;" horiz-adv-x="428" 
d="M400 368q0 -28 -18.5 -44.5t-42.5 -16.5t-42.5 16t-18.5 45q0 13 5 24.5t9 16.5l5 5q-32 0 -53.5 -18t-32 -48.5t-14.5 -59.5t-4 -62v-179h87v-47q-36 3 -138 3l-126 -3v47h69v309q0 28 -10.5 33.5t-58.5 5.5v47l166 8v-91h1q30 91 110 91q41 0 74 -21.5t33 -60.5z
M343 644q0 -28 -32 -49l-129 -84l-33 33l84 132q19 30 48 30q24 0 43 -19t19 -43z" />
    <glyph glyph-name="Rcommaaccent" unicode="&#x156;" horiz-adv-x="760" 
d="M756 94q0 -8 -3.5 -21.5t-12.5 -34.5t-32.5 -35t-57.5 -14q-166 0 -199 91q-7 22 -7 89q0 53 -3 74.5t-17 43.5q-24 38 -74 38h-86v-278h94v-47q-35 3 -162 3t-162 -3v47h94v592h-94v47h333q124 0 195.5 -53t71.5 -133q0 -54 -40.5 -98.5t-111.5 -62.5q88 -38 103 -120
q1 -2 10 -74q4 -31 7 -46.5t9.5 -36t17.5 -29t28 -8.5q21 0 35 18t17 51q1 13 5.5 18t17.5 5q24 0 24 -23zM481 500q0 35 -2.5 53t-14 41.5t-41 34t-77.5 10.5h-82v-278h80q40 0 67 8.5t40.5 19.5t20.5 33t8 36t1 42zM443 -127q0 -29 -8 -56.5t-19.5 -47t-23.5 -34.5
t-21.5 -22.5t-13.5 -7.5q-5 0 -9.5 5t-4.5 10t9 12q59 52 63 132q-14 -14 -39 -14q-27 0 -43 17.5t-16 41.5t16.5 41t41.5 17q32 0 50 -27t18 -67z" />
    <glyph glyph-name="rcommaaccent" unicode="&#x157;" horiz-adv-x="428" 
d="M400 368q0 -28 -18.5 -44.5t-42.5 -16.5t-42.5 16t-18.5 45q0 13 5 24.5t9 16.5l5 5q-32 0 -53.5 -18t-32 -48.5t-14.5 -59.5t-4 -62v-179h87v-47q-36 3 -138 3l-126 -3v47h69v309q0 28 -10.5 33.5t-58.5 5.5v47l166 8v-91h1q30 91 110 91q41 0 74 -21.5t33 -60.5z
M202 -127q0 -29 -8 -56.5t-19.5 -47t-23.5 -34.5t-21.5 -22.5t-13.5 -7.5q-5 0 -9.5 5t-4.5 10t9 12q59 52 63 132q-14 -14 -39 -14q-27 0 -43 17.5t-16 41.5t16.5 41t41.5 17q32 0 50 -27t18 -67z" />
    <glyph glyph-name="Rcaron" unicode="&#x158;" horiz-adv-x="760" 
d="M756 94q0 -8 -3.5 -21.5t-12.5 -34.5t-32.5 -35t-57.5 -14q-166 0 -199 91q-7 22 -7 89q0 53 -3 74.5t-17 43.5q-24 38 -74 38h-86v-278h94v-47q-35 3 -162 3t-162 -3v47h94v592h-94v47h333q124 0 195.5 -53t71.5 -133q0 -54 -40.5 -98.5t-111.5 -62.5q88 -38 103 -120
q1 -2 10 -74q4 -31 7 -46.5t9.5 -36t17.5 -29t28 -8.5q21 0 35 18t17 51q1 13 5.5 18t17.5 5q24 0 24 -23zM481 500q0 35 -2.5 53t-14 41.5t-41 34t-77.5 10.5h-82v-278h80q40 0 67 8.5t40.5 19.5t20.5 33t8 36t1 42zM555 869l-175 -141l-175 141l16 24l160 -58l160 58z" />
    <glyph glyph-name="rcaron" unicode="&#x159;" horiz-adv-x="428" 
d="M400 368q0 -28 -18.5 -44.5t-42.5 -16.5t-42.5 16t-18.5 45q0 13 5 24.5t9 16.5l5 5q-32 0 -53.5 -18t-32 -48.5t-14.5 -59.5t-4 -62v-179h87v-47q-36 3 -138 3l-126 -3v47h69v309q0 28 -10.5 33.5t-58.5 5.5v47l166 8v-91h1q30 91 110 91q41 0 74 -21.5t33 -60.5z
M391 690l-177 -185l-177 185l20 22l158 -99l158 99z" />
    <glyph glyph-name="Sacute" unicode="&#x15a;" horiz-adv-x="556" 
d="M499 203q0 -93 -51.5 -153.5t-145.5 -60.5q-100 0 -167 51l-28 -28q-18 -17 -22 -20t-11 -3q-12 0 -15 5.5t-3 22.5v182q0 19 3.5 24t20.5 5q8 0 12.5 -1t7 -4t3 -6.5t0.5 -11.5q2 -49 23 -84.5t52.5 -53t61.5 -24.5t61 -7q55 0 78 35.5t23 81.5q0 83 -66 113
q-19 6 -68 17q-76 19 -106 32t-58 46q-48 59 -48 136q0 87 52 143.5t143 56.5q84 0 143 -50l27 27q18 17 22 20t11 3q12 0 15 -5.5t3 -22.5v-183q0 -18 -3.5 -23t-20.5 -5q-12 0 -17 3t-7 14q-24 179 -172 179q-51 0 -75 -31.5t-24 -73.5q0 -35 18 -62.5t45 -37.5
q7 -2 73 -19q52 -13 74 -20t47 -23t45 -44q44 -60 44 -140zM416 841q-5 -27 -40 -43l-142 -60l-26 38l105 116q20 22 43 22q29 0 47 -22t13 -51z" />
    <glyph glyph-name="sacute" unicode="&#x15b;" horiz-adv-x="394" 
d="M360 139q0 -63 -37.5 -104t-123.5 -41q-57 0 -97 28q-16 -10 -24 -16q-18 -12 -27 -12q-12 0 -15 6t-3 22v109q0 19 3.5 24t20.5 5q14 0 17.5 -3t6.5 -14q14 -55 41 -84t77 -29q90 0 90 74q0 29 -19 47.5t-36 23.5t-46 11t-44.5 10t-36 14t-35.5 25q-39 39 -39 87
q0 38 14.5 65t39 40.5t50.5 19.5t56 6q52 0 83 -18q33 18 41 18q12 0 15 -5.5t3 -22.5v-80q0 -19 -3.5 -23.5t-20.5 -4.5q-14 0 -18 3.5t-5 15.5q-1 14 -3.5 23.5t-11 26t-29 26t-51.5 9.5q-89 0 -89 -62q0 -17 8 -29.5t26.5 -20t29.5 -11t37 -8.5q27 -5 41 -8.5t34 -14
t35 -25.5q45 -42 45 -103zM326 644q0 -28 -32 -49l-129 -84l-33 33l84 132q19 30 48 30q24 0 43 -19t19 -43z" />
    <glyph glyph-name="Scircumflex" unicode="&#x15c;" horiz-adv-x="556" 
d="M499 203q0 -93 -51.5 -153.5t-145.5 -60.5q-100 0 -167 51l-28 -28q-18 -17 -22 -20t-11 -3q-12 0 -15 5.5t-3 22.5v182q0 19 3.5 24t20.5 5q8 0 12.5 -1t7 -4t3 -6.5t0.5 -11.5q2 -49 23 -84.5t52.5 -53t61.5 -24.5t61 -7q55 0 78 35.5t23 81.5q0 83 -66 113
q-19 6 -68 17q-76 19 -106 32t-58 46q-48 59 -48 136q0 87 52 143.5t143 56.5q84 0 143 -50l27 27q18 17 22 20t11 3q12 0 15 -5.5t3 -22.5v-183q0 -18 -3.5 -23t-20.5 -5q-12 0 -17 3t-7 14q-24 179 -172 179q-51 0 -75 -31.5t-24 -73.5q0 -35 18 -62.5t45 -37.5
q7 -2 73 -19q52 -13 74 -20t47 -23t45 -44q44 -60 44 -140zM453 752l-16 -24l-160 58l-160 -58l-14 24l175 141z" />
    <glyph glyph-name="scircumflex" unicode="&#x15d;" horiz-adv-x="394" 
d="M360 139q0 -63 -37.5 -104t-123.5 -41q-57 0 -97 28q-16 -10 -24 -16q-18 -12 -27 -12q-12 0 -15 6t-3 22v109q0 19 3.5 24t20.5 5q14 0 17.5 -3t6.5 -14q14 -55 41 -84t77 -29q90 0 90 74q0 29 -19 47.5t-36 23.5t-46 11t-44.5 10t-36 14t-35.5 25q-39 39 -39 87
q0 38 14.5 65t39 40.5t50.5 19.5t56 6q52 0 83 -18q33 18 41 18q12 0 15 -5.5t3 -22.5v-80q0 -19 -3.5 -23.5t-20.5 -4.5q-14 0 -18 3.5t-5 15.5q-1 14 -3.5 23.5t-11 26t-29 26t-51.5 9.5q-89 0 -89 -62q0 -17 8 -29.5t26.5 -20t29.5 -11t37 -8.5q27 -5 41 -8.5t34 -14
t35 -25.5q45 -42 45 -103zM374 527l-20 -22l-158 99l-158 -99l-18 22l177 185z" />
    <glyph glyph-name="Scedilla" unicode="&#x15e;" horiz-adv-x="556" 
d="M499 203q0 -87 -45 -146t-128 -67v-23q35 0 60.5 -24.5t25.5 -58.5q0 -20 -8.5 -35t-27 -24t-35.5 -14.5t-47.5 -7.5t-49 -2.5t-52.5 -0.5h-48v48h24h27.5t25.5 1t25 3.5t19 6t14.5 10t4.5 15.5q0 16 -16 25.5t-38 9.5v78q-55 12 -95 43l-28 -28q-18 -17 -22 -20t-11 -3
q-12 0 -15 5.5t-3 22.5v182q0 19 3.5 24t20.5 5q8 0 12.5 -1t7 -4t3 -6.5t0.5 -11.5q2 -49 23 -84.5t52.5 -53t61.5 -24.5t61 -7q55 0 78 35.5t23 81.5q0 83 -66 113q-19 6 -68 17q-76 19 -106 32t-58 46q-48 59 -48 136q0 87 52 143.5t143 56.5q84 0 143 -50l27 27
q18 17 22 20t11 3q12 0 15 -5.5t3 -22.5v-183q0 -18 -3.5 -23t-20.5 -5q-12 0 -17 3t-7 14q-24 179 -172 179q-51 0 -75 -31.5t-24 -73.5q0 -35 18 -62.5t45 -37.5q7 -2 73 -19q52 -13 74 -20t47 -23t45 -44q44 -60 44 -140z" />
    <glyph glyph-name="scedilla" unicode="&#x15f;" horiz-adv-x="394" 
d="M360 139q0 -121 -115 -141v-31q35 0 60.5 -24.5t25.5 -58.5q0 -20 -8.5 -35t-27 -24t-35.5 -14.5t-47.5 -7.5t-48.5 -2.5t-52 -0.5h-48v48h24q27 0 41.5 0.5t34.5 3.5t29.5 11t9.5 21q0 16 -16 25.5t-38 9.5v81q-25 7 -47 22q-16 -10 -24 -16q-18 -12 -27 -12
q-12 0 -15 6t-3 22v109q0 19 3.5 24t20.5 5q14 0 17.5 -3t6.5 -14q14 -55 41 -84t77 -29q90 0 90 74q0 29 -19 47.5t-36 23.5t-46 11t-44.5 10t-36 14t-35.5 25q-39 39 -39 87q0 38 14.5 65t39 40.5t50.5 19.5t56 6q52 0 83 -18q33 18 41 18q12 0 15 -5.5t3 -22.5v-80
q0 -19 -3.5 -23.5t-20.5 -4.5q-14 0 -18 3.5t-5 15.5q-1 14 -3.5 23.5t-11 26t-29 26t-51.5 9.5q-89 0 -89 -62q0 -17 8 -29.5t26.5 -20t29.5 -11t37 -8.5q27 -5 41 -8.5t34 -14t35 -25.5q45 -42 45 -103z" />
    <glyph glyph-name="Scaron" unicode="&#x160;" horiz-adv-x="556" 
d="M499 203q0 -93 -51.5 -153.5t-145.5 -60.5q-100 0 -167 51l-28 -28q-18 -17 -22 -20t-11 -3q-12 0 -15 5.5t-3 22.5v182q0 19 3.5 24t20.5 5q8 0 12.5 -1t7 -4t3 -6.5t0.5 -11.5q2 -49 23 -84.5t52.5 -53t61.5 -24.5t61 -7q55 0 78 35.5t23 81.5q0 83 -66 113
q-19 6 -68 17q-76 19 -106 32t-58 46q-48 59 -48 136q0 87 52 143.5t143 56.5q84 0 143 -50l27 27q18 17 22 20t11 3q12 0 15 -5.5t3 -22.5v-183q0 -18 -3.5 -23t-20.5 -5q-12 0 -17 3t-7 14q-24 179 -172 179q-51 0 -75 -31.5t-24 -73.5q0 -35 18 -62.5t45 -37.5
q7 -2 73 -19q52 -13 74 -20t47 -23t45 -44q44 -60 44 -140zM453 869l-175 -141l-175 141l16 24l160 -58l160 58z" />
    <glyph glyph-name="scaron" unicode="&#x161;" horiz-adv-x="394" 
d="M360 139q0 -63 -37.5 -104t-123.5 -41q-57 0 -97 28q-16 -10 -24 -16q-18 -12 -27 -12q-12 0 -15 6t-3 22v109q0 19 3.5 24t20.5 5q14 0 17.5 -3t6.5 -14q14 -55 41 -84t77 -29q90 0 90 74q0 29 -19 47.5t-36 23.5t-46 11t-44.5 10t-36 14t-35.5 25q-39 39 -39 87
q0 38 14.5 65t39 40.5t50.5 19.5t56 6q52 0 83 -18q33 18 41 18q12 0 15 -5.5t3 -22.5v-80q0 -19 -3.5 -23.5t-20.5 -4.5q-14 0 -18 3.5t-5 15.5q-1 14 -3.5 23.5t-11 26t-29 26t-51.5 9.5q-89 0 -89 -62q0 -17 8 -29.5t26.5 -20t29.5 -11t37 -8.5q27 -5 41 -8.5t34 -14
t35 -25.5q45 -42 45 -103zM374 690l-177 -185l-177 185l20 22l158 -99l158 99z" />
    <glyph glyph-name="Tcedilla" unicode="&#x162;" horiz-adv-x="694" 
d="M657 434h-47q-3 43 -6 64t-12 51t-23 44t-40 24.5t-63 10.5h-48v-581h134v-47q-54 3 -157 3v-36q35 0 60.5 -24.5t25.5 -58.5q0 -20 -8.5 -35t-27 -24t-35.5 -14.5t-47.5 -7.5t-48.5 -2.5t-52 -0.5h-48v48h24q27 0 41.5 0.5t34.5 3.5t29.5 11t9.5 21q0 16 -16 25.5
t-38 9.5v84q-103 0 -157 -3v47h134v581h-49q-27 0 -48 -5.5t-35 -13t-24.5 -24t-16.5 -28.5t-10 -37t-5.5 -40t-4.5 -46h-47l21 241h579z" />
    <glyph glyph-name="tcedilla" unicode="&#x163;" horiz-adv-x="390" 
d="M337 -116q0 -20 -8.5 -35t-27 -24t-35.5 -14.5t-47.5 -7.5t-48.5 -2.5t-52 -0.5h-48v48h24q27 0 41.5 0.5t34.5 3.5t29.5 11t9.5 21q0 16 -16 25.5t-38 9.5v86h2q-75 27 -75 118v274h-63v36q68 3 98.5 63.5t31.5 138.5h47v-191h121v-47h-121v-279q0 -84 45 -84
q21 0 33 24t12 65v54h47v-55q0 -45 -20.5 -81.5t-62.5 -44.5l1 -29q35 0 60.5 -24.5t25.5 -58.5z" />
    <glyph glyph-name="Tcaron" unicode="&#x164;" horiz-adv-x="694" 
d="M657 434h-47q-3 43 -6 64t-12 51t-23 44t-40 24.5t-63 10.5h-48v-581h134v-47q-48 3 -205 3t-205 -3v47h134v581h-49q-27 0 -48 -5.5t-35 -13t-24.5 -24t-16.5 -28.5t-10 -37t-5.5 -40t-4.5 -46h-47l21 241h579zM522 869l-175 -141l-175 141l16 24l160 -58l160 58z" />
    <glyph glyph-name="tcaron" unicode="&#x165;" horiz-adv-x="390" 
d="M333 122q0 -51 -26 -89.5t-79 -38.5q-146 0 -146 129v274h-63v36q68 3 98.5 63.5t31.5 138.5h47v-191h121v-47h-121v-279q0 -84 45 -84q21 0 33 24t12 65v54h47v-55zM359 649q0 -29 -8 -56.5t-19.5 -47t-23.5 -34.5t-21.5 -22.5t-13.5 -7.5q-5 0 -9.5 5t-4.5 10t9 12
q59 52 63 132q-14 -14 -39 -14q-27 0 -43 17.5t-16 41.5t16.5 41t41.5 17q32 0 50 -27t18 -67z" />
    <glyph glyph-name="Utilde" unicode="&#x168;" horiz-adv-x="769" 
d="M734 639h-20q-28 0 -50 -3q-18 -2 -21 -5.5t-3 -20.5v-383q0 -103 -62.5 -170.5t-173.5 -67.5q-127 0 -201.5 67.5t-74.5 172.5v410h-94v47q35 -3 165 -3t165 3v-47h-94v-429q0 -174 138 -174q73 0 126 45.5t53 148.5v380q0 17 -3.5 20.5t-21.5 5.5q-21 3 -49 3h-20v47
l121 -3l120 3v-47zM575 812l-41 -53q-23 -31 -63 -31q-18 0 -65 14q-51 17 -73 17q-39 0 -63 -31l-28 22l41 53q23 31 63 31q18 0 65 -14q51 -17 73 -17q39 0 63 31z" />
    <glyph glyph-name="utilde" unicode="&#x169;" horiz-adv-x="556" 
d="M553 0l-177 -6v68h-1q-38 -68 -118 -68q-79 0 -121.5 28.5t-42.5 99.5v234q0 28 -10.5 33.5t-58.5 5.5v47l183 8v-345q0 -45 10 -60t54 -15q46 0 72.5 38t26.5 95v193q0 28 -10.5 33.5t-58.5 5.5v47l183 8v-364q0 -28 10.5 -33.5t58.5 -5.5v-47zM445 640l-41 -53
q-23 -31 -63 -31q-18 0 -65 14q-51 17 -73 17q-39 0 -63 -31l-28 22l41 53q23 31 63 31q18 0 65 -14q51 -17 73 -17q39 0 63 31z" />
    <glyph glyph-name="Umacron" unicode="&#x16a;" horiz-adv-x="769" 
d="M734 639h-20q-28 0 -50 -3q-18 -2 -21 -5.5t-3 -20.5v-383q0 -103 -62.5 -170.5t-173.5 -67.5q-127 0 -201.5 67.5t-74.5 172.5v410h-94v47q35 -3 165 -3t165 3v-47h-94v-429q0 -174 138 -174q73 0 126 45.5t53 148.5v380q0 17 -3.5 20.5t-21.5 5.5q-21 3 -49 3h-20v47
l121 -3l120 3v-47zM589 748h-361v52h361v-52z" />
    <glyph glyph-name="umacron" unicode="&#x16b;" horiz-adv-x="556" 
d="M553 0l-177 -6v68h-1q-38 -68 -118 -68q-79 0 -121.5 28.5t-42.5 99.5v234q0 28 -10.5 33.5t-58.5 5.5v47l183 8v-345q0 -45 10 -60t54 -15q46 0 72.5 38t26.5 95v193q0 28 -10.5 33.5t-58.5 5.5v47l183 8v-364q0 -28 10.5 -33.5t58.5 -5.5v-47zM459 583h-361v52h361v-52
z" />
    <glyph glyph-name="Ubreve" unicode="&#x16c;" horiz-adv-x="769" 
d="M734 639h-20q-28 0 -50 -3q-18 -2 -21 -5.5t-3 -20.5v-383q0 -103 -62.5 -170.5t-173.5 -67.5q-127 0 -201.5 67.5t-74.5 172.5v410h-94v47q35 -3 165 -3t165 3v-47h-94v-429q0 -174 138 -174q73 0 126 45.5t53 148.5v380q0 17 -3.5 20.5t-21.5 5.5q-21 3 -49 3h-20v47
l121 -3l120 3v-47zM565 925q-2 -85 -48 -136t-108 -51q-64 0 -109.5 51.5t-47.5 135.5h36q1 -57 37 -91t84 -34q46 0 82.5 33.5t37.5 91.5h36z" />
    <glyph glyph-name="ubreve" unicode="&#x16d;" horiz-adv-x="556" 
d="M553 0l-177 -6v68h-1q-38 -68 -118 -68q-79 0 -121.5 28.5t-42.5 99.5v234q0 28 -10.5 33.5t-58.5 5.5v47l183 8v-345q0 -45 10 -60t54 -15q46 0 72.5 38t26.5 95v193q0 28 -10.5 33.5t-58.5 5.5v47l183 8v-364q0 -28 10.5 -33.5t58.5 -5.5v-47zM435 702q-2 -85 -48 -136
t-108 -51q-64 0 -109.5 51.5t-47.5 135.5h36q1 -57 37 -91t84 -34q46 0 82.5 33.5t37.5 91.5h36z" />
    <glyph glyph-name="Uring" unicode="&#x16e;" horiz-adv-x="769" 
d="M734 639h-20q-28 0 -50 -3q-18 -2 -21 -5.5t-3 -20.5v-383q0 -103 -62.5 -170.5t-173.5 -67.5q-127 0 -201.5 67.5t-74.5 172.5v410h-94v47q35 -3 165 -3t165 3v-47h-94v-429q0 -174 138 -174q73 0 126 45.5t53 148.5v380q0 17 -3.5 20.5t-21.5 5.5q-21 3 -49 3h-20v47
l121 -3l120 3v-47zM461 782q0 26 -11.5 34.5t-41.5 8.5q-31 0 -42 -9t-11 -34q0 -26 11.5 -34.5t41.5 -8.5q31 0 42 9t11 34zM515 783q0 -36 -27.5 -60.5t-80.5 -24.5q-51 0 -78.5 24t-27.5 61q0 33 27 58t81 25q52 0 79 -24.5t27 -58.5z" />
    <glyph glyph-name="uring" unicode="&#x16f;" horiz-adv-x="556" 
d="M553 0l-177 -6v68h-1q-38 -68 -118 -68q-79 0 -121.5 28.5t-42.5 99.5v234q0 28 -10.5 33.5t-58.5 5.5v47l183 8v-345q0 -45 10 -60t54 -15q46 0 72.5 38t26.5 95v193q0 28 -10.5 33.5t-58.5 5.5v47l183 8v-364q0 -28 10.5 -33.5t58.5 -5.5v-47zM331 605q0 26 -11.5 34.5
t-41.5 8.5q-31 0 -42 -9t-11 -34q0 -26 11.5 -34.5t41.5 -8.5q31 0 42 9t11 34zM385 606q0 -36 -27.5 -60.5t-80.5 -24.5q-51 0 -78.5 24t-27.5 61q0 33 27 58t81 25q52 0 79 -24.5t27 -58.5z" />
    <glyph glyph-name="Uhungarumlaut" unicode="&#x170;" horiz-adv-x="769" 
d="M734 639h-20q-28 0 -50 -3q-18 -2 -21 -5.5t-3 -20.5v-383q0 -103 -62.5 -170.5t-173.5 -67.5q-127 0 -201.5 67.5t-74.5 172.5v410h-94v47q35 -3 165 -3t165 3v-47h-94v-429q0 -174 138 -174q73 0 126 45.5t53 148.5v380q0 17 -3.5 20.5t-21.5 5.5q-21 3 -49 3h-20v47
l121 -3l120 3v-47zM419 874q0 -20 -21 -45l-80 -91l-42 21l22 120q10 54 54 54q25 0 46 -17.5t21 -41.5zM586 874q0 -20 -21 -45l-80 -91l-42 21l22 120q10 54 54 54q25 0 46 -17.5t21 -41.5z" />
    <glyph glyph-name="uhungarumlaut" unicode="&#x171;" horiz-adv-x="556" 
d="M553 0l-177 -6v68h-1q-38 -68 -118 -68q-79 0 -121.5 28.5t-42.5 99.5v234q0 28 -10.5 33.5t-58.5 5.5v47l183 8v-345q0 -45 10 -60t54 -15q46 0 72.5 38t26.5 95v193q0 28 -10.5 33.5t-58.5 5.5v47l183 8v-364q0 -28 10.5 -33.5t58.5 -5.5v-47zM289 647q0 -20 -21 -45
l-80 -91l-42 21l22 120q10 54 54 54q25 0 46 -17.5t21 -41.5zM456 647q0 -20 -21 -45l-80 -91l-42 21l22 120q10 54 54 54q25 0 46 -17.5t21 -41.5z" />
    <glyph glyph-name="Uogonek" unicode="&#x172;" horiz-adv-x="769" 
d="M734 639h-20q-28 0 -50 -3q-18 -2 -21 -5.5t-3 -20.5v-383q0 -90 -48.5 -154.5t-137.5 -79.5q-23 -17 -37 -43q-17 -32 -1.5 -60t50.5 -28q8 0 14.5 2t9 4t8 7t6.5 6q14 10 29 -3q6 -5 7 -14.5t-3 -13.5q-50 -54 -107 -54q-50 0 -77.5 26.5t-27.5 63.5q0 51 55 104
q-117 7 -184.5 73t-67.5 166v410h-94v47q35 -3 165 -3t165 3v-47h-94v-429q0 -174 138 -174q73 0 126 45.5t53 148.5v380q0 17 -3.5 20.5t-21.5 5.5q-21 3 -49 3h-20v47l121 -3l120 3v-47z" />
    <glyph glyph-name="uogonek" unicode="&#x173;" horiz-adv-x="556" 
d="M570 -150q-50 -54 -107 -54q-50 0 -77.5 26.5t-27.5 63.5q0 25 17.5 55.5t42.5 53.5l-42 -1v68h-1q-38 -68 -118 -68q-79 0 -121.5 28.5t-42.5 99.5v234q0 28 -10.5 33.5t-58.5 5.5v47l183 8v-345q0 -45 10 -60t54 -15q46 0 72.5 38t26.5 95v193q0 28 -10.5 33.5
t-58.5 5.5v47l183 8v-364q0 -28 10.5 -33.5t58.5 -5.5v-47l-59 -2q-28 -16 -44 -48q-17 -32 -2 -60t51 -28q8 0 14.5 2t9 4t8 7t6.5 6q14 10 29 -3q6 -5 7 -14.5t-3 -13.5z" />
    <glyph glyph-name="Wcircumflex" unicode="&#x174;" horiz-adv-x="1033" 
d="M1011 639q-52 0 -65 -4.5t-18 -18.5l-202 -599q-4 -13 -11 -19t-22 -6q-17 0 -23 5.5t-11 20.5l-143 423l-143 -424q-9 -25 -34 -25q-16 0 -22.5 5.5t-10.5 19.5l-210 622h-75v47q39 -3 142 -3q125 0 161 3v-47h-84l147 -434l104 310l-42 124h-75v47q39 -3 142 -3
q125 0 161 3v-47h-84l147 -434l142 423q-28 11 -89 11v47q41 -3 122 -3q47 0 96 3v-47zM692 752l-16 -24l-160 58l-160 -58l-14 24l175 141z" />
    <glyph glyph-name="wcircumflex" unicode="&#x175;" horiz-adv-x="722" 
d="M700 397q-40 0 -50.5 -4.5t-15.5 -18.5l-123 -352q-9 -26 -34 -26q-14 0 -21.5 4.5t-13.5 21.5l-82 234l-82 -235q-3 -9 -5.5 -13.5t-9.5 -8t-19 -3.5q-16 0 -22.5 6t-11.5 21l-131 374h-58v47l106 -3l109 3v-47h-42l83 -237l54 155l4 12l-24 70h-46v47q45 -3 90 -3
l112 3v-47h-59l92 -262l84 237l4 15q-22 10 -61 10v47l96 -3q41 0 77 3v-47zM538 527l-20 -22l-158 99l-158 -99l-18 22l177 185z" />
    <glyph glyph-name="Ycircumflex" unicode="&#x176;" horiz-adv-x="756" 
d="M739 639q-41 0 -61.5 -2.5t-25.5 -6t-10 -12.5l-197 -344v-227h95v-47q-35 3 -163 3q-127 0 -162 -3v47h94v227l-208 365h-85v47q36 -3 150 -3q131 0 167 3v-47h-75l167 -293l162 283q-24 10 -69 10v47l119 -3l102 3v-47zM553 752l-16 -24l-160 58l-160 -58l-14 24
l175 141z" />
    <glyph glyph-name="ycircumflex" unicode="&#x177;" horiz-adv-x="528" 
d="M505 397q-44 0 -55 -4.5t-17 -19.5l-177 -457q-17 -44 -55 -80t-89 -36q-40 0 -66.5 27.5t-26.5 64.5q0 28 17 43t40 15q25 0 41.5 -16t16.5 -41q0 -40 -37 -55q8 -2 16 -2q48 0 81 56q13 23 44 108l-154 397h-62v47l112 -3l123 3v-47h-56l96 -247l85 222l5 13q0 5 -13 8
t-26 3l-13 1v47q39 -3 91 -3q42 0 79 3v-47zM441 527l-20 -22l-158 99l-158 -99l-18 22l177 185z" />
    <glyph glyph-name="Ydieresis" unicode="&#x178;" horiz-adv-x="756" 
d="M739 639q-41 0 -61.5 -2.5t-25.5 -6t-10 -12.5l-197 -344v-227h95v-47q-35 3 -163 3q-127 0 -162 -3v47h94v227l-208 365h-85v47q36 -3 150 -3q131 0 167 3v-47h-75l167 -293l162 283q-24 10 -69 10v47l119 -3l102 3v-47zM296 798q0 -28 -20 -49t-51 -21
q-29 0 -49.5 20.5t-20.5 49.5q0 28 20 49t51 21q29 0 49.5 -20.5t20.5 -49.5zM602 798q0 -28 -20 -49t-51 -21q-29 0 -49.5 20.5t-20.5 49.5q0 28 20 49t51 21q29 0 49.5 -20.5t20.5 -49.5z" />
    <glyph glyph-name="Zacute" unicode="&#x179;" horiz-adv-x="611" 
d="M560 284l-18 -284h-454q-13 0 -18.5 1t-9.5 6.5t-4 18.5q0 14 7 26l334 587h-94q-41 0 -73 -9t-51.5 -27t-32 -35.5t-18.5 -43.5t-8.5 -41t-3.5 -38h-47l12 241h441q13 0 18.5 -1t9.5 -6.5t4 -17.5t-7 -24l-333 -586h100q30 0 55.5 5t44 12.5t33.5 21t24.5 25t17 31.5
t11.5 33t7 36t4 34.5t2 34.5h47zM444 841q-5 -27 -40 -43l-142 -60l-26 38l105 116q20 22 43 22q29 0 47 -22t13 -51z" />
    <glyph glyph-name="zacute" unicode="&#x17a;" horiz-adv-x="444" 
d="M401 202l-18 -202h-323q-12 0 -17.5 1t-10 6t-4.5 15q0 11 8 22l233 364h-53q-75 0 -98.5 -31t-28.5 -108h-47l12 175h313q12 0 17 -0.5t10 -5.5t5 -15q0 -9 -8 -21l-232 -362h55q36 0 61 8.5t39 20t22.5 35.5t11.5 43.5t6 54.5h47zM351 644q0 -28 -32 -49l-129 -84
l-33 33l84 132q19 30 48 30q24 0 43 -19t19 -43z" />
    <glyph glyph-name="Zdotaccent" unicode="&#x17b;" horiz-adv-x="611" 
d="M560 284l-18 -284h-454q-13 0 -18.5 1t-9.5 6.5t-4 18.5q0 14 7 26l334 587h-94q-41 0 -73 -9t-51.5 -27t-32 -35.5t-18.5 -43.5t-8.5 -41t-3.5 -38h-47l12 241h441q13 0 18.5 -1t9.5 -6.5t4 -17.5t-7 -24l-333 -586h100q30 0 55.5 5t44 12.5t33.5 21t24.5 25t17 31.5
t11.5 33t7 36t4 34.5t2 34.5h47zM384 817q0 -31 -22.5 -54.5t-56.5 -23.5q-32 0 -55 23t-23 55q0 31 22.5 54.5t56.5 23.5q32 0 55 -23t23 -55z" />
    <glyph glyph-name="zdotaccent" unicode="&#x17c;" horiz-adv-x="444" 
d="M401 202l-18 -202h-323q-12 0 -17.5 1t-10 6t-4.5 15q0 11 8 22l233 364h-53q-75 0 -98.5 -31t-28.5 -108h-47l12 175h313q12 0 17 -0.5t10 -5.5t5 -15q0 -9 -8 -21l-232 -362h55q36 0 61 8.5t39 20t22.5 35.5t11.5 43.5t6 54.5h47zM300 609q0 -31 -22.5 -54.5
t-56.5 -23.5q-32 0 -55 23t-23 55q0 31 22.5 54.5t56.5 23.5q32 0 55 -23t23 -55z" />
    <glyph glyph-name="Zcaron" unicode="&#x17d;" horiz-adv-x="611" 
d="M560 284l-18 -284h-454q-13 0 -18.5 1t-9.5 6.5t-4 18.5q0 14 7 26l334 587h-94q-41 0 -73 -9t-51.5 -27t-32 -35.5t-18.5 -43.5t-8.5 -41t-3.5 -38h-47l12 241h441q13 0 18.5 -1t9.5 -6.5t4 -17.5t-7 -24l-333 -586h100q30 0 55.5 5t44 12.5t33.5 21t24.5 25t17 31.5
t11.5 33t7 36t4 34.5t2 34.5h47zM481 869l-175 -141l-175 141l16 24l160 -58l160 58z" />
    <glyph glyph-name="zcaron" unicode="&#x17e;" horiz-adv-x="444" 
d="M401 202l-18 -202h-323q-12 0 -17.5 1t-10 6t-4.5 15q0 11 8 22l233 364h-53q-75 0 -98.5 -31t-28.5 -108h-47l12 175h313q12 0 17 -0.5t10 -5.5t5 -15q0 -9 -8 -21l-232 -362h55q36 0 61 8.5t39 20t22.5 35.5t11.5 43.5t6 54.5h47zM399 690l-177 -185l-177 185l20 22
l158 -99l158 99z" />
    <glyph glyph-name="longs" unicode="&#x17f;" horiz-adv-x="306" 
d="M398 613q0 -29 -18.5 -45.5t-43.5 -16.5q-23 0 -42 16t-19 46q0 35 24 50l-11 1q-7 0 -13.5 -1t-20.5 -7t-24 -17.5t-18 -35.5t-8 -57v-499h87v-47q-36 3 -138 3l-126 -3v47h69v350h-58v47h58v101q0 79 58 117t137 38q51 0 79 -26t28 -61z" />
    <glyph glyph-name="Ereversed" unicode="&#x18e;" horiz-adv-x="656" 
d="M627 0h-547l-46 274h47q6 -40 11 -62.5t15 -53t23.5 -47.5t34.5 -33.5t51.5 -23.5t71.5 -7h103v282h-22q-62 0 -78.5 -26.5t-16.5 -90.5h-47v281h47q0 -33 2 -50t11 -35t29 -25t53 -7h22v257h-99q-45 0 -77 -10.5t-50 -24.5t-30 -43.5t-16 -51.5t-10 -64h-47l31 241h534
v-47h-94v-586h94v-47z" />
    <glyph glyph-name="florin" unicode="&#x192;" horiz-adv-x="306" 
d="M398 613q0 -29 -18.5 -45.5t-43.5 -16.5q-23 0 -42 16t-19 46q0 33 24 50q-4 1 -11 1t-14 -1t-22 -7t-26 -17.5t-19.5 -35.5t-8.5 -57v-102h99v-47h-93v-350h87v-47q-36 3 -138 3l-126 -3v47h69v350h-58v47h58v101q0 79 58 117t137 38q51 0 79 -26t28 -61z" />
    <glyph glyph-name="Ohorn" unicode="&#x1a0;" horiz-adv-x="750" 
d="M692 339q0 -159 -86 -255q-88 -95 -232 -95t-232 95q-87 97 -87 255q0 163 87 260q86 98 232 98q103 0 180 -53q34 12 53 42h-5q-32 0 -49.5 19.5t-17.5 47.5q0 27 17.5 46.5t49.5 19.5q28 0 47 -24t19 -57q0 -42 -20.5 -77t-54.5 -48q4 -5 13 -14q86 -97 86 -260z
M540 357q0 47 -1.5 77t-11 70.5t-26.5 71.5q-20 37 -53.5 59t-73.5 22t-73.5 -22t-54.5 -59q-38 -70 -38 -219q0 -53 1.5 -84.5t10.5 -76t26 -78.5q20 -39 54 -63t74 -24t74 24t53 63q18 34 27 78.5t10.5 76t1.5 84.5z" />
    <glyph glyph-name="ohorn" unicode="&#x1a1;" 
d="M508 496q0 -44 -22.5 -80t-59.5 -47q44 -61 44 -151q0 -102 -60 -163q-61 -61 -161 -61t-161 61q-60 61 -60 163q0 107 60 171q61 64 161 64q87 0 146 -50q33 10 52 41h-6q-31 0 -48.5 20t-17.5 47t17.5 47t48.5 20q29 0 48 -24.5t19 -57.5zM342 231q0 110 -13 138
q-11 22 -33 35t-47 13q-56 0 -80 -48q-14 -28 -14 -138q0 -118 14 -147q25 -49 80 -49t80 49q13 29 13 147z" />
    <glyph glyph-name="Uhorn" unicode="&#x1af;" horiz-adv-x="769" 
d="M779 736q0 -55 -40 -94.5t-99 -47.5v-365q0 -107 -64 -174q-63 -66 -170 -66q-126 0 -201 65q-78 67 -78 175v410h-94v47l165 -3l165 3v-47h-94v-410q0 -57 5.5 -88.5t23.5 -55.5q37 -49 108 -49q85 0 133 51t48 142v397q0 6 -24 10q-23 3 -70 3v47l120 -3q13 0 27 3v-44
q51 10 76 44h-4q-31 0 -48.5 20t-17.5 47t17.5 46.5t48.5 19.5q30 0 48.5 -24.5t18.5 -58.5z" />
    <glyph glyph-name="uhorn" unicode="&#x1b0;" horiz-adv-x="611" 
d="M622 494q0 -52 -39 -88t-100 -49v-282q0 -19 12 -23q11 -5 57 -5v-47l-177 -6v70q-38 -70 -107 -70q-91 0 -132 28q-43 30 -43 96v249q0 18 -12 23q-12 4 -58 4v48l183 8v-332q0 -61 8 -70q13 -17 60 -17q41 0 68 36.5t27 88.5v211q0 17 -11 23q-12 4 -58 4v48l183 8v-46
q48 11 74 40h-1q-32 0 -49.5 20t-17.5 47t17.5 47t49.5 20q29 0 47.5 -25t18.5 -59z" />
    <glyph glyph-name="Acaron" unicode="&#x1cd;" horiz-adv-x="756" 
d="M720 0q-36 3 -150 3q-127 0 -163 -3v47h83l-47 135h-219l-39 -111l-4 -12q0 -12 78 -12v-47l-118 3l-106 -3v47q38 0 58 2q21 2 26 5.5t9 15.5l212 602q6 18 14 22t24 4q11 0 16 -1t11 -7t10 -18l220 -625h85v-47zM426 229l-93 264l-93 -264h186zM553 869l-175 -141
l-175 141l16 24l160 -58l160 58z" />
    <glyph glyph-name="acaron" unicode="&#x1ce;" horiz-adv-x="486" 
d="M480 24q0 -16 -7 -20t-25 -4h-42q-32 0 -52.5 8t-27.5 22t-9 23t-2 21q-37 -80 -123 -80q-65 0 -117 29t-52 86q0 74 79 114t196 42v36q0 53 -21.5 84.5t-64.5 31.5q-28 0 -59 -6q23 -18 23 -50q0 -30 -19 -46.5t-44 -16.5q-23 0 -42.5 16.5t-19.5 46.5q0 25 14.5 44
t33 27.5t45 13.5t41 6t30.5 1q92 0 144.5 -41t52.5 -112v-216q0 -13 1.5 -19t12.5 -11.5t33 -6.5q7 -1 10.5 -2t7 -6.5t3.5 -14.5zM298 138v95q-14 -1 -27 -3t-39 -10t-44.5 -20t-33 -36t-14.5 -55t17.5 -55t46.5 -24q31 0 62.5 25.5t31.5 82.5zM420 690l-177 -185l-177 185
l20 22l158 -99l158 99z" />
    <glyph glyph-name="Icaron" unicode="&#x1cf;" horiz-adv-x="397" 
d="M368 0q-36 3 -170 3t-170 -3v47h99v592h-99v47q36 -3 170 -3t170 3v-47h-99v-592h99v-47zM374 869l-175 -141l-175 141l16 24l160 -58l160 58z" />
    <glyph glyph-name="icaron" unicode="&#x1d0;" horiz-adv-x="278" 
d="M265 0l-117 3l-122 -3v47h69v309q0 28 -10 33.5t-56 5.5v47l174 8v-403h62v-47zM316 690l-177 -185l-177 185l20 22l158 -99l158 99z" />
    <glyph glyph-name="Ocaron" unicode="&#x1d1;" horiz-adv-x="750" 
d="M693 339q0 -164 -89 -257t-230 -93q-137 0 -227.5 92t-90.5 258q0 168 89.5 263t229.5 95q137 0 227.5 -94t90.5 -264zM540 353q0 135 -27 200q-21 50 -58 77t-81 27q-39 0 -76.5 -24t-60.5 -76q-28 -65 -28 -204q0 -151 32 -223q20 -45 55 -72t79 -27q42 0 79 28t56 75
q20 49 25 97t5 122zM550 869l-175 -141l-175 141l16 24l160 -58l160 58z" />
    <glyph glyph-name="ocaron" unicode="&#x1d2;" 
d="M471 219q0 -104 -61 -164.5t-161 -60.5q-98 0 -159.5 60t-61.5 165q0 107 61.5 170.5t159.5 63.5q100 0 161 -64t61 -170zM343 229q0 94 -9 127q-7 25 -30.5 43t-54.5 18q-29 0 -53 -16.5t-31 -44.5q-9 -32 -9 -127q0 -96 8 -129q8 -31 32 -48.5t54 -17.5q28 0 52 17
t31 45q10 34 10 133zM427 690l-177 -185l-177 185l20 22l158 -99l158 99z" />
    <glyph glyph-name="Ucaron" unicode="&#x1d3;" horiz-adv-x="769" 
d="M734 639h-20q-28 0 -50 -3q-18 -2 -21 -5.5t-3 -20.5v-383q0 -103 -62.5 -170.5t-173.5 -67.5q-127 0 -201.5 67.5t-74.5 172.5v410h-94v47q35 -3 165 -3t165 3v-47h-94v-429q0 -174 138 -174q73 0 126 45.5t53 148.5v380q0 17 -3.5 20.5t-21.5 5.5q-21 3 -49 3h-20v47
l121 -3l120 3v-47zM583 869l-175 -141l-175 141l16 24l160 -58l160 58z" />
    <glyph glyph-name="ucaron" unicode="&#x1d4;" horiz-adv-x="556" 
d="M553 0l-177 -6v68h-1q-38 -68 -118 -68q-79 0 -121.5 28.5t-42.5 99.5v234q0 28 -10.5 33.5t-58.5 5.5v47l183 8v-345q0 -45 10 -60t54 -15q46 0 72.5 38t26.5 95v193q0 28 -10.5 33.5t-58.5 5.5v47l183 8v-364q0 -28 10.5 -33.5t58.5 -5.5v-47zM455 690l-177 -185
l-177 185l20 22l158 -99l158 99z" />
    <glyph glyph-name="Udieresisacute" unicode="&#x1d7;" horiz-adv-x="769" 
d="M734 639h-20q-28 0 -50 -3q-18 -2 -21 -5.5t-3 -20.5v-383q0 -103 -62.5 -170.5t-173.5 -67.5q-127 0 -201.5 67.5t-74.5 172.5v410h-94v47q35 -3 165 -3t165 3v-47h-94v-429q0 -174 138 -174q73 0 126 45.5t53 148.5v380q0 17 -3.5 20.5t-21.5 5.5q-21 3 -49 3h-20v47
l121 -3l120 3v-47zM326 798q0 -28 -20 -49t-51 -21q-29 0 -49.5 20.5t-20.5 49.5q0 28 20 49t51 21q29 0 49.5 -20.5t20.5 -49.5zM632 798q0 -28 -20 -49t-51 -21q-29 0 -49.5 20.5t-20.5 49.5q0 28 20 49t51 21q29 0 49.5 -20.5t20.5 -49.5zM546 1023q-5 -27 -40 -43
l-142 -60l-26 38l105 116q20 22 43 22q29 0 47 -22t13 -51z" />
    <glyph glyph-name="udieresisacute" unicode="&#x1d8;" horiz-adv-x="556" 
d="M553 0l-177 -6v68h-1q-38 -68 -118 -68q-79 0 -121.5 28.5t-42.5 99.5v234q0 28 -10.5 33.5t-58.5 5.5v47l183 8v-345q0 -45 10 -60t54 -15q46 0 72.5 38t26.5 95v193q0 28 -10.5 33.5t-58.5 5.5v47l183 8v-364q0 -28 10.5 -33.5t58.5 -5.5v-47zM220 609q0 -28 -20 -49
t-51 -21q-29 0 -49.5 20.5t-20.5 49.5q0 28 20 49t51 21q29 0 49.5 -20.5t20.5 -49.5zM478 609q0 -28 -20 -49t-51 -21q-29 0 -49.5 20.5t-20.5 49.5q0 28 20 49t51 21q29 0 49.5 -20.5t20.5 -49.5zM416 834q-5 -27 -40 -43l-142 -60l-26 38l105 116q20 22 43 22
q29 0 47 -22t13 -51z" />
    <glyph glyph-name="Udieresiscaron" unicode="&#x1d9;" horiz-adv-x="769" 
d="M734 639h-20q-28 0 -50 -3q-18 -2 -21 -5.5t-3 -20.5v-383q0 -103 -62.5 -170.5t-173.5 -67.5q-127 0 -201.5 67.5t-74.5 172.5v410h-94v47q35 -3 165 -3t165 3v-47h-94v-429q0 -174 138 -174q73 0 126 45.5t53 148.5v380q0 17 -3.5 20.5t-21.5 5.5q-21 3 -49 3h-20v47
l121 -3l120 3v-47zM326 798q0 -28 -20 -49t-51 -21q-29 0 -49.5 20.5t-20.5 49.5q0 28 20 49t51 21q29 0 49.5 -20.5t20.5 -49.5zM632 798q0 -28 -20 -49t-51 -21q-29 0 -49.5 20.5t-20.5 49.5q0 28 20 49t51 21q29 0 49.5 -20.5t20.5 -49.5zM583 1051l-175 -141l-175 141
l16 24l160 -58l160 58z" />
    <glyph glyph-name="udieresiscaron" unicode="&#x1da;" horiz-adv-x="556" 
d="M553 0l-177 -6v68h-1q-38 -68 -118 -68q-79 0 -121.5 28.5t-42.5 99.5v234q0 28 -10.5 33.5t-58.5 5.5v47l183 8v-345q0 -45 10 -60t54 -15q46 0 72.5 38t26.5 95v193q0 28 -10.5 33.5t-58.5 5.5v47l183 8v-364q0 -28 10.5 -33.5t58.5 -5.5v-47zM220 609q0 -28 -20 -49
t-51 -21q-29 0 -49.5 20.5t-20.5 49.5q0 28 20 49t51 21q29 0 49.5 -20.5t20.5 -49.5zM478 609q0 -28 -20 -49t-51 -21q-29 0 -49.5 20.5t-20.5 49.5q0 28 20 49t51 21q29 0 49.5 -20.5t20.5 -49.5zM453 862l-175 -141l-175 141l16 24l160 -58l160 58z" />
    <glyph glyph-name="Udieresisgrave" unicode="&#x1db;" horiz-adv-x="769" 
d="M734 639h-20q-28 0 -50 -3q-18 -2 -21 -5.5t-3 -20.5v-383q0 -103 -62.5 -170.5t-173.5 -67.5q-127 0 -201.5 67.5t-74.5 172.5v410h-94v47q35 -3 165 -3t165 3v-47h-94v-429q0 -174 138 -174q73 0 126 45.5t53 148.5v380q0 17 -3.5 20.5t-21.5 5.5q-21 3 -49 3h-20v47
l121 -3l120 3v-47zM326 798q0 -28 -20 -49t-51 -21q-29 0 -49.5 20.5t-20.5 49.5q0 28 20 49t51 21q29 0 49.5 -20.5t20.5 -49.5zM632 798q0 -28 -20 -49t-51 -21q-29 0 -49.5 20.5t-20.5 49.5q0 28 20 49t51 21q29 0 49.5 -20.5t20.5 -49.5zM478 958l-26 -38l-142 60
q-35 16 -40 43q-5 29 13 51t47 22q23 0 43 -22z" />
    <glyph glyph-name="udieresisgrave" unicode="&#x1dc;" horiz-adv-x="556" 
d="M553 0l-177 -6v68h-1q-38 -68 -118 -68q-79 0 -121.5 28.5t-42.5 99.5v234q0 28 -10.5 33.5t-58.5 5.5v47l183 8v-345q0 -45 10 -60t54 -15q46 0 72.5 38t26.5 95v193q0 28 -10.5 33.5t-58.5 5.5v47l183 8v-364q0 -28 10.5 -33.5t58.5 -5.5v-47zM220 609q0 -28 -20 -49
t-51 -21q-29 0 -49.5 20.5t-20.5 49.5q0 28 20 49t51 21q29 0 49.5 -20.5t20.5 -49.5zM478 609q0 -28 -20 -49t-51 -21q-29 0 -49.5 20.5t-20.5 49.5q0 28 20 49t51 21q29 0 49.5 -20.5t20.5 -49.5zM348 769l-26 -38l-142 60q-35 16 -40 43q-5 29 13 51t47 22q23 0 43 -22z
" />
    <glyph glyph-name="eturned" unicode="&#x1dd;" horiz-adv-x="467" 
d="M438 222q0 -104 -60.5 -166t-158.5 -62q-55 0 -94.5 19t-59.5 51t-28.5 65.5t-8.5 70.5q0 20 6 24.5t26 4.5h250q0 21 -0.5 34.5t-3.5 38.5t-10 41.5t-19 34t-32 26.5t-47 9q-35 0 -70.5 -20t-51.5 -62q-4 -12 -8 -15.5t-16 -3.5q-24 0 -24 18q0 10 9.5 28.5t29 40.5
t56.5 38t84 16q101 0 166 -62.5t65 -168.5zM310 196h-187q0 -19 2 -37.5t9.5 -52.5t29 -55t54.5 -21q89 0 92 166z" />
    <glyph glyph-name="Gcaron" unicode="&#x1e6;" horiz-adv-x="786" 
d="M735 229h-69v-201q0 -28 -14 -28q-7 0 -42.5 17.5t-54.5 34.5q-16 -23 -53 -43t-94 -20q-153 0 -252.5 94.5t-99.5 259.5q0 164 99 259t253 95q93 0 163 -62l58 53q10 9 19 9q12 0 15 -5.5t3 -22.5v-215q0 -20 -4 -24t-23 -4q-10 0 -14 0.5t-7.5 4t-4.5 11.5
q-15 104 -68 156t-118 52q-118 0 -178 -93q-40 -62 -40 -214q0 -149 41 -215q32 -50 82 -71t97 -21q19 0 38 5.5t38 28t19 58.5v101h-125v47q44 -3 187 -3q112 0 149 3v-47zM568 869l-175 -141l-175 141l16 24l160 -58l160 58z" />
    <glyph glyph-name="gcaron" unicode="&#x1e7;" 
d="M485 397q0 -18 -12 -30.5t-31 -12.5t-31 12t-12 31q0 9 3 18q-23 -7 -37 -16q37 -41 37 -97q0 -62 -46.5 -105t-133.5 -43q-62 0 -108 25q-9 -12 -9 -35q0 -26 15.5 -42.5t36.5 -18.5h58q39 0 60 -1t57 -4.5t56.5 -13.5t42.5 -26.5t32 -44t10 -64.5q0 -56 -56.5 -93
t-167.5 -37q-119 0 -171 39.5t-52 86.5q0 59 71 86q-41 34 -41 93q0 48 34 92q-48 38 -48 106q0 63 47 105.5t133 42.5q72 0 118 -32q41 37 89 37q28 0 42 -18.5t14 -39.5zM291 302q0 26 -1.5 40t-7 33.5t-21 29t-39.5 9.5q-20 0 -33.5 -7.5t-20.5 -16.5t-10.5 -27t-4 -29
t-0.5 -32q0 -26 1.5 -40t7 -33.5t21 -29t39.5 -9.5q20 0 33.5 7.5t20.5 16.5t10.5 27t4 29t0.5 32zM387 -75q0 62 -120 62h-94q-61 0 -61 -60q0 -39 34 -65.5t104 -26.5q71 0 104 27.5t33 62.5zM392 690l-177 -185l-177 185l20 22l158 -99l158 99z" />
    <glyph glyph-name="Oogonek" unicode="&#x1ea;" horiz-adv-x="750" 
d="M693 339q0 -150 -76.5 -241.5t-200.5 -106.5q-22 -16 -34 -41q-17 -32 -2 -60t51 -28q8 0 14.5 2t9 4t8 7t6.5 6q14 10 29 -3q6 -5 7 -14.5t-3 -13.5q-50 -54 -107 -54q-50 0 -77.5 26.5t-27.5 63.5q0 51 55 104q-127 10 -208 101t-81 248q0 168 89.5 263t229.5 95
q137 0 227.5 -94t90.5 -264zM540 353q0 135 -27 200q-21 50 -58 77t-81 27q-39 0 -76.5 -24t-60.5 -76q-28 -65 -28 -204q0 -151 32 -223q20 -45 55 -72t79 -27q42 0 79 28t56 75q20 49 25 97t5 122z" />
    <glyph glyph-name="oogonek" unicode="&#x1eb;" 
d="M471 219q0 -93 -50 -152.5t-135 -70.5q-26 -16 -42 -46q-17 -32 -1.5 -60t50.5 -28q8 0 14.5 2t9 4t8 7t6.5 6q14 10 29 -3q6 -5 7 -14.5t-3 -13.5q-50 -54 -107 -54q-50 0 -77.5 26.5t-27.5 63.5q0 25 18 56t44 54q-84 11 -135 69.5t-51 153.5q0 107 61.5 170.5
t159.5 63.5q100 0 161 -64t61 -170zM343 229q0 94 -9 127q-7 25 -30.5 43t-54.5 18q-29 0 -53 -16.5t-31 -44.5q-9 -32 -9 -127q0 -96 8 -129q8 -31 32 -48.5t54 -17.5q28 0 52 17t31 45q10 34 10 133z" />
    <glyph glyph-name="jcaron" unicode="&#x1f0;" horiz-adv-x="306" 
d="M242 -42q0 -73 -51.5 -115.5t-119.5 -42.5q-56 0 -94.5 24.5t-38.5 66.5q0 27 17.5 45t45.5 18q27 0 44.5 -18t17.5 -44q0 -34 -26 -51q15 -5 32 -5q20 0 34 12.5t20 33t8.5 38t2.5 36.5v399q0 13 -1 19t-6 11.5t-15 7.5q-15 2 -54 2v47l184 8v-492zM341 690l-177 -185
l-177 185l20 22l158 -99l158 99z" />
    <glyph glyph-name="Gacute" unicode="&#x1f4;" horiz-adv-x="786" 
d="M735 229h-69v-201q0 -28 -14 -28q-7 0 -42.5 17.5t-54.5 34.5q-16 -23 -53 -43t-94 -20q-153 0 -252.5 94.5t-99.5 259.5q0 164 99 259t253 95q93 0 163 -62l58 53q10 9 19 9q12 0 15 -5.5t3 -22.5v-215q0 -20 -4 -24t-23 -4q-10 0 -14 0.5t-7.5 4t-4.5 11.5
q-15 104 -68 156t-118 52q-118 0 -178 -93q-40 -62 -40 -214q0 -149 41 -215q32 -50 82 -71t97 -21q19 0 38 5.5t38 28t19 58.5v101h-125v47q44 -3 187 -3q112 0 149 3v-47zM531 841q-5 -27 -40 -43l-142 -60l-26 38l105 116q20 22 43 22q29 0 47 -22t13 -51z" />
    <glyph glyph-name="gacute" unicode="&#x1f5;" 
d="M485 397q0 -18 -12 -30.5t-31 -12.5t-31 12t-12 31q0 9 3 18q-23 -7 -37 -16q37 -41 37 -97q0 -62 -46.5 -105t-133.5 -43q-62 0 -108 25q-9 -12 -9 -35q0 -26 15.5 -42.5t36.5 -18.5h58q39 0 60 -1t57 -4.5t56.5 -13.5t42.5 -26.5t32 -44t10 -64.5q0 -56 -56.5 -93
t-167.5 -37q-119 0 -171 39.5t-52 86.5q0 59 71 86q-41 34 -41 93q0 48 34 92q-48 38 -48 106q0 63 47 105.5t133 42.5q72 0 118 -32q41 37 89 37q28 0 42 -18.5t14 -39.5zM291 302q0 26 -1.5 40t-7 33.5t-21 29t-39.5 9.5q-20 0 -33.5 -7.5t-20.5 -16.5t-10.5 -27t-4 -29
t-0.5 -32q0 -26 1.5 -40t7 -33.5t21 -29t39.5 -9.5q20 0 33.5 7.5t20.5 16.5t10.5 27t4 29t0.5 32zM387 -75q0 62 -120 62h-94q-61 0 -61 -60q0 -39 34 -65.5t104 -26.5q71 0 104 27.5t33 62.5zM344 644q0 -28 -32 -49l-129 -84l-33 33l84 132q19 30 48 30q24 0 43 -19
t19 -43z" />
    <glyph glyph-name="Aringacute" unicode="&#x1fa;" horiz-adv-x="756" 
d="M720 0q-36 3 -150 3q-127 0 -163 -3v47h83l-47 135h-219l-39 -111l-4 -12q0 -12 78 -12v-47l-118 3l-106 -3v47q38 0 58 2q21 2 26 5.5t9 15.5l212 602q6 18 14 22t24 4q11 0 16 -1t11 -7t10 -18l220 -625h85v-47zM426 229l-93 264l-93 -264h186zM431 782
q0 26 -11.5 34.5t-41.5 8.5q-31 0 -42 -9t-11 -34q0 -26 11.5 -34.5t41.5 -8.5q31 0 42 9t11 34zM485 783q0 -36 -27.5 -60.5t-80.5 -24.5q-51 0 -78.5 24t-27.5 61q0 33 27 58t81 25q52 0 79 -24.5t27 -58.5zM481 1004q-5 -27 -40 -43l-142 -60l-26 38l105 116q20 22 43 22
q29 0 47 -22t13 -51z" />
    <glyph glyph-name="aringacute" unicode="&#x1fb;" horiz-adv-x="486" 
d="M480 24q0 -16 -7 -20t-25 -4h-42q-32 0 -52.5 8t-27.5 22t-9 23t-2 21q-37 -80 -123 -80q-65 0 -117 29t-52 86q0 74 79 114t196 42v36q0 53 -21.5 84.5t-64.5 31.5q-28 0 -59 -6q23 -18 23 -50q0 -30 -19 -46.5t-44 -16.5q-23 0 -42.5 16.5t-19.5 46.5q0 25 14.5 44
t33 27.5t45 13.5t41 6t30.5 1q92 0 144.5 -41t52.5 -112v-216q0 -13 1.5 -19t12.5 -11.5t33 -6.5q7 -1 10.5 -2t7 -6.5t3.5 -14.5zM298 138v95q-14 -1 -27 -3t-39 -10t-44.5 -20t-33 -36t-14.5 -55t17.5 -55t46.5 -24q31 0 62.5 25.5t31.5 82.5zM296 605q0 26 -11.5 34.5
t-41.5 8.5q-31 0 -42 -9t-11 -34q0 -26 11.5 -34.5t41.5 -8.5q31 0 42 9t11 34zM350 606q0 -36 -27.5 -60.5t-80.5 -24.5q-51 0 -78.5 24t-27.5 61q0 33 27 58t81 25q52 0 79 -24.5t27 -58.5zM346 827q-5 -27 -40 -43l-142 -60l-26 38l105 116q20 22 43 22q29 0 47 -22
t13 -51z" />
    <glyph glyph-name="AEacute" unicode="&#x1fc;" horiz-adv-x="906" 
d="M877 274l-46 -274h-483v47h71v259h-148l-85 -234l-4 -12q0 -6 19.5 -9t38.5 -3l20 -1v-47l-119 3l-106 -3v47q42 0 61.5 2.5t24 6.5t8.5 14l207 569h-67v47h549l31 -241h-47q-4 31 -6.5 46t-8 40t-12.5 37.5t-19.5 28.5t-29 23.5t-40.5 13t-54 5.5h-81v-286h31
q63 0 80 26.5t17 90.5h47v-281h-47q0 65 -16.5 91t-80.5 26h-31v-259h86q25 0 46.5 4t37.5 9.5t29.5 17t23 21t18 28t13 30.5t10 36t8 38.5t7.5 42.5h47zM419 353v286h-26l-105 -286h131zM591 841q-5 -27 -40 -43l-142 -60l-26 38l105 116q20 22 43 22q29 0 47 -22t13 -51z
" />
    <glyph glyph-name="aeacute" unicode="&#x1fd;" horiz-adv-x="722" 
d="M693 117q0 -10 -9 -28.5t-27 -40.5t-52 -38t-76 -16q-95 0 -160 60q-61 -60 -169 -60q-73 0 -122.5 28t-49.5 81q0 132 276 145v53q0 116 -87 116q-27 0 -59 -6q23 -18 23 -50q0 -30 -19 -46.5t-44 -16.5q-23 0 -42.5 16.5t-19.5 46.5q0 25 14.5 44t33 27.5t45.5 13.5
t41.5 6t30.5 1q102 0 155 -50q57 50 141 50q86 0 131 -56t45 -150q0 -20 -6 -24.5t-26 -4.5h-243q0 -85 23 -126q32 -58 96 -58q30 0 61.5 19t46.5 63q2 6 3 8.5t3.5 5.5t6.5 4t11 1q24 0 24 -18zM598 251q-4 166 -81 166q-54 0 -81 -57q-16 -35 -18 -109h180zM323 121
q0 4 -3 9q-14 39 -16 84q-19 -1 -38.5 -5t-50.5 -14.5t-50.5 -34t-19.5 -57.5q0 -28 17.5 -50.5t47.5 -22.5q48 0 80.5 30t32.5 61zM490 644q0 -28 -32 -49l-129 -84l-33 33l84 132q19 30 48 30q24 0 43 -19t19 -43z" />
    <glyph glyph-name="Oslashacute" unicode="&#x1fe;" horiz-adv-x="778" 
d="M721 340q0 -166 -93.5 -258.5t-238.5 -92.5q-89 0 -161 36l-48 -84l-34 20l48 84q-54 33 -96 106.5t-42 188.5q0 163 92 260t241 97q83 0 160 -36l48 84l34 -20l-48 -85q70 -48 104 -127.5t34 -172.5zM517 607q-50 54 -129 54q-43 0 -88 -23t-73 -80q-29 -62 -29 -218
q0 -52 1 -81.5t9.5 -72.5t24.5 -72zM579 340q0 52 -1 82t-9.5 74.5t-25.5 74.5l-284 -493q55 -53 130 -53q41 0 84.5 20.5t70.5 67.5q16 29 24.5 72.5t9.5 73t1 81.5zM527 841q-5 -27 -40 -43l-142 -60l-26 38l105 116q20 22 43 22q29 0 47 -22t13 -51z" />
    <glyph glyph-name="oslashacute" unicode="&#x1ff;" 
d="M471 219q0 -104 -61 -164.5t-161 -60.5q-47 0 -89 15l-59 -114l-32 16l58 114q-99 60 -99 194q0 106 60.5 170t161.5 64q48 0 90 -16l58 113l32 -16l-58 -114q47 -29 73 -82.5t26 -118.5zM317 393q-28 24 -67 24q-31 0 -58 -17t-38 -50q-12 -36 -12 -131q0 -99 16 -134z
M357 219q0 103 -16 141l-158 -307q27 -23 67 -23q64 0 90 53q17 34 17 136zM379 644q0 -28 -32 -49l-129 -84l-33 33l84 132q19 30 48 30q24 0 43 -19t19 -43z" />
    <glyph glyph-name="Adblgrave" unicode="&#x200;" horiz-adv-x="756" 
d="M720 0q-36 3 -150 3q-127 0 -163 -3v47h83l-47 135h-219l-39 -111l-4 -12q0 -12 78 -12v-47l-118 3l-106 -3v47q38 0 58 2q21 2 26 5.5t9 15.5l212 602q6 18 14 22t24 4q11 0 16 -1t11 -7t10 -18l220 -625h85v-47zM426 229l-93 264l-93 -264h186zM482 759l-42 -21l-80 91
q-21 25 -21 45q0 24 21 41.5t46 17.5q44 0 54 -54zM315 759l-42 -21l-80 91q-21 25 -21 45q0 24 21 41.5t46 17.5q44 0 54 -54z" />
    <glyph glyph-name="adblgrave" unicode="&#x201;" horiz-adv-x="486" 
d="M480 24q0 -16 -7 -20t-25 -4h-42q-32 0 -52.5 8t-27.5 22t-9 23t-2 21q-37 -80 -123 -80q-65 0 -117 29t-52 86q0 74 79 114t196 42v36q0 53 -21.5 84.5t-64.5 31.5q-28 0 -59 -6q23 -18 23 -50q0 -30 -19 -46.5t-44 -16.5q-23 0 -42.5 16.5t-19.5 46.5q0 25 14.5 44
t33 27.5t45 13.5t41 6t30.5 1q92 0 144.5 -41t52.5 -112v-216q0 -13 1.5 -19t12.5 -11.5t33 -6.5q7 -1 10.5 -2t7 -6.5t3.5 -14.5zM298 138v95q-14 -1 -27 -3t-39 -10t-44.5 -20t-33 -36t-14.5 -55t17.5 -55t46.5 -24q31 0 62.5 25.5t31.5 82.5zM375 532l-42 -21l-80 91
q-21 25 -21 45q0 24 21 41.5t46 17.5q44 0 54 -54zM208 532l-42 -21l-80 91q-21 25 -21 45q0 24 21 41.5t46 17.5q44 0 54 -54z" />
    <glyph glyph-name="Edblgrave" unicode="&#x204;" horiz-adv-x="656" 
d="M627 274l-46 -274h-547v47h94v586h-94v47h534l31 -241h-47q-6 42 -10 64t-16 51.5t-30 43.5t-50 24.5t-77 10.5h-99v-257h22q62 0 78.5 26.5t16.5 90.5h47v-281h-47q0 33 -2 50t-11 35t-29 25t-53 7h-22v-282h103q41 0 71.5 7t51.5 23.5t34.5 33.5t23.5 47.5t15 53
t11 62.5h47zM460 759l-42 -21l-80 91q-21 25 -21 45q0 24 21 41.5t46 17.5q44 0 54 -54zM293 759l-42 -21l-80 91q-21 25 -21 45q0 24 21 41.5t46 17.5q44 0 54 -54z" />
    <glyph glyph-name="edblgrave" unicode="&#x205;" horiz-adv-x="467" 
d="M438 117q0 -10 -9.5 -28.5t-29 -40.5t-56.5 -38t-84 -16q-101 0 -166 62.5t-65 168.5q0 104 60.5 166t158.5 62q55 0 94.5 -19t59.5 -51t28.5 -65.5t8.5 -70.5q0 -20 -6 -24.5t-26 -4.5h-250q0 -22 0.5 -35t3.5 -38t10 -41.5t19 -34t32 -26.5t47 -9q35 0 70.5 20t51.5 62
q4 12 8 15.5t16 3.5q24 0 24 -18zM343 251q0 19 -2 37.5t-9.5 52.5t-29 55t-54.5 21q-89 0 -92 -166h187zM365 532l-42 -21l-80 91q-21 25 -21 45q0 24 21 41.5t46 17.5q44 0 54 -54zM198 532l-42 -21l-80 91q-21 25 -21 45q0 24 21 41.5t46 17.5q44 0 54 -54z" />
    <glyph glyph-name="Idblgrave" unicode="&#x208;" horiz-adv-x="397" 
d="M368 0q-36 3 -170 3t-170 -3v47h99v592h-99v47q36 -3 170 -3t170 3v-47h-99v-592h99v-47zM331 759l-42 -21l-80 91q-21 25 -21 45q0 24 21 41.5t46 17.5q44 0 54 -54zM164 759l-42 -21l-80 91q-21 25 -21 45q0 24 21 41.5t46 17.5q44 0 54 -54z" />
    <glyph glyph-name="idblgrave" unicode="&#x209;" horiz-adv-x="278" 
d="M265 0l-117 3l-122 -3v47h69v309q0 28 -10 33.5t-56 5.5v47l174 8v-403h62v-47zM271 532l-42 -21l-80 91q-21 25 -21 45q0 24 21 41.5t46 17.5q44 0 54 -54zM104 532l-42 -21l-80 91q-21 25 -21 45q0 24 21 41.5t46 17.5q44 0 54 -54z" />
    <glyph glyph-name="Odblgrave" unicode="&#x20c;" horiz-adv-x="750" 
d="M693 339q0 -164 -89 -257t-230 -93q-137 0 -227.5 92t-90.5 258q0 168 89.5 263t229.5 95q137 0 227.5 -94t90.5 -264zM540 353q0 135 -27 200q-21 50 -58 77t-81 27q-39 0 -76.5 -24t-60.5 -76q-28 -65 -28 -204q0 -151 32 -223q20 -45 55 -72t79 -27q42 0 79 28t56 75
q20 49 25 97t5 122zM507 759l-42 -21l-80 91q-21 25 -21 45q0 24 21 41.5t46 17.5q44 0 54 -54zM340 759l-42 -21l-80 91q-21 25 -21 45q0 24 21 41.5t46 17.5q44 0 54 -54z" />
    <glyph glyph-name="odblgrave" unicode="&#x20d;" 
d="M471 219q0 -104 -61 -164.5t-161 -60.5q-98 0 -159.5 60t-61.5 165q0 107 61.5 170.5t159.5 63.5q100 0 161 -64t61 -170zM343 229q0 94 -9 127q-7 25 -30.5 43t-54.5 18q-29 0 -53 -16.5t-31 -44.5q-9 -32 -9 -127q0 -96 8 -129q8 -31 32 -48.5t54 -17.5q28 0 52 17
t31 45q10 34 10 133zM382 532l-42 -21l-80 91q-21 25 -21 45q0 24 21 41.5t46 17.5q44 0 54 -54zM215 532l-42 -21l-80 91q-21 25 -21 45q0 24 21 41.5t46 17.5q44 0 54 -54z" />
    <glyph glyph-name="Rdblgrave" unicode="&#x210;" horiz-adv-x="760" 
d="M756 94q0 -8 -3.5 -21.5t-12.5 -34.5t-32.5 -35t-57.5 -14q-166 0 -199 91q-7 22 -7 89q0 53 -3 74.5t-17 43.5q-24 38 -74 38h-86v-278h94v-47q-35 3 -162 3t-162 -3v47h94v592h-94v47h333q124 0 195.5 -53t71.5 -133q0 -54 -40.5 -98.5t-111.5 -62.5q88 -38 103 -120
q1 -2 10 -74q4 -31 7 -46.5t9.5 -36t17.5 -29t28 -8.5q21 0 35 18t17 51q1 13 5.5 18t17.5 5q24 0 24 -23zM481 500q0 35 -2.5 53t-14 41.5t-41 34t-77.5 10.5h-82v-278h80q40 0 67 8.5t40.5 19.5t20.5 33t8 36t1 42zM484 759l-42 -21l-80 91q-21 25 -21 45q0 24 21 41.5
t46 17.5q44 0 54 -54zM317 759l-42 -21l-80 91q-21 25 -21 45q0 24 21 41.5t46 17.5q44 0 54 -54z" />
    <glyph glyph-name="rdblgrave" unicode="&#x211;" horiz-adv-x="428" 
d="M400 368q0 -28 -18.5 -44.5t-42.5 -16.5t-42.5 16t-18.5 45q0 13 5 24.5t9 16.5l5 5q-32 0 -53.5 -18t-32 -48.5t-14.5 -59.5t-4 -62v-179h87v-47q-36 3 -138 3l-126 -3v47h69v309q0 28 -10.5 33.5t-58.5 5.5v47l166 8v-91h1q30 91 110 91q41 0 74 -21.5t33 -60.5z
M346 532l-42 -21l-80 91q-21 25 -21 45q0 24 21 41.5t46 17.5q44 0 54 -54zM179 532l-42 -21l-80 91q-21 25 -21 45q0 24 21 41.5t46 17.5q44 0 54 -54z" />
    <glyph glyph-name="Udblgrave" unicode="&#x214;" horiz-adv-x="769" 
d="M734 639h-20q-28 0 -50 -3q-18 -2 -21 -5.5t-3 -20.5v-383q0 -103 -62.5 -170.5t-173.5 -67.5q-127 0 -201.5 67.5t-74.5 172.5v410h-94v47q35 -3 165 -3t165 3v-47h-94v-429q0 -174 138 -174q73 0 126 45.5t53 148.5v380q0 17 -3.5 20.5t-21.5 5.5q-21 3 -49 3h-20v47
l121 -3l120 3v-47zM540 759l-42 -21l-80 91q-21 25 -21 45q0 24 21 41.5t46 17.5q44 0 54 -54zM373 759l-42 -21l-80 91q-21 25 -21 45q0 24 21 41.5t46 17.5q44 0 54 -54z" />
    <glyph glyph-name="udblgrave" unicode="&#x215;" horiz-adv-x="556" 
d="M553 0l-177 -6v68h-1q-38 -68 -118 -68q-79 0 -121.5 28.5t-42.5 99.5v234q0 28 -10.5 33.5t-58.5 5.5v47l183 8v-345q0 -45 10 -60t54 -15q46 0 72.5 38t26.5 95v193q0 28 -10.5 33.5t-58.5 5.5v47l183 8v-364q0 -28 10.5 -33.5t58.5 -5.5v-47zM410 532l-42 -21l-80 91
q-21 25 -21 45q0 24 21 41.5t46 17.5q44 0 54 -54zM243 532l-42 -21l-80 91q-21 25 -21 45q0 24 21 41.5t46 17.5q44 0 54 -54z" />
    <glyph glyph-name="uni0218" unicode="&#x218;" horiz-adv-x="556" 
d="M499 203q0 -93 -51.5 -153.5t-145.5 -60.5q-100 0 -167 51l-28 -28q-18 -17 -22 -20t-11 -3q-12 0 -15 5.5t-3 22.5v182q0 19 3.5 24t20.5 5q8 0 12.5 -1t7 -4t3 -6.5t0.5 -11.5q2 -49 23 -84.5t52.5 -53t61.5 -24.5t61 -7q55 0 78 35.5t23 81.5q0 83 -66 113
q-19 6 -68 17q-76 19 -106 32t-58 46q-48 59 -48 136q0 87 52 143.5t143 56.5q84 0 143 -50l27 27q18 17 22 20t11 3q12 0 15 -5.5t3 -22.5v-183q0 -18 -3.5 -23t-20.5 -5q-12 0 -17 3t-7 14q-24 179 -172 179q-51 0 -75 -31.5t-24 -73.5q0 -35 18 -62.5t45 -37.5
q7 -2 73 -19q52 -13 74 -20t47 -23t45 -44q44 -60 44 -140zM341 -127q0 -29 -8 -56.5t-19.5 -47t-23.5 -34.5t-21.5 -22.5t-13.5 -7.5q-5 0 -9.5 5t-4.5 10t9 12q59 52 63 132q-14 -14 -39 -14q-27 0 -43 17.5t-16 41.5t16.5 41t41.5 17q32 0 50 -27t18 -67z" />
    <glyph glyph-name="uni0219" unicode="&#x219;" horiz-adv-x="394" 
d="M360 139q0 -63 -37.5 -104t-123.5 -41q-57 0 -97 28q-16 -10 -24 -16q-18 -12 -27 -12q-12 0 -15 6t-3 22v109q0 19 3.5 24t20.5 5q14 0 17.5 -3t6.5 -14q14 -55 41 -84t77 -29q90 0 90 74q0 29 -19 47.5t-36 23.5t-46 11t-44.5 10t-36 14t-35.5 25q-39 39 -39 87
q0 38 14.5 65t39 40.5t50.5 19.5t56 6q52 0 83 -18q33 18 41 18q12 0 15 -5.5t3 -22.5v-80q0 -19 -3.5 -23.5t-20.5 -4.5q-14 0 -18 3.5t-5 15.5q-1 14 -3.5 23.5t-11 26t-29 26t-51.5 9.5q-89 0 -89 -62q0 -17 8 -29.5t26.5 -20t29.5 -11t37 -8.5q27 -5 41 -8.5t34 -14
t35 -25.5q45 -42 45 -103zM260 -127q0 -29 -8 -56.5t-19.5 -47t-23.5 -34.5t-21.5 -22.5t-13.5 -7.5q-5 0 -9.5 5t-4.5 10t9 12q59 52 63 132q-14 -14 -39 -14q-27 0 -43 17.5t-16 41.5t16.5 41t41.5 17q32 0 50 -27t18 -67z" />
    <glyph glyph-name="uni021A" unicode="&#x21a;" horiz-adv-x="694" 
d="M657 434h-47q-3 43 -6 64t-12 51t-23 44t-40 24.5t-63 10.5h-48v-581h134v-47q-48 3 -205 3t-205 -3v47h134v581h-49q-27 0 -48 -5.5t-35 -13t-24.5 -24t-16.5 -28.5t-10 -37t-5.5 -40t-4.5 -46h-47l21 241h579zM410 -127q0 -29 -8 -56.5t-19.5 -47t-23.5 -34.5
t-21.5 -22.5t-13.5 -7.5q-5 0 -9.5 5t-4.5 10t9 12q59 52 63 132q-14 -14 -39 -14q-27 0 -43 17.5t-16 41.5t16.5 41t41.5 17q32 0 50 -27t18 -67z" />
    <glyph glyph-name="uni021B" unicode="&#x21b;" horiz-adv-x="390" 
d="M333 122q0 -51 -26 -89.5t-79 -38.5q-146 0 -146 129v274h-63v36q68 3 98.5 63.5t31.5 138.5h47v-191h121v-47h-121v-279q0 -84 45 -84q21 0 33 24t12 65v54h47v-55zM258 -127q0 -29 -8 -56.5t-19.5 -47t-23.5 -34.5t-21.5 -22.5t-13.5 -7.5q-5 0 -9.5 5t-4.5 10t9 12
q59 52 63 132q-14 -14 -39 -14q-27 0 -43 17.5t-16 41.5t16.5 41t41.5 17q32 0 50 -27t18 -67z" />
    <glyph glyph-name="uni0237" unicode="&#x237;" horiz-adv-x="306" 
d="M242 -42q0 -73 -51.5 -115.5t-119.5 -42.5q-56 0 -94.5 24.5t-38.5 66.5q0 27 17.5 45t45.5 18q27 0 44.5 -18t17.5 -44q0 -34 -26 -51q15 -5 32 -5q20 0 34 12.5t20 33t8.5 38t2.5 36.5v399q0 13 -1 19t-6 11.5t-15 7.5q-15 2 -54 2v47l184 8v-492z" />
    <glyph glyph-name="ereversed" unicode="&#x258;" horiz-adv-x="467" 
d="M438 225q0 -106 -65 -168.5t-166 -62.5q-47 0 -84 16t-56.5 38t-29 40.5t-9.5 28.5q0 18 24 18q12 0 16 -3.5t8 -15.5q16 -42 51.5 -62t70.5 -20q27 0 47 9t32 26.5t19 34t10 41.5t3.5 38.5t0.5 34.5h-250q-20 0 -26 4.5t-6 24.5q0 37 8.5 70.5t28.5 65.5t59.5 51
t94.5 19q98 0 158.5 -62t60.5 -166zM310 251q-3 166 -92 166q-33 0 -54.5 -21t-29 -55t-9.5 -52.5t-2 -37.5h187z" />
    <glyph glyph-name="schwa" unicode="&#x259;" horiz-adv-x="467" 
d="M438 222q0 -104 -60.5 -166t-158.5 -62q-55 0 -94.5 19t-59.5 51t-28.5 65.5t-8.5 70.5q0 20 6 24.5t26 4.5h250q0 21 -0.5 34.5t-3.5 38.5t-10 41.5t-19 34t-32 26.5t-47 9q-35 0 -70.5 -20t-51.5 -62q-4 -12 -8 -15.5t-16 -3.5q-24 0 -24 18q0 10 9.5 28.5t29 40.5
t56.5 38t84 16q101 0 166 -62.5t65 -168.5zM310 196h-187q0 -19 2 -37.5t9.5 -52.5t29 -55t54.5 -21q89 0 92 166z" />
    <glyph glyph-name="ringhalfright" unicode="&#x2be;" horiz-adv-x="398" 
d="M342 486q0 -78 -44.5 -125t-118.5 -47q-49 0 -82.5 18.5t-33.5 53.5q0 24 15.5 37.5t36.5 13.5q19 0 34.5 -13t15.5 -38q0 -17 -9 -30q7 -1 21 -1q22 0 36 12.5t18.5 37t5.5 38t1 39.5q0 65 -13 93q-19 40 -56 40q-17 0 -30 -6t-21 -18t-10.5 -17t-6.5 -15
q-3 -9 -7 -11.5t-15 -2.5q-23 0 -23 16q0 4 3 13.5t11.5 24t22 27t37 21.5t52.5 9q68 0 114 -45.5t46 -124.5z" />
    <glyph glyph-name="ringhalfleft" unicode="&#x2bf;" horiz-adv-x="398" 
d="M342 409q0 -4 -3 -13.5t-11.5 -24t-22 -27t-37 -21.5t-52.5 -9q-68 0 -114 45.5t-46 124.5q0 78 44.5 125t118.5 47q49 0 82.5 -18.5t33.5 -53.5q0 -24 -15.5 -37.5t-36.5 -13.5q-19 0 -34.5 13t-15.5 38q0 17 9 30q-7 1 -21 1q-22 0 -36 -12.5t-18.5 -37t-5.5 -38
t-1 -39.5q0 -65 13 -93q19 -40 56 -40q17 0 30 6t21 18t10.5 17t6.5 15q3 9 7 11.5t15 2.5q23 0 23 -16z" />
    <glyph glyph-name="circumflex" unicode="&#x2c6;" 
d="M427 527l-20 -22l-158 99l-158 -99l-18 22l177 185z" />
    <glyph glyph-name="caron" unicode="&#x2c7;" 
d="M427 690l-177 -185l-177 185l20 22l158 -99l158 99z" />
    <glyph glyph-name="breve" unicode="&#x2d8;" 
d="M407 702q-2 -85 -48 -136t-108 -51q-64 0 -109.5 51.5t-47.5 135.5h36q1 -57 37 -91t84 -34q46 0 82.5 33.5t37.5 91.5h36z" />
    <glyph glyph-name="dotaccent" unicode="&#x2d9;" horiz-adv-x="278" 
d="M217 609q0 -31 -22.5 -54.5t-56.5 -23.5q-32 0 -55 23t-23 55q0 31 22.5 54.5t56.5 23.5q32 0 55 -23t23 -55z" />
    <glyph glyph-name="ring" unicode="&#x2da;" horiz-adv-x="756" 
d="M431 605q0 26 -11.5 34.5t-41.5 8.5q-31 0 -42 -9t-11 -34q0 -26 11.5 -34.5t41.5 -8.5q31 0 42 9t11 34zM485 606q0 -36 -27.5 -60.5t-80.5 -24.5q-51 0 -78.5 24t-27.5 61q0 33 27 58t81 25q52 0 79 -24.5t27 -58.5z" />
    <glyph glyph-name="ogonek" unicode="&#x2db;" 
d="M354 -150q-50 -54 -107 -54q-50 0 -77.5 26.5t-27.5 63.5q0 28 21.5 62.5t50.5 56.5h78q-38 -17 -58 -55q-17 -32 -1.5 -60t50.5 -28q8 0 14.5 2t9 4t8 7t6.5 6q14 10 29 -3q6 -5 7 -14.5t-3 -13.5z" />
    <glyph glyph-name="tilde" unicode="&#x2dc;" 
d="M417 640l-41 -53q-23 -31 -63 -31q-18 0 -65 14q-51 17 -73 17q-39 0 -63 -31l-28 22l41 53q23 31 63 31q18 0 65 -14q51 -17 73 -17q39 0 63 31z" />
    <glyph glyph-name="hungarumlaut" unicode="&#x2dd;" 
d="M261 647q0 -20 -21 -45l-80 -91l-42 21l22 120q10 54 54 54q25 0 46 -17.5t21 -41.5zM428 647q0 -20 -21 -45l-80 -91l-42 21l22 120q10 54 54 54q25 0 46 -17.5t21 -41.5z" />
    <glyph glyph-name="uni0300" unicode="&#x300;" horiz-adv-x="0" 
d="M-178 544l-33 -33l-129 84q-32 21 -32 49q0 24 19 43t43 19q29 0 48 -30z" />
    <glyph glyph-name="uni0301" unicode="&#x301;" horiz-adv-x="0" 
d="M-114 644q0 -28 -32 -49l-129 -84l-33 33l84 132q19 30 48 30q24 0 43 -19t19 -43z" />
    <glyph glyph-name="uni0302" unicode="&#x302;" horiz-adv-x="0" 
d="M-66 527l-20 -22l-158 99l-158 -99l-18 22l177 185z" />
    <glyph glyph-name="uni0303" unicode="&#x303;" horiz-adv-x="0" 
d="M-76 640l-41 -53q-23 -31 -63 -31q-18 0 -65 14q-51 17 -73 17q-39 0 -63 -31l-28 22l41 53q23 31 63 31q18 0 65 -14q51 -17 73 -17q39 0 63 31z" />
    <glyph glyph-name="uni0304" unicode="&#x304;" horiz-adv-x="0" 
d="M-62 583h-361v52h361v-52z" />
    <glyph glyph-name="uni0306" unicode="&#x306;" horiz-adv-x="0" 
d="M-86 702q-2 -85 -48 -136t-108 -51q-64 0 -109.5 51.5t-47.5 135.5h36q1 -57 37 -91t84 -34q46 0 82.5 33.5t37.5 91.5h36z" />
    <glyph glyph-name="uni0307" unicode="&#x307;" horiz-adv-x="0" 
d="M-165 609q0 -31 -22.5 -54.5t-56.5 -23.5q-32 0 -55 23t-23 55q0 31 22.5 54.5t56.5 23.5q32 0 55 -23t23 -55z" />
    <glyph glyph-name="uni0308" unicode="&#x308;" horiz-adv-x="0" 
d="M-301 609q0 -28 -20 -49t-51 -21q-29 0 -49.5 20.5t-20.5 49.5q0 28 20 49t51 21q29 0 49.5 -20.5t20.5 -49.5zM-43 609q0 -28 -20 -49t-51 -21q-29 0 -49.5 20.5t-20.5 49.5q0 28 20 49t51 21q29 0 49.5 -20.5t20.5 -49.5z" />
    <glyph glyph-name="uni0309" unicode="&#x309;" horiz-adv-x="0" 
d="M-146 642q0 -30 -30 -44q-60 -27 -60 -55v-17q0 -14 -14 -14t-14 14v16q0 43 30 78q5 5 5 22q0 26 -1 30q-4 6 -20 6q-14 0 -25 -3q16 -11 16 -33q0 -18 -12 -29.5t-29 -11.5q-16 0 -28 11.5t-12 29.5q0 30 26.5 46.5t63.5 16.5q50 0 74 -14q30 -17 30 -49z" />
    <glyph glyph-name="uni030A" unicode="&#x30a;" horiz-adv-x="0" 
d="M-190 605q0 26 -11.5 34.5t-41.5 8.5q-31 0 -42 -9t-11 -34q0 -26 11.5 -34.5t41.5 -8.5q31 0 42 9t11 34zM-136 606q0 -36 -27.5 -60.5t-80.5 -24.5q-51 0 -78.5 24t-27.5 61q0 33 27 58t81 25q52 0 79 -24.5t27 -58.5z" />
    <glyph glyph-name="uni030B" unicode="&#x30b;" horiz-adv-x="0" 
d="M-232 647q0 -20 -21 -45l-80 -91l-42 21l22 120q10 54 54 54q25 0 46 -17.5t21 -41.5zM-65 647q0 -20 -21 -45l-80 -91l-42 21l22 120q10 54 54 54q25 0 46 -17.5t21 -41.5z" />
    <glyph glyph-name="uni030C" unicode="&#x30c;" horiz-adv-x="0" 
d="M-66 690l-177 -185l-177 185l20 22l158 -99l158 99z" />
    <glyph glyph-name="uni030F" unicode="&#x30f;" horiz-adv-x="0" 
d="M-111 532l-42 -21l-80 91q-21 25 -21 45q0 24 21 41.5t46 17.5q44 0 54 -54zM-278 532l-42 -21l-80 91q-21 25 -21 45q0 24 21 41.5t46 17.5q44 0 54 -54z" />
    <glyph glyph-name="uni0311" unicode="&#x311;" horiz-adv-x="0" 
d="M-86 515h-36q-1 57 -37 91t-84 34q-46 0 -82.5 -33.5t-37.5 -91.5h-36q2 85 48 136t108 51q64 0 109.5 -51.5t47.5 -135.5z" />
    <glyph glyph-name="uni0323" unicode="&#x323;" horiz-adv-x="0" 
d="M-165 -122q0 -31 -22.5 -54.5t-56.5 -23.5q-32 0 -55 23t-23 55q0 31 22.5 54.5t56.5 23.5q32 0 55 -23t23 -55z" />
    <glyph glyph-name="uni0326" unicode="&#x326;" horiz-adv-x="0" 
d="M-180 -127q0 -29 -8 -56.5t-19.5 -47t-23.5 -34.5t-21.5 -22.5t-13.5 -7.5q-5 0 -9.5 5t-4.5 10t9 12q59 52 63 132q-14 -14 -39 -14q-27 0 -43 17.5t-16 41.5t16.5 41t41.5 17q32 0 50 -27t18 -67z" />
    <glyph glyph-name="uni032E" unicode="&#x32e;" horiz-adv-x="0" 
d="M-86 -28q-2 -85 -48 -136t-108 -51q-64 0 -109.5 51.5t-47.5 135.5h36q1 -57 37 -91t84 -34q46 0 82.5 33.5t37.5 91.5h36z" />
    <glyph glyph-name="uni032F" unicode="&#x32f;" horiz-adv-x="0" 
d="M-86 -215h-36q-1 57 -37 91t-84 34q-46 0 -82.5 -33.5t-37.5 -91.5h-36q2 85 48 136t108 51q64 0 109.5 -51.5t47.5 -135.5z" />
    <glyph glyph-name="uni0330" unicode="&#x330;" horiz-adv-x="0" 
d="M-76 -91l-41 -53q-23 -31 -63 -31q-18 0 -65 14q-51 17 -73 17q-39 0 -63 -31l-28 22l41 53q23 31 63 31q18 0 65 -14q51 -17 73 -17q39 0 63 31z" />
    <glyph glyph-name="uni0331" unicode="&#x331;" horiz-adv-x="0" 
d="M-62 -148h-361v52h361v-52z" />
    <glyph glyph-name="uni0332" unicode="&#x332;" horiz-adv-x="0" 
d="M-62 -148h-361v52h361v-52z" />
    <glyph glyph-name="Alpha" unicode="&#x391;" horiz-adv-x="756" 
d="M720 0q-36 3 -150 3q-127 0 -163 -3v47h83l-47 135h-219l-39 -111l-4 -12q0 -12 78 -12v-47l-118 3l-106 -3v47q38 0 58 2q21 2 26 5.5t9 15.5l212 602q6 18 14 22t24 4q11 0 16 -1t11 -7t10 -18l220 -625h85v-47zM426 229l-93 264l-93 -264h186z" />
    <glyph glyph-name="Beta" unicode="&#x392;" horiz-adv-x="711" 
d="M654 186q0 -78 -56 -132t-160 -54h-404v47h94v592h-94v47h378q103 0 159 -50t56 -122q0 -57 -39 -99t-109 -56q85 -11 130 -59t45 -114zM485 514q0 125 -86 125h-140v-264h117q57 0 83 39t26 100zM507 188q0 64 -21 104q-23 47 -75 47h-152v-292h142q57 0 84 45
q22 37 22 96z" />
    <glyph glyph-name="Gamma" unicode="&#x393;" horiz-adv-x="600" 
d="M557 439h-47q-4 28 -6 40.5t-6.5 36t-9.5 34t-14 27.5t-20.5 24.5t-27 16.5t-37 12t-47.5 3h-72v-586h118v-47q-41 3 -185 3q-134 0 -169 -3v47h94v586h-94v47h492z" />
    <glyph glyph-name="Delta" unicode="&#x394;" horiz-adv-x="833" 
d="M782 13q0 -9 -6 -11t-20 -2h-680q-10 0 -14.5 0.5t-8 3.5t-3.5 9q0 3 5 13l320 648q7 15 15 19.5t26 4.5q17 0 25.5 -4t16.5 -21l319 -647zM572 121l-206 417l-205 -417h411z" />
    <glyph glyph-name="Epsilon" unicode="&#x395;" horiz-adv-x="656" 
d="M627 274l-46 -274h-547v47h94v586h-94v47h534l31 -241h-47q-6 42 -10 64t-16 51.5t-30 43.5t-50 24.5t-77 10.5h-99v-257h22q62 0 78.5 26.5t16.5 90.5h47v-281h-47q0 33 -2 50t-11 35t-29 25t-53 7h-22v-282h103q41 0 71.5 7t51.5 23.5t34.5 33.5t23.5 47.5t15 53
t11 62.5h47z" />
    <glyph glyph-name="Zeta" unicode="&#x396;" horiz-adv-x="611" 
d="M560 284l-18 -284h-454q-13 0 -18.5 1t-9.5 6.5t-4 18.5q0 14 7 26l334 587h-94q-41 0 -73 -9t-51.5 -27t-32 -35.5t-18.5 -43.5t-8.5 -41t-3.5 -38h-47l12 241h441q13 0 18.5 -1t9.5 -6.5t4 -17.5t-7 -24l-333 -586h100q30 0 55.5 5t44 12.5t33.5 21t24.5 25t17 31.5
t11.5 33t7 36t4 34.5t2 34.5h47z" />
    <glyph glyph-name="Eta" unicode="&#x397;" horiz-adv-x="783" 
d="M748 0q-35 3 -165 3t-165 -3v47h94v286h-242v-286h94v-47q-35 3 -165 3t-165 -3v47h94v592h-94v47q35 -3 165 -3t165 3v-47h-94v-259h242v259h-94v47q35 -3 165 -3t165 3v-47h-94v-592h94v-47z" />
    <glyph glyph-name="Theta" unicode="&#x398;" horiz-adv-x="778" 
d="M721 340q0 -166 -93.5 -258.5t-238.5 -92.5q-147 0 -240 93t-93 258q0 163 92 260t241 97q146 0 239 -95.5t93 -261.5zM579 340q0 145 -34 214q-53 107 -157 107q-47 0 -87.5 -26.5t-62.5 -69.5q-24 -47 -32 -97t-8 -128q0 -148 40 -220q27 -48 67.5 -70.5t83.5 -22.5
q42 0 82 22.5t66 65.5q42 74 42 225zM522 250h-47v34h-173v-34h-47v189h47v-34h173v34h47v-189z" />
    <glyph glyph-name="Iota" unicode="&#x399;" horiz-adv-x="397" 
d="M368 0q-36 3 -170 3t-170 -3v47h99v592h-99v47q36 -3 170 -3t170 3v-47h-99v-592h99v-47z" />
    <glyph glyph-name="Kappa" unicode="&#x39a;" horiz-adv-x="783" 
d="M741 0q-43 3 -134 3q-124 0 -159 -3v47q64 0 64 11q0 3 -6 11l-168 264l-68 -67v-219h94v-47q-35 3 -165 3t-165 -3v47h94v592h-94v47q35 -3 165 -3t165 3v-47h-94v-307l290 286q2 2 9 11q-25 10 -64 10v47q37 -3 130 -3q47 0 92 3v-47q-57 0 -72.5 -5t-37.5 -26
l-188 -185l228 -357q5 -8 9 -11.5t16 -5.5t36 -2h23v-47z" />
    <glyph glyph-name="Lambda" unicode="&#x39b;" horiz-adv-x="700" 
d="M664 0q-37 3 -144 3q-128 0 -164 -3v47h84l-137 422l-134 -412q27 -10 80 -10v-47l-117 3q-50 0 -97 -3v47q52 0 65 4.5t17 18.5l196 603q5 17 13.5 21t23.5 4q10 0 15 -1t11 -6.5t10 -17.5l204 -626h74v-47z" />
    <glyph glyph-name="Mu" unicode="&#x39c;" horiz-adv-x="950" 
d="M915 0q-35 3 -157 3q-121 0 -156 -3v47h94v582h-1l-230 -604q-4 -9 -5.5 -12.5t-8 -8t-15.5 -4.5q-14 0 -19.5 6t-10.5 19l-224 588h-1v-537q0 -17 3.5 -20.5t21.5 -5.5q21 -3 49 -3h20v-47l-121 3l-120 -3v47h20q28 0 50 3q18 2 21 5.5t3 20.5v563h-94v47h209
q20 0 27 -4.5t14 -21.5l191 -502l191 503q6 17 14 21t27 4h208v-47h-94v-592h94v-47z" />
    <glyph glyph-name="Nu" unicode="&#x39d;" horiz-adv-x="783" 
d="M748 639h-20q-28 0 -50 -3q-18 -2 -21 -5.5t-3 -20.5v-578q0 -20 -4 -26t-23 -6q-18 0 -27 13l-419 576v-513q0 -17 3.5 -20.5t21.5 -5.5q21 -3 49 -3h20v-47l-121 3l-120 -3v47h20q28 0 50 3q18 2 21 5.5t3 20.5v563h-94v47h208q16 0 21.5 -2t13.5 -13l324 -446v385
q0 17 -3.5 20.5t-21.5 5.5q-21 3 -49 3h-20v47l121 -3l120 3v-47z" />
    <glyph glyph-name="Xi" unicode="&#x39e;" horiz-adv-x="667" 
d="M619 477h-47q-4 65 -12 77q-6 9 -72 9h-310q-68 0 -74 -12q-8 -16 -10 -74h-47l9 198h554zM624 209l-9 -209h-564l-9 209h47q3 -68 11 -84q5 -13 77 -13h312q70 0 77 11q8 15 11 86h47zM527 248h-47v47h-294v-47h-47v206h47v-47h294v47h47v-206z" />
    <glyph glyph-name="Omicron" unicode="&#x39f;" horiz-adv-x="750" 
d="M693 339q0 -164 -89 -257t-230 -93q-137 0 -227.5 92t-90.5 258q0 168 89.5 263t229.5 95q137 0 227.5 -94t90.5 -264zM540 353q0 135 -27 200q-21 50 -58 77t-81 27q-39 0 -76.5 -24t-60.5 -76q-28 -65 -28 -204q0 -151 32 -223q20 -45 55 -72t79 -27q42 0 79 28t56 75
q20 49 25 97t5 122z" />
    <glyph glyph-name="Pi" unicode="&#x3a0;" horiz-adv-x="783" 
d="M748 0q-35 3 -165 3t-165 -3v47h94v586h-242v-586h94v-47q-35 3 -165 3t-165 -3v47h94v586h-94v47h714v-47h-94v-586h94v-47z" />
    <glyph glyph-name="Rho" unicode="&#x3a1;" horiz-adv-x="683" 
d="M626 491q0 -87 -64 -138t-160 -51h-132v-255h94v-47q-35 3 -165 3t-165 -3v47h94v592h-94v47h359q108 0 170.5 -55t62.5 -140zM473 491q0 34 -1 50t-7 39t-18 33t-36 18t-59 8h-88v-296h88q35 0 59 8t36 18.5t18 33.5t7 39t1 49z" />
    <glyph glyph-name="Sigma" unicode="&#x3a3;" horiz-adv-x="722" 
d="M665 260l-31 -260h-546q-32 0 -32 18q0 7 12 19l248 246l-251 355q-9 13 -9 24q0 16 7 20t25 4h546l31 -241h-47q-14 110 -61.5 152t-161.5 42h-156l196 -278q8 -13 8 -18q0 -8 -14 -21l-257 -256h219q116 0 165 41t62 153h47z" />
    <glyph glyph-name="Tau" unicode="&#x3a4;" horiz-adv-x="694" 
d="M657 434h-47q-3 43 -6 64t-12 51t-23 44t-40 24.5t-63 10.5h-48v-581h134v-47q-48 3 -205 3t-205 -3v47h134v581h-49q-27 0 -48 -5.5t-35 -13t-24.5 -24t-16.5 -28.5t-10 -37t-5.5 -40t-4.5 -46h-47l21 241h579z" />
    <glyph glyph-name="Upsilon" unicode="&#x3a5;" horiz-adv-x="778" 
d="M721 554q0 -11 -4.5 -16t-9 -6t-13.5 -1q-16 0 -20 4.5t-6 17.5q-4 29 -72 29q-15 0 -24.5 -1.5t-26 -7.5t-31 -22t-26.5 -41q-28 -60 -28 -159v-304h118v-47q-41 3 -189 3t-189 -3v47h118v304q0 101 -32 164q-15 31 -37 47t-35 18t-33 2q-38 0 -54 -7.5t-18 -23.5
q-2 -14 -7.5 -17t-18.5 -3q-9 0 -13.5 1t-9 6t-4.5 16q0 50 36 96.5t99 46.5q75 0 125 -57t72 -154h1q5 23 12.5 46t23.5 54t36.5 54.5t53 40t71.5 16.5q64 0 99.5 -46.5t35.5 -96.5z" />
    <glyph glyph-name="Phi" unicode="&#x3a6;" horiz-adv-x="722" 
d="M665 343q0 -69 -61 -124t-183 -66v-106h118v-47q-38 3 -184 3q-145 0 -183 -3v47h118v107q-109 11 -171.5 64t-62.5 125t62 125t172 64v107h-118v47q38 -3 184 -3q145 0 183 3v-47h-118v-106q63 -5 111.5 -24t76.5 -46t42 -57.5t14 -62.5zM290 194v298
q-25 -7 -42.5 -19.5t-26 -25t-13 -33.5t-5 -33.5t-0.5 -37.5t0.5 -37.5t5 -33.5t13 -33.5t26 -25t42.5 -19.5zM518 343q0 31 -2 48t-10 41.5t-29.5 39.5t-55.5 22v-302q34 7 55.5 22t29.5 39.5t10 41.5t2 48z" />
    <glyph glyph-name="Chi" unicode="&#x3a7;" horiz-adv-x="756" 
d="M727 0q-37 3 -148 3q-128 0 -164 -3v47h73l-141 232l-142 -221q30 -11 84 -11v-47q-37 3 -138 3l-122 -3v47h24q63 0 88 10l175 272l-189 310h-85v47q36 -3 148 -3q128 0 164 3v-47h-73l114 -188l106 165l7 12q-31 11 -84 11v47q36 -3 138 -3l122 3v-47h-24q-30 0 -54 -3
q-22 -2 -27.5 -5t-13.5 -14l-139 -216l216 -354h85v-47z" />
    <glyph glyph-name="Psi" unicode="&#x3a8;" horiz-adv-x="778" 
d="M721 529q0 -15 -20 -18q-9 -1 -14.5 -9t-7.5 -24t-2.5 -27t-0.5 -31q-2 -240 -227 -266v-107h118v-47q-38 3 -184 3q-145 0 -183 -3v47h118v107q-215 30 -217 262q0 90 -23 94q-8 2 -11 3t-7 5t-4 11q0 18 32 18h72q25 0 40.5 -9.5t22 -31.5t8 -41t1.5 -56
q0 -167 86 -208v438h-118v47q38 -3 184 -3q145 0 183 3v-47h-118v-440q27 11 46.5 33t29 43.5t14.5 53.5t5.5 49.5t0.5 46.5q0 71 16.5 96.5t55.5 25.5h72q32 0 32 -18z" />
    <glyph glyph-name="Omega" unicode="&#x3a9;" horiz-adv-x="722" 
d="M677 200l-37 -200h-160q-21 0 -26.5 4.5t-5.5 24.5q0 71 30 201q34 152 34 228q0 17 -1 29.5t-4.5 40t-13.5 47.5t-25.5 41.5t-43.5 33t-64 11.5q-80 0 -120 -63q-31 -48 -31 -140q0 -74 35 -230q29 -132 29 -199q0 -20 -6 -24.5t-26 -4.5h-160l-37 200h47q12 -60 15 -71
q3 -10 6.5 -14.5t16.5 -8t39 -3.5h52q-20 48 -69 122q-33 51 -47.5 76t-31 70t-16.5 86q0 99 77 169.5t228 70.5q148 0 226 -70t78 -170q0 -53 -21.5 -103.5t-65.5 -115.5q-59 -91 -77 -135h52q25 0 38 3.5t16 7.5t6 12q9 24 17 74h47z" />
    <glyph glyph-name="baht" unicode="&#xe3f;" horiz-adv-x="711" 
d="M654 186q0 -78 -56 -132t-160 -54h-66v-48q0 -10 -7 -17t-17 -7t-17 7t-7 17v48h-290v47h94v592h-94v47h290v48q0 10 7 17t17 7t17 -7t7 -17v-48h40q103 0 159 -50t56 -122q0 -57 -39 -99t-109 -56q85 -11 130 -59t45 -114zM485 514q0 125 -86 125h-27v-264h4q57 0 83 39
t26 100zM324 375v264h-65v-264h65zM507 188q0 64 -21 104q-23 47 -75 47h-39v-292h29q57 0 84 45q22 37 22 96zM324 47v292h-65v-292h65z" />
    <glyph glyph-name="Ddotbelow" unicode="&#x1e0c;" horiz-adv-x="767" 
d="M710 337q0 -160 -86.5 -248.5t-217.5 -88.5h-372v47h94v592h-94v47h372q130 0 217 -91t87 -258zM563 337q0 155 -32 212q-49 90 -167 90h-100v-592h101q117 0 166 85q32 59 32 205zM392 -122q0 -31 -22.5 -54.5t-56.5 -23.5q-32 0 -55 23t-23 55q0 31 22.5 54.5
t56.5 23.5q32 0 55 -23t23 -55z" />
    <glyph glyph-name="ddotbelow" unicode="&#x1e0d;" horiz-adv-x="556" 
d="M539 0l-183 -6v41q-50 -41 -114 -41q-89 0 -149 59.5t-60 168.5q0 107 62.5 167.5t156.5 60.5q61 0 110 -38v188q0 28 -10.5 33.5t-58.5 5.5v47l177 8v-608q0 -28 10.5 -33.5t58.5 -5.5v-47zM356 94v267q-38 53 -94 53q-31 0 -54.5 -17.5t-34.5 -47.5q-12 -35 -12 -128
q0 -94 11 -128q22 -63 79 -63q64 0 105 64zM356 -122q0 -31 -22.5 -54.5t-56.5 -23.5q-32 0 -55 23t-23 55q0 31 22.5 54.5t56.5 23.5q32 0 55 -23t23 -55z" />
    <glyph glyph-name="Dlinebelow" unicode="&#x1e0e;" horiz-adv-x="767" 
d="M710 337q0 -160 -86.5 -248.5t-217.5 -88.5h-372v47h94v592h-94v47h372q130 0 217 -91t87 -258zM563 337q0 155 -32 212q-49 90 -167 90h-100v-592h101q117 0 166 85q32 59 32 205zM495 -148h-361v52h361v-52z" />
    <glyph glyph-name="dlinebelow" unicode="&#x1e0f;" horiz-adv-x="556" 
d="M539 0l-183 -6v41q-50 -41 -114 -41q-89 0 -149 59.5t-60 168.5q0 107 62.5 167.5t156.5 60.5q61 0 110 -38v188q0 28 -10.5 33.5t-58.5 5.5v47l177 8v-608q0 -28 10.5 -33.5t58.5 -5.5v-47zM356 94v267q-38 53 -94 53q-31 0 -54.5 -17.5t-34.5 -47.5q-12 -35 -12 -128
q0 -94 11 -128q22 -63 79 -63q64 0 105 64zM459 -148h-361v52h361v-52z" />
    <glyph glyph-name="Hdotbelow" unicode="&#x1e24;" horiz-adv-x="783" 
d="M748 0q-35 3 -165 3t-165 -3v47h94v286h-242v-286h94v-47q-35 3 -165 3t-165 -3v47h94v592h-94v47q35 -3 165 -3t165 3v-47h-94v-259h242v259h-94v47q35 -3 165 -3t165 3v-47h-94v-592h94v-47zM470 -122q0 -31 -22.5 -54.5t-56.5 -23.5q-32 0 -55 23t-23 55
q0 31 22.5 54.5t56.5 23.5q32 0 55 -23t23 -55z" />
    <glyph glyph-name="hdotbelow" unicode="&#x1e25;" horiz-adv-x="556" 
d="M553 0l-125 3l-123 -3v47h65v274q0 41 -6.5 63t-13 26t-16.5 4q-45 0 -86 -41t-41 -117v-209h69v-47l-126 3l-126 -3v47h69v553q0 28 -10.5 33.5t-58.5 5.5v47l177 8v-335h1q50 91 147 91q77 0 106 -38t29 -103v-262h69v-47zM367 -122q0 -31 -22.5 -54.5t-56.5 -23.5
q-32 0 -55 23t-23 55q0 31 22.5 54.5t56.5 23.5q32 0 55 -23t23 -55z" />
    <glyph glyph-name="Hdieresis" unicode="&#x1e26;" horiz-adv-x="783" 
d="M748 0q-35 3 -165 3t-165 -3v47h94v286h-242v-286h94v-47q-35 3 -165 3t-165 -3v47h94v592h-94v47q35 -3 165 -3t165 3v-47h-94v-259h242v259h-94v47q35 -3 165 -3t165 3v-47h-94v-592h94v-47zM310 798q0 -28 -20 -49t-51 -21q-29 0 -49.5 20.5t-20.5 49.5q0 28 20 49
t51 21q29 0 49.5 -20.5t20.5 -49.5zM616 798q0 -28 -20 -49t-51 -21q-29 0 -49.5 20.5t-20.5 49.5q0 28 20 49t51 21q29 0 49.5 -20.5t20.5 -49.5z" />
    <glyph glyph-name="hdieresis" unicode="&#x1e27;" horiz-adv-x="556" 
d="M553 0l-125 3l-123 -3v47h65v274q0 41 -6.5 63t-13 26t-16.5 4q-45 0 -86 -41t-41 -117v-209h69v-47l-126 3l-126 -3v47h69v553q0 28 -10.5 33.5t-58.5 5.5v47l177 8v-335h1q50 91 147 91q77 0 106 -38t29 -103v-262h69v-47zM196 806q0 -28 -20 -49t-51 -21
q-29 0 -49.5 20.5t-20.5 49.5q0 28 20 49t51 21q29 0 49.5 -20.5t20.5 -49.5zM502 806q0 -28 -20 -49t-51 -21q-29 0 -49.5 20.5t-20.5 49.5q0 28 20 49t51 21q29 0 49.5 -20.5t20.5 -49.5z" />
    <glyph glyph-name="Hbrevebelow" unicode="&#x1e2a;" horiz-adv-x="783" 
d="M748 0q-35 3 -165 3t-165 -3v47h94v286h-242v-286h94v-47q-35 3 -165 3t-165 -3v47h94v592h-94v47q35 -3 165 -3t165 3v-47h-94v-259h242v259h-94v47q35 -3 165 -3t165 3v-47h-94v-592h94v-47zM549 -28q-2 -85 -48 -136t-108 -51q-64 0 -109.5 51.5t-47.5 135.5h36
q1 -57 37 -91t84 -34q46 0 82.5 33.5t37.5 91.5h36z" />
    <glyph glyph-name="hbrevebelow" unicode="&#x1e2b;" horiz-adv-x="556" 
d="M553 0l-125 3l-123 -3v47h65v274q0 41 -6.5 63t-13 26t-16.5 4q-45 0 -86 -41t-41 -117v-209h69v-47l-126 3l-126 -3v47h69v553q0 28 -10.5 33.5t-58.5 5.5v47l177 8v-335h1q50 91 147 91q77 0 106 -38t29 -103v-262h69v-47zM446 -28q-2 -85 -48 -136t-108 -51
q-64 0 -109.5 51.5t-47.5 135.5h36q1 -57 37 -91t84 -34q46 0 82.5 33.5t37.5 91.5h36z" />
    <glyph glyph-name="Idieresisacute" unicode="&#x1e2e;" horiz-adv-x="397" 
d="M368 0q-36 3 -170 3t-170 -3v47h99v592h-99v47q36 -3 170 -3t170 3v-47h-99v-592h99v-47zM117 798q0 -28 -20 -49t-51 -21q-29 0 -49.5 20.5t-20.5 49.5q0 28 20 49t51 21q29 0 49.5 -20.5t20.5 -49.5zM423 798q0 -28 -20 -49t-51 -21q-29 0 -49.5 20.5t-20.5 49.5
q0 28 20 49t51 21q29 0 49.5 -20.5t20.5 -49.5zM337 1023q-5 -27 -40 -43l-142 -60l-26 38l105 116q20 22 43 22q29 0 47 -22t13 -51z" />
    <glyph glyph-name="idieresisacute" unicode="&#x1e2f;" horiz-adv-x="278" 
d="M265 0l-117 3l-122 -3v47h69v309q0 28 -10 33.5t-56 5.5v47l174 8v-403h62v-47zM81 609q0 -28 -20 -49t-51 -21q-29 0 -49.5 20.5t-20.5 49.5q0 28 20 49t51 21q29 0 49.5 -20.5t20.5 -49.5zM339 609q0 -28 -20 -49t-51 -21q-29 0 -49.5 20.5t-20.5 49.5q0 28 20 49
t51 21q29 0 49.5 -20.5t20.5 -49.5zM277 834q-5 -27 -40 -43l-142 -60l-26 38l105 116q20 22 43 22q29 0 47 -22t13 -51z" />
    <glyph glyph-name="Ldotbelow" unicode="&#x1e36;" horiz-adv-x="600" 
d="M557 274l-31 -274h-492v47h94v592h-94v47q35 -3 169 -3q144 0 185 3v-47h-118v-592h66q36 0 64.5 11t46 32.5t30 42.5t19 51t9.5 47.5t5 42.5h47zM378 -122q0 -31 -22.5 -54.5t-56.5 -23.5q-32 0 -55 23t-23 55q0 31 22.5 54.5t56.5 23.5q32 0 55 -23t23 -55z" />
    <glyph glyph-name="ldotbelow" unicode="&#x1e37;" horiz-adv-x="278" 
d="M272 0l-123 3l-123 -3v47h69v553q0 28 -10.5 33.5t-58.5 5.5v47l177 8v-647h69v-47zM217 -122q0 -31 -22.5 -54.5t-56.5 -23.5q-32 0 -55 23t-23 55q0 31 22.5 54.5t56.5 23.5q32 0 55 -23t23 -55z" />
    <glyph glyph-name="Ldotbelowmacron" unicode="&#x1e38;" horiz-adv-x="600" 
d="M557 274l-31 -274h-492v47h94v592h-94v47q35 -3 169 -3q144 0 185 3v-47h-118v-592h66q36 0 64.5 11t46 32.5t30 42.5t19 51t9.5 47.5t5 42.5h47zM378 -122q0 -31 -22.5 -54.5t-56.5 -23.5q-32 0 -55 23t-23 55q0 31 22.5 54.5t56.5 23.5q32 0 55 -23t23 -55zM392 748
h-361v52h361v-52z" />
    <glyph glyph-name="ldotbelowmacron" unicode="&#x1e39;" horiz-adv-x="278" 
d="M272 0l-123 3l-123 -3v47h69v553q0 28 -10.5 33.5t-58.5 5.5v47l177 8v-647h69v-47zM217 -122q0 -31 -22.5 -54.5t-56.5 -23.5q-32 0 -55 23t-23 55q0 31 22.5 54.5t56.5 23.5q32 0 55 -23t23 -55zM325 756h-361v52h361v-52z" />
    <glyph glyph-name="Mdotbelow" unicode="&#x1e42;" horiz-adv-x="950" 
d="M915 0q-35 3 -157 3q-121 0 -156 -3v47h94v582h-1l-230 -604q-4 -9 -5.5 -12.5t-8 -8t-15.5 -4.5q-14 0 -19.5 6t-10.5 19l-224 588h-1v-537q0 -17 3.5 -20.5t21.5 -5.5q21 -3 49 -3h20v-47l-121 3l-120 -3v47h20q28 0 50 3q18 2 21 5.5t3 20.5v563h-94v47h209
q20 0 27 -4.5t14 -21.5l191 -502l191 503q6 17 14 21t27 4h208v-47h-94v-592h94v-47zM553 -122q0 -31 -22.5 -54.5t-56.5 -23.5q-32 0 -55 23t-23 55q0 31 22.5 54.5t56.5 23.5q32 0 55 -23t23 -55z" />
    <glyph glyph-name="mdotbelow" unicode="&#x1e43;" horiz-adv-x="833" 
d="M830 0l-125 3l-123 -3v47h65v274q0 41 -6.5 63t-13 26t-16.5 4q-45 0 -86 -41t-41 -117v-209h69v-47l-125 3l-123 -3v47h65v274q0 41 -6.5 63t-13 26t-16.5 4q-45 0 -86 -41t-41 -117v-209h69v-47l-126 3l-126 -3v47h69v309q0 28 -10.5 33.5t-58.5 5.5v47l172 8v-101h1
q49 101 152 101q111 0 131 -91q47 91 146 91q77 0 106 -38t29 -103v-262h69v-47zM495 -122q0 -31 -22.5 -54.5t-56.5 -23.5q-32 0 -55 23t-23 55q0 31 22.5 54.5t56.5 23.5q32 0 55 -23t23 -55z" />
    <glyph glyph-name="Ndotaccent" unicode="&#x1e44;" horiz-adv-x="783" 
d="M748 639h-20q-28 0 -50 -3q-18 -2 -21 -5.5t-3 -20.5v-578q0 -20 -4 -26t-23 -6q-18 0 -27 13l-419 576v-513q0 -17 3.5 -20.5t21.5 -5.5q21 -3 49 -3h20v-47l-121 3l-120 -3v47h20q28 0 50 3q18 2 21 5.5t3 20.5v563h-94v47h208q16 0 21.5 -2t13.5 -13l324 -446v385
q0 17 -3.5 20.5t-21.5 5.5q-21 3 -49 3h-20v47l121 -3l120 3v-47zM470 806q0 -31 -22.5 -54.5t-56.5 -23.5q-32 0 -55 23t-23 55q0 31 22.5 54.5t56.5 23.5q32 0 55 -23t23 -55z" />
    <glyph glyph-name="ndotaccent" unicode="&#x1e45;" horiz-adv-x="556" 
d="M553 0l-125 3l-123 -3v47h65v274q0 41 -6.5 63t-13 26t-16.5 4q-45 0 -86 -41t-41 -117v-209h69v-47l-126 3l-126 -3v47h69v309q0 28 -10.5 33.5t-58.5 5.5v47l172 8v-101h1q49 101 152 101q77 0 106 -38t29 -103v-262h69v-47zM356 609q0 -31 -22.5 -54.5t-56.5 -23.5
q-32 0 -55 23t-23 55q0 31 22.5 54.5t56.5 23.5q32 0 55 -23t23 -55z" />
    <glyph glyph-name="Ndotbelow" unicode="&#x1e46;" horiz-adv-x="783" 
d="M748 639h-20q-28 0 -50 -3q-18 -2 -21 -5.5t-3 -20.5v-578q0 -20 -4 -26t-23 -6q-18 0 -27 13l-419 576v-513q0 -17 3.5 -20.5t21.5 -5.5q21 -3 49 -3h20v-47l-121 3l-120 -3v47h20q28 0 50 3q18 2 21 5.5t3 20.5v563h-94v47h208q16 0 21.5 -2t13.5 -13l324 -446v385
q0 17 -3.5 20.5t-21.5 5.5q-21 3 -49 3h-20v47l121 -3l120 3v-47zM470 -122q0 -31 -22.5 -54.5t-56.5 -23.5q-32 0 -55 23t-23 55q0 31 22.5 54.5t56.5 23.5q32 0 55 -23t23 -55z" />
    <glyph glyph-name="ndotbelow" unicode="&#x1e47;" horiz-adv-x="556" 
d="M553 0l-125 3l-123 -3v47h65v274q0 41 -6.5 63t-13 26t-16.5 4q-45 0 -86 -41t-41 -117v-209h69v-47l-126 3l-126 -3v47h69v309q0 28 -10.5 33.5t-58.5 5.5v47l172 8v-101h1q49 101 152 101q77 0 106 -38t29 -103v-262h69v-47zM356 -122q0 -31 -22.5 -54.5t-56.5 -23.5
q-32 0 -55 23t-23 55q0 31 22.5 54.5t56.5 23.5q32 0 55 -23t23 -55z" />
    <glyph glyph-name="Rdotaccent" unicode="&#x1e58;" horiz-adv-x="760" 
d="M756 94q0 -8 -3.5 -21.5t-12.5 -34.5t-32.5 -35t-57.5 -14q-166 0 -199 91q-7 22 -7 89q0 53 -3 74.5t-17 43.5q-24 38 -74 38h-86v-278h94v-47q-35 3 -162 3t-162 -3v47h94v592h-94v47h333q124 0 195.5 -53t71.5 -133q0 -54 -40.5 -98.5t-111.5 -62.5q88 -38 103 -120
q1 -2 10 -74q4 -31 7 -46.5t9.5 -36t17.5 -29t28 -8.5q21 0 35 18t17 51q1 13 5.5 18t17.5 5q24 0 24 -23zM481 500q0 35 -2.5 53t-14 41.5t-41 34t-77.5 10.5h-82v-278h80q40 0 67 8.5t40.5 19.5t20.5 33t8 36t1 42zM458 817q0 -31 -22.5 -54.5t-56.5 -23.5q-32 0 -55 23
t-23 55q0 31 22.5 54.5t56.5 23.5q32 0 55 -23t23 -55z" />
    <glyph glyph-name="rdotaccent" unicode="&#x1e59;" horiz-adv-x="428" 
d="M400 368q0 -28 -18.5 -44.5t-42.5 -16.5t-42.5 16t-18.5 45q0 13 5 24.5t9 16.5l5 5q-32 0 -53.5 -18t-32 -48.5t-14.5 -59.5t-4 -62v-179h87v-47q-36 3 -138 3l-126 -3v47h69v309q0 28 -10.5 33.5t-58.5 5.5v47l166 8v-91h1q30 91 110 91q41 0 74 -21.5t33 -60.5z
M292 609q0 -31 -22.5 -54.5t-56.5 -23.5q-32 0 -55 23t-23 55q0 31 22.5 54.5t56.5 23.5q32 0 55 -23t23 -55z" />
    <glyph glyph-name="Rdotbelow" unicode="&#x1e5a;" horiz-adv-x="760" 
d="M756 94q0 -8 -3.5 -21.5t-12.5 -34.5t-32.5 -35t-57.5 -14q-166 0 -199 91q-7 22 -7 89q0 53 -3 74.5t-17 43.5q-24 38 -74 38h-86v-278h94v-47q-35 3 -162 3t-162 -3v47h94v592h-94v47h333q124 0 195.5 -53t71.5 -133q0 -54 -40.5 -98.5t-111.5 -62.5q88 -38 103 -120
q1 -2 10 -74q4 -31 7 -46.5t9.5 -36t17.5 -29t28 -8.5q21 0 35 18t17 51q1 13 5.5 18t17.5 5q24 0 24 -23zM481 500q0 35 -2.5 53t-14 41.5t-41 34t-77.5 10.5h-82v-278h80q40 0 67 8.5t40.5 19.5t20.5 33t8 36t1 42zM458 -122q0 -31 -22.5 -54.5t-56.5 -23.5q-32 0 -55 23
t-23 55q0 31 22.5 54.5t56.5 23.5q32 0 55 -23t23 -55z" />
    <glyph glyph-name="rdotbelow" unicode="&#x1e5b;" horiz-adv-x="428" 
d="M400 368q0 -28 -18.5 -44.5t-42.5 -16.5t-42.5 16t-18.5 45q0 13 5 24.5t9 16.5l5 5q-32 0 -53.5 -18t-32 -48.5t-14.5 -59.5t-4 -62v-179h87v-47q-36 3 -138 3l-126 -3v47h69v309q0 28 -10.5 33.5t-58.5 5.5v47l166 8v-91h1q30 91 110 91q41 0 74 -21.5t33 -60.5z
M226 -122q0 -31 -22.5 -54.5t-56.5 -23.5q-32 0 -55 23t-23 55q0 31 22.5 54.5t56.5 23.5q32 0 55 -23t23 -55z" />
    <glyph glyph-name="Rdotbelowmacron" unicode="&#x1e5c;" horiz-adv-x="760" 
d="M756 94q0 -8 -3.5 -21.5t-12.5 -34.5t-32.5 -35t-57.5 -14q-166 0 -199 91q-7 22 -7 89q0 53 -3 74.5t-17 43.5q-24 38 -74 38h-86v-278h94v-47q-35 3 -162 3t-162 -3v47h94v592h-94v47h333q124 0 195.5 -53t71.5 -133q0 -54 -40.5 -98.5t-111.5 -62.5q88 -38 103 -120
q1 -2 10 -74q4 -31 7 -46.5t9.5 -36t17.5 -29t28 -8.5q21 0 35 18t17 51q1 13 5.5 18t17.5 5q24 0 24 -23zM481 500q0 35 -2.5 53t-14 41.5t-41 34t-77.5 10.5h-82v-278h80q40 0 67 8.5t40.5 19.5t20.5 33t8 36t1 42zM458 -122q0 -31 -22.5 -54.5t-56.5 -23.5q-32 0 -55 23
t-23 55q0 31 22.5 54.5t56.5 23.5q32 0 55 -23t23 -55zM561 748h-361v52h361v-52z" />
    <glyph glyph-name="rdotbelowmacron" unicode="&#x1e5d;" horiz-adv-x="428" 
d="M400 368q0 -28 -18.5 -44.5t-42.5 -16.5t-42.5 16t-18.5 45q0 13 5 24.5t9 16.5l5 5q-32 0 -53.5 -18t-32 -48.5t-14.5 -59.5t-4 -62v-179h87v-47q-36 3 -138 3l-126 -3v47h69v309q0 28 -10.5 33.5t-58.5 5.5v47l166 8v-91h1q30 91 110 91q41 0 74 -21.5t33 -60.5z
M226 -122q0 -31 -22.5 -54.5t-56.5 -23.5q-32 0 -55 23t-23 55q0 31 22.5 54.5t56.5 23.5q32 0 55 -23t23 -55zM395 583h-361v52h361v-52z" />
    <glyph glyph-name="Sdotbelow" unicode="&#x1e62;" horiz-adv-x="556" 
d="M499 203q0 -93 -51.5 -153.5t-145.5 -60.5q-100 0 -167 51l-28 -28q-18 -17 -22 -20t-11 -3q-12 0 -15 5.5t-3 22.5v182q0 19 3.5 24t20.5 5q8 0 12.5 -1t7 -4t3 -6.5t0.5 -11.5q2 -49 23 -84.5t52.5 -53t61.5 -24.5t61 -7q55 0 78 35.5t23 81.5q0 83 -66 113
q-19 6 -68 17q-76 19 -106 32t-58 46q-48 59 -48 136q0 87 52 143.5t143 56.5q84 0 143 -50l27 27q18 17 22 20t11 3q12 0 15 -5.5t3 -22.5v-183q0 -18 -3.5 -23t-20.5 -5q-12 0 -17 3t-7 14q-24 179 -172 179q-51 0 -75 -31.5t-24 -73.5q0 -35 18 -62.5t45 -37.5
q7 -2 73 -19q52 -13 74 -20t47 -23t45 -44q44 -60 44 -140zM356 -122q0 -31 -22.5 -54.5t-56.5 -23.5q-32 0 -55 23t-23 55q0 31 22.5 54.5t56.5 23.5q32 0 55 -23t23 -55z" />
    <glyph glyph-name="sdotbelow" unicode="&#x1e63;" horiz-adv-x="394" 
d="M360 139q0 -63 -37.5 -104t-123.5 -41q-57 0 -97 28q-16 -10 -24 -16q-18 -12 -27 -12q-12 0 -15 6t-3 22v109q0 19 3.5 24t20.5 5q14 0 17.5 -3t6.5 -14q14 -55 41 -84t77 -29q90 0 90 74q0 29 -19 47.5t-36 23.5t-46 11t-44.5 10t-36 14t-35.5 25q-39 39 -39 87
q0 38 14.5 65t39 40.5t50.5 19.5t56 6q52 0 83 -18q33 18 41 18q12 0 15 -5.5t3 -22.5v-80q0 -19 -3.5 -23.5t-20.5 -4.5q-14 0 -18 3.5t-5 15.5q-1 14 -3.5 23.5t-11 26t-29 26t-51.5 9.5q-89 0 -89 -62q0 -17 8 -29.5t26.5 -20t29.5 -11t37 -8.5q27 -5 41 -8.5t34 -14
t35 -25.5q45 -42 45 -103zM275 -122q0 -31 -22.5 -54.5t-56.5 -23.5q-32 0 -55 23t-23 55q0 31 22.5 54.5t56.5 23.5q32 0 55 -23t23 -55z" />
    <glyph glyph-name="Tdotbelow" unicode="&#x1e6c;" horiz-adv-x="694" 
d="M657 434h-47q-3 43 -6 64t-12 51t-23 44t-40 24.5t-63 10.5h-48v-581h134v-47q-48 3 -205 3t-205 -3v47h134v581h-49q-27 0 -48 -5.5t-35 -13t-24.5 -24t-16.5 -28.5t-10 -37t-5.5 -40t-4.5 -46h-47l21 241h579zM425 -122q0 -31 -22.5 -54.5t-56.5 -23.5q-32 0 -55 23
t-23 55q0 31 22.5 54.5t56.5 23.5q32 0 55 -23t23 -55z" />
    <glyph glyph-name="tdotbelow" unicode="&#x1e6d;" horiz-adv-x="390" 
d="M333 122q0 -51 -26 -89.5t-79 -38.5q-146 0 -146 129v274h-63v36q68 3 98.5 63.5t31.5 138.5h47v-191h121v-47h-121v-279q0 -84 45 -84q21 0 33 24t12 65v54h47v-55zM273 -122q0 -31 -22.5 -54.5t-56.5 -23.5q-32 0 -55 23t-23 55q0 31 22.5 54.5t56.5 23.5q32 0 55 -23
t23 -55z" />
    <glyph glyph-name="Tlinebelow" unicode="&#x1e6e;" horiz-adv-x="694" 
d="M657 434h-47q-3 43 -6 64t-12 51t-23 44t-40 24.5t-63 10.5h-48v-581h134v-47q-48 3 -205 3t-205 -3v47h134v581h-49q-27 0 -48 -5.5t-35 -13t-24.5 -24t-16.5 -28.5t-10 -37t-5.5 -40t-4.5 -46h-47l21 241h579zM528 -148h-361v52h361v-52z" />
    <glyph glyph-name="tlinebelow" unicode="&#x1e6f;" horiz-adv-x="390" 
d="M333 122q0 -51 -26 -89.5t-79 -38.5q-146 0 -146 129v274h-63v36q68 3 98.5 63.5t31.5 138.5h47v-191h121v-47h-121v-279q0 -84 45 -84q21 0 33 24t12 65v54h47v-55zM376 -148h-361v52h361v-52z" />
    <glyph glyph-name="Wgrave" unicode="&#x1e80;" horiz-adv-x="1033" 
d="M1011 639q-52 0 -65 -4.5t-18 -18.5l-202 -599q-4 -13 -11 -19t-22 -6q-17 0 -23 5.5t-11 20.5l-143 423l-143 -424q-9 -25 -34 -25q-16 0 -22.5 5.5t-10.5 19.5l-210 622h-75v47q39 -3 142 -3q125 0 161 3v-47h-84l147 -434l104 310l-42 124h-75v47q39 -3 142 -3
q125 0 161 3v-47h-84l147 -434l142 423q-28 11 -89 11v47q41 -3 122 -3q47 0 96 3v-47zM587 776l-26 -38l-142 60q-35 16 -40 43q-5 29 13 51t47 22q23 0 43 -22z" />
    <glyph glyph-name="wgrave" unicode="&#x1e81;" horiz-adv-x="722" 
d="M700 397q-40 0 -50.5 -4.5t-15.5 -18.5l-123 -352q-9 -26 -34 -26q-14 0 -21.5 4.5t-13.5 21.5l-82 234l-82 -235q-3 -9 -5.5 -13.5t-9.5 -8t-19 -3.5q-16 0 -22.5 6t-11.5 21l-131 374h-58v47l106 -3l109 3v-47h-42l83 -237l54 155l4 12l-24 70h-46v47q45 -3 90 -3
l112 3v-47h-59l92 -262l84 237l4 15q-22 10 -61 10v47l96 -3q41 0 77 3v-47zM426 544l-33 -33l-129 84q-32 21 -32 49q0 24 19 43t43 19q29 0 48 -30z" />
    <glyph glyph-name="Wacute" unicode="&#x1e82;" horiz-adv-x="1033" 
d="M1011 639q-52 0 -65 -4.5t-18 -18.5l-202 -599q-4 -13 -11 -19t-22 -6q-17 0 -23 5.5t-11 20.5l-143 423l-143 -424q-9 -25 -34 -25q-16 0 -22.5 5.5t-10.5 19.5l-210 622h-75v47q39 -3 142 -3q125 0 161 3v-47h-84l147 -434l104 310l-42 124h-75v47q39 -3 142 -3
q125 0 161 3v-47h-84l147 -434l142 423q-28 11 -89 11v47q41 -3 122 -3q47 0 96 3v-47zM655 841q-5 -27 -40 -43l-142 -60l-26 38l105 116q20 22 43 22q29 0 47 -22t13 -51z" />
    <glyph glyph-name="wacute" unicode="&#x1e83;" horiz-adv-x="722" 
d="M700 397q-40 0 -50.5 -4.5t-15.5 -18.5l-123 -352q-9 -26 -34 -26q-14 0 -21.5 4.5t-13.5 21.5l-82 234l-82 -235q-3 -9 -5.5 -13.5t-9.5 -8t-19 -3.5q-16 0 -22.5 6t-11.5 21l-131 374h-58v47l106 -3l109 3v-47h-42l83 -237l54 155l4 12l-24 70h-46v47q45 -3 90 -3
l112 3v-47h-59l92 -262l84 237l4 15q-22 10 -61 10v47l96 -3q41 0 77 3v-47zM490 644q0 -28 -32 -49l-129 -84l-33 33l84 132q19 30 48 30q24 0 43 -19t19 -43z" />
    <glyph glyph-name="Wdieresis" unicode="&#x1e84;" horiz-adv-x="1033" 
d="M1011 639q-52 0 -65 -4.5t-18 -18.5l-202 -599q-4 -13 -11 -19t-22 -6q-17 0 -23 5.5t-11 20.5l-143 423l-143 -424q-9 -25 -34 -25q-16 0 -22.5 5.5t-10.5 19.5l-210 622h-75v47q39 -3 142 -3q125 0 161 3v-47h-84l147 -434l104 310l-42 124h-75v47q39 -3 142 -3
q125 0 161 3v-47h-84l147 -434l142 423q-28 11 -89 11v47q41 -3 122 -3q47 0 96 3v-47zM435 798q0 -28 -20 -49t-51 -21q-29 0 -49.5 20.5t-20.5 49.5q0 28 20 49t51 21q29 0 49.5 -20.5t20.5 -49.5zM741 798q0 -28 -20 -49t-51 -21q-29 0 -49.5 20.5t-20.5 49.5q0 28 20 49
t51 21q29 0 49.5 -20.5t20.5 -49.5z" />
    <glyph glyph-name="wdieresis" unicode="&#x1e85;" horiz-adv-x="722" 
d="M700 397q-40 0 -50.5 -4.5t-15.5 -18.5l-123 -352q-9 -26 -34 -26q-14 0 -21.5 4.5t-13.5 21.5l-82 234l-82 -235q-3 -9 -5.5 -13.5t-9.5 -8t-19 -3.5q-16 0 -22.5 6t-11.5 21l-131 374h-58v47l106 -3l109 3v-47h-42l83 -237l54 155l4 12l-24 70h-46v47q45 -3 90 -3
l112 3v-47h-59l92 -262l84 237l4 15q-22 10 -61 10v47l96 -3q41 0 77 3v-47zM303 609q0 -28 -20 -49t-51 -21q-29 0 -49.5 20.5t-20.5 49.5q0 28 20 49t51 21q29 0 49.5 -20.5t20.5 -49.5zM561 609q0 -28 -20 -49t-51 -21q-29 0 -49.5 20.5t-20.5 49.5q0 28 20 49t51 21
q29 0 49.5 -20.5t20.5 -49.5z" />
    <glyph glyph-name="Zdotbelow" unicode="&#x1e92;" horiz-adv-x="611" 
d="M560 284l-18 -284h-454q-13 0 -18.5 1t-9.5 6.5t-4 18.5q0 14 7 26l334 587h-94q-41 0 -73 -9t-51.5 -27t-32 -35.5t-18.5 -43.5t-8.5 -41t-3.5 -38h-47l12 241h441q13 0 18.5 -1t9.5 -6.5t4 -17.5t-7 -24l-333 -586h100q30 0 55.5 5t44 12.5t33.5 21t24.5 25t17 31.5
t11.5 33t7 36t4 34.5t2 34.5h47zM384 -122q0 -31 -22.5 -54.5t-56.5 -23.5q-32 0 -55 23t-23 55q0 31 22.5 54.5t56.5 23.5q32 0 55 -23t23 -55z" />
    <glyph glyph-name="zdotbelow" unicode="&#x1e93;" horiz-adv-x="444" 
d="M401 202l-18 -202h-323q-12 0 -17.5 1t-10 6t-4.5 15q0 11 8 22l233 364h-53q-75 0 -98.5 -31t-28.5 -108h-47l12 175h313q12 0 17 -0.5t10 -5.5t5 -15q0 -9 -8 -21l-232 -362h55q36 0 61 8.5t39 20t22.5 35.5t11.5 43.5t6 54.5h47zM300 -122q0 -31 -22.5 -54.5
t-56.5 -23.5q-32 0 -55 23t-23 55q0 31 22.5 54.5t56.5 23.5q32 0 55 -23t23 -55z" />
    <glyph glyph-name="tdieresis" unicode="&#x1e97;" horiz-adv-x="390" 
d="M333 122q0 -51 -26 -89.5t-79 -38.5q-146 0 -146 129v274h-63v36q68 3 98.5 63.5t31.5 138.5h47v-191h121v-47h-121v-279q0 -84 45 -84q21 0 33 24t12 65v54h47v-55zM113 756q0 -28 -20 -49t-51 -21q-29 0 -49.5 20.5t-20.5 49.5q0 28 20 49t51 21q29 0 49.5 -20.5
t20.5 -49.5zM419 756q0 -28 -20 -49t-51 -21q-29 0 -49.5 20.5t-20.5 49.5q0 28 20 49t51 21q29 0 49.5 -20.5t20.5 -49.5z" />
    <glyph glyph-name="Adotbelow" unicode="&#x1ea0;" horiz-adv-x="756" 
d="M720 0q-36 3 -150 3q-127 0 -163 -3v47h83l-47 135h-219l-39 -111l-4 -12q0 -12 78 -12v-47l-118 3l-106 -3v47q38 0 58 2q21 2 26 5.5t9 15.5l212 602q6 18 14 22t24 4q11 0 16 -1t11 -7t10 -18l220 -625h85v-47zM426 229l-93 264l-93 -264h186zM456 -122
q0 -31 -22.5 -54.5t-56.5 -23.5q-32 0 -55 23t-23 55q0 31 22.5 54.5t56.5 23.5q32 0 55 -23t23 -55z" />
    <glyph glyph-name="adotbelow" unicode="&#x1ea1;" horiz-adv-x="486" 
d="M480 24q0 -16 -7 -20t-25 -4h-42q-32 0 -52.5 8t-27.5 22t-9 23t-2 21q-37 -80 -123 -80q-65 0 -117 29t-52 86q0 74 79 114t196 42v36q0 53 -21.5 84.5t-64.5 31.5q-28 0 -59 -6q23 -18 23 -50q0 -30 -19 -46.5t-44 -16.5q-23 0 -42.5 16.5t-19.5 46.5q0 25 14.5 44
t33 27.5t45 13.5t41 6t30.5 1q92 0 144.5 -41t52.5 -112v-216q0 -13 1.5 -19t12.5 -11.5t33 -6.5q7 -1 10.5 -2t7 -6.5t3.5 -14.5zM298 138v95q-14 -1 -27 -3t-39 -10t-44.5 -20t-33 -36t-14.5 -55t17.5 -55t46.5 -24q31 0 62.5 25.5t31.5 82.5zM321 -122q0 -31 -22.5 -54.5
t-56.5 -23.5q-32 0 -55 23t-23 55q0 31 22.5 54.5t56.5 23.5q32 0 55 -23t23 -55z" />
    <glyph glyph-name="Ahookabove" unicode="&#x1ea2;" horiz-adv-x="756" 
d="M720 0q-36 3 -150 3q-127 0 -163 -3v47h83l-47 135h-219l-39 -111l-4 -12q0 -12 78 -12v-47l-118 3l-106 -3v47q38 0 58 2q21 2 26 5.5t9 15.5l212 602q6 18 14 22t24 4q11 0 16 -1t11 -7t10 -18l220 -625h85v-47zM426 229l-93 264l-93 -264h186zM475 869q0 -30 -30 -44
q-60 -27 -60 -55v-17q0 -14 -14 -14t-14 14v16q0 43 30 78q5 5 5 22q0 26 -1 30q-5 6 -20 6t-25 -3q16 -11 16 -33q0 -18 -12 -29.5t-29 -11.5q-16 0 -28 11.5t-12 29.5q0 30 26.5 46.5t63.5 16.5q49 0 74 -14q30 -17 30 -49z" />
    <glyph glyph-name="ahookabove" unicode="&#x1ea3;" horiz-adv-x="486" 
d="M480 24q0 -16 -7 -20t-25 -4h-42q-32 0 -52.5 8t-27.5 22t-9 23t-2 21q-37 -80 -123 -80q-65 0 -117 29t-52 86q0 74 79 114t196 42v36q0 53 -21.5 84.5t-64.5 31.5q-28 0 -59 -6q23 -18 23 -50q0 -30 -19 -46.5t-44 -16.5q-23 0 -42.5 16.5t-19.5 46.5q0 25 14.5 44
t33 27.5t45 13.5t41 6t30.5 1q92 0 144.5 -41t52.5 -112v-216q0 -13 1.5 -19t12.5 -11.5t33 -6.5q7 -1 10.5 -2t7 -6.5t3.5 -14.5zM298 138v95q-14 -1 -27 -3t-39 -10t-44.5 -20t-33 -36t-14.5 -55t17.5 -55t46.5 -24q31 0 62.5 25.5t31.5 82.5zM340 642q0 -30 -30 -44
q-60 -27 -60 -55v-17q0 -14 -14 -14t-14 14v16q0 43 30 78q5 5 5 22q0 26 -1 30q-5 6 -20 6q-14 0 -25 -3q16 -11 16 -33q0 -18 -12 -29.5t-29 -11.5q-16 0 -28 11.5t-12 29.5q0 30 26.5 46.5t63.5 16.5q50 0 74 -14q30 -17 30 -49z" />
    <glyph glyph-name="Acircumflexacute" unicode="&#x1ea4;" horiz-adv-x="756" 
d="M720 0q-36 3 -150 3q-127 0 -163 -3v47h83l-47 135h-219l-39 -111l-4 -12q0 -12 78 -12v-47l-118 3l-106 -3v47q38 0 58 2q21 2 26 5.5t9 15.5l212 602q6 18 14 22t24 4q11 0 16 -1t11 -7t10 -18l220 -625h85v-47zM426 229l-93 264l-93 -264h186zM553 752l-16 -24
l-160 58l-160 -58l-14 24l175 141zM481 1031q-5 -27 -40 -43l-142 -60l-26 38l105 116q20 22 43 22q29 0 47 -22t13 -51z" />
    <glyph glyph-name="acircumflexacute" unicode="&#x1ea5;" horiz-adv-x="486" 
d="M480 24q0 -16 -7 -20t-25 -4h-42q-32 0 -52.5 8t-27.5 22t-9 23t-2 21q-37 -80 -123 -80q-65 0 -117 29t-52 86q0 74 79 114t196 42v36q0 53 -21.5 84.5t-64.5 31.5q-28 0 -59 -6q23 -18 23 -50q0 -30 -19 -46.5t-44 -16.5q-23 0 -42.5 16.5t-19.5 46.5q0 25 14.5 44
t33 27.5t45 13.5t41 6t30.5 1q92 0 144.5 -41t52.5 -112v-216q0 -13 1.5 -19t12.5 -11.5t33 -6.5q7 -1 10.5 -2t7 -6.5t3.5 -14.5zM298 138v95q-14 -1 -27 -3t-39 -10t-44.5 -20t-33 -36t-14.5 -55t17.5 -55t46.5 -24q31 0 62.5 25.5t31.5 82.5zM418 529l-16 -24l-160 58
l-160 -58l-14 24l175 141zM346 808q-5 -27 -40 -43l-142 -60l-26 38l105 116q20 22 43 22q29 0 47 -22t13 -51z" />
    <glyph glyph-name="Acircumflexgrave" unicode="&#x1ea6;" horiz-adv-x="756" 
d="M720 0q-36 3 -150 3q-127 0 -163 -3v47h83l-47 135h-219l-39 -111l-4 -12q0 -12 78 -12v-47l-118 3l-106 -3v47q38 0 58 2q21 2 26 5.5t9 15.5l212 602q6 18 14 22t24 4q11 0 16 -1t11 -7t10 -18l220 -625h85v-47zM426 229l-93 264l-93 -264h186zM553 752l-16 -24
l-160 58l-160 -58l-14 24l175 141zM483 966l-105 116q-20 22 -43 22q-29 0 -47 -22t-13 -51q5 -27 40 -43l142 -60z" />
    <glyph glyph-name="acircumflexgrave" unicode="&#x1ea7;" horiz-adv-x="486" 
d="M480 24q0 -16 -7 -20t-25 -4h-42q-32 0 -52.5 8t-27.5 22t-9 23t-2 21q-37 -80 -123 -80q-65 0 -117 29t-52 86q0 74 79 114t196 42v36q0 53 -21.5 84.5t-64.5 31.5q-28 0 -59 -6q23 -18 23 -50q0 -30 -19 -46.5t-44 -16.5q-23 0 -42.5 16.5t-19.5 46.5q0 25 14.5 44
t33 27.5t45 13.5t41 6t30.5 1q92 0 144.5 -41t52.5 -112v-216q0 -13 1.5 -19t12.5 -11.5t33 -6.5q7 -1 10.5 -2t7 -6.5t3.5 -14.5zM298 138v95q-14 -1 -27 -3t-39 -10t-44.5 -20t-33 -36t-14.5 -55t17.5 -55t46.5 -24q31 0 62.5 25.5t31.5 82.5zM418 529l-16 -24l-160 58
l-160 -58l-14 24l175 141zM348 743l-105 116q-20 22 -43 22q-29 0 -47 -22t-13 -51q5 -27 40 -43l142 -60z" />
    <glyph glyph-name="Acircumflexhookabove" unicode="&#x1ea8;" horiz-adv-x="756" 
d="M720 0q-36 3 -150 3q-127 0 -163 -3v47h83l-47 135h-219l-39 -111l-4 -12q0 -12 78 -12v-47l-118 3l-106 -3v47q38 0 58 2q21 2 26 5.5t9 15.5l212 602q6 18 14 22t24 4q11 0 16 -1t11 -7t10 -18l220 -625h85v-47zM426 229l-93 264l-93 -264h186zM553 752l-16 -24
l-160 58l-160 -58l-14 24l175 141zM572 1038q0 -30 -30 -44q-60 -27 -60 -55v-17q0 -14 -14 -14t-14 14v16q0 43 30 78q5 5 5 22q0 26 -1 30q-5 6 -20 6t-25 -3q16 -11 16 -33q0 -18 -12 -29.5t-29 -11.5q-16 0 -28 11.5t-12 29.5q0 30 26.5 46.5t63.5 16.5q50 0 74 -14
q30 -17 30 -49z" />
    </font>
</defs>
</svg>
