<?xml version="1.0" standalone="no"?>
<!DOCTYPE svg PUBLIC "-//W3C//DTD SVG 1.1//EN" "http://www.w3.org/Graphics/SVG/1.1/DTD/svg11.dtd" >
<svg xmlns="http://www.w3.org/2000/svg" xmlns:xlink="http://www.w3.org/1999/xlink" version="1.1">
<metadata>
Created by FontForge 20170731 at Thu Oct  8 13:57:55 2009
 By Aleksey,,,
Copyright 2003, 2009 B. Jackowski and J. M. Nowacki (on behalf of TeX users groups). This work is released under the GUST Font License --  see http://tug.org/fonts/licenses/GUST-FONT-LICENSE.txt for details.
</metadata>
<defs>
<font id="LMRoman9-Italic" horiz-adv-x="525" >
  <font-face 
    font-family="LM Roman 9"
    font-weight="400"
    font-style="italic"
    font-stretch="normal"
    units-per-em="1000"
    panose-1="0 0 5 0 0 0 0 0 0 0"
    ascent="806"
    descent="-194"
    x-height="442"
    cap-height="683"
    bbox="-469 -292 1419 1127"
    underline-thickness="38"
    underline-position="-207"
    slope="-14.0362"
    unicode-range="U+0020-FB04"
  />
<missing-glyph horiz-adv-x="280" 
 />
    <glyph glyph-name="I_J" unicode="IJ" horiz-adv-x="895" 
d="M341 18q0 -18 -19 -18q-20 0 -61 1.5t-62 1.5q-20 0 -61.5 -1.5t-60.5 -1.5q-14 0 -14 13q0 12 6.5 15t25.5 3q47 0 61 8t20 34l135 540l4 22q0 11 -15 14t-48 3q-10 0 -14.5 0.5t-8 3.5t-3.5 9q0 18 19 18q20 0 61 -1.5t62 -1.5q20 0 61 1.5t60 1.5q15 0 15 -13
q0 -12 -6 -15t-23 -3q-36 0 -52.5 -4.5t-21.5 -11.5t-10 -26l-135 -541q-4 -14 -4 -20q0 -7 2 -10t16.5 -5.5t43.5 -2.5q10 0 14.5 -0.5t8.5 -3.5t4 -9zM987 670q0 -12 -6 -15t-19 -3q-34 0 -44 -7t-16 -33l-118 -473q-17 -66 -77 -113.5t-128 -47.5q-52 0 -86 30t-34 78
q0 25 7.5 41.5t19 22.5t18.5 8t13 2q16 0 27.5 -9.5t11.5 -27.5q0 -2 -0.5 -7t-4.5 -13.5t-10 -16t-18 -13t-29 -5.5q7 -34 31 -49.5t52 -15.5q41 0 79 43t52 99l116 466q4 14 4 20q0 10 -5 13.5t-24 5.5q-20 2 -46 2h-10q-10 0 -14.5 0.5t-8.5 3.5t-4 9q0 18 20 18
q21 0 66 -1.5t67 -1.5q17 0 52.5 1.5t51.5 1.5q14 0 14 -13z" />
    <glyph glyph-name="i_j" unicode="ij" horiz-adv-x="598" 
d="M339 610q0 -26 -20.5 -45t-44.5 -19q-18 0 -31.5 12t-13.5 32q0 26 20.5 45t44.5 19q18 0 31.5 -12t13.5 -32zM658 610q0 -26 -20.5 -45t-44.5 -19q-18 0 -31.5 12t-13.5 32q0 26 20.5 45t44.5 19q18 0 31.5 -12t13.5 -32zM341 143q0 -5 -7.5 -27.5t-22 -52t-42 -52
t-60.5 -22.5t-56 21.5t-23 60.5q0 20 17 65l25 69l35 93q24 66 24 91q0 28 -21 28q-60 0 -93 -124q-2 -6 -3 -8t-3 -5t-5 -3.5t-8 -0.5q-17 0 -17 12q0 6 7.5 28.5t22 51.5t42 51.5t60.5 22.5q34 0 56.5 -23t22.5 -59q0 -21 -20 -72l-34 -94q-5 -13 -31 -81q-17 -48 -17 -71
q0 -28 21 -28q59 0 92 117q5 16 8 20t13 4q17 0 17 -12zM514 -52q-16 -65 -70 -109t-113 -44q-34 0 -58.5 15t-24.5 44q0 23 15.5 37t32.5 14q15 0 24.5 -8.5t9.5 -23.5q0 -32 -31 -45q13 -8 31 -8q42 0 72.5 40.5t42.5 88.5l94 377q7 28 7 51q0 40 -27 40q-31 0 -62 -31
t-56 -93q-2 -5 -3 -7l-2.5 -5t-3.5 -3.5t-4.5 -1t-6.5 -0.5q-17 0 -17 12q0 5 11 28t29.5 52t50 51.5t66.5 22.5q38 0 63.5 -24.5t25.5 -66.5q0 -17 -4 -33z" />
    <glyph glyph-name="f_k" unicode="fk" horiz-adv-x="819" 
d="M839 143q0 -3 -4.5 -19.5t-14 -41t-19.5 -41.5q-33 -52 -79 -52q-37 0 -62.5 26t-25.5 72q0 17 4 34q3 14 3 23q0 36 -29.5 56.5t-74.5 26.5q-51 -209 -56 -218q-12 -20 -34 -20q-14 0 -22 8t-8 20q0 1 4 20l89 363h-227l-61 -317q-55 -288 -165 -288q-33 0 -57.5 17.5
t-24.5 48.5q0 26 15 40t34 14q14 0 24 -9t10 -23q0 -36 -39 -47q14 -16 39 -16q12 0 22 7.5t16.5 23t9.5 25t8 26.5q20 79 28 124l72 374h-63q-10 0 -14.5 0.5t-8.5 3.5t-4 9q0 12 6 15t22 3h68l19 101q19 95 69 134t134 39q126 0 127 -65h1q3 12 4.5 16.5t4.5 17.5
q4 14 8 17t20 3h17q10 0 14.5 -0.5t8 -3t3.5 -8.5q-1 -7 -4 -20l-99 -398q33 15 91 78q31 35 48 51t45.5 32.5t56.5 16.5q29 0 47 -17.5t18 -44.5q0 -28 -15.5 -42t-33.5 -14q-15 0 -24.5 8.5t-9.5 23.5q0 16 11 30.5t32 17.5q-8 13 -27 13q-50 0 -100 -58
q-79 -87 -112 -109q135 -21 135 -105q0 -15 -4 -31q-9 -35 -9 -59q0 -41 29 -41t46.5 32t30.5 86q3 15 6 19t14 4q17 0 17 -12zM518 431l44 177h-1q-13 -23 -41 -23q-14 0 -24 9t-10 23q0 35 34 47q-29 16 -77 16q-93 0 -116 -73q-12 -36 -38 -176h229z" />
    <glyph glyph-name="f_f" unicode="ff" horiz-adv-x="630" 
d="M774 638q0 -24 -15 -38.5t-34 -14.5q-14 0 -24 9t-10 23t9.5 27.5t27.5 19.5q-17 16 -45 16q-27 0 -44 -33q-10 -18 -46 -216h79q10 0 14.5 -0.5t8.5 -3.5t4 -9q0 -12 -6.5 -15t-21.5 -3h-84l-59 -308q-30 -150 -65 -206q-21 -33 -61 -62t-86 -29q-39 0 -69.5 16.5
t-30.5 50.5q0 24 15 38.5t34 14.5q14 0 24 -9t10 -23t-9.5 -27.5t-27.5 -19.5q20 -16 55 -16q36 0 70 38q15 17 22 32.5t17 50.5q16 62 25 110l67 349h-235l-61 -319q-54 -286 -164 -286q-33 0 -58 17.5t-25 48.5q0 26 15 40t34 14q14 0 24 -9t10 -23q0 -36 -39 -47
q14 -16 39 -16q15 0 24.5 8.5t26 55.5t33.5 139l72 377h-63q-10 0 -14.5 0.5t-8.5 3.5t-4 9q0 12 6 15t22 3h68l23 119q5 28 23 64q43 91 160 91q50 0 81 -17.5t31 -49.5q0 -24 -15 -38.5t-34 -14.5q-14 0 -24 9t-10 23t9 26t15.5 16t10.5 5q-26 16 -63 16q-24 0 -45 -8.5
t-30 -17.5l-9 -9q-17 -20 -31 -94l-23 -120h235l22 114q3 16 6.5 30t14 40t24.5 44t38 32t54 14q34 0 62.5 -17t28.5 -50z" />
    <glyph glyph-name="f_i" unicode="fi" horiz-adv-x="577" 
d="M603 143q0 -2 -4 -17.5t-11.5 -39t-15.5 -40.5q-27 -57 -75 -57q-40 0 -64.5 27t-24.5 64l5 34l71 286h-201l-62 -323q-54 -282 -163 -282q-34 0 -58.5 18t-24.5 48q0 26 15 40t34 14q14 0 24 -9t10 -23q0 -36 -39 -47q14 -16 39 -16q33 0 54 75q1 3 2 5q16 60 28 126
l72 374h-63q-10 0 -14.5 0.5t-8.5 3.5t-4 9q0 12 6 15t22 3h68l19 100q9 48 28.5 82t41 51.5t51.5 27t51 11.5t49 2q149 0 149 -74q0 -27 -15.5 -41.5t-33.5 -14.5q-15 0 -24.5 8.5t-9.5 23.5q0 22 13.5 33.5t25.5 14.5q-30 25 -102 25q-104 0 -131 -65q-17 -39 -43 -184
h244q10 0 14 -0.5t7.5 -3t3.5 -8.5q0 -2 -1.5 -6t-1.5 -7l-75 -300q-8 -32 -8 -51q0 -41 26 -41q23 0 38 30t30 88q3 15 6 19t14 4q17 0 17 -12z" />
    <glyph glyph-name="f_l" unicode="fl" horiz-adv-x="603" 
d="M629 143q0 -2 -4 -17.5t-11.5 -39t-15.5 -40.5q-27 -57 -75 -57q-40 0 -64.5 27t-24.5 64l5 34l71 286h-227l-61 -317q-55 -288 -165 -288q-33 0 -57.5 17.5t-24.5 48.5q0 26 15 40t34 14q14 0 24 -9t10 -23q0 -36 -39 -47q14 -16 39 -16q12 0 22 7.5t16.5 23t9.5 25
t8 26.5q20 79 28 124l72 374h-63q-10 0 -14.5 0.5t-8.5 3.5t-4 9q0 12 6 15t22 3h68l19 101q19 95 69 134t134 39q126 0 127 -65h1q3 12 4.5 16.5t4.5 17.5q4 14 8 17t20 3h17q10 0 14.5 -0.5t8 -3t3.5 -8.5q-2 -10 -3 -13l-141 -563q-8 -32 -8 -51q0 -41 26 -41q23 0 38 30
t30 88q3 15 6 19t14 4q17 0 17 -12zM518 431l44 177h-1q-13 -23 -41 -23q-14 0 -24 9t-10 23q0 35 34 47q-29 16 -77 16q-93 0 -116 -73q-12 -36 -38 -176h229z" />
    <glyph glyph-name="f_f_i" unicode="&#xfb00;i" horiz-adv-x="905" 
d="M931 143q0 -2 -4 -17.5t-11.5 -39t-15.5 -40.5q-27 -57 -75 -57q-40 0 -64.5 27t-24.5 64l5 34l71 286h-215l-66 -343q-17 -87 -44 -145q-24 -52 -71 -84.5t-95 -32.5q-42 0 -73.5 16.5t-31.5 50.5q0 24 15 38.5t34 14.5q14 0 24 -9t10 -23q0 -15 -10.5 -28.5
t-25.5 -18.5q10 -7 24.5 -11t24.5 -5h9q35 0 63 27.5t37 47.5q18 44 42 164l65 341h-245l-61 -319q-54 -286 -164 -286q-33 0 -58 17.5t-25 48.5q0 26 15 40t34 14q14 0 24 -9t10 -23q0 -36 -39 -47q14 -16 39 -16q15 0 24.5 8.5t25.5 55.5t34 139l72 377h-63
q-10 0 -14.5 0.5t-8.5 3.5t-4 9q0 12 6 15t22 3h68l19 99q17 91 64.5 133t135.5 42q125 0 125 -67q0 -24 -15 -38.5t-34 -14.5q-14 0 -24 9t-10 23q0 35 34 47q-27 16 -75 16q-29 0 -50 -7t-33.5 -17.5t-22 -30t-14 -36t-9.5 -43.5l-22 -115h245l19 97q9 49 29.5 84
t42.5 52.5t53.5 27.5t52 11.5t50.5 1.5q156 0 156 -74q0 -27 -15.5 -41.5t-33.5 -14.5q-15 0 -24.5 8.5t-9.5 23.5q0 22 13.5 33.5t25.5 14.5q-30 25 -109 25q-81 0 -113 -31t-47 -110l-21 -108h258q10 0 14 -0.5t7.5 -3t3.5 -8.5q0 -2 -1.5 -6t-1.5 -7l-75 -300
q-8 -32 -8 -51q0 -41 26 -41q23 0 38 30t30 88q3 15 6 19t14 4q17 0 17 -12z" />
    <glyph glyph-name="f_f_l" unicode="ffl" horiz-adv-x="918" 
d="M944 143q0 -2 -4 -17.5t-11.5 -39t-15.5 -40.5q-27 -57 -75 -57q-40 0 -64.5 27t-24.5 64l5 34l71 286h-228l-65 -338q-20 -100 -50 -160q-22 -43 -67 -75t-94 -32q-42 0 -73.5 16.5t-31.5 50.5q0 24 15 38.5t34 14.5q14 0 24 -9t10 -23q0 -15 -10.5 -28.5t-25.5 -18.5
q10 -7 24.5 -11t24.5 -5h9q35 0 63 26.5t38 50.5q19 50 43 174l63 329h-245l-61 -319q-55 -286 -164 -286q-33 0 -58 17.5t-25 48.5q0 26 15 40t34 14q14 0 24 -9t10 -23q0 -36 -39 -47q14 -16 39 -16q34 0 56 79q14 55 28 126l72 375h-63q-10 0 -14.5 0.5t-8.5 3.5t-4 9
q0 12 6 15t22 3h68q19 103 30 142.5t31 68.5q46 63 145 63q50 0 81 -17.5t31 -49.5q0 -24 -15 -38.5t-34 -14.5q-14 0 -24 9t-10 23t9 26t15.5 16t10.5 5q-26 16 -63 16q-32 0 -58 -14.5t-33 -32.5q-17 -38 -47 -202h245l19 98q19 97 68.5 136.5t135.5 39.5q126 0 127 -65h1
q3 12 4.5 16.5t4.5 17.5q4 14 8 17t20 3h17q10 0 14.5 -0.5t8 -3t3.5 -8.5q-2 -10 -3 -13l-141 -563q-8 -32 -8 -51q0 -41 26 -41q23 0 38 30t30 88q3 15 6 19t14 4q17 0 17 -12zM833 431l44 177h-1q-13 -23 -41 -23q-14 0 -24 9t-10 23q0 35 34 47q-29 16 -77 16
q-36 0 -60 -8.5t-37.5 -28.5t-19 -36t-12.5 -46q-7 -27 -26 -130h230z" />
    <glyph glyph-name=".notdef" horiz-adv-x="280" 
 />
    <glyph glyph-name=".null" horiz-adv-x="0" 
 />
    <glyph glyph-name="nonmarkingreturn" horiz-adv-x="333" 
 />
    <glyph glyph-name="space" unicode=" " horiz-adv-x="367" 
 />
    <glyph glyph-name="exclam" unicode="!" horiz-adv-x="315" 
d="M374 653l-147 -447q-4 -12 -7.5 -14.5t-12.5 -2.5q-17 0 -17 12q0 3 2 13l75 442q4 24 19 39t26.5 18t20.5 3q21 0 33.5 -13.5t12.5 -28.5q0 -8 -5 -21zM226 64q0 -24 -20 -44t-45 -20q-22 0 -34 13t-12 31q0 24 20 44t45 20q22 0 34 -13t12 -31z" />
    <glyph glyph-name="quotedbl" unicode="&#x22;" horiz-adv-x="417" 
d="M359 671l-79 -248h-34l45 248q3 14 15.5 24t27.5 10q14 0 21.5 -10t3.5 -24zM461 671l-79 -248h-34l45 248q3 14 15.5 24t27.5 10q14 0 21.5 -10t3.5 -24z" />
    <glyph glyph-name="numbersign" unicode="#" horiz-adv-x="840" 
d="M849 352q0 -21 -33 -21h-162l-80 -161h191q33 0 33 -21q0 -22 -37 -22h-210l-152 -302q-9 -19 -23 -19q-8 0 -14.5 6t-6.5 15q0 6 7 20l141 280h-167l-152 -302q-10 -19 -23 -19q-8 0 -14.5 6t-6.5 15q0 6 7 20l141 280h-135q-38 0 -38 22q0 21 33 21h163l80 161h-192
q-33 0 -33 21q0 22 37 22h210l152 301q9 19 23 19q8 0 14.5 -6t6.5 -16q0 -5 -6 -17l-141 -281h166l152 301q10 19 23 19q8 0 14.5 -6t6.5 -16q0 -5 -6 -17l-141 -281h135q37 0 37 -22zM606 331h-167l-80 -161h167z" />
    <glyph glyph-name="dollar" unicode="$" horiz-adv-x="514" 
d="M510 228q-7 -78 -69 -150.5t-168 -87.5q-3 -1 -7 -16l-8 -30h-31l11 46q-71 4 -109.5 45.5t-32.5 109.5q8 84 63 84q17 0 28 -10.5t10 -29.5q-2 -22 -19.5 -37.5t-38.5 -15.5q-7 0 -15 2q0 -58 33 -87q36 -31 89 -31l75 299q-28 7 -40.5 10.5t-31.5 15t-35 28.5
q-39 46 -34 111q7 82 76.5 148t161.5 73l10 45h31l-10 -46q66 -3 107.5 -38.5t35.5 -107.5q-4 -79 -61 -79q-18 0 -28.5 11t-9.5 29q2 23 19.5 38t38.5 15q5 0 13 -2q0 9 -1 17.5t-7.5 25t-18.5 28t-37 21.5t-60 12l-67 -271q18 -4 30.5 -8t36.5 -17t38.5 -30.5t24.5 -48.5
t7 -71zM409 673q-66 -7 -114.5 -51.5t-53.5 -99.5q-7 -88 102 -111zM450 190q8 95 -100 121l-72 -290q68 9 117.5 60t54.5 109z" />
    <glyph glyph-name="percent" unicode="%" horiz-adv-x="840" 
d="M864 728q0 -9 -12 -22l-661 -750q-10 -12 -21 -12q-9 0 -15 6.5t-6 15.5q1 8 2 11l587 666v1q-60 -26 -119 -26q-76 0 -134 41q3 -15 3 -37q0 -98 -58 -186.5t-124 -88.5q-45 0 -72.5 38t-27.5 97q0 97 62 182.5t132 85.5q39 0 64 -35q57 -73 155 -73q50 0 105 23.5
t95 68.5q13 16 24 16q8 0 14.5 -6t6.5 -16zM807 219q0 -99 -58 -187t-124 -88q-45 0 -72.5 38t-27.5 97q0 96 62 182t133 86q39 0 63 -34t24 -94zM455 626q0 8 -1 18.5t-5.5 32t-17 35t-31.5 13.5q-26 0 -54 -29t-47 -78q-13 -33 -25.5 -86t-12.5 -82q0 -7 1 -15.5t4.5 -25
t14.5 -27t27 -10.5q49 0 98 84t49 170zM774 223q0 11 -1.5 23t-6 31.5t-17 32t-30.5 12.5q-25 0 -51 -27t-41 -59q-16 -33 -31 -92.5t-15 -95.5q0 -79 46 -79q49 0 98 84t49 170z" />
    <glyph glyph-name="ampersand" unicode="&#x26;" horiz-adv-x="787" 
d="M750 309q0 -37 -10.5 -78t-37 -87t-65.5 -82t-102.5 -60t-142.5 -24q-119 0 -191.5 57t-72.5 142q0 53 29.5 113t67.5 97q-12 29 -12 68q0 99 68.5 180t147.5 81q46 0 77.5 -30.5t31.5 -85.5q0 -77 -51 -77q-34 0 -34 32q0 16 12 31.5t40 15.5q-1 49 -24 69t-51 20
q-45 0 -81.5 -47t-54 -105t-19.5 -110q51 32 98 32q31 0 48.5 -17.5t17.5 -44.5q0 -34 -29.5 -63t-69.5 -29q-48 0 -84 33q-20 -37 -35.5 -92.5t-15.5 -88.5q0 -78 54.5 -117t133.5 -39q77 0 138 25.5t94.5 61.5t55 80.5t28.5 77.5t7 58q0 74 -53 140q-40 -24 -57.5 -35.5
t-38 -29t-27 -33t-6.5 -36.5q0 -14 3 -22q13 32 46 32q16 0 25 -9.5t9 -22.5q0 -17 -13 -32.5t-37 -15.5q-28 0 -47.5 20t-19.5 53q0 25 10.5 46.5t33 41.5t35.5 29t40 26q27 16 42.5 26.5t37 29t39 43t32.5 56.5q-14 2 -23.5 11t-9.5 22q0 18 14 33t34 15q19 0 27 -11
t8 -21q0 -26 -33.5 -89.5t-94.5 -106.5q58 -77 58 -157zM406 404q0 32 -33 32q-21 0 -43 -13.5t-34.5 -27t-12.5 -17.5t5.5 -14.5t20 -21t32.5 -10.5q29 0 47 23t18 49z" />
    <glyph glyph-name="quotesingle" unicode="'" horiz-adv-x="315" 
d="M359 671l-79 -248h-34l45 248q3 14 15.5 24t27.5 10q14 0 21.5 -10t3.5 -24z" />
    <glyph glyph-name="parenleft" unicode="(" horiz-adv-x="420" 
d="M281 -238q0 -11 -12 -11t-39 39t-45 83q-30 81 -30 180q0 90 27 201t84 220q44 83 104 151t97.5 96.5t45.5 28.5q12 0 12 -11q0 -5 -10 -14q-79 -66 -138.5 -157.5t-90.5 -173t-50 -167.5t-23.5 -133t-4.5 -78q0 -149 67 -241q6 -10 6 -13z" />
    <glyph glyph-name="parenright" unicode=")" horiz-adv-x="420" 
d="M389 448q0 -157 -67.5 -327t-174.5 -277q-95 -93 -116 -93q-12 0 -12 11q0 5 21 23q83 70 145 172.5t92.5 205t44.5 183.5t14 139q0 142 -65 240q-8 9 -8 14q0 11 12 11t38.5 -37.5t43.5 -80.5q32 -81 32 -184z" />
    <glyph glyph-name="asterisk" unicode="*" 
d="M548 448q0 -12 -10.5 -23t-24.5 -11q-9 0 -20 11l-90 86l-26 -157q-6 -35 -35 -35q-9 0 -15.5 5.5t-6.5 14.5l4 16l53 156l-152 -97q-28 0 -28 22q0 18 27 31l148 68l-113 65q-16 9 -16 21q0 11 10.5 22.5t24.5 11.5q8 0 20 -11l91 -86l25 156q6 36 35 36q22 0 22 -20
q0 -4 -5 -17l-52 -155l152 97q28 0 28 -22q0 -19 -25 -31l-149 -68l112 -65q16 -9 16 -21z" />
    <glyph glyph-name="plus" unicode="+" horiz-adv-x="787" 
d="M770 251q0 -22 -34 -22h-263l-66 -266q-6 -27 -24 -27q-9 0 -15.5 6.5t-6.5 15.5l67 271h-252q-35 0 -35 22q0 21 35 21h263l67 268q6 25 23 25q9 0 15.5 -6.5t6.5 -15.5l-67 -271h252q34 0 34 -21z" />
    <glyph glyph-name="comma" unicode="," horiz-adv-x="315" 
d="M228 47q0 -54 -32.5 -113.5t-65.5 -93.5t-44 -34q-9 0 -13 12l2 5q1 2 8 9q91 76 115 180q-16 -12 -38 -12q-20 0 -32.5 12t-12.5 31q0 23 18.5 44t47.5 21q47 0 47 -61z" />
    <glyph glyph-name="hyphen" unicode="-" horiz-adv-x="367" 
d="M338 197q-3 -8 -8.5 -10t-21.5 -2h-193q-29 0 -29 13q0 8 7 33q3 10 7.5 12t20.5 2h198q10 0 14.5 -0.5t8.5 -3.5t4 -9q0 -7 -8 -35z" />
    <glyph glyph-name="period" unicode="." horiz-adv-x="315" 
d="M226 64q0 -23 -20 -43.5t-46 -20.5q-20 0 -32.5 13t-12.5 31q0 23 20 43.5t46 20.5q20 0 32.5 -13t12.5 -31z" />
    <glyph glyph-name="slash" unicode="/" 
d="M628 728q0 -6 -8 -18l-555 -942q-10 -18 -23 -18q-8 0 -14.5 6t-6.5 16q0 6 8 18l555 942q11 18 23 18q8 0 14.5 -6t6.5 -16z" />
    <glyph glyph-name="zero" unicode="0" 
d="M566 493q0 -65 -26.5 -173t-65.5 -183q-42 -81 -100 -120t-117 -39q-45 0 -75 18.5t-42.5 49t-17 54.5t-4.5 50q0 65 26.5 170t53.5 161q12 22 19 35t30.5 45.5t46 52t59 36t75.5 16.5t67 -16t41.5 -35.5t20.5 -48.5t8 -42.5t1 -30.5zM412 153q22 66 56 202t34 191
q0 49 -24 72t-56 23q-80 0 -131 -102q-24 -49 -65 -212.5t-41 -225.5q0 -53 24 -75.5t54 -22.5q95 0 149 150z" />
    <glyph glyph-name="one" unicode="1" 
d="M429 18q0 -18 -20 -18q-22 0 -68 1.5t-69 1.5q-22 0 -67.5 -1.5t-66.5 -1.5q-16 0 -16 13q0 12 7 15t22 3h9q58 0 73.5 8.5t22.5 37.5l117 469q-60 -40 -113 -40q-16 0 -16 13q0 15 17 18q100 9 178 115q10 14 18 14q13 0 13 -14q0 -1 -4 -18l-140 -560q-4 -15 -4 -22
q0 -8 2.5 -11.5t19 -6.5t50.5 -3h9q10 0 14.5 -0.5t8 -3.5t3.5 -9z" />
    <glyph glyph-name="two" unicode="2" 
d="M530 163q0 -8 -10 -35t-28.5 -62t-53 -61.5t-75.5 -26.5t-106 43q-47 33 -82 33t-54 -59q-3 -12 -6 -14.5t-13 -2.5q-17 0 -17 11q1 6 4 17t16.5 42t33 60.5t58 66t86.5 63.5q44 25 74.5 47.5t63.5 57.5t50.5 82t17.5 105q0 59 -27.5 85t-63.5 26q-56 0 -104.5 -48.5
t-72 -104.5t-23.5 -94q0 -33 21 -33q41 0 70 50.5t29 81.5q0 15 -8 32l-4 11q0 5 4 9t9 4q9 0 16.5 -18.5t7.5 -37.5q0 -40 -36 -98.5t-89 -58.5q-23 0 -38 16t-15 49q0 29 17 72.5t45.5 87.5t75 74.5t97.5 30.5q70 0 116.5 -47t46.5 -124q0 -48 -16.5 -86.5t-54.5 -72.5
t-76.5 -58.5t-106.5 -62.5q-100 -55 -151 -138q12 2 19 2q33 0 98 -15q63 -15 98 -15q40 0 72.5 30t48.5 80q3 10 6 13t13 3q17 0 17 -12z" />
    <glyph glyph-name="three" unicode="3" 
d="M492 202q0 -89 -79.5 -156.5t-177.5 -67.5q-65 0 -102 38t-37 91q0 77 52 77q6 0 12.5 -2t14 -10t7.5 -21q0 -6 -2.5 -15t-15 -20.5t-34.5 -11.5q3 -52 33.5 -76.5t70.5 -24.5q36 0 71.5 18t58.5 49q22 29 35.5 70.5t16.5 67.5l2 27q0 84 -80 84h-29q-28 0 -28 12
q0 13 6 16t21 3h25q77 0 125 54q27 31 39.5 76.5t12.5 72.5q0 42 -24 65t-62 23q-72 0 -131 -54t-59 -113q0 -37 25 -37q22 0 41 17.5t19 41.5q0 14 -10 32l-3 8q0 5 4 9t9 4q9 0 17 -17t8 -35q0 -36 -27.5 -60.5t-57.5 -24.5q-28 0 -43.5 19t-15.5 47q0 65 68 126.5
t157 61.5q66 0 107.5 -38t41.5 -98t-44.5 -117t-117.5 -82q33 -15 56.5 -48.5t23.5 -80.5z" />
    <glyph glyph-name="four" unicode="4" 
d="M488 15q0 -12 -35 -21t-61 -9q-14 0 -20 1l-28 -112q-9 -40 -18 -54t-31 -14q-12 0 -20.5 8t-8.5 20q0 6 4 20l37 148l-63 23q-33 11 -73 11q-61 0 -79 -15q-29 -21 -33 -21q-6 0 -10.5 6.5t-4.5 10.5q0 17 41 39q8 4 42 35q106 101 175 241q56 109 81 199l28 101
q9 34 41 34q12 0 20.5 -8t8.5 -20q0 -10 -13.5 -58.5t-54 -141t-94.5 -172.5q-30 -45 -63.5 -85t-52.5 -59t-57 -56q13 1 28 1q41 0 79 -12q8 -2 13.5 -4t18 -7t30.5 -11l40 160q3 15 6.5 23t13 17t24.5 9q12 0 20.5 -8t8.5 -20q0 -8 -10 -45q-2 -6 -11 -43
q-26 -104 -26 -106q0 -4 15 -4q31 0 65 13l12 3q6 0 10.5 -6t4.5 -11z" />
    <glyph glyph-name="five" unicode="5" 
d="M509 263q0 -115 -84 -200t-182 -85q-62 0 -98.5 40.5t-36.5 100.5q0 87 55 87q36 0 36 -34q0 -18 -15 -34.5t-42 -14.5q1 -63 31 -90t70 -27q38 0 77 26t65 72q23 41 38 104.5t15 94.5q0 11 -2 23t-7.5 29.5t-20 28.5t-35.5 11q-81 0 -139 -67q-10 -12 -18 -12
q-14 0 -14 13q0 5 2 13l76 304q4 20 14 20q4 0 16 -7q51 -25 113 -25q61 0 130 27l13 5q11 0 11 -11q0 -10 -26 -32.5t-75 -43.5t-99 -21q-47 0 -81 14l-49 -197q61 45 127 45q61 0 98 -44t37 -113z" />
    <glyph glyph-name="six" unicode="6" 
d="M519 268q0 -111 -80 -200.5t-178 -89.5q-45 0 -75.5 20.5t-43 53.5t-17 58t-4.5 51q0 30 5.5 73.5t28 117.5t58.5 132q52 81 122.5 131.5t142.5 50.5q49 0 75 -22t26 -57q0 -36 -16.5 -50.5t-33.5 -14.5q-19 0 -27 11t-8 21q0 5 1.5 12.5t14 20.5t33.5 15q-9 39 -65 39
q-14 0 -31.5 -3.5t-48 -21.5t-57.5 -47.5t-56.5 -89t-49.5 -138.5q59 85 138 85q35 0 62 -12.5t42.5 -30.5t25 -41t13 -41t3.5 -33zM445 312q0 89 -75 89q-44 0 -80 -31t-57 -78.5t-32.5 -97t-11.5 -91.5q0 -46 20 -71.5t53 -25.5q77 0 129 93q17 30 35.5 106t18.5 107z" />
    <glyph glyph-name="seven" unicode="7" 
d="M639 655q0 -4 -12 -21q-170 -250 -259 -591q-5 -22 -9 -32.5t-16 -21.5t-31 -11q-16 0 -26 9t-10 25q0 8 9 41t34.5 101t61.5 140q37 74 140 241q-22 -10 -45 -10q-14 0 -25 7t-16 13.5t-17 24.5q-14 25 -34 25q-17 0 -37.5 -6t-49.5 -21.5t-61 -51t-58 -86.5
q-6 -10 -18 -10q-17 0 -17 11q0 4 6 16l97 203q5 11 8.5 13.5t12.5 2.5q16 0 16 -11q0 -5 -11 -27l-10 -22q69 60 134 60q27 0 38 -16t14 -50q4 -31 9 -40.5t20 -9.5q23 0 49 19t41 37t36 48q6 9 8.5 10.5t11.5 1.5q16 0 16 -11z" />
    <glyph glyph-name="eight" unicode="8" 
d="M506 206q0 -87 -76 -157.5t-171 -70.5q-69 0 -115 38.5t-46 99.5q0 22 7.5 46t26.5 55.5t59.5 63.5t98.5 58q-45 38 -61 61t-16 65q0 78 66 139.5t147 61.5q59 0 99 -33t40 -86q0 -59 -45.5 -108t-114.5 -80q65 -55 71 -63q30 -43 30 -90zM517 550q0 43 -26 67t-67 24
q-57 0 -105.5 -41t-48.5 -93q0 -36 29 -61l84 -69q58 29 96 75t38 98zM443 168q0 32 -14 50.5t-64 59.5q-49 41 -53 41q-7 0 -31 -15.5t-53.5 -41t-52.5 -66.5t-23 -83q0 -48 30.5 -77.5t78.5 -29.5q69 0 125.5 50t56.5 112z" />
    <glyph glyph-name="nine" unicode="9" 
d="M564 485q0 -74 -26.5 -172.5t-77.5 -171.5q-51 -75 -113.5 -119t-128.5 -44q-54 0 -83 21.5t-29 58.5q0 34 16 49t34 15q19 0 27 -11t8 -21q0 -5 -2 -13t-14 -20.5t-32 -14.5q14 -36 76 -36q81 0 152 101q45 66 79 196q-58 -84 -138 -84q-43 0 -74 18.5t-45.5 46.5
t-20.5 51.5t-6 41.5q0 112 81.5 200.5t180.5 88.5q32 0 57 -10.5t39 -30t23 -38t12 -42.5t4 -35t1 -25zM487 461l9 63q2 16 2 24t-1.5 18t-7 30t-21.5 32.5t-40 12.5q-75 0 -130 -89q-20 -34 -39 -111t-19 -107q0 -38 17 -64q18 -26 58 -26q68 0 114.5 70.5t57.5 146.5z" />
    <glyph glyph-name="colon" unicode=":" horiz-adv-x="315" 
d="M307 387q0 -24 -20.5 -44t-45.5 -20q-19 0 -32 12t-13 32q0 25 20 44.5t46 19.5q21 0 33 -13.5t12 -30.5zM226 64q0 -23 -20 -43.5t-46 -20.5q-20 0 -32.5 13t-12.5 31q0 23 20 43.5t46 20.5q20 0 32.5 -13t12.5 -31z" />
    <glyph glyph-name="semicolon" unicode=";" horiz-adv-x="315" 
d="M307 387q0 -24 -20.5 -44t-45.5 -20q-19 0 -32 12t-13 32q0 25 20 44.5t46 19.5q21 0 33 -13.5t12 -30.5zM223 55q0 -42 -19 -89t-43 -80.5t-46 -56t-29 -22.5q-9 0 -13 11l4 9l9 9q82 74 104 171q-12 -7 -30 -7q-20 0 -32.5 12t-12.5 31q0 23 18.5 44t47.5 21
q42 0 42 -53z" />
    <glyph glyph-name="less" unicode="&#x3c;" horiz-adv-x="799" 
d="M705 -30q-2 -7 -9.5 -14t-18.5 -7q-6 0 -18 7l-496 271q-18 9 -14 24q3 14 26 23l634 272l19 6q21 0 17 -22q-4 -14 -26 -23l-599 -256l472 -259q16 -8 13 -22z" />
    <glyph glyph-name="equal" unicode="=" horiz-adv-x="787" 
d="M796 352q0 -21 -33 -21h-564q-33 0 -33 21q0 22 37 22h556q37 0 37 -22zM745 149q0 -22 -37 -22h-555q-38 0 -38 22q0 21 33 21h564q33 0 33 -21z" />
    <glyph glyph-name="greater" unicode="&#x3e;" horiz-adv-x="799" 
d="M775 251q-4 -15 -26 -24l-634 -272l-20 -6q-11 0 -14.5 7t-1.5 14q4 14 26 24l599 257l-471 256q-17 10 -14 24q2 8 9.5 14.5t16.5 6.5q7 0 19 -7l497 -271q17 -9 14 -23z" />
    <glyph glyph-name="question" unicode="?" 
d="M562 590q0 -94 -96 -170l-57 -44l-93 -71q-27 -24 -27 -59q0 -32 26 -32q22 0 45 18.5t34 49.5q2 9 5 11.5t13 2.5q17 0 17 -12q0 -24 -34 -59.5t-81 -35.5q-33 0 -48 22.5t-15 48.5q0 63 54 105l159 124q32 25 46 57t14 58q0 39 -24.5 63t-62.5 24q-62 0 -114.5 -53
t-79.5 -127q34 -3 34 -32q0 -19 -14.5 -33.5t-33.5 -14.5q-15 0 -24.5 8.5t-9.5 23.5q0 19 16.5 58.5t45.5 84t77.5 77.5t103.5 33t89.5 -36t34.5 -90zM331 64q0 -24 -20 -44t-45 -20q-22 0 -34 13t-12 31q0 24 20 44t45 20q22 0 34 -13t12 -31z" />
    <glyph glyph-name="at" unicode="@" horiz-adv-x="787" 
d="M725 70q0 -7 -10 -12q-158 -69 -317 -69q-118 0 -182 77.5t-64 184.5q0 111 60 217t156.5 171.5t197.5 65.5q105 0 173 -72.5t68 -190.5q0 -41 -11.5 -93t-21 -79.5t-15.5 -39.5q-43 -103 -117 -103q-14 0 -28.5 3.5t-30.5 19t-19 41.5q-64 -64 -137 -64q-62 0 -103 45
t-41 116q0 105 78 192t170 87q42 0 72 -23t45 -61h24q28 0 28 -12q0 -2 -3 -13l-63 -253q-4 -15 -4 -28q0 -16 4 -20.5t13 -4.5q31 0 56.5 38t40 89.5t22 96.5t7.5 68q0 108 -58.5 172t-149.5 64t-179.5 -62t-144 -162.5t-55.5 -205.5q0 -99 55 -167.5t157 -68.5
q132 0 267 60q16 7 34 7q26 0 26 -11zM581 269l40 161q3 13 3 15q0 12 -7 32.5t-29.5 42.5t-55.5 22q-65 0 -124 -86t-59 -184q0 -51 20.5 -85.5t59.5 -34.5q47 0 95 41.5t57 75.5z" />
    <glyph glyph-name="A" unicode="A" horiz-adv-x="763" 
d="M709 18q0 -18 -18 -18q-16 0 -51.5 1.5t-53.5 1.5q-19 0 -56.5 -1.5t-55.5 -1.5q-15 0 -15 13q0 18 26 18q25 0 40.5 6.5t19 12.5t3.5 12l-13 170h-238l-73 -127q-15 -29 -15 -41q0 -30 42 -33q14 0 14 -13q0 -18 -18 -18q-14 0 -45.5 1.5t-47.5 1.5q-22 0 -41 -0.5
t-29 -1.5l-11 -1q-12 0 -12 13q0 16 21 18q13 1 23.5 3.5t26 10.5t32 26t32.5 46l334 579q11 20 30 20q12 0 15.5 -4.5t4.5 -18.5l49 -628q2 -22 10.5 -28t46.5 -6q23 0 23 -13zM533 263l-26 330l-191 -330h217z" />
    <glyph glyph-name="B" unicode="B" horiz-adv-x="723" 
d="M694 218q0 -80 -79 -149t-184 -69h-335q-10 0 -14.5 0.5t-8.5 3.5t-4 9q0 12 6 15t21 3q49 0 62 7.5t20 34.5l135 542q4 14 4 20t-2 9t-15.5 5.5t-40.5 2.5q-10 0 -14.5 0.5t-8.5 3.5t-4 9q0 12 6 15t22 3h316q82 0 128 -40.5t46 -95.5q0 -63 -56.5 -117t-142.5 -73
q64 -8 103.5 -45.5t39.5 -93.5zM663 551q0 41 -23 71t-78 30h-126q-18 0 -25 -1.5t-13 -9t-10 -25.5l-61 -248h144q76 0 134 56t58 127zM606 229q0 59 -31.5 86.5t-80.5 27.5h-174l-70 -280q-4 -14 -4 -29q10 -3 29 -3h134q81 0 139 61t58 137z" />
    <glyph glyph-name="C" unicode="C" horiz-adv-x="735" 
d="M827 680l-61 -242q-3 -12 -6 -15.5t-13 -3.5q-17 0 -17 12q0 2 1 9t2 19.5t1 27.5q0 83 -38 135t-110 52q-59 0 -122 -33t-114 -97q-57 -71 -84.5 -169t-27.5 -164q0 -101 52.5 -151.5t124.5 -50.5q30 0 63.5 11t73 35t75 73t55.5 115q3 8 17 8q17 0 17 -12
q0 -5 -5 -20.5t-17 -41t-27 -46.5q-51 -73 -121 -113t-142 -40q-111 0 -182 75.5t-71 193.5q0 85 37.5 169.5t97 147.5t138 102t155.5 39q104 0 157 -87l75 87q18 0 18 -11q0 -6 -2 -14z" />
    <glyph glyph-name="D" unicode="D" horiz-adv-x="775" 
d="M793 436q0 -109 -56 -210.5t-146 -163.5t-186 -62h-310q-10 0 -14.5 0.5t-8.5 3.5t-4 9q0 12 6 15t21 3q49 0 62 7.5t20 34.5l135 542q4 14 4 20t-2 9t-15.5 5.5t-40.5 2.5q-10 0 -14.5 0.5t-8.5 3.5t-4 9q0 12 6.5 15t21.5 3h316q102 0 160 -71.5t58 -175.5zM711 472
q0 85 -45.5 132.5t-122.5 47.5h-105q-18 0 -25 -1.5t-13 -9t-10 -25.5l-138 -553q-4 -14 -4 -29q10 -3 29 -3h111q67 0 126 33t100 90q46 64 71.5 163t25.5 155z" />
    <glyph glyph-name="E" unicode="E" horiz-adv-x="696" 
d="M704 245q0 -3 -6 -16l-87 -211q-5 -13 -9.5 -15.5t-21.5 -2.5h-487q-10 0 -14.5 0.5t-8.5 3.5t-4 9q0 12 6 15t21 3q49 0 62 7.5t20 34.5l134 538q4 15 4 21q0 7 -2 9.5t-15 5t-41 2.5q-10 0 -14.5 0.5t-8 3.5t-3.5 9q0 12 6.5 15t21.5 3h474q10 0 14.5 -0.5t8.5 -3.5
t4 -10l-23 -188q-2 -14 -4.5 -18.5t-13.5 -4.5q-17 0 -17 15q0 9 3 21l3 54q0 56 -25.5 80t-109.5 24h-132q-26 0 -34 -5t-14 -29l-61 -246h86q59 0 82.5 19t37.5 76q4 15 7 18.5t13 3.5q17 0 17 -13q0 -4 -4 -18l-53 -214q-2 -9 -5 -13.5t-6 -5.5t-9 -1q-16 0 -16 13
q0 4 4 18q6 24 6 44q0 22 -14 32t-62 10h-92l-69 -275q-4 -14 -4 -29q10 -3 29 -3h131q47 0 81 8t58.5 21.5t45 40t34.5 54t34 73.5q12 27 13 27q4 3 12 3q17 0 17 -13z" />
    <glyph glyph-name="F" unicode="F" horiz-adv-x="670" 
d="M722 478q-2 -14 -4.5 -18.5t-13.5 -4.5q-17 0 -17 15l1 12q5 33 5 64q0 54 -23.5 78.5t-106.5 24.5h-124q-26 0 -34 -5t-14 -29l-64 -259h83q56 0 79.5 18.5t37.5 73.5q5 17 8 21t13 4q17 0 17 -13q0 -2 -1.5 -6.5t-1.5 -6.5l-55 -219q-3 -13 -6 -16.5t-13 -3.5
q-16 0 -16 13q0 3 3 15q7 33 7 47q0 23 -13 32.5t-61 9.5h-89l-63 -251q-4 -15 -4 -22q0 -8 2.5 -11.5t19 -6.5t50.5 -3h8q10 0 14.5 -0.5t8.5 -3.5t4 -9q0 -18 -20 -18q-22 0 -67.5 1.5t-68.5 1.5q-20 0 -61.5 -1.5t-60.5 -1.5q-15 0 -15 13q0 12 6 15t21 3q49 0 62 7.5
t20 34.5l134 538q4 15 4 21q0 7 -2 9.5t-15 5t-41 2.5q-10 0 -14.5 0.5t-8 3.5t-3.5 9q0 12 6.5 15t21.5 3h461q10 0 14.5 -0.5t8.5 -3.5t4 -10z" />
    <glyph glyph-name="G" unicode="G" horiz-adv-x="794" 
d="M786 261q0 -18 -16 -18q-31 -1 -41.5 -4t-15.5 -15q-1 -2 -29 -110l-22 -90q-9 -22 -15 -23q-9 0 -21 20t-18 37q-74 -80 -203 -80q-113 0 -183.5 76t-70.5 193q0 113 62 220t162 172.5t204 65.5t156 -87l75 87q18 0 18 -11q0 -7 -2 -13l-61 -243q-3 -12 -6 -15.5
t-13 -3.5q-17 0 -17 12q0 2 1 9t2 19.5t1 27.5q0 82 -37.5 134.5t-110.5 52.5q-49 0 -108.5 -26.5t-115.5 -90.5q-63 -73 -93 -176t-30 -169q0 -99 52.5 -151t128.5 -52q31 0 65.5 8.5t72.5 37t49 73.5q23 86 23 95q0 10 -5 13t-24 5q-18 2 -43 2h-9q-10 0 -14.5 0.5
t-8.5 3.5t-4 9q0 18 20 18q21 0 64.5 -1.5t65.5 -1.5q17 0 51 1.5t50 1.5q14 0 14 -13z" />
    <glyph glyph-name="H" unicode="H" horiz-adv-x="763" 
d="M703 18q0 -18 -19 -18t-58.5 1.5t-59.5 1.5t-59 -1.5t-58 -1.5q-15 0 -15 13q0 12 6 15t21 3q49 0 62 7.5t20 34.5l66 267h-287l-67 -271q-4 -15 -4 -21q0 -7 2 -9.5t15 -5t41 -2.5q10 0 14.5 -0.5t8 -3.5t3.5 -9q0 -18 -19 -18t-58.5 1.5t-59.5 1.5t-59 -1.5t-58 -1.5
q-15 0 -15 13q0 12 6 15t21 3q49 0 62 7.5t20 34.5l135 542q4 14 4 20t-2 9t-15.5 5.5t-40.5 2.5q-10 0 -14.5 0.5t-8.5 3.5t-4 9q0 18 19 18t59 -1.5t60 -1.5t59 1.5t58 1.5q14 0 14 -13q0 -12 -6.5 -15t-22.5 -3q-47 0 -60 -7.5t-19 -33.5l-60 -240h287l61 244q4 14 4 20
t-2 9t-15.5 5.5t-40.5 2.5q-10 0 -14.5 0.5t-8.5 3.5t-4 9q0 18 19 18t59 -1.5t60 -1.5t59 1.5t58 1.5q14 0 14 -13q0 -12 -6 -15t-22 -3q-48 0 -61 -8t-20 -36l-134 -536q-4 -16 -4 -24q0 -7 2 -9.5t15 -5t41 -2.5q10 0 14.5 -0.5t8 -3.5t3.5 -9z" />
    <glyph glyph-name="I" unicode="I" horiz-adv-x="396" 
d="M341 18q0 -18 -19 -18q-20 0 -61 1.5t-62 1.5q-20 0 -61.5 -1.5t-60.5 -1.5q-14 0 -14 13q0 12 6.5 15t25.5 3q47 0 61 8t20 34l135 540l4 22q0 11 -15 14t-48 3q-10 0 -14.5 0.5t-8 3.5t-3.5 9q0 18 19 18q20 0 61 -1.5t62 -1.5q20 0 61 1.5t60 1.5q15 0 15 -13
q0 -12 -6 -15t-23 -3q-36 0 -52.5 -4.5t-21.5 -11.5t-10 -26l-135 -541q-4 -14 -4 -20q0 -7 2 -10t16.5 -5.5t43.5 -2.5q10 0 14.5 -0.5t8.5 -3.5t4 -9z" />
    <glyph glyph-name="J" unicode="J" horiz-adv-x="539" 
d="M631 670q0 -12 -6 -15t-19 -3q-34 0 -44 -7t-16 -33l-118 -473q-17 -66 -77 -113.5t-128 -47.5q-52 0 -86 30t-34 78q0 25 7.5 41.5t19 22.5t18.5 8t13 2q16 0 27.5 -9.5t11.5 -27.5q0 -2 -0.5 -7t-4.5 -13.5t-10 -16t-18 -13t-29 -5.5q7 -34 31 -49.5t52 -15.5
q41 0 79 43t52 99l116 466q4 14 4 20q0 10 -5 13.5t-24 5.5q-20 2 -46 2h-10q-10 0 -14.5 0.5t-8.5 3.5t-4 9q0 18 20 18q21 0 66 -1.5t67 -1.5q17 0 52.5 1.5t51.5 1.5q14 0 14 -13z" />
    <glyph glyph-name="K" unicode="K" horiz-adv-x="789" 
d="M727 18q0 -18 -18 -18q-14 0 -45 1.5t-46 1.5q-18 0 -54.5 -1.5t-53.5 -1.5q-6 0 -9.5 3t-4.5 7v3q0 18 20 18q49 0 49 31q0 7 -6 21l-113 281l-148 -120l-34 -140q-13 -47 -13 -56q0 -7 2 -9.5t15 -5t41 -2.5q10 0 14.5 -0.5t8 -3.5t3.5 -9q0 -18 -19 -18t-58.5 1.5
t-59.5 1.5t-59 -1.5t-58 -1.5q-15 0 -15 13q0 12 6 15t21 3q49 0 62 7.5t20 34.5l135 542q4 14 4 20t-2 9t-15.5 5.5t-40.5 2.5q-10 0 -14.5 0.5t-8.5 3.5t-4 9q0 18 19 18t59 -1.5t60 -1.5t59 1.5t58 1.5q14 0 14 -13q0 -12 -6.5 -15t-22.5 -3q-47 0 -60 -7.5t-19 -33.5
l-79 -318l362 292q5 5 9 8q2 4 6 6q20 20 20 34q0 17 -24 19q-15 0 -15 13q0 18 19 18q16 0 51 -1.5t53 -1.5q20 0 34.5 0.5t20.5 1t10.5 1t6.5 0.5q13 0 13 -13q0 -16 -19 -18q-64 -6 -160 -85l-188 -152l138 -343q9 -24 20.5 -32t38.5 -9q20 0 20 -13z" />
    <glyph glyph-name="L" unicode="L" horiz-adv-x="644" 
d="M639 245q0 -4 -5 -17l-76 -209q-5 -14 -9.5 -16.5t-20.5 -2.5h-435q-10 0 -14.5 0.5t-8.5 3.5t-4 9q0 12 6 15t21 3q49 0 62 7.5t20 34.5l135 542q4 14 4 20t-2 9t-15.5 5.5t-40.5 2.5q-10 0 -14.5 0.5t-8.5 3.5t-4 9q0 18 19 18q20 0 61.5 -1.5t62.5 -1.5q23 0 67.5 1.5
t66.5 1.5q16 0 16 -13q0 -12 -6 -15t-22 -3h-9q-57 0 -73 -8.5t-23 -36.5l-136 -544q-4 -14 -4 -29q10 -3 29 -3h88q46 0 83 14t59 31.5t42.5 51t29 53t22.5 57.5q7 17 12 19q3 1 8 1q17 0 17 -13z" />
    <glyph glyph-name="M" unicode="M" horiz-adv-x="920" 
d="M855 18q0 -18 -19 -18q-18 0 -56.5 1.5t-57.5 1.5t-56.5 -1.5t-55.5 -1.5q-15 0 -15 13q0 12 6 15t21 3q49 0 62 7.5t20 34.5l140 562h-1l-375 -616q-13 -19 -26 -19q-11 0 -14 5t-5 20l-66 602h-1l-132 -528q-4 -16 -4 -26q0 -11 3 -19t17 -15t39 -8q18 0 18 -13
q0 -18 -18 -18q-15 0 -48.5 1.5t-49.5 1.5t-48.5 -1.5t-47.5 -1.5q-14 0 -14 13q0 18 16 18q24 1 40 4.5t34.5 20t25.5 46.5l128 513q4 14 4 20t-2 9t-15.5 5.5t-40.5 2.5q-10 0 -14.5 0.5t-8.5 3.5t-4 9q0 12 6 15t22 3h130q19 0 23.5 -3.5t6.5 -21.5l61 -563l347 569
q9 14 14.5 16.5t23.5 2.5h124q10 0 14.5 -0.5t8 -3.5t3.5 -9q0 -12 -6 -15t-22 -3q-48 0 -61 -8t-20 -36l-134 -536q-4 -16 -4 -24q0 -7 2 -9.5t15 -5t41 -2.5q10 0 14.5 -0.5t8 -3.5t3.5 -9z" />
    <glyph glyph-name="N" unicode="N" horiz-adv-x="763" 
d="M866 670q0 -18 -19 -18q-38 -2 -62.5 -17.5t-35.5 -57.5l-139 -557q-3 -13 -6 -16.5t-14 -3.5t-13.5 2.5t-7.5 14.5l-222 592l-128 -510q-4 -16 -4 -26q0 -11 3 -19t17 -15t39 -8q18 0 18 -13q0 -18 -18 -18q-15 0 -48.5 1.5t-49.5 1.5t-48.5 -1.5t-47.5 -1.5
q-14 0 -14 13q0 18 16 18q24 1 40 4.5t34.5 20t25.5 46.5l132 529l3 13q0 8 -57 8q-13 0 -18 0.5t-9 3.5t-4 9q0 12 6.5 15t21.5 3h120q16 0 20.5 -2.5t9.5 -16.5l196 -523l112 451q3 10 3 18q0 40 -58 42q-20 0 -20 13q0 18 18 18q15 0 48.5 -1.5t50.5 -1.5q16 0 48.5 1.5
t47.5 1.5q13 0 13 -13z" />
    <glyph glyph-name="O" unicode="O" horiz-adv-x="787" 
d="M806 441q0 -115 -61 -223t-158.5 -174t-198.5 -66q-104 0 -171 71.5t-67 189.5q0 114 61 223t159 176t199 67q105 0 171 -73.5t66 -190.5zM721 479q0 98 -46.5 148t-112.5 50q-55 0 -112.5 -34t-102.5 -94q-56 -75 -81.5 -170.5t-25.5 -165.5q0 -104 45.5 -154.5
t109.5 -50.5q89 0 166 78t118.5 186t41.5 207z" />
    <glyph glyph-name="P" unicode="P" horiz-adv-x="696" 
d="M746 534q0 -83 -83 -151.5t-192 -68.5h-153l-61 -245q-4 -15 -4 -21q0 -7 2 -9.5t15 -5t41 -2.5q10 0 14.5 -0.5t8 -3.5t3.5 -9q0 -18 -19 -18t-58.5 1.5t-59.5 1.5t-59 -1.5t-58 -1.5q-15 0 -15 13q0 12 6 15t21 3q49 0 62 7.5t20 34.5l135 542q4 14 4 20t-2 9
t-15.5 5.5t-40.5 2.5q-10 0 -14.5 0.5t-8.5 3.5t-4 9q0 12 6.5 15t21.5 3h304q84 0 133.5 -42.5t49.5 -106.5zM658 559q0 93 -126 93h-94q-18 0 -25 -1.5t-13 -9t-10 -25.5l-68 -274h133q41 0 76 12t48.5 23t22.5 21q22 25 36 65t17 63t3 33z" />
    <glyph glyph-name="Q" unicode="Q" horiz-adv-x="787" 
d="M713 0q0 -4 -5 -22.5t-18 -48t-30.5 -57t-46 -47t-61.5 -19.5q-81 0 -81 98q0 24 8 88q-49 -14 -91 -14q-104 0 -171 71.5t-67 189.5q0 114 61 223t159 176t199 67q105 0 171 -73.5t66 -190.5q0 -124 -77.5 -249.5t-214.5 -186.5q3 -63 17.5 -84.5t43.5 -21.5
q37 0 68 28.5t44 68.5q4 16 13 16q13 0 13 -12zM721 472q0 105 -47.5 155t-111.5 50q-58 0 -119 -38.5t-109 -109.5q-51 -75 -75.5 -167.5t-24.5 -153.5q0 -56 21.5 -110t77.5 -79q-4 8 -4 26q0 40 30.5 72t68.5 32q76 0 84 -106q59 37 103 98t65.5 125t31 115.5t9.5 90.5z
M483 27q0 22 -0.5 32.5t-3 25.5t-8 22t-16 12t-26.5 5q-30 0 -52.5 -24.5t-22.5 -54.5q0 -39 41 -39q46 0 88 21z" />
    <glyph glyph-name="R" unicode="R" horiz-adv-x="749" 
d="M742 95q0 -6 -6.5 -23t-19 -39t-37 -38.5t-54.5 -16.5q-10 0 -20.5 1t-30.5 7t-34.5 16.5t-26 32t-11.5 50.5q0 27 25 120q5 19 5 36q0 33 -21.5 60.5t-77.5 27.5h-114l-65 -260q-4 -15 -4 -21q0 -7 2 -9.5t15 -5t41 -2.5q10 0 14.5 -0.5t8 -3.5t3.5 -9q0 -18 -19 -18
q-18 0 -57.5 1.5t-59.5 1.5q-19 0 -58 -1.5t-57 -1.5q-15 0 -15 13q0 12 6 15t21 3q49 0 62 7.5t20 34.5l135 542q4 14 4 20t-2 9t-15.5 5.5t-40.5 2.5q-10 0 -14.5 0.5t-8.5 3.5t-4 9q0 12 6.5 15t21.5 3h268q91 0 149 -43t58 -106q0 -64 -61.5 -119.5t-147.5 -75.5
q84 -37 84 -117q0 -28 -8 -87q-6 -45 -6 -75q0 -31 8 -44t26 -13q23 0 44 22.5t35 66.5q2 9 5.5 12t12.5 3q16 0 16 -12zM644 555q0 50 -38 75q-36 22 -99 22h-69q-18 0 -25 -1.5t-13 -9t-10 -25.5l-65 -262h107q90 0 149 47q30 25 46.5 71.5t16.5 82.5z" />
    <glyph glyph-name="S" unicode="S" horiz-adv-x="577" 
d="M550 234q0 -97 -74 -176.5t-167 -79.5q-109 0 -159 70q-13 -19 -46 -58q-9 -12 -16 -12q-13 0 -13 12q2 10 3 13l51 204q3 13 6.5 16.5t13.5 3.5q17 0 17 -12l-1 -5q-8 -43 -8 -61q0 -73 44.5 -106.5t109.5 -33.5q66 0 120 59t54 131q0 80 -65 99l-121 33
q-10 3 -21.5 9.5t-31.5 21.5t-32.5 43.5t-12.5 64.5q0 88 72 161.5t164 73.5t133 -68l46 57q9 11 16 11q5 0 8 -2.5t4 -5.5v-3q0 -7 -2 -13l-51 -205q-2 -9 -5 -13.5t-6 -5.5t-9 -1q-17 0 -17 13q0 3 2 11q4 31 4 54q0 143 -125 143q-65 0 -117 -53.5t-52 -117.5
q0 -33 16 -57.5t45 -34.5q1 0 6.5 -1.5t19.5 -5.5t38 -11q65 -18 85.5 -27t39.5 -31q34 -41 34 -104z" />
    <glyph glyph-name="T" unicode="T" horiz-adv-x="735" 
d="M792 473q-2 -14 -6 -17.5t-13 -3.5q-17 0 -17 13q0 5 4 25q8 64 8 80q0 49 -27 62.5t-104 13.5q-47 0 -54 -2q-8 -1 -13 -7t-10 -26l-134 -538q-4 -14 -4 -20q0 -11 6 -14t25 -6q30 -2 50 -2h15q10 0 14.5 -0.5t8 -3.5t3.5 -9q0 -18 -21 -18q-25 0 -77 1.5t-78 1.5
t-77.5 -1.5t-76.5 -1.5q-17 0 -17 13q0 12 7 15t22 3h14q64 0 81.5 9t24.5 37l134 538q4 15 4 28q-16 3 -58 3q-54 0 -82.5 -5t-53 -23.5t-39 -48t-34.5 -86.5q-10 -27 -12 -28q-3 -3 -12 -3q-16 0 -16 13l4 14l60 180q4 13 8.5 15.5t21.5 2.5h524q15 0 21 -2t6 -12l-2 -12z
" />
    <glyph glyph-name="U" unicode="U" horiz-adv-x="763" 
d="M866 670q0 -18 -19 -18q-18 -1 -31 -4t-27 -10t-24 -22.5t-16 -38.5l-88 -356q-23 -94 -101.5 -168.5t-170.5 -74.5q-78 0 -130.5 52t-52.5 137q0 29 9 67l95 381q4 14 4 20t-2 9t-15.5 5.5t-40.5 2.5q-10 0 -14.5 0.5t-8.5 3.5t-4 9q0 18 19 18t59 -1.5t60 -1.5t59 1.5
t58 1.5q14 0 14 -13q0 -12 -6.5 -15t-22.5 -3q-46 0 -59.5 -7.5t-19.5 -33.5l-99 -397q-10 -36 -10 -77q0 -66 32.5 -97t78.5 -31q75 0 144.5 64.5t91.5 155.5l90 363q3 10 3 18q0 40 -58 42q-20 0 -20 13q0 18 18 18q15 0 48 -1.5t49 -1.5t48 1.5t47 1.5q13 0 13 -13z" />
    <glyph glyph-name="V" unicode="V" horiz-adv-x="763" 
d="M885 670q0 -11 -5 -14t-15 -4q-32 -3 -58 -20.5t-54 -63.5l-348 -571q-12 -19 -29 -19q-13 0 -16 4.5t-5 20.5l-68 618q-1 14 -3.5 19t-13.5 8.5t-36 3.5q-23 0 -23 13q0 18 18 18q16 0 50 -1.5t51 -1.5q19 0 56.5 1.5t55.5 1.5q15 0 15 -13q0 -18 -26 -18
q-22 0 -35.5 -3.5t-19 -10.5t-6.5 -13.5t0 -16.5l57 -516l297 487q16 25 16 42q0 26 -41 31q-14 0 -14 13q0 18 18 18q14 0 45.5 -1.5t46.5 -1.5q22 0 40 1t27 1l10 1q13 0 13 -13z" />
    <glyph glyph-name="W" unicode="W" horiz-adv-x="1025" 
d="M1148 670q0 -17 -14 -18q-35 -3 -58 -20t-51 -67l-313 -568q-10 -19 -29 -19q-13 0 -15.5 5t-3.5 22l-26 500l-280 -508q-10 -19 -28 -19q-13 0 -15.5 4.5t-3.5 20.5l-32 615q-1 22 -8 28t-38 6q-23 0 -23 13q0 18 18 18q15 0 48.5 -1.5t49.5 -1.5q18 0 55 1.5t54 1.5
q15 0 15 -13q0 -12 -6 -15t-19 -3q-24 0 -38.5 -4.5t-19.5 -13t-6.5 -14.5t-0.5 -16l26 -493l243 441q6 11 6 20q0 39 -4 63q-2 7 -4.5 10t-12.5 5t-29 2q-22 0 -22 13q0 18 19 18q15 0 48 -1.5t49 -1.5q18 0 55.5 1.5t54.5 1.5q14 0 14 -13q0 -18 -23 -18q-32 0 -48 -9
t-18 -17t-1 -20l26 -495l257 467q14 25 14 37q0 32 -52 37q-15 0 -15 13q0 18 19 18q15 0 48 -1.5t49 -1.5q23 0 40.5 1t26 1.5t9.5 0.5q13 0 13 -13z" />
    <glyph glyph-name="X" unicode="X" horiz-adv-x="763" 
d="M717 18q0 -18 -18 -18q-16 0 -51.5 1.5t-52.5 1.5q-19 0 -56.5 -1.5t-55.5 -1.5q-15 0 -15 13q0 8 3.5 12t6 4.5t9.5 1.5q21 1 36.5 11t15.5 19q0 6 -3 12l-95 239l-190 -211q-23 -23 -23 -42q0 -11 7.5 -18t14 -8.5t11.5 -1.5q13 -1 13 -13q0 -18 -19 -18q-16 0 -50 1.5
t-51 1.5q-15 0 -44.5 -1.5t-42.5 -1.5q-14 0 -14 13q0 11 5 14t16 4q79 6 150 85l204 227l-111 280q-4 11 -8 16t-17 9t-38 4t-25 13q0 18 18 18q16 0 51.5 -1.5t52.5 -1.5q19 0 56.5 1.5t55.5 1.5q15 0 15 -13q0 -8 -3.5 -12t-6 -4.5t-9.5 -1.5q-22 -2 -37.5 -12t-15.5 -18
l4 -12l79 -199l153 170q23 23 23 43q0 23 -32 28q-14 0 -14 13q0 18 19 18q16 0 50 -1.5t51 -1.5q15 0 45 1.5t43 1.5t13 -13q0 -11 -5 -14t-17 -4q-77 -5 -137 -75q-6 -4 -12 -10l-167 -187l127 -320q4 -11 8 -16t17 -9t38 -4t25 -13z" />
    <glyph glyph-name="Y" unicode="Y" horiz-adv-x="763" 
d="M891 670q0 -16 -20 -18q-69 -7 -128 -77l-255 -303q-9 -37 -20.5 -82.5t-22.5 -90.5q-11 -44 -11 -50q0 -7 2 -10t15 -5.5t41 -2.5q10 0 14.5 -0.5t8 -3.5t3.5 -9q0 -18 -19 -18q-18 0 -57.5 1.5t-59.5 1.5q-19 0 -58 -1.5t-57 -1.5q-15 0 -15 13q0 12 6 15t20 3
q54 1 65.5 9t21.5 50q46 175 46 183q-4 12 -5 14l-115 336q-6 17 -17 23t-46 6q-23 0 -23 13q0 18 18 18q16 0 51.5 -1.5t52.5 -1.5q19 0 57.5 1.5t56.5 1.5q14 0 14 -13q0 -18 -23 -18q-53 0 -53 -23q0 -4 5 -17l102 -295l222 264q7 7 17 22.5t10 27.5q0 19 -28 21
q-17 0 -17 13q0 18 18 18q47 -3 92 -3q23 0 41 1t27.5 1.5t10.5 0.5q12 0 12 -13z" />
    <glyph glyph-name="Z" unicode="Z" horiz-adv-x="630" 
d="M616 241l-70 -222q-4 -14 -8 -16.5t-22 -2.5h-411q-15 0 -19.5 1.5t-4.5 9.5q0 12 12 26l530 615h-147q-55 0 -94.5 -12.5t-65 -38t-40.5 -53t-29 -69.5q-3 -8 -4 -11t-3.5 -6t-5 -3.5t-7.5 -0.5q-17 0 -17 13q0 7 4 18l53 174q5 14 9 17t21 3h398q24 0 24 -10t-12 -24
l-528 -615h153q60 0 102 13.5t69.5 43t43 61t32.5 84.5q8 24 12 28q3 3 12 3q16 0 16 -13q0 -3 -3 -13z" />
    <glyph glyph-name="bracketleft" unicode="[" horiz-adv-x="315" 
d="M213 -220q0 -14 -5 -21t-10 -8t-16 -1h-79q-15 0 -21 2t-6 12q0 1 4 18l237 948q4 15 7.5 17.5t21.5 2.5h79q15 0 21 -2t6 -12q0 -14 -5 -20.5t-10 -7.5t-16 -1h-66l-228 -914h59q10 0 14.5 -0.5t8.5 -3.5t4 -9z" />
    <glyph glyph-name="backslash" unicode="\" horiz-adv-x="514" 
d="M399 -228q-6 -22 -26 -22q-17 0 -19 23l-114 938q-2 15 -1 17q6 22 27 22q16 0 18 -23l114 -938q2 -15 1 -17z" />
    <glyph glyph-name="bracketright" unicode="]" horiz-adv-x="315" 
d="M122 -230q-4 -15 -8 -17.5t-21 -2.5h-79q-15 0 -21 2t-6 12q0 14 5 20.5t10 7.5t16 1h66l228 914h-59q-10 0 -14.5 0.5t-8.5 3.5t-4 9q0 14 5 21t10 8t16 1h79q15 0 21 -2t6 -12q0 -1 -4 -18z" />
    <glyph glyph-name="asciicircum" unicode="^" horiz-adv-x="556" 
d="M707 584l-17 -22l-242 123l-301 -123l-6 22l323 160z" />
    <glyph glyph-name="underscore" unicode="_" horiz-adv-x="763" 
d="M749 -125q-6 -17 -21 -17h-763q-7 0 -11 5t-2 12q4 17 21 17h763q7 0 11 -5t2 -12z" />
    <glyph glyph-name="grave" unicode="`" 
d="M453 522q-3 -6 -11.5 -12t-14.5 -6l-11 6l-102 121q-14 16 -5 35q15 30 46 30q14 0 22 -17l73 -141q5 -10 3 -16z" />
    <glyph glyph-name="a" unicode="a" 
d="M541 143q0 -2 -4 -17.5t-11.5 -39t-15.5 -40.5q-27 -57 -75 -57q-31 0 -55 18.5t-32 50.5q-62 -69 -123 -69q-52 0 -88.5 42t-36.5 115q0 112 74 204t159 92q58 0 86 -56q8 36 41 36q12 0 20.5 -8t8.5 -20q0 -6 -4 -20l-67 -268q-8 -32 -8 -51q0 -41 26 -41q23 0 38 30
t30 88q3 15 6 19t14 4q17 0 17 -12zM354 125l46 185q3 10 3 16t-2.5 18t-9 30t-22 30.5t-36.5 12.5q-32 0 -65 -33t-53 -82q-13 -34 -29 -99t-16 -100q0 -10 1.5 -21t6.5 -28.5t18 -28.5t32 -11q37 0 77.5 40.5t48.5 70.5z" />
    <glyph glyph-name="b" unicode="b" horiz-adv-x="472" 
d="M469 285q0 -110 -73.5 -203t-159.5 -93q-56 0 -88.5 44.5t-32.5 110.5q0 34 9 70l100 399q4 14 4 22q0 6 -1.5 9t-12.5 5.5t-33 2.5h-11.5t-8 1.5t-6 4t-1.5 7.5q0 12 5.5 15t19.5 4l104 9q26 3 26 -13q0 -1 -0.5 -2.5t-1.5 -5.5t-2 -10l-67 -270q57 50 106 50
q54 0 89.5 -43t35.5 -114zM354 130q12 28 28.5 95.5t16.5 102.5q0 8 -1 17.5t-5.5 28.5t-17.5 31t-33 12q-60 0 -120 -94q-4 -5 -17 -59q-29 -122 -29 -155q0 -36 14 -65.5t46 -29.5q29 0 61.5 29t56.5 87z" />
    <glyph glyph-name="c" unicode="c" horiz-adv-x="472" 
d="M482 101q-29 -48 -90 -80t-128 -32q-72 0 -112.5 48t-40.5 118q0 108 81 197.5t177 89.5q50 0 80.5 -25t30.5 -61q0 -30 -16 -45t-34 -15q-6 0 -12.5 2t-14 10t-7.5 21q0 6 2 13.5t13 19.5t31 14q-18 41 -72 41q-36 0 -71.5 -26.5t-58.5 -66.5q-25 -44 -40.5 -107
t-15.5 -99q0 -49 21.5 -76.5t59.5 -27.5q42 0 93.5 23t90.5 72q9 11 14 11q13 0 19 -19z" />
    <glyph glyph-name="d" unicode="d" 
d="M551 143q0 -2 -4 -17.5t-11.5 -39t-15.5 -40.5q-27 -57 -75 -57q-31 0 -55 18.5t-32 50.5q-62 -69 -123 -69q-52 0 -88.5 42t-36.5 115q0 112 74 204t159 92q58 0 86 -56l57 227q4 14 4 22q0 6 -1.5 9t-12.5 5.5t-33 2.5h-11.5t-8 1.5t-6 4t-1.5 7.5q0 12 5.5 15t19.5 4
l104 9q26 3 26 -13q0 -1 -4 -18l-139 -556q-8 -32 -8 -51q0 -41 26 -41q23 0 38 30t30 88q3 15 6 19t14 4q17 0 17 -12zM364 125l46 185q3 10 3 16t-2.5 18t-9 30t-22 30.5t-36.5 12.5q-32 0 -65 -33t-53 -82q-13 -34 -29 -99t-16 -100q0 -10 1.5 -21t6.5 -28.5t18 -28.5
t32 -11q37 0 77.5 40.5t48.5 70.5z" />
    <glyph glyph-name="e" unicode="e" horiz-adv-x="472" 
d="M482 101q-29 -48 -90 -80t-128 -32q-65 0 -106.5 48t-41.5 130q0 65 25 119t63 87t81 51t83 18q49 0 77.5 -25t28.5 -61q0 -15 -4.5 -31t-23.5 -38.5t-51 -35.5q-57 -22 -163 -22h-29q-16 -64 -16 -104q0 -16 3 -32.5t10.5 -35.5t24 -31t40.5 -12q42 0 93.5 23t90.5 72
q9 11 14 11q13 0 19 -19zM433 357q0 25 -17 42.5t-48 17.5q-8 0 -17.5 -1.5t-31 -10.5t-39.5 -24.5t-38 -48.5t-33 -78q30 0 49.5 0.5t56 6t59.5 15.5t41 31t18 50z" />
    <glyph glyph-name="f" unicode="f" horiz-adv-x="315" 
d="M459 639q0 -26 -15 -40t-34 -14q-14 0 -24 9t-10 23q0 36 39 47q-7 7 -17.5 11t-17.5 5h-6q-12 0 -21.5 -7t-16 -22.5t-9.5 -27t-8 -34.5l-30 -158h79q10 0 14.5 -0.5t8.5 -3.5t4 -9q0 -12 -6.5 -15t-21.5 -3h-84l-63 -327q-54 -278 -163 -278q-33 0 -57.5 17.5
t-24.5 48.5q0 26 15 40t34 14q14 0 24 -9t10 -23q0 -36 -39 -47q14 -16 39 -16q35 0 56 81q17 64 30 135l70 364h-63q-10 0 -14.5 0.5t-8.5 3.5t-4 9q0 12 6 15t22 3h68l22 115q14 72 40 107q6 9 15.5 18.5t31.5 21.5t45 12q33 0 59 -17.5t26 -48.5z" />
    <glyph glyph-name="g" unicode="g" horiz-adv-x="472" 
d="M384 -66q-14 -56 -69.5 -97.5t-135.5 -41.5q-123 0 -123 58q0 26 15.5 39t32.5 13q15 0 24.5 -8.5t9.5 -23.5q0 -13 -7 -24t-12.5 -15t-8.5 -5q29 -9 70 -9q56 0 94 43q22 24 30.5 42.5t18.5 60.5l21 84q-54 -50 -107 -50q-50 0 -87.5 40t-37.5 115q0 109 73.5 198
t156.5 89q58 0 86 -54q4 15 15 24.5t26 9.5q12 0 20.5 -8t8.5 -20q0 -6 -4 -20zM365 133l45 181q3 12 3 14q0 3 -1 11t-6 22t-12 26t-20.5 21t-31.5 9q-29 0 -60.5 -29t-53.5 -78q-14 -32 -30 -98t-16 -99q0 -10 1.5 -21t6.5 -28t18 -28t32 -11q37 0 77 39t48 69z" />
    <glyph glyph-name="h" unicode="h" 
d="M551 143q0 -5 -7.5 -27.5t-22 -52t-42 -52t-60.5 -22.5t-56 21.5t-23 60.5q0 22 14 60q60 159 60 221q0 65 -47 65q-54 0 -102 -48q-43 -43 -61 -109l-32 -130q-14 -57 -22 -86q-5 -19 -8 -28.5t-12 -18t-24 -8.5q-14 0 -22 8t-8 20q0 6 4 20l144 576l4 22q0 6 -1.5 9
t-12.5 5.5t-33 2.5h-11.5t-8 1.5t-6 4t-1.5 7.5q0 12 5.5 15t19.5 4l104 9q26 3 26 -13q0 -1 -0.5 -2.5t-1.5 -5.5t-2 -10l-70 -282q59 62 134 62q52 0 81 -28t29 -78q0 -59 -59 -216q-20 -55 -20 -78q0 -28 21 -28q59 0 92 117q5 16 8 20t13 4q17 0 17 -12z" />
    <glyph glyph-name="i" unicode="i" horiz-adv-x="315" 
d="M341 143q0 -5 -7.5 -27.5t-22 -52t-42 -52t-60.5 -22.5t-56 21.5t-23 60.5q0 20 17 65l25 69l35 93q24 66 24 91q0 28 -21 28q-60 0 -93 -124q-2 -6 -3 -8t-3 -5t-5 -3.5t-8 -0.5q-17 0 -17 12q0 6 7.5 28.5t22 51.5t42 51.5t60.5 22.5q34 0 56.5 -23t22.5 -59
q0 -21 -20 -72l-34 -94q-5 -13 -31 -81q-17 -48 -17 -71q0 -28 21 -28q59 0 92 117q5 16 8 20t13 4q17 0 17 -12zM362 610q0 -26 -20.5 -45t-44.5 -19q-18 0 -31.5 12t-13.5 32q0 26 20.5 45t44.5 19q18 0 31.5 -12t13.5 -32z" />
    <glyph glyph-name="j" unicode="j" horiz-adv-x="315" 
d="M231 -52q-15 -63 -65 -108t-111 -45q-36 0 -63 14t-27 45q0 23 15.5 37t32.5 14q15 0 24.5 -8.5t9.5 -23.5q0 -30 -30 -45q15 -8 38 -8q25 0 46 17t33.5 41.5t18.5 40.5t8 26l95 381q7 28 7 51q0 40 -27 40q-32 0 -62.5 -31t-55.5 -93q-2 -5 -3 -7l-2.5 -5t-3.5 -3.5
t-4.5 -1t-6.5 -0.5q-17 0 -17 12q0 5 11 28t29.5 52t50 51.5t66.5 22.5q38 0 63.5 -24.5t25.5 -66.5q0 -17 -4 -33zM362 610q0 -26 -20.5 -45t-44.5 -19q-18 0 -31.5 12t-13.5 32q0 26 20.5 45t44.5 19q18 0 31.5 -12t13.5 -32z" />
    <glyph glyph-name="k" unicode="k" horiz-adv-x="472" 
d="M498 143q0 -3 -4.5 -19.5t-14 -41t-19.5 -41.5q-33 -52 -79 -52q-37 0 -62.5 26t-25.5 72q0 17 4 34q3 14 3 23q0 36 -29.5 56.5t-74.5 26.5q-51 -209 -56 -218q-12 -20 -34 -20q-14 0 -22 8t-8 20q0 6 4 20l144 576l4 22q0 6 -1.5 9t-12.5 5.5t-33 2.5h-11.5t-8 1.5
t-6 4t-1.5 7.5q0 12 5.5 15t19.5 4l104 9q26 3 26 -13q0 -1 -4 -18l-99 -398q33 15 91 78q31 35 48 51t45.5 32.5t56.5 16.5q29 0 47 -17.5t18 -44.5q0 -28 -15.5 -42t-33.5 -14q-15 0 -24.5 8.5t-9.5 23.5q0 16 11 30.5t32 17.5q-8 13 -27 13q-50 0 -100 -58
q-79 -87 -112 -109q135 -21 135 -105q0 -15 -4 -31q-9 -35 -9 -59q0 -41 29 -41q48 0 77 118q3 15 6 19t14 4q17 0 17 -12z" />
    <glyph glyph-name="l" unicode="l" horiz-adv-x="262" 
d="M288 143q0 -2 -4 -18t-11.5 -40t-15.5 -40q-27 -56 -74 -56q-40 0 -64.5 27t-24.5 64l5 34l125 499l4 22q0 6 -1.5 9t-12.5 5.5t-33 2.5h-11.5t-8 1.5t-6 4t-1.5 7.5q0 12 5.5 15t19.5 4l104 9q26 3 26 -13q0 -1 -4 -18l-139 -556q-8 -32 -8 -51q0 -41 26 -41q20 0 35 26
t32 92q3 15 6 19t14 4q17 0 17 -12z" />
    <glyph glyph-name="m" unicode="m" horiz-adv-x="840" 
d="M866 143q0 -5 -7.5 -27.5t-22 -52t-42 -52t-60.5 -22.5t-56 21.5t-23 60.5q0 22 14 60q60 159 60 221q0 65 -47 65q-54 0 -102 -48q-16 -16 -34 -46.5t-22 -42.5l-32 -130l-22 -86q-8 -33 -12 -45.5t-13 -21t-25 -8.5q-12 0 -20.5 7.5t-8.5 20.5q0 7 4 21l63 252
q9 39 9 61q0 66 -48 66q-51 0 -92 -38q-18 -17 -34 -40.5t-23 -38t-9 -20.5l-32 -130l-22 -86q-8 -33 -12 -45.5t-13 -21t-25 -8.5q-12 0 -20.5 7.5t-8.5 20.5q0 7 4 21l72 288q7 28 7 51q0 40 -26 40q-38 0 -67 -117q-4 -17 -6.5 -20.5t-13.5 -3.5q-17 0 -17 13q0 3 4 18
t11.5 38t14.5 39q27 58 76 58q33 0 57.5 -20t30.5 -57q61 77 147 77q45 0 74 -22t35 -64q63 86 153 86q52 0 81 -28t29 -78q0 -59 -59 -216q-20 -55 -20 -78q0 -28 21 -28q60 0 92 117q5 16 8 20t13 4q17 0 17 -12z" />
    <glyph glyph-name="n" unicode="n" horiz-adv-x="577" 
d="M603 143q0 -5 -7.5 -27.5t-22 -52t-42 -52t-60.5 -22.5t-56 21.5t-23 60.5q0 22 14 60q60 159 60 221q0 65 -47 65q-54 0 -102 -48q-16 -16 -34 -46.5t-22 -42.5l-32 -130l-22 -86q-8 -33 -12 -45.5t-13 -21t-25 -8.5q-12 0 -20.5 7.5t-8.5 20.5q0 7 4 21l72 288
q7 28 7 51q0 40 -26 40q-38 0 -67 -117q-4 -17 -6.5 -20.5t-13.5 -3.5q-17 0 -17 13q0 3 4 18t11.5 38t14.5 39q27 58 76 58q33 0 57 -20t31 -56q62 76 146 76q52 0 81 -28t29 -78q0 -59 -59 -216q-20 -55 -20 -78q0 -28 21 -28q59 0 92 117q5 16 8 20t13 4q17 0 17 -12z
" />
    <glyph glyph-name="o" unicode="o" 
d="M521 275q0 -106 -80.5 -196t-177.5 -90q-69 0 -110.5 47.5t-41.5 118.5q0 109 81 198t177 89q68 0 110 -47.5t42 -119.5zM448 313q0 49 -22.5 76.5t-56.5 27.5q-33 0 -67.5 -23.5t-58.5 -65.5q-26 -44 -42.5 -108.5t-16.5 -100.5q0 -55 23.5 -80t55.5 -25q31 0 64 22
t57 59q30 46 47 114t17 104z" />
    <glyph glyph-name="p" unicode="p" 
d="M522 284q0 -109 -73.5 -202t-159.5 -93q-56 0 -86 55q-47 -188 -47 -191q0 -6 1.5 -8.5t12.5 -5t33 -2.5q10 0 14.5 -0.5t8.5 -3.5t4 -9q0 -18 -18 -18q-15 0 -48 1.5t-50 1.5q-14 0 -43 -1.5t-42 -1.5t-13 13q0 18 21 18q29 0 38.5 6t15.5 30l113 453q7 28 7 51
q0 40 -26 40q-38 0 -67 -117q-4 -17 -6.5 -20.5t-13.5 -3.5q-17 0 -17 13q0 3 4 18t11.5 38t14.5 39q27 58 76 58q27 0 52 -15.5t34 -52.5q22 21 35.5 32.5t38 23.5t49.5 12q55 0 90.5 -43t35.5 -115zM401 116q16 35 33.5 105t17.5 107q0 9 -1.5 20t-6.5 28.5t-18 29
t-32 11.5q-36 0 -75 -38q-42 -40 -51 -74l-47 -186l-2 -13q3 -36 18 -60q20 -32 52 -32q30 0 61 29.5t51 72.5z" />
    <glyph glyph-name="q" unicode="q" horiz-adv-x="472" 
d="M439 -176q0 -18 -18 -18q-16 0 -51 1.5t-52 1.5t-50.5 -1.5t-49.5 -1.5q-6 0 -9.5 3t-4.5 7v3q0 18 24 18q47 1 57 8.5t21 49.5l35 144q-50 -50 -106 -50q-52 0 -88.5 42t-36.5 116q0 110 74 202.5t158 92.5q62 0 90 -63q13 23 34 43t29 20q12 -2 12 -14q0 -1 -4 -18
l-134 -537q-4 -14 -4 -20t1.5 -8.5t12.5 -5t33 -2.5q10 0 14.5 -0.5t8.5 -3.5t4 -9zM363 125l46 185l3 14q0 3 -1 11t-5.5 23t-11.5 27.5t-20.5 22t-31.5 9.5q-30 0 -60.5 -30t-49.5 -70q-18 -40 -35 -110t-17 -103q0 -14 2 -27.5t7.5 -28.5t18 -24.5t29.5 -9.5
q37 0 77.5 40t48.5 71z" />
    <glyph glyph-name="r" unicode="r" horiz-adv-x="433" 
d="M499 377q0 -23 -14.5 -38t-34.5 -15q-15 0 -24.5 8.5t-9.5 23.5q0 34 35 46q-21 15 -55 15q-30 0 -56.5 -18.5t-42.5 -44.5t-24 -42.5t-10 -24.5l-65 -261q-10 -37 -41 -37q-12 0 -20.5 7.5t-8.5 20.5q0 7 4 21l72 288q7 28 7 51q0 40 -26 40q-38 0 -67 -117
q-4 -17 -6.5 -20.5t-13.5 -3.5q-17 0 -17 13q0 3 4 18t11.5 38t14.5 39q27 58 76 58q31 0 55 -18.5t32 -51.5q49 70 124 70q43 0 72 -17.5t29 -47.5z" />
    <glyph glyph-name="s" unicode="s" horiz-adv-x="420" 
d="M403 156q0 -20 -9 -45.5t-29 -54.5t-60 -48t-94 -19q-61 0 -98 27t-37 70q0 20 6.5 34t16.5 19.5t16 7t11 1.5q12 0 23 -7.5t11 -25.5q0 -5 -1.5 -12t-13 -20t-32.5 -15q18 -54 98 -54q38 0 66 12.5t41.5 31.5t19.5 35.5t6 29.5q0 19 -7 31.5t-22.5 20.5t-27.5 11.5
t-35 8.5q-18 4 -29 8t-29.5 14.5t-28.5 30t-10 46.5q0 52 41 100t120 48q52 0 82 -25t30 -61q0 -26 -12.5 -40t-30.5 -14q-16 0 -23 9t-7 19q0 4 1 9.5t10.5 16.5t25.5 14q-7 24 -28.5 35.5t-47.5 11.5q-39 0 -64.5 -19.5t-32 -37.5t-6.5 -32q0 -15 5 -25.5t17.5 -17
t19.5 -8.5t24 -6q39 -8 57.5 -15t36.5 -25q30 -31 30 -75z" />
    <glyph glyph-name="t" unicode="t" horiz-adv-x="341" 
d="M366 144q0 -6 -10.5 -29t-29 -52t-50 -51.5t-66.5 -22.5q-42 0 -66 27.5t-24 63.5l5 34l71 286h-79q-10 0 -14.5 0.5t-8 3.5t-3.5 9q0 12 6.5 15t21.5 3h85l39 156q9 39 42 39q12 0 20.5 -8t8.5 -20q0 -6 -4 -20l-37 -147h80q10 0 14.5 -0.5t8 -3.5t3.5 -9
q0 -12 -6.5 -15t-21.5 -3h-86l-73 -294q-8 -32 -8 -51q0 -41 28 -41q34 0 65 34t53 90q2 5 3 7l2.5 5t3.5 3.5t4.5 1t6.5 0.5q16 0 16 -11z" />
    <glyph glyph-name="u" unicode="u" horiz-adv-x="551" 
d="M577 143q0 -2 -4 -17.5t-11.5 -39t-15.5 -40.5q-27 -57 -75 -57q-64 0 -84 60q-50 -60 -113 -60q-45 0 -81 26.5t-36 91.5q0 34 11 76t45 132q18 49 18 74q0 28 -21 28q-60 0 -93 -124q-2 -6 -3 -8t-3 -5t-5 -3.5t-8 -0.5q-17 0 -17 12q0 6 7.5 28.5t22 51.5t42 51.5
t60.5 22.5q34 0 56.5 -23t22.5 -59q0 -21 -13 -54q-57 -156 -57 -215q0 -77 55 -77q40 0 70.5 31.5t37.5 58.5l71 287q9 40 42 40q12 0 20.5 -7.5t8.5 -20.5q0 -7 -4 -21l-69 -276q-8 -32 -8 -51q0 -41 26 -41q23 0 38 30t30 88q3 15 6 19t14 4q17 0 17 -12z" />
    <glyph glyph-name="v" unicode="v" horiz-adv-x="472" 
d="M503 373q0 -17 -6.5 -56.5t-22.5 -97t-39.5 -108t-62.5 -86.5t-86 -36q-59 0 -94 32q-34 30 -34 91q0 20 2 34t14.5 56.5t38.5 112.5q18 49 18 74q0 28 -21 28q-60 0 -93 -124q-2 -6 -3 -8t-3 -5t-5 -3.5t-8 -0.5q-17 0 -17 12q0 6 7.5 28.5t22 51.5t42 51.5t60.5 22.5
q34 0 56.5 -23t22.5 -59q0 -21 -13 -53q-56 -154 -56 -210q0 -83 66 -83q40 0 73.5 38t51.5 89.5t28 92t10 56.5q0 47 -30 82q-10 11 -10 24q0 18 15.5 32t32.5 14q16 0 29.5 -16t13.5 -53z" />
    <glyph glyph-name="w" unicode="w" horiz-adv-x="682" 
d="M713 373q0 -41 -22 -128t-46 -142q-47 -114 -136 -114q-86 0 -117 63q-38 -63 -99 -63q-21 0 -41.5 5t-43 17t-36.5 38.5t-14 64.5q0 53 55 201q18 49 18 74q0 28 -21 28q-60 0 -93 -124q-2 -6 -3 -8t-3 -5t-5 -3.5t-8 -0.5q-17 0 -17 12q0 6 7.5 28.5t22 51.5t42 51.5
t60.5 22.5q34 0 56.5 -23t22.5 -59q0 -20 -14 -56q-54 -148 -54 -203q0 -87 72 -87q32 0 58 36q27 38 27 67q0 18 8 58l55 219q9 37 41 37q12 0 20.5 -7.5t8.5 -20.5q0 -3 -2.5 -14t-6.5 -28t-6 -24l-39 -156q-14 -54 -14 -84q0 -83 66 -83q62 0 102 92q13 29 30.5 93
t17.5 91q0 47 -30 82q-10 11 -10 24q0 18 15.5 32t32.5 14q16 0 29.5 -16t13.5 -53z" />
    <glyph glyph-name="x" unicode="x" horiz-adv-x="474" 
d="M500 143q0 -10 -10.5 -33.5t-29 -51t-51 -48.5t-68.5 -21q-34 0 -60.5 17.5t-38.5 47.5q-39 -65 -98 -65q-35 0 -62.5 17t-27.5 48q0 24 15 38.5t34 14.5q14 0 24 -9t10 -23q0 -35 -36 -47q17 -14 44 -14q60 0 86 106l35 136q19 80 19 99q0 27 -12.5 44.5t-35.5 17.5
q-36 0 -70 -34t-50 -89q-3 -12 -6 -15t-13 -3q-17 0 -17 12q0 8 6.5 25t20 39t31.5 42t44.5 34t55.5 14q71 0 99 -66q37 66 98 66q38 0 64.5 -17.5t26.5 -47.5q0 -23 -14.5 -38t-34.5 -15q-15 0 -24.5 8.5t-9.5 23.5q0 35 37 47q-16 14 -46 14q-27 0 -50 -26t-35 -75
l-35 -136q-20 -85 -20 -103q0 -28 12.5 -45.5t36.5 -17.5q32 0 66.5 31t53.5 93q3 11 6 14t13 3q17 0 17 -12z" />
    <glyph glyph-name="y" unicode="y" horiz-adv-x="498" 
d="M426 -4q-19 -76 -83 -138.5t-142 -62.5q-43 0 -70.5 24t-27.5 63q0 33 16 47t34 14q14 0 24 -9t10 -23q0 -6 -1.5 -13.5t-13.5 -20t-33 -14.5q6 -21 23 -32t39 -11q48 0 93.5 50.5t68.5 153.5q-39 -35 -90 -35q-16 0 -32.5 4t-37 15t-33.5 36.5t-13 62.5q0 34 11 76
t45 132q18 49 18 74q0 28 -21 28q-60 0 -93 -124q-2 -6 -3 -8t-3 -5t-5 -3.5t-8 -0.5q-17 0 -17 12q0 6 7.5 28.5t22 51.5t42 51.5t60.5 22.5q34 0 56.5 -23t22.5 -59q0 -21 -13 -54q-57 -156 -57 -215q0 -77 55 -77q36 0 67 28.5t39 61.5l73 290q9 37 41 37q12 0 20.5 -7.5
t8.5 -20.5q0 -6 -4 -21z" />
    <glyph glyph-name="z" unicode="z" horiz-adv-x="420" 
d="M446 144q0 -11 -11 -35.5t-30 -51.5t-50 -47.5t-65 -20.5t-62 36q-12 14 -17.5 20.5t-15 12t-19.5 5.5q-43 0 -79 -62q-5 -8 -7.5 -10t-11.5 -2q-16 0 -16 11q0 9 27.5 47.5t53.5 66.5q33 36 124 122q82 77 107 107q-29 3 -63 16q-34 15 -57 15q-21 0 -44.5 -11.5
t-32.5 -35.5q-2 -6 -3 -8t-4.5 -3.5t-10.5 -1.5q-16 0 -16 12q0 25 35 70.5t86 45.5q33 0 62 -37t50 -37q26 0 58 55q9 14 12.5 16.5t11.5 2.5q16 0 16 -11q0 -4 -8 -19.5t-44 -59.5t-92 -99l-97 -90q-46 -44 -72 -76q4 1 16 1q26 0 70 -18q31 -13 53 -13q34 0 65.5 23
t43.5 56q3 10 5 13t5 5t10 2q17 0 17 -12z" />
    <glyph glyph-name="braceleft" unicode="{" horiz-adv-x="514" 
d="M381 -237q-3 -13 -24 -13q-81 0 -129 34q-24 17 -32.5 39.5t-7 37.5t8.5 41l49 198q10 41 10 47q0 40 -28.5 64t-82.5 26q-13 0 -9 13q3 13 16 13q65 4 109 35q30 23 41 45t26 86l49 196q14 54 80.5 89.5t149.5 35.5q8 0 11 -0.5t6 -3.5t0 -9q-1 -10 -13 -12
q-71 -5 -114 -37q-29 -21 -39 -43t-30 -100l-37 -150q-4 -18 -8 -29.5t-14.5 -30.5t-25.5 -32.5t-41.5 -28t-62.5 -24.5q94 -30 89 -104l-21 -87l-38 -150q-9 -39 -9 -50q1 -37 30 -59t77 -25q5 0 8.5 -0.5t5 -3.5t0.5 -8z" />
    <glyph glyph-name="bar" unicode="|" horiz-adv-x="286" 
d="M343 715l-233 -930q-8 -35 -29 -35q-23 0 -14 35l233 930q3 11 5 17t9 12t17 6q14 0 15 -12t-3 -23z" />
    <glyph glyph-name="braceright" unicode="}" horiz-adv-x="514" 
d="M503 250q-4 -13 -17 -13q-64 -4 -108 -35q-30 -23 -41 -45t-27 -86l-49 -196q-14 -54 -81 -89.5t-147 -35.5q-8 0 -11.5 0.5t-6 3.5t-1.5 9q3 10 13 12q71 5 114 37q29 21 39 43t30 100l37 150q7 24 12.5 38t21 37t45.5 40.5t74 29.5q-94 30 -89 104q1 8 20 87l38 150
q9 39 9 50q-1 37 -30 59t-77 25q-6 1 -8 1t-4.5 3t-1.5 8q4 13 26 13q80 0 127 -34q19 -13 28.5 -27.5t10.5 -32t-0.5 -27.5t-6.5 -31l-50 -198q-10 -41 -10 -47q0 -40 29 -64t82 -26q13 0 10 -13z" />
    <glyph glyph-name="asciitilde" unicode="~" horiz-adv-x="556" 
d="M627 290l-65 -44q-22 -16 -65 -35q-45 -18 -78 -18q-43 0 -91 34q-20 13 -30 19t-28 12t-37 6q-69 0 -171 -71l-10 17l65 44q24 16 66 35q45 18 78 18q41 0 91 -34q55 -37 95 -37q67 0 171 71z" />
    <glyph glyph-name="uni00A0" unicode="&#xa0;" 
 />
    <glyph glyph-name="exclamdown" unicode="&#xa1;" horiz-adv-x="315" 
d="M324 456q0 -24 -20 -44t-45 -20q-22 0 -34 13t-12 31q0 24 20 44t45 20q22 0 34 -13t12 -31zM172 -156q-4 -24 -19 -39t-26.5 -18t-20.5 -3q-21 0 -33.5 13.5t-12.5 28.5q0 8 5 21l147 447q4 12 7.5 14.5t12.5 2.5q17 0 17 -12q0 -3 -2 -13z" />
    <glyph glyph-name="cent" unicode="&#xa2;" horiz-adv-x="472" 
d="M482 101q-28 -46 -86.5 -78t-123.5 -34l-5 -19q-4 -15 -19 -15q-6 0 -9.5 4.5t-1.5 10.5l5 20q-62 8 -96.5 54.5t-34.5 110.5q0 104 75.5 191.5t168.5 94.5l5 20q4 15 19 15q6 0 9.5 -4.5t1.5 -10.5l-5 -20q43 -4 69 -28t26 -57q0 -30 -16 -45t-34 -15q-6 0 -12.5 2
t-14 10t-7.5 21q0 6 2 13.5t13 19.5t31 14q-15 35 -63 41l-101 -402q42 3 88.5 26t82.5 68q9 11 14 11q13 0 19 -19zM249 15l99 399q-31 -7 -60 -31.5t-48 -58.5q-25 -44 -40.5 -107t-15.5 -99q0 -90 65 -103z" />
    <glyph glyph-name="sterling" unicode="&#xa3;" horiz-adv-x="786" 
d="M650 139q0 -36 -54 -93t-131 -57q-45 0 -91 25q-14 8 -37 23.5t-34 22.5q-68 -71 -145 -71q-28 0 -48.5 12.5t-20.5 37.5q0 35 39 67.5t94 32.5q14 0 29 -2.5t23 -5.5l9 -3q7 18 53 204h-52q-10 0 -14.5 0.5t-8 3t-3.5 8.5q0 13 6 16t22 3h58l41 163q17 70 77.5 125
t130.5 55q58 0 89 -39.5t31 -95.5q0 -90 -54 -90q-13 0 -23.5 8.5t-10.5 23.5q0 6 2.5 15t15.5 20.5t35 11.5q1 5 1 15q0 23 -5.5 44.5t-26 41.5t-54.5 20q-15 0 -30.5 -5.5t-36.5 -20.5t-40.5 -49t-32.5 -83q-10 -40 -19.5 -80t-20.5 -80h79q10 0 14.5 -0.5t8 -3t3.5 -8.5
q0 -13 -6 -16t-22 -3h-85l-39 -160q-8 -37 -31 -72q42 -28 60 -39t41 -19.5t46 -8.5q41 0 79 28t53 73q3 11 6 13.5t13 2.5q17 0 17 -11zM261 82q-27 13 -56 13t-52 -18t-23 -39q0 -24 29 -24q53 0 102 68z" />
    <glyph glyph-name="currency" unicode="&#xa4;" horiz-adv-x="787" 
d="M628 33q-20 -16 -36 -4l-50 65q-65 -43 -136 -43q-72 0 -114 44l-67 -53q-31 -25 -48 -14q-16 12 15 36l77 62q-30 54 -12 124q16 67 75 125l-49 65q-16 16 1 29q20 16 36 4l51 -67q65 43 135 43t113 -43l68 54q31 23 46 13q18 -12 -13 -35l-78 -62q31 -54 13 -126
q-16 -69 -73 -124l47 -62q15 -19 -1 -31zM613 250q16 65 -18.5 111t-99.5 46t-122.5 -46t-73.5 -111t18.5 -111t99.5 -46t122.5 46t73.5 111z" />
    <glyph glyph-name="yen" unicode="&#xa5;" horiz-adv-x="763" 
d="M891 670q0 -16 -20 -18q-69 -7 -128 -77l-200 -238h151q7 0 11 -5t2 -12q-4 -17 -21 -17h-172l-26 -31l-19 -75h190q7 0 11 -5t2 -12q-4 -17 -21 -17h-190l-16 -64q-11 -44 -11 -50q0 -7 2 -10t15 -5.5t41 -2.5q10 0 14.5 -0.5t8 -3.5t3.5 -9q0 -18 -19 -18
q-18 0 -57.5 1.5t-59.5 1.5q-19 0 -58 -1.5t-57 -1.5q-15 0 -15 13q0 12 6 15t20 3q54 1 65.5 9t21.5 50l19 73h-190q-7 0 -11 5t-2 12q4 17 21 17h190q19 74 19 76q-4 12 -5 14l-5 16h-172q-7 0 -11 5t-2 12q4 17 21 17h152l-98 286q-6 17 -17 23t-46 6q-23 0 -23 13
q0 18 18 18q16 0 51.5 -1.5t52.5 -1.5q19 0 57.5 1.5t56.5 1.5q14 0 14 -13q0 -18 -23 -18q-53 0 -53 -23q0 -4 5 -17l95 -275h24l205 244q7 7 17 22.5t10 27.5q0 19 -28 21q-17 0 -17 13q0 18 18 18q47 -3 92 -3q23 0 41 1t27.5 1.5t10.5 0.5q12 0 12 -13z" />
    <glyph glyph-name="brokenbar" unicode="&#xa6;" horiz-adv-x="286" 
d="M250 343q-4 -15 -25 -15q-9 0 -14.5 4t-3.5 11l93 372q3 11 5 17t9 12t17 6q14 0 15 -12t-3 -23zM110 -215q-8 -35 -29 -35q-23 0 -14 35l93 372q4 15 25 15q9 0 14.5 -4t3.5 -11z" />
    <glyph glyph-name="section" unicode="&#xa7;" horiz-adv-x="506" 
d="M522 194q-10 -39 -42 -70t-76 -50q26 -53 12 -111q-18 -72 -81 -124t-135 -52q-68 0 -100 54.5t-13 129.5q4 16 18.5 28t31.5 12q16 0 25 -11.5t5 -28.5q-5 -17 -19.5 -28.5t-30.5 -11.5q1 -41 27 -67.5t68 -26.5q48 0 89.5 37.5t54.5 88.5q18 73 -69 121l-85 47
q-52 30 -79 75t-14 100q10 39 42 70t76 50q-27 50 -12 111q18 72 81 124t135 52q68 0 100 -54.5t13 -129.5q-4 -16 -18.5 -28t-31.5 -12q-16 0 -25 11.5t-5 28.5q5 17 19.5 28.5t30.5 11.5q-1 41 -27 67.5t-68 26.5q-48 0 -89.5 -37.5t-54.5 -88.5q-18 -73 69 -121l85 -47
q52 -30 79 -75t14 -100zM448 194q17 69 -64 113l-85 47q-33 18 -55 46q-42 -26 -61 -94q-17 -69 64 -113l85 -47q33 -19 55 -46q43 26 61 94z" />
    <glyph glyph-name="dieresis" unicode="&#xa8;" 
d="M372 609q0 -23 -19 -40.5t-41 -17.5q-16 0 -28 11t-12 29q0 23 18.5 40.5t40.5 17.5q16 0 28 -11t13 -29zM552 609q0 -23 -19 -40.5t-41 -17.5q-16 0 -28 11t-12 29q0 23 18.5 40.5t40.5 17.5q16 0 28 -11t13 -29z" />
    <glyph glyph-name="copyright" unicode="&#xa9;" horiz-adv-x="683" 
d="M683 342q0 -142 -100 -242t-241 -100q-142 0 -242 100t-100 242q0 141 100 241t242 100q141 0 241 -100t100 -241zM641 342q0 124 -87.5 211.5t-211.5 87.5t-212 -87.5t-88 -211.5t88 -212t212 -88t211.5 88t87.5 212zM543 539l-36 -141q-2 -11 -11 -11q-10 0 -10 7
q0 1 1 5t1.5 11.5t0.5 15.5q0 49 -22 79t-65 30q-77 0 -137 -75q-33 -42 -49 -99t-16 -95q0 -59 30.5 -88.5t72.5 -29.5q40 0 86 31.5t69 104.5q2 5 10 5q10 0 10 -7q0 -3 -3 -12t-10 -24t-16 -27q-29 -43 -70 -66t-83 -23q-65 0 -106 44t-41 113q0 101 78 183.5t171 82.5
q62 0 92 -50l43 50q11 0 11 -6q0 -2 -0.5 -4.5t-0.5 -3.5z" />
    <glyph glyph-name="ordfeminine" unicode="&#xaa;" horiz-adv-x="487" 
d="M557 496q0 -2 -2.5 -12.5t-8.5 -27t-12 -28.5q-20 -40 -61 -40q-26 0 -47 13t-28 36q-52 -49 -101 -49q-44 0 -76 29.5t-35 80.5q-4 78 55 142.5t131 64.5q49 0 74 -39q5 25 33 25q25 0 25 -19q0 -7 -2 -14l-47 -188q-5 -18 -5 -36q2 -28 23 -28q19 0 30.5 21t22.5 61
q2 11 4.5 13.5t11.5 2.5q14 0 15 -8zM505 348q-2 -11 -17 -11h-320q-6 0 -9.5 3t-2.5 8q2 10 18 10h319q6 0 9.5 -3t2.5 -7zM433 613q2 8 1 11q0 6 -4 19t-19 29t-38 16q-27 0 -53.5 -23.5t-42.5 -57.5q-10 -23 -20.5 -68.5t-9.5 -70.5q0 -9 2.5 -21t15 -26.5t33.5 -14.5
q31 0 64 28t38 49z" />
    <glyph glyph-name="guillemotleft" unicode="&#xab;" horiz-adv-x="577" 
d="M406 468q-55 -121 -145 -229q34 -105 31 -228q0 -11 -11 -11h-3q-11 0 -11 10q-9 128 -74 226q-2 2 -2 6t4 8q115 100 189 228q2 5 9 5h3q11 0 11 -11q0 -3 -1 -4zM563 468q-55 -121 -145 -229q34 -105 31 -228q0 -11 -11 -11h-3q-11 0 -11 10q-9 128 -74 226q-2 2 -2 6
t4 8q115 100 189 228q2 5 9 5h3q11 0 11 -11q0 -3 -1 -4z" />
    <glyph glyph-name="logicalnot" unicode="&#xac;" horiz-adv-x="787" 
d="M746 148q-2 -9 -10 -15t-16 -6q-9 0 -13.5 6t-2.5 15l46 184h-569q-8 0 -13 6t-3 15t10 15t17 6h589q9 0 13.5 -6t2.5 -15z" />
    <glyph glyph-name="uni00AD" unicode="&#xad;" horiz-adv-x="367" 
d="M338 197q-3 -8 -8.5 -10t-21.5 -2h-193q-29 0 -29 13q0 8 7 33q3 10 7.5 12t20.5 2h198q10 0 14.5 -0.5t8.5 -3.5t4 -9q0 -7 -8 -35z" />
    <glyph glyph-name="registered" unicode="&#xae;" horiz-adv-x="683" 
d="M683 342q0 -142 -100 -242t-241 -100q-142 0 -242 100t-100 242q0 141 100 241t242 100q141 0 241 -100t100 -241zM641 342q0 124 -87.5 211.5t-211.5 87.5t-212 -87.5t-88 -211.5t88 -212t212 -88t211.5 88t87.5 212zM549 205q0 -6 -6 -21t-23 -31.5t-39 -16.5
q-12 0 -25 2.5t-30 18t-17 42.5q0 15 15 70q3 12 3 21q0 19 -13 35t-45 16h-66l-38 -152q-2 -8 -2 -12t1 -5.5t8.5 -3t23.5 -1.5q15 0 15 -7q0 -11 -11 -11q-10 0 -33 1t-35 1q-11 0 -33.5 -1t-33.5 -1q-8 0 -8 8q0 10 15 10q28 0 36 4.5t12 20.5l79 315q2 8 2 12t-1 5.5
t-9 3t-24 1.5t-16 7q0 11 17 11h156q53 0 86.5 -25t33.5 -62t-35.5 -69t-85.5 -44q49 -22 49 -69q0 -18 -5 -50q-4 -36 -4 -44q0 -33 20 -33q30 0 46 52q3 9 11 9q9 0 9 -7zM492 472q0 29 -22 44q-21 13 -58 13h-40q-15 0 -19.5 -3t-8.5 -18l-38 -153h63q50 0 86 28
q18 14 27.5 41t9.5 48z" />
    <glyph glyph-name="macron" unicode="&#xaf;" 
d="M583 604q0 -10 -4.5 -15t-9 -5.5t-15.5 -0.5h-286q-26 0 -26 13q0 10 4.5 15t9 5.5t15.5 0.5h286q10 0 14.5 -0.5t8 -3.5t3.5 -9z" />
    <glyph glyph-name="degree" unicode="&#xb0;" horiz-adv-x="394" 
d="M466 552q-13 -54 -61.5 -92.5t-102.5 -38.5t-83 38.5t-15 92.5q13 55 61 93t103 38q54 0 82.5 -38t15.5 -93zM424 552q9 37 -10.5 63t-56.5 26t-69.5 -26t-41.5 -63q-10 -37 10 -63t57 -26t69.5 26t41.5 63z" />
    <glyph glyph-name="plusminus" unicode="&#xb1;" horiz-adv-x="787" 
d="M713 22q0 -22 -34 -22h-560q-35 0 -35 22q0 21 35 21h263l62 250h-252q-35 0 -35 22q0 21 35 21h263l67 268q6 25 23 25q9 0 15.5 -6.5t6.5 -15.5l-67 -271h252q34 0 34 -21q0 -22 -34 -22h-263l-62 -250h252q34 0 34 -21z" />
    <glyph glyph-name="two.superior" unicode="&#xb2;" horiz-adv-x="396" 
d="M453 404q1 -8 -9.5 -32.5t-39 -51.5t-66.5 -27q-31 0 -77 25q-32 20 -60 20q-26 0 -37 -35q-2 -7 -4 -8.5t-9 -1.5q-13 0 -13 6q1 4 2.5 10.5t10.5 25t22 36.5t39.5 39.5t60.5 38.5q42 21 69 39t50 54.5t21 81.5q-2 35 -22.5 50.5t-46.5 15.5q-59 0 -99 -54t-38 -94
q2 -20 16 -20q29 0 48.5 30.5t19.5 49.5q-2 10 -7 19l-3 6q-1 4 2 6t7 2q6 0 12 -11t7 -22q1 -25 -23 -60t-63 -35q-37 0 -40 39q-2 44 44.5 101.5t116.5 57.5q51 0 86 -28t37 -74q3 -54 -38 -88.5t-137 -79.5q-72 -36 -104 -83q4 1 14 1q26 0 71 -9t71 -9q28 0 50.5 18
t32.5 48q2 5 2.5 6.5t3.5 2.5t8 1q12 0 12 -7z" />
    <glyph glyph-name="three.superior" unicode="&#xb3;" horiz-adv-x="368" 
d="M425 427q2 -53 -53.5 -93.5t-125.5 -40.5q-47 0 -74.5 23t-29.5 54q0 46 35 46q25 0 26 -20q0 -4 -1.5 -9t-10.5 -12t-24 -7q3 -31 26 -45.5t52 -14.5q57 0 91 40q15 17 23.5 42t9.5 41l1 16q-2 50 -60 50h-21q-20 0 -20 7q-1 8 3 10t16 2h18q55 0 88 32q19 19 26.5 46.5
t6.5 43.5q-1 25 -19.5 38.5t-45.5 13.5q-52 0 -92.5 -32.5t-38.5 -67.5q0 -22 19 -22q15 0 28.5 10.5t12.5 24.5q0 8 -8 20l-2 4q-1 4 2 6t7 2q6 0 12.5 -10.5t6.5 -20.5q1 -22 -17.5 -36.5t-40.5 -14.5q-21 0 -32.5 11.5t-12.5 28.5q-2 39 45 75.5t111 36.5q48 0 79 -22.5
t33 -58.5t-28.5 -70.5t-82.5 -49.5q24 -8 42.5 -28.5t19.5 -48.5z" />
    <glyph glyph-name="acute" unicode="&#xb4;" 
d="M549 666q0 -18 -23 -35l-162 -121q-9 -6 -14 -6q-6 0 -11.5 6t-5.5 12q0 5 11 16l143 141q17 17 31 17q15 0 23 -9t8 -21z" />
    <glyph glyph-name="uni00B5" unicode="&#xb5;" 
d="M550 143q-13 -62 -30 -97q-28 -57 -75 -57q-28 0 -52 15.5t-34 50.5q-55 -66 -125 -66q-53 0 -90 28q-11 -42 -20.5 -80.5t-14.5 -59t-9 -37t-6.5 -24.5t-4.5 -12q-14 -20 -35 -20q-10 0 -19.5 6.5t-9.5 21.5q0 9 4 23l143 571q9 35 40 35q14 0 22 -8.5t8 -19.5
q0 -1 -2.5 -11.5t-6.5 -26.5l-6 -24l-39 -156q-17 -67 -17 -98q0 -83 67 -83q45 0 81 37.5t44 69.5l68 273q9 36 41 36q12 0 20.5 -8t8.5 -20q0 -11 -15 -61q-6 -28 -17 -68l-30 -123q-19 -76 -19 -96q0 -40 26 -40q18 0 34 24t34 94q4 16 6.5 19t13.5 3q16 0 16 -11z" />
    <glyph glyph-name="paragraph" unicode="&#xb6;" horiz-adv-x="628" 
d="M766 672q-5 -21 -40 -21h-51l-203 -810q-7 -35 -29 -35q-23 0 -14 35l203 810h-72l-203 -810q-7 -35 -29 -35q-23 0 -14 35l97 387q-51 2 -98 17t-85 42.5t-54 72.5t-2 101q25 99 118.5 166t196.5 67h250q11 0 16.5 -0.5t10.5 -6t2 -15.5z" />
    <glyph glyph-name="periodcentered" unicode="&#xb7;" horiz-adv-x="787" 
d="M535 352q0 -23 -20 -43.5t-46 -20.5q-20 0 -32.5 13t-12.5 31q0 23 20 43.5t46 20.5q20 0 32.5 -13t12.5 -31z" />
    <glyph glyph-name="cedilla" unicode="&#xb8;" horiz-adv-x="472" 
d="M346 -107q0 -23 -14.5 -40t-34.5 -25.5t-50.5 -13t-52 -5.5t-50.5 -1h-27q-12 1 -12 13t26 12h12q135 0 135 60q0 32 -50 36q-14 0 -14 13q0 11 14 62q2 7 6 8t21 1h14q27 0 28 -9q-8 -34 -14 -55q63 -11 63 -56z" />
    <glyph glyph-name="one.superior" unicode="&#xb9;" horiz-adv-x="388" 
d="M385 317q0 -11 -14 -11q-16 0 -49 1t-50 1q-16 0 -48 -1t-48 -1q-12 0 -12 8q-1 7 4 8.5t16 1.5h7q41 0 52 5.5t15 22.5l71 281q-43 -24 -81 -24q-11 0 -11 8q0 9 11 11q72 6 125 69q7 8 12 8q10 0 10 -8q0 -3 -2 -11l-84 -336q-2 -9 -2 -13q0 -5 2 -7t13.5 -4t36.5 -2h7
q18 0 19 -7z" />
    <glyph glyph-name="ordmasculine" unicode="&#xba;" horiz-adv-x="440" 
d="M527 588q4 -74 -61 -137t-146 -63q-58 0 -94.5 33t-38.5 83q-4 77 61 139t145 62q58 0 95 -33t39 -84zM458 348q-2 -11 -17 -11h-273q-6 0 -9.5 3t-2.5 8q2 10 18 10h272q6 0 9.5 -3t2.5 -7zM464 615q-1 35 -21 54t-49 19q-27 0 -55.5 -16.5t-46.5 -45.5
q-21 -31 -32.5 -76t-10.5 -71q2 -38 23 -55.5t47 -17.5q58 0 99 56q24 33 36 81t10 72z" />
    <glyph glyph-name="guillemotright" unicode="&#xbb;" horiz-adv-x="577" 
d="M506 242q0 -6 -4 -9q-114 -97 -188 -227q-3 -6 -10 -6h-3q-11 0 -11 11q0 1 0.5 2.5t0.5 2.5q58 122 146 228q-35 109 -31 229q0 10 11 10h3q9 0 11 -10q9 -126 73 -225q2 -4 2 -6zM349 242q0 -6 -4 -9q-114 -97 -188 -227q-3 -6 -10 -6h-3q-11 0 -11 11q0 1 0.5 2.5
t0.5 2.5q58 122 146 228q-35 109 -31 229q0 10 11 10h3q9 0 11 -10q9 -126 73 -225q2 -4 2 -6z" />
    <glyph glyph-name="onequarter" unicode="&#xbc;" horiz-adv-x="828" 
d="M385 317q1 -7 -3 -9t-11 -2q-15 0 -48.5 1t-50.5 1q-16 0 -48 -1t-48 -1q-11 0 -11 8q-1 7 3.5 8.5t15.5 1.5h7q41 0 52 5.5t15 22.5l70 281q-41 -24 -80 -24q-8 0 -12 8q0 8 12 11q72 6 125 69q7 8 12 8q10 0 10 -8q1 -1 -2 -11l-84 -336q-2 -5 -2.5 -8.5t-0.5 -4.5
q0 -4 1.5 -5.5t6 -3.5t15.5 -3t30 -1h7q18 0 19 -7zM749 9q1 -7 -24 -12.5t-44 -5.5q-10 0 -14 1l-17 -68q-4 -17 -6.5 -23.5t-9 -11.5t-17.5 -5q-20 0 -22 16q0 4 2 12l22 89l-46 14q-23 7 -52 7q-43 0 -57 -9q-21 -13 -23 -13q-5 0 -8.5 4t-2.5 6q-1 10 28 24q9 4 29 21
q73 60 119 144q36 64 52 120l17 60q6 21 29 21q20 0 22 -17q-2 -12 -9 -37t-33.5 -81.5t-63.5 -104.5q-44 -59 -119 -120h20q30 0 57 -7q7 -1 11 -2.5t13 -4t22 -6.5l24 96q7 29 30 29q22 0 22 -17q2 -4 -6 -27q-1 -5 -2.5 -11.5t-3.5 -13.5l-16 -64q0 -2 11 -2q20 0 46 7
l9 2q4 0 7.5 -3.5t3.5 -6.5zM852 663q-2 -7 -6 -11l-581 -643q-8 -10 -20 -10q-8 0 -12.5 6t-2.5 15q2 7 6 11l581 644q7 9 20 9q8 0 12.5 -6t2.5 -15z" />
    <glyph glyph-name="onehalf" unicode="&#xbd;" horiz-adv-x="828" 
d="M385 317q1 -7 -3 -9t-11 -2q-15 0 -48.5 1t-50.5 1q-16 0 -48 -1t-48 -1q-11 0 -11 8q-1 7 3.5 8.5t15.5 1.5h7q41 0 52 5.5t15 22.5l70 281q-41 -24 -80 -24q-8 0 -12 8q0 8 12 11q72 6 125 69q7 8 12 8q10 0 10 -8q1 -1 -2 -11l-84 -336q-2 -5 -2.5 -8.5t-0.5 -4.5
q0 -4 1.5 -5.5t6 -3.5t15.5 -3t30 -1h7q18 0 19 -7zM772 98q0 -5 -6.5 -21t-19 -37t-36.5 -37t-53 -16q-33 0 -78 26q-35 19 -60 19t-38 -35q-1 -4 -1.5 -5.5t-1.5 -3t-3 -1.5h-6q-13 0 -14 6q1 4 2.5 10.5t10.5 25t22.5 36.5t40 39.5t60.5 38.5q42 21 69 39t50 54.5
t21 81.5q-2 35 -23 51t-47 16q-58 0 -97.5 -54t-38.5 -95q2 -19 16 -19q30 0 49.5 30t18.5 49q0 8 -7 19l-3 7q0 7 8 7q7 0 13 -11t7 -22q1 -24 -23 -59t-62 -35q-17 0 -28.5 9.5t-12.5 29.5q-2 43 44.5 101t116.5 58q51 0 86 -28.5t37 -74.5q3 -54 -38 -88.5t-137 -79.5
q-72 -36 -104 -83q4 1 14 1q26 0 71 -9t70 -9q29 0 51.5 18t32.5 48q2 5 2.5 6.5t3 2.5t7.5 1q12 0 14 -7zM778 663q-1 -5 -7 -11l-580 -643q-8 -10 -20 -10q-9 0 -13.5 6t-2.5 15q2 7 6 11l581 644q8 9 20 9q9 0 13.5 -6t2.5 -15z" />
    <glyph glyph-name="threequarters" unicode="&#xbe;" horiz-adv-x="828" 
d="M471 427q3 -53 -52.5 -93.5t-125.5 -40.5q-48 0 -75 22.5t-29 54.5q-1 3 0 10.5t3 15.5t10.5 14t21.5 6q25 0 25 -20q0 -4 -1.5 -9t-10 -12t-24.5 -7q4 -31 26.5 -45.5t51.5 -14.5q58 0 92 40q15 17 23.5 42t9.5 41l1 16q-3 50 -61 50h-21q-20 0 -20 7q0 8 4 10t15 2h18
q56 0 88 32q34 34 34 90q-1 25 -19.5 38.5t-45.5 13.5q-52 0 -92.5 -32.5t-38.5 -67.5q0 -22 18 -22q16 0 29.5 10.5t12.5 24.5q0 4 -8 20l-3 4q0 8 9 8q7 0 13.5 -10.5t6.5 -20.5q1 -22 -18.5 -36.5t-40.5 -14.5q-41 0 -45 40q-2 38 45.5 75t111.5 37q47 0 78.5 -22.5
t32.5 -58.5q2 -36 -28.5 -70.5t-82.5 -49.5q25 -8 43 -28.5t19 -48.5zM749 9q1 -7 -24 -12.5t-44 -5.5q-10 0 -14 1l-17 -68q-4 -17 -6.5 -23.5t-9 -11.5t-17.5 -5q-20 0 -22 16q0 4 2 12l22 89l-46 14q-23 7 -52 7q-43 0 -57 -9q-21 -13 -23 -13q-5 0 -8.5 4t-2.5 6
q-1 10 28 24q9 4 29 21q73 60 119 144q36 64 52 120l17 60q6 21 29 21q20 0 22 -17q-2 -12 -9 -37t-33.5 -81.5t-63.5 -104.5q-44 -59 -119 -120h20q30 0 57 -7q7 -1 11 -2.5t13 -4t22 -6.5l24 96q7 29 30 29q22 0 22 -17q2 -4 -6 -27q-1 -5 -2.5 -11.5t-3.5 -13.5l-16 -64
q0 -2 11 -2q20 0 46 7l9 2q4 0 7.5 -3.5t3.5 -6.5zM852 663q-2 -7 -6 -11l-581 -643q-8 -10 -20 -10q-8 0 -12.5 6t-2.5 15q2 7 6 11l581 644q7 9 20 9q8 0 12.5 -6t2.5 -15z" />
    <glyph glyph-name="questiondown" unicode="&#xbf;" 
d="M429 456q0 -24 -20 -44t-45 -20q-22 0 -34 13t-12 31q0 24 20 44t45 20q22 0 34 -13t12 -31zM454 37q0 -19 -16.5 -58.5t-45.5 -84t-77.5 -77.5t-103.5 -33t-89.5 36t-34.5 90q0 94 96 170l57 44l93 71q27 24 27 59q0 32 -26 32q-22 0 -45 -18.5t-34 -49.5
q-2 -9 -5 -11.5t-13 -2.5q-17 0 -17 12q0 24 34 59.5t81 35.5q33 0 48 -22.5t15 -48.5q0 -23 -6 -41.5t-20.5 -35t-25 -25.5t-31.5 -26q-12 -8 -44 -34q-45 -33 -66 -51q-80 -59 -80 -131q0 -39 24.5 -63t62.5 -24q62 0 114.5 53t79.5 127q-34 3 -34 32q0 19 14.5 33.5
t33.5 14.5q15 0 24.5 -8.5t9.5 -23.5z" />
    <glyph glyph-name="Agrave" unicode="&#xc0;" horiz-adv-x="763" 
d="M709 18q0 -18 -18 -18q-16 0 -51.5 1.5t-53.5 1.5q-19 0 -56.5 -1.5t-55.5 -1.5q-15 0 -15 13q0 18 26 18q25 0 40.5 6.5t19 12.5t3.5 12l-13 170h-238l-73 -127q-15 -29 -15 -41q0 -30 42 -33q14 0 14 -13q0 -18 -18 -18q-14 0 -45.5 1.5t-47.5 1.5q-22 0 -41 -0.5
t-29 -1.5l-11 -1q-12 0 -12 13q0 16 21 18q13 1 23.5 3.5t26 10.5t32 26t32.5 46l334 579q11 20 30 20q12 0 15.5 -4.5t4.5 -18.5l49 -628q2 -22 10.5 -28t46.5 -6q23 0 23 -13zM533 263l-26 330l-191 -330h217zM643 766q-2 -6 -10 -12.5t-14 -7.5l-13 3l-135 91
q-19 13 -13 31q5 15 18.5 25t29.5 10q12 0 22 -12l108 -114q9 -9 7 -14z" />
    <glyph glyph-name="Aacute" unicode="&#xc1;" horiz-adv-x="763" 
d="M709 18q0 -18 -18 -18q-16 0 -51.5 1.5t-53.5 1.5q-19 0 -56.5 -1.5t-55.5 -1.5q-15 0 -15 13q0 18 26 18q25 0 40.5 6.5t19 12.5t3.5 12l-13 170h-238l-73 -127q-15 -29 -15 -41q0 -30 42 -33q14 0 14 -13q0 -18 -18 -18q-14 0 -45.5 1.5t-47.5 1.5q-22 0 -41 -0.5
t-29 -1.5l-11 -1q-12 0 -12 13q0 16 21 18q13 1 23.5 3.5t26 10.5t32 26t32.5 46l334 579q11 20 30 20q12 0 15.5 -4.5t4.5 -18.5l49 -628q2 -22 10.5 -28t46.5 -6q23 0 23 -13zM533 263l-26 330l-191 -330h217zM740 871q-3 -18 -29 -31l-180 -91q-9 -4 -15 -3t-10.5 7.5
t-3.5 12.5q1 5 14 14l165 114q17 12 29 12q15 0 23.5 -10t6.5 -25z" />
    <glyph glyph-name="Acircumflex" unicode="&#xc2;" horiz-adv-x="763" 
d="M709 18q0 -18 -18 -18q-16 0 -51.5 1.5t-53.5 1.5q-19 0 -56.5 -1.5t-55.5 -1.5q-15 0 -15 13q0 18 26 18q25 0 40.5 6.5t19 12.5t3.5 12l-13 170h-238l-73 -127q-15 -29 -15 -41q0 -30 42 -33q14 0 14 -13q0 -18 -18 -18q-14 0 -45.5 1.5t-47.5 1.5q-22 0 -41 -0.5
t-29 -1.5l-11 -1q-12 0 -12 13q0 16 21 18q13 1 23.5 3.5t26 10.5t32 26t32.5 46l334 579q11 20 30 20q12 0 15.5 -4.5t4.5 -18.5l49 -628q2 -22 10.5 -28t46.5 -6q23 0 23 -13zM533 263l-26 330l-191 -330h217zM706 755q6 -5 -1 -13.5t-14 -4.5l-112 55l-140 -55
q-6 -2 -10 1t-3 8.5t7 8.5l155 98q7 3 12 0z" />
    <glyph glyph-name="Atilde" unicode="&#xc3;" horiz-adv-x="763" 
d="M709 18q0 -18 -18 -18q-16 0 -51.5 1.5t-53.5 1.5q-19 0 -56.5 -1.5t-55.5 -1.5q-15 0 -15 13q0 18 26 18q25 0 40.5 6.5t19 12.5t3.5 12l-13 170h-238l-73 -127q-15 -29 -15 -41q0 -30 42 -33q14 0 14 -13q0 -18 -18 -18q-14 0 -45.5 1.5t-47.5 1.5q-22 0 -41 -0.5
t-29 -1.5l-11 -1q-12 0 -12 13q0 16 21 18q13 1 23.5 3.5t26 10.5t32 26t32.5 46l334 579q11 20 30 20q12 0 15.5 -4.5t4.5 -18.5l49 -628q2 -22 10.5 -28t46.5 -6q23 0 23 -13zM533 263l-26 330l-191 -330h217zM745 827q0 -7 -52 -52q-49 -39 -79 -39q-13 0 -24 7
t-15.5 12.5t-17.5 23.5q-15 23 -29 23q-32 0 -88 -56q-12 -10 -16 -10q-12 0 -12 13q0 7 20 25.5t36 29.5q44 36 74 36t52 -37q18 -29 34 -29q7 0 16 3.5t17.5 9t18 12t15.5 12t12 10.5l6 5q14 14 20 14q12 0 12 -13z" />
    <glyph glyph-name="Adieresis" unicode="&#xc4;" horiz-adv-x="763" 
d="M709 18q0 -18 -18 -18q-16 0 -51.5 1.5t-53.5 1.5q-19 0 -56.5 -1.5t-55.5 -1.5q-15 0 -15 13q0 18 26 18q25 0 40.5 6.5t19 12.5t3.5 12l-13 170h-238l-73 -127q-15 -29 -15 -41q0 -30 42 -33q14 0 14 -13q0 -18 -18 -18q-14 0 -45.5 1.5t-47.5 1.5q-22 0 -41 -0.5
t-29 -1.5l-11 -1q-12 0 -12 13q0 16 21 18q13 1 23.5 3.5t26 10.5t32 26t32.5 46l334 579q11 20 30 20q12 0 15.5 -4.5t4.5 -18.5l49 -628q2 -22 10.5 -28t46.5 -6q23 0 23 -13zM533 263l-26 330l-191 -330h217zM521 794q0 -23 -18.5 -40.5t-40.5 -17.5q-16 0 -28.5 11
t-11.5 29q0 23 18 40.5t40 17.5q16 0 28 -11t13 -29zM734 794q0 -23 -18.5 -40.5t-40.5 -17.5q-16 0 -28.5 11t-11.5 29q0 23 18 40.5t40 17.5q16 0 28 -11t13 -29z" />
    <glyph glyph-name="Aring" unicode="&#xc5;" horiz-adv-x="763" 
d="M709 18q0 -18 -18 -18q-16 0 -51.5 1.5t-53.5 1.5q-19 0 -56.5 -1.5t-55.5 -1.5q-15 0 -15 13q0 18 26 18q25 0 40.5 6.5t19 12.5t3.5 12l-13 170h-238l-73 -127q-15 -29 -15 -41q0 -30 42 -33q14 0 14 -13q0 -18 -18 -18q-14 0 -45.5 1.5t-47.5 1.5q-22 0 -41 -0.5
t-29 -1.5l-11 -1q-12 0 -12 13q0 16 21 18q13 1 23.5 3.5t26 10.5t32 26t32.5 46l334 579q11 20 30 20q12 0 15.5 -4.5t4.5 -18.5l49 -628q2 -22 10.5 -28t46.5 -6q23 0 23 -13zM533 263l-26 330l-191 -330h217zM642 826q0 34 -47 34q-20 0 -34.5 -8.5t-21 -18t-10.5 -23.5
t-4 -18.5v-9.5q0 -34 45 -34q20 0 35 8t21.5 18t10.5 23t4.5 19t0.5 10zM682 824q-1 -41 -38 -74.5t-83 -33.5q-33 0 -54.5 19t-21.5 49q0 43 37 75.5t83 32.5q34 0 55.5 -19.5t21.5 -48.5z" />
    <glyph glyph-name="AE" unicode="&#xc6;" horiz-adv-x="906" 
d="M914 245q0 -3 -6 -16l-87 -211q-5 -13 -9.5 -15.5t-21.5 -2.5h-410q-10 0 -14.5 0.5t-8.5 3.5t-4 9q0 12 6 15t21 3q32 0 41.5 7t15.5 31l61 244h-149l-124 -209q-15 -26 -15 -41q0 -28 41 -32q14 0 14 -13q0 -18 -18 -18q-14 0 -45.5 1.5t-46.5 1.5q-14 0 -41.5 -1.5
t-39.5 -1.5q-13 0 -13 13q0 16 19 18q34 3 61 20t55 64l318 536q-8 1 -28 1h-19q-10 0 -14.5 0.5t-8.5 3.5t-4 9q0 12 6 15t22 3h474q26 0 26 -13l-1 -15l-21 -174q-1 -10 -2 -13.5t-5 -6.5t-11 -3q-17 0 -17 15q0 4 1 14q6 40 6 69q0 51 -23.5 73.5t-99.5 22.5h-98
q-18 0 -25 -1.5t-13 -9t-10 -25.5l-67 -272h81q56 0 79 18.5t36 73.5q5 17 8 21t13 4q17 0 17 -13q0 -2 -1.5 -6.5t-1.5 -6.5l-55 -219q-3 -13 -6 -16.5t-13 -3.5q-16 0 -16 13q0 6 4 21q6 30 6 42q0 14 -2.5 21t-19 13.5t-50.5 6.5h-87l-63 -250q-4 -14 -4 -29q10 -3 29 -3
h99q54 0 90.5 11t63 40t42.5 58.5t41 88.5q12 26 13 26q4 3 12 3q17 0 17 -13zM506 344l67 270q2 8 2 15q0 10 -4 13t-15 5l-8 2l-180 -305h138z" />
    <glyph glyph-name="Ccedilla" unicode="&#xc7;" horiz-adv-x="735" 
d="M827 680l-61 -242q-3 -12 -6 -15.5t-13 -3.5q-17 0 -17 12q0 2 1 9t2 19.5t1 27.5q0 83 -38 135t-110 52q-59 0 -122 -33t-114 -97q-57 -71 -84.5 -169t-27.5 -164q0 -101 52.5 -151.5t124.5 -50.5q30 0 63.5 11t73 35t75 73t55.5 115q3 8 17 8q17 0 17 -12
q0 -5 -5 -20.5t-17 -41t-27 -46.5q-51 -73 -121 -113t-142 -40h-7l-8 -31q63 -11 63 -56q0 -23 -14.5 -40t-34.5 -25.5t-50.5 -13t-52 -5.5t-50.5 -1h-27q-12 1 -12 13t26 12h12q135 0 135 60q0 32 -50 36q-14 0 -14 13q0 3 10 48q-82 23 -130.5 92.5t-48.5 166.5
q0 85 37.5 169.5t97 147.5t138 102t155.5 39q104 0 157 -87l75 87q18 0 18 -11q0 -6 -2 -14z" />
    <glyph glyph-name="Egrave" unicode="&#xc8;" horiz-adv-x="696" 
d="M704 245q0 -3 -6 -16l-87 -211q-5 -13 -9.5 -15.5t-21.5 -2.5h-487q-10 0 -14.5 0.5t-8.5 3.5t-4 9q0 12 6 15t21 3q49 0 62 7.5t20 34.5l134 538q4 15 4 21q0 7 -2 9.5t-15 5t-41 2.5q-10 0 -14.5 0.5t-8 3.5t-3.5 9q0 12 6.5 15t21.5 3h474q10 0 14.5 -0.5t8.5 -3.5
t4 -10l-23 -188q-2 -14 -4.5 -18.5t-13.5 -4.5q-17 0 -17 15q0 9 3 21l3 54q0 56 -25.5 80t-109.5 24h-132q-26 0 -34 -5t-14 -29l-61 -246h86q59 0 82.5 19t37.5 76q4 15 7 18.5t13 3.5q17 0 17 -13q0 -4 -4 -18l-53 -214q-2 -9 -5 -13.5t-6 -5.5t-9 -1q-16 0 -16 13
q0 4 4 18q6 24 6 44q0 22 -14 32t-62 10h-92l-69 -275q-4 -14 -4 -29q10 -3 29 -3h131q47 0 81 8t58.5 21.5t45 40t34.5 54t34 73.5q12 27 13 27q4 3 12 3q17 0 17 -13zM610 766q-2 -6 -10 -12.5t-14 -7.5l-13 3l-135 91q-19 13 -13 31q5 15 18.5 25t29.5 10q12 0 22 -12
l108 -114q9 -9 7 -14z" />
    <glyph glyph-name="Eacute" unicode="&#xc9;" horiz-adv-x="696" 
d="M704 245q0 -3 -6 -16l-87 -211q-5 -13 -9.5 -15.5t-21.5 -2.5h-487q-10 0 -14.5 0.5t-8.5 3.5t-4 9q0 12 6 15t21 3q49 0 62 7.5t20 34.5l134 538q4 15 4 21q0 7 -2 9.5t-15 5t-41 2.5q-10 0 -14.5 0.5t-8 3.5t-3.5 9q0 12 6.5 15t21.5 3h474q10 0 14.5 -0.5t8.5 -3.5
t4 -10l-23 -188q-2 -14 -4.5 -18.5t-13.5 -4.5q-17 0 -17 15q0 9 3 21l3 54q0 56 -25.5 80t-109.5 24h-132q-26 0 -34 -5t-14 -29l-61 -246h86q59 0 82.5 19t37.5 76q4 15 7 18.5t13 3.5q17 0 17 -13q0 -4 -4 -18l-53 -214q-2 -9 -5 -13.5t-6 -5.5t-9 -1q-16 0 -16 13
q0 4 4 18q6 24 6 44q0 22 -14 32t-62 10h-92l-69 -275q-4 -14 -4 -29q10 -3 29 -3h131q47 0 81 8t58.5 21.5t45 40t34.5 54t34 73.5q12 27 13 27q4 3 12 3q17 0 17 -13zM707 871q-3 -18 -29 -31l-180 -91q-9 -4 -15 -3t-10.5 7.5t-3.5 12.5q1 5 14 14l165 114q17 12 29 12
q15 0 23.5 -10t6.5 -25z" />
    <glyph glyph-name="Ecircumflex" unicode="&#xca;" horiz-adv-x="696" 
d="M704 245q0 -3 -6 -16l-87 -211q-5 -13 -9.5 -15.5t-21.5 -2.5h-487q-10 0 -14.5 0.5t-8.5 3.5t-4 9q0 12 6 15t21 3q49 0 62 7.5t20 34.5l134 538q4 15 4 21q0 7 -2 9.5t-15 5t-41 2.5q-10 0 -14.5 0.5t-8 3.5t-3.5 9q0 12 6.5 15t21.5 3h474q10 0 14.5 -0.5t8.5 -3.5
t4 -10l-23 -188q-2 -14 -4.5 -18.5t-13.5 -4.5q-17 0 -17 15q0 9 3 21l3 54q0 56 -25.5 80t-109.5 24h-132q-26 0 -34 -5t-14 -29l-61 -246h86q59 0 82.5 19t37.5 76q4 15 7 18.5t13 3.5q17 0 17 -13q0 -4 -4 -18l-53 -214q-2 -9 -5 -13.5t-6 -5.5t-9 -1q-16 0 -16 13
q0 4 4 18q6 24 6 44q0 22 -14 32t-62 10h-92l-69 -275q-4 -14 -4 -29q10 -3 29 -3h131q47 0 81 8t58.5 21.5t45 40t34.5 54t34 73.5q12 27 13 27q4 3 12 3q17 0 17 -13zM673 755q6 -5 -1 -13.5t-14 -4.5l-112 55l-140 -55q-6 -2 -10 1t-3 8.5t7 8.5l155 98q7 3 12 0z" />
    <glyph glyph-name="Edieresis" unicode="&#xcb;" horiz-adv-x="696" 
d="M704 245q0 -3 -6 -16l-87 -211q-5 -13 -9.5 -15.5t-21.5 -2.5h-487q-10 0 -14.5 0.5t-8.5 3.5t-4 9q0 12 6 15t21 3q49 0 62 7.5t20 34.5l134 538q4 15 4 21q0 7 -2 9.5t-15 5t-41 2.5q-10 0 -14.5 0.5t-8 3.5t-3.5 9q0 12 6.5 15t21.5 3h474q10 0 14.5 -0.5t8.5 -3.5
t4 -10l-23 -188q-2 -14 -4.5 -18.5t-13.5 -4.5q-17 0 -17 15q0 9 3 21l3 54q0 56 -25.5 80t-109.5 24h-132q-26 0 -34 -5t-14 -29l-61 -246h86q59 0 82.5 19t37.5 76q4 15 7 18.5t13 3.5q17 0 17 -13q0 -4 -4 -18l-53 -214q-2 -9 -5 -13.5t-6 -5.5t-9 -1q-16 0 -16 13
q0 4 4 18q6 24 6 44q0 22 -14 32t-62 10h-92l-69 -275q-4 -14 -4 -29q10 -3 29 -3h131q47 0 81 8t58.5 21.5t45 40t34.5 54t34 73.5q12 27 13 27q4 3 12 3q17 0 17 -13zM488 794q0 -23 -18.5 -40.5t-40.5 -17.5q-16 0 -28.5 11t-11.5 29q0 23 18 40.5t40 17.5q16 0 28 -11
t13 -29zM701 794q0 -23 -18.5 -40.5t-40.5 -17.5q-16 0 -28.5 11t-11.5 29q0 23 18 40.5t40 17.5q16 0 28 -11t13 -29z" />
    <glyph glyph-name="Igrave" unicode="&#xcc;" horiz-adv-x="396" 
d="M341 18q0 -18 -19 -18q-20 0 -61 1.5t-62 1.5q-20 0 -61.5 -1.5t-60.5 -1.5q-14 0 -14 13q0 12 6.5 15t25.5 3q47 0 61 8t20 34l135 540l4 22q0 11 -15 14t-48 3q-10 0 -14.5 0.5t-8 3.5t-3.5 9q0 18 19 18q20 0 61 -1.5t62 -1.5q20 0 61 1.5t60 1.5q15 0 15 -13
q0 -12 -6 -15t-23 -3q-36 0 -52.5 -4.5t-21.5 -11.5t-10 -26l-135 -541q-4 -14 -4 -20q0 -7 2 -10t16.5 -5.5t43.5 -2.5q10 0 14.5 -0.5t8.5 -3.5t4 -9zM460 766q-2 -6 -10 -12.5t-14 -7.5l-13 3l-135 91q-19 13 -13 31q5 15 18.5 25t29.5 10q12 0 22 -12l108 -114
q9 -9 7 -14z" />
    <glyph glyph-name="Iacute" unicode="&#xcd;" horiz-adv-x="396" 
d="M341 18q0 -18 -19 -18q-20 0 -61 1.5t-62 1.5q-20 0 -61.5 -1.5t-60.5 -1.5q-14 0 -14 13q0 12 6.5 15t25.5 3q47 0 61 8t20 34l135 540l4 22q0 11 -15 14t-48 3q-10 0 -14.5 0.5t-8 3.5t-3.5 9q0 18 19 18q20 0 61 -1.5t62 -1.5q20 0 61 1.5t60 1.5q15 0 15 -13
q0 -12 -6 -15t-23 -3q-36 0 -52.5 -4.5t-21.5 -11.5t-10 -26l-135 -541q-4 -14 -4 -20q0 -7 2 -10t16.5 -5.5t43.5 -2.5q10 0 14.5 -0.5t8.5 -3.5t4 -9zM557 871q-3 -18 -29 -31l-180 -91q-9 -4 -15 -3t-10.5 7.5t-3.5 12.5q1 5 14 14l165 114q17 12 29 12q15 0 23.5 -10
t6.5 -25z" />
    <glyph glyph-name="Icircumflex" unicode="&#xce;" horiz-adv-x="396" 
d="M341 18q0 -18 -19 -18q-20 0 -61 1.5t-62 1.5q-20 0 -61.5 -1.5t-60.5 -1.5q-14 0 -14 13q0 12 6.5 15t25.5 3q47 0 61 8t20 34l135 540l4 22q0 11 -15 14t-48 3q-10 0 -14.5 0.5t-8 3.5t-3.5 9q0 18 19 18q20 0 61 -1.5t62 -1.5q20 0 61 1.5t60 1.5q15 0 15 -13
q0 -12 -6 -15t-23 -3q-36 0 -52.5 -4.5t-21.5 -11.5t-10 -26l-135 -541q-4 -14 -4 -20q0 -7 2 -10t16.5 -5.5t43.5 -2.5q10 0 14.5 -0.5t8.5 -3.5t4 -9zM523 755q6 -5 -1 -13.5t-14 -4.5l-112 55l-140 -55q-6 -2 -10 1t-3 8.5t7 8.5l155 98q7 3 12 0z" />
    <glyph glyph-name="Idieresis" unicode="&#xcf;" horiz-adv-x="396" 
d="M341 18q0 -18 -19 -18q-20 0 -61 1.5t-62 1.5q-20 0 -61.5 -1.5t-60.5 -1.5q-14 0 -14 13q0 12 6.5 15t25.5 3q47 0 61 8t20 34l135 540l4 22q0 11 -15 14t-48 3q-10 0 -14.5 0.5t-8 3.5t-3.5 9q0 18 19 18q20 0 61 -1.5t62 -1.5q20 0 61 1.5t60 1.5q15 0 15 -13
q0 -12 -6 -15t-23 -3q-36 0 -52.5 -4.5t-21.5 -11.5t-10 -26l-135 -541q-4 -14 -4 -20q0 -7 2 -10t16.5 -5.5t43.5 -2.5q10 0 14.5 -0.5t8.5 -3.5t4 -9zM338 794q0 -23 -18.5 -40.5t-40.5 -17.5q-16 0 -28.5 11t-11.5 29q0 23 18 40.5t40 17.5q16 0 28 -11t13 -29zM551 794
q0 -23 -18.5 -40.5t-40.5 -17.5q-16 0 -28.5 11t-11.5 29q0 23 18 40.5t40 17.5q16 0 28 -11t13 -29z" />
    <glyph glyph-name="Eth" unicode="&#xd0;" horiz-adv-x="775" 
d="M793 436q0 -109 -56 -210.5t-146 -163.5t-186 -62h-310q-10 0 -14.5 0.5t-8.5 3.5t-4 9q0 12 6 15t21 3q49 0 62 7.5t20 34.5l63 254h-94q-16 0 -11 15q4 15 18 15h95l64 258q4 14 4 20t-2 9t-15.5 5.5t-40.5 2.5q-10 0 -14.5 0.5t-8.5 3.5t-4 9q0 12 6.5 15t21.5 3h316
q102 0 160 -71.5t58 -175.5zM711 472q0 85 -45.5 132.5t-122.5 47.5h-105q-18 0 -25 -1.5t-13 -9t-10 -25.5l-65 -259h152q6 0 9.5 -4.5t1.5 -10.5q-3 -15 -19 -15h-151l-66 -264q-4 -14 -4 -29q10 -3 29 -3h111q67 0 126 33t100 90q46 64 71.5 163t25.5 155z" />
    <glyph glyph-name="Ntilde" unicode="&#xd1;" horiz-adv-x="763" 
d="M866 670q0 -18 -19 -18q-38 -2 -62.5 -17.5t-35.5 -57.5l-139 -557q-3 -13 -6 -16.5t-14 -3.5t-13.5 2.5t-7.5 14.5l-222 592l-128 -510q-4 -16 -4 -26q0 -11 3 -19t17 -15t39 -8q18 0 18 -13q0 -18 -18 -18q-15 0 -48.5 1.5t-49.5 1.5t-48.5 -1.5t-47.5 -1.5
q-14 0 -14 13q0 18 16 18q24 1 40 4.5t34.5 20t25.5 46.5l132 529l3 13q0 8 -57 8q-13 0 -18 0.5t-9 3.5t-4 9q0 12 6.5 15t21.5 3h120q16 0 20.5 -2.5t9.5 -16.5l196 -523l112 451q3 10 3 18q0 40 -58 42q-20 0 -20 13q0 18 18 18q15 0 48.5 -1.5t50.5 -1.5q16 0 48.5 1.5
t47.5 1.5q13 0 13 -13zM745 827q0 -7 -52 -52q-49 -39 -79 -39q-13 0 -24 7t-15.5 12.5t-17.5 23.5q-15 23 -29 23q-32 0 -88 -56q-12 -10 -16 -10q-12 0 -12 13q0 7 20 25.5t36 29.5q44 36 74 36t52 -37q18 -29 34 -29q7 0 16 3.5t17.5 9t18 12t15.5 12t12 10.5l6 5
q14 14 20 14q12 0 12 -13z" />
    <glyph glyph-name="Ograve" unicode="&#xd2;" horiz-adv-x="787" 
d="M806 441q0 -115 -61 -223t-158.5 -174t-198.5 -66q-104 0 -171 71.5t-67 189.5q0 114 61 223t159 176t199 67q105 0 171 -73.5t66 -190.5zM721 479q0 98 -46.5 148t-112.5 50q-55 0 -112.5 -34t-102.5 -94q-56 -75 -81.5 -170.5t-25.5 -165.5q0 -104 45.5 -154.5
t109.5 -50.5q89 0 166 78t118.5 186t41.5 207zM655 766q-2 -6 -10 -12.5t-14 -7.5l-13 3l-135 91q-19 13 -13 31q5 15 18.5 25t29.5 10q12 0 22 -12l108 -114q9 -9 7 -14z" />
    <glyph glyph-name="Oacute" unicode="&#xd3;" horiz-adv-x="787" 
d="M806 441q0 -115 -61 -223t-158.5 -174t-198.5 -66q-104 0 -171 71.5t-67 189.5q0 114 61 223t159 176t199 67q105 0 171 -73.5t66 -190.5zM721 479q0 98 -46.5 148t-112.5 50q-55 0 -112.5 -34t-102.5 -94q-56 -75 -81.5 -170.5t-25.5 -165.5q0 -104 45.5 -154.5
t109.5 -50.5q89 0 166 78t118.5 186t41.5 207zM752 871q-3 -18 -29 -31l-180 -91q-9 -4 -15 -3t-10.5 7.5t-3.5 12.5q1 5 14 14l165 114q17 12 29 12q15 0 23.5 -10t6.5 -25z" />
    <glyph glyph-name="Ocircumflex" unicode="&#xd4;" horiz-adv-x="787" 
d="M806 441q0 -115 -61 -223t-158.5 -174t-198.5 -66q-104 0 -171 71.5t-67 189.5q0 114 61 223t159 176t199 67q105 0 171 -73.5t66 -190.5zM721 479q0 98 -46.5 148t-112.5 50q-55 0 -112.5 -34t-102.5 -94q-56 -75 -81.5 -170.5t-25.5 -165.5q0 -104 45.5 -154.5
t109.5 -50.5q89 0 166 78t118.5 186t41.5 207zM718 755q6 -5 -1 -13.5t-14 -4.5l-112 55l-140 -55q-6 -2 -10 1t-3 8.5t7 8.5l155 98q7 3 12 0z" />
    <glyph glyph-name="Otilde" unicode="&#xd5;" horiz-adv-x="787" 
d="M806 441q0 -115 -61 -223t-158.5 -174t-198.5 -66q-104 0 -171 71.5t-67 189.5q0 114 61 223t159 176t199 67q105 0 171 -73.5t66 -190.5zM721 479q0 98 -46.5 148t-112.5 50q-55 0 -112.5 -34t-102.5 -94q-56 -75 -81.5 -170.5t-25.5 -165.5q0 -104 45.5 -154.5
t109.5 -50.5q89 0 166 78t118.5 186t41.5 207zM757 827q0 -7 -52 -52q-49 -39 -79 -39q-13 0 -24 7t-15.5 12.5t-17.5 23.5q-15 23 -29 23q-32 0 -88 -56q-12 -10 -16 -10q-12 0 -12 13q0 7 20 25.5t36 29.5q44 36 74 36t52 -37q18 -29 34 -29q7 0 16 3.5t17.5 9t18 12
t15.5 12t12 10.5l6 5q14 14 20 14q12 0 12 -13z" />
    <glyph glyph-name="Odieresis" unicode="&#xd6;" horiz-adv-x="787" 
d="M806 441q0 -115 -61 -223t-158.5 -174t-198.5 -66q-104 0 -171 71.5t-67 189.5q0 114 61 223t159 176t199 67q105 0 171 -73.5t66 -190.5zM721 479q0 98 -46.5 148t-112.5 50q-55 0 -112.5 -34t-102.5 -94q-56 -75 -81.5 -170.5t-25.5 -165.5q0 -104 45.5 -154.5
t109.5 -50.5q89 0 166 78t118.5 186t41.5 207zM533 794q0 -23 -18.5 -40.5t-40.5 -17.5q-16 0 -28.5 11t-11.5 29q0 23 18 40.5t40 17.5q16 0 28 -11t13 -29zM746 794q0 -23 -18.5 -40.5t-40.5 -17.5q-16 0 -28.5 11t-11.5 29q0 23 18 40.5t40 17.5q16 0 28 -11t13 -29z" />
    <glyph glyph-name="multiply" unicode="&#xd7;" horiz-adv-x="787" 
d="M628 33q-20 -16 -36 -4l-145 191l-222 -178q-31 -25 -48 -14q-16 12 15 36l233 186l-142 190q-16 16 1 29q20 16 36 4l145 -191l222 178q31 23 46 13q18 -12 -13 -35l-233 -186l142 -188q15 -19 -1 -31z" />
    <glyph glyph-name="Oslash" unicode="&#xd8;" horiz-adv-x="787" 
d="M806 441q0 -115 -61 -223t-158.5 -174t-198.5 -66q-92 0 -161 61l-81 -91q-9 -10 -14 -10q-6 0 -10 4.5t-4 9.5q0 7 58 71q4 4 32 37q-58 72 -58 179q0 114 61 223t159 176t199 67q95 0 160 -62l80 91q9 11 16 11q6 0 10 -4.5t4 -9.5q0 -7 -44 -55q-19 -19 -47 -54
q58 -74 58 -181zM699 611q-49 69 -136 69q-69 0 -135.5 -43.5t-109.5 -110.5q-49 -78 -72.5 -174t-23.5 -152t20 -103zM733 480q0 64 -20 105l-456 -513q46 -69 137 -69q56 0 116 31.5t109 93.5q56 72 85 176.5t29 175.5z" />
    <glyph glyph-name="Ugrave" unicode="&#xd9;" horiz-adv-x="763" 
d="M866 670q0 -18 -19 -18q-18 -1 -31 -4t-27 -10t-24 -22.5t-16 -38.5l-88 -356q-23 -94 -101.5 -168.5t-170.5 -74.5q-78 0 -130.5 52t-52.5 137q0 29 9 67l95 381q4 14 4 20t-2 9t-15.5 5.5t-40.5 2.5q-10 0 -14.5 0.5t-8.5 3.5t-4 9q0 18 19 18t59 -1.5t60 -1.5t59 1.5
t58 1.5q14 0 14 -13q0 -12 -6.5 -15t-22.5 -3q-46 0 -59.5 -7.5t-19.5 -33.5l-99 -397q-10 -36 -10 -77q0 -66 32.5 -97t78.5 -31q75 0 144.5 64.5t91.5 155.5l90 363q3 10 3 18q0 40 -58 42q-20 0 -20 13q0 18 18 18q15 0 48 -1.5t49 -1.5t48 1.5t47 1.5q13 0 13 -13z
M666 766q-2 -6 -10 -12.5t-14 -7.5l-13 3l-135 91q-19 13 -13 31q5 15 18.5 25t29.5 10q12 0 22 -12l108 -114q9 -9 7 -14z" />
    <glyph glyph-name="Uacute" unicode="&#xda;" horiz-adv-x="763" 
d="M866 670q0 -18 -19 -18q-18 -1 -31 -4t-27 -10t-24 -22.5t-16 -38.5l-88 -356q-23 -94 -101.5 -168.5t-170.5 -74.5q-78 0 -130.5 52t-52.5 137q0 29 9 67l95 381q4 14 4 20t-2 9t-15.5 5.5t-40.5 2.5q-10 0 -14.5 0.5t-8.5 3.5t-4 9q0 18 19 18t59 -1.5t60 -1.5t59 1.5
t58 1.5q14 0 14 -13q0 -12 -6.5 -15t-22.5 -3q-46 0 -59.5 -7.5t-19.5 -33.5l-99 -397q-10 -36 -10 -77q0 -66 32.5 -97t78.5 -31q75 0 144.5 64.5t91.5 155.5l90 363q3 10 3 18q0 40 -58 42q-20 0 -20 13q0 18 18 18q15 0 48 -1.5t49 -1.5t48 1.5t47 1.5q13 0 13 -13z
M763 871q-3 -18 -29 -31l-180 -91q-9 -4 -15 -3t-10.5 7.5t-3.5 12.5q1 5 14 14l165 114q17 12 29 12q15 0 23.5 -10t6.5 -25z" />
    <glyph glyph-name="Ucircumflex" unicode="&#xdb;" horiz-adv-x="763" 
d="M866 670q0 -18 -19 -18q-18 -1 -31 -4t-27 -10t-24 -22.5t-16 -38.5l-88 -356q-23 -94 -101.5 -168.5t-170.5 -74.5q-78 0 -130.5 52t-52.5 137q0 29 9 67l95 381q4 14 4 20t-2 9t-15.5 5.5t-40.5 2.5q-10 0 -14.5 0.5t-8.5 3.5t-4 9q0 18 19 18t59 -1.5t60 -1.5t59 1.5
t58 1.5q14 0 14 -13q0 -12 -6.5 -15t-22.5 -3q-46 0 -59.5 -7.5t-19.5 -33.5l-99 -397q-10 -36 -10 -77q0 -66 32.5 -97t78.5 -31q75 0 144.5 64.5t91.5 155.5l90 363q3 10 3 18q0 40 -58 42q-20 0 -20 13q0 18 18 18q15 0 48 -1.5t49 -1.5t48 1.5t47 1.5q13 0 13 -13z
M729 755q6 -5 -1 -13.5t-14 -4.5l-112 55l-140 -55q-6 -2 -10 1t-3 8.5t7 8.5l155 98q7 3 12 0z" />
    <glyph glyph-name="Udieresis" unicode="&#xdc;" horiz-adv-x="763" 
d="M866 670q0 -18 -19 -18q-18 -1 -31 -4t-27 -10t-24 -22.5t-16 -38.5l-88 -356q-23 -94 -101.5 -168.5t-170.5 -74.5q-78 0 -130.5 52t-52.5 137q0 29 9 67l95 381q4 14 4 20t-2 9t-15.5 5.5t-40.5 2.5q-10 0 -14.5 0.5t-8.5 3.5t-4 9q0 18 19 18t59 -1.5t60 -1.5t59 1.5
t58 1.5q14 0 14 -13q0 -12 -6.5 -15t-22.5 -3q-46 0 -59.5 -7.5t-19.5 -33.5l-99 -397q-10 -36 -10 -77q0 -66 32.5 -97t78.5 -31q75 0 144.5 64.5t91.5 155.5l90 363q3 10 3 18q0 40 -58 42q-20 0 -20 13q0 18 18 18q15 0 48 -1.5t49 -1.5t48 1.5t47 1.5q13 0 13 -13z
M544 794q0 -23 -18.5 -40.5t-40.5 -17.5q-16 0 -28.5 11t-11.5 29q0 23 18 40.5t40 17.5q16 0 28 -11t13 -29zM757 794q0 -23 -18.5 -40.5t-40.5 -17.5q-16 0 -28.5 11t-11.5 29q0 23 18 40.5t40 17.5q16 0 28 -11t13 -29z" />
    <glyph glyph-name="Yacute" unicode="&#xdd;" horiz-adv-x="763" 
d="M891 670q0 -16 -20 -18q-69 -7 -128 -77l-255 -303q-9 -37 -20.5 -82.5t-22.5 -90.5q-11 -44 -11 -50q0 -7 2 -10t15 -5.5t41 -2.5q10 0 14.5 -0.5t8 -3.5t3.5 -9q0 -18 -19 -18q-18 0 -57.5 1.5t-59.5 1.5q-19 0 -58 -1.5t-57 -1.5q-15 0 -15 13q0 12 6 15t20 3
q54 1 65.5 9t21.5 50q46 175 46 183q-4 12 -5 14l-115 336q-6 17 -17 23t-46 6q-23 0 -23 13q0 18 18 18q16 0 51.5 -1.5t52.5 -1.5q19 0 57.5 1.5t56.5 1.5q14 0 14 -13q0 -18 -23 -18q-53 0 -53 -23q0 -4 5 -17l102 -295l222 264q7 7 17 22.5t10 27.5q0 19 -28 21
q-17 0 -17 13q0 18 18 18q47 -3 92 -3q23 0 41 1t27.5 1.5t10.5 0.5q12 0 12 -13zM740 871q-3 -18 -29 -31l-180 -91q-9 -4 -15 -3t-10.5 7.5t-3.5 12.5q1 5 14 14l165 114q17 12 29 12q15 0 23.5 -10t6.5 -25z" />
    <glyph glyph-name="Thorn" unicode="&#xde;" horiz-adv-x="644" 
d="M659 407q0 -85 -76 -157t-174 -72h-133l-17 -66q-14 -62 -14 -64q0 -7 2 -9.5t15 -5t41 -2.5q26 0 26 -13q0 -18 -19 -18l-116 3l-113 -3q-15 0 -15 13q0 12 6.5 15t20.5 3q50 0 62.5 7.5t19.5 35.5l135 540q3 23 -0.5 28.5t-19.5 7.5l-34 2q-10 0 -14.5 0.5t-8.5 3.5
t-4 9q0 18 20 18l115 -3l114 3q6 0 9.5 -3.5t4.5 -6.5v-3q0 -12 -6 -15t-21 -3q-44 0 -57 -5t-18 -18l-21 -78h131q77 0 118 -42.5t41 -101.5zM569 412q0 49 -24 78q-25 30 -72 30h-112l-77 -311h101q76 0 130 63.5t54 139.5z" />
    <glyph glyph-name="germandbls" unicode="&#xdf;" horiz-adv-x="551" 
d="M536 165q0 -61 -54.5 -118.5t-126.5 -57.5q-41 0 -71 19.5t-30 55.5q0 27 12.5 36.5t24.5 9.5q13 0 20 -7.5t7 -17.5q0 -27 -28 -35q14 -36 64 -36q25 0 46 19.5t32 46t17 48.5t6 32q0 29 -25 63q-29 35 -29 83q0 38 12 60.5t49 59.5q27 27 43.5 88.5t16.5 83.5
q0 32 -17 57t-59 25q-68 0 -102 -38q-20 -26 -36 -111l-86 -448q-22 -119 -53 -186q-19 -40 -52 -71t-69 -31q-29 0 -48.5 17.5t-19.5 46.5q0 30 16 43t33 13q14 0 24 -9t10 -23q0 -7 -2.5 -15t-13 -18.5t-27.5 -14.5q9 -15 28 -15t34 16.5t26.5 52t18 63t15.5 77.5l72 371
h-63q-10 0 -14.5 0.5t-8.5 3.5t-4 9q0 12 6 15t22 3h68l18 96q18 93 67.5 135.5t140.5 42.5q65 0 104 -32.5t39 -82.5q0 -74 -93 -181q-39 -48 -43 -66q-1 -4 -1 -8q0 -23 42 -73q42 -49 42 -97z" />
    <glyph glyph-name="agrave" unicode="&#xe0;" 
d="M541 143q0 -2 -4 -17.5t-11.5 -39t-15.5 -40.5q-27 -57 -75 -57q-31 0 -55 18.5t-32 50.5q-62 -69 -123 -69q-52 0 -88.5 42t-36.5 115q0 112 74 204t159 92q58 0 86 -56q8 36 41 36q12 0 20.5 -8t8.5 -20q0 -6 -4 -20l-67 -268q-8 -32 -8 -51q0 -41 26 -41q23 0 38 30
t30 88q3 15 6 19t14 4q17 0 17 -12zM354 125l46 185q3 10 3 16t-2.5 18t-9 30t-22 30.5t-36.5 12.5q-32 0 -65 -33t-53 -82q-13 -34 -29 -99t-16 -100q0 -10 1.5 -21t6.5 -28.5t18 -28.5t32 -11q37 0 77.5 40.5t48.5 70.5zM453 522q-3 -6 -11.5 -12t-14.5 -6l-11 6l-102 121
q-14 16 -5 35q15 30 46 30q14 0 22 -17l73 -141q5 -10 3 -16z" />
    <glyph glyph-name="aacute" unicode="&#xe1;" 
d="M541 143q0 -2 -4 -17.5t-11.5 -39t-15.5 -40.5q-27 -57 -75 -57q-31 0 -55 18.5t-32 50.5q-62 -69 -123 -69q-52 0 -88.5 42t-36.5 115q0 112 74 204t159 92q58 0 86 -56q8 36 41 36q12 0 20.5 -8t8.5 -20q0 -6 -4 -20l-67 -268q-8 -32 -8 -51q0 -41 26 -41q23 0 38 30
t30 88q3 15 6 19t14 4q17 0 17 -12zM354 125l46 185q3 10 3 16t-2.5 18t-9 30t-22 30.5t-36.5 12.5q-32 0 -65 -33t-53 -82q-13 -34 -29 -99t-16 -100q0 -10 1.5 -21t6.5 -28.5t18 -28.5t32 -11q37 0 77.5 40.5t48.5 70.5zM549 666q0 -18 -23 -35l-162 -121q-9 -6 -14 -6
q-6 0 -11.5 6t-5.5 12q0 5 11 16l143 141q17 17 31 17q15 0 23 -9t8 -21z" />
    <glyph glyph-name="acircumflex" unicode="&#xe2;" 
d="M541 143q0 -2 -4 -17.5t-11.5 -39t-15.5 -40.5q-27 -57 -75 -57q-31 0 -55 18.5t-32 50.5q-62 -69 -123 -69q-52 0 -88.5 42t-36.5 115q0 112 74 204t159 92q58 0 86 -56q8 36 41 36q12 0 20.5 -8t8.5 -20q0 -6 -4 -20l-67 -268q-8 -32 -8 -51q0 -41 26 -41q23 0 38 30
t30 88q3 15 6 19t14 4q17 0 17 -12zM354 125l46 185q3 10 3 16t-2.5 18t-9 30t-22 30.5t-36.5 12.5q-32 0 -65 -33t-53 -82q-13 -34 -29 -99t-16 -100q0 -10 1.5 -21t6.5 -28.5t18 -28.5t32 -11q37 0 77.5 40.5t48.5 70.5zM534 536q4 -7 -4 -14.5t-14 -1.5l-98 99l-148 -99
q-9 -6 -14.5 1.5t3.5 14.5l166 144q9 8 15 0z" />
    <glyph glyph-name="atilde" unicode="&#xe3;" 
d="M541 143q0 -2 -4 -17.5t-11.5 -39t-15.5 -40.5q-27 -57 -75 -57q-31 0 -55 18.5t-32 50.5q-62 -69 -123 -69q-52 0 -88.5 42t-36.5 115q0 112 74 204t159 92q58 0 86 -56q8 36 41 36q12 0 20.5 -8t8.5 -20q0 -6 -4 -20l-67 -268q-8 -32 -8 -51q0 -41 26 -41q23 0 38 30
t30 88q3 15 6 19t14 4q17 0 17 -12zM354 125l46 185q3 10 3 16t-2.5 18t-9 30t-22 30.5t-36.5 12.5q-32 0 -65 -33t-53 -82q-13 -34 -29 -99t-16 -100q0 -10 1.5 -21t6.5 -28.5t18 -28.5t32 -11q37 0 77.5 40.5t48.5 70.5zM579 639q0 -7 -52 -52q-49 -39 -79 -39
q-13 0 -24 7t-15.5 12.5t-17.5 23.5q-15 23 -29 23q-32 0 -88 -56q-12 -10 -16 -10q-12 0 -12 13q0 7 20 25.5t36 29.5q44 36 74 36t52 -37q18 -29 34 -29q7 0 16 3.5t17.5 9t18 12t15.5 12t12 10.5l6 5q14 14 20 14q12 0 12 -13z" />
    <glyph glyph-name="adieresis" unicode="&#xe4;" 
d="M541 143q0 -2 -4 -17.5t-11.5 -39t-15.5 -40.5q-27 -57 -75 -57q-31 0 -55 18.5t-32 50.5q-62 -69 -123 -69q-52 0 -88.5 42t-36.5 115q0 112 74 204t159 92q58 0 86 -56q8 36 41 36q12 0 20.5 -8t8.5 -20q0 -6 -4 -20l-67 -268q-8 -32 -8 -51q0 -41 26 -41q23 0 38 30
t30 88q3 15 6 19t14 4q17 0 17 -12zM354 125l46 185q3 10 3 16t-2.5 18t-9 30t-22 30.5t-36.5 12.5q-32 0 -65 -33t-53 -82q-13 -34 -29 -99t-16 -100q0 -10 1.5 -21t6.5 -28.5t18 -28.5t32 -11q37 0 77.5 40.5t48.5 70.5zM372 609q0 -23 -19 -40.5t-41 -17.5q-16 0 -28 11
t-12 29q0 23 18.5 40.5t40.5 17.5q16 0 28 -11t13 -29zM552 609q0 -23 -19 -40.5t-41 -17.5q-16 0 -28 11t-12 29q0 23 18.5 40.5t40.5 17.5q16 0 28 -11t13 -29z" />
    <glyph glyph-name="aring" unicode="&#xe5;" 
d="M541 143q0 -2 -4 -17.5t-11.5 -39t-15.5 -40.5q-27 -57 -75 -57q-31 0 -55 18.5t-32 50.5q-62 -69 -123 -69q-52 0 -88.5 42t-36.5 115q0 112 74 204t159 92q58 0 86 -56q8 36 41 36q12 0 20.5 -8t8.5 -20q0 -6 -4 -20l-67 -268q-8 -32 -8 -51q0 -41 26 -41q23 0 38 30
t30 88q3 15 6 19t14 4q17 0 17 -12zM354 125l46 185q3 10 3 16t-2.5 18t-9 30t-22 30.5t-36.5 12.5q-32 0 -65 -33t-53 -82q-13 -34 -29 -99t-16 -100q0 -10 1.5 -21t6.5 -28.5t18 -28.5t32 -11q37 0 77.5 40.5t48.5 70.5zM476 639q0 34 -46 34q-20 0 -35 -8t-22 -18
t-10.5 -23.5t-4 -19t-0.5 -9.5q1 -34 45 -34q20 0 35 8t22 18t11 23t4.5 19t0.5 10zM516 637q-1 -41 -38 -74.5t-83 -33.5q-33 0 -55 19t-22 49q1 43 38 75.5t83 32.5q34 0 55.5 -19.5t21.5 -48.5z" />
    <glyph glyph-name="ae" unicode="&#xe6;" horiz-adv-x="735" 
d="M718 102q0 -4 -8.5 -16.5t-26.5 -29t-40 -31.5t-53.5 -25.5t-63.5 -10.5q-75 0 -113 67q-13 -44 -20.5 -55.5t-25.5 -11.5q-12 0 -19 7.5t-7 17.5q0 1 8 37q-58 -62 -116 -62t-99 31.5t-41 81.5q0 17 6.5 39.5t29 59.5t57.5 71.5t101.5 73.5t152.5 68q8 28 34 28
q14 0 20.5 -8t6.5 -17q0 -7 -5 -25q67 50 135 50q48 0 77 -25.5t29 -60.5q0 -12 -3 -26.5t-23.5 -40.5t-56.5 -39q-56 -21 -162 -21h-37q-13 -52 -13 -92q0 -52 21 -87.5t64 -35.5q32 0 76 21.5t84 74.5q7 10 13 10t12 -6.5t6 -11.5zM696 357q0 26 -18 43t-47 17
q-45 0 -95.5 -39.5t-74.5 -123.5h20q215 0 215 103zM373 146l59 238q-114 -45 -188.5 -135t-74.5 -173q0 -27 15.5 -42t27.5 -17.5t23 -2.5q45 0 87 49t51 83z" />
    <glyph glyph-name="ccedilla" unicode="&#xe7;" horiz-adv-x="472" 
d="M482 101q-29 -47 -88 -79t-126 -33l-10 -40q63 -11 63 -56q0 -23 -14.5 -40t-34.5 -25.5t-50.5 -13t-52 -5.5t-50.5 -1h-27q-12 1 -12 13t26 12h12q135 0 135 60q0 32 -50 36q-14 0 -14 13q0 10 13 59q-44 18 -67.5 59.5t-23.5 94.5q0 108 81 197.5t177 89.5
q50 0 80.5 -25t30.5 -61q0 -30 -16 -45t-34 -15q-6 0 -12.5 2t-14 10t-7.5 21q0 6 2 13.5t13 19.5t31 14q-18 41 -72 41q-36 0 -71.5 -26.5t-58.5 -66.5q-25 -44 -40.5 -107t-15.5 -99q0 -49 21.5 -76.5t59.5 -27.5q42 0 93.5 23t90.5 72q9 11 14 11q13 0 19 -19z" />
    <glyph glyph-name="egrave" unicode="&#xe8;" horiz-adv-x="472" 
d="M482 101q-29 -48 -90 -80t-128 -32q-65 0 -106.5 48t-41.5 130q0 65 25 119t63 87t81 51t83 18q49 0 77.5 -25t28.5 -61q0 -15 -4.5 -31t-23.5 -38.5t-51 -35.5q-57 -22 -163 -22h-29q-16 -64 -16 -104q0 -16 3 -32.5t10.5 -35.5t24 -31t40.5 -12q42 0 93.5 23t90.5 72
q9 11 14 11q13 0 19 -19zM433 357q0 25 -17 42.5t-48 17.5q-8 0 -17.5 -1.5t-31 -10.5t-39.5 -24.5t-38 -48.5t-33 -78q30 0 49.5 0.5t56 6t59.5 15.5t41 31t18 50zM427 522q-3 -6 -11.5 -12t-14.5 -6l-11 6l-102 121q-14 16 -5 35q15 30 46 30q14 0 22 -17l73 -141
q5 -10 3 -16z" />
    <glyph glyph-name="eacute" unicode="&#xe9;" horiz-adv-x="472" 
d="M482 101q-29 -48 -90 -80t-128 -32q-65 0 -106.5 48t-41.5 130q0 65 25 119t63 87t81 51t83 18q49 0 77.5 -25t28.5 -61q0 -15 -4.5 -31t-23.5 -38.5t-51 -35.5q-57 -22 -163 -22h-29q-16 -64 -16 -104q0 -16 3 -32.5t10.5 -35.5t24 -31t40.5 -12q42 0 93.5 23t90.5 72
q9 11 14 11q13 0 19 -19zM433 357q0 25 -17 42.5t-48 17.5q-8 0 -17.5 -1.5t-31 -10.5t-39.5 -24.5t-38 -48.5t-33 -78q30 0 49.5 0.5t56 6t59.5 15.5t41 31t18 50zM523 666q0 -18 -23 -35l-162 -121q-9 -6 -14 -6q-6 0 -11.5 6t-5.5 12q0 5 11 16l143 141q17 17 31 17
q15 0 23 -9t8 -21z" />
    <glyph glyph-name="ecircumflex" unicode="&#xea;" horiz-adv-x="472" 
d="M482 101q-29 -48 -90 -80t-128 -32q-65 0 -106.5 48t-41.5 130q0 65 25 119t63 87t81 51t83 18q49 0 77.5 -25t28.5 -61q0 -15 -4.5 -31t-23.5 -38.5t-51 -35.5q-57 -22 -163 -22h-29q-16 -64 -16 -104q0 -16 3 -32.5t10.5 -35.5t24 -31t40.5 -12q42 0 93.5 23t90.5 72
q9 11 14 11q13 0 19 -19zM433 357q0 25 -17 42.5t-48 17.5q-8 0 -17.5 -1.5t-31 -10.5t-39.5 -24.5t-38 -48.5t-33 -78q30 0 49.5 0.5t56 6t59.5 15.5t41 31t18 50zM508 536q4 -7 -4 -14.5t-14 -1.5l-98 99l-148 -99q-9 -6 -14.5 1.5t3.5 14.5l166 144q9 8 15 0z" />
    <glyph glyph-name="edieresis" unicode="&#xeb;" horiz-adv-x="472" 
d="M482 101q-29 -48 -90 -80t-128 -32q-65 0 -106.5 48t-41.5 130q0 65 25 119t63 87t81 51t83 18q49 0 77.5 -25t28.5 -61q0 -15 -4.5 -31t-23.5 -38.5t-51 -35.5q-57 -22 -163 -22h-29q-16 -64 -16 -104q0 -16 3 -32.5t10.5 -35.5t24 -31t40.5 -12q42 0 93.5 23t90.5 72
q9 11 14 11q13 0 19 -19zM433 357q0 25 -17 42.5t-48 17.5q-8 0 -17.5 -1.5t-31 -10.5t-39.5 -24.5t-38 -48.5t-33 -78q30 0 49.5 0.5t56 6t59.5 15.5t41 31t18 50zM346 609q0 -23 -19 -40.5t-41 -17.5q-16 0 -28 11t-12 29q0 23 18.5 40.5t40.5 17.5q16 0 28 -11t13 -29z
M526 609q0 -23 -19 -40.5t-41 -17.5q-16 0 -28 11t-12 29q0 23 18.5 40.5t40.5 17.5q16 0 28 -11t13 -29z" />
    <glyph glyph-name="igrave" unicode="&#xec;" horiz-adv-x="315" 
d="M341 143q0 -5 -7.5 -27.5t-22 -52t-42 -52t-60.5 -22.5t-56 21.5t-23 60.5q0 20 17 65l25 69l35 93q24 66 24 91q0 28 -21 28q-60 0 -93 -124q-2 -6 -3 -8t-3 -5t-5 -3.5t-8 -0.5q-17 0 -17 12q0 6 7.5 28.5t22 51.5t42 51.5t60.5 22.5q34 0 56.5 -23t22.5 -59
q0 -21 -20 -72l-34 -94q-5 -13 -31 -81q-17 -48 -17 -71q0 -28 21 -28q59 0 92 117q5 16 8 20t13 4q17 0 17 -12zM348 522q-3 -6 -11.5 -12t-14.5 -6l-11 6l-102 121q-14 16 -5 35q15 30 46 30q14 0 22 -17l73 -141q5 -10 3 -16z" />
    <glyph glyph-name="iacute" unicode="&#xed;" horiz-adv-x="315" 
d="M341 143q0 -5 -7.5 -27.5t-22 -52t-42 -52t-60.5 -22.5t-56 21.5t-23 60.5q0 20 17 65l25 69l35 93q24 66 24 91q0 28 -21 28q-60 0 -93 -124q-2 -6 -3 -8t-3 -5t-5 -3.5t-8 -0.5q-17 0 -17 12q0 6 7.5 28.5t22 51.5t42 51.5t60.5 22.5q34 0 56.5 -23t22.5 -59
q0 -21 -20 -72l-34 -94q-5 -13 -31 -81q-17 -48 -17 -71q0 -28 21 -28q59 0 92 117q5 16 8 20t13 4q17 0 17 -12zM444 666q0 -18 -23 -35l-162 -121q-9 -6 -14 -6q-6 0 -11.5 6t-5.5 12q0 5 11 16l143 141q17 17 31 17q15 0 23 -9t8 -21z" />
    <glyph glyph-name="icircumflex" unicode="&#xee;" horiz-adv-x="315" 
d="M341 143q0 -5 -7.5 -27.5t-22 -52t-42 -52t-60.5 -22.5t-56 21.5t-23 60.5q0 20 17 65l25 69l35 93q24 66 24 91q0 28 -21 28q-60 0 -93 -124q-2 -6 -3 -8t-3 -5t-5 -3.5t-8 -0.5q-17 0 -17 12q0 6 7.5 28.5t22 51.5t42 51.5t60.5 22.5q34 0 56.5 -23t22.5 -59
q0 -21 -20 -72l-34 -94q-5 -13 -31 -81q-17 -48 -17 -71q0 -28 21 -28q59 0 92 117q5 16 8 20t13 4q17 0 17 -12zM429 536q4 -7 -4 -14.5t-14 -1.5l-98 99l-148 -99q-9 -6 -14.5 1.5t3.5 14.5l166 144q9 8 15 0z" />
    <glyph glyph-name="idieresis" unicode="&#xef;" horiz-adv-x="315" 
d="M341 143q0 -5 -7.5 -27.5t-22 -52t-42 -52t-60.5 -22.5t-56 21.5t-23 60.5q0 20 17 65l25 69l35 93q24 66 24 91q0 28 -21 28q-60 0 -93 -124q-2 -6 -3 -8t-3 -5t-5 -3.5t-8 -0.5q-17 0 -17 12q0 6 7.5 28.5t22 51.5t42 51.5t60.5 22.5q34 0 56.5 -23t22.5 -59
q0 -21 -20 -72l-34 -94q-5 -13 -31 -81q-17 -48 -17 -71q0 -28 21 -28q59 0 92 117q5 16 8 20t13 4q17 0 17 -12zM267 609q0 -23 -19 -40.5t-41 -17.5q-16 0 -28 11t-12 29q0 23 18.5 40.5t40.5 17.5q16 0 28 -11t13 -29zM447 609q0 -23 -19 -40.5t-41 -17.5q-16 0 -28 11
t-12 29q0 23 18.5 40.5t40.5 17.5q16 0 28 -11t13 -29z" />
    <glyph glyph-name="eth" unicode="&#xf0;" 
d="M526 216q-26 -102 -105 -164.5t-162 -62.5q-68 0 -114.5 44.5t-46.5 121.5q0 108 86.5 200t187.5 92q62 0 94 -55q-11 119 -82 201l-97 -49q-5 -3 -9 -3q-13 0 -13 14q0 12 13 18l84 43q-34 31 -74 51q-7 4 -7 11q0 6 5.5 11.5t11.5 3.5q66 -17 114 -52l95 48l9 3
q13 0 13 -14q0 -12 -12 -19l-79 -39q110 -97 110 -259q0 -55 -22 -145zM458 303q0 66 -28 92.5t-63 26.5q-34 0 -74.5 -22t-69.5 -76q-19 -34 -35.5 -100.5t-16.5 -100.5q0 -56 28.5 -81t67.5 -25q29 0 65 17t66 60q26 38 43 101.5t17 107.5z" />
    <glyph glyph-name="ntilde" unicode="&#xf1;" horiz-adv-x="577" 
d="M603 143q0 -5 -7.5 -27.5t-22 -52t-42 -52t-60.5 -22.5t-56 21.5t-23 60.5q0 22 14 60q60 159 60 221q0 65 -47 65q-54 0 -102 -48q-16 -16 -34 -46.5t-22 -42.5l-32 -130l-22 -86q-8 -33 -12 -45.5t-13 -21t-25 -8.5q-12 0 -20.5 7.5t-8.5 20.5q0 7 4 21l72 288
q7 28 7 51q0 40 -26 40q-38 0 -67 -117q-4 -17 -6.5 -20.5t-13.5 -3.5q-17 0 -17 13q0 3 4 18t11.5 38t14.5 39q27 58 76 58q33 0 57 -20t31 -56q62 76 146 76q52 0 81 -28t29 -78q0 -59 -59 -216q-20 -55 -20 -78q0 -28 21 -28q59 0 92 117q5 16 8 20t13 4q17 0 17 -12z
M605 639q0 -7 -52 -52q-49 -39 -79 -39q-13 0 -24 7t-15.5 12.5t-17.5 23.5q-15 23 -29 23q-32 0 -88 -56q-12 -10 -16 -10q-12 0 -12 13q0 7 20 25.5t36 29.5q44 36 74 36t52 -37q18 -29 34 -29q7 0 16 3.5t17.5 9t18 12t15.5 12t12 10.5l6 5q14 14 20 14q12 0 12 -13z" />
    <glyph glyph-name="ograve" unicode="&#xf2;" 
d="M521 275q0 -106 -80.5 -196t-177.5 -90q-69 0 -110.5 47.5t-41.5 118.5q0 109 81 198t177 89q68 0 110 -47.5t42 -119.5zM448 313q0 49 -22.5 76.5t-56.5 27.5q-33 0 -67.5 -23.5t-58.5 -65.5q-26 -44 -42.5 -108.5t-16.5 -100.5q0 -55 23.5 -80t55.5 -25q31 0 64 22
t57 59q30 46 47 114t17 104zM453 522q-3 -6 -11.5 -12t-14.5 -6l-11 6l-102 121q-14 16 -5 35q15 30 46 30q14 0 22 -17l73 -141q5 -10 3 -16z" />
    <glyph glyph-name="oacute" unicode="&#xf3;" 
d="M521 275q0 -106 -80.5 -196t-177.5 -90q-69 0 -110.5 47.5t-41.5 118.5q0 109 81 198t177 89q68 0 110 -47.5t42 -119.5zM448 313q0 49 -22.5 76.5t-56.5 27.5q-33 0 -67.5 -23.5t-58.5 -65.5q-26 -44 -42.5 -108.5t-16.5 -100.5q0 -55 23.5 -80t55.5 -25q31 0 64 22
t57 59q30 46 47 114t17 104zM549 666q0 -18 -23 -35l-162 -121q-9 -6 -14 -6q-6 0 -11.5 6t-5.5 12q0 5 11 16l143 141q17 17 31 17q15 0 23 -9t8 -21z" />
    <glyph glyph-name="ocircumflex" unicode="&#xf4;" 
d="M521 275q0 -106 -80.5 -196t-177.5 -90q-69 0 -110.5 47.5t-41.5 118.5q0 109 81 198t177 89q68 0 110 -47.5t42 -119.5zM448 313q0 49 -22.5 76.5t-56.5 27.5q-33 0 -67.5 -23.5t-58.5 -65.5q-26 -44 -42.5 -108.5t-16.5 -100.5q0 -55 23.5 -80t55.5 -25q31 0 64 22
t57 59q30 46 47 114t17 104zM534 536q4 -7 -4 -14.5t-14 -1.5l-98 99l-148 -99q-9 -6 -14.5 1.5t3.5 14.5l166 144q9 8 15 0z" />
    <glyph glyph-name="otilde" unicode="&#xf5;" 
d="M521 275q0 -106 -80.5 -196t-177.5 -90q-69 0 -110.5 47.5t-41.5 118.5q0 109 81 198t177 89q68 0 110 -47.5t42 -119.5zM448 313q0 49 -22.5 76.5t-56.5 27.5q-33 0 -67.5 -23.5t-58.5 -65.5q-26 -44 -42.5 -108.5t-16.5 -100.5q0 -55 23.5 -80t55.5 -25q31 0 64 22
t57 59q30 46 47 114t17 104zM579 639q0 -7 -52 -52q-49 -39 -79 -39q-13 0 -24 7t-15.5 12.5t-17.5 23.5q-15 23 -29 23q-32 0 -88 -56q-12 -10 -16 -10q-12 0 -12 13q0 7 20 25.5t36 29.5q44 36 74 36t52 -37q18 -29 34 -29q7 0 16 3.5t17.5 9t18 12t15.5 12t12 10.5l6 5
q14 14 20 14q12 0 12 -13z" />
    <glyph glyph-name="odieresis" unicode="&#xf6;" 
d="M521 275q0 -106 -80.5 -196t-177.5 -90q-69 0 -110.5 47.5t-41.5 118.5q0 109 81 198t177 89q68 0 110 -47.5t42 -119.5zM448 313q0 49 -22.5 76.5t-56.5 27.5q-33 0 -67.5 -23.5t-58.5 -65.5q-26 -44 -42.5 -108.5t-16.5 -100.5q0 -55 23.5 -80t55.5 -25q31 0 64 22
t57 59q30 46 47 114t17 104zM372 609q0 -23 -19 -40.5t-41 -17.5q-16 0 -28 11t-12 29q0 23 18.5 40.5t40.5 17.5q16 0 28 -11t13 -29zM552 609q0 -23 -19 -40.5t-41 -17.5q-16 0 -28 11t-12 29q0 23 18.5 40.5t40.5 17.5q16 0 28 -11t13 -29z" />
    <glyph glyph-name="divide" unicode="&#xf7;" horiz-adv-x="787" 
d="M771 250q0 -21 -33 -21h-564q-33 0 -33 21q0 22 37 22h556q37 0 37 -22zM552 422q0 -23 -20 -43.5t-46 -20.5q-20 0 -32.5 13t-12.5 31q0 23 20 43.5t46 20.5q20 0 32.5 -13t12.5 -31zM471 100q0 -23 -20 -43.5t-46 -20.5q-20 0 -32.5 13t-12.5 31q0 23 20 43.5t46 20.5
q20 0 32.5 -13t12.5 -31z" />
    <glyph glyph-name="oslash" unicode="&#xf8;" 
d="M515 278q0 -109 -79 -199.5t-174 -90.5q-51 0 -83 25l-74 -98q-13 -17 -16.5 -20.5t-7.5 -3.5q-12 0 -12 12q0 6 21 32l70 95q-43 47 -43 123q0 110 79.5 200t173.5 90q45 0 83 -25l82 110q9 12 16 12q12 0 12 -17l-92 -122q44 -46 44 -123zM430 388q-21 30 -61 30
q-57 0 -102.5 -54t-66.5 -120t-21 -121q0 -32 9 -56zM453 308q0 29 -9 56l-234 -311l-8 -11q23 -29 61 -29q57 0 102.5 54t66.5 120t21 121z" />
    <glyph glyph-name="ugrave" unicode="&#xf9;" horiz-adv-x="551" 
d="M577 143q0 -2 -4 -17.5t-11.5 -39t-15.5 -40.5q-27 -57 -75 -57q-64 0 -84 60q-50 -60 -113 -60q-45 0 -81 26.5t-36 91.5q0 34 11 76t45 132q18 49 18 74q0 28 -21 28q-60 0 -93 -124q-2 -6 -3 -8t-3 -5t-5 -3.5t-8 -0.5q-17 0 -17 12q0 6 7.5 28.5t22 51.5t42 51.5
t60.5 22.5q34 0 56.5 -23t22.5 -59q0 -21 -13 -54q-57 -156 -57 -215q0 -77 55 -77q40 0 70.5 31.5t37.5 58.5l71 287q9 40 42 40q12 0 20.5 -7.5t8.5 -20.5q0 -7 -4 -21l-69 -276q-8 -32 -8 -51q0 -41 26 -41q23 0 38 30t30 88q3 15 6 19t14 4q17 0 17 -12zM466 522
q-3 -6 -11.5 -12t-14.5 -6l-11 6l-102 121q-14 16 -5 35q15 30 46 30q14 0 22 -17l73 -141q5 -10 3 -16z" />
    <glyph glyph-name="uacute" unicode="&#xfa;" horiz-adv-x="551" 
d="M577 143q0 -2 -4 -17.5t-11.5 -39t-15.5 -40.5q-27 -57 -75 -57q-64 0 -84 60q-50 -60 -113 -60q-45 0 -81 26.5t-36 91.5q0 34 11 76t45 132q18 49 18 74q0 28 -21 28q-60 0 -93 -124q-2 -6 -3 -8t-3 -5t-5 -3.5t-8 -0.5q-17 0 -17 12q0 6 7.5 28.5t22 51.5t42 51.5
t60.5 22.5q34 0 56.5 -23t22.5 -59q0 -21 -13 -54q-57 -156 -57 -215q0 -77 55 -77q40 0 70.5 31.5t37.5 58.5l71 287q9 40 42 40q12 0 20.5 -7.5t8.5 -20.5q0 -7 -4 -21l-69 -276q-8 -32 -8 -51q0 -41 26 -41q23 0 38 30t30 88q3 15 6 19t14 4q17 0 17 -12zM562 666
q0 -18 -23 -35l-162 -121q-9 -6 -14 -6q-6 0 -11.5 6t-5.5 12q0 5 11 16l143 141q17 17 31 17q15 0 23 -9t8 -21z" />
    <glyph glyph-name="ucircumflex" unicode="&#xfb;" horiz-adv-x="551" 
d="M577 143q0 -2 -4 -17.5t-11.5 -39t-15.5 -40.5q-27 -57 -75 -57q-64 0 -84 60q-50 -60 -113 -60q-45 0 -81 26.5t-36 91.5q0 34 11 76t45 132q18 49 18 74q0 28 -21 28q-60 0 -93 -124q-2 -6 -3 -8t-3 -5t-5 -3.5t-8 -0.5q-17 0 -17 12q0 6 7.5 28.5t22 51.5t42 51.5
t60.5 22.5q34 0 56.5 -23t22.5 -59q0 -21 -13 -54q-57 -156 -57 -215q0 -77 55 -77q40 0 70.5 31.5t37.5 58.5l71 287q9 40 42 40q12 0 20.5 -7.5t8.5 -20.5q0 -7 -4 -21l-69 -276q-8 -32 -8 -51q0 -41 26 -41q23 0 38 30t30 88q3 15 6 19t14 4q17 0 17 -12zM547 536
q4 -7 -4 -14.5t-14 -1.5l-98 99l-148 -99q-9 -6 -14.5 1.5t3.5 14.5l166 144q9 8 15 0z" />
    <glyph glyph-name="udieresis" unicode="&#xfc;" horiz-adv-x="551" 
d="M577 143q0 -2 -4 -17.5t-11.5 -39t-15.5 -40.5q-27 -57 -75 -57q-64 0 -84 60q-50 -60 -113 -60q-45 0 -81 26.5t-36 91.5q0 34 11 76t45 132q18 49 18 74q0 28 -21 28q-60 0 -93 -124q-2 -6 -3 -8t-3 -5t-5 -3.5t-8 -0.5q-17 0 -17 12q0 6 7.5 28.5t22 51.5t42 51.5
t60.5 22.5q34 0 56.5 -23t22.5 -59q0 -21 -13 -54q-57 -156 -57 -215q0 -77 55 -77q40 0 70.5 31.5t37.5 58.5l71 287q9 40 42 40q12 0 20.5 -7.5t8.5 -20.5q0 -7 -4 -21l-69 -276q-8 -32 -8 -51q0 -41 26 -41q23 0 38 30t30 88q3 15 6 19t14 4q17 0 17 -12zM385 609
q0 -23 -19 -40.5t-41 -17.5q-16 0 -28 11t-12 29q0 23 18.5 40.5t40.5 17.5q16 0 28 -11t13 -29zM565 609q0 -23 -19 -40.5t-41 -17.5q-16 0 -28 11t-12 29q0 23 18.5 40.5t40.5 17.5q16 0 28 -11t13 -29z" />
    <glyph glyph-name="yacute" unicode="&#xfd;" horiz-adv-x="498" 
d="M426 -4q-19 -76 -83 -138.5t-142 -62.5q-43 0 -70.5 24t-27.5 63q0 33 16 47t34 14q14 0 24 -9t10 -23q0 -6 -1.5 -13.5t-13.5 -20t-33 -14.5q6 -21 23 -32t39 -11q48 0 93.5 50.5t68.5 153.5q-39 -35 -90 -35q-16 0 -32.5 4t-37 15t-33.5 36.5t-13 62.5q0 34 11 76
t45 132q18 49 18 74q0 28 -21 28q-60 0 -93 -124q-2 -6 -3 -8t-3 -5t-5 -3.5t-8 -0.5q-17 0 -17 12q0 6 7.5 28.5t22 51.5t42 51.5t60.5 22.5q34 0 56.5 -23t22.5 -59q0 -21 -13 -54q-57 -156 -57 -215q0 -77 55 -77q36 0 67 28.5t39 61.5l73 290q9 37 41 37q12 0 20.5 -7.5
t8.5 -20.5q0 -6 -4 -21zM536 666q0 -18 -23 -35l-162 -121q-9 -6 -14 -6q-6 0 -11.5 6t-5.5 12q0 5 11 16l143 141q17 17 31 17q15 0 23 -9t8 -21z" />
    <glyph glyph-name="thorn" unicode="&#xfe;" 
d="M522 284q0 -109 -73.5 -202t-159.5 -93q-56 0 -86 55q-47 -188 -47 -191q0 -6 1.5 -8.5t12.5 -5t33 -2.5q10 0 14.5 -0.5t8.5 -3.5t4 -9q0 -18 -18 -18q-15 0 -48 1.5t-50 1.5q-14 0 -43 -1.5t-42 -1.5t-13 13q0 18 21 18q29 0 38.5 6t15.5 30l85 341l100 399q4 14 4 22
q0 6 -1.5 9t-12.5 5.5t-33 2.5h-11.5t-8 1.5t-6 4t-1.5 7.5q0 12 5.5 15t19.5 4l104 9q26 3 26 -13q0 -1 -0.5 -2.5t-1.5 -5.5t-2 -10l-67 -270q57 50 106 50q55 0 90.5 -43t35.5 -115zM401 116q16 35 33.5 105t17.5 107q0 9 -1.5 20t-6.5 28.5t-18 29t-32 11.5
q-36 0 -75 -38q-42 -40 -51 -74l-47 -186l-2 -13q3 -36 18 -60q20 -32 52 -32q30 0 61 29.5t51 72.5z" />
    <glyph glyph-name="ydieresis" unicode="&#xff;" horiz-adv-x="498" 
d="M426 -4q-19 -76 -83 -138.5t-142 -62.5q-43 0 -70.5 24t-27.5 63q0 33 16 47t34 14q14 0 24 -9t10 -23q0 -6 -1.5 -13.5t-13.5 -20t-33 -14.5q6 -21 23 -32t39 -11q48 0 93.5 50.5t68.5 153.5q-39 -35 -90 -35q-16 0 -32.5 4t-37 15t-33.5 36.5t-13 62.5q0 34 11 76
t45 132q18 49 18 74q0 28 -21 28q-60 0 -93 -124q-2 -6 -3 -8t-3 -5t-5 -3.5t-8 -0.5q-17 0 -17 12q0 6 7.5 28.5t22 51.5t42 51.5t60.5 22.5q34 0 56.5 -23t22.5 -59q0 -21 -13 -54q-57 -156 -57 -215q0 -77 55 -77q36 0 67 28.5t39 61.5l73 290q9 37 41 37q12 0 20.5 -7.5
t8.5 -20.5q0 -6 -4 -21zM359 609q0 -23 -19 -40.5t-41 -17.5q-16 0 -28 11t-12 29q0 23 18.5 40.5t40.5 17.5q16 0 28 -11t13 -29zM539 609q0 -23 -19 -40.5t-41 -17.5q-16 0 -28 11t-12 29q0 23 18.5 40.5t40.5 17.5q16 0 28 -11t13 -29z" />
    <glyph glyph-name="Amacron" unicode="&#x100;" horiz-adv-x="763" 
d="M709 18q0 -18 -18 -18q-16 0 -51.5 1.5t-53.5 1.5q-19 0 -56.5 -1.5t-55.5 -1.5q-15 0 -15 13q0 18 26 18q25 0 40.5 6.5t19 12.5t3.5 12l-13 170h-238l-73 -127q-15 -29 -15 -41q0 -30 42 -33q14 0 14 -13q0 -18 -18 -18q-14 0 -45.5 1.5t-47.5 1.5q-22 0 -41 -0.5
t-29 -1.5l-11 -1q-12 0 -12 13q0 16 21 18q13 1 23.5 3.5t26 10.5t32 26t32.5 46l334 579q11 20 30 20q12 0 15.5 -4.5t4.5 -18.5l49 -628q2 -22 10.5 -28t46.5 -6q23 0 23 -13zM533 263l-26 330l-191 -330h217zM745 777q0 -10 -4.5 -15t-9 -5.5t-15.5 -0.5h-286
q-26 0 -26 13q0 10 4.5 15t9 5.5t15.5 0.5h286q10 0 14.5 -0.5t8 -3.5t3.5 -9z" />
    <glyph glyph-name="amacron" unicode="&#x101;" 
d="M541 143q0 -2 -4 -17.5t-11.5 -39t-15.5 -40.5q-27 -57 -75 -57q-31 0 -55 18.5t-32 50.5q-62 -69 -123 -69q-52 0 -88.5 42t-36.5 115q0 112 74 204t159 92q58 0 86 -56q8 36 41 36q12 0 20.5 -8t8.5 -20q0 -6 -4 -20l-67 -268q-8 -32 -8 -51q0 -41 26 -41q23 0 38 30
t30 88q3 15 6 19t14 4q17 0 17 -12zM354 125l46 185q3 10 3 16t-2.5 18t-9 30t-22 30.5t-36.5 12.5q-32 0 -65 -33t-53 -82q-13 -34 -29 -99t-16 -100q0 -10 1.5 -21t6.5 -28.5t18 -28.5t32 -11q37 0 77.5 40.5t48.5 70.5zM583 604q0 -10 -4.5 -15t-9 -5.5t-15.5 -0.5h-286
q-26 0 -26 13q0 10 4.5 15t9 5.5t15.5 0.5h286q10 0 14.5 -0.5t8 -3.5t3.5 -9z" />
    <glyph glyph-name="Abreve" unicode="&#x102;" horiz-adv-x="763" 
d="M709 18q0 -18 -18 -18q-16 0 -51.5 1.5t-53.5 1.5q-19 0 -56.5 -1.5t-55.5 -1.5q-15 0 -15 13q0 18 26 18q25 0 40.5 6.5t19 12.5t3.5 12l-13 170h-238l-73 -127q-15 -29 -15 -41q0 -30 42 -33q14 0 14 -13q0 -18 -18 -18q-14 0 -45.5 1.5t-47.5 1.5q-22 0 -41 -0.5
t-29 -1.5l-11 -1q-12 0 -12 13q0 16 21 18q13 1 23.5 3.5t26 10.5t32 26t32.5 46l334 579q11 20 30 20q12 0 15.5 -4.5t4.5 -18.5l49 -628q2 -22 10.5 -28t46.5 -6q23 0 23 -13zM533 263l-26 330l-191 -330h217zM751 906q0 -20 -20.5 -56.5t-64.5 -70t-95 -33.5
q-53 0 -83 35t-30 86q0 52 18 52q12 -2 12 -14q0 -1 -2 -12t-2 -19q0 -38 24.5 -63.5t65.5 -25.5q42 0 87 30t65 91q4 13 13 13q4 0 8 -3.5t4 -9.5z" />
    <glyph glyph-name="abreve" unicode="&#x103;" 
d="M541 143q0 -2 -4 -17.5t-11.5 -39t-15.5 -40.5q-27 -57 -75 -57q-31 0 -55 18.5t-32 50.5q-62 -69 -123 -69q-52 0 -88.5 42t-36.5 115q0 112 74 204t159 92q58 0 86 -56q8 36 41 36q12 0 20.5 -8t8.5 -20q0 -6 -4 -20l-67 -268q-8 -32 -8 -51q0 -41 26 -41q23 0 38 30
t30 88q3 15 6 19t14 4q17 0 17 -12zM354 125l46 185q3 10 3 16t-2.5 18t-9 30t-22 30.5t-36.5 12.5q-32 0 -65 -33t-53 -82q-13 -34 -29 -99t-16 -100q0 -10 1.5 -21t6.5 -28.5t18 -28.5t32 -11q37 0 77.5 40.5t48.5 70.5zM574 674q0 -20 -20.5 -56.5t-64.5 -70t-95 -33.5
q-53 0 -83 35t-30 86q0 52 18 52q12 -2 12 -14q0 -1 -2 -12t-2 -19q0 -38 24.5 -63.5t65.5 -25.5q42 0 87 30t65 91q4 13 13 13q4 0 8 -3.5t4 -9.5z" />
    <glyph glyph-name="Aogonek" unicode="&#x104;" horiz-adv-x="763" 
d="M687 -115q-21 -42 -61 -69t-78 -27q-47 0 -73 27t-18 63q14 65 110 124l-93 -3q-15 0 -15 13q0 18 26 18q25 0 40.5 6.5t19 12.5t3.5 12l-13 170h-238l-73 -127q-15 -29 -15 -41q0 -30 42 -33q14 0 14 -13q0 -18 -18 -18q-14 0 -45.5 1.5t-47.5 1.5q-22 0 -41 -0.5
t-29 -1.5l-11 -1q-12 0 -12 13q0 16 21 18q13 1 23.5 3.5t26 10.5t32 26t32.5 46l334 579q11 20 30 20q12 0 15.5 -4.5t4.5 -18.5l49 -628q2 -22 10.5 -28t46.5 -6q23 0 23 -13q0 -18 -18 -18q-12 0 -26 0.5t-31.5 1.5t-27.5 1q-85 -51 -96 -98q-7 -32 17 -50.5t55 -18.5
q52 0 89 56q5 8 12.5 5t3.5 -12zM533 263l-26 330l-191 -330h217z" />
    <glyph glyph-name="aogonek" unicode="&#x105;" 
d="M487 -115q-21 -42 -61 -69t-78 -27q-47 0 -73 27t-18 63q14 66 120 131q-21 17 -29 48q-62 -69 -123 -69q-52 0 -88.5 42t-36.5 115q0 112 74 204t159 92q58 0 86 -56q8 36 41 36q12 0 20.5 -8t8.5 -20q0 -6 -4 -20l-67 -268q-8 -32 -8 -51q0 -41 26 -41q23 0 38 30
t30 88q3 15 6 19t14 4q17 0 17 -12q0 -2 -4 -17.5t-11.5 -39t-15.5 -40.5q-27 -57 -75 -57q-19 0 -38 8q-77 -46 -87 -92q-7 -32 17 -50.5t55 -18.5q52 0 89 56q5 8 12.5 5t3.5 -12zM354 125l46 185q3 10 3 16t-2.5 18t-9 30t-22 30.5t-36.5 12.5q-32 0 -65 -33t-53 -82
q-13 -34 -29 -99t-16 -100q0 -10 1.5 -21t6.5 -28.5t18 -28.5t32 -11q37 0 77.5 40.5t48.5 70.5z" />
    <glyph glyph-name="Cacute" unicode="&#x106;" horiz-adv-x="735" 
d="M827 680l-61 -242q-3 -12 -6 -15.5t-13 -3.5q-17 0 -17 12q0 2 1 9t2 19.5t1 27.5q0 83 -38 135t-110 52q-59 0 -122 -33t-114 -97q-57 -71 -84.5 -169t-27.5 -164q0 -101 52.5 -151.5t124.5 -50.5q30 0 63.5 11t73 35t75 73t55.5 115q3 8 17 8q17 0 17 -12
q0 -5 -5 -20.5t-17 -41t-27 -46.5q-51 -73 -121 -113t-142 -40q-111 0 -182 75.5t-71 193.5q0 85 37.5 169.5t97 147.5t138 102t155.5 39q104 0 157 -87l75 87q18 0 18 -11q0 -6 -2 -14zM763 871q-3 -18 -29 -31l-180 -91q-9 -4 -15 -3t-10.5 7.5t-3.5 12.5q1 5 14 14
l165 114q17 12 29 12q15 0 23.5 -10t6.5 -25z" />
    <glyph glyph-name="cacute" unicode="&#x107;" horiz-adv-x="472" 
d="M482 101q-29 -48 -90 -80t-128 -32q-72 0 -112.5 48t-40.5 118q0 108 81 197.5t177 89.5q50 0 80.5 -25t30.5 -61q0 -30 -16 -45t-34 -15q-6 0 -12.5 2t-14 10t-7.5 21q0 6 2 13.5t13 19.5t31 14q-18 41 -72 41q-36 0 -71.5 -26.5t-58.5 -66.5q-25 -44 -40.5 -107
t-15.5 -99q0 -49 21.5 -76.5t59.5 -27.5q42 0 93.5 23t90.5 72q9 11 14 11q13 0 19 -19zM547 666q0 -18 -23 -35l-162 -121q-9 -6 -14 -6q-6 0 -11.5 6t-5.5 12q0 5 11 16l143 141q17 17 31 17q15 0 23 -9t8 -21z" />
    <glyph glyph-name="Ccircumflex" unicode="&#x108;" horiz-adv-x="735" 
d="M827 680l-61 -242q-3 -12 -6 -15.5t-13 -3.5q-17 0 -17 12q0 2 1 9t2 19.5t1 27.5q0 83 -38 135t-110 52q-59 0 -122 -33t-114 -97q-57 -71 -84.5 -169t-27.5 -164q0 -101 52.5 -151.5t124.5 -50.5q30 0 63.5 11t73 35t75 73t55.5 115q3 8 17 8q17 0 17 -12
q0 -5 -5 -20.5t-17 -41t-27 -46.5q-51 -73 -121 -113t-142 -40q-111 0 -182 75.5t-71 193.5q0 85 37.5 169.5t97 147.5t138 102t155.5 39q104 0 157 -87l75 87q18 0 18 -11q0 -6 -2 -14zM729 755q6 -5 -1 -13.5t-14 -4.5l-112 55l-140 -55q-6 -2 -10 1t-3 8.5t7 8.5l155 98
q7 3 12 0z" />
    <glyph glyph-name="ccircumflex" unicode="&#x109;" horiz-adv-x="472" 
d="M482 101q-29 -48 -90 -80t-128 -32q-72 0 -112.5 48t-40.5 118q0 108 81 197.5t177 89.5q50 0 80.5 -25t30.5 -61q0 -30 -16 -45t-34 -15q-6 0 -12.5 2t-14 10t-7.5 21q0 6 2 13.5t13 19.5t31 14q-18 41 -72 41q-36 0 -71.5 -26.5t-58.5 -66.5q-25 -44 -40.5 -107
t-15.5 -99q0 -49 21.5 -76.5t59.5 -27.5q42 0 93.5 23t90.5 72q9 11 14 11q13 0 19 -19zM532 536q4 -7 -4 -14.5t-14 -1.5l-98 99l-148 -99q-9 -6 -14.5 1.5t3.5 14.5l166 144q9 8 15 0z" />
    <glyph glyph-name="Cdotaccent" unicode="&#x10a;" horiz-adv-x="735" 
d="M827 680l-61 -242q-3 -12 -6 -15.5t-13 -3.5q-17 0 -17 12q0 2 1 9t2 19.5t1 27.5q0 83 -38 135t-110 52q-59 0 -122 -33t-114 -97q-57 -71 -84.5 -169t-27.5 -164q0 -101 52.5 -151.5t124.5 -50.5q30 0 63.5 11t73 35t75 73t55.5 115q3 8 17 8q17 0 17 -12
q0 -5 -5 -20.5t-17 -41t-27 -46.5q-51 -73 -121 -113t-142 -40q-111 0 -182 75.5t-71 193.5q0 85 37.5 169.5t97 147.5t138 102t155.5 39q104 0 157 -87l75 87q18 0 18 -11q0 -6 -2 -14zM661 822q0 -26 -20.5 -45t-44.5 -19q-18 0 -31.5 12t-13.5 32q0 26 20.5 45t44.5 19
q18 0 31.5 -12t13.5 -32z" />
    <glyph glyph-name="cdotaccent" unicode="&#x10b;" horiz-adv-x="472" 
d="M482 101q-29 -48 -90 -80t-128 -32q-72 0 -112.5 48t-40.5 118q0 108 81 197.5t177 89.5q50 0 80.5 -25t30.5 -61q0 -30 -16 -45t-34 -15q-6 0 -12.5 2t-14 10t-7.5 21q0 6 2 13.5t13 19.5t31 14q-18 41 -72 41q-36 0 -71.5 -26.5t-58.5 -66.5q-25 -44 -40.5 -107
t-15.5 -99q0 -49 21.5 -76.5t59.5 -27.5q42 0 93.5 23t90.5 72q9 11 14 11q13 0 19 -19zM465 610q0 -26 -20.5 -45t-44.5 -19q-18 0 -31.5 12t-13.5 32q0 26 20.5 45t44.5 19q18 0 31.5 -12t13.5 -32z" />
    <glyph glyph-name="Ccaron" unicode="&#x10c;" horiz-adv-x="735" 
d="M827 680l-61 -242q-3 -12 -6 -15.5t-13 -3.5q-17 0 -17 12q0 2 1 9t2 19.5t1 27.5q0 83 -38 135t-110 52q-59 0 -122 -33t-114 -97q-57 -71 -84.5 -169t-27.5 -164q0 -101 52.5 -151.5t124.5 -50.5q30 0 63.5 11t73 35t75 73t55.5 115q3 8 17 8q17 0 17 -12
q0 -5 -5 -20.5t-17 -41t-27 -46.5q-51 -73 -121 -113t-142 -40q-111 0 -182 75.5t-71 193.5q0 85 37.5 169.5t97 147.5t138 102t155.5 39q104 0 157 -87l75 87q18 0 18 -11q0 -6 -2 -14zM749 836l-155 -98q-7 -3 -12 0l-106 98q-6 5 1 13.5t14 4.5l112 -55l140 55q6 2 10 -1
t3 -8.5t-7 -8.5z" />
    <glyph glyph-name="ccaron" unicode="&#x10d;" horiz-adv-x="472" 
d="M482 101q-29 -48 -90 -80t-128 -32q-72 0 -112.5 48t-40.5 118q0 108 81 197.5t177 89.5q50 0 80.5 -25t30.5 -61q0 -30 -16 -45t-34 -15q-6 0 -12.5 2t-14 10t-7.5 21q0 6 2 13.5t13 19.5t31 14q-18 41 -72 41q-36 0 -71.5 -26.5t-58.5 -66.5q-25 -44 -40.5 -107
t-15.5 -99q0 -49 21.5 -76.5t59.5 -27.5q42 0 93.5 23t90.5 72q9 11 14 11q13 0 19 -19zM564 664l-166 -144q-9 -8 -15 0l-94 144q-4 7 4 14.5t14 1.5l98 -99l148 99q9 6 14.5 -1.5t-3.5 -14.5z" />
    <glyph glyph-name="Dcaron" unicode="&#x10e;" horiz-adv-x="775" 
d="M793 436q0 -109 -56 -210.5t-146 -163.5t-186 -62h-310q-10 0 -14.5 0.5t-8.5 3.5t-4 9q0 12 6 15t21 3q49 0 62 7.5t20 34.5l135 542q4 14 4 20t-2 9t-15.5 5.5t-40.5 2.5q-10 0 -14.5 0.5t-8.5 3.5t-4 9q0 12 6.5 15t21.5 3h316q102 0 160 -71.5t58 -175.5zM711 472
q0 85 -45.5 132.5t-122.5 47.5h-105q-18 0 -25 -1.5t-13 -9t-10 -25.5l-138 -553q-4 -14 -4 -29q10 -3 29 -3h111q67 0 126 33t100 90q46 64 71.5 163t25.5 155zM673 836l-155 -98q-7 -3 -12 0l-106 98q-6 5 1 13.5t14 4.5l112 -55l140 55q6 2 10 -1t3 -8.5t-7 -8.5z" />
    <glyph glyph-name="dcaron" unicode="&#x10f;" 
d="M551 143q0 -2 -4 -17.5t-11.5 -39t-15.5 -40.5q-27 -57 -75 -57q-31 0 -55 18.5t-32 50.5q-62 -69 -123 -69q-52 0 -88.5 42t-36.5 115q0 112 74 204t159 92q58 0 86 -56l57 227q4 14 4 22q0 6 -1.5 9t-12.5 5.5t-33 2.5h-11.5t-8 1.5t-6 4t-1.5 7.5q0 12 5.5 15t19.5 4
l104 9q26 3 26 -13q0 -1 -4 -18l-139 -556q-8 -32 -8 -51q0 -41 26 -41q23 0 38 30t30 88q3 15 6 19t14 4q17 0 17 -12zM364 125l46 185q3 10 3 16t-2.5 18t-9 30t-22 30.5t-36.5 12.5q-32 0 -65 -33t-53 -82q-13 -34 -29 -99t-16 -100q0 -10 1.5 -21t6.5 -28.5t18 -28.5
t32 -11q37 0 77.5 40.5t48.5 70.5zM684 648q0 -40 -24 -84.5t-49 -70t-34 -25.5q-7 0 -9 9l1 3q1 2 6 7q69 57 86 135q-13 -9 -28 -9t-24.5 9t-9.5 23q0 17 14 33t36 16q35 0 35 -46z" />
    <glyph glyph-name="Dcroat" unicode="&#x110;" horiz-adv-x="775" 
d="M793 436q0 -109 -56 -210.5t-146 -163.5t-186 -62h-310q-10 0 -14.5 0.5t-8.5 3.5t-4 9q0 12 6 15t21 3q49 0 62 7.5t20 34.5l63 254h-94q-16 0 -11 15q4 15 18 15h95l64 258q4 14 4 20t-2 9t-15.5 5.5t-40.5 2.5q-10 0 -14.5 0.5t-8.5 3.5t-4 9q0 12 6.5 15t21.5 3h316
q102 0 160 -71.5t58 -175.5zM711 472q0 85 -45.5 132.5t-122.5 47.5h-105q-18 0 -25 -1.5t-13 -9t-10 -25.5l-65 -259h152q6 0 9.5 -4.5t1.5 -10.5q-3 -15 -19 -15h-151l-66 -264q-4 -14 -4 -29q10 -3 29 -3h111q67 0 126 33t100 90q46 64 71.5 163t25.5 155z" />
    <glyph glyph-name="dcroat" unicode="&#x111;" 
d="M551 143q0 -2 -4 -17.5t-11.5 -39t-15.5 -40.5q-27 -57 -75 -57q-31 0 -55 18.5t-32 50.5q-62 -69 -123 -69q-52 0 -88.5 42t-36.5 115q0 112 74 204t159 92q58 0 86 -56l37 147h-123q-14 0 -11 15q4 15 19 15h122l13 50q4 14 4 22q0 6 -1.5 9t-12.5 5.5t-33 2.5h-11.5
t-8 1.5t-6 4t-1.5 7.5q0 12 5.5 15t19.5 4l104 9q26 3 26 -13q0 -1 -4 -18l-25 -99h47q6 0 9.5 -4.5t1.5 -10.5q-3 -15 -19 -15h-46l-107 -427q-8 -32 -8 -51q0 -41 26 -41q23 0 38 30t30 88q3 15 6 19t14 4q17 0 17 -12zM364 125l46 185q3 10 3 16t-2.5 18t-9 30t-22 30.5
t-36.5 12.5q-32 0 -65 -33t-53 -82q-13 -34 -29 -99t-16 -100q0 -10 1.5 -21t6.5 -28.5t18 -28.5t32 -11q37 0 77.5 40.5t48.5 70.5z" />
    <glyph glyph-name="Emacron" unicode="&#x112;" horiz-adv-x="696" 
d="M704 245q0 -3 -6 -16l-87 -211q-5 -13 -9.5 -15.5t-21.5 -2.5h-487q-10 0 -14.5 0.5t-8.5 3.5t-4 9q0 12 6 15t21 3q49 0 62 7.5t20 34.5l134 538q4 15 4 21q0 7 -2 9.5t-15 5t-41 2.5q-10 0 -14.5 0.5t-8 3.5t-3.5 9q0 12 6.5 15t21.5 3h474q10 0 14.5 -0.5t8.5 -3.5
t4 -10l-23 -188q-2 -14 -4.5 -18.5t-13.5 -4.5q-17 0 -17 15q0 9 3 21l3 54q0 56 -25.5 80t-109.5 24h-132q-26 0 -34 -5t-14 -29l-61 -246h86q59 0 82.5 19t37.5 76q4 15 7 18.5t13 3.5q17 0 17 -13q0 -4 -4 -18l-53 -214q-2 -9 -5 -13.5t-6 -5.5t-9 -1q-16 0 -16 13
q0 4 4 18q6 24 6 44q0 22 -14 32t-62 10h-92l-69 -275q-4 -14 -4 -29q10 -3 29 -3h131q47 0 81 8t58.5 21.5t45 40t34.5 54t34 73.5q12 27 13 27q4 3 12 3q17 0 17 -13zM712 777q0 -10 -4.5 -15t-9 -5.5t-15.5 -0.5h-286q-26 0 -26 13q0 10 4.5 15t9 5.5t15.5 0.5h286
q10 0 14.5 -0.5t8 -3.5t3.5 -9z" />
    <glyph glyph-name="emacron" unicode="&#x113;" horiz-adv-x="472" 
d="M482 101q-29 -48 -90 -80t-128 -32q-65 0 -106.5 48t-41.5 130q0 65 25 119t63 87t81 51t83 18q49 0 77.5 -25t28.5 -61q0 -15 -4.5 -31t-23.5 -38.5t-51 -35.5q-57 -22 -163 -22h-29q-16 -64 -16 -104q0 -16 3 -32.5t10.5 -35.5t24 -31t40.5 -12q42 0 93.5 23t90.5 72
q9 11 14 11q13 0 19 -19zM433 357q0 25 -17 42.5t-48 17.5q-8 0 -17.5 -1.5t-31 -10.5t-39.5 -24.5t-38 -48.5t-33 -78q30 0 49.5 0.5t56 6t59.5 15.5t41 31t18 50zM557 604q0 -10 -4.5 -15t-9 -5.5t-15.5 -0.5h-286q-26 0 -26 13q0 10 4.5 15t9 5.5t15.5 0.5h286
q10 0 14.5 -0.5t8 -3.5t3.5 -9z" />
    <glyph glyph-name="Ebreve" unicode="&#x114;" horiz-adv-x="696" 
d="M704 245q0 -3 -6 -16l-87 -211q-5 -13 -9.5 -15.5t-21.5 -2.5h-487q-10 0 -14.5 0.5t-8.5 3.5t-4 9q0 12 6 15t21 3q49 0 62 7.5t20 34.5l134 538q4 15 4 21q0 7 -2 9.5t-15 5t-41 2.5q-10 0 -14.5 0.5t-8 3.5t-3.5 9q0 12 6.5 15t21.5 3h474q10 0 14.5 -0.5t8.5 -3.5
t4 -10l-23 -188q-2 -14 -4.5 -18.5t-13.5 -4.5q-17 0 -17 15q0 9 3 21l3 54q0 56 -25.5 80t-109.5 24h-132q-26 0 -34 -5t-14 -29l-61 -246h86q59 0 82.5 19t37.5 76q4 15 7 18.5t13 3.5q17 0 17 -13q0 -4 -4 -18l-53 -214q-2 -9 -5 -13.5t-6 -5.5t-9 -1q-16 0 -16 13
q0 4 4 18q6 24 6 44q0 22 -14 32t-62 10h-92l-69 -275q-4 -14 -4 -29q10 -3 29 -3h131q47 0 81 8t58.5 21.5t45 40t34.5 54t34 73.5q12 27 13 27q4 3 12 3q17 0 17 -13zM718 906q0 -20 -20.5 -56.5t-64.5 -70t-95 -33.5q-53 0 -83 35t-30 86q0 52 18 52q12 -2 12 -14
q0 -1 -2 -12t-2 -19q0 -38 24.5 -63.5t65.5 -25.5q42 0 87 30t65 91q4 13 13 13q4 0 8 -3.5t4 -9.5z" />
    <glyph glyph-name="ebreve" unicode="&#x115;" horiz-adv-x="472" 
d="M482 101q-29 -48 -90 -80t-128 -32q-65 0 -106.5 48t-41.5 130q0 65 25 119t63 87t81 51t83 18q49 0 77.5 -25t28.5 -61q0 -15 -4.5 -31t-23.5 -38.5t-51 -35.5q-57 -22 -163 -22h-29q-16 -64 -16 -104q0 -16 3 -32.5t10.5 -35.5t24 -31t40.5 -12q42 0 93.5 23t90.5 72
q9 11 14 11q13 0 19 -19zM433 357q0 25 -17 42.5t-48 17.5q-8 0 -17.5 -1.5t-31 -10.5t-39.5 -24.5t-38 -48.5t-33 -78q30 0 49.5 0.5t56 6t59.5 15.5t41 31t18 50zM548 674q0 -20 -20.5 -56.5t-64.5 -70t-95 -33.5q-53 0 -83 35t-30 86q0 52 18 52q12 -2 12 -14
q0 -1 -2 -12t-2 -19q0 -38 24.5 -63.5t65.5 -25.5q42 0 87 30t65 91q4 13 13 13q4 0 8 -3.5t4 -9.5z" />
    <glyph glyph-name="Edotaccent" unicode="&#x116;" horiz-adv-x="696" 
d="M704 245q0 -3 -6 -16l-87 -211q-5 -13 -9.5 -15.5t-21.5 -2.5h-487q-10 0 -14.5 0.5t-8.5 3.5t-4 9q0 12 6 15t21 3q49 0 62 7.5t20 34.5l134 538q4 15 4 21q0 7 -2 9.5t-15 5t-41 2.5q-10 0 -14.5 0.5t-8 3.5t-3.5 9q0 12 6.5 15t21.5 3h474q10 0 14.5 -0.5t8.5 -3.5
t4 -10l-23 -188q-2 -14 -4.5 -18.5t-13.5 -4.5q-17 0 -17 15q0 9 3 21l3 54q0 56 -25.5 80t-109.5 24h-132q-26 0 -34 -5t-14 -29l-61 -246h86q59 0 82.5 19t37.5 76q4 15 7 18.5t13 3.5q17 0 17 -13q0 -4 -4 -18l-53 -214q-2 -9 -5 -13.5t-6 -5.5t-9 -1q-16 0 -16 13
q0 4 4 18q6 24 6 44q0 22 -14 32t-62 10h-92l-69 -275q-4 -14 -4 -29q10 -3 29 -3h131q47 0 81 8t58.5 21.5t45 40t34.5 54t34 73.5q12 27 13 27q4 3 12 3q17 0 17 -13zM605 822q0 -26 -20.5 -45t-44.5 -19q-18 0 -31.5 12t-13.5 32q0 26 20.5 45t44.5 19q18 0 31.5 -12
t13.5 -32z" />
    <glyph glyph-name="edotaccent" unicode="&#x117;" horiz-adv-x="472" 
d="M482 101q-29 -48 -90 -80t-128 -32q-65 0 -106.5 48t-41.5 130q0 65 25 119t63 87t81 51t83 18q49 0 77.5 -25t28.5 -61q0 -15 -4.5 -31t-23.5 -38.5t-51 -35.5q-57 -22 -163 -22h-29q-16 -64 -16 -104q0 -16 3 -32.5t10.5 -35.5t24 -31t40.5 -12q42 0 93.5 23t90.5 72
q9 11 14 11q13 0 19 -19zM433 357q0 25 -17 42.5t-48 17.5q-8 0 -17.5 -1.5t-31 -10.5t-39.5 -24.5t-38 -48.5t-33 -78q30 0 49.5 0.5t56 6t59.5 15.5t41 31t18 50zM441 610q0 -26 -20.5 -45t-44.5 -19q-18 0 -31.5 12t-13.5 32q0 26 20.5 45t44.5 19q18 0 31.5 -12
t13.5 -32z" />
    <glyph glyph-name="Eogonek" unicode="&#x118;" horiz-adv-x="696" 
d="M704 245q0 -3 -6 -16l-87 -211q-5 -13 -9.5 -15.5t-21.5 -2.5h-85q-85 -51 -95 -95q-7 -32 17 -50.5t55 -18.5q52 0 89 56q5 8 12.5 5t3.5 -12q-21 -42 -61 -69t-78 -27q-47 0 -73 27t-18 63q14 67 109 121h-363q-10 0 -14.5 0.5t-8.5 3.5t-4 9q0 12 6 15t21 3
q49 0 62 7.5t20 34.5l134 538q4 15 4 21q0 7 -2 9.5t-15 5t-41 2.5q-10 0 -14.5 0.5t-8 3.5t-3.5 9q0 12 6.5 15t21.5 3h474q10 0 14.5 -0.5t8.5 -3.5t4 -10l-23 -188q-2 -14 -4.5 -18.5t-13.5 -4.5q-17 0 -17 15q0 9 3 21l3 54q0 56 -25.5 80t-109.5 24h-132q-26 0 -34 -5
t-14 -29l-61 -246h86q59 0 82.5 19t37.5 76q4 15 7 18.5t13 3.5q17 0 17 -13q0 -4 -4 -18l-53 -214q-2 -9 -5 -13.5t-6 -5.5t-9 -1q-16 0 -16 13q0 4 4 18q6 24 6 44q0 22 -14 32t-62 10h-92l-69 -275q-4 -14 -4 -29q10 -3 29 -3h131q47 0 81 8t58.5 21.5t45 40t34.5 54
t34 73.5q12 27 13 27q4 3 12 3q17 0 17 -13z" />
    <glyph glyph-name="eogonek" unicode="&#x119;" horiz-adv-x="472" 
d="M482 101q-45 -71 -137 -99q-85 -51 -95 -97q-7 -32 17 -50.5t55 -18.5q52 0 89 56q5 8 12.5 5t3.5 -12q-21 -42 -61 -69t-78 -27q-47 0 -73 27t-18 63q13 61 90 111q-8 -1 -23 -1q-65 0 -106.5 48t-41.5 130q0 65 25 119t63 87t81 51t83 18q49 0 77.5 -25t28.5 -61
q0 -15 -4.5 -31t-23.5 -38.5t-51 -35.5q-57 -22 -163 -22h-29q-16 -64 -16 -104q0 -16 3 -32.5t10.5 -35.5t24 -31t40.5 -12q42 0 93.5 23t90.5 72q9 11 14 11q13 0 19 -19zM433 357q0 25 -17 42.5t-48 17.5q-8 0 -17.5 -1.5t-31 -10.5t-39.5 -24.5t-38 -48.5t-33 -78
q30 0 49.5 0.5t56 6t59.5 15.5t41 31t18 50z" />
    <glyph glyph-name="Ecaron" unicode="&#x11a;" horiz-adv-x="696" 
d="M704 245q0 -3 -6 -16l-87 -211q-5 -13 -9.5 -15.5t-21.5 -2.5h-487q-10 0 -14.5 0.5t-8.5 3.5t-4 9q0 12 6 15t21 3q49 0 62 7.5t20 34.5l134 538q4 15 4 21q0 7 -2 9.5t-15 5t-41 2.5q-10 0 -14.5 0.5t-8 3.5t-3.5 9q0 12 6.5 15t21.5 3h474q10 0 14.5 -0.5t8.5 -3.5
t4 -10l-23 -188q-2 -14 -4.5 -18.5t-13.5 -4.5q-17 0 -17 15q0 9 3 21l3 54q0 56 -25.5 80t-109.5 24h-132q-26 0 -34 -5t-14 -29l-61 -246h86q59 0 82.5 19t37.5 76q4 15 7 18.5t13 3.5q17 0 17 -13q0 -4 -4 -18l-53 -214q-2 -9 -5 -13.5t-6 -5.5t-9 -1q-16 0 -16 13
q0 4 4 18q6 24 6 44q0 22 -14 32t-62 10h-92l-69 -275q-4 -14 -4 -29q10 -3 29 -3h131q47 0 81 8t58.5 21.5t45 40t34.5 54t34 73.5q12 27 13 27q4 3 12 3q17 0 17 -13zM693 836l-155 -98q-7 -3 -12 0l-106 98q-6 5 1 13.5t14 4.5l112 -55l140 55q6 2 10 -1t3 -8.5t-7 -8.5z
" />
    <glyph glyph-name="ecaron" unicode="&#x11b;" horiz-adv-x="472" 
d="M482 101q-29 -48 -90 -80t-128 -32q-65 0 -106.5 48t-41.5 130q0 65 25 119t63 87t81 51t83 18q49 0 77.5 -25t28.5 -61q0 -15 -4.5 -31t-23.5 -38.5t-51 -35.5q-57 -22 -163 -22h-29q-16 -64 -16 -104q0 -16 3 -32.5t10.5 -35.5t24 -31t40.5 -12q42 0 93.5 23t90.5 72
q9 11 14 11q13 0 19 -19zM433 357q0 25 -17 42.5t-48 17.5q-8 0 -17.5 -1.5t-31 -10.5t-39.5 -24.5t-38 -48.5t-33 -78q30 0 49.5 0.5t56 6t59.5 15.5t41 31t18 50zM540 664l-166 -144q-9 -8 -15 0l-94 144q-4 7 4 14.5t14 1.5l98 -99l148 99q9 6 14.5 -1.5t-3.5 -14.5z" />
    <glyph glyph-name="Gcircumflex" unicode="&#x11c;" horiz-adv-x="794" 
d="M786 261q0 -18 -16 -18q-31 -1 -41.5 -4t-15.5 -15q-1 -2 -29 -110l-22 -90q-9 -22 -15 -23q-9 0 -21 20t-18 37q-74 -80 -203 -80q-113 0 -183.5 76t-70.5 193q0 113 62 220t162 172.5t204 65.5t156 -87l75 87q18 0 18 -11q0 -7 -2 -13l-61 -243q-3 -12 -6 -15.5
t-13 -3.5q-17 0 -17 12q0 2 1 9t2 19.5t1 27.5q0 82 -37.5 134.5t-110.5 52.5q-49 0 -108.5 -26.5t-115.5 -90.5q-63 -73 -93 -176t-30 -169q0 -99 52.5 -151t128.5 -52q31 0 65.5 8.5t72.5 37t49 73.5q23 86 23 95q0 10 -5 13t-24 5q-18 2 -43 2h-9q-10 0 -14.5 0.5
t-8.5 3.5t-4 9q0 18 20 18q21 0 64.5 -1.5t65.5 -1.5q17 0 51 1.5t50 1.5q14 0 14 -13zM722 755q6 -5 -1 -13.5t-14 -4.5l-112 55l-140 -55q-6 -2 -10 1t-3 8.5t7 8.5l155 98q7 3 12 0z" />
    <glyph glyph-name="gcircumflex" unicode="&#x11d;" horiz-adv-x="472" 
d="M384 -66q-14 -56 -69.5 -97.5t-135.5 -41.5q-123 0 -123 58q0 26 15.5 39t32.5 13q15 0 24.5 -8.5t9.5 -23.5q0 -13 -7 -24t-12.5 -15t-8.5 -5q29 -9 70 -9q56 0 94 43q22 24 30.5 42.5t18.5 60.5l21 84q-54 -50 -107 -50q-50 0 -87.5 40t-37.5 115q0 109 73.5 198
t156.5 89q58 0 86 -54q4 15 15 24.5t26 9.5q12 0 20.5 -8t8.5 -20q0 -6 -4 -20zM365 133l45 181q3 12 3 14q0 3 -1 11t-6 22t-12 26t-20.5 21t-31.5 9q-29 0 -60.5 -29t-53.5 -78q-14 -32 -30 -98t-16 -99q0 -10 1.5 -21t6.5 -28t18 -28t32 -11q37 0 77 39t48 69zM522 536
q4 -7 -4 -14.5t-14 -1.5l-98 99l-148 -99q-9 -6 -14.5 1.5t3.5 14.5l166 144q9 8 15 0z" />
    <glyph glyph-name="Gbreve" unicode="&#x11e;" horiz-adv-x="794" 
d="M786 261q0 -18 -16 -18q-31 -1 -41.5 -4t-15.5 -15q-1 -2 -29 -110l-22 -90q-9 -22 -15 -23q-9 0 -21 20t-18 37q-74 -80 -203 -80q-113 0 -183.5 76t-70.5 193q0 113 62 220t162 172.5t204 65.5t156 -87l75 87q18 0 18 -11q0 -7 -2 -13l-61 -243q-3 -12 -6 -15.5
t-13 -3.5q-17 0 -17 12q0 2 1 9t2 19.5t1 27.5q0 82 -37.5 134.5t-110.5 52.5q-49 0 -108.5 -26.5t-115.5 -90.5q-63 -73 -93 -176t-30 -169q0 -99 52.5 -151t128.5 -52q31 0 65.5 8.5t72.5 37t49 73.5q23 86 23 95q0 10 -5 13t-24 5q-18 2 -43 2h-9q-10 0 -14.5 0.5
t-8.5 3.5t-4 9q0 18 20 18q21 0 64.5 -1.5t65.5 -1.5q17 0 51 1.5t50 1.5q14 0 14 -13zM767 906q0 -20 -20.5 -56.5t-64.5 -70t-95 -33.5q-53 0 -83 35t-30 86q0 52 18 52q12 -2 12 -14q0 -1 -2 -12t-2 -19q0 -38 24.5 -63.5t65.5 -25.5q42 0 87 30t65 91q4 13 13 13
q4 0 8 -3.5t4 -9.5z" />
    <glyph glyph-name="gbreve" unicode="&#x11f;" horiz-adv-x="472" 
d="M384 -66q-14 -56 -69.5 -97.5t-135.5 -41.5q-123 0 -123 58q0 26 15.5 39t32.5 13q15 0 24.5 -8.5t9.5 -23.5q0 -13 -7 -24t-12.5 -15t-8.5 -5q29 -9 70 -9q56 0 94 43q22 24 30.5 42.5t18.5 60.5l21 84q-54 -50 -107 -50q-50 0 -87.5 40t-37.5 115q0 109 73.5 198
t156.5 89q58 0 86 -54q4 15 15 24.5t26 9.5q12 0 20.5 -8t8.5 -20q0 -6 -4 -20zM365 133l45 181q3 12 3 14q0 3 -1 11t-6 22t-12 26t-20.5 21t-31.5 9q-29 0 -60.5 -29t-53.5 -78q-14 -32 -30 -98t-16 -99q0 -10 1.5 -21t6.5 -28t18 -28t32 -11q37 0 77 39t48 69zM562 674
q0 -20 -20.5 -56.5t-64.5 -70t-95 -33.5q-53 0 -83 35t-30 86q0 52 18 52q12 -2 12 -14q0 -1 -2 -12t-2 -19q0 -38 24.5 -63.5t65.5 -25.5q42 0 87 30t65 91q4 13 13 13q4 0 8 -3.5t4 -9.5z" />
    <glyph glyph-name="Gdotaccent" unicode="&#x120;" horiz-adv-x="794" 
d="M786 261q0 -18 -16 -18q-31 -1 -41.5 -4t-15.5 -15q-1 -2 -29 -110l-22 -90q-9 -22 -15 -23q-9 0 -21 20t-18 37q-74 -80 -203 -80q-113 0 -183.5 76t-70.5 193q0 113 62 220t162 172.5t204 65.5t156 -87l75 87q18 0 18 -11q0 -7 -2 -13l-61 -243q-3 -12 -6 -15.5
t-13 -3.5q-17 0 -17 12q0 2 1 9t2 19.5t1 27.5q0 82 -37.5 134.5t-110.5 52.5q-49 0 -108.5 -26.5t-115.5 -90.5q-63 -73 -93 -176t-30 -169q0 -99 52.5 -151t128.5 -52q31 0 65.5 8.5t72.5 37t49 73.5q23 86 23 95q0 10 -5 13t-24 5q-18 2 -43 2h-9q-10 0 -14.5 0.5
t-8.5 3.5t-4 9q0 18 20 18q21 0 64.5 -1.5t65.5 -1.5q17 0 51 1.5t50 1.5q14 0 14 -13zM654 822q0 -26 -20.5 -45t-44.5 -19q-18 0 -31.5 12t-13.5 32q0 26 20.5 45t44.5 19q18 0 31.5 -12t13.5 -32z" />
    <glyph glyph-name="gdotaccent" unicode="&#x121;" horiz-adv-x="472" 
d="M384 -66q-14 -56 -69.5 -97.5t-135.5 -41.5q-123 0 -123 58q0 26 15.5 39t32.5 13q15 0 24.5 -8.5t9.5 -23.5q0 -13 -7 -24t-12.5 -15t-8.5 -5q29 -9 70 -9q56 0 94 43q22 24 30.5 42.5t18.5 60.5l21 84q-54 -50 -107 -50q-50 0 -87.5 40t-37.5 115q0 109 73.5 198
t156.5 89q58 0 86 -54q4 15 15 24.5t26 9.5q12 0 20.5 -8t8.5 -20q0 -6 -4 -20zM365 133l45 181q3 12 3 14q0 3 -1 11t-6 22t-12 26t-20.5 21t-31.5 9q-29 0 -60.5 -29t-53.5 -78q-14 -32 -30 -98t-16 -99q0 -10 1.5 -21t6.5 -28t18 -28t32 -11q37 0 77 39t48 69zM455 610
q0 -26 -20.5 -45t-44.5 -19q-18 0 -31.5 12t-13.5 32q0 26 20.5 45t44.5 19q18 0 31.5 -12t13.5 -32z" />
    <glyph glyph-name="Gcommaaccent" unicode="&#x122;" horiz-adv-x="794" 
d="M786 261q0 -18 -16 -18q-31 -1 -41.5 -4t-15.5 -15q-1 -2 -29 -110l-22 -90q-9 -22 -15 -23q-9 0 -21 20t-18 37q-74 -80 -203 -80q-113 0 -183.5 76t-70.5 193q0 113 62 220t162 172.5t204 65.5t156 -87l75 87q18 0 18 -11q0 -7 -2 -13l-61 -243q-3 -12 -6 -15.5
t-13 -3.5q-17 0 -17 12q0 2 1 9t2 19.5t1 27.5q0 82 -37.5 134.5t-110.5 52.5q-49 0 -108.5 -26.5t-115.5 -90.5q-63 -73 -93 -176t-30 -169q0 -99 52.5 -151t128.5 -52q31 0 65.5 8.5t72.5 37t49 73.5q23 86 23 95q0 10 -5 13t-24 5q-18 2 -43 2h-9q-10 0 -14.5 0.5
t-8.5 3.5t-4 9q0 18 20 18q21 0 64.5 -1.5t65.5 -1.5q17 0 51 1.5t50 1.5q14 0 14 -13zM410 -112q0 -40 -24 -84.5t-49 -70t-34 -25.5q-7 0 -9 9l1 3q1 2 6 7q69 57 86 135q-13 -9 -28 -9t-24.5 9t-9.5 23q0 17 14 33t36 16q35 0 35 -46z" />
    <glyph glyph-name="gcommaaccent" unicode="&#x123;" horiz-adv-x="472" 
d="M433 558q0 -17 -14 -33t-36 -16q-35 0 -35 46q0 40 24 84.5t49 70t34 25.5q7 0 9 -9l-1 -3q-1 -2 -6 -7q-69 -57 -86 -135q13 9 28 9t24.5 -9t9.5 -23zM384 -66q-14 -56 -69.5 -97.5t-135.5 -41.5q-123 0 -123 58q0 26 15.5 39t32.5 13q15 0 24.5 -8.5t9.5 -23.5
q0 -13 -7 -24t-12.5 -15t-8.5 -5q29 -9 70 -9q56 0 94 43q22 24 30.5 42.5t18.5 60.5l21 84q-54 -50 -107 -50q-50 0 -87.5 40t-37.5 115q0 109 73.5 198t156.5 89q58 0 86 -54q4 15 15 24.5t26 9.5q12 0 20.5 -8t8.5 -20q0 -6 -4 -20zM365 133l45 181q3 12 3 14q0 3 -1 11
t-6 22t-12 26t-20.5 21t-31.5 9q-29 0 -60.5 -29t-53.5 -78q-14 -32 -30 -98t-16 -99q0 -10 1.5 -21t6.5 -28t18 -28t32 -11q37 0 77 39t48 69z" />
    <glyph glyph-name="Hcircumflex" unicode="&#x124;" horiz-adv-x="763" 
d="M703 18q0 -18 -19 -18t-58.5 1.5t-59.5 1.5t-59 -1.5t-58 -1.5q-15 0 -15 13q0 12 6 15t21 3q49 0 62 7.5t20 34.5l66 267h-287l-67 -271q-4 -15 -4 -21q0 -7 2 -9.5t15 -5t41 -2.5q10 0 14.5 -0.5t8 -3.5t3.5 -9q0 -18 -19 -18t-58.5 1.5t-59.5 1.5t-59 -1.5t-58 -1.5
q-15 0 -15 13q0 12 6 15t21 3q49 0 62 7.5t20 34.5l135 542q4 14 4 20t-2 9t-15.5 5.5t-40.5 2.5q-10 0 -14.5 0.5t-8.5 3.5t-4 9q0 18 19 18t59 -1.5t60 -1.5t59 1.5t58 1.5q14 0 14 -13q0 -12 -6.5 -15t-22.5 -3q-47 0 -60 -7.5t-19 -33.5l-60 -240h287l61 244q4 14 4 20
t-2 9t-15.5 5.5t-40.5 2.5q-10 0 -14.5 0.5t-8.5 3.5t-4 9q0 18 19 18t59 -1.5t60 -1.5t59 1.5t58 1.5q14 0 14 -13q0 -12 -6 -15t-22 -3q-48 0 -61 -8t-20 -36l-134 -536q-4 -16 -4 -24q0 -7 2 -9.5t15 -5t41 -2.5q10 0 14.5 -0.5t8 -3.5t3.5 -9zM706 755q6 -5 -1 -13.5
t-14 -4.5l-112 55l-140 -55q-6 -2 -10 1t-3 8.5t7 8.5l155 98q7 3 12 0z" />
    <glyph glyph-name="hcircumflex" unicode="&#x125;" 
d="M551 143q0 -5 -7.5 -27.5t-22 -52t-42 -52t-60.5 -22.5t-56 21.5t-23 60.5q0 22 14 60q60 159 60 221q0 65 -47 65q-54 0 -102 -48q-43 -43 -61 -109l-32 -130q-14 -57 -22 -86q-5 -19 -8 -28.5t-12 -18t-24 -8.5q-14 0 -22 8t-8 20q0 6 4 20l144 576l4 22q0 6 -1.5 9
t-12.5 5.5t-33 2.5h-11.5t-8 1.5t-6 4t-1.5 7.5q0 12 5.5 15t19.5 4l104 9q26 3 26 -13q0 -1 -0.5 -2.5t-1.5 -5.5t-2 -10l-70 -282q59 62 134 62q52 0 81 -28t29 -78q0 -59 -59 -216q-20 -55 -20 -78q0 -28 21 -28q59 0 92 117q5 16 8 20t13 4q17 0 17 -12zM590 766
q6 -5 -1 -13.5t-14 -4.5l-112 55l-140 -55q-6 -2 -10 1t-3 8.5t7 8.5l155 98q7 3 12 0z" />
    <glyph glyph-name="Hbar" unicode="&#x126;" horiz-adv-x="763" 
d="M703 18q0 -18 -19 -18t-58.5 1.5t-59.5 1.5t-59 -1.5t-58 -1.5q-15 0 -15 13q0 12 6 15t21 3q49 0 62 7.5t20 34.5l66 267h-287l-67 -271q-4 -15 -4 -21q0 -7 2 -9.5t15 -5t41 -2.5q10 0 14.5 -0.5t8 -3.5t3.5 -9q0 -18 -19 -18t-58.5 1.5t-59.5 1.5t-59 -1.5t-58 -1.5
q-15 0 -15 13q0 12 6 15t21 3q49 0 62 7.5t20 34.5l106 425h-77q-15 0 -12 15q4 15 19 15h77l22 87q4 14 4 20t-2 9t-15.5 5.5t-40.5 2.5q-10 0 -14.5 0.5t-8.5 3.5t-4 9q0 18 19 18t59 -1.5t60 -1.5t59 1.5t58 1.5q14 0 14 -13q0 -12 -6.5 -15t-22.5 -3q-47 0 -60 -7.5
t-19 -33.5l-21 -83h287l22 87q4 14 4 20t-2 9t-15.5 5.5t-40.5 2.5q-10 0 -14.5 0.5t-8.5 3.5t-4 9q0 18 19 18t59 -1.5t60 -1.5t59 1.5t58 1.5q14 0 14 -13q0 -12 -6 -15t-22 -3q-48 0 -61 -8t-20 -36l-20 -80h78q6 0 9.5 -4.5t1.5 -10.5q-3 -15 -18 -15h-78l-107 -426
q-4 -16 -4 -24q0 -7 2 -9.5t15 -5t41 -2.5q10 0 14.5 -0.5t8 -3.5t3.5 -9zM649 498h-287l-32 -127h287z" />
    <glyph glyph-name="hbar" unicode="&#x127;" 
d="M551 143q0 -5 -7.5 -27.5t-22 -52t-42 -52t-60.5 -22.5t-56 21.5t-23 60.5q0 22 14 60q60 159 60 221q0 65 -47 65q-54 0 -102 -48q-43 -43 -61 -109l-32 -130q-14 -57 -22 -86q-5 -19 -8 -28.5t-12 -18t-24 -8.5q-14 0 -22 8t-8 20q0 6 4 20l124 496h-50q-14 0 -11 15
q4 15 19 15h50l12 50l4 22q0 6 -1.5 9t-12.5 5.5t-33 2.5h-11.5t-8 1.5t-6 4t-1.5 7.5q0 12 5.5 15t19.5 4l104 9q26 3 26 -13q0 -1 -0.5 -2.5t-1.5 -5.5t-2 -10l-25 -99h123q15 0 11 -15q-3 -15 -19 -15h-122l-38 -153q59 62 134 62q52 0 81 -28t29 -78q0 -59 -59 -216
q-20 -55 -20 -78q0 -28 21 -28q59 0 92 117q5 16 8 20t13 4q17 0 17 -12z" />
    <glyph glyph-name="Itilde" unicode="&#x128;" horiz-adv-x="396" 
d="M341 18q0 -18 -19 -18q-20 0 -61 1.5t-62 1.5q-20 0 -61.5 -1.5t-60.5 -1.5q-14 0 -14 13q0 12 6.5 15t25.5 3q47 0 61 8t20 34l135 540l4 22q0 11 -15 14t-48 3q-10 0 -14.5 0.5t-8 3.5t-3.5 9q0 18 19 18q20 0 61 -1.5t62 -1.5q20 0 61 1.5t60 1.5q15 0 15 -13
q0 -12 -6 -15t-23 -3q-36 0 -52.5 -4.5t-21.5 -11.5t-10 -26l-135 -541q-4 -14 -4 -20q0 -7 2 -10t16.5 -5.5t43.5 -2.5q10 0 14.5 -0.5t8.5 -3.5t4 -9zM562 827q0 -7 -52 -52q-49 -39 -79 -39q-13 0 -24 7t-15.5 12.5t-17.5 23.5q-15 23 -29 23q-32 0 -88 -56
q-12 -10 -16 -10q-12 0 -12 13q0 7 20 25.5t36 29.5q44 36 74 36t52 -37q18 -29 34 -29q7 0 16 3.5t17.5 9t18 12t15.5 12t12 10.5l6 5q14 14 20 14q12 0 12 -13z" />
    <glyph glyph-name="itilde" unicode="&#x129;" horiz-adv-x="315" 
d="M341 143q0 -5 -7.5 -27.5t-22 -52t-42 -52t-60.5 -22.5t-56 21.5t-23 60.5q0 20 17 65l25 69l35 93q24 66 24 91q0 28 -21 28q-60 0 -93 -124q-2 -6 -3 -8t-3 -5t-5 -3.5t-8 -0.5q-17 0 -17 12q0 6 7.5 28.5t22 51.5t42 51.5t60.5 22.5q34 0 56.5 -23t22.5 -59
q0 -21 -20 -72l-34 -94q-5 -13 -31 -81q-17 -48 -17 -71q0 -28 21 -28q59 0 92 117q5 16 8 20t13 4q17 0 17 -12zM474 639q0 -7 -52 -52q-49 -39 -79 -39q-13 0 -24 7t-15.5 12.5t-17.5 23.5q-15 23 -29 23q-32 0 -88 -56q-12 -10 -16 -10q-12 0 -12 13q0 7 20 25.5t36 29.5
q44 36 74 36t52 -37q18 -29 34 -29q7 0 16 3.5t17.5 9t18 12t15.5 12t12 10.5l6 5q14 14 20 14q12 0 12 -13z" />
    <glyph glyph-name="Imacron" unicode="&#x12a;" horiz-adv-x="396" 
d="M341 18q0 -18 -19 -18q-20 0 -61 1.5t-62 1.5q-20 0 -61.5 -1.5t-60.5 -1.5q-14 0 -14 13q0 12 6.5 15t25.5 3q47 0 61 8t20 34l135 540l4 22q0 11 -15 14t-48 3q-10 0 -14.5 0.5t-8 3.5t-3.5 9q0 18 19 18q20 0 61 -1.5t62 -1.5q20 0 61 1.5t60 1.5q15 0 15 -13
q0 -12 -6 -15t-23 -3q-36 0 -52.5 -4.5t-21.5 -11.5t-10 -26l-135 -541q-4 -14 -4 -20q0 -7 2 -10t16.5 -5.5t43.5 -2.5q10 0 14.5 -0.5t8.5 -3.5t4 -9zM562 777q0 -10 -4.5 -15t-9 -5.5t-15.5 -0.5h-286q-26 0 -26 13q0 10 4.5 15t9 5.5t15.5 0.5h286q10 0 14.5 -0.5
t8 -3.5t3.5 -9z" />
    <glyph glyph-name="imacron" unicode="&#x12b;" horiz-adv-x="315" 
d="M341 143q0 -5 -7.5 -27.5t-22 -52t-42 -52t-60.5 -22.5t-56 21.5t-23 60.5q0 20 17 65l25 69l35 93q24 66 24 91q0 28 -21 28q-60 0 -93 -124q-2 -6 -3 -8t-3 -5t-5 -3.5t-8 -0.5q-17 0 -17 12q0 6 7.5 28.5t22 51.5t42 51.5t60.5 22.5q34 0 56.5 -23t22.5 -59
q0 -21 -20 -72l-34 -94q-5 -13 -31 -81q-17 -48 -17 -71q0 -28 21 -28q59 0 92 117q5 16 8 20t13 4q17 0 17 -12zM478 604q0 -10 -4.5 -15t-9 -5.5t-15.5 -0.5h-286q-26 0 -26 13q0 10 4.5 15t9 5.5t15.5 0.5h286q10 0 14.5 -0.5t8 -3.5t3.5 -9z" />
    <glyph glyph-name="Ibreve" unicode="&#x12c;" horiz-adv-x="396" 
d="M341 18q0 -18 -19 -18q-20 0 -61 1.5t-62 1.5q-20 0 -61.5 -1.5t-60.5 -1.5q-14 0 -14 13q0 12 6.5 15t25.5 3q47 0 61 8t20 34l135 540l4 22q0 11 -15 14t-48 3q-10 0 -14.5 0.5t-8 3.5t-3.5 9q0 18 19 18q20 0 61 -1.5t62 -1.5q20 0 61 1.5t60 1.5q15 0 15 -13
q0 -12 -6 -15t-23 -3q-36 0 -52.5 -4.5t-21.5 -11.5t-10 -26l-135 -541q-4 -14 -4 -20q0 -7 2 -10t16.5 -5.5t43.5 -2.5q10 0 14.5 -0.5t8.5 -3.5t4 -9zM568 906q0 -20 -20.5 -56.5t-64.5 -70t-95 -33.5q-53 0 -83 35t-30 86q0 52 18 52q12 -2 12 -14q0 -1 -2 -12t-2 -19
q0 -38 24.5 -63.5t65.5 -25.5q42 0 87 30t65 91q4 13 13 13q4 0 8 -3.5t4 -9.5z" />
    <glyph glyph-name="ibreve" unicode="&#x12d;" horiz-adv-x="315" 
d="M341 143q0 -5 -7.5 -27.5t-22 -52t-42 -52t-60.5 -22.5t-56 21.5t-23 60.5q0 20 17 65l25 69l35 93q24 66 24 91q0 28 -21 28q-60 0 -93 -124q-2 -6 -3 -8t-3 -5t-5 -3.5t-8 -0.5q-17 0 -17 12q0 6 7.5 28.5t22 51.5t42 51.5t60.5 22.5q34 0 56.5 -23t22.5 -59
q0 -21 -20 -72l-34 -94q-5 -13 -31 -81q-17 -48 -17 -71q0 -28 21 -28q59 0 92 117q5 16 8 20t13 4q17 0 17 -12zM469 674q0 -20 -20.5 -56.5t-64.5 -70t-95 -33.5q-53 0 -83 35t-30 86q0 52 18 52q12 -2 12 -14q0 -1 -2 -12t-2 -19q0 -38 24.5 -63.5t65.5 -25.5q42 0 87 30
t65 91q4 13 13 13q4 0 8 -3.5t4 -9.5z" />
    <glyph glyph-name="Iogonek" unicode="&#x12e;" horiz-adv-x="396" 
d="M309 -115q-21 -42 -61 -69t-78 -27q-47 0 -73 27t-18 63q13 63 108 124l-110 -3q-14 0 -14 13q0 12 6.5 15t25.5 3q47 0 61 8t20 34l135 540l4 22q0 11 -15 14t-48 3q-10 0 -14.5 0.5t-8 3.5t-3.5 9q0 18 19 18q20 0 61 -1.5t62 -1.5q20 0 61 1.5t60 1.5q15 0 15 -13
q0 -12 -6 -15t-23 -3q-36 0 -52.5 -4.5t-21.5 -11.5t-10 -26l-135 -541q-4 -14 -4 -20q0 -7 2 -10t16.5 -5.5t43.5 -2.5q10 0 14.5 -0.5t8.5 -3.5t4 -9q0 -18 -19 -18q-14 0 -29.5 0.5t-35 1.5t-30.5 1q-32 -17 -63 -46q-27 -25 -32 -52q-7 -32 17 -50.5t55 -18.5
q52 0 89 56q5 8 12.5 5t3.5 -12z" />
    <glyph glyph-name="iogonek" unicode="&#x12f;" horiz-adv-x="315" 
d="M329 623q0 -18 -14 -32.5t-33 -14.5q-12 0 -23 8t-11 26t15 32t33 14q15 0 24 -10t9 -23zM295 -115q-21 -42 -61 -69t-78 -27q-47 0 -73 27t-18 63q13 62 103 120q-38 22 -38 72q0 20 17 65l25 69l35 93q24 66 24 91q0 28 -21 28q-60 0 -93 -124q-2 -6 -3 -8t-3 -5
t-5 -3.5t-8 -0.5q-17 0 -17 12q0 6 7.5 28.5t22 51.5t42 51.5t60.5 22.5q34 0 56.5 -23t22.5 -59q0 -21 -20 -72l-34 -94q-5 -13 -31 -81q-17 -48 -17 -71q0 -28 21 -28q59 0 92 117q5 16 8 20t13 4q17 0 17 -12q0 -5 -7.5 -27.5t-22 -52t-42 -52t-60.5 -22.5q-5 0 -17 2
q-24 -16 -42 -34q-27 -25 -32 -52q-7 -32 17 -50.5t55 -18.5q52 0 89 56q5 8 12.5 5t3.5 -12z" />
    <glyph glyph-name="Idotaccent" unicode="&#x130;" horiz-adv-x="396" 
d="M341 18q0 -18 -19 -18q-20 0 -61 1.5t-62 1.5q-20 0 -61.5 -1.5t-60.5 -1.5q-14 0 -14 13q0 12 6.5 15t25.5 3q47 0 61 8t20 34l135 540l4 22q0 11 -15 14t-48 3q-10 0 -14.5 0.5t-8 3.5t-3.5 9q0 18 19 18q20 0 61 -1.5t62 -1.5q20 0 61 1.5t60 1.5q15 0 15 -13
q0 -12 -6 -15t-23 -3q-36 0 -52.5 -4.5t-21.5 -11.5t-10 -26l-135 -541q-4 -14 -4 -20q0 -7 2 -10t16.5 -5.5t43.5 -2.5q10 0 14.5 -0.5t8.5 -3.5t4 -9zM455 822q0 -26 -20.5 -45t-44.5 -19q-18 0 -31.5 12t-13.5 32q0 26 20.5 45t44.5 19q18 0 31.5 -12t13.5 -32z" />
    <glyph glyph-name="dotlessi" unicode="&#x131;" horiz-adv-x="315" 
d="M341 143q0 -5 -7.5 -27.5t-22 -52t-42 -52t-60.5 -22.5t-56 21.5t-23 60.5q0 20 17 65l25 69l35 93q24 66 24 91q0 28 -21 28q-60 0 -93 -124q-2 -6 -3 -8t-3 -5t-5 -3.5t-8 -0.5q-17 0 -17 12q0 6 7.5 28.5t22 51.5t42 51.5t60.5 22.5q34 0 56.5 -23t22.5 -59
q0 -21 -20 -72l-34 -94q-5 -13 -31 -81q-17 -48 -17 -71q0 -28 21 -28q59 0 92 117q5 16 8 20t13 4q17 0 17 -12z" />
    <glyph glyph-name="Jcircumflex" unicode="&#x134;" horiz-adv-x="539" 
d="M631 670q0 -12 -6 -15t-19 -3q-34 0 -44 -7t-16 -33l-118 -473q-17 -66 -77 -113.5t-128 -47.5q-52 0 -86 30t-34 78q0 25 7.5 41.5t19 22.5t18.5 8t13 2q16 0 27.5 -9.5t11.5 -27.5q0 -2 -0.5 -7t-4.5 -13.5t-10 -16t-18 -13t-29 -5.5q7 -34 31 -49.5t52 -15.5
q41 0 79 43t52 99l116 466q4 14 4 20q0 10 -5 13.5t-24 5.5q-20 2 -46 2h-10q-10 0 -14.5 0.5t-8.5 3.5t-4 9q0 18 20 18q21 0 66 -1.5t67 -1.5q17 0 52.5 1.5t51.5 1.5q14 0 14 -13zM654 755q6 -5 -1 -13.5t-14 -4.5l-112 55l-140 -55q-6 -2 -10 1t-3 8.5t7 8.5l155 98
q7 3 12 0z" />
    <glyph glyph-name="jcircumflex" unicode="&#x135;" horiz-adv-x="315" 
d="M231 -52q-15 -63 -65 -108t-111 -45q-36 0 -63 14t-27 45q0 23 15.5 37t32.5 14q15 0 24.5 -8.5t9.5 -23.5q0 -30 -30 -45q15 -8 38 -8q25 0 46 17t33.5 41.5t18.5 40.5t8 26l95 381q7 28 7 51q0 40 -27 40q-32 0 -62.5 -31t-55.5 -93q-2 -5 -3 -7l-2.5 -5t-3.5 -3.5
t-4.5 -1t-6.5 -0.5q-17 0 -17 12q0 5 11 28t29.5 52t50 51.5t66.5 22.5q38 0 63.5 -24.5t25.5 -66.5q0 -17 -4 -33zM429 536q4 -7 -4 -14.5t-14 -1.5l-98 99l-148 -99q-9 -6 -14.5 1.5t3.5 14.5l166 144q9 8 15 0z" />
    <glyph glyph-name="Kcommaaccent" unicode="&#x136;" horiz-adv-x="789" 
d="M727 18q0 -18 -18 -18q-14 0 -45 1.5t-46 1.5q-18 0 -54.5 -1.5t-53.5 -1.5q-6 0 -9.5 3t-4.5 7v3q0 18 20 18q49 0 49 31q0 7 -6 21l-113 281l-148 -120l-34 -140q-13 -47 -13 -56q0 -7 2 -9.5t15 -5t41 -2.5q10 0 14.5 -0.5t8 -3.5t3.5 -9q0 -18 -19 -18t-58.5 1.5
t-59.5 1.5t-59 -1.5t-58 -1.5q-15 0 -15 13q0 12 6 15t21 3q49 0 62 7.5t20 34.5l135 542q4 14 4 20t-2 9t-15.5 5.5t-40.5 2.5q-10 0 -14.5 0.5t-8.5 3.5t-4 9q0 18 19 18t59 -1.5t60 -1.5t59 1.5t58 1.5q14 0 14 -13q0 -12 -6.5 -15t-22.5 -3q-47 0 -60 -7.5t-19 -33.5
l-79 -318l362 292q5 5 9 8q2 4 6 6q20 20 20 34q0 17 -24 19q-15 0 -15 13q0 18 19 18q16 0 51 -1.5t53 -1.5q20 0 34.5 0.5t20.5 1t10.5 1t6.5 0.5q13 0 13 -13q0 -16 -19 -18q-64 -6 -160 -85l-188 -152l138 -343q9 -24 20.5 -32t38.5 -9q20 0 20 -13zM407 -112
q0 -40 -24 -84.5t-49 -70t-34 -25.5q-7 0 -9 9l1 3q1 2 6 7q69 57 86 135q-14 -9 -28 -9q-15 0 -24.5 9t-9.5 23q0 17 14 33t36 16q35 0 35 -46z" />
    <glyph glyph-name="kcommaaccent" unicode="&#x137;" horiz-adv-x="472" 
d="M498 143q0 -3 -4.5 -19.5t-14 -41t-19.5 -41.5q-33 -52 -79 -52q-37 0 -62.5 26t-25.5 72q0 17 4 34q3 14 3 23q0 36 -29.5 56.5t-74.5 26.5q-51 -209 -56 -218q-12 -20 -34 -20q-14 0 -22 8t-8 20q0 6 4 20l144 576l4 22q0 6 -1.5 9t-12.5 5.5t-33 2.5h-11.5t-8 1.5
t-6 4t-1.5 7.5q0 12 5.5 15t19.5 4l104 9q26 3 26 -13q0 -1 -4 -18l-99 -398q33 15 91 78q31 35 48 51t45.5 32.5t56.5 16.5q29 0 47 -17.5t18 -44.5q0 -28 -15.5 -42t-33.5 -14q-15 0 -24.5 8.5t-9.5 23.5q0 16 11 30.5t32 17.5q-8 13 -27 13q-50 0 -100 -58
q-79 -87 -112 -109q135 -21 135 -105q0 -15 -4 -31q-9 -35 -9 -59q0 -41 29 -41q48 0 77 118q3 15 6 19t14 4q17 0 17 -12zM249 -112q0 -40 -24 -84.5t-49 -70t-34 -25.5q-7 0 -9 9l1 3q1 2 6 7q69 57 86 135q-14 -9 -28 -9q-15 0 -24.5 9t-9.5 23q0 17 14 33t36 16
q35 0 35 -46z" />
    <glyph glyph-name="Lacute" unicode="&#x139;" horiz-adv-x="644" 
d="M639 245q0 -4 -5 -17l-76 -209q-5 -14 -9.5 -16.5t-20.5 -2.5h-435q-10 0 -14.5 0.5t-8.5 3.5t-4 9q0 12 6 15t21 3q49 0 62 7.5t20 34.5l135 542q4 14 4 20t-2 9t-15.5 5.5t-40.5 2.5q-10 0 -14.5 0.5t-8.5 3.5t-4 9q0 18 19 18q20 0 61.5 -1.5t62.5 -1.5q23 0 67.5 1.5
t66.5 1.5q16 0 16 -13q0 -12 -6 -15t-22 -3h-9q-57 0 -73 -8.5t-23 -36.5l-136 -544q-4 -14 -4 -29q10 -3 29 -3h88q46 0 83 14t59 31.5t42.5 51t29 53t22.5 57.5q7 17 12 19q3 1 8 1q17 0 17 -13zM561 871q-3 -18 -29 -31l-180 -91q-9 -4 -15 -3t-10.5 7.5t-3.5 12.5
q1 5 14 14l165 114q17 12 29 12q15 0 23.5 -10t6.5 -25z" />
    <glyph glyph-name="lacute" unicode="&#x13a;" horiz-adv-x="262" 
d="M288 143q0 -2 -4 -18t-11.5 -40t-15.5 -40q-27 -56 -74 -56q-40 0 -64.5 27t-24.5 64l5 34l125 499l4 22q0 6 -1.5 9t-12.5 5.5t-33 2.5h-11.5t-8 1.5t-6 4t-1.5 7.5q0 12 5.5 15t19.5 4l104 9q26 3 26 -13q0 -1 -4 -18l-139 -556q-8 -32 -8 -51q0 -41 26 -41q20 0 35 26
t32 92q3 15 6 19t14 4q17 0 17 -12zM493 882q-3 -18 -29 -31l-180 -91q-9 -4 -15 -3t-10.5 7.5t-3.5 12.5q1 5 14 14l165 114q17 12 29 12q15 0 23.5 -10t6.5 -25z" />
    <glyph glyph-name="Lcommaaccent" unicode="&#x13b;" horiz-adv-x="644" 
d="M639 245q0 -4 -5 -17l-76 -209q-5 -14 -9.5 -16.5t-20.5 -2.5h-435q-10 0 -14.5 0.5t-8.5 3.5t-4 9q0 12 6 15t21 3q49 0 62 7.5t20 34.5l135 542q4 14 4 20t-2 9t-15.5 5.5t-40.5 2.5q-10 0 -14.5 0.5t-8.5 3.5t-4 9q0 18 19 18q20 0 61.5 -1.5t62.5 -1.5q23 0 67.5 1.5
t66.5 1.5q16 0 16 -13q0 -12 -6 -15t-22 -3h-9q-57 0 -73 -8.5t-23 -36.5l-136 -544q-4 -14 -4 -29q10 -3 29 -3h88q46 0 83 14t59 31.5t42.5 51t29 53t22.5 57.5q7 17 12 19q3 1 8 1q17 0 17 -13zM335 -112q0 -40 -24 -84.5t-49 -70t-34 -25.5q-7 0 -9 9l1 3q1 2 6 7
q69 57 86 135q-14 -9 -28 -9q-15 0 -24.5 9t-9.5 23q0 17 14 33t36 16q35 0 35 -46z" />
    <glyph glyph-name="lcommaaccent" unicode="&#x13c;" horiz-adv-x="262" 
d="M288 143q0 -2 -4 -18t-11.5 -40t-15.5 -40q-27 -56 -74 -56q-40 0 -64.5 27t-24.5 64l5 34l125 499l4 22q0 6 -1.5 9t-12.5 5.5t-33 2.5h-11.5t-8 1.5t-6 4t-1.5 7.5q0 12 5.5 15t19.5 4l104 9q26 3 26 -13q0 -1 -4 -18l-139 -556q-8 -32 -8 -51q0 -41 26 -41q20 0 35 26
t32 92q3 15 6 19t14 4q17 0 17 -12zM144 -112q0 -40 -24 -84.5t-49 -70t-34 -25.5q-7 0 -9 9l1 3q1 2 6 7q69 57 86 135q-14 -9 -28 -9q-15 0 -24.5 9t-9.5 23q0 17 14 33t36 16q35 0 35 -46z" />
    <glyph glyph-name="Lcaron" unicode="&#x13d;" horiz-adv-x="644" 
d="M639 245q0 -4 -5 -17l-76 -209q-5 -14 -9.5 -16.5t-20.5 -2.5h-435q-10 0 -14.5 0.5t-8.5 3.5t-4 9q0 12 6 15t21 3q49 0 62 7.5t20 34.5l135 542q4 14 4 20t-2 9t-15.5 5.5t-40.5 2.5q-10 0 -14.5 0.5t-8.5 3.5t-4 9q0 18 19 18q20 0 61.5 -1.5t62.5 -1.5q23 0 67.5 1.5
t66.5 1.5q16 0 16 -13q0 -12 -6 -15t-22 -3h-9q-57 0 -73 -8.5t-23 -36.5l-136 -544q-4 -14 -4 -29q10 -3 29 -3h88q46 0 83 14t59 31.5t42.5 51t29 53t22.5 57.5q7 17 12 19q3 1 8 1q17 0 17 -13zM651 637q0 -40 -24 -84.5t-49 -70t-34 -25.5q-7 0 -9 9l1 3q1 2 6 7
q69 57 86 135q-14 -9 -28 -9q-15 0 -24.5 9t-9.5 23q0 17 14 33t36 16q35 0 35 -46z" />
    <glyph glyph-name="lcaron" unicode="&#x13e;" horiz-adv-x="262" 
d="M288 143q0 -2 -4 -18t-11.5 -40t-15.5 -40q-27 -56 -74 -56q-40 0 -64.5 27t-24.5 64l5 34l125 499l4 22q0 6 -1.5 9t-12.5 5.5t-33 2.5h-11.5t-8 1.5t-6 4t-1.5 7.5q0 12 5.5 15t19.5 4l104 9q26 3 26 -13q0 -1 -4 -18l-139 -556q-8 -32 -8 -51q0 -41 26 -41q20 0 35 26
t32 92q3 15 6 19t14 4q17 0 17 -12zM422 648q0 -40 -24 -84.5t-49 -70t-34 -25.5q-7 0 -9 9l1 3q1 2 6 7q69 57 86 135q-13 -9 -28 -9t-24.5 9t-9.5 23q0 17 14 33t36 16q35 0 35 -46z" />
    <glyph glyph-name="Ldot" unicode="&#x13f;" horiz-adv-x="644" 
d="M639 245q0 -4 -5 -17l-76 -209q-5 -14 -9.5 -16.5t-20.5 -2.5h-435q-10 0 -14.5 0.5t-8.5 3.5t-4 9q0 12 6 15t21 3q49 0 62 7.5t20 34.5l135 542q4 14 4 20t-2 9t-15.5 5.5t-40.5 2.5q-10 0 -14.5 0.5t-8.5 3.5t-4 9q0 18 19 18q20 0 61.5 -1.5t62.5 -1.5q23 0 67.5 1.5
t66.5 1.5q16 0 16 -13q0 -12 -6 -15t-22 -3h-9q-57 0 -73 -8.5t-23 -36.5l-136 -544q-4 -14 -4 -29q10 -3 29 -3h88q46 0 83 14t59 31.5t42.5 51t29 53t22.5 57.5q7 17 12 19q3 1 8 1q17 0 17 -13zM675 418q0 -26 -20.5 -45t-44.5 -19q-18 0 -31.5 12t-13.5 32q0 26 20.5 45
t44.5 19q18 0 31.5 -12t13.5 -32z" />
    <glyph glyph-name="ldot" unicode="&#x140;" horiz-adv-x="262" 
d="M288 143q0 -2 -4 -18t-11.5 -40t-15.5 -40q-27 -56 -74 -56q-40 0 -64.5 27t-24.5 64l5 34l125 499l4 22q0 6 -1.5 9t-12.5 5.5t-33 2.5h-11.5t-8 1.5t-6 4t-1.5 7.5q0 12 5.5 15t19.5 4l104 9q26 3 26 -13q0 -1 -4 -18l-139 -556q-8 -32 -8 -51q0 -41 26 -41q20 0 35 26
t32 92q3 15 6 19t14 4q17 0 17 -12zM384 379q0 -26 -20.5 -45t-44.5 -19q-18 0 -31.5 12t-13.5 32q0 26 20.5 45t44.5 19q18 0 31.5 -12t13.5 -32z" />
    <glyph glyph-name="Lslash" unicode="&#x141;" horiz-adv-x="644" 
d="M639 245q0 -4 -5 -17l-76 -209q-5 -14 -9.5 -16.5t-20.5 -2.5h-435q-10 0 -14.5 0.5t-8.5 3.5t-4 9q0 12 6 15t21 3q49 0 62 7.5t20 34.5l56 226l-67 -54l-22 25l102 80l66 265q4 19 4 20q0 6 -2 9t-15.5 5.5t-40.5 2.5q-10 0 -14.5 0.5t-8.5 3.5t-4 9q0 18 19 18
q20 0 61.5 -1.5t62.5 -1.5q23 0 67.5 1.5t66.5 1.5q16 0 16 -13q0 -12 -6 -15t-22 -3h-9q-57 0 -73 -8.5t-23 -36.5l-44 -175l134 105l20 -26l-166 -131l-80 -317q-4 -14 -4 -29q10 -3 29 -3h88q46 0 83 14t59 31.5t42.5 51t29 53t22.5 57.5q7 17 12 19q3 1 8 1q17 0 17 -13
z" />
    <glyph glyph-name="lslash" unicode="&#x142;" horiz-adv-x="328" 
d="M332 143q0 -2 -4 -18t-11.5 -40t-15.5 -40q-27 -56 -74 -56q-40 0 -64.5 27t-24.5 64l5 34l45 180l-55 -40l-16 20l82 64l69 275l4 22q0 6 -1.5 9t-12.5 5.5t-33 2.5h-11.5t-8 1.5t-6 4t-1.5 7.5q0 12 5.5 15t19.5 4l104 9q26 3 26 -13q0 -1 -4 -18l-66 -263l56 41
l16 -21l-82 -61l-63 -252q-8 -32 -8 -51q0 -41 26 -41q20 0 35 26t32 92q3 15 6 19t14 4q17 0 17 -12z" />
    <glyph glyph-name="Nacute" unicode="&#x143;" horiz-adv-x="763" 
d="M866 670q0 -18 -19 -18q-38 -2 -62.5 -17.5t-35.5 -57.5l-139 -557q-3 -13 -6 -16.5t-14 -3.5t-13.5 2.5t-7.5 14.5l-222 592l-128 -510q-4 -16 -4 -26q0 -11 3 -19t17 -15t39 -8q18 0 18 -13q0 -18 -18 -18q-15 0 -48.5 1.5t-49.5 1.5t-48.5 -1.5t-47.5 -1.5
q-14 0 -14 13q0 18 16 18q24 1 40 4.5t34.5 20t25.5 46.5l132 529l3 13q0 8 -57 8q-13 0 -18 0.5t-9 3.5t-4 9q0 12 6.5 15t21.5 3h120q16 0 20.5 -2.5t9.5 -16.5l196 -523l112 451q3 10 3 18q0 40 -58 42q-20 0 -20 13q0 18 18 18q15 0 48.5 -1.5t50.5 -1.5q16 0 48.5 1.5
t47.5 1.5q13 0 13 -13zM740 871q-3 -18 -29 -31l-180 -91q-9 -4 -15 -3t-10.5 7.5t-3.5 12.5q1 5 14 14l165 114q17 12 29 12q15 0 23.5 -10t6.5 -25z" />
    <glyph glyph-name="nacute" unicode="&#x144;" horiz-adv-x="577" 
d="M603 143q0 -5 -7.5 -27.5t-22 -52t-42 -52t-60.5 -22.5t-56 21.5t-23 60.5q0 22 14 60q60 159 60 221q0 65 -47 65q-54 0 -102 -48q-16 -16 -34 -46.5t-22 -42.5l-32 -130l-22 -86q-8 -33 -12 -45.5t-13 -21t-25 -8.5q-12 0 -20.5 7.5t-8.5 20.5q0 7 4 21l72 288
q7 28 7 51q0 40 -26 40q-38 0 -67 -117q-4 -17 -6.5 -20.5t-13.5 -3.5q-17 0 -17 13q0 3 4 18t11.5 38t14.5 39q27 58 76 58q33 0 57 -20t31 -56q62 76 146 76q52 0 81 -28t29 -78q0 -59 -59 -216q-20 -55 -20 -78q0 -28 21 -28q59 0 92 117q5 16 8 20t13 4q17 0 17 -12z
M575 666q0 -18 -23 -35l-162 -121q-9 -6 -14 -6q-6 0 -11.5 6t-5.5 12q0 5 11 16l143 141q17 17 31 17q15 0 23 -9t8 -21z" />
    <glyph glyph-name="Ncommaaccent" unicode="&#x145;" horiz-adv-x="763" 
d="M866 670q0 -18 -19 -18q-38 -2 -62.5 -17.5t-35.5 -57.5l-139 -557q-3 -13 -6 -16.5t-14 -3.5t-13.5 2.5t-7.5 14.5l-222 592l-128 -510q-4 -16 -4 -26q0 -11 3 -19t17 -15t39 -8q18 0 18 -13q0 -18 -18 -18q-15 0 -48.5 1.5t-49.5 1.5t-48.5 -1.5t-47.5 -1.5
q-14 0 -14 13q0 18 16 18q24 1 40 4.5t34.5 20t25.5 46.5l132 529l3 13q0 8 -57 8q-13 0 -18 0.5t-9 3.5t-4 9q0 12 6.5 15t21.5 3h120q16 0 20.5 -2.5t9.5 -16.5l196 -523l112 451q3 10 3 18q0 40 -58 42q-20 0 -20 13q0 18 18 18q15 0 48.5 -1.5t50.5 -1.5q16 0 48.5 1.5
t47.5 1.5q13 0 13 -13zM394 -112q0 -40 -24 -84.5t-49 -70t-34 -25.5q-7 0 -9 9l1 3q1 2 6 7q69 57 86 135q-13 -9 -28 -9t-24.5 9t-9.5 23q0 17 14 33t36 16q35 0 35 -46z" />
    <glyph glyph-name="ncommaaccent" unicode="&#x146;" horiz-adv-x="577" 
d="M603 143q0 -5 -7.5 -27.5t-22 -52t-42 -52t-60.5 -22.5t-56 21.5t-23 60.5q0 22 14 60q60 159 60 221q0 65 -47 65q-54 0 -102 -48q-16 -16 -34 -46.5t-22 -42.5l-32 -130l-22 -86q-8 -33 -12 -45.5t-13 -21t-25 -8.5q-12 0 -20.5 7.5t-8.5 20.5q0 7 4 21l72 288
q7 28 7 51q0 40 -26 40q-38 0 -67 -117q-4 -17 -6.5 -20.5t-13.5 -3.5q-17 0 -17 13q0 3 4 18t11.5 38t14.5 39q27 58 76 58q33 0 57 -20t31 -56q62 76 146 76q52 0 81 -28t29 -78q0 -59 -59 -216q-20 -55 -20 -78q0 -28 21 -28q59 0 92 117q5 16 8 20t13 4q17 0 17 -12z
M301 -112q0 -40 -24 -84.5t-49 -70t-34 -25.5q-7 0 -9 9l1 3q1 2 6 7q69 57 86 135q-14 -9 -28 -9q-15 0 -24.5 9t-9.5 23q0 17 14 33t36 16q35 0 35 -46z" />
    <glyph glyph-name="Ncaron" unicode="&#x147;" horiz-adv-x="763" 
d="M866 670q0 -18 -19 -18q-38 -2 -62.5 -17.5t-35.5 -57.5l-139 -557q-3 -13 -6 -16.5t-14 -3.5t-13.5 2.5t-7.5 14.5l-222 592l-128 -510q-4 -16 -4 -26q0 -11 3 -19t17 -15t39 -8q18 0 18 -13q0 -18 -18 -18q-15 0 -48.5 1.5t-49.5 1.5t-48.5 -1.5t-47.5 -1.5
q-14 0 -14 13q0 18 16 18q24 1 40 4.5t34.5 20t25.5 46.5l132 529l3 13q0 8 -57 8q-13 0 -18 0.5t-9 3.5t-4 9q0 12 6.5 15t21.5 3h120q16 0 20.5 -2.5t9.5 -16.5l196 -523l112 451q3 10 3 18q0 40 -58 42q-20 0 -20 13q0 18 18 18q15 0 48.5 -1.5t50.5 -1.5q16 0 48.5 1.5
t47.5 1.5q13 0 13 -13zM726 836l-155 -98q-7 -3 -12 0l-106 98q-6 5 1 13.5t14 4.5l112 -55l140 55q6 2 10 -1t3 -8.5t-7 -8.5z" />
    <glyph glyph-name="ncaron" unicode="&#x148;" horiz-adv-x="577" 
d="M603 143q0 -5 -7.5 -27.5t-22 -52t-42 -52t-60.5 -22.5t-56 21.5t-23 60.5q0 22 14 60q60 159 60 221q0 65 -47 65q-54 0 -102 -48q-16 -16 -34 -46.5t-22 -42.5l-32 -130l-22 -86q-8 -33 -12 -45.5t-13 -21t-25 -8.5q-12 0 -20.5 7.5t-8.5 20.5q0 7 4 21l72 288
q7 28 7 51q0 40 -26 40q-38 0 -67 -117q-4 -17 -6.5 -20.5t-13.5 -3.5q-17 0 -17 13q0 3 4 18t11.5 38t14.5 39q27 58 76 58q33 0 57 -20t31 -56q62 76 146 76q52 0 81 -28t29 -78q0 -59 -59 -216q-20 -55 -20 -78q0 -28 21 -28q59 0 92 117q5 16 8 20t13 4q17 0 17 -12z
M592 664l-166 -144q-9 -8 -15 0l-94 144q-4 7 4 14.5t14 1.5l98 -99l148 99q9 6 14.5 -1.5t-3.5 -14.5z" />
    <glyph glyph-name="Eng" unicode="&#x14a;" horiz-adv-x="763" 
d="M814 342q-23 -95 -64.5 -174.5t-106.5 -134.5t-140 -55q-16 0 -25 11.5t-5 28.5q5 17 19.5 28.5t30.5 11.5t25 -11t5 -28q28 10 52 35t39.5 53t32 74.5t24.5 77t21 83.5q16 63 17 121t-13.5 105t-50 75t-88.5 28q-58 0 -114 -31t-95 -82l-122 -489q-4 -14 -4 -20
q0 -7 2 -10t16.5 -5.5t43.5 -2.5q10 0 14.5 -0.5t8.5 -3.5t4 -9q0 -18 -19 -18q-20 0 -61 1.5t-62 1.5q-20 0 -61.5 -1.5t-60.5 -1.5q-14 0 -14 13q0 12 6.5 15t25.5 3q47 0 61 8t20 34l135 540l4 22q0 11 -15 14t-48 3q-10 0 -14.5 0.5t-8 3.5t-3.5 9q0 18 19 18
q20 0 61 -1.5t62 -1.5q20 0 41 3l-16 -66q93 88 203 88q133 0 194 -108t24 -255z" />
    <glyph glyph-name="eng" unicode="&#x14b;" horiz-adv-x="512" 
d="M531 336q0 -41 -27.5 -120t-30.5 -90q-11 -45 -17.5 -69.5t-19 -66.5t-23 -66t-27.5 -54.5t-34 -46.5t-40 -27.5t-49 -11.5q-14 0 -21.5 10t-3.5 24t16.5 24t25.5 10q17 0 24 -15q40 48 101 289q3 13 32 97.5t29 128.5q0 65 -47 65q-54 0 -102 -48q-16 -16 -34 -46.5
t-22 -42.5l-32 -130l-22 -86q-8 -33 -12 -45.5t-13 -21t-25 -8.5q-12 0 -20.5 7.5t-8.5 20.5q0 7 4 21l72 288q7 28 7 51q0 40 -26 40q-38 0 -67 -117q-4 -17 -6.5 -20.5t-13.5 -3.5q-17 0 -17 13q0 3 4 18t11.5 38t14.5 39q27 58 76 58q33 0 57 -20t31 -56q62 76 146 76
q52 0 81 -28t29 -78z" />
    <glyph glyph-name="Omacron" unicode="&#x14c;" horiz-adv-x="787" 
d="M806 441q0 -115 -61 -223t-158.5 -174t-198.5 -66q-104 0 -171 71.5t-67 189.5q0 114 61 223t159 176t199 67q105 0 171 -73.5t66 -190.5zM721 479q0 98 -46.5 148t-112.5 50q-55 0 -112.5 -34t-102.5 -94q-56 -75 -81.5 -170.5t-25.5 -165.5q0 -104 45.5 -154.5
t109.5 -50.5q89 0 166 78t118.5 186t41.5 207zM757 777q0 -10 -4.5 -15t-9 -5.5t-15.5 -0.5h-286q-26 0 -26 13q0 10 4.5 15t9 5.5t15.5 0.5h286q10 0 14.5 -0.5t8 -3.5t3.5 -9z" />
    <glyph glyph-name="omacron" unicode="&#x14d;" 
d="M521 275q0 -106 -80.5 -196t-177.5 -90q-69 0 -110.5 47.5t-41.5 118.5q0 109 81 198t177 89q68 0 110 -47.5t42 -119.5zM448 313q0 49 -22.5 76.5t-56.5 27.5q-33 0 -67.5 -23.5t-58.5 -65.5q-26 -44 -42.5 -108.5t-16.5 -100.5q0 -55 23.5 -80t55.5 -25q31 0 64 22
t57 59q30 46 47 114t17 104zM583 604q0 -10 -4.5 -15t-9 -5.5t-15.5 -0.5h-286q-26 0 -26 13q0 10 4.5 15t9 5.5t15.5 0.5h286q10 0 14.5 -0.5t8 -3.5t3.5 -9z" />
    <glyph glyph-name="Obreve" unicode="&#x14e;" horiz-adv-x="787" 
d="M806 441q0 -115 -61 -223t-158.5 -174t-198.5 -66q-104 0 -171 71.5t-67 189.5q0 114 61 223t159 176t199 67q105 0 171 -73.5t66 -190.5zM721 479q0 98 -46.5 148t-112.5 50q-55 0 -112.5 -34t-102.5 -94q-56 -75 -81.5 -170.5t-25.5 -165.5q0 -104 45.5 -154.5
t109.5 -50.5q89 0 166 78t118.5 186t41.5 207zM763 906q0 -20 -20.5 -56.5t-64.5 -70t-95 -33.5q-53 0 -83 35t-30 86q0 52 18 52q12 -2 12 -14q0 -1 -2 -12t-2 -19q0 -38 24.5 -63.5t65.5 -25.5q42 0 87 30t65 91q4 13 13 13q4 0 8 -3.5t4 -9.5z" />
    <glyph glyph-name="obreve" unicode="&#x14f;" 
d="M521 275q0 -106 -80.5 -196t-177.5 -90q-69 0 -110.5 47.5t-41.5 118.5q0 109 81 198t177 89q68 0 110 -47.5t42 -119.5zM448 313q0 49 -22.5 76.5t-56.5 27.5q-33 0 -67.5 -23.5t-58.5 -65.5q-26 -44 -42.5 -108.5t-16.5 -100.5q0 -55 23.5 -80t55.5 -25q31 0 64 22
t57 59q30 46 47 114t17 104zM574 674q0 -20 -20.5 -56.5t-64.5 -70t-95 -33.5q-53 0 -83 35t-30 86q0 52 18 52q12 -2 12 -14q0 -1 -2 -12t-2 -19q0 -38 24.5 -63.5t65.5 -25.5q42 0 87 30t65 91q4 13 13 13q4 0 8 -3.5t4 -9.5z" />
    <glyph glyph-name="Ohungarumlaut" unicode="&#x150;" horiz-adv-x="787" 
d="M806 441q0 -115 -61 -223t-158.5 -174t-198.5 -66q-104 0 -171 71.5t-67 189.5q0 114 61 223t159 176t199 67q105 0 171 -73.5t66 -190.5zM721 479q0 98 -46.5 148t-112.5 50q-55 0 -112.5 -34t-102.5 -94q-56 -75 -81.5 -170.5t-25.5 -165.5q0 -104 45.5 -154.5
t109.5 -50.5q89 0 166 78t118.5 186t41.5 207zM621 908q0 -13 -16 -31l-108 -121q-9 -10 -16 -10q-19 3 -19 16q0 4 7 15l83 133q17 27 38 27q13 0 22 -8t9 -21zM778 908q0 -13 -16 -31l-108 -121q-9 -10 -16 -10q-19 3 -19 16q0 4 7 15l83 133q17 27 38 27q13 0 22 -8
t9 -21z" />
    <glyph glyph-name="ohungarumlaut" unicode="&#x151;" 
d="M521 275q0 -106 -80.5 -196t-177.5 -90q-69 0 -110.5 47.5t-41.5 118.5q0 109 81 198t177 89q68 0 110 -47.5t42 -119.5zM448 313q0 49 -22.5 76.5t-56.5 27.5q-33 0 -67.5 -23.5t-58.5 -65.5q-26 -44 -42.5 -108.5t-16.5 -100.5q0 -55 23.5 -80t55.5 -25q31 0 64 22
t57 59q30 46 47 114t17 104zM430 667q0 -13 -16 -31l-108 -121q-9 -10 -16 -10q-19 3 -19 16q0 4 7 15l83 133q17 27 38 27q13 0 22 -8t9 -21zM587 667q0 -13 -16 -31l-108 -121q-9 -10 -16 -10q-19 3 -19 16q0 4 7 15l83 133q17 27 38 27q13 0 22 -8t9 -21z" />
    <glyph glyph-name="OE" unicode="&#x152;" horiz-adv-x="1011" 
d="M1019 245q0 -3 -6 -16l-87 -211q-5 -13 -9.5 -15.5t-21.5 -2.5h-342q-30 0 -76 -10q-53 -12 -78 -12q-98 0 -166.5 70t-68.5 191q0 115 62 224t159 175.5t196 66.5q29 0 80 -13q32 -9 63 -9h323q26 0 26 -13l-1 -15l-21 -174q-1 -10 -2 -13.5t-5 -6.5t-11 -3
q-17 0 -17 15q0 8 2 14q4 33 4 65q0 26 -3 40.5t-14.5 30t-38 22.5t-69.5 7h-112q-18 0 -25 -1.5t-13 -9t-10 -25.5l-61 -246h102q61 0 86.5 18t39.5 74q4 17 7 21t14 4q16 0 16 -13l-57 -232q-3 -13 -6 -16.5t-13 -3.5q-17 0 -17 14q0 3 3 16q7 27 7 43q0 24 -15.5 34
t-66.5 10h-108l-69 -276q-4 -14 -4 -29q10 -3 29 -3h111q45 0 78 8.5t55.5 22t42.5 41t33.5 54t32.5 72.5q12 26 13 26q4 3 12 3q17 0 17 -13zM554 168l89 359q12 50 12 88q0 13 -1.5 20.5t-8 20t-24 18.5t-44.5 6q-74 0 -149 -62.5t-124.5 -169t-49.5 -221.5
q0 -99 41.5 -161.5t113.5 -62.5q31 0 53 8t36 26t21 32t16 40q14 38 19 59z" />
    <glyph glyph-name="oe" unicode="&#x153;" horiz-adv-x="735" 
d="M718 102q0 -4 -8.5 -16.5t-26.5 -29t-40 -31.5t-53.5 -25.5t-63.5 -10.5q-48 0 -81.5 27t-48.5 71q-75 -99 -160 -99q-53 0 -89.5 41t-36.5 117q0 111 74 204t160 93q42 0 70 -25.5t40 -61.5q89 86 177 86q48 0 77 -25.5t29 -60.5q0 -9 -2.5 -19.5t-9.5 -27.5
t-25.5 -33.5t-45.5 -26.5q-56 -20 -159 -20h-36q-14 -59 -14 -97q0 -51 20.5 -84.5t61.5 -33.5q32 0 76 21.5t84 74.5q7 10 13 10t12 -6.5t6 -11.5zM696 357q0 26 -18 43t-47 17q-16 0 -35.5 -6.5t-44.5 -22.5t-48.5 -50.5t-37.5 -83.5q28 0 44.5 0.5t48 3t52 9.5t42.5 17.5
t33 29t11 43.5zM356 123q17 38 32.5 101.5t15.5 97.5q0 11 -1.5 23t-7 30.5t-19 30.5t-33.5 12q-31 0 -62 -30t-52 -77q-15 -34 -32 -103.5t-17 -104.5q0 -12 2 -24.5t7 -29t17.5 -26.5t30.5 -10q33 0 64.5 31.5t54.5 78.5z" />
    <glyph glyph-name="Racute" unicode="&#x154;" horiz-adv-x="749" 
d="M742 95q0 -6 -6.5 -23t-19 -39t-37 -38.5t-54.5 -16.5q-10 0 -20.5 1t-30.5 7t-34.5 16.5t-26 32t-11.5 50.5q0 27 25 120q5 19 5 36q0 33 -21.5 60.5t-77.5 27.5h-114l-65 -260q-4 -15 -4 -21q0 -7 2 -9.5t15 -5t41 -2.5q10 0 14.5 -0.5t8 -3.5t3.5 -9q0 -18 -19 -18
q-18 0 -57.5 1.5t-59.5 1.5q-19 0 -58 -1.5t-57 -1.5q-15 0 -15 13q0 12 6 15t21 3q49 0 62 7.5t20 34.5l135 542q4 14 4 20t-2 9t-15.5 5.5t-40.5 2.5q-10 0 -14.5 0.5t-8.5 3.5t-4 9q0 12 6.5 15t21.5 3h268q91 0 149 -43t58 -106q0 -64 -61.5 -119.5t-147.5 -75.5
q84 -37 84 -117q0 -28 -8 -87q-6 -45 -6 -75q0 -31 8 -44t26 -13q23 0 44 22.5t35 66.5q2 9 5.5 12t12.5 3q16 0 16 -12zM644 555q0 50 -38 75q-36 22 -99 22h-69q-18 0 -25 -1.5t-13 -9t-10 -25.5l-65 -262h107q90 0 149 47q30 25 46.5 71.5t16.5 82.5zM733 871
q-3 -18 -29 -31l-180 -91q-9 -4 -15 -3t-10.5 7.5t-3.5 12.5q1 5 14 14l165 114q17 12 29 12q15 0 23.5 -10t6.5 -25z" />
    <glyph glyph-name="racute" unicode="&#x155;" horiz-adv-x="433" 
d="M499 377q0 -23 -14.5 -38t-34.5 -15q-15 0 -24.5 8.5t-9.5 23.5q0 34 35 46q-21 15 -55 15q-30 0 -56.5 -18.5t-42.5 -44.5t-24 -42.5t-10 -24.5l-65 -261q-10 -37 -41 -37q-12 0 -20.5 7.5t-8.5 20.5q0 7 4 21l72 288q7 28 7 51q0 40 -26 40q-38 0 -67 -117
q-4 -17 -6.5 -20.5t-13.5 -3.5q-17 0 -17 13q0 3 4 18t11.5 38t14.5 39q27 58 76 58q31 0 55 -18.5t32 -51.5q49 70 124 70q43 0 72 -17.5t29 -47.5zM503 666q0 -18 -23 -35l-162 -121q-9 -6 -14 -6q-6 0 -11.5 6t-5.5 12q0 5 11 16l143 141q17 17 31 17q15 0 23 -9t8 -21z
" />
    <glyph glyph-name="Rcommaaccent" unicode="&#x156;" horiz-adv-x="749" 
d="M742 95q0 -6 -6.5 -23t-19 -39t-37 -38.5t-54.5 -16.5q-10 0 -20.5 1t-30.5 7t-34.5 16.5t-26 32t-11.5 50.5q0 27 25 120q5 19 5 36q0 33 -21.5 60.5t-77.5 27.5h-114l-65 -260q-4 -15 -4 -21q0 -7 2 -9.5t15 -5t41 -2.5q10 0 14.5 -0.5t8 -3.5t3.5 -9q0 -18 -19 -18
q-18 0 -57.5 1.5t-59.5 1.5q-19 0 -58 -1.5t-57 -1.5q-15 0 -15 13q0 12 6 15t21 3q49 0 62 7.5t20 34.5l135 542q4 14 4 20t-2 9t-15.5 5.5t-40.5 2.5q-10 0 -14.5 0.5t-8.5 3.5t-4 9q0 12 6.5 15t21.5 3h268q91 0 149 -43t58 -106q0 -64 -61.5 -119.5t-147.5 -75.5
q84 -37 84 -117q0 -28 -8 -87q-6 -45 -6 -75q0 -31 8 -44t26 -13q23 0 44 22.5t35 66.5q2 9 5.5 12t12.5 3q16 0 16 -12zM644 555q0 50 -38 75q-36 22 -99 22h-69q-18 0 -25 -1.5t-13 -9t-10 -25.5l-65 -262h107q90 0 149 47q30 25 46.5 71.5t16.5 82.5zM387 -112
q0 -40 -24 -84.5t-49 -70t-34 -25.5q-7 0 -9 9l1 3q1 2 6 7q69 57 86 135q-14 -9 -28 -9q-15 0 -24.5 9t-9.5 23q0 17 14 33t36 16q35 0 35 -46z" />
    <glyph glyph-name="rcommaaccent" unicode="&#x157;" horiz-adv-x="433" 
d="M499 377q0 -23 -14.5 -38t-34.5 -15q-15 0 -24.5 8.5t-9.5 23.5q0 34 35 46q-21 15 -55 15q-30 0 -56.5 -18.5t-42.5 -44.5t-24 -42.5t-10 -24.5l-65 -261q-10 -37 -41 -37q-12 0 -20.5 7.5t-8.5 20.5q0 7 4 21l72 288q7 28 7 51q0 40 -26 40q-38 0 -67 -117
q-4 -17 -6.5 -20.5t-13.5 -3.5q-17 0 -17 13q0 3 4 18t11.5 38t14.5 39q27 58 76 58q31 0 55 -18.5t32 -51.5q49 70 124 70q43 0 72 -17.5t29 -47.5zM170 -112q0 -40 -24 -84.5t-49 -70t-34 -25.5q-7 0 -9 9l1 3q1 2 6 7q69 57 86 135q-13 -9 -28 -9t-24.5 9t-9.5 23
q0 17 14 33t36 16q35 0 35 -46z" />
    <glyph glyph-name="Rcaron" unicode="&#x158;" horiz-adv-x="749" 
d="M742 95q0 -6 -6.5 -23t-19 -39t-37 -38.5t-54.5 -16.5q-10 0 -20.5 1t-30.5 7t-34.5 16.5t-26 32t-11.5 50.5q0 27 25 120q5 19 5 36q0 33 -21.5 60.5t-77.5 27.5h-114l-65 -260q-4 -15 -4 -21q0 -7 2 -9.5t15 -5t41 -2.5q10 0 14.5 -0.5t8 -3.5t3.5 -9q0 -18 -19 -18
q-18 0 -57.5 1.5t-59.5 1.5q-19 0 -58 -1.5t-57 -1.5q-15 0 -15 13q0 12 6 15t21 3q49 0 62 7.5t20 34.5l135 542q4 14 4 20t-2 9t-15.5 5.5t-40.5 2.5q-10 0 -14.5 0.5t-8.5 3.5t-4 9q0 12 6.5 15t21.5 3h268q91 0 149 -43t58 -106q0 -64 -61.5 -119.5t-147.5 -75.5
q84 -37 84 -117q0 -28 -8 -87q-6 -45 -6 -75q0 -31 8 -44t26 -13q23 0 44 22.5t35 66.5q2 9 5.5 12t12.5 3q16 0 16 -12zM644 555q0 50 -38 75q-36 22 -99 22h-69q-18 0 -25 -1.5t-13 -9t-10 -25.5l-65 -262h107q90 0 149 47q30 25 46.5 71.5t16.5 82.5zM719 836l-155 -98
q-7 -3 -12 0l-106 98q-6 5 1 13.5t14 4.5l112 -55l140 55q6 2 10 -1t3 -8.5t-7 -8.5z" />
    <glyph glyph-name="rcaron" unicode="&#x159;" horiz-adv-x="433" 
d="M499 377q0 -23 -14.5 -38t-34.5 -15q-15 0 -24.5 8.5t-9.5 23.5q0 34 35 46q-21 15 -55 15q-30 0 -56.5 -18.5t-42.5 -44.5t-24 -42.5t-10 -24.5l-65 -261q-10 -37 -41 -37q-12 0 -20.5 7.5t-8.5 20.5q0 7 4 21l72 288q7 28 7 51q0 40 -26 40q-38 0 -67 -117
q-4 -17 -6.5 -20.5t-13.5 -3.5q-17 0 -17 13q0 3 4 18t11.5 38t14.5 39q27 58 76 58q31 0 55 -18.5t32 -51.5q49 70 124 70q43 0 72 -17.5t29 -47.5zM520 664l-166 -144q-9 -8 -15 0l-94 144q-4 7 4 14.5t14 1.5l98 -99l148 99q9 6 14.5 -1.5t-3.5 -14.5z" />
    <glyph glyph-name="Sacute" unicode="&#x15a;" horiz-adv-x="577" 
d="M550 234q0 -97 -74 -176.5t-167 -79.5q-109 0 -159 70q-13 -19 -46 -58q-9 -12 -16 -12q-13 0 -13 12q2 10 3 13l51 204q3 13 6.5 16.5t13.5 3.5q17 0 17 -12l-1 -5q-8 -43 -8 -61q0 -73 44.5 -106.5t109.5 -33.5q66 0 120 59t54 131q0 80 -65 99l-121 33
q-10 3 -21.5 9.5t-31.5 21.5t-32.5 43.5t-12.5 64.5q0 88 72 161.5t164 73.5t133 -68l46 57q9 11 16 11q5 0 8 -2.5t4 -5.5v-3q0 -7 -2 -13l-51 -205q-2 -9 -5 -13.5t-6 -5.5t-9 -1q-17 0 -17 13q0 3 2 11q4 31 4 54q0 143 -125 143q-65 0 -117 -53.5t-52 -117.5
q0 -33 16 -57.5t45 -34.5q1 0 6.5 -1.5t19.5 -5.5t38 -11q65 -18 85.5 -27t39.5 -31q34 -41 34 -104zM647 871q-3 -18 -29 -31l-180 -91q-9 -4 -15 -3t-10.5 7.5t-3.5 12.5q1 5 14 14l165 114q17 12 29 12q15 0 23.5 -10t6.5 -25z" />
    <glyph glyph-name="sacute" unicode="&#x15b;" horiz-adv-x="420" 
d="M403 156q0 -20 -9 -45.5t-29 -54.5t-60 -48t-94 -19q-61 0 -98 27t-37 70q0 20 6.5 34t16.5 19.5t16 7t11 1.5q12 0 23 -7.5t11 -25.5q0 -5 -1.5 -12t-13 -20t-32.5 -15q18 -54 98 -54q38 0 66 12.5t41.5 31.5t19.5 35.5t6 29.5q0 19 -7 31.5t-22.5 20.5t-27.5 11.5
t-35 8.5q-18 4 -29 8t-29.5 14.5t-28.5 30t-10 46.5q0 52 41 100t120 48q52 0 82 -25t30 -61q0 -26 -12.5 -40t-30.5 -14q-16 0 -23 9t-7 19q0 4 1 9.5t10.5 16.5t25.5 14q-7 24 -28.5 35.5t-47.5 11.5q-39 0 -64.5 -19.5t-32 -37.5t-6.5 -32q0 -15 5 -25.5t17.5 -17
t19.5 -8.5t24 -6q39 -8 57.5 -15t36.5 -25q30 -31 30 -75zM497 666q0 -18 -23 -35l-162 -121q-9 -6 -14 -6q-6 0 -11.5 6t-5.5 12q0 5 11 16l143 141q17 17 31 17q15 0 23 -9t8 -21z" />
    <glyph glyph-name="Scircumflex" unicode="&#x15c;" horiz-adv-x="577" 
d="M550 234q0 -97 -74 -176.5t-167 -79.5q-109 0 -159 70q-13 -19 -46 -58q-9 -12 -16 -12q-13 0 -13 12q2 10 3 13l51 204q3 13 6.5 16.5t13.5 3.5q17 0 17 -12l-1 -5q-8 -43 -8 -61q0 -73 44.5 -106.5t109.5 -33.5q66 0 120 59t54 131q0 80 -65 99l-121 33
q-10 3 -21.5 9.5t-31.5 21.5t-32.5 43.5t-12.5 64.5q0 88 72 161.5t164 73.5t133 -68l46 57q9 11 16 11q5 0 8 -2.5t4 -5.5v-3q0 -7 -2 -13l-51 -205q-2 -9 -5 -13.5t-6 -5.5t-9 -1q-17 0 -17 13q0 3 2 11q4 31 4 54q0 143 -125 143q-65 0 -117 -53.5t-52 -117.5
q0 -33 16 -57.5t45 -34.5q1 0 6.5 -1.5t19.5 -5.5t38 -11q65 -18 85.5 -27t39.5 -31q34 -41 34 -104zM613 755q6 -5 -1 -13.5t-14 -4.5l-112 55l-140 -55q-6 -2 -10 1t-3 8.5t7 8.5l155 98q7 3 12 0z" />
    <glyph glyph-name="scircumflex" unicode="&#x15d;" horiz-adv-x="420" 
d="M403 156q0 -20 -9 -45.5t-29 -54.5t-60 -48t-94 -19q-61 0 -98 27t-37 70q0 20 6.5 34t16.5 19.5t16 7t11 1.5q12 0 23 -7.5t11 -25.5q0 -5 -1.5 -12t-13 -20t-32.5 -15q18 -54 98 -54q38 0 66 12.5t41.5 31.5t19.5 35.5t6 29.5q0 19 -7 31.5t-22.5 20.5t-27.5 11.5
t-35 8.5q-18 4 -29 8t-29.5 14.5t-28.5 30t-10 46.5q0 52 41 100t120 48q52 0 82 -25t30 -61q0 -26 -12.5 -40t-30.5 -14q-16 0 -23 9t-7 19q0 4 1 9.5t10.5 16.5t25.5 14q-7 24 -28.5 35.5t-47.5 11.5q-39 0 -64.5 -19.5t-32 -37.5t-6.5 -32q0 -15 5 -25.5t17.5 -17
t19.5 -8.5t24 -6q39 -8 57.5 -15t36.5 -25q30 -31 30 -75zM482 536q4 -7 -4 -14.5t-14 -1.5l-98 99l-148 -99q-9 -6 -14.5 1.5t3.5 14.5l166 144q9 8 15 0z" />
    <glyph glyph-name="Scedilla" unicode="&#x15e;" horiz-adv-x="577" 
d="M550 234q0 -94 -71 -173t-161 -83l-9 -33q63 -11 63 -56q0 -23 -14.5 -40t-34.5 -25.5t-50.5 -13t-52 -5.5t-50.5 -1h-27q-12 1 -12 13t26 12h12q135 0 135 60q0 32 -50 36q-14 0 -14 13q0 1 10 46q-65 15 -100 64q-13 -19 -46 -58q-9 -12 -16 -12q-13 0 -13 12
q2 10 3 13l51 204q3 13 6.5 16.5t13.5 3.5q17 0 17 -12l-1 -5q-8 -43 -8 -61q0 -73 44.5 -106.5t109.5 -33.5q66 0 120 59t54 131q0 80 -65 99l-121 33q-10 3 -21.5 9.5t-31.5 21.5t-32.5 43.5t-12.5 64.5q0 88 72 161.5t164 73.5t133 -68l46 57q9 11 16 11q5 0 8 -2.5
t4 -5.5v-3q0 -7 -2 -13l-51 -205q-2 -9 -5 -13.5t-6 -5.5t-9 -1q-17 0 -17 13q0 3 2 11q4 31 4 54q0 143 -125 143q-65 0 -117 -53.5t-52 -117.5q0 -33 16 -57.5t45 -34.5q1 0 6.5 -1.5t19.5 -5.5t38 -11q65 -18 85.5 -27t39.5 -31q34 -41 34 -104z" />
    <glyph glyph-name="scedilla" unicode="&#x15f;" horiz-adv-x="420" 
d="M403 156q0 -18 -8 -41.5t-24.5 -50.5t-50 -47.5t-78.5 -25.5l-10 -42q63 -11 63 -56q0 -23 -14.5 -40t-34.5 -25.5t-50.5 -13t-52 -5.5t-50.5 -1h-27q-12 1 -12 13t26 12h12q135 0 135 60q0 32 -50 36q-14 0 -14 13q0 10 11 50q-46 8 -72 33.5t-26 60.5q0 20 6.5 34
t16.5 19.5t16 7t11 1.5q12 0 23 -7.5t11 -25.5q0 -5 -1.5 -12t-13 -20t-32.5 -15q18 -54 98 -54q38 0 66 12.5t41.5 31.5t19.5 35.5t6 29.5q0 19 -7 31.5t-22.5 20.5t-27.5 11.5t-35 8.5q-18 4 -29 8t-29.5 14.5t-28.5 30t-10 46.5q0 52 41 100t120 48q52 0 82 -25t30 -61
q0 -26 -12.5 -40t-30.5 -14q-16 0 -23 9t-7 19q0 4 1 9.5t10.5 16.5t25.5 14q-7 24 -28.5 35.5t-47.5 11.5q-39 0 -64.5 -19.5t-32 -37.5t-6.5 -32q0 -15 5 -25.5t17.5 -17t19.5 -8.5t24 -6q39 -8 57.5 -15t36.5 -25q30 -31 30 -75z" />
    <glyph glyph-name="Scaron" unicode="&#x160;" horiz-adv-x="577" 
d="M550 234q0 -97 -74 -176.5t-167 -79.5q-109 0 -159 70q-13 -19 -46 -58q-9 -12 -16 -12q-13 0 -13 12q2 10 3 13l51 204q3 13 6.5 16.5t13.5 3.5q17 0 17 -12l-1 -5q-8 -43 -8 -61q0 -73 44.5 -106.5t109.5 -33.5q66 0 120 59t54 131q0 80 -65 99l-121 33
q-10 3 -21.5 9.5t-31.5 21.5t-32.5 43.5t-12.5 64.5q0 88 72 161.5t164 73.5t133 -68l46 57q9 11 16 11q5 0 8 -2.5t4 -5.5v-3q0 -7 -2 -13l-51 -205q-2 -9 -5 -13.5t-6 -5.5t-9 -1q-17 0 -17 13q0 3 2 11q4 31 4 54q0 143 -125 143q-65 0 -117 -53.5t-52 -117.5
q0 -33 16 -57.5t45 -34.5q1 0 6.5 -1.5t19.5 -5.5t38 -11q65 -18 85.5 -27t39.5 -31q34 -41 34 -104zM633 836l-155 -98q-7 -3 -12 0l-106 98q-6 5 1 13.5t14 4.5l112 -55l140 55q6 2 10 -1t3 -8.5t-7 -8.5z" />
    <glyph glyph-name="scaron" unicode="&#x161;" horiz-adv-x="420" 
d="M403 156q0 -20 -9 -45.5t-29 -54.5t-60 -48t-94 -19q-61 0 -98 27t-37 70q0 20 6.5 34t16.5 19.5t16 7t11 1.5q12 0 23 -7.5t11 -25.5q0 -5 -1.5 -12t-13 -20t-32.5 -15q18 -54 98 -54q38 0 66 12.5t41.5 31.5t19.5 35.5t6 29.5q0 19 -7 31.5t-22.5 20.5t-27.5 11.5
t-35 8.5q-18 4 -29 8t-29.5 14.5t-28.5 30t-10 46.5q0 52 41 100t120 48q52 0 82 -25t30 -61q0 -26 -12.5 -40t-30.5 -14q-16 0 -23 9t-7 19q0 4 1 9.5t10.5 16.5t25.5 14q-7 24 -28.5 35.5t-47.5 11.5q-39 0 -64.5 -19.5t-32 -37.5t-6.5 -32q0 -15 5 -25.5t17.5 -17
t19.5 -8.5t24 -6q39 -8 57.5 -15t36.5 -25q30 -31 30 -75zM514 664l-166 -144q-9 -8 -15 0l-94 144q-4 7 4 14.5t14 1.5l98 -99l148 99q9 6 14.5 -1.5t-3.5 -14.5z" />
    <glyph glyph-name="Tcedilla" unicode="&#x162;" horiz-adv-x="735" 
d="M792 473q-2 -14 -6 -17.5t-13 -3.5q-17 0 -17 13q0 5 4 25q8 64 8 80q0 49 -27 62.5t-104 13.5q-47 0 -54 -2q-8 -1 -13 -7t-10 -26l-134 -538q-4 -14 -4 -20q0 -11 6 -14t25 -6q30 -2 50 -2h15q10 0 14.5 -0.5t8 -3.5t3.5 -9q0 -18 -21 -18l-121 3q-7 -28 -14 -54
q63 -11 63 -56q0 -23 -14.5 -40t-34.5 -25.5t-50.5 -13t-52 -5.5t-50.5 -1h-27q-12 1 -12 13t26 12h12q135 0 135 60q0 32 -50 36q-14 0 -14 13l14 61l-119 -3q-17 0 -17 13q0 12 7 15t22 3h14q64 0 81.5 9t24.5 37l134 538q4 15 4 28q-16 3 -58 3q-54 0 -82.5 -5t-53 -23.5
t-39 -48t-34.5 -86.5q-10 -27 -12 -28q-3 -3 -12 -3q-16 0 -16 13l4 14l60 180q4 13 8.5 15.5t21.5 2.5h524q15 0 21 -2t6 -12l-2 -12z" />
    <glyph glyph-name="tcedilla" unicode="&#x163;" horiz-adv-x="341" 
d="M366 144q0 -8 -13.5 -37t-44.5 -65.5t-67 -47.5l-11 -45q63 -11 63 -56q0 -23 -14.5 -40t-34.5 -25.5t-50.5 -13t-52 -5.5t-50.5 -1h-27q-12 1 -12 13t26 12h12q135 0 135 60q0 32 -50 36q-14 0 -14 13q0 3 12 54q-25 11 -39 34t-14 50l5 34l71 286h-79q-10 0 -14.5 0.5
t-8 3.5t-3.5 9q0 12 6.5 15t21.5 3h85l39 156q9 39 42 39q12 0 20.5 -8t8.5 -20q0 -6 -4 -20l-37 -147h80q10 0 14.5 -0.5t8 -3.5t3.5 -9q0 -12 -6.5 -15t-21.5 -3h-86l-73 -294q-8 -32 -8 -51q0 -41 28 -41q34 0 65 34t53 90q2 5 3 7l2.5 5t3.5 3.5t4.5 1t6.5 0.5
q16 0 16 -11z" />
    <glyph glyph-name="Tcaron" unicode="&#x164;" horiz-adv-x="735" 
d="M792 473q-2 -14 -6 -17.5t-13 -3.5q-17 0 -17 13q0 5 4 25q8 64 8 80q0 49 -27 62.5t-104 13.5q-47 0 -54 -2q-8 -1 -13 -7t-10 -26l-134 -538q-4 -14 -4 -20q0 -11 6 -14t25 -6q30 -2 50 -2h15q10 0 14.5 -0.5t8 -3.5t3.5 -9q0 -18 -21 -18q-25 0 -77 1.5t-78 1.5
t-77.5 -1.5t-76.5 -1.5q-17 0 -17 13q0 12 7 15t22 3h14q64 0 81.5 9t24.5 37l134 538q4 15 4 28q-16 3 -58 3q-54 0 -82.5 -5t-53 -23.5t-39 -48t-34.5 -86.5q-10 -27 -12 -28q-3 -3 -12 -3q-16 0 -16 13l4 14l60 180q4 13 8.5 15.5t21.5 2.5h524q15 0 21 -2t6 -12l-2 -12z
M712 836l-155 -98q-7 -3 -12 0l-106 98q-6 5 1 13.5t14 4.5l112 -55l140 55q6 2 10 -1t3 -8.5t-7 -8.5z" />
    <glyph glyph-name="tcaron" unicode="&#x165;" horiz-adv-x="341" 
d="M366 144q0 -6 -10.5 -29t-29 -52t-50 -51.5t-66.5 -22.5q-42 0 -66 27.5t-24 63.5l5 34l71 286h-79q-10 0 -14.5 0.5t-8 3.5t-3.5 9q0 12 6.5 15t21.5 3h85l39 156q9 39 42 39q12 0 20.5 -8t8.5 -20q0 -6 -4 -20l-37 -147h80q10 0 14.5 -0.5t8 -3.5t3.5 -9
q0 -12 -6.5 -15t-21.5 -3h-86l-73 -294q-8 -32 -8 -51q0 -41 28 -41q34 0 65 34t53 90q2 5 3 7l2.5 5t3.5 3.5t4.5 1t6.5 0.5q16 0 16 -11zM447 646q0 -40 -24 -84.5t-49 -70t-34 -25.5q-7 0 -9 9l1 3q1 2 6 7q69 57 86 135q-14 -9 -28 -9q-15 0 -24.5 9t-9.5 23q0 17 14 33
t36 16q35 0 35 -46z" />
    <glyph glyph-name="Utilde" unicode="&#x168;" horiz-adv-x="763" 
d="M866 670q0 -18 -19 -18q-18 -1 -31 -4t-27 -10t-24 -22.5t-16 -38.5l-88 -356q-23 -94 -101.5 -168.5t-170.5 -74.5q-78 0 -130.5 52t-52.5 137q0 29 9 67l95 381q4 14 4 20t-2 9t-15.5 5.5t-40.5 2.5q-10 0 -14.5 0.5t-8.5 3.5t-4 9q0 18 19 18t59 -1.5t60 -1.5t59 1.5
t58 1.5q14 0 14 -13q0 -12 -6.5 -15t-22.5 -3q-46 0 -59.5 -7.5t-19.5 -33.5l-99 -397q-10 -36 -10 -77q0 -66 32.5 -97t78.5 -31q75 0 144.5 64.5t91.5 155.5l90 363q3 10 3 18q0 40 -58 42q-20 0 -20 13q0 18 18 18q15 0 48 -1.5t49 -1.5t48 1.5t47 1.5q13 0 13 -13z
M768 827q0 -7 -52 -52q-49 -39 -79 -39q-13 0 -24 7t-15.5 12.5t-17.5 23.5q-15 23 -29 23q-32 0 -88 -56q-12 -10 -16 -10q-12 0 -12 13q0 7 20 25.5t36 29.5q44 36 74 36t52 -37q18 -29 34 -29q7 0 16 3.5t17.5 9t18 12t15.5 12t12 10.5l6 5q14 14 20 14q12 0 12 -13z" />
    <glyph glyph-name="utilde" unicode="&#x169;" horiz-adv-x="551" 
d="M577 143q0 -2 -4 -17.5t-11.5 -39t-15.5 -40.5q-27 -57 -75 -57q-64 0 -84 60q-50 -60 -113 -60q-45 0 -81 26.5t-36 91.5q0 34 11 76t45 132q18 49 18 74q0 28 -21 28q-60 0 -93 -124q-2 -6 -3 -8t-3 -5t-5 -3.5t-8 -0.5q-17 0 -17 12q0 6 7.5 28.5t22 51.5t42 51.5
t60.5 22.5q34 0 56.5 -23t22.5 -59q0 -21 -13 -54q-57 -156 -57 -215q0 -77 55 -77q40 0 70.5 31.5t37.5 58.5l71 287q9 40 42 40q12 0 20.5 -7.5t8.5 -20.5q0 -7 -4 -21l-69 -276q-8 -32 -8 -51q0 -41 26 -41q23 0 38 30t30 88q3 15 6 19t14 4q17 0 17 -12zM592 639
q0 -7 -52 -52q-49 -39 -79 -39q-13 0 -24 7t-15.5 12.5t-17.5 23.5q-15 23 -29 23q-32 0 -88 -56q-12 -10 -16 -10q-12 0 -12 13q0 7 20 25.5t36 29.5q44 36 74 36t52 -37q18 -29 34 -29q7 0 16 3.5t17.5 9t18 12t15.5 12t12 10.5l6 5q14 14 20 14q12 0 12 -13z" />
    <glyph glyph-name="Umacron" unicode="&#x16a;" horiz-adv-x="763" 
d="M866 670q0 -18 -19 -18q-18 -1 -31 -4t-27 -10t-24 -22.5t-16 -38.5l-88 -356q-23 -94 -101.5 -168.5t-170.5 -74.5q-78 0 -130.5 52t-52.5 137q0 29 9 67l95 381q4 14 4 20t-2 9t-15.5 5.5t-40.5 2.5q-10 0 -14.5 0.5t-8.5 3.5t-4 9q0 18 19 18t59 -1.5t60 -1.5t59 1.5
t58 1.5q14 0 14 -13q0 -12 -6.5 -15t-22.5 -3q-46 0 -59.5 -7.5t-19.5 -33.5l-99 -397q-10 -36 -10 -77q0 -66 32.5 -97t78.5 -31q75 0 144.5 64.5t91.5 155.5l90 363q3 10 3 18q0 40 -58 42q-20 0 -20 13q0 18 18 18q15 0 48 -1.5t49 -1.5t48 1.5t47 1.5q13 0 13 -13z
M768 777q0 -10 -4.5 -15t-9 -5.5t-15.5 -0.5h-286q-26 0 -26 13q0 10 4.5 15t9 5.5t15.5 0.5h286q10 0 14.5 -0.5t8 -3.5t3.5 -9z" />
    <glyph glyph-name="umacron" unicode="&#x16b;" horiz-adv-x="551" 
d="M577 143q0 -2 -4 -17.5t-11.5 -39t-15.5 -40.5q-27 -57 -75 -57q-64 0 -84 60q-50 -60 -113 -60q-45 0 -81 26.5t-36 91.5q0 34 11 76t45 132q18 49 18 74q0 28 -21 28q-60 0 -93 -124q-2 -6 -3 -8t-3 -5t-5 -3.5t-8 -0.5q-17 0 -17 12q0 6 7.5 28.5t22 51.5t42 51.5
t60.5 22.5q34 0 56.5 -23t22.5 -59q0 -21 -13 -54q-57 -156 -57 -215q0 -77 55 -77q40 0 70.5 31.5t37.5 58.5l71 287q9 40 42 40q12 0 20.5 -7.5t8.5 -20.5q0 -7 -4 -21l-69 -276q-8 -32 -8 -51q0 -41 26 -41q23 0 38 30t30 88q3 15 6 19t14 4q17 0 17 -12zM596 604
q0 -10 -4.5 -15t-9 -5.5t-15.5 -0.5h-286q-26 0 -26 13q0 10 4.5 15t9 5.5t15.5 0.5h286q10 0 14.5 -0.5t8 -3.5t3.5 -9z" />
    <glyph glyph-name="Ubreve" unicode="&#x16c;" horiz-adv-x="763" 
d="M866 670q0 -18 -19 -18q-18 -1 -31 -4t-27 -10t-24 -22.5t-16 -38.5l-88 -356q-23 -94 -101.5 -168.5t-170.5 -74.5q-78 0 -130.5 52t-52.5 137q0 29 9 67l95 381q4 14 4 20t-2 9t-15.5 5.5t-40.5 2.5q-10 0 -14.5 0.5t-8.5 3.5t-4 9q0 18 19 18t59 -1.5t60 -1.5t59 1.5
t58 1.5q14 0 14 -13q0 -12 -6.5 -15t-22.5 -3q-46 0 -59.5 -7.5t-19.5 -33.5l-99 -397q-10 -36 -10 -77q0 -66 32.5 -97t78.5 -31q75 0 144.5 64.5t91.5 155.5l90 363q3 10 3 18q0 40 -58 42q-20 0 -20 13q0 18 18 18q15 0 48 -1.5t49 -1.5t48 1.5t47 1.5q13 0 13 -13z
M774 906q0 -20 -20.5 -56.5t-64.5 -70t-95 -33.5q-53 0 -83 35t-30 86q0 52 18 52q12 -2 12 -14q0 -1 -2 -12t-2 -19q0 -38 24.5 -63.5t65.5 -25.5q42 0 87 30t65 91q4 13 13 13q4 0 8 -3.5t4 -9.5z" />
    <glyph glyph-name="ubreve" unicode="&#x16d;" horiz-adv-x="551" 
d="M577 143q0 -2 -4 -17.5t-11.5 -39t-15.5 -40.5q-27 -57 -75 -57q-64 0 -84 60q-50 -60 -113 -60q-45 0 -81 26.5t-36 91.5q0 34 11 76t45 132q18 49 18 74q0 28 -21 28q-60 0 -93 -124q-2 -6 -3 -8t-3 -5t-5 -3.5t-8 -0.5q-17 0 -17 12q0 6 7.5 28.5t22 51.5t42 51.5
t60.5 22.5q34 0 56.5 -23t22.5 -59q0 -21 -13 -54q-57 -156 -57 -215q0 -77 55 -77q40 0 70.5 31.5t37.5 58.5l71 287q9 40 42 40q12 0 20.5 -7.5t8.5 -20.5q0 -7 -4 -21l-69 -276q-8 -32 -8 -51q0 -41 26 -41q23 0 38 30t30 88q3 15 6 19t14 4q17 0 17 -12zM587 674
q0 -20 -20.5 -56.5t-64.5 -70t-95 -33.5q-53 0 -83 35t-30 86q0 52 18 52q12 -2 12 -14q0 -1 -2 -12t-2 -19q0 -38 24.5 -63.5t65.5 -25.5q42 0 87 30t65 91q4 13 13 13q4 0 8 -3.5t4 -9.5z" />
    <glyph glyph-name="Uring" unicode="&#x16e;" horiz-adv-x="763" 
d="M866 670q0 -18 -19 -18q-18 -1 -31 -4t-27 -10t-24 -22.5t-16 -38.5l-88 -356q-23 -94 -101.5 -168.5t-170.5 -74.5q-78 0 -130.5 52t-52.5 137q0 29 9 67l95 381q4 14 4 20t-2 9t-15.5 5.5t-40.5 2.5q-10 0 -14.5 0.5t-8.5 3.5t-4 9q0 18 19 18t59 -1.5t60 -1.5t59 1.5
t58 1.5q14 0 14 -13q0 -12 -6.5 -15t-22.5 -3q-46 0 -59.5 -7.5t-19.5 -33.5l-99 -397q-10 -36 -10 -77q0 -66 32.5 -97t78.5 -31q75 0 144.5 64.5t91.5 155.5l90 363q3 10 3 18q0 40 -58 42q-20 0 -20 13q0 18 18 18q15 0 48 -1.5t49 -1.5t48 1.5t47 1.5q13 0 13 -13z
M665 826q0 34 -47 34q-20 0 -34.5 -8.5t-21 -18t-10.5 -23.5t-4 -18.5v-9.5q0 -34 45 -34q20 0 35 8t21.5 18t10.5 23t4.5 19t0.5 10zM705 824q-1 -41 -38 -74.5t-83 -33.5q-33 0 -54.5 19t-21.5 49q0 43 37 75.5t83 32.5q34 0 55.5 -19.5t21.5 -48.5z" />
    <glyph glyph-name="uring" unicode="&#x16f;" horiz-adv-x="551" 
d="M577 143q0 -2 -4 -17.5t-11.5 -39t-15.5 -40.5q-27 -57 -75 -57q-64 0 -84 60q-50 -60 -113 -60q-45 0 -81 26.5t-36 91.5q0 34 11 76t45 132q18 49 18 74q0 28 -21 28q-60 0 -93 -124q-2 -6 -3 -8t-3 -5t-5 -3.5t-8 -0.5q-17 0 -17 12q0 6 7.5 28.5t22 51.5t42 51.5
t60.5 22.5q34 0 56.5 -23t22.5 -59q0 -21 -13 -54q-57 -156 -57 -215q0 -77 55 -77q40 0 70.5 31.5t37.5 58.5l71 287q9 40 42 40q12 0 20.5 -7.5t8.5 -20.5q0 -7 -4 -21l-69 -276q-8 -32 -8 -51q0 -41 26 -41q23 0 38 30t30 88q3 15 6 19t14 4q17 0 17 -12zM489 639
q0 34 -46 34q-20 0 -35 -8t-22 -18t-10.5 -23.5t-4 -19t-0.5 -9.5q1 -34 45 -34q20 0 35 8t22 18t11 23t4.5 19t0.5 10zM529 637q-1 -41 -38 -74.5t-83 -33.5q-33 0 -55 19t-22 49q1 43 38 75.5t83 32.5q34 0 55.5 -19.5t21.5 -48.5z" />
    <glyph glyph-name="Uhungarumlaut" unicode="&#x170;" horiz-adv-x="763" 
d="M866 670q0 -18 -19 -18q-18 -1 -31 -4t-27 -10t-24 -22.5t-16 -38.5l-88 -356q-23 -94 -101.5 -168.5t-170.5 -74.5q-78 0 -130.5 52t-52.5 137q0 29 9 67l95 381q4 14 4 20t-2 9t-15.5 5.5t-40.5 2.5q-10 0 -14.5 0.5t-8.5 3.5t-4 9q0 18 19 18t59 -1.5t60 -1.5t59 1.5
t58 1.5q14 0 14 -13q0 -12 -6.5 -15t-22.5 -3q-46 0 -59.5 -7.5t-19.5 -33.5l-99 -397q-10 -36 -10 -77q0 -66 32.5 -97t78.5 -31q75 0 144.5 64.5t91.5 155.5l90 363q3 10 3 18q0 40 -58 42q-20 0 -20 13q0 18 18 18q15 0 48 -1.5t49 -1.5t48 1.5t47 1.5q13 0 13 -13z
M632 908q0 -13 -16 -31l-108 -121q-9 -10 -16 -10q-19 3 -19 16q0 4 7 15l83 133q17 27 38 27q13 0 22 -8t9 -21zM789 908q0 -13 -16 -31l-108 -121q-9 -10 -16 -10q-19 3 -19 16q0 4 7 15l83 133q17 27 38 27q13 0 22 -8t9 -21z" />
    <glyph glyph-name="uhungarumlaut" unicode="&#x171;" horiz-adv-x="551" 
d="M577 143q0 -2 -4 -17.5t-11.5 -39t-15.5 -40.5q-27 -57 -75 -57q-64 0 -84 60q-50 -60 -113 -60q-45 0 -81 26.5t-36 91.5q0 34 11 76t45 132q18 49 18 74q0 28 -21 28q-60 0 -93 -124q-2 -6 -3 -8t-3 -5t-5 -3.5t-8 -0.5q-17 0 -17 12q0 6 7.5 28.5t22 51.5t42 51.5
t60.5 22.5q34 0 56.5 -23t22.5 -59q0 -21 -13 -54q-57 -156 -57 -215q0 -77 55 -77q40 0 70.5 31.5t37.5 58.5l71 287q9 40 42 40q12 0 20.5 -7.5t8.5 -20.5q0 -7 -4 -21l-69 -276q-8 -32 -8 -51q0 -41 26 -41q23 0 38 30t30 88q3 15 6 19t14 4q17 0 17 -12zM443 667
q0 -13 -16 -31l-108 -121q-9 -10 -16 -10q-19 3 -19 16q0 4 7 15l83 133q17 27 38 27q13 0 22 -8t9 -21zM600 667q0 -13 -16 -31l-108 -121q-9 -10 -16 -10q-19 3 -19 16q0 4 7 15l83 133q17 27 38 27q13 0 22 -8t9 -21z" />
    <glyph glyph-name="Uogonek" unicode="&#x172;" horiz-adv-x="763" 
d="M866 670q0 -18 -19 -18q-18 -1 -31 -4t-27 -10t-24 -22.5t-16 -38.5l-88 -356q-23 -94 -101.5 -168.5t-170.5 -74.5h-8q-12 -8 -25 -21q-27 -25 -32 -52q-7 -32 17 -50.5t55 -18.5q52 0 89 56q5 8 12.5 5t3.5 -12q-21 -42 -61 -69t-78 -27q-47 0 -73 27t-18 63
q11 52 79 103q-64 12 -104 62t-40 123q0 29 9 67l95 381q4 14 4 20t-2 9t-15.5 5.5t-40.5 2.5q-10 0 -14.5 0.5t-8.5 3.5t-4 9q0 18 19 18t59 -1.5t60 -1.5t59 1.5t58 1.5q14 0 14 -13q0 -12 -6.5 -15t-22.5 -3q-46 0 -59.5 -7.5t-19.5 -33.5l-99 -397q-10 -36 -10 -77
q0 -66 32.5 -97t78.5 -31q75 0 144.5 64.5t91.5 155.5l90 363q3 10 3 18q0 40 -58 42q-20 0 -20 13q0 18 18 18q15 0 48 -1.5t49 -1.5t48 1.5t47 1.5q13 0 13 -13z" />
    <glyph glyph-name="uogonek" unicode="&#x173;" horiz-adv-x="551" 
d="M553 -115q-21 -42 -61 -69t-78 -27q-47 0 -73 27t-18 63q13 62 104 121q-29 15 -40 49q-50 -60 -113 -60q-45 0 -81 26.5t-36 91.5q0 34 11 76t45 132q18 49 18 74q0 28 -21 28q-60 0 -93 -124q-2 -6 -3 -8t-3 -5t-5 -3.5t-8 -0.5q-17 0 -17 12q0 6 7.5 28.5t22 51.5
t42 51.5t60.5 22.5q34 0 56.5 -23t22.5 -59q0 -21 -13 -54q-57 -156 -57 -215q0 -77 55 -77q40 0 70.5 31.5t37.5 58.5l71 287q9 40 42 40q12 0 20.5 -7.5t8.5 -20.5q0 -7 -4 -21l-69 -276q-8 -32 -8 -51q0 -41 26 -41q23 0 38 30t30 88q3 15 6 19t14 4q17 0 17 -12
q0 -2 -4 -17.5t-11.5 -39t-15.5 -40.5q-27 -57 -75 -57q-6 0 -20 2q-27 -18 -43 -34q-27 -25 -32 -52q-7 -32 17 -50.5t55 -18.5q52 0 89 56q5 8 12.5 5t3.5 -12z" />
    <glyph glyph-name="Wcircumflex" unicode="&#x174;" horiz-adv-x="1025" 
d="M1148 670q0 -17 -14 -18q-35 -3 -58 -20t-51 -67l-313 -568q-10 -19 -29 -19q-13 0 -15.5 5t-3.5 22l-26 500l-280 -508q-10 -19 -28 -19q-13 0 -15.5 4.5t-3.5 20.5l-32 615q-1 22 -8 28t-38 6q-23 0 -23 13q0 18 18 18q15 0 48.5 -1.5t49.5 -1.5q18 0 55 1.5t54 1.5
q15 0 15 -13q0 -12 -6 -15t-19 -3q-24 0 -38.5 -4.5t-19.5 -13t-6.5 -14.5t-0.5 -16l26 -493l243 441q6 11 6 20q0 39 -4 63q-2 7 -4.5 10t-12.5 5t-29 2q-22 0 -22 13q0 18 19 18q15 0 48 -1.5t49 -1.5q18 0 55.5 1.5t54.5 1.5q14 0 14 -13q0 -18 -23 -18q-32 0 -48 -9
t-18 -17t-1 -20l26 -495l257 467q14 25 14 37q0 32 -52 37q-15 0 -15 13q0 18 19 18q15 0 48 -1.5t49 -1.5q23 0 40.5 1t26 1.5t9.5 0.5q13 0 13 -13zM838 755q6 -5 -1 -13.5t-14 -4.5l-112 55l-140 -55q-6 -2 -10 1t-3 8.5t7 8.5l155 98q7 3 12 0z" />
    <glyph glyph-name="wcircumflex" unicode="&#x175;" horiz-adv-x="682" 
d="M713 373q0 -41 -22 -128t-46 -142q-47 -114 -136 -114q-86 0 -117 63q-38 -63 -99 -63q-21 0 -41.5 5t-43 17t-36.5 38.5t-14 64.5q0 53 55 201q18 49 18 74q0 28 -21 28q-60 0 -93 -124q-2 -6 -3 -8t-3 -5t-5 -3.5t-8 -0.5q-17 0 -17 12q0 6 7.5 28.5t22 51.5t42 51.5
t60.5 22.5q34 0 56.5 -23t22.5 -59q0 -20 -14 -56q-54 -148 -54 -203q0 -87 72 -87q32 0 58 36q27 38 27 67q0 18 8 58l55 219q9 37 41 37q12 0 20.5 -7.5t8.5 -20.5q0 -3 -2.5 -14t-6.5 -28t-6 -24l-39 -156q-14 -54 -14 -84q0 -83 66 -83q62 0 102 92q13 29 30.5 93
t17.5 91q0 47 -30 82q-10 11 -10 24q0 18 15.5 32t32.5 14q16 0 29.5 -16t13.5 -53zM613 536q4 -7 -4 -14.5t-14 -1.5l-98 99l-148 -99q-9 -6 -14.5 1.5t3.5 14.5l166 144q9 8 15 0z" />
    <glyph glyph-name="Ycircumflex" unicode="&#x176;" horiz-adv-x="763" 
d="M891 670q0 -16 -20 -18q-69 -7 -128 -77l-255 -303q-9 -37 -20.5 -82.5t-22.5 -90.5q-11 -44 -11 -50q0 -7 2 -10t15 -5.5t41 -2.5q10 0 14.5 -0.5t8 -3.5t3.5 -9q0 -18 -19 -18q-18 0 -57.5 1.5t-59.5 1.5q-19 0 -58 -1.5t-57 -1.5q-15 0 -15 13q0 12 6 15t20 3
q54 1 65.5 9t21.5 50q46 175 46 183q-4 12 -5 14l-115 336q-6 17 -17 23t-46 6q-23 0 -23 13q0 18 18 18q16 0 51.5 -1.5t52.5 -1.5q19 0 57.5 1.5t56.5 1.5q14 0 14 -13q0 -18 -23 -18q-53 0 -53 -23q0 -4 5 -17l102 -295l222 264q7 7 17 22.5t10 27.5q0 19 -28 21
q-17 0 -17 13q0 18 18 18q47 -3 92 -3q23 0 41 1t27.5 1.5t10.5 0.5q12 0 12 -13zM706 755q6 -5 -1 -13.5t-14 -4.5l-112 55l-140 -55q-6 -2 -10 1t-3 8.5t7 8.5l155 98q7 3 12 0z" />
    <glyph glyph-name="ycircumflex" unicode="&#x177;" horiz-adv-x="498" 
d="M426 -4q-19 -76 -83 -138.5t-142 -62.5q-43 0 -70.5 24t-27.5 63q0 33 16 47t34 14q14 0 24 -9t10 -23q0 -6 -1.5 -13.5t-13.5 -20t-33 -14.5q6 -21 23 -32t39 -11q48 0 93.5 50.5t68.5 153.5q-39 -35 -90 -35q-16 0 -32.5 4t-37 15t-33.5 36.5t-13 62.5q0 34 11 76
t45 132q18 49 18 74q0 28 -21 28q-60 0 -93 -124q-2 -6 -3 -8t-3 -5t-5 -3.5t-8 -0.5q-17 0 -17 12q0 6 7.5 28.5t22 51.5t42 51.5t60.5 22.5q34 0 56.5 -23t22.5 -59q0 -21 -13 -54q-57 -156 -57 -215q0 -77 55 -77q36 0 67 28.5t39 61.5l73 290q9 37 41 37q12 0 20.5 -7.5
t8.5 -20.5q0 -6 -4 -21zM521 536q4 -7 -4 -14.5t-14 -1.5l-98 99l-148 -99q-9 -6 -14.5 1.5t3.5 14.5l166 144q9 8 15 0z" />
    <glyph glyph-name="Ydieresis" unicode="&#x178;" horiz-adv-x="763" 
d="M891 670q0 -16 -20 -18q-69 -7 -128 -77l-255 -303q-9 -37 -20.5 -82.5t-22.5 -90.5q-11 -44 -11 -50q0 -7 2 -10t15 -5.5t41 -2.5q10 0 14.5 -0.5t8 -3.5t3.5 -9q0 -18 -19 -18q-18 0 -57.5 1.5t-59.5 1.5q-19 0 -58 -1.5t-57 -1.5q-15 0 -15 13q0 12 6 15t20 3
q54 1 65.5 9t21.5 50q46 175 46 183q-4 12 -5 14l-115 336q-6 17 -17 23t-46 6q-23 0 -23 13q0 18 18 18q16 0 51.5 -1.5t52.5 -1.5q19 0 57.5 1.5t56.5 1.5q14 0 14 -13q0 -18 -23 -18q-53 0 -53 -23q0 -4 5 -17l102 -295l222 264q7 7 17 22.5t10 27.5q0 19 -28 21
q-17 0 -17 13q0 18 18 18q47 -3 92 -3q23 0 41 1t27.5 1.5t10.5 0.5q12 0 12 -13zM521 794q0 -23 -18.5 -40.5t-40.5 -17.5q-16 0 -28.5 11t-11.5 29q0 23 18 40.5t40 17.5q16 0 28 -11t13 -29zM734 794q0 -23 -18.5 -40.5t-40.5 -17.5q-16 0 -28.5 11t-11.5 29
q0 23 18 40.5t40 17.5q16 0 28 -11t13 -29z" />
    <glyph glyph-name="Zacute" unicode="&#x179;" horiz-adv-x="630" 
d="M616 241l-70 -222q-4 -14 -8 -16.5t-22 -2.5h-411q-15 0 -19.5 1.5t-4.5 9.5q0 12 12 26l530 615h-147q-55 0 -94.5 -12.5t-65 -38t-40.5 -53t-29 -69.5q-3 -8 -4 -11t-3.5 -6t-5 -3.5t-7.5 -0.5q-17 0 -17 13q0 7 4 18l53 174q5 14 9 17t21 3h398q24 0 24 -10t-12 -24
l-528 -615h153q60 0 102 13.5t69.5 43t43 61t32.5 84.5q8 24 12 28q3 3 12 3q16 0 16 -13q0 -3 -3 -13zM674 871q-3 -18 -29 -31l-180 -91q-9 -4 -15 -3t-10.5 7.5t-3.5 12.5q1 5 14 14l165 114q17 12 29 12q15 0 23.5 -10t6.5 -25z" />
    <glyph glyph-name="zacute" unicode="&#x17a;" horiz-adv-x="420" 
d="M446 144q0 -11 -11 -35.5t-30 -51.5t-50 -47.5t-65 -20.5t-62 36q-12 14 -17.5 20.5t-15 12t-19.5 5.5q-43 0 -79 -62q-5 -8 -7.5 -10t-11.5 -2q-16 0 -16 11q0 9 27.5 47.5t53.5 66.5q33 36 124 122q82 77 107 107q-29 3 -63 16q-34 15 -57 15q-21 0 -44.5 -11.5
t-32.5 -35.5q-2 -6 -3 -8t-4.5 -3.5t-10.5 -1.5q-16 0 -16 12q0 25 35 70.5t86 45.5q33 0 62 -37t50 -37q26 0 58 55q9 14 12.5 16.5t11.5 2.5q16 0 16 -11q0 -4 -8 -19.5t-44 -59.5t-92 -99l-97 -90q-46 -44 -72 -76q4 1 16 1q26 0 70 -18q31 -13 53 -13q34 0 65.5 23
t43.5 56q3 10 5 13t5 5t10 2q17 0 17 -12zM497 666q0 -18 -23 -35l-162 -121q-9 -6 -14 -6q-6 0 -11.5 6t-5.5 12q0 5 11 16l143 141q17 17 31 17q15 0 23 -9t8 -21z" />
    <glyph glyph-name="Zdotaccent" unicode="&#x17b;" horiz-adv-x="630" 
d="M616 241l-70 -222q-4 -14 -8 -16.5t-22 -2.5h-411q-15 0 -19.5 1.5t-4.5 9.5q0 12 12 26l530 615h-147q-55 0 -94.5 -12.5t-65 -38t-40.5 -53t-29 -69.5q-3 -8 -4 -11t-3.5 -6t-5 -3.5t-7.5 -0.5q-17 0 -17 13q0 7 4 18l53 174q5 14 9 17t21 3h398q24 0 24 -10t-12 -24
l-528 -615h153q60 0 102 13.5t69.5 43t43 61t32.5 84.5q8 24 12 28q3 3 12 3q16 0 16 -13q0 -3 -3 -13zM572 822q0 -26 -20.5 -45t-44.5 -19q-18 0 -31.5 12t-13.5 32q0 26 20.5 45t44.5 19q18 0 31.5 -12t13.5 -32z" />
    <glyph glyph-name="zdotaccent" unicode="&#x17c;" horiz-adv-x="420" 
d="M446 144q0 -11 -11 -35.5t-30 -51.5t-50 -47.5t-65 -20.5t-62 36q-12 14 -17.5 20.5t-15 12t-19.5 5.5q-43 0 -79 -62q-5 -8 -7.5 -10t-11.5 -2q-16 0 -16 11q0 9 27.5 47.5t53.5 66.5q33 36 124 122q82 77 107 107q-29 3 -63 16q-34 15 -57 15q-21 0 -44.5 -11.5
t-32.5 -35.5q-2 -6 -3 -8t-4.5 -3.5t-10.5 -1.5q-16 0 -16 12q0 25 35 70.5t86 45.5q33 0 62 -37t50 -37q26 0 58 55q9 14 12.5 16.5t11.5 2.5q16 0 16 -11q0 -4 -8 -19.5t-44 -59.5t-92 -99l-97 -90q-46 -44 -72 -76q4 1 16 1q26 0 70 -18q31 -13 53 -13q34 0 65.5 23
t43.5 56q3 10 5 13t5 5t10 2q17 0 17 -12zM414 610q0 -26 -20.5 -45t-44.5 -19q-18 0 -31.5 12t-13.5 32q0 26 20.5 45t44.5 19q18 0 31.5 -12t13.5 -32z" />
    <glyph glyph-name="Zcaron" unicode="&#x17d;" horiz-adv-x="630" 
d="M616 241l-70 -222q-4 -14 -8 -16.5t-22 -2.5h-411q-15 0 -19.5 1.5t-4.5 9.5q0 12 12 26l530 615h-147q-55 0 -94.5 -12.5t-65 -38t-40.5 -53t-29 -69.5q-3 -8 -4 -11t-3.5 -6t-5 -3.5t-7.5 -0.5q-17 0 -17 13q0 7 4 18l53 174q5 14 9 17t21 3h398q24 0 24 -10t-12 -24
l-528 -615h153q60 0 102 13.5t69.5 43t43 61t32.5 84.5q8 24 12 28q3 3 12 3q16 0 16 -13q0 -3 -3 -13zM660 836l-155 -98q-7 -3 -12 0l-106 98q-6 5 1 13.5t14 4.5l112 -55l140 55q6 2 10 -1t3 -8.5t-7 -8.5z" />
    <glyph glyph-name="zcaron" unicode="&#x17e;" horiz-adv-x="420" 
d="M446 144q0 -11 -11 -35.5t-30 -51.5t-50 -47.5t-65 -20.5t-62 36q-12 14 -17.5 20.5t-15 12t-19.5 5.5q-43 0 -79 -62q-5 -8 -7.5 -10t-11.5 -2q-16 0 -16 11q0 9 27.5 47.5t53.5 66.5q33 36 124 122q82 77 107 107q-29 3 -63 16q-34 15 -57 15q-21 0 -44.5 -11.5
t-32.5 -35.5q-2 -6 -3 -8t-4.5 -3.5t-10.5 -1.5q-16 0 -16 12q0 25 35 70.5t86 45.5q33 0 62 -37t50 -37q26 0 58 55q9 14 12.5 16.5t11.5 2.5q16 0 16 -11q0 -4 -8 -19.5t-44 -59.5t-92 -99l-97 -90q-46 -44 -72 -76q4 1 16 1q26 0 70 -18q31 -13 53 -13q34 0 65.5 23
t43.5 56q3 10 5 13t5 5t10 2q17 0 17 -12zM514 664l-166 -144q-9 -8 -15 0l-94 144q-4 7 4 14.5t14 1.5l98 -99l148 99q9 6 14.5 -1.5t-3.5 -14.5z" />
    <glyph glyph-name="longs" unicode="&#x17f;" horiz-adv-x="315" 
d="M459 639q0 -26 -15 -40t-34 -14q-15 0 -26.5 9t-7.5 23l1 6q1 6 3 10.5t6 11t11.5 11.5t17.5 8q-7 7 -17.5 11t-17.5 5h-6q-15 0 -26.5 -15t-16.5 -31t-12 -45l-99 -516q-9 -38 -14 -56.5t-15.5 -53.5t-18.5 -54t-21 -44t-26 -38t-30.5 -22.5t-37.5 -9.5
q-33 0 -57.5 17.5t-24.5 48.5q0 26 15 40t34 14q15 0 26.5 -9t7.5 -23q-6 -38 -39 -47q6 -7 16 -11t17 -5h6q34 0 52 81l34 135l70 364h-63h-12t-8.5 1.5t-6 4t-0.5 7.5q3 13 8.5 15.5t19.5 2.5h61l29 115q14 72 40 107q4 12 31.5 32t60.5 20t59 -17.5t26 -48.5z" />
    <glyph glyph-name="Ereversed" unicode="&#x18e;" horiz-adv-x="696" 
d="M645 13q-6 -13 -33 -13h-487q-17 0 -20 2.5t-2 15.5l18 211l2 16q7 13 24 13q8 0 10 -3q1 -1 0 -27q-5 -51 -2.5 -88.5t17 -61.5t48 -35.5t91.5 -11.5h131q19 0 31 3q7 13 10 29l69 275h-92q-48 0 -67 -10t-30 -32q-9 -16 -16 -44q-1 -3 -2 -7t-2 -7t-1 -4
q-7 -13 -23 -13q-8 0 -10 3t0 17l54 214q2 8 5 18q7 13 24 13q10 0 11.5 -4t-2.5 -18q-15 -56 -1 -75.5t73 -19.5h86l62 246q6 24 0.5 29t-31.5 5h-132q-84 0 -121.5 -24t-65.5 -80q-14 -28 -24 -54q-3 -14 -7 -21q-8 -15 -25 -15q-11 0 -11.5 5t5.5 18l71 188q7 14 34 14
h474q10 0 14 -0.5t7.5 -4.5t-2.5 -13q-7 -13 -33 -13q-40 0 -51 -3.5t-15 -13.5q-3 -6 -7 -21l-135 -538q-6 -27 3 -34.5t58 -7.5q15 0 18.5 -2.5t-0.5 -15.5z" />
    <glyph glyph-name="florin" unicode="&#x192;" horiz-adv-x="315" 
d="M459 639q0 -26 -15 -40t-34 -14q-14 0 -24 9t-10 23q0 36 39 47q-7 7 -17.5 11t-17.5 5h-6q-12 0 -21.5 -7t-16 -22.5t-9.5 -27t-8 -34.5l-30 -158h79q10 0 14.5 -0.5t8.5 -3.5t4 -9q0 -12 -6.5 -15t-21.5 -3h-84l-63 -327q-54 -278 -163 -278q-33 0 -57.5 17.5
t-24.5 48.5q0 26 15 40t34 14q14 0 24 -9t10 -23q0 -36 -39 -47q14 -16 39 -16q35 0 56 81q17 64 30 135l70 364h-63q-10 0 -14.5 0.5t-8.5 3.5t-4 9q0 12 6 15t22 3h68l22 115q14 72 40 107q6 9 15.5 18.5t31.5 21.5t45 12q33 0 59 -17.5t26 -48.5z" />
    <glyph glyph-name="Ohorn" unicode="&#x1a0;" horiz-adv-x="787" 
d="M791 338q-39 -150 -156 -254q-117 -106 -248 -106q-129 0 -196 106q-41 68 -41 154q0 46 13 100q39 154 157 259q118 108 248 108q91 0 153 -57q35 3 64 35h-5q-21 0 -33 12t-12 31q0 25 19 45t47 20q20 0 31.5 -13.5t11.5 -34.5q0 -6 -2 -18q-10 -37 -36.5 -65.5
t-59.5 -37.5q6 -6 18 -25q40 -67 40 -155q0 -46 -13 -104zM702 355q18 69 18 125q0 58 -20 104q-19 43 -55 68t-83 25q-98 0 -186 -93q-81 -86 -116 -229q-20 -80 -20 -143q0 -58 17 -105q17 -45 53 -72t84 -27q98 0 187 99q84 95 121 248z" />
    <glyph glyph-name="ohorn" unicode="&#x1a1;" 
d="M594 472q-9 -37 -36.5 -66t-61.5 -37q23 -40 23 -94q0 -34 -8 -62q-22 -91 -95 -158q-74 -66 -155 -66q-83 0 -125 68q-26 44 -26 98q0 31 9 63q22 92 95 157q74 66 155 66q67 0 107 -45q33 3 62 35l-5 -1q-21 0 -33 12t-12 31q0 25 19 45t46 20q20 0 32 -13.5t12 -34.5
q0 -9 -3 -18zM432 218q15 63 15 96q0 24 -8 48q-18 53 -71 55q-56 -2 -104 -58q-40 -47 -66 -146q-15 -63 -15 -96q0 -25 8 -49q18 -54 71 -54q54 0 104 58q41 48 66 146z" />
    <glyph glyph-name="Uhorn" unicode="&#x1af;" horiz-adv-x="763" 
d="M887 722q-11 -45 -48.5 -77t-82.5 -37l-96 -383q-25 -101 -104 -174q-78 -73 -166 -73q-97 0 -150 75q-34 49 -34 114q0 29 8 64l97 387q3 12 3 19l-2 9q-11 6 -70 6l-3 1q-9 2 -9 12v3l1 6q4 9 12 9h3l121 -3l121 3h2q9 -4 9 -12v-3l-2 -6q-2 -10 -12 -10q-60 0 -75 -7
q-13 -6 -19 -32l-97 -388q-13 -52 -13 -89q0 -40 14 -67q28 -60 97 -60q76 0 145 64q69 65 93 158l90 359q3 12 3 21q0 17 -9 26q-15 15 -57 15l-3 1q-9 2 -9 12v3l2 6q2 9 12 9h3q48 -3 96 -3q3 1 4 3q9 -4 9 -12v-3l-7 -26q39 7 69 41h-7q-20 0 -32.5 12.5t-12.5 30.5
q0 25 19 45t47 20q20 0 31.5 -14t11.5 -35q0 -11 -3 -20z" />
    <glyph glyph-name="uhorn" unicode="&#x1b0;" horiz-adv-x="551" 
d="M575 141q-21 -81 -42 -116.5t-63 -35.5q-31 0 -53.5 16.5t-30.5 43.5q-47 -60 -112 -60q-72 0 -102 51q-15 26 -15 67q0 32 9 68q11 41 51 152q14 36 14 62q0 28 -20 28q-64 0 -96 -133q-4 -8 -11 -8h-12h-3q-8 3 -8 11v3q17 66 51 108.5t80 42.5q35 0 57 -23t22 -58
q0 -21 -7 -41q-38 -101 -51 -149q-12 -53 -12 -80q0 -21 6 -39q11 -37 48 -37q63 0 107 80l3 16l72 289q8 31 40 31q12 0 20.5 -7.5t8.5 -19.5q0 -2 -0.5 -5t-0.5 -4l-1 -1q37 11 61 38l-4 -1q-21 0 -33 12t-12 31q0 25 18.5 45t46.5 20q20 0 31.5 -14t11.5 -35q0 -6 -2 -20
q-10 -41 -45.5 -71.5t-80.5 -39.5l-64 -253q-7 -33 -7 -52q0 -39 26 -39q22 0 37.5 31t33.5 101q2 8 10 8h12h3q8 -2 8 -11v-2z" />
    <glyph glyph-name="Acaron" unicode="&#x1cd;" horiz-adv-x="763" 
d="M709 18q0 -18 -18 -18q-16 0 -51.5 1.5t-53.5 1.5q-19 0 -56.5 -1.5t-55.5 -1.5q-15 0 -15 13q0 18 26 18q25 0 40.5 6.5t19 12.5t3.5 12l-13 170h-238l-73 -127q-15 -29 -15 -41q0 -30 42 -33q14 0 14 -13q0 -18 -18 -18q-14 0 -45.5 1.5t-47.5 1.5q-22 0 -41 -0.5
t-29 -1.5l-11 -1q-12 0 -12 13q0 16 21 18q13 1 23.5 3.5t26 10.5t32 26t32.5 46l334 579q11 20 30 20q12 0 15.5 -4.5t4.5 -18.5l49 -628q2 -22 10.5 -28t46.5 -6q23 0 23 -13zM533 263l-26 330l-191 -330h217zM726 836l-155 -98q-7 -3 -12 0l-106 98q-6 5 1 13.5t14 4.5
l112 -55l140 55q6 2 10 -1t3 -8.5t-7 -8.5z" />
    <glyph glyph-name="acaron" unicode="&#x1ce;" 
d="M541 143q0 -2 -4 -17.5t-11.5 -39t-15.5 -40.5q-27 -57 -75 -57q-31 0 -55 18.5t-32 50.5q-62 -69 -123 -69q-52 0 -88.5 42t-36.5 115q0 112 74 204t159 92q58 0 86 -56q8 36 41 36q12 0 20.5 -8t8.5 -20q0 -6 -4 -20l-67 -268q-8 -32 -8 -51q0 -41 26 -41q23 0 38 30
t30 88q3 15 6 19t14 4q17 0 17 -12zM354 125l46 185q3 10 3 16t-2.5 18t-9 30t-22 30.5t-36.5 12.5q-32 0 -65 -33t-53 -82q-13 -34 -29 -99t-16 -100q0 -10 1.5 -21t6.5 -28.5t18 -28.5t32 -11q37 0 77.5 40.5t48.5 70.5zM566 664l-166 -144q-9 -8 -15 0l-94 144
q-4 7 4 14.5t14 1.5l98 -99l148 99q9 6 14.5 -1.5t-3.5 -14.5z" />
    <glyph glyph-name="Icaron" unicode="&#x1cf;" horiz-adv-x="396" 
d="M341 18q0 -18 -19 -18q-20 0 -61 1.5t-62 1.5q-20 0 -61.5 -1.5t-60.5 -1.5q-14 0 -14 13q0 12 6.5 15t25.5 3q47 0 61 8t20 34l135 540l4 22q0 11 -15 14t-48 3q-10 0 -14.5 0.5t-8 3.5t-3.5 9q0 18 19 18q20 0 61 -1.5t62 -1.5q20 0 61 1.5t60 1.5q15 0 15 -13
q0 -12 -6 -15t-23 -3q-36 0 -52.5 -4.5t-21.5 -11.5t-10 -26l-135 -541q-4 -14 -4 -20q0 -7 2 -10t16.5 -5.5t43.5 -2.5q10 0 14.5 -0.5t8.5 -3.5t4 -9zM543 836l-155 -98q-7 -3 -12 0l-106 98q-6 5 1 13.5t14 4.5l112 -55l140 55q6 2 10 -1t3 -8.5t-7 -8.5z" />
    <glyph glyph-name="icaron" unicode="&#x1d0;" horiz-adv-x="315" 
d="M341 143q0 -5 -7.5 -27.5t-22 -52t-42 -52t-60.5 -22.5t-56 21.5t-23 60.5q0 20 17 65l25 69l35 93q24 66 24 91q0 28 -21 28q-60 0 -93 -124q-2 -6 -3 -8t-3 -5t-5 -3.5t-8 -0.5q-17 0 -17 12q0 6 7.5 28.5t22 51.5t42 51.5t60.5 22.5q34 0 56.5 -23t22.5 -59
q0 -21 -20 -72l-34 -94q-5 -13 -31 -81q-17 -48 -17 -71q0 -28 21 -28q59 0 92 117q5 16 8 20t13 4q17 0 17 -12zM461 664l-166 -144q-9 -8 -15 0l-94 144q-4 7 4 14.5t14 1.5l98 -99l148 99q9 6 14.5 -1.5t-3.5 -14.5z" />
    <glyph glyph-name="Ocaron" unicode="&#x1d1;" horiz-adv-x="787" 
d="M806 441q0 -115 -61 -223t-158.5 -174t-198.5 -66q-104 0 -171 71.5t-67 189.5q0 114 61 223t159 176t199 67q105 0 171 -73.5t66 -190.5zM721 479q0 98 -46.5 148t-112.5 50q-55 0 -112.5 -34t-102.5 -94q-56 -75 -81.5 -170.5t-25.5 -165.5q0 -104 45.5 -154.5
t109.5 -50.5q89 0 166 78t118.5 186t41.5 207zM738 836l-155 -98q-7 -3 -12 0l-106 98q-6 5 1 13.5t14 4.5l112 -55l140 55q6 2 10 -1t3 -8.5t-7 -8.5z" />
    <glyph glyph-name="ocaron" unicode="&#x1d2;" 
d="M521 275q0 -106 -80.5 -196t-177.5 -90q-69 0 -110.5 47.5t-41.5 118.5q0 109 81 198t177 89q68 0 110 -47.5t42 -119.5zM448 313q0 49 -22.5 76.5t-56.5 27.5q-33 0 -67.5 -23.5t-58.5 -65.5q-26 -44 -42.5 -108.5t-16.5 -100.5q0 -55 23.5 -80t55.5 -25q31 0 64 22
t57 59q30 46 47 114t17 104zM566 664l-166 -144q-9 -8 -15 0l-94 144q-4 7 4 14.5t14 1.5l98 -99l148 99q9 6 14.5 -1.5t-3.5 -14.5z" />
    </font>
</defs>
</svg>
