<?xml version="1.0" standalone="no"?>
<!DOCTYPE svg PUBLIC "-//W3C//DTD SVG 1.1//EN" "http://www.w3.org/Graphics/SVG/1.1/DTD/svg11.dtd" >
<svg xmlns="http://www.w3.org/2000/svg" xmlns:xlink="http://www.w3.org/1999/xlink" version="1.1">
<metadata>
Created by FontForge 20170731 at Thu Oct  8 13:58:56 2009
 By Aleksey,,,
Copyright 2003, 2009 B. Jackowski and J. M. Nowacki (on behalf of TeX users groups). This work is released under the GUST Font License --  see http://tug.org/fonts/licenses/GUST-FONT-LICENSE.txt for details.
</metadata>
<defs>
<font id="LMRomanCaps10-Oblique" horiz-adv-x="553" >
  <font-face 
    font-family="LM Roman Caps 10"
    font-weight="400"
    font-style="oblique"
    font-variant="small-caps"
    font-stretch="normal"
    units-per-em="1000"
    panose-1="0 0 5 0 0 0 0 0 0 0"
    ascent="806"
    descent="-194"
    x-height="514"
    cap-height="683"
    bbox="-523 -290 1529.45 1100"
    underline-thickness="40"
    underline-position="-226"
    slope="-9.4626"
    unicode-range="U+0020-F7A2"
  />
<missing-glyph horiz-adv-x="280" 
 />
    <glyph glyph-name="I_J" unicode="IJ" horiz-adv-x="932" 
d="M355 0q-34 3 -152 3q-117 0 -153 -3l5 31h26q56 0 70.5 9t19.5 38l88 527q5 29 -6.5 38t-67.5 9h-26l5 31q34 -3 152 -3q117 0 153 3l-5 -31h-26q-56 0 -70.5 -9t-19.5 -38l-88 -527q-5 -29 6.5 -38t67.5 -9h26zM972 652q-51 0 -65 -6t-19 -36l-74 -444q-7 -37 -8 -41
q-20 -66 -82.5 -106.5t-133.5 -40.5t-112 39.5t-32 94.5q5 30 24.5 44t40.5 14q23 0 37 -15t10 -41q-9 -56 -73 -56q10 -25 39.5 -41.5t66.5 -16.5q44 0 83.5 40t50.5 109l76 455q4 17 1 28t-23 15.5t-68 4.5h-36l5 31q37 -3 167 -3l130 3z" />
    <glyph glyph-name="i_j" unicode="ij" horiz-adv-x="696" 
d="M263 0l-111 3l-113 -3l4 25q53 0 66 7.5t18 40.5l62 368q5 33 -5 40.5t-63 7.5l4 25l111 -3l113 3l-4 -25q-53 0 -66 -7.5t-18 -40.5l-62 -368q-5 -33 5 -40.5t63 -7.5zM725 489q-40 0 -48.5 -9t-16.5 -56l-47 -280q-8 -47 -10 -52q-17 -48 -63 -77t-99 -29t-84.5 29
t-24.5 69q4 21 17.5 32t31.5 11q17 0 27 -12t7 -29q-2 -15 -13.5 -28t-36.5 -14q24 -36 77 -36q29 0 58.5 26.5t38.5 81.5l54 323q6 31 -5 40.5t-62 9.5h-18l4 25q39 -3 121 -3q59 0 96 3z" />
    <glyph glyph-name=".notdef" horiz-adv-x="280" 
 />
    <glyph glyph-name=".null" horiz-adv-x="0" 
 />
    <glyph glyph-name="nonmarkingreturn" horiz-adv-x="333" 
 />
    <glyph glyph-name="space" unicode=" " horiz-adv-x="378" 
 />
    <glyph glyph-name="exclam" unicode="!" horiz-adv-x="319" 
d="M323 665l-115 -456q-5 -22 -18 -22q-8 0 -9.5 4.5t-0.5 18.5l37 455q4 23 22 37t39 14t35 -14t10 -37zM221 53q-4 -22 -22 -37.5t-40 -15.5t-35 15.5t-9 37.5t22 37.5t40 15.5t35 -15.5t9 -37.5z" />
    <glyph glyph-name="quotedbl" unicode="&#x22;" horiz-adv-x="415" 
d="M307 670l-63 -247h-26l19 247q1 15 13.5 25t27.5 10t23.5 -10t5.5 -25zM403 670l-63 -247h-26l19 247q1 15 13.5 25t27.5 10t23.5 -10t5.5 -25z" />
    <glyph glyph-name="numbersign" unicode="#" horiz-adv-x="903" 
d="M856 153q-4 -20 -37 -20h-238l-138 -304q-5 -13 -9.5 -18t-14.5 -5q-8 0 -13 6t-4 14q0 1 7 18l131 289h-201l-138 -304q-5 -13 -9.5 -18t-14.5 -5q-8 0 -13 6t-4 14q0 1 7 18l131 289h-171q-10 0 -15.5 0.5t-10.5 5.5t-3 14q3 20 37 20h182l69 154h-225q-10 0 -16 0.5
t-11 5.5t-4 14q3 20 36 20h238l138 304q10 23 25 23q8 0 13 -6t3 -14l-7 -18l-131 -289h201l138 304q10 23 25 23q8 0 13 -6t3 -14l-7 -18l-131 -289h171q10 0 15.5 -0.5t10.5 -5.5t4 -14q-3 -20 -37 -20h-182l-69 -154h225q10 0 16 -0.5t11 -5.5t4 -14zM628 327h-201
l-69 -154h201z" />
    <glyph glyph-name="dollar" unicode="$" 
d="M513 195q-14 -79 -77 -138.5t-146 -66.5l-7 -46h-31l7 45q-92 5 -131 59.5t-26 129.5q4 22 17 34.5t21.5 14.5t15.5 2q19 0 30.5 -12.5t8.5 -33.5q-4 -20 -19 -33t-35 -13q-8 0 -16 2q4 -54 40.5 -84.5t98.5 -34.5l50 299q-34 8 -49.5 13t-36 17.5t-37.5 32.5
q-47 56 -33 131q12 73 74 129t146 62l8 46h31l-7 -45q89 -5 130 -54.5t28 -121.5q-4 -22 -18 -34.5t-22 -14t-14 -1.5q-18 0 -30 12t-8 34q3 21 18 33.5t35 12.5q11 0 15 -2q-3 43 -38.5 72t-101.5 33l-45 -271q31 -8 47 -13t36.5 -18.5t35.5 -33.5q47 -60 35 -143zM329 410
l44 263q-63 -6 -107 -44t-52 -86q-17 -101 115 -133zM457 165q9 61 -26 100q-27 33 -87 46l-48 -290q65 8 108.5 50.5t52.5 93.5z" />
    <glyph glyph-name="percent" unicode="%" horiz-adv-x="903" 
d="M864 730q-2 -8 -12 -18l-658 -754q-12 -14 -23 -14q-8 0 -13 6t-4 14q0 6 13 21l584 667l-1 1q-68 -35 -145 -35q-84 0 -154 44q16 -55 4 -114q-14 -84 -63.5 -142.5t-107.5 -58.5q-61 0 -98 57.5t-22 144.5q14 85 69.5 143t117.5 58q40 0 69 -31q77 -79 189 -79
q125 0 215 95q13 15 23 15q8 0 13 -6t4 -14zM854 145q-14 -84 -63.5 -142.5t-107.5 -58.5q-61 0 -98 57.5t-23 144.5q15 85 71 143t117 58q58 0 88 -58.5t16 -143.5zM431 549q12 77 -13.5 128t-68.5 51q-8 0 -17.5 -2t-26 -12.5t-30 -28.5t-28 -53.5t-22.5 -83.5
q-10 -50 -5.5 -83.5t11 -52.5t20.5 -28.5t22.5 -12t16.5 -2.5q43 0 85 51t56 129zM829 146q13 77 -12.5 128t-68.5 51q-8 0 -17.5 -2t-26 -12.5t-30 -28.5t-28 -53.5t-22.5 -83.5q-10 -50 -5.5 -83.5t10.5 -52.5t20 -28.5t22.5 -12t16.5 -2.5q43 0 85.5 51t55.5 129z" />
    <glyph glyph-name="ampersand" unicode="&#x26;" horiz-adv-x="844" 
d="M844 400q-42 0 -73 -14t-46.5 -29t-41.5 -48q-118 -148 -187 -214q25 -29 39 -43t40 -28.5t53 -14.5q42 0 84.5 28.5t53.5 83.5h25q-12 -63 -61.5 -103t-111.5 -40q-92 0 -171 76q-105 -76 -203 -76q-79 0 -127 43t-38 107q4 25 17.5 47t26 34t42.5 39l122 104
q-22 116 -7 203q12 75 62.5 118t103.5 43q46 0 61.5 -40.5t7.5 -88.5q-13 -72 -152 -194l-8 -10q-2 -10 12.5 -50.5t46 -102.5t69.5 -115q50 48 93 98q62 73 103 126q5 8 7 19q3 20 -14.5 31t-46.5 11l5 31q41 -3 121 -3l98 3zM490 587q1 5 2 19t-0.5 35.5t-13.5 37
t-34 15.5q-29 0 -58.5 -28.5t-39.5 -88.5q-13 -80 3 -169q130 115 141 179zM431 72q-102 127 -138 259q-68 -57 -92.5 -88t-32.5 -84q-10 -56 12 -103t78 -47q83 0 173 63z" />
    <glyph glyph-name="quotesingle" unicode="'" horiz-adv-x="319" 
d="M307 670l-63 -247h-26l19 247q1 15 13.5 25t27.5 10t23.5 -10t5.5 -25z" />
    <glyph glyph-name="parenleft" unicode="(" horiz-adv-x="436" 
d="M322 -240q-1 -10 -12 -10q-6 0 -26 18.5t-49 57t-51 97.5t-31.5 140.5t8.5 186.5q21 125 78.5 237.5t147.5 195.5q20 19 50.5 43t39.5 24q11 0 8 -10q0 -2 -5 -9q-27 -22 -46.5 -39.5t-56 -62t-63 -92t-54 -124t-41.5 -163.5q-52 -313 100 -481q3 -3 3 -9z" />
    <glyph glyph-name="parenright" unicode=")" horiz-adv-x="436" 
d="M358 250q-17 -98 -54.5 -185.5t-79.5 -142.5t-83.5 -96t-67.5 -58.5t-31 -17.5q-11 0 -9 10q0 2 5 9q114 92 176 215q63 126 86 266q52 313 -100 480q-4 6 -4 10q2 10 13 10q5 0 25 -18.5t49 -57t51 -97.5t32 -140.5t-8 -186.5z" />
    <glyph glyph-name="asterisk" unicode="*" 
d="M543 441q-2 -13 -11.5 -20.5t-20.5 -7.5q-8 0 -18 8l-120 94l-11 -148l-1 -22q-2 -12 -12 -19t-20 -7q-14 0 -20 10.5t-1 16.5l1 5l42 164l-151 -94q-12 -8 -21 -8q-11 0 -17.5 7.5t-4.5 20.5q3 17 26 27l159 67l-138 67q-19 10 -16 26q2 13 11.5 20.5t19.5 7.5
q8 0 18 -8l120 -94l11 148l2 22q2 12 11.5 19t19.5 7q27 0 20 -37l-42 -159l151 94q12 8 21 8q11 0 18 -7.5t5 -20.5q-3 -17 -27 -27l-159 -67l138 -67q19 -10 17 -26z" />
    <glyph glyph-name="plus" unicode="+" horiz-adv-x="844" 
d="M813 250q-4 -20 -37 -20h-296l-49 -297q-2 -11 -3.5 -15.5t-7.5 -11t-15 -6.5q-21 0 -14 33l49 297h-297q-10 0 -15.5 0.5t-10.5 5.5t-3 14q3 20 36 20h297l50 297q5 33 25 33t15 -33l-50 -297h296q10 0 15.5 -0.5t10.5 -5.5t4 -14z" />
    <glyph glyph-name="comma" unicode="," horiz-adv-x="319" 
d="M224 1q-5 -33 -19 -65t-30 -54.5t-32.5 -40t-28 -26t-15.5 -8.5q-11 0 -9 11q0 5 12 13q84 71 100 170q2 11 1 18q-17 -19 -44 -19q-25 0 -36 15.5t-8 37.5q3 21 20 37t42 16q32 0 43.5 -30t3.5 -75z" />
    <glyph glyph-name="hyphen" unicode="-" horiz-adv-x="378" 
d="M336 187h-279l10 58h279z" />
    <glyph glyph-name="period" unicode="." horiz-adv-x="319" 
d="M221 53q-4 -22 -22 -37.5t-40 -15.5t-35 15.5t-9 37.5t22 37.5t40 15.5t35 -15.5t9 -37.5z" />
    <glyph glyph-name="slash" unicode="/" 
d="M602 730q-1 -6 -8 -18l-519 -942q-11 -20 -25 -20q-8 0 -13 6t-3 14q1 6 8 18l519 942q11 20 24 20q8 0 13 -6t4 -14z" />
    <glyph glyph-name="zero" unicode="0" 
d="M548 320q-26 -155 -82 -236q-75 -106 -194 -106q-117 0 -157 102q-30 81 -5 240q26 152 84 240q35 52 87 79t106 27q52 0 94.5 -26t61.5 -78q32 -89 5 -242zM467 331q26 153 20 205q-2 33 -14.5 56.5t-30 33.5t-31.5 14t-28 4q-37 0 -78.5 -26t-65.5 -92
q-20 -55 -44 -195q-25 -156 -22 -213q3 -64 34 -91t69 -27q13 0 27 3.5t37 14.5t44.5 38.5t36.5 68.5q24 64 46 206z" />
    <glyph glyph-name="one" unicode="1" 
d="M453 0q-35 3 -167 3t-169 -3l5 31h35q67 0 83.5 9.5t20.5 38.5l87 519q-61 -27 -142 -27l5 31q125 0 199 64q17 0 19.5 -4t-0.5 -22l-94 -561q-3 -17 -1 -27.5t22 -15.5t67 -5h35z" />
    <glyph glyph-name="two" unicode="2" 
d="M515 174l-57 -174h-392q3 18 5 23t11 12l255 229q119 108 137 208q11 69 -20 116t-98 47q-50 0 -93.5 -28t-67.5 -74q3 1 12 1q25 0 36.5 -15.5t7.5 -36.5q-4 -27 -23 -40t-37 -13q-3 0 -7 0.5t-12.5 3.5t-14 8t-9.5 16.5t-1 27.5q12 71 76.5 126t150.5 55q95 0 150 -54
t41 -140q-7 -43 -34 -83t-50.5 -61t-71.5 -60q-8 -6 -45 -32.5t-48 -35.5l-156 -123h193q89 0 97 7q11 8 40 90h25z" />
    <glyph glyph-name="three" unicode="3" 
d="M523 171q-13 -77 -86.5 -135t-169.5 -58q-88 0 -143 44.5t-43 112.5q5 30 24 44t41 14q23 0 37 -15t10 -41q-5 -26 -26 -42.5t-48 -12.5q19 -44 65.5 -60t84.5 -16q49 0 92.5 38.5t58.5 126.5q13 78 -13.5 122t-87.5 44h-50q-15 0 -19 1.5t-3 9.5t6 9.5t20 2.5
q54 3 77 10t48 31q22 23 37.5 54t20 47.5t5.5 26.5q10 59 -16 85.5t-69 26.5q-40 0 -83.5 -15.5t-67.5 -46.5q13 0 23 -1.5t21.5 -13.5t7.5 -35q-4 -22 -20 -36.5t-39 -14.5q-22 0 -34.5 14t-8.5 38q10 59 70.5 97.5t138.5 38.5t128.5 -39.5t40.5 -98.5q-9 -51 -52 -100.5
t-123 -75.5q77 -15 116 -66.5t29 -114.5z" />
    <glyph glyph-name="four" unicode="4" 
d="M537 165h-107l-15 -87q-5 -29 6 -38t65 -9h23l-5 -31q-36 3 -139 3q-104 0 -142 -3l5 31h23q54 0 68 9t19 38l15 87h-282l5 31l400 467q13 14 23 14q11 0 13 -5.5t-1 -20.5l-76 -455h107zM364 196l63 378l-323 -378h260z" />
    <glyph glyph-name="five" unicode="5" 
d="M520 201q-16 -93 -94.5 -158t-171.5 -65q-83 0 -128 56t-33 128q5 28 22.5 40t35.5 12q23 0 34 -14.5t8 -34.5q-3 -19 -19.5 -34t-39.5 -15q-10 0 -16 2q8 -48 46 -80t93 -32q70 0 122 61q37 45 53 140q15 94 -3 137q-22 54 -78 54q-84 0 -144 -66q-12 -13 -20 -13
q-9 0 -10 6.5t2 19.5l49 297q4 24 14 24q3 0 11 -5q63 -27 136 -27t143 27l14 5q10 0 8 -11q-1 -5 -11 -16.5t-30.5 -26.5t-45.5 -28.5t-60 -23t-70 -9.5q-47 0 -91 14l-33 -198q63 53 144 53q85 0 131.5 -65t31.5 -154z" />
    <glyph glyph-name="six" unicode="6" 
d="M528 204q-16 -98 -91 -162t-163 -64q-33 0 -61 10t-54 34t-39.5 63t-18 96.5t9.5 135.5q26 155 125.5 252t208.5 97q66 0 94.5 -31t21.5 -77q-4 -26 -20.5 -37t-33.5 -11q-18 0 -30 12t-8 34q7 45 61 45q-21 40 -87 40q-18 0 -38.5 -4.5t-52 -23t-58 -48t-51.5 -86.5
t-37 -133l-4 -24q21 39 60.5 71.5t92.5 32.5q39 0 69 -12.5t41.5 -23t27.5 -29.5q51 -62 35 -157zM438 204q17 99 2 137q-25 63 -90 63t-108 -55.5t-54 -122.5q-15 -88 -4 -141q2 -10 7 -20t15 -25t29 -24.5t44 -9.5q63 0 109 54q16 19 26 44.5t14 44.5t10 55z" />
    <glyph glyph-name="seven" unicode="7" 
d="M630 644q-3 -23 -14 -35l-174 -189q-97 -105 -135 -338l-8 -49q-11 -55 -56 -55q-47 0 -36 55q34 204 209 396l125 138h-221q-90 0 -102 -5q-13 -6 -43 -92h-25l68 206h25q0 -9 2 -13.5t13.5 -9t35.5 -6.5q35 -3 80 -3h256z" />
    <glyph glyph-name="eight" unicode="8" 
d="M522 167q-13 -79 -86.5 -134t-164.5 -55q-86 0 -143.5 47.5t-44.5 125.5q6 37 25.5 68t51.5 54t52.5 35t54.5 28l-16.5 11t-15.5 11t-15.5 12.5t-14 12.5t-13 14.5t-10 15.5t-8.5 18t-4.5 20t-2 23t2.5 25q12 70 75.5 118.5t142.5 48.5q75 0 124.5 -41t38.5 -107
q-15 -93 -153 -156l54 -37q86 -59 70 -158zM507 517q10 54 -27.5 89t-97.5 35q-58 0 -106 -28.5t-55 -74.5q-5 -33 10 -52.5t49 -42.5l98 -66q22 11 44 24.5t50.5 46.5t34.5 69zM466 132q5 27 -6.5 51t-22 33.5t-28.5 21.5l-121 82q-67 -30 -106.5 -75t-48.5 -94
q-10 -62 33 -103.5t112 -41.5q67 0 123 35t65 91z" />
    <glyph glyph-name="nine" unicode="9" 
d="M549 329q-26 -155 -121 -253t-202 -98q-69 0 -102.5 29t-25.5 79q5 26 21.5 37t32.5 11q18 0 30.5 -12t8.5 -34q-8 -46 -60 -46q24 -36 99 -36q21 0 42.5 6t49.5 24.5t52 48.5t45.5 84t33.5 124l5 31q-61 -105 -153 -105q-54 0 -85 18t-57 51q-47 60 -31 153q9 52 31 89
t62 71q75 65 165 65q32 0 59.5 -10t53 -33.5t39 -62t17.5 -96t-10 -135.5zM472 420q14 101 4 145q0 2 -2 9t-8.5 19t-16 22.5t-26 18t-36.5 7.5q-65 0 -111 -53q-25 -28 -35 -59t-20 -89q-16 -101 -1 -140q25 -59 89 -59q66 0 109 56t54 123z" />
    <glyph glyph-name="colon" unicode=":" horiz-adv-x="319" 
d="M275 378q-4 -22 -22 -37.5t-40 -15.5t-35 15.5t-9 37.5t22 37.5t40 15.5t35 -15.5t9 -37.5zM221 53q-4 -22 -22 -37.5t-40 -15.5t-35 15.5t-9 37.5t22 37.5t40 15.5t35 -15.5t9 -37.5z" />
    <glyph glyph-name="semicolon" unicode=";" horiz-adv-x="319" 
d="M275 378q-4 -22 -22 -37.5t-40 -15.5t-35 15.5t-9 37.5t22 37.5t40 15.5t35 -15.5t9 -37.5zM216 3q-9 -53 -36.5 -101.5t-50.5 -71.5t-30 -23q-11 0 -9 11q0 4 10 13q77 74 95 180q-9 -7 -28 -10q-3 -1 -8 -1q-25 0 -36 15.5t-8 37.5q3 21 20 37t42 16q53 0 39 -103z" />
    <glyph glyph-name="less" unicode="&#x3c;" horiz-adv-x="844" 
d="M739 -19q-4 -20 -24 -20q-5 0 -16 5l-541 262q-18 9 -15 22q0 2 1 4.5t2 4t2.5 3l2.5 2.5t3.5 2.5t3.5 2l4 2t4 1.5l645 268q21 -2 18 -21q-3 -12 -23 -21l-594 -248l511 -248q18 -9 16 -21z" />
    <glyph glyph-name="equal" unicode="=" horiz-adv-x="844" 
d="M829 347q-3 -20 -37 -20h-631q-10 0 -16 0.5t-11 5.5t-4 14q3 20 36 20h633q10 0 15.5 -0.5t10.5 -5.5t4 -14zM797 153q-4 -20 -37 -20h-633q-10 0 -15.5 0.5t-10.5 5.5t-3 14q3 20 37 20h631q10 0 16 -0.5t11 -5.5t4 -14z" />
    <glyph glyph-name="greater" unicode="&#x3e;" horiz-adv-x="844" 
d="M784 250q-2 -12 -24 -22l-645 -268q-10 1 -14.5 7.5t-2.5 12.5q2 13 22 22l595 248l-512 248q-17 9 -15 22q1 7 8 13t15 6q5 0 16 -5l541 -262q17 -9 16 -22z" />
    <glyph glyph-name="question" unicode="?" horiz-adv-x="524" 
d="M546 570q-11 -63 -67 -99q-156 -93 -177 -222l-6 -35q-2 -11 -3.5 -15.5t-5 -8t-9.5 -3.5q-8 0 -9.5 5.5t1.5 18.5l8 44q21 128 138 229q38 33 48 90q4 21 3.5 35t-7.5 33.5t-31.5 30t-65.5 10.5q-100 0 -151 -68q8 0 14.5 -1t16.5 -4.5t14.5 -13.5t1.5 -26
q-3 -20 -18 -33t-36 -13q-19 0 -30.5 12t-7.5 36q10 54 65.5 93.5t137.5 39.5q56 0 95 -13t56.5 -34t23 -43t1.5 -45zM309 53q-4 -22 -22 -37.5t-40 -15.5t-35 15.5t-9 37.5t22 37.5t40 15.5t35 -15.5t9 -37.5z" />
    <glyph glyph-name="at" unicode="@" horiz-adv-x="844" 
d="M828 340q-35 -212 -143 -212q-36 0 -63 19t-27 54q-68 -73 -153 -73t-136.5 63.5t-35.5 155.5t88 155.5t157 63.5q42 0 78 -21.5t57 -63.5h37q17 0 20 -3.5t0 -20.5l-40 -240q-10 -67 26 -67q45 0 70 50t39 136q26 159 -57 253t-210 94q-133 0 -245 -98t-135 -238
q-23 -136 54 -236t219 -100q140 0 300 64q6 3 23 3h9h10.5t6.5 -1t4 -3t0 -6q-1 -8 -64 -30q-148 -49 -292 -49q-154 0 -236.5 107t-58.5 251q25 148 145 253t265 105q66 0 124.5 -26t99.5 -72t59 -116t5 -151zM606 265l28 164q2 14 1 21t-9 23q-38 71 -113 71
q-57 0 -108.5 -57t-65.5 -140t18.5 -140t89.5 -57q77 0 141 76q15 19 18 39z" />
    <glyph glyph-name="A" unicode="A" horiz-adv-x="814" 
d="M765 0l-130 3q-108 0 -145 -3l5 31q82 0 87 29q1 4 -2 18l-31 153h-266l-70 -130q-7 -11 -8 -20q-3 -20 13 -35t52 -15l-5 -31l-115 3q-39 0 -102 -3l5 31q41 0 70 14.5t37.5 25.5t18.5 29l320 597q4 8 6.5 11t7 5.5t12.5 2.5q12 0 15.5 -4t6.5 -18l127 -626
q5 -22 18.5 -29.5t59.5 -7.5h18zM543 262l-67 330l-177 -330h244z" />
    <glyph glyph-name="B" unicode="B" horiz-adv-x="771" 
d="M729 183q-12 -73 -88.5 -128t-176.5 -55h-406l5 31h24q54 0 68 9t19 38l88 527q5 29 -6 38t-65 9h-24l5 31h378q99 0 157.5 -50.5t47.5 -118.5q-10 -56 -67 -99.5t-134 -57.5q88 -10 137 -60t38 -114zM658 514q8 50 -21 94t-99 44h-136q-34 0 -42.5 -7t-13.5 -33
l-41 -246h156q80 0 133.5 45t63.5 103zM629 184q10 60 -22.5 110t-104.5 50h-201l-45 -273q-5 -26 1.5 -33t40.5 -7h138q76 0 129 46.5t64 106.5z" />
    <glyph glyph-name="C" unicode="C" horiz-adv-x="786" 
d="M752 233q-16 -96 -107 -175.5t-211 -79.5q-150 0 -240 106t-65 258q25 151 151 257t275 106q109 0 182 -89l65 77q10 12 18 12q7 0 8 -4.5t0 -15.5q-1 -2 -1 -4l-40 -237q-2 -16 -5 -20t-15 -4q-9 0 -11 3t-2 14q2 111 -53.5 174t-139.5 63q-26 0 -56.5 -6t-74.5 -27
t-81 -55t-70 -97.5t-47 -147.5q-9 -70 -6 -122t23 -88.5t43 -60.5t54 -37.5t56.5 -18.5t50.5 -5q90 0 170.5 61t103.5 164q8 15 15 16q9 0 10.5 -5t-0.5 -12z" />
    <glyph glyph-name="D" unicode="D" horiz-adv-x="829" 
d="M812 336q-23 -140 -133.5 -238t-243.5 -98h-378l5 31h24q54 0 68 9t19 38l88 527q5 29 -6 38t-65 9h-24l5 31h378q133 0 210 -102t53 -245zM712 336q25 147 -19 222q-55 94 -176 94h-113q-34 0 -42.5 -7t-13.5 -33l-90 -541q-5 -26 1.5 -33t40.5 -7h113q115 0 196 78
q77 75 103 227z" />
    <glyph glyph-name="E" unicode="E" horiz-adv-x="742" 
d="M741 258l-85 -258h-601l5 31h24q54 0 68 9t19 38l87 524q5 29 -6 38t-65 9h-24l5 31h586l-9 -225h-25q3 57 -1.5 91t-23 59t-54 34.5t-94.5 9.5h-143q-34 0 -42.5 -7t-12.5 -33l-40 -240h98q71 0 96 24t36 93h25l-44 -265h-25q11 69 -6 93t-88 24h-98l-44 -267
q-5 -26 1.5 -33t40.5 -7h151q53 0 91 9.5t63.5 25.5t46 47t33.5 62t30 83h25z" />
    <glyph glyph-name="F" unicode="F" horiz-adv-x="713" 
d="M729 455h-25q6 112 -25 153t-142 41h-133q-34 0 -42.5 -7t-12.5 -33l-43 -253h94q70 0 94.5 24.5t35.5 92.5h25l-44 -265h-25q11 69 -5 93t-86 24h-94l-41 -246q-4 -17 -1.5 -28t22.5 -15.5t66 -4.5h33l-5 -31q-35 3 -167 3q-117 0 -153 -3l5 31h24q54 0 68 9t19 38
l87 524q5 29 -6 38t-65 9h-24l5 31h570z" />
    <glyph glyph-name="G" unicode="G" horiz-adv-x="851" 
d="M825 242q-49 0 -62 -6t-18 -38l-29 -174q-3 -23 -13 -23q-8 0 -27 22.5t-26 39.5q-32 -42 -91.5 -63.5t-123.5 -21.5q-152 0 -241.5 106.5t-64.5 257.5q25 150 150.5 256.5t275.5 106.5q37 0 68 -8.5t54 -25.5t33.5 -27t25.5 -28l65 77q10 12 18 12q7 0 8 -4.5t0 -15.5
q-1 -2 -1 -4l-40 -237q-2 -16 -5 -20t-15 -4q-9 0 -11 3t-2 14q2 112 -53 174.5t-139 62.5q-29 0 -61.5 -7t-76 -29t-79.5 -56.5t-67.5 -97t-44.5 -142.5q-9 -70 -6 -122t23.5 -89t44 -61t55 -37.5t57.5 -18.5t52 -5q11 0 23 0.5t41.5 7t52 18t43.5 36.5t27 59l10 64
q3 17 1 27.5t-22 15.5t-67 5h-35l6 31q35 -3 165 -3l128 3z" />
    <glyph glyph-name="H" unicode="H" horiz-adv-x="814" 
d="M758 0q-34 3 -147 3q-112 0 -148 -3l5 31h24q54 0 68 9t19 38l44 262h-319l-44 -262q-5 -29 6 -38t65 -9h24l-5 -31q-34 3 -147 3q-112 0 -148 -3l5 31h24q54 0 68 9t19 38l88 527q5 29 -6 38t-65 9h-24l5 31q34 -3 147 -3q112 0 148 3l-5 -31h-24q-54 0 -68 -9t-19 -38
l-39 -234h319l39 234q5 29 -6 38t-65 9h-24l5 31q34 -3 147 -3q112 0 148 3l-5 -31h-24q-54 0 -68 -9t-19 -38l-88 -527q-5 -29 6 -38t65 -9h24z" />
    <glyph glyph-name="I" unicode="I" horiz-adv-x="406" 
d="M355 0q-34 3 -152 3q-117 0 -153 -3l5 31h26q56 0 70.5 9t19.5 38l88 527q5 29 -6.5 38t-67.5 9h-26l5 31q34 -3 152 -3q117 0 153 3l-5 -31h-26q-56 0 -70.5 -9t-19.5 -38l-88 -527q-5 -29 6.5 -38t67.5 -9h26z" />
    <glyph glyph-name="J" unicode="J" horiz-adv-x="567" 
d="M607 652q-51 0 -65 -6t-19 -36l-74 -444q-7 -37 -8 -41q-20 -66 -82.5 -106.5t-133.5 -40.5t-112 39.5t-32 94.5q5 30 24.5 44t40.5 14q23 0 37 -15t10 -41q-9 -56 -73 -56q10 -25 39.5 -41.5t66.5 -16.5q44 0 83.5 40t50.5 109l76 455q4 17 1 28t-23 15.5t-68 4.5h-36
l5 31q37 -3 167 -3l130 3z" />
    <glyph glyph-name="K" unicode="K" horiz-adv-x="843" 
d="M785 0l-115 3q-108 0 -144 -3l5 31q57 0 62 29q2 10 -10 34l-149 271l-145 -114l-29 -173q-5 -29 6 -38t65 -9h24l-5 -31q-34 3 -147 3q-112 0 -148 -3l5 31h24q54 0 68 9t19 38l88 527q5 29 -6 38t-65 9h-24l5 31q34 -3 147 -3q112 0 148 3l-5 -31h-24q-54 0 -68 -9
t-19 -38l-53 -320l383 300q24 20 26 35q1 6 0 12.5t-10.5 13t-26.5 6.5l5 31q33 -3 126 -3q59 0 86 3l-5 -31q-83 -1 -157 -61l-218 -172l184 -337q10 -19 20 -29.5t24.5 -15t25 -5.5t32.5 -1z" />
    <glyph glyph-name="L" unicode="L" horiz-adv-x="683" 
d="M667 258l-71 -258h-541l5 31h24q54 0 68 9t19 38l88 527q5 29 -6 38t-65 9h-24l5 31q34 -3 151 -3q132 0 169 3l-5 -31h-33q-66 0 -82.5 -9.5t-20.5 -38.5l-89 -533q-5 -26 1.5 -33t40.5 -7h94q38 0 70 8t54.5 19t41.5 31.5t30 36.5t22 44t16 43.5t13 44.5h25z" />
    <glyph glyph-name="M" unicode="M" horiz-adv-x="989" 
d="M929 0q-36 3 -142 3q-107 0 -145 -3l5 31h24q54 0 68 9t19 38l96 575l-1 1l-365 -636q-10 -18 -22 -18q-10 0 -16 18l-151 629l-1 -1l-90 -541q-4 -10 -2.5 -23t7 -24t27.5 -19t58 -8l-5 -31l-116 3l-118 -3l5 31q36 0 60 7t35 20.5t14.5 22.5t6.5 24l83 500q5 29 -6 38
t-65 9h-24l5 31h169q17 0 22.5 -2.5t8.5 -15.5l137 -570l327 569q8 14 13.5 16.5t23.5 2.5h169l-5 -31h-24q-54 0 -68 -9t-19 -38l-88 -527q-5 -29 6 -38t65 -9h24z" />
    <glyph glyph-name="N" unicode="N" horiz-adv-x="814" 
d="M867 652q-36 0 -60 -7t-35 -20.5t-14.5 -23t-6.5 -25.5l-91 -548q-3 -18 -6 -23t-13 -5t-16 12l-334 617l-87 -522q-4 -11 -2.5 -24.5t7 -25t27.5 -19t58 -7.5l-5 -31l-116 3l-118 -3l5 31q36 0 60 7t35 20.5t14.5 23t6.5 25.5l86 518q3 16 2 18q-1 9 -100 9l5 31h169
q15 0 19.5 -2t10.5 -12l284 -522l71 429q4 11 2.5 24.5t-7 25t-27.5 19t-58 7.5l5 31l116 -3l118 3z" />
    <glyph glyph-name="O" unicode="O" horiz-adv-x="844" 
d="M828 339q-25 -150 -145.5 -255.5t-265.5 -105.5q-143 0 -228 105t-60 256q25 152 145.5 259t265.5 107q143 0 228 -106.5t60 -259.5zM727 354q12 90 1.5 152.5t-43.5 101t-71 55.5t-80 17q-41 0 -84.5 -17.5t-87.5 -53.5t-78.5 -102t-49.5 -153q-14 -96 -4 -162.5
t42 -108.5t70 -60.5t81 -18.5q41 0 85 19t88.5 57.5t80 109.5t50.5 164z" />
    <glyph glyph-name="P" unicode="P" horiz-adv-x="742" 
d="M752 497q-12 -75 -93.5 -128t-175.5 -53h-181l-40 -238q-5 -29 6 -38t65 -9h24l-5 -31q-34 3 -147 3q-112 0 -148 -3l5 31h24q54 0 68 9t19 38l88 527q5 29 -6 38t-65 9h-24l5 31h365q104 0 166 -55t50 -131zM649 497q2 15 3 23t1 27t-4 30.5t-14 27t-26 25t-42.5 16
t-61.5 6.5h-101q-34 0 -42.5 -7t-13.5 -33l-45 -270h150q48 0 84.5 12.5t56 28.5t32.5 41.5t16.5 39t6.5 33.5z" />
    <glyph glyph-name="Q" unicode="Q" horiz-adv-x="844" 
d="M775 -10q-4 -24 -14 -52t-28 -59.5t-48.5 -52t-66.5 -20.5q-23 0 -39.5 6.5t-26.5 22t-16.5 29t-9.5 40t-3.5 42.5t-1.5 47q-50 -15 -103 -15q-145 0 -229.5 105.5t-59.5 255.5q25 152 145.5 259t265.5 107q143 0 228 -106.5t60 -259.5q-19 -116 -96 -205.5t-174 -127.5
q15 -53 33.5 -75t52.5 -22t66 21.5t44 62.5q5 18 14 18q11 0 7 -21zM728 339q13 92 2.5 157t-42.5 106t-71 59.5t-83 18.5q-42 0 -87 -19t-89.5 -57t-79 -107t-49.5 -158q-12 -63 -7.5 -113t16 -85.5t32.5 -61.5t41.5 -41t44.5 -23q-12 20 -7 49q5 34 33.5 59t65.5 25
q41 0 63 -27.5t38 -79.5q143 87 179 298zM518 25q-6 101 -74 101q-28 0 -48.5 -19t-24.5 -43q-2 -11 0 -23.5t15 -25t37 -12.5q49 0 95 22z" />
    <glyph glyph-name="R" unicode="R" horiz-adv-x="800" 
d="M797 88q-6 -34 -36 -72t-82 -38q-80 0 -121 41q-25 27 -27.5 61t8.5 83q11 51 8.5 78.5t-24.5 53.5q-31 36 -97 36h-125l-42 -253q-5 -29 6 -38t65 -9h24l-5 -31q-35 3 -145 3t-147 -3l5 31h24q54 0 68 9t19 38l88 527q5 29 -6 38t-65 9h-24l5 31h324q113 0 184 -53.5
t59 -126.5q-9 -53 -64.5 -97.5t-146.5 -65.5q56 -17 83 -52q19 -22 23 -45.5t3 -81.5q-1 -111 9 -135q10 -26 42 -26q14 0 27 5t30.5 26.5t27.5 57.5q5 16 15 16q13 0 10 -17zM635 503q7 43 -3.5 72.5t-27.5 44.5t-51 22.5t-54.5 8.5t-57.5 1q-51 0 -60 -1
q-18 -2 -23.5 -9.5t-9.5 -29.5l-43 -259h121q184 0 209 150z" />
    <glyph glyph-name="S" unicode="S" horiz-adv-x="611" 
d="M569 185q-14 -83 -82.5 -145t-159.5 -62q-124 0 -184 72l-47 -60q-9 -12 -17 -12t-9 5.5t2 18.5l34 200q2 11 3 15t4.5 7t9.5 3q5 0 8 -2t2 -7q-13 -107 43 -158q57 -51 156 -51q65 0 111.5 43t55.5 100q9 54 -20 95q-18 24 -36 32.5t-65 20.5q-7 2 -23.5 5.5t-23.5 5.5
q-68 17 -94.5 29.5t-52.5 46.5q-38 52 -27 124q14 80 83 137t155 57q44 0 79 -14t48 -26t30 -32l46 59q11 13 18 13t8 -4.5t0 -15.5q-1 -2 -1 -4l-34 -201q-2 -15 -5 -19.5t-12 -4.5q-8 0 -9 3t-1 15q3 88 -36.5 145.5t-134.5 57.5q-62 0 -108.5 -39t-55.5 -92
q-6 -36 13 -74t74 -52l131 -33q50 -13 81 -46.5t40.5 -73.5t2.5 -82z" />
    <glyph glyph-name="T" unicode="T" horiz-adv-x="786" 
d="M808 452h-25q11 127 -15.5 160.5t-142.5 33.5q-48 0 -59 -2q-11 -1 -16.5 -6.5t-7.5 -11.5t-4 -20l-88 -527q-3 -17 -0.5 -27.5t24.5 -15.5t73 -5h40l-5 -31q-40 3 -189 3q-148 0 -190 -3l5 31h40q73 0 91 9.5t22 38.5l88 527q4 17 1.5 26.5t-17.5 11.5q-9 2 -57 2
q-42 0 -68.5 -2.5t-50 -11t-37 -20t-26.5 -35.5t-22 -52t-20 -73h-25l57 225h643z" />
    <glyph glyph-name="U" unicode="U" horiz-adv-x="814" 
d="M867 652q-36 0 -60 -7t-35 -20.5t-14.5 -23.5t-6.5 -26l-60 -360q-14 -84 -92.5 -160.5t-182.5 -76.5q-107 0 -172 73t-48 178l63 376q5 29 -6 38t-65 9h-24l5 31q34 -3 147 -3q112 0 148 3l-5 -31h-24q-54 0 -68 -9t-19 -38l-63 -379q-6 -47 -4.5 -81.5t14.5 -58.5
t27.5 -39t34.5 -23.5t35.5 -11.5t31.5 -3q81 0 151.5 60.5t87.5 161.5l57 347q4 10 2.5 23t-7 24t-27.5 19t-58 8l5 31l118 -3l119 3z" />
    <glyph glyph-name="V" unicode="V" horiz-adv-x="814" 
d="M888 652q-85 0 -122 -65l-335 -589q-7 -13 -12 -16.5t-17 -3.5q-11 0 -14 4t-6 16l-147 616q-6 26 -20.5 32t-71.5 6l5 31l126 -3q109 0 145 3l-5 -31q-81 0 -86 -29q-1 -5 2 -17l122 -513l278 490q9 14 10 20q3 18 -11 33t-52 16l5 31l113 -3q51 0 98 3z" />
    <glyph glyph-name="W" unicode="W" horiz-adv-x="1106" 
d="M1181 652q-80 -1 -114 -70l-298 -584q-11 -20 -24 -20q-5 0 -8 1.5t-4.5 5t-2 5.5t-1.5 8l-91 515l-262 -515q-11 -20 -24 -20q-3 0 -5 0.5t-4 1.5t-3 2t-1.5 3t-1 3t-1.5 4.5t-1 4.5l-108 616q-2 15 -6.5 22.5t-16.5 11.5t-23.5 4.5t-38.5 0.5l5 31l121 -3q108 0 144 3
l-5 -31q-84 0 -89 -30q-1 -4 2 -18l87 -493l218 428l5 12q1 3 -5.5 38t-9.5 42q-6 13 -20.5 17t-58.5 4l5 31l120 -3q107 0 144 3l-5 -31q-84 0 -89 -30q-1 -2 0 -8t1 -7l89 -496l238 468q6 12 8 20q4 22 -16.5 37t-59.5 16l5 31l118 -3q47 0 92 3z" />
    <glyph glyph-name="X" unicode="X" horiz-adv-x="814" 
d="M774 0l-129 3q-112 0 -148 -3l5 31q30 1 48 10.5t19 18.5q1 4 -5 15l-129 238l-189 -213q-13 -14 -14 -25q-3 -15 9 -29t42 -15l-5 -31q-39 3 -127 3l-112 -3l5 31q103 0 160 64l217 245l-151 277q-11 21 -27.5 28t-61.5 7h-19l5 31l129 -3q112 0 149 3l-5 -31
q-27 0 -46.5 -9t-21.5 -20q-1 -6 4 -15l109 -197l151 170q15 17 15 27q3 16 -9.5 29.5t-41.5 14.5l5 31q35 -3 127 -3l112 3l-5 -31q-103 0 -159 -63l-181 -205l171 -317q13 -23 31.5 -29.5t58.5 -6.5h19z" />
    <glyph glyph-name="Y" unicode="Y" horiz-adv-x="814" 
d="M896 652q-90 -2 -141 -64l-260 -315l-33 -193q-5 -31 6 -40t66 -9h23l-5 -31q-35 3 -145 3t-147 -3l5 31h24q54 0 68 9t19 38l33 195l-169 345q-10 20 -27.5 27t-58.5 7h-19l5 31l130 -3q113 0 149 3l-5 -31q-68 0 -72 -24q-1 -7 5 -20l144 -294l224 271q13 18 15 29
q4 19 -9.5 28.5t-37.5 9.5l5 31l114 -3q52 0 99 3z" />
    <glyph glyph-name="Z" unicode="Z" horiz-adv-x="669" 
d="M647 267l-62 -267h-487q-17 0 -21 2.5t-2 14.5q1 9 10 20l516 615h-171q-106 0 -162.5 -44t-79.5 -150h-25l49 225h472q9 0 12.5 -0.5t7.5 -1.5t3 -4.5t0 -9.5q-2 -10 -10 -19l-515 -614h182q69 0 115 15.5t73.5 50t41.5 70.5t28 97h25z" />
    <glyph glyph-name="bracketleft" unicode="[" horiz-adv-x="319" 
d="M239 -250h-142l167 1000h142l-7 -40h-102l-153 -920h102z" />
    <glyph glyph-name="backslash" unicode="\" horiz-adv-x="500" 
d="M405 -230q-4 -20 -24 -20q-14 0 -18 22l-183 940l-2 18q4 20 23 20q14 0 18 -22l184 -940z" />
    <glyph glyph-name="bracketright" unicode="]" horiz-adv-x="319" 
d="M137 -250h-142l7 40h102l153 920h-102l7 40h142z" />
    <glyph glyph-name="asciicircum" unicode="^" horiz-adv-x="556" 
d="M658 584l-15 -22l-252 123l-291 -123l-8 22l310 160z" />
    <glyph glyph-name="underscore" unicode="_" horiz-adv-x="814" 
d="M791 -138h-814l4 26h814z" />
    <glyph glyph-name="grave" unicode="`" 
d="M429 525l-21 -19l-138 123q-16 16 -13 30q2 13 15 24.5t27 11.5q16 0 32 -25z" />
    <glyph glyph-name="a" unicode="a" horiz-adv-x="613" 
d="M579 0q-72 3 -96 3l-107 -3l4 25q53 0 58 28q2 10 -11 60l-13 56h-207q-49 -88 -50 -99q0 -6 -0.5 -15.5t9 -19t28.5 -10.5l-4 -25l-82 3q-41 0 -74 -3l4 25q23 1 40.5 7.5t30.5 21t18 22t15 23.5l229 413q5 8 7 11t6.5 5.5t11.5 2.5q14 0 18 -22l98 -444q5 -26 17 -33
t54 -7zM408 194l-52 241l-135 -241h187z" />
    <glyph glyph-name="b" unicode="b" horiz-adv-x="580" 
d="M552 138q-9 -55 -66.5 -96.5t-137.5 -41.5h-302l4 25q49 0 62 8t18 39l62 370q5 31 -5 39t-59 8l4 25h281q78 0 122 -38.5t36 -88.5q-7 -42 -49 -74t-99 -44q64 -8 100.5 -45t28.5 -86zM491 387q4 9 0.5 26t-9.5 34t-27 29.5t-53 12.5h-96q-27 0 -35 -7t-13 -36l-28 -168
h112q69 0 106 35.5t43 73.5zM469 138q4 24 -1 49.5t-28.5 47t-62.5 21.5h-150l-32 -188q-4 -30 1 -36.5t32 -6.5h98q62 0 99.5 36t43.5 77z" />
    <glyph glyph-name="c" unicode="c" horiz-adv-x="591" 
d="M570 177q-12 -71 -80.5 -131t-160.5 -60q-114 0 -184 79t-51 192t115 192t210 79q83 0 135 -63l47 51q12 12 17 12q7 0 8 -6t-2 -18l-28 -169q-2 -15 -5 -19.5t-12 -4.5t-11 13q1 89 -42.5 134t-104.5 45q-18 0 -39 -4t-54 -19t-60.5 -40t-52.5 -72.5t-35 -110.5
q-7 -55 -4.5 -94.5t18.5 -66.5t33 -44t41 -26t40.5 -12t31.5 -3q67 0 127 45t78 121q3 16 14 16q13 0 11 -16z" />
    <glyph glyph-name="d" unicode="d" horiz-adv-x="624" 
d="M615 253q-17 -104 -101 -178.5t-188 -74.5h-281l4 25q49 0 62 8t18 39l62 370q5 31 -5 39t-59 8l4 25h281q106 0 163.5 -77.5t39.5 -183.5zM532 253q19 115 -15 171q-40 65 -132 65h-77q-27 0 -35 -7t-13 -36l-63 -378q-4 -30 1 -36.5t32 -6.5h77q101 0 163 72
q46 54 62 156z" />
    <glyph glyph-name="e" unicode="e" horiz-adv-x="558" 
d="M561 194l-61 -194h-457l4 25q49 0 62 8t18 39l61 367q5 31 -5 39t-59 8l4 25h445l-9 -169h-25q5 84 -19.5 114t-109.5 30h-102q-27 0 -34.5 -6.5t-12.5 -36.5l-28 -165h70q54 0 73 17.5t28 69.5h25l-33 -199h-25q9 52 -4.5 69.5t-67.5 17.5h-70l-31 -185q-4 -30 1 -36.5
t32 -6.5h108q63 0 100.5 18.5t57 51.5t39.5 99h25z" />
    <glyph glyph-name="f" unicode="f" horiz-adv-x="536" 
d="M553 342h-25q7 85 -18 114.5t-107 29.5h-95q-27 0 -34.5 -6.5t-12.5 -36.5l-29 -175h67q54 0 72 17.5t27 69.5h25l-33 -199h-25q9 52 -3.5 69.5t-66.5 17.5h-67l-28 -168q-6 -36 7.5 -43t73.5 -7l-4 -25l-122 3l-112 -3l4 25q49 0 62 8t18 39l61 367q5 31 -5 39t-59 8
l4 25h434z" />
    <glyph glyph-name="g" unicode="g" horiz-adv-x="641" 
d="M625 182q-38 0 -48 -7.5t-15 -37.5l-19 -113q-3 -23 -13 -23q-8 0 -22.5 16.5t-19.5 28.5q-53 -60 -158 -60q-117 0 -186 79.5t-50 191.5q19 113 115 192t209 79q87 0 135 -63l47 51q12 12 17 12q11 0 6 -24l-28 -169q-2 -15 -5 -19.5t-12 -4.5t-11 13q1 89 -42 134
t-104 45q-19 0 -41 -4t-54.5 -19.5t-59.5 -40.5t-51.5 -72.5t-34.5 -109.5q-7 -53 -5 -92t17.5 -66.5t33 -44.5t41 -26.5t41.5 -13t36 -3.5q51 0 88 20q20 11 32 24t14.5 21.5t5.5 24.5l5 30q6 32 -6 41.5t-66 9.5h-20l5 25q34 -3 128 -3q49 0 100 3z" />
    <glyph glyph-name="h" unicode="h" horiz-adv-x="613" 
d="M570 0l-107 3l-109 -3l4 25q49 0 62 8t18 39l31 183h-239l-31 -183q-5 -31 5 -39t59 -8l-4 -25l-107 3l-109 -3l4 25q49 0 62 8t18 39l62 370q5 31 -5 39t-59 8l4 25l107 -3l109 3l-4 -25q-49 0 -62 -8t-18 -39l-27 -162h239l27 162q5 31 -5 39t-59 8l4 25l107 -3l109 3
l-4 -25q-49 0 -62 -8t-18 -39l-62 -370q-5 -31 5 -39t59 -8z" />
    <glyph glyph-name="i" unicode="i" horiz-adv-x="302" 
d="M263 0l-111 3l-113 -3l4 25q53 0 66 7.5t18 40.5l62 368q5 33 -5 40.5t-63 7.5l4 25l111 -3l113 3l-4 -25q-53 0 -66 -7.5t-18 -40.5l-62 -368q-5 -33 5 -40.5t63 -7.5z" />
    <glyph glyph-name="j" unicode="j" horiz-adv-x="424" 
d="M453 489q-40 0 -48.5 -9t-16.5 -56l-47 -280q-8 -47 -10 -52q-17 -48 -63 -77t-99 -29t-84.5 29t-24.5 69q4 21 17.5 32t31.5 11q17 0 27 -12t7 -29q-2 -15 -13.5 -28t-36.5 -14q24 -36 77 -36q29 0 58.5 26.5t38.5 81.5l54 323q6 31 -5 40.5t-62 9.5h-18l4 25
q39 -3 121 -3q59 0 96 3z" />
    <glyph glyph-name="k" unicode="k" horiz-adv-x="636" 
d="M595 0q-41 3 -84 3l-105 -3l4 25q33 0 36 21q3 18 -15 46l-103 179l-110 -85l-19 -114q-5 -31 5 -39t59 -8l-4 -25l-107 3l-109 -3l4 25q49 0 62 8t18 39l62 370q5 31 -5 39t-59 8l4 25l107 -3l109 3l-4 -25q-49 0 -62 -8t-18 -39l-37 -222l258 197q37 29 41 53
q3 16 -13 19l4 25q42 -3 92 -3q28 0 64 3l-4 -25q-27 -2 -46 -9t-75.5 -45.5t-161.5 -121.5l134 -234q20 -35 37 -44.5t45 -9.5z" />
    <glyph glyph-name="l" unicode="l" horiz-adv-x="513" 
d="M505 194l-51 -194h-411l4 25q49 0 62 8t18 39l62 370q5 31 -5 39t-59 8l4 25l110 -3l124 3l-4 -25q-60 0 -76.5 -7t-22.5 -43l-62 -371q-4 -30 1 -36.5t32 -6.5h63q40 0 71 11t49 25t32 40t20 43.5t14 49.5h25z" />
    <glyph glyph-name="m" unicode="m" horiz-adv-x="747" 
d="M700 0q-99 3 -103 3l-105 -3l4 25q49 0 62 8t18 39l69 412l-1 1l-268 -467q-10 -18 -22 -18q-10 0 -16 18l-110 460l-1 -1l-63 -376q-13 -76 59 -76l-4 -25q-37 3 -85 3l-87 -3l4 25q25 0 42.5 8t26 22.5t11.5 23.5t5 22l57 341q5 31 -5 39t-59 8l4 25h121
q17 0 22.5 -2.5t8.5 -15.5l102 -421l241 420q8 14 13.5 16.5t23.5 2.5h121l-4 -25q-49 0 -62 -8t-18 -39l-62 -370q-5 -31 5 -39t59 -8z" />
    <glyph glyph-name="n" unicode="n" horiz-adv-x="613" 
d="M652 489q-25 0 -42.5 -8t-26 -22.5t-11.5 -23.5t-5 -22l-65 -387q-2 -11 -3 -15.5t-4.5 -7.5t-10.5 -3q-9 0 -15 11l-241 436l-8 12l-60 -358q-13 -76 59 -76l-4 -25q-37 3 -85 3l-87 -3l4 25q25 0 42.5 8t26 22.5t11.5 23.5t5 22l63 381q-18 7 -70 7l4 25h120
q11 0 14.5 -0.5t6.5 -3t7 -9.5l212 -385l50 297q13 76 -59 76l4 25q36 -3 85 -3l87 3z" />
    <glyph glyph-name="o" unicode="o" horiz-adv-x="636" 
d="M628 255q-19 -113 -110.5 -191t-201.5 -78t-175.5 78.5t-46.5 190.5q18 112 109.5 192.5t202.5 80.5t175.5 -80.5t46.5 -192.5zM543 266q9 70 1 116t-34 73t-52.5 37.5t-55.5 10.5q-28 0 -59 -11.5t-64 -36t-60 -74t-38 -115.5q-9 -74 -1.5 -123t32.5 -78t52 -41t56 -12
t60.5 12.5t65 40t60 79.5t37.5 122z" />
    <glyph glyph-name="p" unicode="p" horiz-adv-x="558" 
d="M569 373q-9 -57 -70.5 -98t-136.5 -41h-134l-27 -162q-5 -31 5 -39t59 -8l-4 -25l-107 3l-109 -3l4 25q49 0 62 8t18 39l62 370q5 31 -5 39t-59 8l4 25h271q83 0 129.5 -42.5t37.5 -98.5zM483 373q3 17 4 28t-2.5 29.5t-13.5 29.5t-34 20t-60 9h-69q-27 0 -35 -7t-13 -36
l-31 -189h109q44 0 74 11.5t44 33t19 36t8 35.5z" />
    <glyph glyph-name="q" unicode="q" horiz-adv-x="636" 
d="M588 -8q-8 -46 -40 -91t-81 -45q-20 0 -34.5 8t-22 18.5t-12 32.5t-5.5 36.5t-3 44.5q-30 -10 -74 -10q-110 0 -175.5 78.5t-46.5 190.5q18 112 109.5 192.5t202.5 80.5t175.5 -80.5t46.5 -192.5q-15 -89 -74.5 -155t-128.5 -92q7 -23 15.5 -38t18 -20t15.5 -6.5t14 -1.5
q23 0 46 13t32 39q5 17 14 17q10 0 8 -19zM545 255q21 126 -26 187t-117 61q-31 0 -63.5 -13t-65.5 -40.5t-59 -78t-37 -116.5q-7 -59 -4 -98.5t19.5 -68t33 -43t36.5 -22.5q-1 1 -1.5 3.5t-1.5 10t1 14.5q4 25 26.5 44t51.5 19q18 0 31.5 -6.5t23 -21.5t13 -22.5
t10.5 -24.5q103 63 129 216zM388 25q-4 67 -54 67q-20 0 -35 -12t-17 -29q1 -4 0 -12.5t9 -18t29 -9.5q40 0 68 14z" />
    <glyph glyph-name="r" unicode="r" horiz-adv-x="602" 
d="M604 68q-4 -25 -27 -53.5t-65 -28.5q-70 0 -98 33q-19 22 -21 43t7 62q6 32 6 53.5t-12 36.5q-27 32 -77 32h-90l-29 -174q-5 -31 5 -39t59 -8l-4 -25l-106 3l-107 -3l4 25q49 0 62 8t18 39l62 370q5 31 -5 39t-59 8l4 25h240q89 0 142.5 -40.5t44.5 -94.5
q-7 -44 -50.5 -77t-101.5 -47q25 -10 40.5 -24t22 -32.5t8 -28.5t2.5 -30q4 -93 9 -108q11 -24 31 -24q8 0 16 2t22.5 17.5t22.5 42.5q0 13 14 13q13 0 10 -15zM472 379q6 38 -3 62t-34 33.5t-46 12t-57 2.5q-45 0 -53 -3q-12 -6 -19 -40l-29 -178h88q46 0 77.5 11t46 30.5
t20.5 34.5t9 35z" />
    <glyph glyph-name="s" unicode="s" horiz-adv-x="458" 
d="M431 142q-10 -62 -62.5 -109t-122.5 -47q-91 0 -138 49q-15 -18 -23 -26q-20 -23 -26 -23q-11 0 -6 24l22 135q2 11 3 15t4.5 7t9.5 3q11 0 11 -9q-11 -74 30 -111q42 -39 117 -39q49 0 84 32t41 72q9 47 -19 75q-14 15 -26.5 20.5t-54.5 15.5q-72 17 -93.5 25.5
t-39.5 29.5q-37 45 -27 101q10 60 62 103t119 43q75 0 117 -49q19 22 23 26q20 23 26 23q7 0 8 -6t-2 -18l-23 -136q-2 -15 -5 -19.5t-12 -4.5q-10 0 -10 13q1 20 -1.5 38t-12.5 47t-38.5 46.5t-72.5 17.5q-48 0 -82 -29t-40 -66q-10 -63 51 -89q2 -1 59 -15q66 -16 86 -25
t42 -36q4 -5 9 -13.5t11 -35.5t2 -55z" />
    <glyph glyph-name="t" unicode="t" horiz-adv-x="591" 
d="M612 339h-25q9 94 -12 119t-103 25q-43 0 -52 -5.5t-15 -37.5l-60 -364q-6 -32 5.5 -41.5t66.5 -9.5h21l-4 -25q-38 3 -137 3t-139 -3l4 25h21q55 0 69.5 9.5t20.5 41.5l60 364q6 32 -1 37.5t-50 5.5q-84 0 -113 -25t-51 -119h-25l42 169h491z" />
    <glyph glyph-name="u" unicode="u" horiz-adv-x="613" 
d="M652 489q-71 0 -83 -62l-44 -266q-11 -62 -70.5 -118.5t-139.5 -56.5t-128.5 49t-44.5 113q0 12 10 75l36 217q6 33 -3.5 41t-59.5 8l4 25l107 -3l109 3l-4 -25q-49 0 -62 -8t-18 -39l-45 -269q-4 -38 -3 -64.5t12.5 -44.5t22.5 -28.5t27 -16t26 -7t20 -1.5
q58 0 113 43.5t69 123.5l39 235q13 76 -59 76l4 25q40 -3 84 -3q46 0 85 3z" />
    <glyph glyph-name="v" unicode="v" horiz-adv-x="613" 
d="M671 489q-61 -4 -98 -66l-243 -414l-8 -12t-6.5 -5.5t-11.5 -2.5q-5 0 -8 1t-4.5 4.5t-2 5.5t-2.5 9l-113 440q-7 26 -17.5 33t-50.5 7l4 25q39 -3 93 -3l106 3l-4 -25q-51 0 -56 -27q-1 -5 4 -24l90 -360l198 338q12 19 13 30q8 39 -34 43l4 25q39 -3 81 -3q37 0 70 3z
" />
    <glyph glyph-name="w" unicode="w" horiz-adv-x="836" 
d="M895 489q-56 -3 -92 -72l-213 -408q-11 -20 -24 -20q-14 0 -17 22l-68 364l-192 -367q-9 -19 -23 -19t-17 19l-84 447q-4 22 -15.5 28t-44.5 6l4 25q39 -3 89 -3l106 3l-4 -25q-55 0 -60 -29q-1 -7 2 -19l65 -348l160 307l6 13q-6 46 -13 57q-5 12 -15.5 15.5t-39.5 3.5
l4 25q39 -3 89 -3l106 3l-4 -25q-54 0 -59 -29q-2 -10 1 -21l66 -346l167 322q8 12 9 25q3 17 -6 32.5t-38 16.5l4 25l86 -3q36 0 69 3z" />
    <glyph glyph-name="x" unicode="x" horiz-adv-x="613" 
d="M584 0q-46 3 -94 3l-109 -3l4 25q34 2 38 27q1 9 -4 18l-92 163l-114 -123q-29 -34 -32 -50q-5 -32 25 -35l-4 -25q-42 3 -91 3q-45 0 -82 -3l4 25q45 1 76.5 20t64.5 54l140 155l-106 190q-16 30 -29.5 37.5t-56.5 7.5l4 25q44 -3 95 -3l108 3l-4 -25q-33 -2 -38 -28
q-2 -9 5 -21l74 -129l97 106q18 18 21 37q5 31 -24 35l4 25l91 -3q43 0 82 3l-4 -25q-71 -2 -130 -62l-125 -137q137 -244 142 -249q16 -16 68 -16z" />
    <glyph glyph-name="y" unicode="y" horiz-adv-x="613" 
d="M676 489q-64 -3 -120 -70l-181 -214l-21 -130q-6 -34 3.5 -42t59.5 -8l-4 -25l-106 3l-107 -3l4 25q49 0 62 8t18 39l22 134l-129 251q-10 20 -24 26t-52 6l4 25q44 -3 96 -3l109 3l-4 -25q-41 0 -45 -20q-1 -11 8 -27l104 -203l153 182q19 23 22 38q3 27 -24 30l4 25
q39 -3 81 -3q38 0 71 3z" />
    <glyph glyph-name="z" unicode="z" horiz-adv-x="502" 
d="M489 201l-46 -201h-366q-17 0 -21 2t-2 13q0 7 10 18l385 456h-123q-78 0 -120.5 -32t-59.5 -112h-25l36 169h354q16 0 20.5 -2t2.5 -12q0 -6 -9 -17l-384 -455h130q51 0 85.5 11t55 36.5t31.5 52.5t21 73h25z" />
    <glyph glyph-name="braceleft" unicode="{" horiz-adv-x="500" 
d="M387 -239q-2 -11 -22 -11q-84 0 -132 38q-32 25 -36.5 56.5t5.5 72.5l33 198q6 35 -3 60.5t-29 38t-38 18.5t-37 7q-5 1 -6.5 1t-5 1t-2.5 3t0 6q1 11 16 11q64 4 111 45q22 20 29 41t20 97l31 183q10 53 72 88t139 35q8 0 11 -0.5t5.5 -3t1.5 -7.5q-2 -9 -11 -11
q-32 -2 -57.5 -10.5t-35.5 -15.5t-25 -20q-20 -18 -27 -39t-17 -80l-30 -180q-3 -17 -7.5 -29t-17.5 -34t-42.5 -40t-72.5 -30q97 -29 99 -103q0 -7 -14 -91l-25 -150q-6 -36 -5 -48q3 -32 30 -57.5t81 -28.5q5 -1 6.5 -1t5 -1t2.5 -3t0 -6z" />
    <glyph glyph-name="bar" unicode="|" horiz-adv-x="278" 
d="M123 -217q-2 -11 -3.5 -15.5t-7.5 -11t-15 -6.5q-21 0 -14 33l156 934q5 33 25 33t15 -33z" />
    <glyph glyph-name="braceright" unicode="}" horiz-adv-x="500" 
d="M469 250q-2 -11 -16 -11q-62 -4 -112 -45q-22 -20 -29 -42t-20 -96l-30 -183q-10 -53 -72.5 -88t-139.5 -35q-7 0 -10 0.5t-6 3t-2 7.5q2 9 11 11q33 2 58.5 10.5t35.5 15.5t25 20q20 17 26.5 37.5t16.5 81.5l31 180q2 12 4 21.5t11 27t23 31t40.5 28.5t61.5 25
q-97 29 -99 103q0 13 13 91l25 150q6 36 5 48q-3 32 -30 57.5t-81 28.5q-6 1 -8 1.5t-4 2.5t-2 7q2 11 22 11q83 0 133 -38q31 -25 36 -56.5t-6 -72.5l-33 -198q-6 -35 3.5 -60.5t29 -38t37.5 -18.5t38 -7q6 -1 8 -1.5t4 -2.5t2 -7z" />
    <glyph glyph-name="asciitilde" unicode="~" horiz-adv-x="556" 
d="M603 290l-61 -44q-23 -17 -63 -35q-41 -18 -76 -18q-42 0 -94 34q-59 37 -98 37q-68 0 -165 -71l-11 17l61 44q22 16 63 35q43 18 76 18q41 0 95 -34q57 -37 97 -37q68 0 165 71z" />
    <glyph glyph-name="uni00A0" unicode="&#xa0;" 
 />
    <glyph glyph-name="exclamdown" unicode="&#xa1;" horiz-adv-x="319" 
d="M287 447q-4 -22 -22 -37.5t-40 -15.5t-35 15.5t-9 37.5q3 22 21 37.5t40 15.5t35 -15.5t10 -37.5zM184 -165q-4 -23 -22 -37t-39 -14t-35 14t-10 37l116 456q4 22 17 22t10 -23l-36 -444z" />
    <glyph glyph-name="cent" unicode="&#xa2;" horiz-adv-x="591" 
d="M570 177q-12 -69 -78 -128t-154 -63l-3 -16q-1 -6 -6.5 -10.5t-11.5 -4.5q-14 0 -12 15l3 17q-107 8 -169.5 85t-44.5 185t106.5 185t197.5 85l3 17q2 15 17 15q6 0 10 -4.5t3 -10.5l-3 -16q78 -3 126 -63l47 51q12 12 17 12q7 0 8 -6t-2 -18l-28 -169q-2 -15 -5 -19.5
t-12 -4.5t-11 13q1 87 -41.5 132.5t-102.5 46.5l-82 -492q66 1 125.5 46t77.5 120q3 16 14 16q13 0 11 -16zM312 13l82 488q-22 -4 -43.5 -11t-49.5 -25t-50.5 -43t-42 -68t-28.5 -97q-11 -55 -4 -96t19.5 -67.5t35 -44t41.5 -25.5t40 -11z" />
    <glyph glyph-name="sterling" unicode="&#xa3;" horiz-adv-x="814" 
d="M774 171q-15 -86 -52.5 -146t-97.5 -60q-23 0 -45 7t-36.5 13t-37 25t-29.5 25.5t-32.5 33.5t-28.5 30q-21 -59 -90 -90t-153 -31q-45 0 -70.5 34t-17.5 81q9 52 60.5 83t114.5 31q53 0 101 -35q5 52 7 155h-183l5 30h178q0 92 11 157q12 73 78.5 121t146.5 48
q72 0 118.5 -28.5t38.5 -81.5q-4 -20 -19.5 -33t-34.5 -13t-30.5 13.5t-7.5 32.5q3 19 18.5 32.5t34.5 13.5h2q-30 38 -124 38q-54 0 -98 -42.5t-53 -100.5q-12 -71 -12 -157h160l-5 -30h-156q-4 -144 -15 -206v-3l14.5 -14.5t15.5 -15t14.5 -13.5t16.5 -14t15.5 -11.5
t17.5 -11.5t17 -8t20 -7.5t20 -3.5t22 -2q56 0 100 45.5t55 108.5h26zM355 136l2 12q-49 33 -103 33q-53 0 -95.5 -23.5t-48.5 -64.5q-6 -36 13.5 -62.5t53.5 -26.5q63 0 115.5 37.5t62.5 94.5z" />
    <glyph glyph-name="currency" unicode="&#xa4;" horiz-adv-x="844" 
d="M670 3q-17 -14 -36 9l-64 77q-66 -48 -141 -48t-125 48l-90 -77q-27 -23 -39 -9t16 37l90 78q-39 59 -26 132q12 75 70 133l-64 77q-21 23 -4 38q17 14 37 -9l64 -78q66 48 141 48t125 -48l88 77q27 23 40 9q11 -13 -16 -37l-89 -77q38 -57 26 -133q-14 -77 -70 -133
l64 -77q19 -23 3 -37zM633 250q11 70 -30 119.5t-111 49.5t-128 -49.5t-69 -119.5q-12 -70 29.5 -119.5t111.5 -49.5t127.5 49.5t69.5 119.5z" />
    <glyph glyph-name="yen" unicode="&#xa5;" horiz-adv-x="814" 
d="M896 652q-90 -2 -141 -64l-203 -245h156l-5 -30h-176l-32 -40l-15 -86h202l-5 -30h-202l-13 -77q-5 -31 6 -40t66 -9h23l-5 -31q-35 3 -145 3t-147 -3l5 31h24q54 0 68 9t19 38l13 79h-200l5 30h200l15 86l-20 40h-174l5 30h154l-134 275q-10 20 -27.5 27t-58.5 7h-19
l5 31l130 -3q113 0 149 3l-5 -31q-68 0 -72 -24q-1 -7 5 -20l130 -265h38l200 242q13 18 15 29q4 19 -9.5 28.5t-37.5 9.5l5 31l114 -3q52 0 99 3z" />
    <glyph glyph-name="brokenbar" unicode="&#xa6;" horiz-adv-x="278" 
d="M216 343q-2 -15 -22 -15q-8 0 -13.5 4t-4.5 11l63 374q5 33 25 33t15 -33zM123 -217q-2 -11 -3.5 -15.5t-7.5 -11t-15 -6.5q-21 0 -14 33l62 374q3 15 23 15q8 0 13 -4.5t4 -10.5z" />
    <glyph glyph-name="section" unicode="&#xa7;" horiz-adv-x="538" 
d="M530 194q-13 -77 -111 -118q33 -53 23 -114q-13 -74 -74 -125.5t-135 -51.5q-69 0 -106 55t-25 131q3 19 19 32.5t35 13.5t30 -13.5t8 -32.5t-19 -32.5t-35 -13.5q-4 0 -12 2q6 -43 37 -69.5t76 -26.5q50 0 91 38.5t50 92.5q12 74 -84 122l-92 45q-59 29 -92 74t-23 103
q6 39 37 69t75 48q-33 52 -23 115q12 73 73 125t135 52q69 0 106.5 -55t24.5 -131q-3 -19 -18.5 -32.5t-34.5 -13.5t-30.5 13.5t-8.5 32.5t19 32.5t35 13.5q5 0 13 -2q-7 43 -37.5 69.5t-75.5 26.5q-50 0 -91 -38.5t-50 -92.5q-13 -73 83 -122l93 -45q58 -29 91 -74.5
t23 -102.5zM452 194q12 69 -76 113l-92 45q-37 18 -65 49q-39 -28 -50 -95q-12 -69 76 -113l93 -45q39 -20 64 -50q39 27 50 96z" />
    <glyph glyph-name="dieresis" unicode="&#xa8;" 
d="M336 601q-3 -19 -19.5 -33.5t-36.5 -14.5q-19 0 -31 14t-9 34q4 20 20.5 34t35.5 14q20 0 32 -14.5t8 -33.5zM512 601q-3 -19 -19.5 -33.5t-36.5 -14.5q-19 0 -31 14t-9 34q4 20 20.5 34t35.5 14q20 0 32 -14.5t8 -33.5z" />
    <glyph glyph-name="copyright" unicode="&#xa9;" horiz-adv-x="683" 
d="M740 342q-23 -142 -140 -242t-258 -100q-142 0 -225 100t-60 242q23 141 140 241t259 100q141 0 224 -100t60 -241zM700 342q21 124 -52.5 212.5t-198.5 88.5t-228 -88t-124 -213t53 -213.5t199 -88.5t227.5 88.5t123.5 213.5zM538 284q-8 -51 -56 -93t-111 -42
q-79 0 -127 56.5t-35 136.5t79.5 136t145.5 56q58 0 97 -47l34 41q5 6 10 6q4 0 3 -13l-21 -125q-5 -12 -10 -13q-8 0 -8 9q1 59 -28 92.5t-73 33.5q-14 0 -30 -3t-39.5 -14.5t-43.5 -29.5t-37.5 -51.5t-24.5 -78.5q-9 -52 0.5 -89t32 -54.5t43.5 -24.5t42 -7q48 0 90.5 32
t54.5 87q2 8 8 8t4 -9z" />
    <glyph glyph-name="ordfeminine" unicode="&#xaa;" horiz-adv-x="515" 
d="M542 334l-81 2l-89 -2l3 17q44 0 47 20q1 4 -10 42l-13 39h-174q-37 -61 -39 -69q-1 -6 -0.5 -11.5t9 -12.5t24.5 -8l-3 -17l-70 2q-25 0 -61 -2l3 17q52 2 84 52l183 289q9 13 21 13q11 0 15 -15l93 -311q5 -18 15.5 -23t45.5 -5zM520 293q-2 -10 -17 -10h-397
q-7 0 -10.5 2.5t-2.5 7.5q2 11 17 11h397q7 0 10.5 -3t2.5 -8zM394 469l-50 169l-107 -169h157z" />
    <glyph glyph-name="guillemotleft" unicode="&#xab;" horiz-adv-x="611" 
d="M385 473q0 -2 -1 -4q-52 -123 -141 -229q54 -106 65 -229q0 -11 -10 -11h-2q-8 0 -10 8q-26 130 -112 227q-3 3 -3 7q0 5 4 7q120 98 189 229q3 5 9 5h2q10 0 10 -10zM560 473q0 -2 -1 -4q-52 -123 -141 -229q54 -106 65 -229q0 -11 -10 -11h-2q-8 0 -10 8
q-26 130 -112 227q-3 3 -3 7q0 5 4 7q120 98 189 229q3 5 9 5h2q10 0 10 -10z" />
    <glyph glyph-name="logicalnot" unicode="&#xac;" horiz-adv-x="844" 
d="M797 153q-4 -20 -24 -20q-8 0 -13 6t-3 14l29 174h-639q-8 0 -13 6t-4 14q4 20 23 20h659q8 0 13 -6t4 -14z" />
    <glyph glyph-name="uni00AD" unicode="&#xad;" horiz-adv-x="378" 
d="M336 187h-279l10 58h279z" />
    <glyph glyph-name="registered" unicode="&#xae;" horiz-adv-x="683" 
d="M740 342q-23 -142 -140 -242t-258 -100q-142 0 -225 100t-60 242q23 141 140 241t259 100q141 0 224 -100t60 -241zM700 342q21 124 -52.5 212.5t-198.5 88.5t-228 -88t-124 -213t53 -213.5t199 -88.5t227.5 88.5t123.5 213.5zM585 213q-2 -10 -8 -22t-20.5 -24
t-34.5 -12q-42 0 -64 22q-13 14 -14.5 32t4.5 44q6 27 5 41.5t-13 28.5q-19 19 -52 19h-66l-22 -134q-2 -9 -0.5 -14.5t10 -8t28.5 -2.5h12l-3 -16q-19 1 -77 1t-77 -1l3 16h12q29 0 36.5 4.5t9.5 20.5l46 279q2 9 0.5 14.5t-10 8t-28.5 2.5h-12l3 16h171q60 0 98 -28.5
t31 -66.5q-5 -28 -34.5 -51.5t-77.5 -34.5q30 -9 44 -28q10 -12 12 -24t2 -43v-6q0 -27 0.5 -37.5t3 -22.5t8 -15.5t15.5 -3.5q33 0 45 47q3 8 8 8q6 0 6 -9zM498 433q4 23 -2 38.5t-15 23.5t-27 12t-29 4.5t-30 0.5q-27 0 -31 -1q-9 -1 -12 -5t-5 -15l-23 -137h64
q98 0 110 79z" />
    <glyph glyph-name="macron" unicode="&#xaf;" 
d="M563 585h-378l5 31h378z" />
    <glyph glyph-name="degree" unicode="&#xb0;" horiz-adv-x="415" 
d="M443 538q-11 -61 -60.5 -103.5t-110.5 -42.5q-60 0 -95.5 42.5t-25.5 103.5q10 60 60 102.5t110 42.5q61 0 96.5 -42.5t25.5 -102.5zM403 538q7 44 -19 74.5t-70 30.5t-80 -31t-43 -74q-7 -44 18.5 -75t69.5 -31t80.5 31t43.5 75z" />
    <glyph glyph-name="plusminus" unicode="&#xb1;" horiz-adv-x="844" 
d="M774 20q-3 -20 -36 -20h-633q-10 0 -15.5 0.5t-10.5 5.5t-4 14q4 20 37 20h297l48 287h-297q-10 0 -15.5 0.5t-10.5 5.5t-4 14q3 20 36 20h297l49 294q2 11 3.5 15.5t7.5 11t15 6.5q21 0 14 -33l-49 -294h296q10 0 15.5 -0.5t10.5 -5.5t4 -14q-3 -20 -36 -20h-296
l-48 -287h296q10 0 15.5 -0.5t10.5 -5.5t3 -14z" />
    <glyph glyph-name="two.superior" unicode="&#xb2;" horiz-adv-x="397" 
d="M418 410l-37 -104h-282q2 14 11 21l178 137q85 66 94 125q7 41 -16 69.5t-71 28.5q-36 0 -67.5 -17t-47.5 -44h9q18 0 26.5 -9t6.5 -22q-3 -17 -16.5 -24.5t-25.5 -7.5q-5 0 -11 1t-15 9.5t-6 23.5q7 42 52.5 75t106.5 33q69 0 109.5 -32t31.5 -84q-4 -26 -22 -49.5
t-35.5 -37t-50.5 -35.5q-9 -6 -34.5 -22t-30.5 -19l-110 -74h139q64 0 69 4q13 8 27 54h18z" />
    <glyph glyph-name="three.superior" unicode="&#xb3;" horiz-adv-x="397" 
d="M424 408q-8 -46 -59.5 -80.5t-120.5 -34.5q-63 0 -103.5 26.5t-33.5 67.5q3 18 16.5 26.5t28.5 8.5q17 0 27 -9t8 -25q-3 -16 -18 -25.5t-34 -7.5q14 -26 48 -36t62 -10q35 0 65.5 23t39.5 76q8 47 -12 73.5t-64 26.5h-36q-10 0 -13.5 1t-2.5 6q1 6 18 7q39 2 55.5 5.5
t33.5 18.5q36 31 44 77q5 35 -14 51t-50 16q-75 0 -108 -37q44 0 39 -30q-2 -13 -13.5 -21.5t-28.5 -8.5q-16 0 -24.5 8t-6.5 23q6 36 48.5 58.5t99.5 22.5q56 0 93 -23.5t31 -58.5q-5 -31 -35.5 -60.5t-87.5 -45.5q56 -9 85 -40t23 -69z" />
    <glyph glyph-name="acute" unicode="&#xb4;" 
d="M516 659q-3 -16 -23 -30l-180 -123l-13 19l146 145q25 25 40 25q14 0 23 -11.5t7 -24.5z" />
    <glyph glyph-name="uni00B5" unicode="&#xb5;" horiz-adv-x="556" 
d="M534 0l-147 -11l15 86h-1q-55 -86 -142 -86q-49 0 -79 13l-19 -118q-6 -34 5 -40.5t65 -6.5l-5 -31l-113 3l-113 -3l5 31q54 0 67 6.5t19 40.5l76 457q6 39 -4.5 48.5t-63.5 9.5l5 31l150 11l-55 -330q-3 -27 -4.5 -49t16.5 -36.5t57 -14.5q54 0 94 44t52 112l29 174
q6 39 -4.5 48.5t-63.5 9.5l5 31l150 11l-59 -352q-7 -39 4 -48.5t64 -9.5z" />
    <glyph glyph-name="paragraph" unicode="&#xb6;" horiz-adv-x="611" 
d="M694 674q-3 -20 -36 -20h-50l-136 -815q-5 -33 -25 -33t-15 33l136 815h-70l-136 -815q-5 -33 -25 -33t-15 33l65 391q-50 2 -97 17t-87 42t-59.5 72.5t-10.5 101.5q16 95 100.5 163t188.5 68h243q10 0 15.5 -0.5t10.5 -5.5t3 -14z" />
    <glyph glyph-name="periodcentered" unicode="&#xb7;" horiz-adv-x="844" 
d="M532 342q-4 -22 -22 -37.5t-40 -15.5t-35 15.5t-9 37.5t22 37.5t40 15.5t35 -15.5t9 -37.5z" />
    <glyph glyph-name="cedilla" unicode="&#xb8;" horiz-adv-x="494" 
d="M374 -133q-3 -16 -15.5 -28t-37 -19t-46.5 -11.5t-60 -6t-60 -2t-63 -0.5h-26l4 26h13h46t44 1.5t44.5 4t34.5 6.5t27 11.5t11 17.5q4 25 -19.5 33t-64.5 8l16 97h52l-12 -71q52 0 85 -16t27 -51z" />
    <glyph glyph-name="one.superior" unicode="&#xb9;" horiz-adv-x="406" 
d="M377 306q-26 2 -121 2t-121 -2l3 18h25q34 0 50 3.5t19.5 8.5t5.5 17l52 312q-44 -17 -102 -17l3 19q90 0 142 38q12 0 14 -2.5t0 -12.5l-56 -337q-3 -17 6.5 -23t57.5 -6h25z" />
    <glyph glyph-name="ordmasculine" unicode="&#xba;" horiz-adv-x="534" 
d="M577 514q-13 -78 -88 -133t-168 -55t-149 55t-43 133q13 79 87.5 135t168.5 56q93 0 149 -56t43 -135zM524 285q-2 -10 -17 -10h-388q-6 0 -10 3t-3 7q2 11 16 11h388q7 0 11 -3t3 -8zM506 522q8 46 -1.5 80.5t-31 52t-44.5 25.5t-47 8t-49.5 -8t-53 -25t-48.5 -51.5
t-29 -81.5q-15 -93 25 -135.5t97 -42.5q25 0 51 9t53.5 28t48.5 55.5t29 85.5z" />
    <glyph glyph-name="guillemotright" unicode="&#xbb;" horiz-adv-x="611" 
d="M521 242q0 -4 -4 -8q-120 -98 -189 -229q-3 -5 -9 -5h-2q-10 0 -10 10q0 3 1 4q50 121 141 229q-54 106 -65 229q0 11 10 11h2q8 0 10 -8q26 -130 112 -227q3 -2 3 -6zM346 242q0 -4 -4 -8q-120 -98 -189 -229q-3 -5 -9 -5h-2q-10 0 -10 10q0 3 1 4q50 121 141 229
q-54 106 -65 229q0 11 10 11h2q8 0 10 -8q26 -130 112 -227q3 -2 3 -6z" />
    <glyph glyph-name="onequarter" unicode="&#xbc;" horiz-adv-x="890" 
d="M377 306q-26 2 -121 2t-121 -2l3 18h25q34 0 50 3.5t19.5 8.5t5.5 17l52 312q-44 -17 -102 -17l3 19q90 0 142 38q12 0 14 -2.5t0 -12.5l-56 -337q-3 -17 6.5 -23t57.5 -6h25zM827 99h-77l-9 -52q-3 -18 4.5 -23t47.5 -5h16l-3 -19q-26 2 -100 2q-75 0 -102 -2l3 19h17
q39 0 49 5t13 23l9 52h-204l3 19l278 280q10 8 17 8q8 0 9.5 -3t-0.5 -12l-45 -273h77zM842 663q-1 -3 -6 -11l-549 -643q-7 -9 -19 -9q-8 0 -13 6t-4 14q1 3 6 11l550 644q6 8 18 8q8 0 13 -6t4 -14zM702 118l37 226l-224 -226h187z" />
    <glyph glyph-name="onehalf" unicode="&#xbd;" horiz-adv-x="890" 
d="M377 306q-26 2 -121 2t-121 -2l3 18h25q34 0 50 3.5t19.5 8.5t5.5 17l52 312q-44 -17 -102 -17l3 19q90 0 142 38q12 0 14 -2.5t0 -12.5l-56 -337q-3 -17 6.5 -23t57.5 -6h25zM827 104l-37 -104h-282q2 14 11 21l178 137q85 66 94 125q7 41 -16 69.5t-71 28.5
q-36 0 -67.5 -17t-47.5 -44h9q18 0 26.5 -9t6.5 -22q-3 -16 -16.5 -24t-25.5 -8q-5 0 -11 1t-15 9.5t-6 23.5q7 43 52.5 76t106.5 33q69 0 109.5 -32.5t31.5 -84.5q-4 -26 -22 -49.5t-35 -36.5t-51 -36q-6 -4 -31.5 -19.5t-33.5 -21.5l-110 -74h139q64 0 69 4q13 8 27 54h18
zM797 663q-1 -6 -5 -11l-550 -643q-6 -9 -18 -9q-8 0 -13 6t-4 14q1 6 5 11l551 644q5 8 17 8q8 0 13 -6t4 -14z" />
    <glyph glyph-name="threequarters" unicode="&#xbe;" horiz-adv-x="890" 
d="M465 408q-8 -46 -59 -80.5t-120 -34.5q-63 0 -103.5 26.5t-33.5 67.5q3 18 16.5 26.5t28.5 8.5q17 0 27 -9t8 -25q-3 -16 -18 -25.5t-35 -7.5q15 -26 49 -36t62 -10q35 0 65 23t39 76q8 47 -11.5 73.5t-63.5 26.5h-36q-10 0 -13.5 1t-2.5 6q1 6 18 7q38 2 55 5.5t34 18.5
q35 31 43 77q6 35 -13.5 51t-50.5 16q-74 0 -107 -37q44 0 39 -30q-2 -13 -14 -21.5t-28 -8.5t-25 8t-7 23q6 35 48.5 58t99.5 23q56 0 93.5 -23.5t31.5 -58.5q-5 -31 -35.5 -60.5t-88.5 -45.5q57 -9 85.5 -40t22.5 -69zM827 99h-77l-9 -52q-3 -18 4.5 -23t47.5 -5h16
l-3 -19q-26 2 -100 2q-75 0 -102 -2l3 19h17q39 0 49 5t13 23l9 52h-204l3 19l278 280q10 8 17 8q8 0 9.5 -3t-0.5 -12l-45 -273h77zM842 663q-1 -3 -6 -11l-549 -643q-7 -9 -19 -9q-8 0 -13 6t-4 14q1 3 6 11l550 644q6 8 18 8q8 0 13 -6t4 -14zM702 118l37 226l-224 -226
h187z" />
    <glyph glyph-name="questiondown" unicode="&#xbf;" horiz-adv-x="524" 
d="M375 447q-4 -22 -22 -37.5t-40 -15.5t-35 15.5t-9 37.5q3 22 21 37.5t40 15.5t35 -15.5t10 -37.5zM439 -72q-10 -60 -74.5 -96.5t-151.5 -36.5q-51 0 -86 13.5t-48 34t-19 44t0 43.5q11 63 68 103q45 32 76 67.5t46.5 72t20.5 55t10 45.5l2 16q2 11 3 15t4 6.5t9 2.5
q12 0 11 -12l-4 -24q-26 -159 -118 -256q-14 -15 -20 -23t-13.5 -27.5t-12.5 -47.5q-3 -19 -4.5 -29.5t1 -27t10 -26t25.5 -16.5t45 -7q11 0 25 1.5t44 7t59 21t47 38.5q-27 -3 -38.5 11.5t-8.5 33.5q4 20 18.5 33t35.5 13q19 0 30.5 -12t7.5 -36z" />
    <glyph glyph-name="Agrave" unicode="&#xc0;" horiz-adv-x="814" 
d="M765 0l-130 3q-108 0 -145 -3l5 31q82 0 87 29q1 4 -2 18l-31 153h-266l-70 -130q-7 -11 -8 -20q-3 -20 13 -35t52 -15l-5 -31l-115 3q-39 0 -102 -3l5 31q41 0 70 14.5t37.5 25.5t18.5 29l320 597q4 8 6.5 11t7 5.5t12.5 2.5q12 0 15.5 -4t6.5 -18l127 -626
q5 -22 18.5 -29.5t59.5 -7.5h18zM543 262l-67 330l-177 -330h244zM607 768l-18 -22l-162 93q-18 12 -19 27q0 17 12.5 29.5t29.5 12.5q13 0 31 -19z" />
    <glyph glyph-name="Aacute" unicode="&#xc1;" horiz-adv-x="814" 
d="M765 0l-130 3q-108 0 -145 -3l5 31q82 0 87 29q1 4 -2 18l-31 153h-266l-70 -130q-7 -11 -8 -20q-3 -20 13 -35t52 -15l-5 -31l-115 3q-39 0 -102 -3l5 31q41 0 70 14.5t37.5 25.5t18.5 29l320 597q4 8 6.5 11t7 5.5t12.5 2.5q12 0 15.5 -4t6.5 -18l127 -626
q5 -22 18.5 -29.5t59.5 -7.5h18zM543 262l-67 330l-177 -330h244zM695 866q-1 -5 -4 -8.5t-6.5 -6.5t-6 -5t-6 -4t-4.5 -3l-194 -93l-10 22l166 121q23 19 37 19q17 0 25.5 -13t2.5 -29z" />
    <glyph glyph-name="Acircumflex" unicode="&#xc2;" horiz-adv-x="814" 
d="M765 0l-130 3q-108 0 -145 -3l5 31q82 0 87 29q1 4 -2 18l-31 153h-266l-70 -130q-7 -11 -8 -20q-3 -20 13 -35t52 -15l-5 -31l-115 3q-39 0 -102 -3l5 31q41 0 70 14.5t37.5 25.5t18.5 29l320 597q4 8 6.5 11t7 5.5t12.5 2.5q12 0 15.5 -4t6.5 -18l127 -626
q5 -22 18.5 -29.5t59.5 -7.5h18zM543 262l-67 330l-177 -330h244zM683 752l-14 -16l-129 66l-151 -66l-8 16l171 117z" />
    <glyph glyph-name="Atilde" unicode="&#xc3;" horiz-adv-x="814" 
d="M765 0l-130 3q-108 0 -145 -3l5 31q82 0 87 29q1 4 -2 18l-31 153h-266l-70 -130q-7 -11 -8 -20q-3 -20 13 -35t52 -15l-5 -31l-115 3q-39 0 -102 -3l5 31q41 0 70 14.5t37.5 25.5t18.5 29l320 597q4 8 6.5 11t7 5.5t12.5 2.5q12 0 15.5 -4t6.5 -18l127 -626
q5 -22 18.5 -29.5t59.5 -7.5h18zM543 262l-67 330l-177 -330h244zM718 815q-39 -35 -54.5 -47.5t-34.5 -22t-38 -9.5q-25 0 -67 27q-34 22 -58 22q-45 0 -94 -49l-15 15q39 35 54.5 47.5t34.5 22t38 9.5q25 0 67 -27q34 -22 58 -22q44 0 94 49z" />
    <glyph glyph-name="Adieresis" unicode="&#xc4;" horiz-adv-x="814" 
d="M765 0l-130 3q-108 0 -145 -3l5 31q82 0 87 29q1 4 -2 18l-31 153h-266l-70 -130q-7 -11 -8 -20q-3 -20 13 -35t52 -15l-5 -31l-115 3q-39 0 -102 -3l5 31q41 0 70 14.5t37.5 25.5t18.5 29l320 597q4 8 6.5 11t7 5.5t12.5 2.5q12 0 15.5 -4t6.5 -18l127 -626
q5 -22 18.5 -29.5t59.5 -7.5h18zM543 262l-67 330l-177 -330h244zM482 784q-4 -20 -20.5 -34t-35.5 -14q-20 0 -32 14.5t-8 33.5q3 19 19.5 33.5t36.5 14.5q19 0 31 -14t9 -34zM690 784q-4 -20 -20.5 -34t-35.5 -14q-20 0 -32 14.5t-8 33.5q3 19 19.5 33.5t36.5 14.5
q19 0 31 -14t9 -34z" />
    <glyph glyph-name="Aring" unicode="&#xc5;" horiz-adv-x="814" 
d="M765 0l-130 3q-108 0 -145 -3l5 31q82 0 87 29q1 4 -2 18l-31 153h-266l-70 -130q-7 -11 -8 -20q-3 -20 13 -35t52 -15l-5 -31l-115 3q-39 0 -102 -3l5 31q41 0 70 14.5t37.5 25.5t18.5 29l320 597q4 8 6.5 11t7 5.5t12.5 2.5q12 0 15.5 -4t6.5 -18l127 -626
q5 -22 18.5 -29.5t59.5 -7.5h18zM543 262l-67 330l-177 -330h244zM608 804q10 58 -57 58q-68 0 -77 -58t57 -58q67 0 77 58zM641 803q-6 -35 -39 -61t-77 -26q-40 0 -65 25.5t-19 63.5q6 35 39 61t77 26q40 0 65 -25.5t19 -63.5z" />
    <glyph glyph-name="AE" unicode="&#xc6;" horiz-adv-x="975" 
d="M974 258l-85 -258h-516l5 31q52 0 65.5 6.5t19.5 38.5l39 237h-172l-116 -213q-7 -13 -8 -19q-4 -20 12 -34.5t52 -15.5l-5 -31l-114 3l-103 -3l5 31q91 0 126 67l304 553q-12 1 -38 1h-47l5 31h585l-10 -225h-25q3 50 0 86.5t-17.5 60.5t-46.5 35.5t-86 11.5h-112
q-34 0 -42.5 -7t-13.5 -33l-45 -268h94q69 0 93 24.5t35 92.5h25l-44 -265h-25q11 68 -4.5 92.5t-84.5 24.5h-94l-40 -242q-5 -26 1.5 -33t40.5 -7h111q37 0 66 5.5t50 13t39.5 24.5t30 31t24 43t20.5 50t21 60h25zM507 344l44 260q0 9 1 18.5t-8.5 18t-29.5 8.5l-167 -305
h160z" />
    <glyph glyph-name="Ccedilla" unicode="&#xc7;" horiz-adv-x="786" 
d="M752 233q-15 -91 -100 -169t-198 -85l-7 -45q52 0 85 -16t27 -51q-3 -16 -15.5 -28t-37 -19t-46.5 -11.5t-60 -6t-60 -2t-63 -0.5h-26l4 26h13h46t44 1.5t44.5 4t34.5 6.5t27 11.5t11 17.5q4 25 -19.5 33t-64.5 8l11 71q-137 12 -217 116t-56 247q25 151 151 257t275 106
q109 0 182 -89l65 77q10 12 18 12q7 0 8 -4.5t0 -15.5q-1 -2 -1 -4l-40 -237q-2 -16 -5 -20t-15 -4q-9 0 -11 3t-2 14q2 111 -53.5 174t-139.5 63q-26 0 -56.5 -6t-74.5 -27t-81 -55t-70 -97.5t-47 -147.5q-9 -70 -6 -122t23 -88.5t43 -60.5t54 -37.5t56.5 -18.5t50.5 -5
q90 0 170.5 61t103.5 164q8 15 15 16q9 0 10.5 -5t-0.5 -12z" />
    <glyph glyph-name="Egrave" unicode="&#xc8;" horiz-adv-x="742" 
d="M741 258l-85 -258h-601l5 31h24q54 0 68 9t19 38l87 524q5 29 -6 38t-65 9h-24l5 31h586l-9 -225h-25q3 57 -1.5 91t-23 59t-54 34.5t-94.5 9.5h-143q-34 0 -42.5 -7t-12.5 -33l-40 -240h98q71 0 96 24t36 93h25l-44 -265h-25q11 69 -6 93t-88 24h-98l-44 -267
q-5 -26 1.5 -33t40.5 -7h151q53 0 91 9.5t63.5 25.5t46 47t33.5 62t30 83h25zM571 768l-18 -22l-162 93q-18 12 -19 27q0 17 12.5 29.5t29.5 12.5q13 0 31 -19z" />
    <glyph glyph-name="Eacute" unicode="&#xc9;" horiz-adv-x="742" 
d="M741 258l-85 -258h-601l5 31h24q54 0 68 9t19 38l87 524q5 29 -6 38t-65 9h-24l5 31h586l-9 -225h-25q3 57 -1.5 91t-23 59t-54 34.5t-94.5 9.5h-143q-34 0 -42.5 -7t-12.5 -33l-40 -240h98q71 0 96 24t36 93h25l-44 -265h-25q11 69 -6 93t-88 24h-98l-44 -267
q-5 -26 1.5 -33t40.5 -7h151q53 0 91 9.5t63.5 25.5t46 47t33.5 62t30 83h25zM659 866q-1 -5 -4 -8.5t-6.5 -6.5t-6 -5t-6 -4t-4.5 -3l-194 -93l-10 22l166 121q23 19 37 19q17 0 25.5 -13t2.5 -29z" />
    <glyph glyph-name="Ecircumflex" unicode="&#xca;" horiz-adv-x="742" 
d="M741 258l-85 -258h-601l5 31h24q54 0 68 9t19 38l87 524q5 29 -6 38t-65 9h-24l5 31h586l-9 -225h-25q3 57 -1.5 91t-23 59t-54 34.5t-94.5 9.5h-143q-34 0 -42.5 -7t-12.5 -33l-40 -240h98q71 0 96 24t36 93h25l-44 -265h-25q11 69 -6 93t-88 24h-98l-44 -267
q-5 -26 1.5 -33t40.5 -7h151q53 0 91 9.5t63.5 25.5t46 47t33.5 62t30 83h25zM647 752l-14 -16l-129 66l-151 -66l-8 16l171 117z" />
    <glyph glyph-name="Edieresis" unicode="&#xcb;" horiz-adv-x="742" 
d="M741 258l-85 -258h-601l5 31h24q54 0 68 9t19 38l87 524q5 29 -6 38t-65 9h-24l5 31h586l-9 -225h-25q3 57 -1.5 91t-23 59t-54 34.5t-94.5 9.5h-143q-34 0 -42.5 -7t-12.5 -33l-40 -240h98q71 0 96 24t36 93h25l-44 -265h-25q11 69 -6 93t-88 24h-98l-44 -267
q-5 -26 1.5 -33t40.5 -7h151q53 0 91 9.5t63.5 25.5t46 47t33.5 62t30 83h25zM446 784q-4 -20 -20.5 -34t-35.5 -14q-20 0 -32 14.5t-8 33.5q3 19 19.5 33.5t36.5 14.5q19 0 31 -14t9 -34zM654 784q-4 -20 -20.5 -34t-35.5 -14q-20 0 -32 14.5t-8 33.5q3 19 19.5 33.5
t36.5 14.5q19 0 31 -14t9 -34z" />
    <glyph glyph-name="Igrave" unicode="&#xcc;" horiz-adv-x="406" 
d="M355 0q-34 3 -152 3q-117 0 -153 -3l5 31h26q56 0 70.5 9t19.5 38l88 527q5 29 -6.5 38t-67.5 9h-26l5 31q34 -3 152 -3q117 0 153 3l-5 -31h-26q-56 0 -70.5 -9t-19.5 -38l-88 -527q-5 -29 6.5 -38t67.5 -9h26zM403 768l-18 -22l-162 93q-18 12 -19 27q0 17 12.5 29.5
t29.5 12.5q13 0 31 -19z" />
    <glyph glyph-name="Iacute" unicode="&#xcd;" horiz-adv-x="406" 
d="M355 0q-34 3 -152 3q-117 0 -153 -3l5 31h26q56 0 70.5 9t19.5 38l88 527q5 29 -6.5 38t-67.5 9h-26l5 31q34 -3 152 -3q117 0 153 3l-5 -31h-26q-56 0 -70.5 -9t-19.5 -38l-88 -527q-5 -29 6.5 -38t67.5 -9h26zM491 866q-1 -5 -4 -8.5t-6.5 -6.5t-6 -5t-6 -4t-4.5 -3
l-194 -93l-10 22l166 121q23 19 37 19q17 0 25.5 -13t2.5 -29z" />
    <glyph glyph-name="Icircumflex" unicode="&#xce;" horiz-adv-x="406" 
d="M355 0q-34 3 -152 3q-117 0 -153 -3l5 31h26q56 0 70.5 9t19.5 38l88 527q5 29 -6.5 38t-67.5 9h-26l5 31q34 -3 152 -3q117 0 153 3l-5 -31h-26q-56 0 -70.5 -9t-19.5 -38l-88 -527q-5 -29 6.5 -38t67.5 -9h26zM479 752l-14 -16l-129 66l-151 -66l-8 16l171 117z" />
    <glyph glyph-name="Idieresis" unicode="&#xcf;" horiz-adv-x="406" 
d="M355 0q-34 3 -152 3q-117 0 -153 -3l5 31h26q56 0 70.5 9t19.5 38l88 527q5 29 -6.5 38t-67.5 9h-26l5 31q34 -3 152 -3q117 0 153 3l-5 -31h-26q-56 0 -70.5 -9t-19.5 -38l-88 -527q-5 -29 6.5 -38t67.5 -9h26zM278 784q-4 -20 -20.5 -34t-35.5 -14q-20 0 -32 14.5
t-8 33.5q3 19 19.5 33.5t36.5 14.5q19 0 31 -14t9 -34zM486 784q-4 -20 -20.5 -34t-35.5 -14q-20 0 -32 14.5t-8 33.5q3 19 19.5 33.5t36.5 14.5q19 0 31 -14t9 -34z" />
    <glyph glyph-name="Eth" unicode="&#xd0;" horiz-adv-x="829" 
d="M812 336q-23 -140 -133.5 -238t-243.5 -98h-378l5 31h24q54 0 68 9t19 38l42 249h-103l5 30h103l41 248q5 29 -6 38t-65 9h-24l5 31h378q133 0 210 -102t53 -245zM712 336q25 147 -19 222q-55 94 -176 94h-113q-34 0 -42.5 -7t-13.5 -33l-42 -255h169l-5 -30h-169
l-43 -256q-5 -26 1.5 -33t40.5 -7h113q115 0 196 78q77 75 103 227z" />
    <glyph glyph-name="Ntilde" unicode="&#xd1;" horiz-adv-x="814" 
d="M867 652q-36 0 -60 -7t-35 -20.5t-14.5 -23t-6.5 -25.5l-91 -548q-3 -18 -6 -23t-13 -5t-16 12l-334 617l-87 -522q-4 -11 -2.5 -24.5t7 -25t27.5 -19t58 -7.5l-5 -31l-116 3l-118 -3l5 31q36 0 60 7t35 20.5t14.5 23t6.5 25.5l86 518q3 16 2 18q-1 9 -100 9l5 31h169
q15 0 19.5 -2t10.5 -12l284 -522l71 429q4 11 2.5 24.5t-7 25t-27.5 19t-58 7.5l5 31l116 -3l118 3zM718 815q-39 -35 -54.5 -47.5t-34.5 -22t-38 -9.5q-25 0 -67 27q-34 22 -58 22q-45 0 -94 -49l-15 15q39 35 54.5 47.5t34.5 22t38 9.5q25 0 67 -27q34 -22 58 -22
q44 0 94 49z" />
    <glyph glyph-name="Ograve" unicode="&#xd2;" horiz-adv-x="844" 
d="M828 339q-25 -150 -145.5 -255.5t-265.5 -105.5q-143 0 -228 105t-60 256q25 152 145.5 259t265.5 107q143 0 228 -106.5t60 -259.5zM727 354q12 90 1.5 152.5t-43.5 101t-71 55.5t-80 17q-41 0 -84.5 -17.5t-87.5 -53.5t-78.5 -102t-49.5 -153q-14 -96 -4 -162.5
t42 -108.5t70 -60.5t81 -18.5q41 0 85 19t88.5 57.5t80 109.5t50.5 164zM622 768l-18 -22l-162 93q-18 12 -19 27q0 17 12.5 29.5t29.5 12.5q13 0 31 -19z" />
    <glyph glyph-name="Oacute" unicode="&#xd3;" horiz-adv-x="844" 
d="M828 339q-25 -150 -145.5 -255.5t-265.5 -105.5q-143 0 -228 105t-60 256q25 152 145.5 259t265.5 107q143 0 228 -106.5t60 -259.5zM727 354q12 90 1.5 152.5t-43.5 101t-71 55.5t-80 17q-41 0 -84.5 -17.5t-87.5 -53.5t-78.5 -102t-49.5 -153q-14 -96 -4 -162.5
t42 -108.5t70 -60.5t81 -18.5q41 0 85 19t88.5 57.5t80 109.5t50.5 164zM710 866q-1 -5 -4 -8.5t-6.5 -6.5t-6 -5t-6 -4t-4.5 -3l-194 -93l-10 22l166 121q23 19 37 19q17 0 25.5 -13t2.5 -29z" />
    <glyph glyph-name="Ocircumflex" unicode="&#xd4;" horiz-adv-x="844" 
d="M828 339q-25 -150 -145.5 -255.5t-265.5 -105.5q-143 0 -228 105t-60 256q25 152 145.5 259t265.5 107q143 0 228 -106.5t60 -259.5zM727 354q12 90 1.5 152.5t-43.5 101t-71 55.5t-80 17q-41 0 -84.5 -17.5t-87.5 -53.5t-78.5 -102t-49.5 -153q-14 -96 -4 -162.5
t42 -108.5t70 -60.5t81 -18.5q41 0 85 19t88.5 57.5t80 109.5t50.5 164zM698 752l-14 -16l-129 66l-151 -66l-8 16l171 117z" />
    <glyph glyph-name="Otilde" unicode="&#xd5;" horiz-adv-x="844" 
d="M828 339q-25 -150 -145.5 -255.5t-265.5 -105.5q-143 0 -228 105t-60 256q25 152 145.5 259t265.5 107q143 0 228 -106.5t60 -259.5zM727 354q12 90 1.5 152.5t-43.5 101t-71 55.5t-80 17q-41 0 -84.5 -17.5t-87.5 -53.5t-78.5 -102t-49.5 -153q-14 -96 -4 -162.5
t42 -108.5t70 -60.5t81 -18.5q41 0 85 19t88.5 57.5t80 109.5t50.5 164zM733 815q-39 -35 -54.5 -47.5t-34.5 -22t-38 -9.5q-25 0 -67 27q-34 22 -58 22q-45 0 -94 -49l-15 15q39 35 54.5 47.5t34.5 22t38 9.5q25 0 67 -27q34 -22 58 -22q44 0 94 49z" />
    <glyph glyph-name="Odieresis" unicode="&#xd6;" horiz-adv-x="844" 
d="M828 339q-25 -150 -145.5 -255.5t-265.5 -105.5q-143 0 -228 105t-60 256q25 152 145.5 259t265.5 107q143 0 228 -106.5t60 -259.5zM727 354q12 90 1.5 152.5t-43.5 101t-71 55.5t-80 17q-41 0 -84.5 -17.5t-87.5 -53.5t-78.5 -102t-49.5 -153q-14 -96 -4 -162.5
t42 -108.5t70 -60.5t81 -18.5q41 0 85 19t88.5 57.5t80 109.5t50.5 164zM497 784q-4 -20 -20.5 -34t-35.5 -14q-20 0 -32 14.5t-8 33.5q3 19 19.5 33.5t36.5 14.5q19 0 31 -14t9 -34zM705 784q-4 -20 -20.5 -34t-35.5 -14q-20 0 -32 14.5t-8 33.5q3 19 19.5 33.5t36.5 14.5
q19 0 31 -14t9 -34z" />
    <glyph glyph-name="multiply" unicode="&#xd7;" horiz-adv-x="844" 
d="M670 3q-17 -14 -36 9l-175 210l-245 -210q-27 -23 -39 -9t16 37l245 210l-175 210q-21 23 -4 38q17 14 37 -9l175 -210l243 209q27 23 40 9q11 -13 -16 -37l-244 -210l175 -210q19 -23 3 -37z" />
    <glyph glyph-name="Oslash" unicode="&#xd8;" horiz-adv-x="844" 
d="M828 339q-25 -150 -145.5 -255.5t-265.5 -105.5q-108 0 -190 65l-87 -99l-19 14l90 101q-110 118 -82 280q25 152 145.5 259t265.5 107q106 0 189 -66l88 100l19 -14l-91 -102q44 -41 71.5 -115.5t11.5 -168.5zM699 607q-64 76 -164 76q-14 0 -31 -2t-45 -10t-54 -21.5
t-56 -40t-54 -61.5t-45 -89t-32 -120q-26 -155 26 -243zM739 339q27 164 -27 248l-454 -511q57 -76 164 -76q24 0 50.5 4.5t70 25t79 54.5t69 100t48.5 155z" />
    <glyph glyph-name="Ugrave" unicode="&#xd9;" horiz-adv-x="814" 
d="M867 652q-36 0 -60 -7t-35 -20.5t-14.5 -23.5t-6.5 -26l-60 -360q-14 -84 -92.5 -160.5t-182.5 -76.5q-107 0 -172 73t-48 178l63 376q5 29 -6 38t-65 9h-24l5 31q34 -3 147 -3q112 0 148 3l-5 -31h-24q-54 0 -68 -9t-19 -38l-63 -379q-6 -47 -4.5 -81.5t14.5 -58.5
t27.5 -39t34.5 -23.5t35.5 -11.5t31.5 -3q81 0 151.5 60.5t87.5 161.5l57 347q4 10 2.5 23t-7 24t-27.5 19t-58 8l5 31l118 -3l119 3zM631 768l-18 -22l-162 93q-18 12 -19 27q0 17 12.5 29.5t29.5 12.5q13 0 31 -19z" />
    <glyph glyph-name="Uacute" unicode="&#xda;" horiz-adv-x="814" 
d="M867 652q-36 0 -60 -7t-35 -20.5t-14.5 -23.5t-6.5 -26l-60 -360q-14 -84 -92.5 -160.5t-182.5 -76.5q-107 0 -172 73t-48 178l63 376q5 29 -6 38t-65 9h-24l5 31q34 -3 147 -3q112 0 148 3l-5 -31h-24q-54 0 -68 -9t-19 -38l-63 -379q-6 -47 -4.5 -81.5t14.5 -58.5
t27.5 -39t34.5 -23.5t35.5 -11.5t31.5 -3q81 0 151.5 60.5t87.5 161.5l57 347q4 10 2.5 23t-7 24t-27.5 19t-58 8l5 31l118 -3l119 3zM719 866q-1 -5 -4 -8.5t-6.5 -6.5t-6 -5t-6 -4t-4.5 -3l-194 -93l-10 22l166 121q23 19 37 19q17 0 25.5 -13t2.5 -29z" />
    <glyph glyph-name="Ucircumflex" unicode="&#xdb;" horiz-adv-x="814" 
d="M867 652q-36 0 -60 -7t-35 -20.5t-14.5 -23.5t-6.5 -26l-60 -360q-14 -84 -92.5 -160.5t-182.5 -76.5q-107 0 -172 73t-48 178l63 376q5 29 -6 38t-65 9h-24l5 31q34 -3 147 -3q112 0 148 3l-5 -31h-24q-54 0 -68 -9t-19 -38l-63 -379q-6 -47 -4.5 -81.5t14.5 -58.5
t27.5 -39t34.5 -23.5t35.5 -11.5t31.5 -3q81 0 151.5 60.5t87.5 161.5l57 347q4 10 2.5 23t-7 24t-27.5 19t-58 8l5 31l118 -3l119 3zM707 752l-14 -16l-129 66l-151 -66l-8 16l171 117z" />
    <glyph glyph-name="Udieresis" unicode="&#xdc;" horiz-adv-x="814" 
d="M867 652q-36 0 -60 -7t-35 -20.5t-14.5 -23.5t-6.5 -26l-60 -360q-14 -84 -92.5 -160.5t-182.5 -76.5q-107 0 -172 73t-48 178l63 376q5 29 -6 38t-65 9h-24l5 31q34 -3 147 -3q112 0 148 3l-5 -31h-24q-54 0 -68 -9t-19 -38l-63 -379q-6 -47 -4.5 -81.5t14.5 -58.5
t27.5 -39t34.5 -23.5t35.5 -11.5t31.5 -3q81 0 151.5 60.5t87.5 161.5l57 347q4 10 2.5 23t-7 24t-27.5 19t-58 8l5 31l118 -3l119 3zM506 784q-4 -20 -20.5 -34t-35.5 -14q-20 0 -32 14.5t-8 33.5q3 19 19.5 33.5t36.5 14.5q19 0 31 -14t9 -34zM714 784q-4 -20 -20.5 -34
t-35.5 -14q-20 0 -32 14.5t-8 33.5q3 19 19.5 33.5t36.5 14.5q19 0 31 -14t9 -34z" />
    <glyph glyph-name="Yacute" unicode="&#xdd;" horiz-adv-x="814" 
d="M896 652q-90 -2 -141 -64l-260 -315l-33 -193q-5 -31 6 -40t66 -9h23l-5 -31q-35 3 -145 3t-147 -3l5 31h24q54 0 68 9t19 38l33 195l-169 345q-10 20 -27.5 27t-58.5 7h-19l5 31l130 -3q113 0 149 3l-5 -31q-68 0 -72 -24q-1 -7 5 -20l144 -294l224 271q13 18 15 29
q4 19 -9.5 28.5t-37.5 9.5l5 31l114 -3q52 0 99 3zM695 866q-1 -5 -4 -8.5t-6.5 -6.5t-6 -5t-6 -4t-4.5 -3l-194 -93l-10 22l166 121q23 19 37 19q17 0 25.5 -13t2.5 -29z" />
    <glyph glyph-name="Thorn" unicode="&#xde;" horiz-adv-x="683" 
d="M671 365q-13 -77 -85.5 -132t-159.5 -55h-152l-17 -100q-5 -29 6 -38t65 -9h24l-5 -31l-144 3l-145 -3l5 31h24q54 0 68 9t19 38l88 527q5 29 -6 38t-65 9h-24l5 31l144 -3l145 3l-5 -31h-24q-54 0 -68 -9t-19 -38l-9 -52h141q101 0 153.5 -57t40.5 -131zM571 366
q6 20 1.5 46.5t-14.5 51t-37.5 41.5t-67.5 17h-122l-52 -313h116q68 0 117 47.5t59 109.5z" />
    <glyph glyph-name="germandbls" unicode="&#xdf;" horiz-adv-x="916" 
d="M875 142q-10 -62 -62.5 -109t-122.5 -47q-91 0 -138 49q-15 -18 -23 -26q-20 -23 -26 -23q-11 0 -6 24l22 135q2 11 3 15t4.5 7t9.5 3q11 0 11 -9q-11 -74 30 -111q42 -39 117 -39q49 0 84 32t41 72q9 47 -19 75q-14 15 -26.5 20.5t-54.5 15.5q-72 17 -93.5 25.5
t-39.5 29.5q-37 45 -27 101q10 60 62 103t119 43q75 0 117 -49q19 22 23 26q20 23 26 23q7 0 8 -6t-2 -18l-23 -136q-2 -15 -5 -19.5t-12 -4.5q-10 0 -10 13q1 20 -1.5 38t-12.5 47t-38.5 46.5t-72.5 17.5q-48 0 -82 -29t-40 -66q-10 -63 51 -89q2 -1 59 -15q66 -16 86 -25
t42 -36q4 -5 9 -13.5t11 -35.5t2 -55zM431 142q-10 -62 -62.5 -109t-122.5 -47q-91 0 -138 49q-15 -18 -23 -26q-20 -23 -26 -23q-11 0 -6 24l22 135q2 11 3 15t4.5 7t9.5 3q11 0 11 -9q-11 -74 30 -111q42 -39 117 -39q49 0 84 32t41 72q9 47 -19 75q-14 15 -26.5 20.5
t-54.5 15.5q-72 17 -93.5 25.5t-39.5 29.5q-37 45 -27 101q10 60 62 103t119 43q75 0 117 -49q19 22 23 26q20 23 26 23q7 0 8 -6t-2 -18l-23 -136q-2 -15 -5 -19.5t-12 -4.5q-10 0 -10 13q1 20 -1.5 38t-12.5 47t-38.5 46.5t-72.5 17.5q-48 0 -82 -29t-40 -66
q-10 -63 51 -89q2 -1 59 -15q66 -16 86 -25t42 -36q4 -5 9 -13.5t11 -35.5t2 -55z" />
    <glyph glyph-name="agrave" unicode="&#xe0;" horiz-adv-x="613" 
d="M579 0q-72 3 -96 3l-107 -3l4 25q53 0 58 28q2 10 -11 60l-13 56h-207q-49 -88 -50 -99q0 -6 -0.5 -15.5t9 -19t28.5 -10.5l-4 -25l-82 3q-41 0 -74 -3l4 25q23 1 40.5 7.5t30.5 21t18 22t15 23.5l229 413q5 8 7 11t6.5 5.5t11.5 2.5q14 0 18 -22l98 -444q5 -26 17 -33
t54 -7zM408 194l-52 241l-135 -241h187zM473 608l-21 -19l-138 123q-16 16 -13 30q2 13 15 24.5t27 11.5q16 0 32 -25z" />
    <glyph glyph-name="aacute" unicode="&#xe1;" horiz-adv-x="613" 
d="M579 0q-72 3 -96 3l-107 -3l4 25q53 0 58 28q2 10 -11 60l-13 56h-207q-49 -88 -50 -99q0 -6 -0.5 -15.5t9 -19t28.5 -10.5l-4 -25l-82 3q-41 0 -74 -3l4 25q23 1 40.5 7.5t30.5 21t18 22t15 23.5l229 413q5 8 7 11t6.5 5.5t11.5 2.5q14 0 18 -22l98 -444q5 -26 17 -33
t54 -7zM408 194l-52 241l-135 -241h187zM560 742q-3 -16 -23 -30l-180 -123l-13 19l146 145q25 25 40 25q14 0 23 -11.5t7 -24.5z" />
    <glyph glyph-name="acircumflex" unicode="&#xe2;" horiz-adv-x="613" 
d="M579 0q-72 3 -96 3l-107 -3l4 25q53 0 58 28q2 10 -11 60l-13 56h-207q-49 -88 -50 -99q0 -6 -0.5 -15.5t9 -19t28.5 -10.5l-4 -25l-82 3q-41 0 -74 -3l4 25q23 1 40.5 7.5t30.5 21t18 22t15 23.5l229 413q5 8 7 11t6.5 5.5t11.5 2.5q14 0 18 -22l98 -444q5 -26 17 -33
t54 -7zM408 194l-52 241l-135 -241h187zM560 610l-15 -14l-121 108l-157 -108l-11 14l179 162z" />
    <glyph glyph-name="atilde" unicode="&#xe3;" horiz-adv-x="613" 
d="M579 0q-72 3 -96 3l-107 -3l4 25q53 0 58 28q2 10 -11 60l-13 56h-207q-49 -88 -50 -99q0 -6 -0.5 -15.5t9 -19t28.5 -10.5l-4 -25l-82 3q-41 0 -74 -3l4 25q23 1 40.5 7.5t30.5 21t18 22t15 23.5l229 413q5 8 7 11t6.5 5.5t11.5 2.5q14 0 18 -22l98 -444q5 -26 17 -33
t54 -7zM408 194l-52 241l-135 -241h187zM601 716q-54 -48 -77.5 -63.5t-50.5 -15.5q-24 0 -66 27q-34 22 -58 22q-45 0 -95 -49l-14 15q53 48 76.5 63.5t50.5 15.5q25 0 67 -27q32 -22 58 -22q44 0 94 49z" />
    <glyph glyph-name="adieresis" unicode="&#xe4;" horiz-adv-x="613" 
d="M579 0q-72 3 -96 3l-107 -3l4 25q53 0 58 28q2 10 -11 60l-13 56h-207q-49 -88 -50 -99q0 -6 -0.5 -15.5t9 -19t28.5 -10.5l-4 -25l-82 3q-41 0 -74 -3l4 25q23 1 40.5 7.5t30.5 21t18 22t15 23.5l229 413q5 8 7 11t6.5 5.5t11.5 2.5q14 0 18 -22l98 -444q5 -26 17 -33
t54 -7zM408 194l-52 241l-135 -241h187zM380 684q-3 -19 -19.5 -33.5t-36.5 -14.5q-19 0 -31 14t-9 34q4 20 20.5 34t35.5 14q20 0 32 -14.5t8 -33.5zM556 684q-3 -19 -19.5 -33.5t-36.5 -14.5q-19 0 -31 14t-9 34q4 20 20.5 34t35.5 14q20 0 32 -14.5t8 -33.5z" />
    <glyph glyph-name="aring" unicode="&#xe5;" horiz-adv-x="613" 
d="M579 0q-72 3 -96 3l-107 -3l4 25q53 0 58 28q2 10 -11 60l-13 56h-207q-49 -88 -50 -99q0 -6 -0.5 -15.5t9 -19t28.5 -10.5l-4 -25l-82 3q-41 0 -74 -3l4 25q23 1 40.5 7.5t30.5 21t18 22t15 23.5l229 413q5 8 7 11t6.5 5.5t11.5 2.5q14 0 18 -22l98 -444q5 -26 17 -33
t54 -7zM408 194l-52 241l-135 -241h187zM490 700q10 58 -57 58q-68 0 -77 -58t57 -58q67 0 77 58zM523 699q-6 -35 -39 -61t-77 -26q-40 0 -65 25.5t-19 63.5q6 35 39 61t77 26q40 0 65 -25.5t19 -63.5z" />
    <glyph glyph-name="ae" unicode="&#xe6;" horiz-adv-x="736" 
d="M739 194l-61 -194h-392l4 25q37 0 47 7.5t15 37.5l27 165h-132l-76 -136q-12 -19 -13 -30q0 -5 -1 -14t8.5 -19t28.5 -11l-4 -25q-45 3 -81 3q-42 0 -75 -3l4 25q62 1 102 69l223 394q-10 1 -31 1h-27l4 25h443l-9 -169h-25q5 84 -16 114t-97 30h-76q-27 0 -35 -7
t-13 -36l-31 -186h64q53 0 71 17.5t27 69.5h25l-33 -199h-25q9 52 -4 69.5t-65 17.5h-64l-28 -167q-4 -30 1 -36.5t32 -6.5h77q85 0 121 35t65 134h25zM383 260l30 177q7 45 -24 48l-128 -225h122z" />
    <glyph glyph-name="ccedilla" unicode="&#xe7;" horiz-adv-x="591" 
d="M570 177q-11 -66 -73.5 -124.5t-147.5 -65.5l-9 -53q52 0 85 -16t27 -51q-3 -16 -15.5 -28t-37 -19t-46.5 -11.5t-60 -6t-60 -2t-63 -0.5h-26l4 26h13h46t44 1.5t44.5 4t34.5 6.5t27 11.5t11 17.5q4 25 -19.5 33t-64.5 8l13 80q-102 11 -161.5 88t-41.5 181
q19 113 115 192t210 79q83 0 135 -63l47 51q12 12 17 12q7 0 8 -6t-2 -18l-28 -169q-2 -15 -5 -19.5t-12 -4.5t-11 13q1 89 -42.5 134t-104.5 45q-18 0 -39 -4t-54 -19t-60.5 -40t-52.5 -72.5t-35 -110.5q-7 -55 -4.5 -94.5t18.5 -66.5t33 -44t41 -26t40.5 -12t31.5 -3
q67 0 127 45t78 121q3 16 14 16q13 0 11 -16z" />
    <glyph glyph-name="egrave" unicode="&#xe8;" horiz-adv-x="558" 
d="M561 194l-61 -194h-457l4 25q49 0 62 8t18 39l61 367q5 31 -5 39t-59 8l4 25h445l-9 -169h-25q5 84 -19.5 114t-109.5 30h-102q-27 0 -34.5 -6.5t-12.5 -36.5l-28 -165h70q54 0 73 17.5t28 69.5h25l-33 -199h-25q9 52 -4.5 69.5t-67.5 17.5h-70l-31 -185q-4 -30 1 -36.5
t32 -6.5h108q63 0 100.5 18.5t57 51.5t39.5 99h25zM445 608l-21 -19l-138 123q-16 16 -13 30q2 13 15 24.5t27 11.5q16 0 32 -25z" />
    <glyph glyph-name="eacute" unicode="&#xe9;" horiz-adv-x="558" 
d="M561 194l-61 -194h-457l4 25q49 0 62 8t18 39l61 367q5 31 -5 39t-59 8l4 25h445l-9 -169h-25q5 84 -19.5 114t-109.5 30h-102q-27 0 -34.5 -6.5t-12.5 -36.5l-28 -165h70q54 0 73 17.5t28 69.5h25l-33 -199h-25q9 52 -4.5 69.5t-67.5 17.5h-70l-31 -185q-4 -30 1 -36.5
t32 -6.5h108q63 0 100.5 18.5t57 51.5t39.5 99h25zM532 742q-3 -16 -23 -30l-180 -123l-13 19l146 145q25 25 40 25q14 0 23 -11.5t7 -24.5z" />
    <glyph glyph-name="ecircumflex" unicode="&#xea;" horiz-adv-x="558" 
d="M561 194l-61 -194h-457l4 25q49 0 62 8t18 39l61 367q5 31 -5 39t-59 8l4 25h445l-9 -169h-25q5 84 -19.5 114t-109.5 30h-102q-27 0 -34.5 -6.5t-12.5 -36.5l-28 -165h70q54 0 73 17.5t28 69.5h25l-33 -199h-25q9 52 -4.5 69.5t-67.5 17.5h-70l-31 -185q-4 -30 1 -36.5
t32 -6.5h108q63 0 100.5 18.5t57 51.5t39.5 99h25zM532 610l-15 -14l-121 108l-157 -108l-11 14l179 162z" />
    <glyph glyph-name="edieresis" unicode="&#xeb;" horiz-adv-x="558" 
d="M561 194l-61 -194h-457l4 25q49 0 62 8t18 39l61 367q5 31 -5 39t-59 8l4 25h445l-9 -169h-25q5 84 -19.5 114t-109.5 30h-102q-27 0 -34.5 -6.5t-12.5 -36.5l-28 -165h70q54 0 73 17.5t28 69.5h25l-33 -199h-25q9 52 -4.5 69.5t-67.5 17.5h-70l-31 -185q-4 -30 1 -36.5
t32 -6.5h108q63 0 100.5 18.5t57 51.5t39.5 99h25zM352 684q-3 -19 -19.5 -33.5t-36.5 -14.5q-19 0 -31 14t-9 34q4 20 20.5 34t35.5 14q20 0 32 -14.5t8 -33.5zM528 684q-3 -19 -19.5 -33.5t-36.5 -14.5q-19 0 -31 14t-9 34q4 20 20.5 34t35.5 14q20 0 32 -14.5t8 -33.5z
" />
    <glyph glyph-name="igrave" unicode="&#xec;" horiz-adv-x="302" 
d="M263 0l-111 3l-113 -3l4 25q53 0 66 7.5t18 40.5l62 368q5 33 -5 40.5t-63 7.5l4 25l111 -3l113 3l-4 -25q-53 0 -66 -7.5t-18 -40.5l-62 -368q-5 -33 5 -40.5t63 -7.5zM318 608l-21 -19l-138 123q-16 16 -13 30q2 13 15 24.5t27 11.5q16 0 32 -25z" />
    <glyph glyph-name="iacute" unicode="&#xed;" horiz-adv-x="302" 
d="M263 0l-111 3l-113 -3l4 25q53 0 66 7.5t18 40.5l62 368q5 33 -5 40.5t-63 7.5l4 25l111 -3l113 3l-4 -25q-53 0 -66 -7.5t-18 -40.5l-62 -368q-5 -33 5 -40.5t63 -7.5zM405 742q-3 -16 -23 -30l-180 -123l-13 19l146 145q25 25 40 25q14 0 23 -11.5t7 -24.5z" />
    <glyph glyph-name="icircumflex" unicode="&#xee;" horiz-adv-x="302" 
d="M263 0l-111 3l-113 -3l4 25q53 0 66 7.5t18 40.5l62 368q5 33 -5 40.5t-63 7.5l4 25l111 -3l113 3l-4 -25q-53 0 -66 -7.5t-18 -40.5l-62 -368q-5 -33 5 -40.5t63 -7.5zM405 610l-15 -14l-121 108l-157 -108l-11 14l179 162z" />
    <glyph glyph-name="idieresis" unicode="&#xef;" horiz-adv-x="302" 
d="M263 0l-111 3l-113 -3l4 25q53 0 66 7.5t18 40.5l62 368q5 33 -5 40.5t-63 7.5l4 25l111 -3l113 3l-4 -25q-53 0 -66 -7.5t-18 -40.5l-62 -368q-5 -33 5 -40.5t63 -7.5zM225 684q-3 -19 -19.5 -33.5t-36.5 -14.5q-19 0 -31 14t-9 34q4 20 20.5 34t35.5 14q20 0 32 -14.5
t8 -33.5zM401 684q-3 -19 -19.5 -33.5t-36.5 -14.5q-19 0 -31 14t-9 34q4 20 20.5 34t35.5 14q20 0 32 -14.5t8 -33.5z" />
    <glyph glyph-name="eth" unicode="&#xf0;" horiz-adv-x="624" 
d="M615 253q-17 -105 -100.5 -179t-188.5 -74h-281l4 25q49 0 62 8t18 39l28 165h-57l5 31h57l29 174q5 31 -5 39t-59 8l4 25h281q106 0 163.5 -77.5t39.5 -183.5zM532 253q19 115 -15 171q-40 65 -132 65h-77q-27 0 -35 -7t-13 -36l-29 -178h137l-5 -31h-137l-29 -169
q-4 -30 1 -36.5t32 -6.5h77q101 0 163 72q46 54 62 156z" />
    <glyph glyph-name="ntilde" unicode="&#xf1;" horiz-adv-x="613" 
d="M652 489q-25 0 -42.5 -8t-26 -22.5t-11.5 -23.5t-5 -22l-65 -387q-2 -11 -3 -15.5t-4.5 -7.5t-10.5 -3q-9 0 -15 11l-241 436l-8 12l-60 -358q-13 -76 59 -76l-4 -25q-37 3 -85 3l-87 -3l4 25q25 0 42.5 8t26 22.5t11.5 23.5t5 22l63 381q-18 7 -70 7l4 25h120
q11 0 14.5 -0.5t6.5 -3t7 -9.5l212 -385l50 297q13 76 -59 76l4 25q36 -3 85 -3l87 3zM601 716q-54 -48 -77.5 -63.5t-50.5 -15.5q-24 0 -66 27q-34 22 -58 22q-45 0 -95 -49l-14 15q53 48 76.5 63.5t50.5 15.5q25 0 67 -27q32 -22 58 -22q44 0 94 49z" />
    <glyph glyph-name="ograve" unicode="&#xf2;" horiz-adv-x="636" 
d="M628 255q-19 -113 -110.5 -191t-201.5 -78t-175.5 78.5t-46.5 190.5q18 112 109.5 192.5t202.5 80.5t175.5 -80.5t46.5 -192.5zM543 266q9 70 1 116t-34 73t-52.5 37.5t-55.5 10.5q-28 0 -59 -11.5t-64 -36t-60 -74t-38 -115.5q-9 -74 -1.5 -123t32.5 -78t52 -41t56 -12
t60.5 12.5t65 40t60 79.5t37.5 122zM484 608l-21 -19l-138 123q-16 16 -13 30q2 13 15 24.5t27 11.5q16 0 32 -25z" />
    <glyph glyph-name="oacute" unicode="&#xf3;" horiz-adv-x="636" 
d="M628 255q-19 -113 -110.5 -191t-201.5 -78t-175.5 78.5t-46.5 190.5q18 112 109.5 192.5t202.5 80.5t175.5 -80.5t46.5 -192.5zM543 266q9 70 1 116t-34 73t-52.5 37.5t-55.5 10.5q-28 0 -59 -11.5t-64 -36t-60 -74t-38 -115.5q-9 -74 -1.5 -123t32.5 -78t52 -41t56 -12
t60.5 12.5t65 40t60 79.5t37.5 122zM571 742q-3 -16 -23 -30l-180 -123l-13 19l146 145q25 25 40 25q14 0 23 -11.5t7 -24.5z" />
    <glyph glyph-name="ocircumflex" unicode="&#xf4;" horiz-adv-x="636" 
d="M628 255q-19 -113 -110.5 -191t-201.5 -78t-175.5 78.5t-46.5 190.5q18 112 109.5 192.5t202.5 80.5t175.5 -80.5t46.5 -192.5zM543 266q9 70 1 116t-34 73t-52.5 37.5t-55.5 10.5q-28 0 -59 -11.5t-64 -36t-60 -74t-38 -115.5q-9 -74 -1.5 -123t32.5 -78t52 -41t56 -12
t60.5 12.5t65 40t60 79.5t37.5 122zM571 610l-15 -14l-121 108l-157 -108l-11 14l179 162z" />
    <glyph glyph-name="otilde" unicode="&#xf5;" horiz-adv-x="636" 
d="M628 255q-19 -113 -110.5 -191t-201.5 -78t-175.5 78.5t-46.5 190.5q18 112 109.5 192.5t202.5 80.5t175.5 -80.5t46.5 -192.5zM543 266q9 70 1 116t-34 73t-52.5 37.5t-55.5 10.5q-28 0 -59 -11.5t-64 -36t-60 -74t-38 -115.5q-9 -74 -1.5 -123t32.5 -78t52 -41t56 -12
t60.5 12.5t65 40t60 79.5t37.5 122zM612 716q-54 -48 -77.5 -63.5t-50.5 -15.5q-24 0 -66 27q-34 22 -58 22q-45 0 -95 -49l-14 15q53 48 76.5 63.5t50.5 15.5q25 0 67 -27q32 -22 58 -22q44 0 94 49z" />
    <glyph glyph-name="odieresis" unicode="&#xf6;" horiz-adv-x="636" 
d="M628 255q-19 -113 -110.5 -191t-201.5 -78t-175.5 78.5t-46.5 190.5q18 112 109.5 192.5t202.5 80.5t175.5 -80.5t46.5 -192.5zM543 266q9 70 1 116t-34 73t-52.5 37.5t-55.5 10.5q-28 0 -59 -11.5t-64 -36t-60 -74t-38 -115.5q-9 -74 -1.5 -123t32.5 -78t52 -41t56 -12
t60.5 12.5t65 40t60 79.5t37.5 122zM391 684q-3 -19 -19.5 -33.5t-36.5 -14.5q-19 0 -31 14t-9 34q4 20 20.5 34t35.5 14q20 0 32 -14.5t8 -33.5zM567 684q-3 -19 -19.5 -33.5t-36.5 -14.5q-19 0 -31 14t-9 34q4 20 20.5 34t35.5 14q20 0 32 -14.5t8 -33.5z" />
    <glyph glyph-name="divide" unicode="&#xf7;" horiz-adv-x="844" 
d="M813 250q-4 -20 -38 -20h-631q-10 0 -16 0.5t-11 5.5t-3 14q3 20 36 20h633q10 0 15.5 -0.5t10.5 -5.5t4 -14zM543 407q-4 -22 -22 -37.5t-40 -15.5t-35 15.5t-9 37.5t22 37.5t40 15.5t35 -15.5t9 -37.5zM491 93q-4 -22 -22 -37.5t-40 -15.5t-35 15.5t-9 37.5
q3 22 21 37.5t40 15.5t35 -15.5t10 -37.5z" />
    <glyph glyph-name="oslash" unicode="&#xf8;" horiz-adv-x="636" 
d="M628 255q-19 -113 -110.5 -191t-201.5 -78q-80 0 -135 41l-71 -83l-18 14l70 83q-90 87 -68 214q18 112 109.5 192.5t202.5 80.5q76 0 135 -42l71 84l18 -14l-71 -85q40 -33 60 -91t9 -125zM556 255q19 122 -23 186l-329 -387q43 -46 115 -46q97 0 165 77q53 60 72 170z
M518 460q-46 46 -116 46q-98 0 -167 -81q-51 -61 -69 -170q-20 -119 22 -183z" />
    <glyph glyph-name="ugrave" unicode="&#xf9;" horiz-adv-x="613" 
d="M652 489q-71 0 -83 -62l-44 -266q-11 -62 -70.5 -118.5t-139.5 -56.5t-128.5 49t-44.5 113q0 12 10 75l36 217q6 33 -3.5 41t-59.5 8l4 25l107 -3l109 3l-4 -25q-49 0 -62 -8t-18 -39l-45 -269q-4 -38 -3 -64.5t12.5 -44.5t22.5 -28.5t27 -16t26 -7t20 -1.5
q58 0 113 43.5t69 123.5l39 235q13 76 -59 76l4 25q40 -3 84 -3q46 0 85 3zM492 608l-21 -19l-138 123q-16 16 -13 30q2 13 15 24.5t27 11.5q16 0 32 -25z" />
    <glyph glyph-name="uacute" unicode="&#xfa;" horiz-adv-x="613" 
d="M652 489q-71 0 -83 -62l-44 -266q-11 -62 -70.5 -118.5t-139.5 -56.5t-128.5 49t-44.5 113q0 12 10 75l36 217q6 33 -3.5 41t-59.5 8l4 25l107 -3l109 3l-4 -25q-49 0 -62 -8t-18 -39l-45 -269q-4 -38 -3 -64.5t12.5 -44.5t22.5 -28.5t27 -16t26 -7t20 -1.5
q58 0 113 43.5t69 123.5l39 235q13 76 -59 76l4 25q40 -3 84 -3q46 0 85 3zM579 742q-3 -16 -23 -30l-180 -123l-13 19l146 145q25 25 40 25q14 0 23 -11.5t7 -24.5z" />
    <glyph glyph-name="ucircumflex" unicode="&#xfb;" horiz-adv-x="613" 
d="M652 489q-71 0 -83 -62l-44 -266q-11 -62 -70.5 -118.5t-139.5 -56.5t-128.5 49t-44.5 113q0 12 10 75l36 217q6 33 -3.5 41t-59.5 8l4 25l107 -3l109 3l-4 -25q-49 0 -62 -8t-18 -39l-45 -269q-4 -38 -3 -64.5t12.5 -44.5t22.5 -28.5t27 -16t26 -7t20 -1.5
q58 0 113 43.5t69 123.5l39 235q13 76 -59 76l4 25q40 -3 84 -3q46 0 85 3zM579 610l-15 -14l-121 108l-157 -108l-11 14l179 162z" />
    <glyph glyph-name="udieresis" unicode="&#xfc;" horiz-adv-x="613" 
d="M652 489q-71 0 -83 -62l-44 -266q-11 -62 -70.5 -118.5t-139.5 -56.5t-128.5 49t-44.5 113q0 12 10 75l36 217q6 33 -3.5 41t-59.5 8l4 25l107 -3l109 3l-4 -25q-49 0 -62 -8t-18 -39l-45 -269q-4 -38 -3 -64.5t12.5 -44.5t22.5 -28.5t27 -16t26 -7t20 -1.5
q58 0 113 43.5t69 123.5l39 235q13 76 -59 76l4 25q40 -3 84 -3q46 0 85 3zM399 684q-3 -19 -19.5 -33.5t-36.5 -14.5q-19 0 -31 14t-9 34q4 20 20.5 34t35.5 14q20 0 32 -14.5t8 -33.5zM575 684q-3 -19 -19.5 -33.5t-36.5 -14.5q-19 0 -31 14t-9 34q4 20 20.5 34t35.5 14
q20 0 32 -14.5t8 -33.5z" />
    <glyph glyph-name="yacute" unicode="&#xfd;" horiz-adv-x="613" 
d="M676 489q-64 -3 -120 -70l-181 -214l-21 -130q-6 -34 3.5 -42t59.5 -8l-4 -25l-106 3l-107 -3l4 25q49 0 62 8t18 39l22 134l-129 251q-10 20 -24 26t-52 6l4 25q44 -3 96 -3l109 3l-4 -25q-41 0 -45 -20q-1 -11 8 -27l104 -203l153 182q19 23 22 38q3 27 -24 30l4 25
q39 -3 81 -3q38 0 71 3zM560 742q-3 -16 -23 -30l-180 -123l-13 19l146 145q25 25 40 25q14 0 23 -11.5t7 -24.5z" />
    <glyph glyph-name="thorn" unicode="&#xfe;" horiz-adv-x="513" 
d="M514 256q-9 -55 -64.5 -97t-106.5 -42h-136l-8 -44q-5 -33 5 -40.5t63 -7.5l-4 -25l-111 3l-113 -3l4 25q53 0 66 7.5t18 40.5l62 368q5 33 -5 40.5t-63 7.5l4 25l111 -3l113 3l-4 -25q-53 0 -66 -7.5t-18 -40.5l-8 -44h129q59 0 100 -43.5t32 -97.5zM428 257q3 17 4 28
t-2 29.5t-12 29.5t-31 20t-54 9h-45q-27 0 -34.5 -6.5t-12.5 -36.5l-31 -189h85q40 0 67 11.5t40 33.5t17.5 35t8.5 36z" />
    <glyph glyph-name="ydieresis" unicode="&#xff;" horiz-adv-x="613" 
d="M676 489q-64 -3 -120 -70l-181 -214l-21 -130q-6 -34 3.5 -42t59.5 -8l-4 -25l-106 3l-107 -3l4 25q49 0 62 8t18 39l22 134l-129 251q-10 20 -24 26t-52 6l4 25q44 -3 96 -3l109 3l-4 -25q-41 0 -45 -20q-1 -11 8 -27l104 -203l153 182q19 23 22 38q3 27 -24 30l4 25
q39 -3 81 -3q38 0 71 3zM380 684q-3 -19 -19.5 -33.5t-36.5 -14.5q-19 0 -31 14t-9 34q4 20 20.5 34t35.5 14q20 0 32 -14.5t8 -33.5zM556 684q-3 -19 -19.5 -33.5t-36.5 -14.5q-19 0 -31 14t-9 34q4 20 20.5 34t35.5 14q20 0 32 -14.5t8 -33.5z" />
    <glyph glyph-name="Amacron" unicode="&#x100;" horiz-adv-x="814" 
d="M765 0l-130 3q-108 0 -145 -3l5 31q82 0 87 29q1 4 -2 18l-31 153h-266l-70 -130q-7 -11 -8 -20q-3 -20 13 -35t52 -15l-5 -31l-115 3q-39 0 -102 -3l5 31q41 0 70 14.5t37.5 25.5t18.5 29l320 597q4 8 6.5 11t7 5.5t12.5 2.5q12 0 15.5 -4t6.5 -18l127 -626
q5 -22 18.5 -29.5t59.5 -7.5h18zM543 262l-67 330l-177 -330h244zM722 756h-378l5 31h378z" />
    <glyph glyph-name="amacron" unicode="&#x101;" horiz-adv-x="613" 
d="M579 0q-72 3 -96 3l-107 -3l4 25q53 0 58 28q2 10 -11 60l-13 56h-207q-49 -88 -50 -99q0 -6 -0.5 -15.5t9 -19t28.5 -10.5l-4 -25l-82 3q-41 0 -74 -3l4 25q23 1 40.5 7.5t30.5 21t18 22t15 23.5l229 413q5 8 7 11t6.5 5.5t11.5 2.5q14 0 18 -22l98 -444q5 -26 17 -33
t54 -7zM408 194l-52 241l-135 -241h187zM607 668h-378l5 31h378z" />
    <glyph glyph-name="Abreve" unicode="&#x102;" horiz-adv-x="814" 
d="M765 0l-130 3q-108 0 -145 -3l5 31q82 0 87 29q1 4 -2 18l-31 153h-266l-70 -130q-7 -11 -8 -20q-3 -20 13 -35t52 -15l-5 -31l-115 3q-39 0 -102 -3l5 31q41 0 70 14.5t37.5 25.5t18.5 29l320 597q4 8 6.5 11t7 5.5t12.5 2.5q12 0 15.5 -4t6.5 -18l127 -626
q5 -22 18.5 -29.5t59.5 -7.5h18zM543 262l-67 330l-177 -330h244zM716 918q-13 -74 -67 -123t-118 -49t-101.5 49t-25.5 123h22q-9 -61 25.5 -97.5t86.5 -36.5t98.5 36.5t57.5 97.5h22z" />
    <glyph glyph-name="abreve" unicode="&#x103;" horiz-adv-x="613" 
d="M579 0q-72 3 -96 3l-107 -3l4 25q53 0 58 28q2 10 -11 60l-13 56h-207q-49 -88 -50 -99q0 -6 -0.5 -15.5t9 -19t28.5 -10.5l-4 -25l-82 3q-41 0 -74 -3l4 25q23 1 40.5 7.5t30.5 21t18 22t15 23.5l229 413q5 8 7 11t6.5 5.5t11.5 2.5q14 0 18 -22l98 -444q5 -26 17 -33
t54 -7zM408 194l-52 241l-135 -241h187zM591 770q-13 -74 -67 -123t-118 -49t-101.5 49t-25.5 123h22q-9 -61 25 -97.5t86 -36.5t98.5 36.5t58.5 97.5h22z" />
    <glyph glyph-name="Aogonek" unicode="&#x104;" horiz-adv-x="814" 
d="M765 0l-113 3q-80 -48 -89 -98q-6 -32 19.5 -50.5t56.5 -18.5q50 0 86 56q5 8 12.5 5t3.5 -12q-19 -42 -57.5 -69t-76.5 -27q-47 0 -74.5 27.5t-21.5 62.5q10 66 103 124q-79 0 -124 -3l5 31q82 0 87 29q1 4 -2 18l-31 153h-266l-70 -130q-7 -11 -8 -20q-3 -20 13 -35
t52 -15l-5 -31l-115 3q-39 0 -102 -3l5 31q41 0 70 14.5t37.5 25.5t18.5 29l320 597q4 8 6.5 11t7 5.5t12.5 2.5q12 0 15.5 -4t6.5 -18l127 -626q5 -22 18.5 -29.5t59.5 -7.5h18zM543 262l-67 330l-177 -330h244z" />
    <glyph glyph-name="aogonek" unicode="&#x105;" horiz-adv-x="613" 
d="M572 -100q-17 -38 -50 -61t-67 -23q-41 0 -64.5 24t-18.5 55q10 56 92 109l-88 -4l4 25q53 0 58 28q2 10 -11 60l-13 56h-207q-49 -88 -50 -99q0 -6 -0.5 -15.5t9 -19t28.5 -10.5l-4 -25l-82 3q-41 0 -74 -3l4 25q23 1 40.5 7.5t30.5 21t18 22t15 23.5l229 413q5 8 7 11
t6.5 5.5t11.5 2.5q14 0 18 -22l98 -444q5 -26 17 -33t54 -7l-4 -25q-63 3 -83 3q-71 -44 -78 -86q-5 -28 16.5 -44.5t47.5 -16.5q45 0 75 50q5 6 11.5 3.5t3.5 -9.5zM408 194l-52 241l-135 -241h187z" />
    <glyph glyph-name="Cacute" unicode="&#x106;" horiz-adv-x="786" 
d="M752 233q-16 -96 -107 -175.5t-211 -79.5q-150 0 -240 106t-65 258q25 151 151 257t275 106q109 0 182 -89l65 77q10 12 18 12q7 0 8 -4.5t0 -15.5q-1 -2 -1 -4l-40 -237q-2 -16 -5 -20t-15 -4q-9 0 -11 3t-2 14q2 111 -53.5 174t-139.5 63q-26 0 -56.5 -6t-74.5 -27
t-81 -55t-70 -97.5t-47 -147.5q-9 -70 -6 -122t23 -88.5t43 -60.5t54 -37.5t56.5 -18.5t50.5 -5q90 0 170.5 61t103.5 164q8 15 15 16q9 0 10.5 -5t-0.5 -12zM720 866q-1 -5 -4 -8.5t-6.5 -6.5t-6 -5t-6 -4t-4.5 -3l-194 -93l-10 22l166 121q23 19 37 19q17 0 25.5 -13
t2.5 -29z" />
    <glyph glyph-name="cacute" unicode="&#x107;" horiz-adv-x="591" 
d="M570 177q-12 -71 -80.5 -131t-160.5 -60q-114 0 -184 79t-51 192t115 192t210 79q83 0 135 -63l47 51q12 12 17 12q7 0 8 -6t-2 -18l-28 -169q-2 -15 -5 -19.5t-12 -4.5t-11 13q1 89 -42.5 134t-104.5 45q-18 0 -39 -4t-54 -19t-60.5 -40t-52.5 -72.5t-35 -110.5
q-7 -55 -4.5 -94.5t18.5 -66.5t33 -44t41 -26t40.5 -12t31.5 -3q67 0 127 45t78 121q3 16 14 16q13 0 11 -16zM579 742q-3 -16 -23 -30l-180 -123l-13 19l146 145q25 25 40 25q14 0 23 -11.5t7 -24.5z" />
    <glyph glyph-name="Ccircumflex" unicode="&#x108;" horiz-adv-x="786" 
d="M752 233q-16 -96 -107 -175.5t-211 -79.5q-150 0 -240 106t-65 258q25 151 151 257t275 106q109 0 182 -89l65 77q10 12 18 12q7 0 8 -4.5t0 -15.5q-1 -2 -1 -4l-40 -237q-2 -16 -5 -20t-15 -4q-9 0 -11 3t-2 14q2 111 -53.5 174t-139.5 63q-26 0 -56.5 -6t-74.5 -27
t-81 -55t-70 -97.5t-47 -147.5q-9 -70 -6 -122t23 -88.5t43 -60.5t54 -37.5t56.5 -18.5t50.5 -5q90 0 170.5 61t103.5 164q8 15 15 16q9 0 10.5 -5t-0.5 -12zM708 752l-14 -16l-129 66l-151 -66l-8 16l171 117z" />
    <glyph glyph-name="ccircumflex" unicode="&#x109;" horiz-adv-x="591" 
d="M570 177q-12 -71 -80.5 -131t-160.5 -60q-114 0 -184 79t-51 192t115 192t210 79q83 0 135 -63l47 51q12 12 17 12q7 0 8 -6t-2 -18l-28 -169q-2 -15 -5 -19.5t-12 -4.5t-11 13q1 89 -42.5 134t-104.5 45q-18 0 -39 -4t-54 -19t-60.5 -40t-52.5 -72.5t-35 -110.5
q-7 -55 -4.5 -94.5t18.5 -66.5t33 -44t41 -26t40.5 -12t31.5 -3q67 0 127 45t78 121q3 16 14 16q13 0 11 -16zM579 610l-15 -14l-121 108l-157 -108l-11 14l179 162z" />
    <glyph glyph-name="Cdotaccent" unicode="&#x10a;" horiz-adv-x="786" 
d="M752 233q-16 -96 -107 -175.5t-211 -79.5q-150 0 -240 106t-65 258q25 151 151 257t275 106q109 0 182 -89l65 77q10 12 18 12q7 0 8 -4.5t0 -15.5q-1 -2 -1 -4l-40 -237q-2 -16 -5 -20t-15 -4q-9 0 -11 3t-2 14q2 111 -53.5 174t-139.5 63q-26 0 -56.5 -6t-74.5 -27
t-81 -55t-70 -97.5t-47 -147.5q-9 -70 -6 -122t23 -88.5t43 -60.5t54 -37.5t56.5 -18.5t50.5 -5q90 0 170.5 61t103.5 164q8 15 15 16q9 0 10.5 -5t-0.5 -12zM620 811q-3 -22 -21 -37.5t-40 -15.5t-35 15.5t-10 37.5q4 22 22 37.5t40 15.5t35 -15.5t9 -37.5z" />
    <glyph glyph-name="cdotaccent" unicode="&#x10b;" horiz-adv-x="591" 
d="M570 177q-12 -71 -80.5 -131t-160.5 -60q-114 0 -184 79t-51 192t115 192t210 79q83 0 135 -63l47 51q12 12 17 12q7 0 8 -6t-2 -18l-28 -169q-2 -15 -5 -19.5t-12 -4.5t-11 13q1 89 -42.5 134t-104.5 45q-18 0 -39 -4t-54 -19t-60.5 -40t-52.5 -72.5t-35 -110.5
q-7 -55 -4.5 -94.5t18.5 -66.5t33 -44t41 -26t40.5 -12t31.5 -3q67 0 127 45t78 121q3 16 14 16q13 0 11 -16zM492 684q-4 -22 -22 -37.5t-40 -15.5t-35 15.5t-9 37.5t22 37.5t40 15.5t35 -15.5t9 -37.5z" />
    <glyph glyph-name="Ccaron" unicode="&#x10c;" horiz-adv-x="786" 
d="M752 233q-16 -96 -107 -175.5t-211 -79.5q-150 0 -240 106t-65 258q25 151 151 257t275 106q109 0 182 -89l65 77q10 12 18 12q7 0 8 -4.5t0 -15.5q-1 -2 -1 -4l-40 -237q-2 -16 -5 -20t-15 -4q-9 0 -11 3t-2 14q2 111 -53.5 174t-139.5 63q-26 0 -56.5 -6t-74.5 -27
t-81 -55t-70 -97.5t-47 -147.5q-9 -70 -6 -122t23 -88.5t43 -60.5t54 -37.5t56.5 -18.5t50.5 -5q90 0 170.5 61t103.5 164q8 15 15 16q9 0 10.5 -5t-0.5 -12zM725 853l-170 -117l-132 117l15 16l129 -66l151 66z" />
    <glyph glyph-name="ccaron" unicode="&#x10d;" horiz-adv-x="591" 
d="M570 177q-12 -71 -80.5 -131t-160.5 -60q-114 0 -184 79t-51 192t115 192t210 79q83 0 135 -63l47 51q12 12 17 12q7 0 8 -6t-2 -18l-28 -169q-2 -15 -5 -19.5t-12 -4.5t-11 13q1 89 -42.5 134t-104.5 45q-18 0 -39 -4t-54 -19t-60.5 -40t-52.5 -72.5t-35 -110.5
q-7 -55 -4.5 -94.5t18.5 -66.5t33 -44t41 -26t40.5 -12t31.5 -3q67 0 127 45t78 121q3 16 14 16q13 0 11 -16zM604 758l-179 -162l-125 162l15 14l121 -108l157 108z" />
    <glyph glyph-name="Dcaron" unicode="&#x10e;" horiz-adv-x="829" 
d="M812 336q-23 -140 -133.5 -238t-243.5 -98h-378l5 31h24q54 0 68 9t19 38l88 527q5 29 -6 38t-65 9h-24l5 31h378q133 0 210 -102t53 -245zM712 336q25 147 -19 222q-55 94 -176 94h-113q-34 0 -42.5 -7t-13.5 -33l-90 -541q-5 -26 1.5 -33t40.5 -7h113q115 0 196 78
q77 75 103 227zM645 853l-170 -117l-132 117l15 16l129 -66l151 66z" />
    <glyph glyph-name="dcaron" unicode="&#x10f;" horiz-adv-x="624" 
d="M615 253q-17 -104 -101 -178.5t-188 -74.5h-281l4 25q49 0 62 8t18 39l62 370q5 31 -5 39t-59 8l4 25h281q106 0 163.5 -77.5t39.5 -183.5zM532 253q19 115 -15 171q-40 65 -132 65h-77q-27 0 -35 -7t-13 -36l-63 -378q-4 -30 1 -36.5t32 -6.5h77q101 0 163 72
q46 54 62 156zM544 758l-179 -162l-125 162l15 14l121 -108l157 108z" />
    <glyph glyph-name="Dcroat" unicode="&#x110;" horiz-adv-x="829" 
d="M812 336q-23 -140 -133.5 -238t-243.5 -98h-378l5 31h24q54 0 68 9t19 38l42 249h-103l5 30h103l41 248q5 29 -6 38t-65 9h-24l5 31h378q133 0 210 -102t53 -245zM712 336q25 147 -19 222q-55 94 -176 94h-113q-34 0 -42.5 -7t-13.5 -33l-42 -255h169l-5 -30h-169
l-43 -256q-5 -26 1.5 -33t40.5 -7h113q115 0 196 78q77 75 103 227z" />
    <glyph glyph-name="dcroat" unicode="&#x111;" horiz-adv-x="624" 
d="M615 253q-17 -104 -101 -178.5t-188 -74.5h-281l4 25q49 0 62 8t18 39l29 172h-72l4 26h72l29 172q5 31 -5 39t-59 8l4 25h281q106 0 163.5 -77.5t39.5 -183.5zM532 253q19 115 -15 171q-40 65 -132 65h-77q-27 0 -35 -7t-13 -36l-29 -176h126l-4 -26h-126l-30 -176
q-4 -30 1 -36.5t32 -6.5h77q101 0 163 72q46 54 62 156z" />
    <glyph glyph-name="Emacron" unicode="&#x112;" horiz-adv-x="742" 
d="M741 258l-85 -258h-601l5 31h24q54 0 68 9t19 38l87 524q5 29 -6 38t-65 9h-24l5 31h586l-9 -225h-25q3 57 -1.5 91t-23 59t-54 34.5t-94.5 9.5h-143q-34 0 -42.5 -7t-12.5 -33l-40 -240h98q71 0 96 24t36 93h25l-44 -265h-25q11 69 -6 93t-88 24h-98l-44 -267
q-5 -26 1.5 -33t40.5 -7h151q53 0 91 9.5t63.5 25.5t46 47t33.5 62t30 83h25zM686 756h-378l5 31h378z" />
    <glyph glyph-name="emacron" unicode="&#x113;" horiz-adv-x="558" 
d="M561 194l-61 -194h-457l4 25q49 0 62 8t18 39l61 367q5 31 -5 39t-59 8l4 25h445l-9 -169h-25q5 84 -19.5 114t-109.5 30h-102q-27 0 -34.5 -6.5t-12.5 -36.5l-28 -165h70q54 0 73 17.5t28 69.5h25l-33 -199h-25q9 52 -4.5 69.5t-67.5 17.5h-70l-31 -185q-4 -30 1 -36.5
t32 -6.5h108q63 0 100.5 18.5t57 51.5t39.5 99h25zM579 668h-378l5 31h378z" />
    <glyph glyph-name="Ebreve" unicode="&#x114;" horiz-adv-x="742" 
d="M741 258l-85 -258h-601l5 31h24q54 0 68 9t19 38l87 524q5 29 -6 38t-65 9h-24l5 31h586l-9 -225h-25q3 57 -1.5 91t-23 59t-54 34.5t-94.5 9.5h-143q-34 0 -42.5 -7t-12.5 -33l-40 -240h98q71 0 96 24t36 93h25l-44 -265h-25q11 69 -6 93t-88 24h-98l-44 -267
q-5 -26 1.5 -33t40.5 -7h151q53 0 91 9.5t63.5 25.5t46 47t33.5 62t30 83h25zM680 918q-13 -74 -67 -123t-118 -49t-101.5 49t-25.5 123h22q-9 -61 25.5 -97.5t86.5 -36.5t98.5 36.5t57.5 97.5h22z" />
    <glyph glyph-name="ebreve" unicode="&#x115;" horiz-adv-x="558" 
d="M561 194l-61 -194h-457l4 25q49 0 62 8t18 39l61 367q5 31 -5 39t-59 8l4 25h445l-9 -169h-25q5 84 -19.5 114t-109.5 30h-102q-27 0 -34.5 -6.5t-12.5 -36.5l-28 -165h70q54 0 73 17.5t28 69.5h25l-33 -199h-25q9 52 -4.5 69.5t-67.5 17.5h-70l-31 -185q-4 -30 1 -36.5
t32 -6.5h108q63 0 100.5 18.5t57 51.5t39.5 99h25zM563 770q-13 -74 -67 -123t-118 -49t-101.5 49t-25.5 123h22q-9 -61 25 -97.5t86 -36.5t98.5 36.5t58.5 97.5h22z" />
    <glyph glyph-name="Edotaccent" unicode="&#x116;" horiz-adv-x="742" 
d="M741 258l-85 -258h-601l5 31h24q54 0 68 9t19 38l87 524q5 29 -6 38t-65 9h-24l5 31h586l-9 -225h-25q3 57 -1.5 91t-23 59t-54 34.5t-94.5 9.5h-143q-34 0 -42.5 -7t-12.5 -33l-40 -240h98q71 0 96 24t36 93h25l-44 -265h-25q11 69 -6 93t-88 24h-98l-44 -267
q-5 -26 1.5 -33t40.5 -7h151q53 0 91 9.5t63.5 25.5t46 47t33.5 62t30 83h25zM559 811q-3 -22 -21 -37.5t-40 -15.5t-35 15.5t-10 37.5q4 22 22 37.5t40 15.5t35 -15.5t9 -37.5z" />
    <glyph glyph-name="edotaccent" unicode="&#x117;" horiz-adv-x="558" 
d="M561 194l-61 -194h-457l4 25q49 0 62 8t18 39l61 367q5 31 -5 39t-59 8l4 25h445l-9 -169h-25q5 84 -19.5 114t-109.5 30h-102q-27 0 -34.5 -6.5t-12.5 -36.5l-28 -165h70q54 0 73 17.5t28 69.5h25l-33 -199h-25q9 52 -4.5 69.5t-67.5 17.5h-70l-31 -185q-4 -30 1 -36.5
t32 -6.5h108q63 0 100.5 18.5t57 51.5t39.5 99h25zM446 684q-4 -22 -22 -37.5t-40 -15.5t-35 15.5t-9 37.5t22 37.5t40 15.5t35 -15.5t9 -37.5z" />
    <glyph glyph-name="Eogonek" unicode="&#x118;" horiz-adv-x="742" 
d="M741 258l-85 -258h-121q-43 -30 -60 -48.5t-22 -46.5q-6 -32 19.5 -50.5t56.5 -18.5q50 0 86 56q5 8 12.5 5t3.5 -12q-19 -42 -57.5 -69t-76.5 -27q-47 0 -74.5 27.5t-21.5 62.5q11 70 97 121h-443l5 31h24q54 0 68 9t19 38l87 524q5 29 -6 38t-65 9h-24l5 31h586
l-9 -225h-25q3 57 -1.5 91t-23 59t-54 34.5t-94.5 9.5h-143q-34 0 -42.5 -7t-12.5 -33l-40 -240h98q71 0 96 24t36 93h25l-44 -265h-25q11 69 -6 93t-88 24h-98l-44 -267q-5 -26 1.5 -33t40.5 -7h151q53 0 91 9.5t63.5 25.5t46 47t33.5 62t30 83h25z" />
    <glyph glyph-name="eogonek" unicode="&#x119;" horiz-adv-x="558" 
d="M561 194l-61 -194h-98q-67 -41 -74 -83q-5 -28 16.5 -44.5t47.5 -16.5q45 0 75 50q5 6 11.5 3.5t3.5 -9.5q-17 -38 -50 -61t-67 -23q-41 0 -64.5 24t-18.5 55q10 54 85 105h-324l4 25q49 0 62 8t18 39l61 367q5 31 -5 39t-59 8l4 25h445l-9 -169h-25q5 84 -19.5 114
t-109.5 30h-102q-27 0 -34.5 -6.5t-12.5 -36.5l-28 -165h70q54 0 73 17.5t28 69.5h25l-33 -199h-25q9 52 -4.5 69.5t-67.5 17.5h-70l-31 -185q-4 -30 1 -36.5t32 -6.5h108q63 0 100.5 18.5t57 51.5t39.5 99h25z" />
    <glyph glyph-name="Ecaron" unicode="&#x11a;" horiz-adv-x="742" 
d="M741 258l-85 -258h-601l5 31h24q54 0 68 9t19 38l87 524q5 29 -6 38t-65 9h-24l5 31h586l-9 -225h-25q3 57 -1.5 91t-23 59t-54 34.5t-94.5 9.5h-143q-34 0 -42.5 -7t-12.5 -33l-40 -240h98q71 0 96 24t36 93h25l-44 -265h-25q11 69 -6 93t-88 24h-98l-44 -267
q-5 -26 1.5 -33t40.5 -7h151q53 0 91 9.5t63.5 25.5t46 47t33.5 62t30 83h25zM664 853l-170 -117l-132 117l15 16l129 -66l151 66z" />
    <glyph glyph-name="ecaron" unicode="&#x11b;" horiz-adv-x="558" 
d="M561 194l-61 -194h-457l4 25q49 0 62 8t18 39l61 367q5 31 -5 39t-59 8l4 25h445l-9 -169h-25q5 84 -19.5 114t-109.5 30h-102q-27 0 -34.5 -6.5t-12.5 -36.5l-28 -165h70q54 0 73 17.5t28 69.5h25l-33 -199h-25q9 52 -4.5 69.5t-67.5 17.5h-70l-31 -185q-4 -30 1 -36.5
t32 -6.5h108q63 0 100.5 18.5t57 51.5t39.5 99h25zM557 758l-179 -162l-125 162l15 14l121 -108l157 108z" />
    <glyph glyph-name="Gcircumflex" unicode="&#x11c;" horiz-adv-x="851" 
d="M825 242q-49 0 -62 -6t-18 -38l-29 -174q-3 -23 -13 -23q-8 0 -27 22.5t-26 39.5q-32 -42 -91.5 -63.5t-123.5 -21.5q-152 0 -241.5 106.5t-64.5 257.5q25 150 150.5 256.5t275.5 106.5q37 0 68 -8.5t54 -25.5t33.5 -27t25.5 -28l65 77q10 12 18 12q7 0 8 -4.5t0 -15.5
q-1 -2 -1 -4l-40 -237q-2 -16 -5 -20t-15 -4q-9 0 -11 3t-2 14q2 112 -53 174.5t-139 62.5q-29 0 -61.5 -7t-76 -29t-79.5 -56.5t-67.5 -97t-44.5 -142.5q-9 -70 -6 -122t23.5 -89t44 -61t55 -37.5t57.5 -18.5t52 -5q11 0 23 0.5t41.5 7t52 18t43.5 36.5t27 59l10 64
q3 17 1 27.5t-22 15.5t-67 5h-35l6 31q35 -3 165 -3l128 3zM701 752l-14 -16l-129 66l-151 -66l-8 16l171 117z" />
    <glyph glyph-name="gcircumflex" unicode="&#x11d;" horiz-adv-x="641" 
d="M625 182q-38 0 -48 -7.5t-15 -37.5l-19 -113q-3 -23 -13 -23q-8 0 -22.5 16.5t-19.5 28.5q-53 -60 -158 -60q-117 0 -186 79.5t-50 191.5q19 113 115 192t209 79q87 0 135 -63l47 51q12 12 17 12q11 0 6 -24l-28 -169q-2 -15 -5 -19.5t-12 -4.5t-11 13q1 89 -42 134
t-104 45q-19 0 -41 -4t-54.5 -19.5t-59.5 -40.5t-51.5 -72.5t-34.5 -109.5q-7 -53 -5 -92t17.5 -66.5t33 -44.5t41 -26.5t41.5 -13t36 -3.5q51 0 88 20q20 11 32 24t14.5 21.5t5.5 24.5l5 30q6 32 -6 41.5t-66 9.5h-20l5 25q34 -3 128 -3q49 0 100 3zM574 610l-15 -14
l-121 108l-157 -108l-11 14l179 162z" />
    <glyph glyph-name="Gbreve" unicode="&#x11e;" horiz-adv-x="851" 
d="M825 242q-49 0 -62 -6t-18 -38l-29 -174q-3 -23 -13 -23q-8 0 -27 22.5t-26 39.5q-32 -42 -91.5 -63.5t-123.5 -21.5q-152 0 -241.5 106.5t-64.5 257.5q25 150 150.5 256.5t275.5 106.5q37 0 68 -8.5t54 -25.5t33.5 -27t25.5 -28l65 77q10 12 18 12q7 0 8 -4.5t0 -15.5
q-1 -2 -1 -4l-40 -237q-2 -16 -5 -20t-15 -4q-9 0 -11 3t-2 14q2 112 -53 174.5t-139 62.5q-29 0 -61.5 -7t-76 -29t-79.5 -56.5t-67.5 -97t-44.5 -142.5q-9 -70 -6 -122t23.5 -89t44 -61t55 -37.5t57.5 -18.5t52 -5q11 0 23 0.5t41.5 7t52 18t43.5 36.5t27 59l10 64
q3 17 1 27.5t-22 15.5t-67 5h-35l6 31q35 -3 165 -3l128 3zM734 918q-13 -74 -67 -123t-118 -49t-101.5 49t-25.5 123h22q-9 -61 25.5 -97.5t86.5 -36.5t98.5 36.5t57.5 97.5h22z" />
    <glyph glyph-name="gbreve" unicode="&#x11f;" horiz-adv-x="641" 
d="M625 182q-38 0 -48 -7.5t-15 -37.5l-19 -113q-3 -23 -13 -23q-8 0 -22.5 16.5t-19.5 28.5q-53 -60 -158 -60q-117 0 -186 79.5t-50 191.5q19 113 115 192t209 79q87 0 135 -63l47 51q12 12 17 12q11 0 6 -24l-28 -169q-2 -15 -5 -19.5t-12 -4.5t-11 13q1 89 -42 134
t-104 45q-19 0 -41 -4t-54.5 -19.5t-59.5 -40.5t-51.5 -72.5t-34.5 -109.5q-7 -53 -5 -92t17.5 -66.5t33 -44.5t41 -26.5t41.5 -13t36 -3.5q51 0 88 20q20 11 32 24t14.5 21.5t5.5 24.5l5 30q6 32 -6 41.5t-66 9.5h-20l5 25q34 -3 128 -3q49 0 100 3zM605 770
q-13 -74 -67 -123t-118 -49t-101.5 49t-25.5 123h22q-9 -61 25 -97.5t86 -36.5t98.5 36.5t58.5 97.5h22z" />
    <glyph glyph-name="Gdotaccent" unicode="&#x120;" horiz-adv-x="851" 
d="M825 242q-49 0 -62 -6t-18 -38l-29 -174q-3 -23 -13 -23q-8 0 -27 22.5t-26 39.5q-32 -42 -91.5 -63.5t-123.5 -21.5q-152 0 -241.5 106.5t-64.5 257.5q25 150 150.5 256.5t275.5 106.5q37 0 68 -8.5t54 -25.5t33.5 -27t25.5 -28l65 77q10 12 18 12q7 0 8 -4.5t0 -15.5
q-1 -2 -1 -4l-40 -237q-2 -16 -5 -20t-15 -4q-9 0 -11 3t-2 14q2 112 -53 174.5t-139 62.5q-29 0 -61.5 -7t-76 -29t-79.5 -56.5t-67.5 -97t-44.5 -142.5q-9 -70 -6 -122t23.5 -89t44 -61t55 -37.5t57.5 -18.5t52 -5q11 0 23 0.5t41.5 7t52 18t43.5 36.5t27 59l10 64
q3 17 1 27.5t-22 15.5t-67 5h-35l6 31q35 -3 165 -3l128 3zM614 811q-3 -22 -21 -37.5t-40 -15.5t-35 15.5t-10 37.5q4 22 22 37.5t40 15.5t35 -15.5t9 -37.5z" />
    <glyph glyph-name="gdotaccent" unicode="&#x121;" horiz-adv-x="641" 
d="M625 182q-38 0 -48 -7.5t-15 -37.5l-19 -113q-3 -23 -13 -23q-8 0 -22.5 16.5t-19.5 28.5q-53 -60 -158 -60q-117 0 -186 79.5t-50 191.5q19 113 115 192t209 79q87 0 135 -63l47 51q12 12 17 12q11 0 6 -24l-28 -169q-2 -15 -5 -19.5t-12 -4.5t-11 13q1 89 -42 134
t-104 45q-19 0 -41 -4t-54.5 -19.5t-59.5 -40.5t-51.5 -72.5t-34.5 -109.5q-7 -53 -5 -92t17.5 -66.5t33 -44.5t41 -26.5t41.5 -13t36 -3.5q51 0 88 20q20 11 32 24t14.5 21.5t5.5 24.5l5 30q6 32 -6 41.5t-66 9.5h-20l5 25q34 -3 128 -3q49 0 100 3zM488 684
q-4 -22 -22 -37.5t-40 -15.5t-35 15.5t-9 37.5t22 37.5t40 15.5t35 -15.5t9 -37.5z" />
    <glyph glyph-name="Gcommaaccent" unicode="&#x122;" horiz-adv-x="851" 
d="M825 242q-49 0 -62 -6t-18 -38l-29 -174q-3 -23 -13 -23q-8 0 -27 22.5t-26 39.5q-32 -42 -91.5 -63.5t-123.5 -21.5q-152 0 -241.5 106.5t-64.5 257.5q25 150 150.5 256.5t275.5 106.5q37 0 68 -8.5t54 -25.5t33.5 -27t25.5 -28l65 77q10 12 18 12q7 0 8 -4.5t0 -15.5
q-1 -2 -1 -4l-40 -237q-2 -16 -5 -20t-15 -4q-9 0 -11 3t-2 14q2 112 -53 174.5t-139 62.5q-29 0 -61.5 -7t-76 -29t-79.5 -56.5t-67.5 -97t-44.5 -142.5q-9 -70 -6 -122t23.5 -89t44 -61t55 -37.5t57.5 -18.5t52 -5q11 0 23 0.5t41.5 7t52 18t43.5 36.5t27 59l10 64
q3 17 1 27.5t-22 15.5t-67 5h-35l6 31q35 -3 165 -3l128 3zM446 -145q-7 -39 -29 -75t-40.5 -53t-24.5 -17q-9 0 -7 8q0 3 9 10q63 56 75 127q1 8 1 14q-13 -14 -33 -14q-19 0 -27.5 11.5t-6.5 27.5q3 16 16 28t31 12q24 0 33 -22.5t3 -56.5z" />
    <glyph glyph-name="gcommaaccent" unicode="&#x123;" horiz-adv-x="641" 
d="M625 182q-38 0 -48 -7.5t-15 -37.5l-19 -113q-3 -23 -13 -23q-8 0 -22.5 16.5t-19.5 28.5q-53 -60 -158 -60q-117 0 -186 79.5t-50 191.5q19 113 115 192t209 79q87 0 135 -63l47 51q12 12 17 12q11 0 6 -24l-28 -169q-2 -15 -5 -19.5t-12 -4.5t-11 13q1 89 -42 134
t-104 45q-19 0 -41 -4t-54.5 -19.5t-59.5 -40.5t-51.5 -72.5t-34.5 -109.5q-7 -53 -5 -92t17.5 -66.5t33 -44.5t41 -26.5t41.5 -13t36 -3.5q51 0 88 20q20 11 32 24t14.5 21.5t5.5 24.5l5 30q6 32 -6 41.5t-66 9.5h-20l5 25q34 -3 128 -3q49 0 100 3zM341 -145
q-7 -39 -29 -75t-40.5 -53t-24.5 -17q-9 0 -7 8q0 3 9 10q63 56 75 127q1 8 1 14q-13 -14 -33 -14q-19 0 -27.5 11.5t-6.5 27.5q3 16 16 28t31 12q24 0 33 -22.5t3 -56.5z" />
    <glyph glyph-name="Hcircumflex" unicode="&#x124;" horiz-adv-x="814" 
d="M758 0q-34 3 -147 3q-112 0 -148 -3l5 31h24q54 0 68 9t19 38l44 262h-319l-44 -262q-5 -29 6 -38t65 -9h24l-5 -31q-34 3 -147 3q-112 0 -148 -3l5 31h24q54 0 68 9t19 38l88 527q5 29 -6 38t-65 9h-24l5 31q34 -3 147 -3q112 0 148 3l-5 -31h-24q-54 0 -68 -9t-19 -38
l-39 -234h319l39 234q5 29 -6 38t-65 9h-24l5 31q34 -3 147 -3q112 0 148 3l-5 -31h-24q-54 0 -68 -9t-19 -38l-88 -527q-5 -29 6 -38t65 -9h24zM683 752l-14 -16l-129 66l-151 -66l-8 16l171 117z" />
    <glyph glyph-name="hcircumflex" unicode="&#x125;" horiz-adv-x="613" 
d="M570 0l-107 3l-109 -3l4 25q49 0 62 8t18 39l31 183h-239l-31 -183q-5 -31 5 -39t59 -8l-4 -25l-107 3l-109 -3l4 25q49 0 62 8t18 39l62 370q5 31 -5 39t-59 8l4 25l107 -3l109 3l-4 -25q-49 0 -62 -8t-18 -39l-27 -162h239l27 162q5 31 -5 39t-59 8l4 25l107 -3l109 3
l-4 -25q-49 0 -62 -8t-18 -39l-62 -370q-5 -31 5 -39t59 -8zM560 610l-15 -14l-121 108l-157 -108l-11 14l179 162z" />
    <glyph glyph-name="Hbar" unicode="&#x126;" horiz-adv-x="814" 
d="M758 0q-34 3 -147 3q-112 0 -148 -3l5 31h24q54 0 68 9t19 38l44 262h-319l-44 -262q-5 -29 6 -38t65 -9h24l-5 -31q-34 3 -147 3q-112 0 -148 -3l5 31h24q54 0 68 9t19 38l70 420h-103l5 30h103l13 77q5 29 -6 38t-65 9h-24l5 31q34 -3 147 -3q112 0 148 3l-5 -31h-24
q-54 0 -68 -9t-19 -38l-13 -77h319l13 77q5 29 -6 38t-65 9h-24l5 31q34 -3 147 -3q112 0 148 3l-5 -31h-24q-54 0 -68 -9t-19 -38l-13 -77h103l-5 -30h-103l-70 -420q-5 -29 6 -38t65 -9h24zM628 371l21 127h-319l-21 -127h319z" />
    <glyph glyph-name="hbar" unicode="&#x127;" horiz-adv-x="613" 
d="M570 0l-107 3l-109 -3l4 25q49 0 62 8t18 39l31 183h-239l-31 -183q-5 -31 5 -39t59 -8l-4 -25l-107 3l-109 -3l4 25q49 0 62 8t18 39l50 298h-72l5 30h72l7 42q5 31 -5 39t-59 8l4 25l107 -3l109 3l-4 -25q-49 0 -62 -8t-18 -39l-7 -42h239l7 42q5 31 -5 39t-59 8l4 25
l107 -3l109 3l-4 -25q-49 0 -62 -8t-18 -39l-7 -42h72l-5 -30h-72l-50 -298q-5 -31 5 -39t59 -8zM473 280l15 90h-239l-15 -90h239z" />
    <glyph glyph-name="Itilde" unicode="&#x128;" horiz-adv-x="406" 
d="M355 0q-34 3 -152 3q-117 0 -153 -3l5 31h26q56 0 70.5 9t19.5 38l88 527q5 29 -6.5 38t-67.5 9h-26l5 31q34 -3 152 -3q117 0 153 3l-5 -31h-26q-56 0 -70.5 -9t-19.5 -38l-88 -527q-5 -29 6.5 -38t67.5 -9h26zM514 815q-39 -35 -54.5 -47.5t-34.5 -22t-38 -9.5
q-25 0 -67 27q-34 22 -58 22q-45 0 -94 -49l-15 15q39 35 54.5 47.5t34.5 22t38 9.5q25 0 67 -27q34 -22 58 -22q44 0 94 49z" />
    <glyph glyph-name="itilde" unicode="&#x129;" horiz-adv-x="302" 
d="M263 0l-111 3l-113 -3l4 25q53 0 66 7.5t18 40.5l62 368q5 33 -5 40.5t-63 7.5l4 25l111 -3l113 3l-4 -25q-53 0 -66 -7.5t-18 -40.5l-62 -368q-5 -33 5 -40.5t63 -7.5zM446 716q-54 -48 -77.5 -63.5t-50.5 -15.5q-24 0 -66 27q-34 22 -58 22q-45 0 -95 -49l-14 15
q53 48 76.5 63.5t50.5 15.5q25 0 67 -27q32 -22 58 -22q44 0 94 49z" />
    <glyph glyph-name="Imacron" unicode="&#x12a;" horiz-adv-x="406" 
d="M355 0q-34 3 -152 3q-117 0 -153 -3l5 31h26q56 0 70.5 9t19.5 38l88 527q5 29 -6.5 38t-67.5 9h-26l5 31q34 -3 152 -3q117 0 153 3l-5 -31h-26q-56 0 -70.5 -9t-19.5 -38l-88 -527q-5 -29 6.5 -38t67.5 -9h26zM518 756h-378l5 31h378z" />
    <glyph glyph-name="imacron" unicode="&#x12b;" horiz-adv-x="302" 
d="M263 0l-111 3l-113 -3l4 25q53 0 66 7.5t18 40.5l62 368q5 33 -5 40.5t-63 7.5l4 25l111 -3l113 3l-4 -25q-53 0 -66 -7.5t-18 -40.5l-62 -368q-5 -33 5 -40.5t63 -7.5zM452 668h-378l5 31h378z" />
    <glyph glyph-name="Ibreve" unicode="&#x12c;" horiz-adv-x="406" 
d="M355 0q-34 3 -152 3q-117 0 -153 -3l5 31h26q56 0 70.5 9t19.5 38l88 527q5 29 -6.5 38t-67.5 9h-26l5 31q34 -3 152 -3q117 0 153 3l-5 -31h-26q-56 0 -70.5 -9t-19.5 -38l-88 -527q-5 -29 6.5 -38t67.5 -9h26zM512 918q-13 -74 -67 -123t-118 -49t-101.5 49t-25.5 123
h22q-9 -61 25.5 -97.5t86.5 -36.5t98.5 36.5t57.5 97.5h22z" />
    <glyph glyph-name="ibreve" unicode="&#x12d;" horiz-adv-x="302" 
d="M263 0l-111 3l-113 -3l4 25q53 0 66 7.5t18 40.5l62 368q5 33 -5 40.5t-63 7.5l4 25l111 -3l113 3l-4 -25q-53 0 -66 -7.5t-18 -40.5l-62 -368q-5 -33 5 -40.5t63 -7.5zM436 770q-13 -74 -67 -123t-118 -49t-101.5 49t-25.5 123h22q-9 -61 25 -97.5t86 -36.5t98.5 36.5
t58.5 97.5h22z" />
    <glyph glyph-name="Iogonek" unicode="&#x12e;" horiz-adv-x="406" 
d="M338 -100q-17 -38 -50 -61t-67 -23q-41 0 -64.5 24t-18.5 55q6 32 31 60q31 32 62 48h-28q-117 0 -153 -3l5 31h26q56 0 70.5 9t19.5 38l88 527q5 29 -6.5 38t-67.5 9h-26l5 31q34 -3 152 -3q117 0 153 3l-5 -31h-26q-56 0 -70.5 -9t-19.5 -38l-88 -527q-5 -29 6.5 -38
t67.5 -9h26l-5 -31q-5 0 -88 3q-31 -14 -55 -38q-24 -26 -28 -48q-5 -28 16.5 -44.5t47.5 -16.5q45 0 75 50q5 6 11.5 3.5t3.5 -9.5z" />
    <glyph glyph-name="iogonek" unicode="&#x12f;" horiz-adv-x="302" 
d="M263 0l-100 3q-30 -13 -55 -38q-24 -26 -28 -48q-5 -28 16.5 -44.5t47.5 -16.5q45 0 75 50q5 6 11.5 3.5t3.5 -9.5q-17 -38 -50 -61t-67 -23q-41 0 -64.5 24t-18.5 55q6 32 31 60q28 29 61 48l-87 -3l4 25q53 0 66 7.5t18 40.5l62 368q5 33 -5 40.5t-63 7.5l4 25l111 -3
l113 3l-4 -25q-53 0 -66 -7.5t-18 -40.5l-62 -368q-5 -33 5 -40.5t63 -7.5z" />
    <glyph glyph-name="Idotaccent" unicode="&#x130;" horiz-adv-x="406" 
d="M355 0q-34 3 -152 3q-117 0 -153 -3l5 31h26q56 0 70.5 9t19.5 38l88 527q5 29 -6.5 38t-67.5 9h-26l5 31q34 -3 152 -3q117 0 153 3l-5 -31h-26q-56 0 -70.5 -9t-19.5 -38l-88 -527q-5 -29 6.5 -38t67.5 -9h26zM391 811q-3 -22 -21 -37.5t-40 -15.5t-35 15.5t-10 37.5
q4 22 22 37.5t40 15.5t35 -15.5t9 -37.5z" />
    <glyph glyph-name="dotlessi" unicode="&#x131;" horiz-adv-x="302" 
d="M263 0l-111 3l-113 -3l4 25q53 0 66 7.5t18 40.5l62 368q5 33 -5 40.5t-63 7.5l4 25l111 -3l113 3l-4 -25q-53 0 -66 -7.5t-18 -40.5l-62 -368q-5 -33 5 -40.5t63 -7.5z" />
    <glyph glyph-name="Jcircumflex" unicode="&#x134;" horiz-adv-x="567" 
d="M607 652q-51 0 -65 -6t-19 -36l-74 -444q-7 -37 -8 -41q-20 -66 -82.5 -106.5t-133.5 -40.5t-112 39.5t-32 94.5q5 30 24.5 44t40.5 14q23 0 37 -15t10 -41q-9 -56 -73 -56q10 -25 39.5 -41.5t66.5 -16.5q44 0 83.5 40t50.5 109l76 455q4 17 1 28t-23 15.5t-68 4.5h-36
l5 31q37 -3 167 -3l130 3zM626 752l-14 -16l-129 66l-151 -66l-8 16l171 117z" />
    <glyph glyph-name="jcircumflex" unicode="&#x135;" horiz-adv-x="424" 
d="M453 489q-40 0 -48.5 -9t-16.5 -56l-47 -280q-8 -47 -10 -52q-17 -48 -63 -77t-99 -29t-84.5 29t-24.5 69q4 21 17.5 32t31.5 11q17 0 27 -12t7 -29q-2 -15 -13.5 -28t-36.5 -14q24 -36 77 -36q29 0 58.5 26.5t38.5 81.5l54 323q6 31 -5 40.5t-62 9.5h-18l4 25
q39 -3 121 -3q59 0 96 3zM516 610l-15 -14l-121 108l-157 -108l-11 14l179 162z" />
    <glyph glyph-name="Kcommaaccent" unicode="&#x136;" horiz-adv-x="843" 
d="M785 0l-115 3q-108 0 -144 -3l5 31q57 0 62 29q2 10 -10 34l-149 271l-145 -114l-29 -173q-5 -29 6 -38t65 -9h24l-5 -31q-34 3 -147 3q-112 0 -148 -3l5 31h24q54 0 68 9t19 38l88 527q5 29 -6 38t-65 9h-24l5 31q34 -3 147 -3q112 0 148 3l-5 -31h-24q-54 0 -68 -9
t-19 -38l-53 -320l383 300q24 20 26 35q1 6 0 12.5t-10.5 13t-26.5 6.5l5 31q33 -3 126 -3q59 0 86 3l-5 -31q-83 -1 -157 -61l-218 -172l184 -337q10 -19 20 -29.5t24.5 -15t25 -5.5t32.5 -1zM442 -145q-7 -39 -29 -75t-40.5 -53t-24.5 -17q-9 0 -7 8q0 3 9 10
q63 56 75 127q1 8 1 14q-13 -14 -33 -14q-19 0 -27.5 11.5t-6.5 27.5q3 16 16 28t31 12q24 0 33 -22.5t3 -56.5z" />
    <glyph glyph-name="kcommaaccent" unicode="&#x137;" horiz-adv-x="636" 
d="M595 0q-41 3 -84 3l-105 -3l4 25q33 0 36 21q3 18 -15 46l-103 179l-110 -85l-19 -114q-5 -31 5 -39t59 -8l-4 -25l-107 3l-109 -3l4 25q49 0 62 8t18 39l62 370q5 31 -5 39t-59 8l4 25l107 -3l109 3l-4 -25q-49 0 -62 -8t-18 -39l-37 -222l258 197q37 29 41 53
q3 16 -13 19l4 25q42 -3 92 -3q28 0 64 3l-4 -25q-27 -2 -46 -9t-75.5 -45.5t-161.5 -121.5l134 -234q20 -35 37 -44.5t45 -9.5zM338 -145q-7 -39 -29 -75t-40.5 -53t-24.5 -17q-9 0 -7 8q0 3 9 10q63 56 75 127q1 8 1 14q-13 -14 -33 -14q-19 0 -27.5 11.5t-6.5 27.5
q3 16 16 28t31 12q24 0 33 -22.5t3 -56.5z" />
    <glyph glyph-name="Lacute" unicode="&#x139;" horiz-adv-x="683" 
d="M667 258l-71 -258h-541l5 31h24q54 0 68 9t19 38l88 527q5 29 -6 38t-65 9h-24l5 31q34 -3 151 -3q132 0 169 3l-5 -31h-33q-66 0 -82.5 -9.5t-20.5 -38.5l-89 -533q-5 -26 1.5 -33t40.5 -7h94q38 0 70 8t54.5 19t41.5 31.5t30 36.5t22 44t16 43.5t13 44.5h25zM495 866
q-1 -5 -4 -8.5t-6.5 -6.5t-6 -5t-6 -4t-4.5 -3l-194 -93l-10 22l166 121q23 19 37 19q17 0 25.5 -13t2.5 -29z" />
    <glyph glyph-name="lacute" unicode="&#x13a;" horiz-adv-x="513" 
d="M505 194l-51 -194h-411l4 25q49 0 62 8t18 39l62 370q5 31 -5 39t-59 8l4 25l110 -3l124 3l-4 -25q-60 0 -76.5 -7t-22.5 -43l-62 -371q-4 -30 1 -36.5t32 -6.5h63q40 0 71 11t49 25t32 40t20 43.5t14 49.5h25zM405 742q-3 -16 -23 -30l-180 -123l-13 19l146 145
q25 25 40 25q14 0 23 -11.5t7 -24.5z" />
    <glyph glyph-name="Lcommaaccent" unicode="&#x13b;" horiz-adv-x="683" 
d="M667 258l-71 -258h-541l5 31h24q54 0 68 9t19 38l88 527q5 29 -6 38t-65 9h-24l5 31q34 -3 151 -3q132 0 169 3l-5 -31h-33q-66 0 -82.5 -9.5t-20.5 -38.5l-89 -533q-5 -26 1.5 -33t40.5 -7h94q38 0 70 8t54.5 19t41.5 31.5t30 36.5t22 44t16 43.5t13 44.5h25zM362 -145
q-7 -39 -29 -75t-40.5 -53t-24.5 -17q-9 0 -7 8q0 3 9 10q63 56 75 127q1 8 1 14q-13 -14 -33 -14q-19 0 -27.5 11.5t-6.5 27.5q3 16 16 28t31 12q24 0 33 -22.5t3 -56.5z" />
    <glyph glyph-name="lcommaaccent" unicode="&#x13c;" horiz-adv-x="513" 
d="M505 194l-51 -194h-411l4 25q49 0 62 8t18 39l62 370q5 31 -5 39t-59 8l4 25l110 -3l124 3l-4 -25q-60 0 -76.5 -7t-22.5 -43l-62 -371q-4 -30 1 -36.5t32 -6.5h63q40 0 71 11t49 25t32 40t20 43.5t14 49.5h25zM277 -145q-7 -39 -29 -75t-40.5 -53t-24.5 -17q-9 0 -7 8
q0 3 9 10q63 56 75 127q1 8 1 14q-13 -14 -33 -14q-19 0 -27.5 11.5t-6.5 27.5q3 16 16 28t31 12q24 0 33 -22.5t3 -56.5z" />
    <glyph glyph-name="Lcaron" unicode="&#x13d;" horiz-adv-x="683" 
d="M667 258l-71 -258h-541l5 31h24q54 0 68 9t19 38l88 527q5 29 -6 38t-65 9h-24l5 31q34 -3 151 -3q132 0 169 3l-5 -31h-33q-66 0 -82.5 -9.5t-20.5 -38.5l-89 -533q-5 -26 1.5 -33t40.5 -7h94q38 0 70 8t54.5 19t41.5 31.5t30 36.5t22 44t16 43.5t13 44.5h25zM623 604
q-7 -39 -29 -75t-40.5 -53t-24.5 -17q-9 0 -7 8q0 3 9 10q63 56 75 127q1 8 1 14q-13 -14 -33 -14q-19 0 -27.5 11.5t-6.5 27.5q3 16 16 28t31 12q24 0 33 -22.5t3 -56.5z" />
    <glyph glyph-name="lcaron" unicode="&#x13e;" horiz-adv-x="513" 
d="M505 194l-51 -194h-411l4 25q49 0 62 8t18 39l62 370q5 31 -5 39t-59 8l4 25l110 -3l124 3l-4 -25q-60 0 -76.5 -7t-22.5 -43l-62 -371q-4 -30 1 -36.5t32 -6.5h63q40 0 71 11t49 25t32 40t20 43.5t14 49.5h25zM477 435q-6 -39 -28.5 -75t-41 -53t-24.5 -17q-8 0 -6 8
q0 4 8 10q62 50 75 127q2 8 2 14q-14 -14 -34 -14q-19 0 -27 11.5t-6 27.5t15 28t32 12q24 0 32.5 -22.5t2.5 -56.5z" />
    <glyph glyph-name="Ldot" unicode="&#x13f;" horiz-adv-x="683" 
d="M667 258l-71 -258h-541l5 31h24q54 0 68 9t19 38l88 527q5 29 -6 38t-65 9h-24l5 31q34 -3 151 -3q132 0 169 3l-5 -31h-33q-66 0 -82.5 -9.5t-20.5 -38.5l-89 -533q-5 -26 1.5 -33t40.5 -7h94q38 0 70 8t54.5 19t41.5 31.5t30 36.5t22 44t16 43.5t13 44.5h25zM665 408
q-4 -22 -22 -37.5t-40 -15.5t-35 15.5t-9 37.5t22 37.5t40 15.5t35 -15.5t9 -37.5z" />
    <glyph glyph-name="ldot" unicode="&#x140;" horiz-adv-x="513" 
d="M505 194l-51 -194h-411l4 25q49 0 62 8t18 39l62 370q5 31 -5 39t-59 8l4 25l110 -3l124 3l-4 -25q-60 0 -76.5 -7t-22.5 -43l-62 -371q-4 -30 1 -36.5t32 -6.5h63q40 0 71 11t49 25t32 40t20 43.5t14 49.5h25zM515 325q-4 -22 -22 -37.5t-40 -15.5t-35 15.5t-9 37.5
t22 37.5t40 15.5t35 -15.5t9 -37.5z" />
    <glyph glyph-name="Lslash" unicode="&#x141;" horiz-adv-x="683" 
d="M667 258l-71 -258h-541l5 31h24q54 0 68 9t19 38l37 221l-76 -54l-18 25l101 71l44 264q5 29 -6 38t-65 9h-24l5 31q34 -3 151 -3q132 0 169 3l-5 -31h-33q-66 0 -82.5 -9.5t-20.5 -38.5l-32 -193l180 126l15 -26l-202 -142l-50 -298q-5 -26 1.5 -33t40.5 -7h94
q38 0 70 8t54.5 19t41.5 31.5t30 36.5t22 44t16 43.5t13 44.5h25z" />
    <glyph glyph-name="lslash" unicode="&#x142;" horiz-adv-x="513" 
d="M505 194l-51 -194h-411l4 25q49 0 62 8t18 39l25 152l-55 -37l-12 20l73 50l31 185q5 31 -5 39t-59 8l4 25l110 -3l124 3l-4 -25q-60 0 -76.5 -7t-22.5 -43l-21 -126l137 93l12 -21l-154 -105l-36 -212q-4 -30 1 -36.5t32 -6.5h63q40 0 71 11t49 25t32 40t20 43.5
t14 49.5h25z" />
    <glyph glyph-name="Nacute" unicode="&#x143;" horiz-adv-x="814" 
d="M867 652q-36 0 -60 -7t-35 -20.5t-14.5 -23t-6.5 -25.5l-91 -548q-3 -18 -6 -23t-13 -5t-16 12l-334 617l-87 -522q-4 -11 -2.5 -24.5t7 -25t27.5 -19t58 -7.5l-5 -31l-116 3l-118 -3l5 31q36 0 60 7t35 20.5t14.5 23t6.5 25.5l86 518q3 16 2 18q-1 9 -100 9l5 31h169
q15 0 19.5 -2t10.5 -12l284 -522l71 429q4 11 2.5 24.5t-7 25t-27.5 19t-58 7.5l5 31l116 -3l118 3zM695 866q-1 -5 -4 -8.5t-6.5 -6.5t-6 -5t-6 -4t-4.5 -3l-194 -93l-10 22l166 121q23 19 37 19q17 0 25.5 -13t2.5 -29z" />
    <glyph glyph-name="nacute" unicode="&#x144;" horiz-adv-x="613" 
d="M652 489q-25 0 -42.5 -8t-26 -22.5t-11.5 -23.5t-5 -22l-65 -387q-2 -11 -3 -15.5t-4.5 -7.5t-10.5 -3q-9 0 -15 11l-241 436l-8 12l-60 -358q-13 -76 59 -76l-4 -25q-37 3 -85 3l-87 -3l4 25q25 0 42.5 8t26 22.5t11.5 23.5t5 22l63 381q-18 7 -70 7l4 25h120
q11 0 14.5 -0.5t6.5 -3t7 -9.5l212 -385l50 297q13 76 -59 76l4 25q36 -3 85 -3l87 3zM560 742q-3 -16 -23 -30l-180 -123l-13 19l146 145q25 25 40 25q14 0 23 -11.5t7 -24.5z" />
    <glyph glyph-name="Ncommaaccent" unicode="&#x145;" horiz-adv-x="814" 
d="M867 652q-36 0 -60 -7t-35 -20.5t-14.5 -23t-6.5 -25.5l-91 -548q-3 -18 -6 -23t-13 -5t-16 12l-334 617l-87 -522q-4 -11 -2.5 -24.5t7 -25t27.5 -19t58 -7.5l-5 -31l-116 3l-118 -3l5 31q36 0 60 7t35 20.5t14.5 23t6.5 25.5l86 518q3 16 2 18q-1 9 -100 9l5 31h169
q15 0 19.5 -2t10.5 -12l284 -522l71 429q4 11 2.5 24.5t-7 25t-27.5 19t-58 7.5l5 31l116 -3l118 3zM428 -145q-7 -39 -29 -75t-40.5 -53t-24.5 -17q-9 0 -7 8q0 3 9 10q63 56 75 127q1 8 1 14q-13 -14 -33 -14q-19 0 -27.5 11.5t-6.5 27.5q3 16 16 28t31 12q24 0 33 -22.5
t3 -56.5z" />
    <glyph glyph-name="ncommaaccent" unicode="&#x146;" horiz-adv-x="613" 
d="M652 489q-25 0 -42.5 -8t-26 -22.5t-11.5 -23.5t-5 -22l-65 -387q-2 -11 -3 -15.5t-4.5 -7.5t-10.5 -3q-9 0 -15 11l-241 436l-8 12l-60 -358q-13 -76 59 -76l-4 -25q-37 3 -85 3l-87 -3l4 25q25 0 42.5 8t26 22.5t11.5 23.5t5 22l63 381q-18 7 -70 7l4 25h120
q11 0 14.5 -0.5t6.5 -3t7 -9.5l212 -385l50 297q13 76 -59 76l4 25q36 -3 85 -3l87 3zM327 -145q-7 -39 -29 -75t-40.5 -53t-24.5 -17q-9 0 -7 8q0 3 9 10q63 56 75 127q1 8 1 14q-13 -14 -33 -14q-19 0 -27.5 11.5t-6.5 27.5q3 16 16 28t31 12q24 0 33 -22.5t3 -56.5z" />
    <glyph glyph-name="Ncaron" unicode="&#x147;" horiz-adv-x="814" 
d="M867 652q-36 0 -60 -7t-35 -20.5t-14.5 -23t-6.5 -25.5l-91 -548q-3 -18 -6 -23t-13 -5t-16 12l-334 617l-87 -522q-4 -11 -2.5 -24.5t7 -25t27.5 -19t58 -7.5l-5 -31l-116 3l-118 -3l5 31q36 0 60 7t35 20.5t14.5 23t6.5 25.5l86 518q3 16 2 18q-1 9 -100 9l5 31h169
q15 0 19.5 -2t10.5 -12l284 -522l71 429q4 11 2.5 24.5t-7 25t-27.5 19t-58 7.5l5 31l116 -3l118 3zM700 853l-170 -117l-132 117l15 16l129 -66l151 66z" />
    <glyph glyph-name="ncaron" unicode="&#x148;" horiz-adv-x="613" 
d="M652 489q-25 0 -42.5 -8t-26 -22.5t-11.5 -23.5t-5 -22l-65 -387q-2 -11 -3 -15.5t-4.5 -7.5t-10.5 -3q-9 0 -15 11l-241 436l-8 12l-60 -358q-13 -76 59 -76l-4 -25q-37 3 -85 3l-87 -3l4 25q25 0 42.5 8t26 22.5t11.5 23.5t5 22l63 381q-18 7 -70 7l4 25h120
q11 0 14.5 -0.5t6.5 -3t7 -9.5l212 -385l50 297q13 76 -59 76l4 25q36 -3 85 -3l87 3zM585 758l-179 -162l-125 162l15 14l121 -108l157 108z" />
    <glyph glyph-name="Eng" unicode="&#x14a;" horiz-adv-x="814" 
d="M834 342q-25 -148 -104 -256t-191 -108q-19 0 -30 13.5t-8 32.5t19 32.5t35 13.5t30 -13.5t8 -32.5q-2 -8 -4 -12q33 14 57.5 45.5t41 85.5t24.5 91.5t20 107.5q12 63 6 124t-24.5 108t-58.5 76t-94 29q-63 0 -121 -30t-98 -80l-82 -491q-5 -29 6.5 -38t67.5 -9h26
l-5 -31q-34 3 -152 3q-117 0 -153 -3l5 31h26q56 0 70.5 9t19.5 38l88 527q5 29 -6.5 38t-67.5 9h-26l5 31q34 -3 152 -3q22 0 45 3l-12 -71q93 93 217 93q139 0 216 -107.5t52 -255.5z" />
    <glyph glyph-name="eng" unicode="&#x14b;" horiz-adv-x="613" 
d="M621 257q-19 -115 -75.5 -197t-140.5 -82q-19 0 -30 13.5t-8 32.5t19 32.5t35 13.5t30 -13.5t8 -32.5q0 -3 -2 -7q28 17 48 60.5t27.5 79t18.5 100.5q17 103 -16 178t-113 75q-47 0 -90.5 -22.5t-73.5 -60.5l-59 -354q-5 -33 5 -40.5t63 -7.5l-4 -25l-111 3l-113 -3l4 25
q53 0 66 7.5t18 40.5l62 368q5 33 -5 40.5t-63 7.5l4 25l111 -3q18 0 37 3l-8 -45q72 67 161 67q104 0 159 -82.5t36 -196.5z" />
    <glyph glyph-name="Omacron" unicode="&#x14c;" horiz-adv-x="844" 
d="M828 339q-25 -150 -145.5 -255.5t-265.5 -105.5q-143 0 -228 105t-60 256q25 152 145.5 259t265.5 107q143 0 228 -106.5t60 -259.5zM727 354q12 90 1.5 152.5t-43.5 101t-71 55.5t-80 17q-41 0 -84.5 -17.5t-87.5 -53.5t-78.5 -102t-49.5 -153q-14 -96 -4 -162.5
t42 -108.5t70 -60.5t81 -18.5q41 0 85 19t88.5 57.5t80 109.5t50.5 164zM737 756h-378l5 31h378z" />
    <glyph glyph-name="omacron" unicode="&#x14d;" horiz-adv-x="636" 
d="M628 255q-19 -113 -110.5 -191t-201.5 -78t-175.5 78.5t-46.5 190.5q18 112 109.5 192.5t202.5 80.5t175.5 -80.5t46.5 -192.5zM543 266q9 70 1 116t-34 73t-52.5 37.5t-55.5 10.5q-28 0 -59 -11.5t-64 -36t-60 -74t-38 -115.5q-9 -74 -1.5 -123t32.5 -78t52 -41t56 -12
t60.5 12.5t65 40t60 79.5t37.5 122zM618 668h-378l5 31h378z" />
    <glyph glyph-name="Obreve" unicode="&#x14e;" horiz-adv-x="844" 
d="M828 339q-25 -150 -145.5 -255.5t-265.5 -105.5q-143 0 -228 105t-60 256q25 152 145.5 259t265.5 107q143 0 228 -106.5t60 -259.5zM727 354q12 90 1.5 152.5t-43.5 101t-71 55.5t-80 17q-41 0 -84.5 -17.5t-87.5 -53.5t-78.5 -102t-49.5 -153q-14 -96 -4 -162.5
t42 -108.5t70 -60.5t81 -18.5q41 0 85 19t88.5 57.5t80 109.5t50.5 164zM731 918q-13 -74 -67 -123t-118 -49t-101.5 49t-25.5 123h22q-9 -61 25.5 -97.5t86.5 -36.5t98.5 36.5t57.5 97.5h22z" />
    <glyph glyph-name="obreve" unicode="&#x14f;" horiz-adv-x="636" 
d="M628 255q-19 -113 -110.5 -191t-201.5 -78t-175.5 78.5t-46.5 190.5q18 112 109.5 192.5t202.5 80.5t175.5 -80.5t46.5 -192.5zM543 266q9 70 1 116t-34 73t-52.5 37.5t-55.5 10.5q-28 0 -59 -11.5t-64 -36t-60 -74t-38 -115.5q-9 -74 -1.5 -123t32.5 -78t52 -41t56 -12
t60.5 12.5t65 40t60 79.5t37.5 122zM602 770q-13 -74 -67 -123t-118 -49t-101.5 49t-25.5 123h22q-9 -61 25 -97.5t86 -36.5t98.5 36.5t58.5 97.5h22z" />
    <glyph glyph-name="Ohungarumlaut" unicode="&#x150;" horiz-adv-x="844" 
d="M828 339q-25 -150 -145.5 -255.5t-265.5 -105.5q-143 0 -228 105t-60 256q25 152 145.5 259t265.5 107q143 0 228 -106.5t60 -259.5zM727 354q12 90 1.5 152.5t-43.5 101t-71 55.5t-80 17q-41 0 -84.5 -17.5t-87.5 -53.5t-78.5 -102t-49.5 -153q-14 -96 -4 -162.5
t42 -108.5t70 -60.5t81 -18.5q41 0 85 19t88.5 57.5t80 109.5t50.5 164zM751 898q-2 -11 -19 -28l-117 -124l-18 14l84 144q17 29 37 29q15 0 25 -10.5t8 -24.5zM576 898q-2 -11 -19 -28l-117 -124l-18 14l84 144q17 29 37 29q15 0 25 -10.5t8 -24.5z" />
    <glyph glyph-name="ohungarumlaut" unicode="&#x151;" horiz-adv-x="636" 
d="M628 255q-19 -113 -110.5 -191t-201.5 -78t-175.5 78.5t-46.5 190.5q18 112 109.5 192.5t202.5 80.5t175.5 -80.5t46.5 -192.5zM543 266q9 70 1 116t-34 73t-52.5 37.5t-55.5 10.5q-28 0 -59 -11.5t-64 -36t-60 -74t-38 -115.5q-9 -74 -1.5 -123t32.5 -78t52 -41t56 -12
t60.5 12.5t65 40t60 79.5t37.5 122zM620 742q-2 -11 -19 -28l-116 -124l-19 14l84 144q17 29 38 29q15 0 24.5 -10.5t7.5 -24.5zM445 742q-2 -11 -19 -28l-116 -124l-19 14l84 144q17 29 38 29q15 0 24.5 -10.5t7.5 -24.5z" />
    <glyph glyph-name="OE" unicode="&#x152;" horiz-adv-x="1092" 
d="M1091 258l-85 -258h-411q-32 0 -95 -14q-41 -8 -71 -8q-139 0 -225.5 104.5t-60.5 256.5q25 153 146.5 259.5t262.5 106.5q29 0 83 -13q42 -9 74 -9h396l-10 -225h-25q3 57 -0.5 89.5t-19.5 58.5t-48.5 36t-88.5 10h-126q-34 0 -42.5 -7t-13.5 -33l-40 -242h117
q74 0 100.5 23.5t38.5 93.5h25l-44 -265h-25q12 69 -7 93t-93 24h-117l-45 -268q-5 -26 1.5 -33t40.5 -7h128q63 0 104.5 12.5t69.5 45.5t43.5 67.5t37.5 101.5h25zM610 342q32 187 34 234q4 55 -13 81t-80 26q-103 0 -192.5 -94t-113.5 -235q-25 -147 32 -250.5t161 -103.5
q34 0 57.5 8t37.5 26.5t20.5 35t14.5 45.5q10 35 42 227z" />
    <glyph glyph-name="oe" unicode="&#x153;" horiz-adv-x="824" 
d="M827 194l-61 -194h-312q-26 0 -79 -9q-28 -5 -50 -5q-107 0 -173 78t-47 191t110.5 193t199.5 80q23 0 67 -8q33 -6 58 -6h300l-9 -169h-25q6 84 -16.5 114t-100.5 30h-86q-27 0 -35 -7t-13 -36l-27 -167h82q55 0 75.5 17.5t28.5 69.5h25l-33 -199h-25q8 52 -6 69.5
t-70 17.5h-82l-31 -186q-4 -30 1 -36.5t32 -6.5h89q87 0 122.5 35.5t65.5 133.5h25zM461 257q24 144 25 175q2 38 -12 56t-60 18q-76 0 -142 -69t-83 -171q-17 -107 24 -182.5t118 -75.5q49 0 68 19.5t31 64.5q4 14 31 165z" />
    <glyph glyph-name="Racute" unicode="&#x154;" horiz-adv-x="800" 
d="M797 88q-6 -34 -36 -72t-82 -38q-80 0 -121 41q-25 27 -27.5 61t8.5 83q11 51 8.5 78.5t-24.5 53.5q-31 36 -97 36h-125l-42 -253q-5 -29 6 -38t65 -9h24l-5 -31q-35 3 -145 3t-147 -3l5 31h24q54 0 68 9t19 38l88 527q5 29 -6 38t-65 9h-24l5 31h324q113 0 184 -53.5
t59 -126.5q-9 -53 -64.5 -97.5t-146.5 -65.5q56 -17 83 -52q19 -22 23 -45.5t3 -81.5q-1 -111 9 -135q10 -26 42 -26q14 0 27 5t30.5 26.5t27.5 57.5q5 16 15 16q13 0 10 -17zM635 503q7 43 -3.5 72.5t-27.5 44.5t-51 22.5t-54.5 8.5t-57.5 1q-51 0 -60 -1
q-18 -2 -23.5 -9.5t-9.5 -29.5l-43 -259h121q184 0 209 150zM688 866q-1 -5 -4 -8.5t-6.5 -6.5t-6 -5t-6 -4t-4.5 -3l-194 -93l-10 22l166 121q23 19 37 19q17 0 25.5 -13t2.5 -29z" />
    <glyph glyph-name="racute" unicode="&#x155;" horiz-adv-x="602" 
d="M604 68q-4 -25 -27 -53.5t-65 -28.5q-70 0 -98 33q-19 22 -21 43t7 62q6 32 6 53.5t-12 36.5q-27 32 -77 32h-90l-29 -174q-5 -31 5 -39t59 -8l-4 -25l-106 3l-107 -3l4 25q49 0 62 8t18 39l62 370q5 31 -5 39t-59 8l4 25h240q89 0 142.5 -40.5t44.5 -94.5
q-7 -44 -50.5 -77t-101.5 -47q25 -10 40.5 -24t22 -32.5t8 -28.5t2.5 -30q4 -93 9 -108q11 -24 31 -24q8 0 16 2t22.5 17.5t22.5 42.5q0 13 14 13q13 0 10 -15zM472 379q6 38 -3 62t-34 33.5t-46 12t-57 2.5q-45 0 -53 -3q-12 -6 -19 -40l-29 -178h88q46 0 77.5 11t46 30.5
t20.5 34.5t9 35zM555 742q-3 -16 -23 -30l-180 -123l-13 19l146 145q25 25 40 25q14 0 23 -11.5t7 -24.5z" />
    <glyph glyph-name="Rcommaaccent" unicode="&#x156;" horiz-adv-x="800" 
d="M797 88q-6 -34 -36 -72t-82 -38q-80 0 -121 41q-25 27 -27.5 61t8.5 83q11 51 8.5 78.5t-24.5 53.5q-31 36 -97 36h-125l-42 -253q-5 -29 6 -38t65 -9h24l-5 -31q-35 3 -145 3t-147 -3l5 31h24q54 0 68 9t19 38l88 527q5 29 -6 38t-65 9h-24l5 31h324q113 0 184 -53.5
t59 -126.5q-9 -53 -64.5 -97.5t-146.5 -65.5q56 -17 83 -52q19 -22 23 -45.5t3 -81.5q-1 -111 9 -135q10 -26 42 -26q14 0 27 5t30.5 26.5t27.5 57.5q5 16 15 16q13 0 10 -17zM635 503q7 43 -3.5 72.5t-27.5 44.5t-51 22.5t-54.5 8.5t-57.5 1q-51 0 -60 -1
q-18 -2 -23.5 -9.5t-9.5 -29.5l-43 -259h121q184 0 209 150zM421 -145q-7 -39 -29 -75t-40.5 -53t-24.5 -17q-9 0 -7 8q0 3 9 10q63 56 75 127q1 8 1 14q-13 -14 -33 -14q-19 0 -27.5 11.5t-6.5 27.5q3 16 16 28t31 12q24 0 33 -22.5t3 -56.5z" />
    <glyph glyph-name="rcommaaccent" unicode="&#x157;" horiz-adv-x="602" 
d="M604 68q-4 -25 -27 -53.5t-65 -28.5q-70 0 -98 33q-19 22 -21 43t7 62q6 32 6 53.5t-12 36.5q-27 32 -77 32h-90l-29 -174q-5 -31 5 -39t59 -8l-4 -25l-106 3l-107 -3l4 25q49 0 62 8t18 39l62 370q5 31 -5 39t-59 8l4 25h240q89 0 142.5 -40.5t44.5 -94.5
q-7 -44 -50.5 -77t-101.5 -47q25 -10 40.5 -24t22 -32.5t8 -28.5t2.5 -30q4 -93 9 -108q11 -24 31 -24q8 0 16 2t22.5 17.5t22.5 42.5q0 13 14 13q13 0 10 -15zM472 379q6 38 -3 62t-34 33.5t-46 12t-57 2.5q-45 0 -53 -3q-12 -6 -19 -40l-29 -178h88q46 0 77.5 11t46 30.5
t20.5 34.5t9 35zM322 -145q-7 -39 -29 -75t-40.5 -53t-24.5 -17q-9 0 -7 8q0 3 9 10q63 56 75 127q1 8 1 14q-13 -14 -33 -14q-19 0 -27.5 11.5t-6.5 27.5q3 16 16 28t31 12q24 0 33 -22.5t3 -56.5z" />
    <glyph glyph-name="Rcaron" unicode="&#x158;" horiz-adv-x="800" 
d="M797 88q-6 -34 -36 -72t-82 -38q-80 0 -121 41q-25 27 -27.5 61t8.5 83q11 51 8.5 78.5t-24.5 53.5q-31 36 -97 36h-125l-42 -253q-5 -29 6 -38t65 -9h24l-5 -31q-35 3 -145 3t-147 -3l5 31h24q54 0 68 9t19 38l88 527q5 29 -6 38t-65 9h-24l5 31h324q113 0 184 -53.5
t59 -126.5q-9 -53 -64.5 -97.5t-146.5 -65.5q56 -17 83 -52q19 -22 23 -45.5t3 -81.5q-1 -111 9 -135q10 -26 42 -26q14 0 27 5t30.5 26.5t27.5 57.5q5 16 15 16q13 0 10 -17zM635 503q7 43 -3.5 72.5t-27.5 44.5t-51 22.5t-54.5 8.5t-57.5 1q-51 0 -60 -1
q-18 -2 -23.5 -9.5t-9.5 -29.5l-43 -259h121q184 0 209 150zM693 853l-170 -117l-132 117l15 16l129 -66l151 66z" />
    <glyph glyph-name="rcaron" unicode="&#x159;" horiz-adv-x="602" 
d="M604 68q-4 -25 -27 -53.5t-65 -28.5q-70 0 -98 33q-19 22 -21 43t7 62q6 32 6 53.5t-12 36.5q-27 32 -77 32h-90l-29 -174q-5 -31 5 -39t59 -8l-4 -25l-106 3l-107 -3l4 25q49 0 62 8t18 39l62 370q5 31 -5 39t-59 8l4 25h240q89 0 142.5 -40.5t44.5 -94.5
q-7 -44 -50.5 -77t-101.5 -47q25 -10 40.5 -24t22 -32.5t8 -28.5t2.5 -30q4 -93 9 -108q11 -24 31 -24q8 0 16 2t22.5 17.5t22.5 42.5q0 13 14 13q13 0 10 -15zM472 379q6 38 -3 62t-34 33.5t-46 12t-57 2.5q-45 0 -53 -3q-12 -6 -19 -40l-29 -178h88q46 0 77.5 11t46 30.5
t20.5 34.5t9 35zM580 758l-179 -162l-125 162l15 14l121 -108l157 108z" />
    <glyph glyph-name="Sacute" unicode="&#x15a;" horiz-adv-x="611" 
d="M569 185q-14 -83 -82.5 -145t-159.5 -62q-124 0 -184 72l-47 -60q-9 -12 -17 -12t-9 5.5t2 18.5l34 200q2 11 3 15t4.5 7t9.5 3q5 0 8 -2t2 -7q-13 -107 43 -158q57 -51 156 -51q65 0 111.5 43t55.5 100q9 54 -20 95q-18 24 -36 32.5t-65 20.5q-7 2 -23.5 5.5t-23.5 5.5
q-68 17 -94.5 29.5t-52.5 46.5q-38 52 -27 124q14 80 83 137t155 57q44 0 79 -14t48 -26t30 -32l46 59q11 13 18 13t8 -4.5t0 -15.5q-1 -2 -1 -4l-34 -201q-2 -15 -5 -19.5t-12 -4.5q-8 0 -9 3t-1 15q3 88 -36.5 145.5t-134.5 57.5q-62 0 -108.5 -39t-55.5 -92
q-6 -36 13 -74t74 -52l131 -33q50 -13 81 -46.5t40.5 -73.5t2.5 -82zM593 866q-1 -5 -4 -8.5t-6.5 -6.5t-6 -5t-6 -4t-4.5 -3l-194 -93l-10 22l166 121q23 19 37 19q17 0 25.5 -13t2.5 -29z" />
    <glyph glyph-name="sacute" unicode="&#x15b;" horiz-adv-x="458" 
d="M431 142q-10 -62 -62.5 -109t-122.5 -47q-91 0 -138 49q-15 -18 -23 -26q-20 -23 -26 -23q-11 0 -6 24l22 135q2 11 3 15t4.5 7t9.5 3q11 0 11 -9q-11 -74 30 -111q42 -39 117 -39q49 0 84 32t41 72q9 47 -19 75q-14 15 -26.5 20.5t-54.5 15.5q-72 17 -93.5 25.5
t-39.5 29.5q-37 45 -27 101q10 60 62 103t119 43q75 0 117 -49q19 22 23 26q20 23 26 23q7 0 8 -6t-2 -18l-23 -136q-2 -15 -5 -19.5t-12 -4.5q-10 0 -10 13q1 20 -1.5 38t-12.5 47t-38.5 46.5t-72.5 17.5q-48 0 -82 -29t-40 -66q-10 -63 51 -89q2 -1 59 -15q66 -16 86 -25
t42 -36q4 -5 9 -13.5t11 -35.5t2 -55zM482 742q-3 -16 -23 -30l-180 -123l-13 19l146 145q25 25 40 25q14 0 23 -11.5t7 -24.5z" />
    <glyph glyph-name="Scircumflex" unicode="&#x15c;" horiz-adv-x="611" 
d="M569 185q-14 -83 -82.5 -145t-159.5 -62q-124 0 -184 72l-47 -60q-9 -12 -17 -12t-9 5.5t2 18.5l34 200q2 11 3 15t4.5 7t9.5 3q5 0 8 -2t2 -7q-13 -107 43 -158q57 -51 156 -51q65 0 111.5 43t55.5 100q9 54 -20 95q-18 24 -36 32.5t-65 20.5q-7 2 -23.5 5.5t-23.5 5.5
q-68 17 -94.5 29.5t-52.5 46.5q-38 52 -27 124q14 80 83 137t155 57q44 0 79 -14t48 -26t30 -32l46 59q11 13 18 13t8 -4.5t0 -15.5q-1 -2 -1 -4l-34 -201q-2 -15 -5 -19.5t-12 -4.5q-8 0 -9 3t-1 15q3 88 -36.5 145.5t-134.5 57.5q-62 0 -108.5 -39t-55.5 -92
q-6 -36 13 -74t74 -52l131 -33q50 -13 81 -46.5t40.5 -73.5t2.5 -82zM581 752l-14 -16l-129 66l-151 -66l-8 16l171 117z" />
    <glyph glyph-name="scircumflex" unicode="&#x15d;" horiz-adv-x="458" 
d="M431 142q-10 -62 -62.5 -109t-122.5 -47q-91 0 -138 49q-15 -18 -23 -26q-20 -23 -26 -23q-11 0 -6 24l22 135q2 11 3 15t4.5 7t9.5 3q11 0 11 -9q-11 -74 30 -111q42 -39 117 -39q49 0 84 32t41 72q9 47 -19 75q-14 15 -26.5 20.5t-54.5 15.5q-72 17 -93.5 25.5
t-39.5 29.5q-37 45 -27 101q10 60 62 103t119 43q75 0 117 -49q19 22 23 26q20 23 26 23q7 0 8 -6t-2 -18l-23 -136q-2 -15 -5 -19.5t-12 -4.5q-10 0 -10 13q1 20 -1.5 38t-12.5 47t-38.5 46.5t-72.5 17.5q-48 0 -82 -29t-40 -66q-10 -63 51 -89q2 -1 59 -15q66 -16 86 -25
t42 -36q4 -5 9 -13.5t11 -35.5t2 -55zM482 610l-15 -14l-121 108l-157 -108l-11 14l179 162z" />
    <glyph glyph-name="Scedilla" unicode="&#x15e;" horiz-adv-x="611" 
d="M569 185q-14 -83 -82.5 -145t-158.5 -62l-7 -44q51 0 84 -16t27 -51q-3 -16 -15.5 -28t-37 -19t-46.5 -11.5t-60 -6t-60 -2t-63 -0.5h-26l4 26h13h46t44 1.5t44.5 4t34.5 6.5t27 11.5t11 17.5q4 25 -19.5 33t-63.5 8l12 74q-91 14 -134 68l-47 -60q-9 -12 -17 -12t-9 5.5
t2 18.5l34 200q2 11 3 15t4.5 7t9.5 3q5 0 8 -2t2 -7q-13 -107 43 -158q57 -51 156 -51q65 0 111.5 43t55.5 100q9 54 -20 95q-18 24 -36 32.5t-65 20.5q-7 2 -23.5 5.5t-23.5 5.5q-68 17 -94.5 29.5t-52.5 46.5q-38 52 -27 124q14 80 83 137t155 57q44 0 79 -14t48 -26
t30 -32l46 59q11 13 18 13t8 -4.5t0 -15.5q-1 -2 -1 -4l-34 -201q-2 -15 -5 -19.5t-12 -4.5q-8 0 -9 3t-1 15q3 88 -36.5 145.5t-134.5 57.5q-62 0 -108.5 -39t-55.5 -92q-6 -36 13 -74t74 -52l131 -33q50 -13 81 -46.5t40.5 -73.5t2.5 -82z" />
    <glyph glyph-name="scedilla" unicode="&#x15f;" horiz-adv-x="458" 
d="M431 142q-10 -60 -60.5 -106.5t-117.5 -49.5l-9 -52q51 0 84.5 -16t27.5 -51q-3 -16 -15.5 -28t-37 -19t-47 -11.5t-60.5 -6t-59.5 -2t-62.5 -0.5h-26l4 26h13h46t44 1.5t44.5 4t34.5 6.5t27 11.5t11 17.5q4 25 -19.5 33t-64.5 8l13 82q-59 10 -93 45q-15 -18 -23 -26
q-20 -23 -26 -23q-11 0 -6 24l22 135q2 11 3 15t4.5 7t9.5 3q11 0 11 -9q-11 -74 30 -111q42 -39 117 -39q49 0 84 32t41 72q9 47 -19 75q-14 15 -26.5 20.5t-54.5 15.5q-72 17 -93.5 25.5t-39.5 29.5q-37 45 -27 101q10 60 62 103t119 43q75 0 117 -49q19 22 23 26
q20 23 26 23q7 0 8 -6t-2 -18l-23 -136q-2 -15 -5 -19.5t-12 -4.5q-10 0 -10 13q1 20 -1.5 38t-12.5 47t-38.5 46.5t-72.5 17.5q-48 0 -82 -29t-40 -66q-10 -63 51 -89q2 -1 59 -15q66 -16 86 -25t42 -36q4 -5 9 -13.5t11 -35.5t2 -55z" />
    <glyph glyph-name="Scaron" unicode="&#x160;" horiz-adv-x="611" 
d="M569 185q-14 -83 -82.5 -145t-159.5 -62q-124 0 -184 72l-47 -60q-9 -12 -17 -12t-9 5.5t2 18.5l34 200q2 11 3 15t4.5 7t9.5 3q5 0 8 -2t2 -7q-13 -107 43 -158q57 -51 156 -51q65 0 111.5 43t55.5 100q9 54 -20 95q-18 24 -36 32.5t-65 20.5q-7 2 -23.5 5.5t-23.5 5.5
q-68 17 -94.5 29.5t-52.5 46.5q-38 52 -27 124q14 80 83 137t155 57q44 0 79 -14t48 -26t30 -32l46 59q11 13 18 13t8 -4.5t0 -15.5q-1 -2 -1 -4l-34 -201q-2 -15 -5 -19.5t-12 -4.5q-8 0 -9 3t-1 15q3 88 -36.5 145.5t-134.5 57.5q-62 0 -108.5 -39t-55.5 -92
q-6 -36 13 -74t74 -52l131 -33q50 -13 81 -46.5t40.5 -73.5t2.5 -82zM598 853l-170 -117l-132 117l15 16l129 -66l151 66z" />
    <glyph glyph-name="scaron" unicode="&#x161;" horiz-adv-x="458" 
d="M431 142q-10 -62 -62.5 -109t-122.5 -47q-91 0 -138 49q-15 -18 -23 -26q-20 -23 -26 -23q-11 0 -6 24l22 135q2 11 3 15t4.5 7t9.5 3q11 0 11 -9q-11 -74 30 -111q42 -39 117 -39q49 0 84 32t41 72q9 47 -19 75q-14 15 -26.5 20.5t-54.5 15.5q-72 17 -93.5 25.5
t-39.5 29.5q-37 45 -27 101q10 60 62 103t119 43q75 0 117 -49q19 22 23 26q20 23 26 23q7 0 8 -6t-2 -18l-23 -136q-2 -15 -5 -19.5t-12 -4.5q-10 0 -10 13q1 20 -1.5 38t-12.5 47t-38.5 46.5t-72.5 17.5q-48 0 -82 -29t-40 -66q-10 -63 51 -89q2 -1 59 -15q66 -16 86 -25
t42 -36q4 -5 9 -13.5t11 -35.5t2 -55zM507 758l-179 -162l-125 162l15 14l121 -108l157 108z" />
    <glyph glyph-name="Tcedilla" unicode="&#x162;" horiz-adv-x="786" 
d="M808 452h-25q11 127 -15.5 160.5t-142.5 33.5q-48 0 -59 -2q-11 -1 -16.5 -6.5t-7.5 -11.5t-4 -20l-88 -527q-3 -17 -0.5 -27.5t24.5 -15.5t73 -5h40l-5 -31q-34 3 -163 3l-12 -69q52 0 85 -16t27 -51q-3 -16 -15.5 -28t-37 -19t-46.5 -11.5t-60 -6t-60 -2t-63 -0.5h-26
l4 26h13h46t44 1.5t44.5 4t34.5 6.5t27 11.5t11 17.5q4 25 -19.5 33t-64.5 8l16 95q-129 0 -164 -3l5 31h40q73 0 91 9.5t22 38.5l88 527q4 17 1.5 26.5t-17.5 11.5q-9 2 -57 2q-42 0 -68.5 -2.5t-50 -11t-37 -20t-26.5 -35.5t-22 -52t-20 -73h-25l57 225h643z" />
    <glyph glyph-name="tcedilla" unicode="&#x163;" horiz-adv-x="591" 
d="M612 339h-25q9 94 -12 119t-103 25q-43 0 -52 -5.5t-15 -37.5l-60 -364q-6 -32 5.5 -41.5t66.5 -9.5h21l-4 -25q-32 3 -117 3l-11 -69q52 0 85 -16t27 -51q-3 -16 -15.5 -28t-37 -19t-46.5 -11.5t-60 -6t-60 -2t-63 -0.5h-26l4 26h13h46t44 1.5t44.5 4t34.5 6.5t27 11.5
t11 17.5q4 25 -19.5 33t-64.5 8l15 95q-62 0 -107 -3l4 25h21q55 0 69.5 9.5t20.5 41.5l60 364q6 32 -1 37.5t-50 5.5q-84 0 -113 -25t-51 -119h-25l42 169h491z" />
    <glyph glyph-name="Tcaron" unicode="&#x164;" horiz-adv-x="786" 
d="M808 452h-25q11 127 -15.5 160.5t-142.5 33.5q-48 0 -59 -2q-11 -1 -16.5 -6.5t-7.5 -11.5t-4 -20l-88 -527q-3 -17 -0.5 -27.5t24.5 -15.5t73 -5h40l-5 -31q-40 3 -189 3q-148 0 -190 -3l5 31h40q73 0 91 9.5t22 38.5l88 527q4 17 1.5 26.5t-17.5 11.5q-9 2 -57 2
q-42 0 -68.5 -2.5t-50 -11t-37 -20t-26.5 -35.5t-22 -52t-20 -73h-25l57 225h643zM686 853l-170 -117l-132 117l15 16l129 -66l151 66z" />
    <glyph glyph-name="tcaron" unicode="&#x165;" horiz-adv-x="591" 
d="M612 339h-25q9 94 -12 119t-103 25q-43 0 -52 -5.5t-15 -37.5l-60 -364q-6 -32 5.5 -41.5t66.5 -9.5h21l-4 -25q-38 3 -137 3t-139 -3l4 25h21q55 0 69.5 9.5t20.5 41.5l60 364q6 32 -1 37.5t-50 5.5q-84 0 -113 -25t-51 -119h-25l42 169h491zM574 758l-179 -162
l-125 162l15 14l121 -108l157 108z" />
    <glyph glyph-name="Utilde" unicode="&#x168;" horiz-adv-x="814" 
d="M867 652q-36 0 -60 -7t-35 -20.5t-14.5 -23.5t-6.5 -26l-60 -360q-14 -84 -92.5 -160.5t-182.5 -76.5q-107 0 -172 73t-48 178l63 376q5 29 -6 38t-65 9h-24l5 31q34 -3 147 -3q112 0 148 3l-5 -31h-24q-54 0 -68 -9t-19 -38l-63 -379q-6 -47 -4.5 -81.5t14.5 -58.5
t27.5 -39t34.5 -23.5t35.5 -11.5t31.5 -3q81 0 151.5 60.5t87.5 161.5l57 347q4 10 2.5 23t-7 24t-27.5 19t-58 8l5 31l118 -3l119 3zM742 815q-39 -35 -54.5 -47.5t-34.5 -22t-38 -9.5q-25 0 -67 27q-34 22 -58 22q-45 0 -94 -49l-15 15q39 35 54.5 47.5t34.5 22t38 9.5
q25 0 67 -27q34 -22 58 -22q44 0 94 49z" />
    <glyph glyph-name="utilde" unicode="&#x169;" horiz-adv-x="613" 
d="M652 489q-71 0 -83 -62l-44 -266q-11 -62 -70.5 -118.5t-139.5 -56.5t-128.5 49t-44.5 113q0 12 10 75l36 217q6 33 -3.5 41t-59.5 8l4 25l107 -3l109 3l-4 -25q-49 0 -62 -8t-18 -39l-45 -269q-4 -38 -3 -64.5t12.5 -44.5t22.5 -28.5t27 -16t26 -7t20 -1.5
q58 0 113 43.5t69 123.5l39 235q13 76 -59 76l4 25q40 -3 84 -3q46 0 85 3zM620 716q-54 -48 -77.5 -63.5t-50.5 -15.5q-24 0 -66 27q-34 22 -58 22q-45 0 -95 -49l-14 15q53 48 76.5 63.5t50.5 15.5q25 0 67 -27q32 -22 58 -22q44 0 94 49z" />
    <glyph glyph-name="Umacron" unicode="&#x16a;" horiz-adv-x="814" 
d="M867 652q-36 0 -60 -7t-35 -20.5t-14.5 -23.5t-6.5 -26l-60 -360q-14 -84 -92.5 -160.5t-182.5 -76.5q-107 0 -172 73t-48 178l63 376q5 29 -6 38t-65 9h-24l5 31q34 -3 147 -3q112 0 148 3l-5 -31h-24q-54 0 -68 -9t-19 -38l-63 -379q-6 -47 -4.5 -81.5t14.5 -58.5
t27.5 -39t34.5 -23.5t35.5 -11.5t31.5 -3q81 0 151.5 60.5t87.5 161.5l57 347q4 10 2.5 23t-7 24t-27.5 19t-58 8l5 31l118 -3l119 3zM746 756h-378l5 31h378z" />
    <glyph glyph-name="umacron" unicode="&#x16b;" horiz-adv-x="613" 
d="M652 489q-71 0 -83 -62l-44 -266q-11 -62 -70.5 -118.5t-139.5 -56.5t-128.5 49t-44.5 113q0 12 10 75l36 217q6 33 -3.5 41t-59.5 8l4 25l107 -3l109 3l-4 -25q-49 0 -62 -8t-18 -39l-45 -269q-4 -38 -3 -64.5t12.5 -44.5t22.5 -28.5t27 -16t26 -7t20 -1.5
q58 0 113 43.5t69 123.5l39 235q13 76 -59 76l4 25q40 -3 84 -3q46 0 85 3zM626 668h-378l5 31h378z" />
    <glyph glyph-name="Ubreve" unicode="&#x16c;" horiz-adv-x="814" 
d="M867 652q-36 0 -60 -7t-35 -20.5t-14.5 -23.5t-6.5 -26l-60 -360q-14 -84 -92.5 -160.5t-182.5 -76.5q-107 0 -172 73t-48 178l63 376q5 29 -6 38t-65 9h-24l5 31q34 -3 147 -3q112 0 148 3l-5 -31h-24q-54 0 -68 -9t-19 -38l-63 -379q-6 -47 -4.5 -81.5t14.5 -58.5
t27.5 -39t34.5 -23.5t35.5 -11.5t31.5 -3q81 0 151.5 60.5t87.5 161.5l57 347q4 10 2.5 23t-7 24t-27.5 19t-58 8l5 31l118 -3l119 3zM740 918q-13 -74 -67 -123t-118 -49t-101.5 49t-25.5 123h22q-9 -61 25.5 -97.5t86.5 -36.5t98.5 36.5t57.5 97.5h22z" />
    <glyph glyph-name="ubreve" unicode="&#x16d;" horiz-adv-x="613" 
d="M652 489q-71 0 -83 -62l-44 -266q-11 -62 -70.5 -118.5t-139.5 -56.5t-128.5 49t-44.5 113q0 12 10 75l36 217q6 33 -3.5 41t-59.5 8l4 25l107 -3l109 3l-4 -25q-49 0 -62 -8t-18 -39l-45 -269q-4 -38 -3 -64.5t12.5 -44.5t22.5 -28.5t27 -16t26 -7t20 -1.5
q58 0 113 43.5t69 123.5l39 235q13 76 -59 76l4 25q40 -3 84 -3q46 0 85 3zM610 770q-13 -74 -67 -123t-118 -49t-101.5 49t-25.5 123h22q-9 -61 25 -97.5t86 -36.5t98.5 36.5t58.5 97.5h22z" />
    <glyph glyph-name="Uring" unicode="&#x16e;" horiz-adv-x="814" 
d="M867 652q-36 0 -60 -7t-35 -20.5t-14.5 -23.5t-6.5 -26l-60 -360q-14 -84 -92.5 -160.5t-182.5 -76.5q-107 0 -172 73t-48 178l63 376q5 29 -6 38t-65 9h-24l5 31q34 -3 147 -3q112 0 148 3l-5 -31h-24q-54 0 -68 -9t-19 -38l-63 -379q-6 -47 -4.5 -81.5t14.5 -58.5
t27.5 -39t34.5 -23.5t35.5 -11.5t31.5 -3q81 0 151.5 60.5t87.5 161.5l57 347q4 10 2.5 23t-7 24t-27.5 19t-58 8l5 31l118 -3l119 3zM632 804q10 58 -57 58q-68 0 -77 -58t57 -58q67 0 77 58zM665 803q-6 -35 -39 -61t-77 -26q-40 0 -65 25.5t-19 63.5q6 35 39 61t77 26
q40 0 65 -25.5t19 -63.5z" />
    <glyph glyph-name="uring" unicode="&#x16f;" horiz-adv-x="613" 
d="M652 489q-71 0 -83 -62l-44 -266q-11 -62 -70.5 -118.5t-139.5 -56.5t-128.5 49t-44.5 113q0 12 10 75l36 217q6 33 -3.5 41t-59.5 8l4 25l107 -3l109 3l-4 -25q-49 0 -62 -8t-18 -39l-45 -269q-4 -38 -3 -64.5t12.5 -44.5t22.5 -28.5t27 -16t26 -7t20 -1.5
q58 0 113 43.5t69 123.5l39 235q13 76 -59 76l4 25q40 -3 84 -3q46 0 85 3zM509 700q10 58 -57 58q-68 0 -77 -58t57 -58q67 0 77 58zM542 699q-6 -35 -39 -61t-77 -26q-40 0 -65 25.5t-19 63.5q6 35 39 61t77 26q40 0 65 -25.5t19 -63.5z" />
    <glyph glyph-name="Uhungarumlaut" unicode="&#x170;" horiz-adv-x="814" 
d="M867 652q-36 0 -60 -7t-35 -20.5t-14.5 -23.5t-6.5 -26l-60 -360q-14 -84 -92.5 -160.5t-182.5 -76.5q-107 0 -172 73t-48 178l63 376q5 29 -6 38t-65 9h-24l5 31q34 -3 147 -3q112 0 148 3l-5 -31h-24q-54 0 -68 -9t-19 -38l-63 -379q-6 -47 -4.5 -81.5t14.5 -58.5
t27.5 -39t34.5 -23.5t35.5 -11.5t31.5 -3q81 0 151.5 60.5t87.5 161.5l57 347q4 10 2.5 23t-7 24t-27.5 19t-58 8l5 31l118 -3l119 3zM760 898q-2 -11 -19 -28l-117 -124l-18 14l84 144q17 29 37 29q15 0 25 -10.5t8 -24.5zM585 898q-2 -11 -19 -28l-117 -124l-18 14l84 144
q17 29 37 29q15 0 25 -10.5t8 -24.5z" />
    <glyph glyph-name="uhungarumlaut" unicode="&#x171;" horiz-adv-x="613" 
d="M652 489q-71 0 -83 -62l-44 -266q-11 -62 -70.5 -118.5t-139.5 -56.5t-128.5 49t-44.5 113q0 12 10 75l36 217q6 33 -3.5 41t-59.5 8l4 25l107 -3l109 3l-4 -25q-49 0 -62 -8t-18 -39l-45 -269q-4 -38 -3 -64.5t12.5 -44.5t22.5 -28.5t27 -16t26 -7t20 -1.5
q58 0 113 43.5t69 123.5l39 235q13 76 -59 76l4 25q40 -3 84 -3q46 0 85 3zM628 742q-2 -11 -19 -28l-116 -124l-19 14l84 144q17 29 38 29q15 0 24.5 -10.5t7.5 -24.5zM453 742q-2 -11 -19 -28l-116 -124l-19 14l84 144q17 29 38 29q15 0 24.5 -10.5t7.5 -24.5z" />
    <glyph glyph-name="Uogonek" unicode="&#x172;" horiz-adv-x="814" 
d="M867 652q-36 0 -60 -7t-35 -20.5t-14.5 -23.5t-6.5 -26l-60 -360q-14 -84 -92.5 -160.5t-182.5 -76.5h-12q-1 -1 -6.5 -5.5t-7.5 -7.5q-25 -27 -29 -48q-5 -28 16.5 -44.5t47.5 -16.5q45 0 75 50q5 6 11.5 3.5t3.5 -9.5q-17 -38 -50 -61t-67 -23q-41 0 -64.5 24t-18.5 55
q6 32 31 60q18 18 29 26q-91 15 -142.5 84.5t-36.5 163.5l63 376q5 29 -6 38t-65 9h-24l5 31q34 -3 147 -3q112 0 148 3l-5 -31h-24q-54 0 -68 -9t-19 -38l-63 -379q-6 -47 -4.5 -81.5t14.5 -58.5t27.5 -39t34.5 -23.5t35.5 -11.5t31.5 -3q81 0 151.5 60.5t87.5 161.5
l57 347q4 10 2.5 23t-7 24t-27.5 19t-58 8l5 31l118 -3l119 3z" />
    <glyph glyph-name="uogonek" unicode="&#x173;" horiz-adv-x="613" 
d="M652 489q-71 0 -83 -62l-44 -266q-11 -62 -69.5 -118t-138.5 -57q-19 -14 -25 -21q-24 -26 -28 -48q-5 -28 16.5 -44.5t47.5 -16.5q45 0 75 50q5 6 11.5 3.5t3.5 -9.5q-17 -38 -50 -61t-67 -23q-41 0 -64.5 24t-18.5 55q6 32 31 60q17 19 37 33q-68 9 -108 55.5
t-36 104.5q0 12 10 75l36 217q6 33 -3.5 41t-59.5 8l4 25l107 -3l109 3l-4 -25q-49 0 -62 -8t-18 -39l-45 -269q-4 -38 -3 -64.5t12.5 -44.5t22.5 -28.5t27 -16t26 -7t20 -1.5q58 0 113 43.5t69 123.5l39 235q13 76 -59 76l4 25q40 -3 84 -3q46 0 85 3z" />
    <glyph glyph-name="Wcircumflex" unicode="&#x174;" horiz-adv-x="1106" 
d="M1181 652q-80 -1 -114 -70l-298 -584q-11 -20 -24 -20q-5 0 -8 1.5t-4.5 5t-2 5.5t-1.5 8l-91 515l-262 -515q-11 -20 -24 -20q-3 0 -5 0.5t-4 1.5t-3 2t-1.5 3t-1 3t-1.5 4.5t-1 4.5l-108 616q-2 15 -6.5 22.5t-16.5 11.5t-23.5 4.5t-38.5 0.5l5 31l121 -3q108 0 144 3
l-5 -31q-84 0 -89 -30q-1 -4 2 -18l87 -493l218 428l5 12q1 3 -5.5 38t-9.5 42q-6 13 -20.5 17t-58.5 4l5 31l120 -3q107 0 144 3l-5 -31q-84 0 -89 -30q-1 -2 0 -8t1 -7l89 -496l238 468q6 12 8 20q4 22 -16.5 37t-59.5 16l5 31l118 -3q47 0 92 3zM829 752l-14 -16l-129 66
l-151 -66l-8 16l171 117z" />
    <glyph glyph-name="wcircumflex" unicode="&#x175;" horiz-adv-x="836" 
d="M895 489q-56 -3 -92 -72l-213 -408q-11 -20 -24 -20q-14 0 -17 22l-68 364l-192 -367q-9 -19 -23 -19t-17 19l-84 447q-4 22 -15.5 28t-44.5 6l4 25q39 -3 89 -3l106 3l-4 -25q-55 0 -60 -29q-1 -7 2 -19l65 -348l160 307l6 13q-6 46 -13 57q-5 12 -15.5 15.5t-39.5 3.5
l4 25q39 -3 89 -3l106 3l-4 -25q-54 0 -59 -29q-2 -10 1 -21l66 -346l167 322q8 12 9 25q3 17 -6 32.5t-38 16.5l4 25l86 -3q36 0 69 3zM671 610l-15 -14l-121 108l-157 -108l-11 14l179 162z" />
    <glyph glyph-name="Ycircumflex" unicode="&#x176;" horiz-adv-x="814" 
d="M896 652q-90 -2 -141 -64l-260 -315l-33 -193q-5 -31 6 -40t66 -9h23l-5 -31q-35 3 -145 3t-147 -3l5 31h24q54 0 68 9t19 38l33 195l-169 345q-10 20 -27.5 27t-58.5 7h-19l5 31l130 -3q113 0 149 3l-5 -31q-68 0 -72 -24q-1 -7 5 -20l144 -294l224 271q13 18 15 29
q4 19 -9.5 28.5t-37.5 9.5l5 31l114 -3q52 0 99 3zM683 752l-14 -16l-129 66l-151 -66l-8 16l171 117z" />
    <glyph glyph-name="ycircumflex" unicode="&#x177;" horiz-adv-x="613" 
d="M676 489q-64 -3 -120 -70l-181 -214l-21 -130q-6 -34 3.5 -42t59.5 -8l-4 -25l-106 3l-107 -3l4 25q49 0 62 8t18 39l22 134l-129 251q-10 20 -24 26t-52 6l4 25q44 -3 96 -3l109 3l-4 -25q-41 0 -45 -20q-1 -11 8 -27l104 -203l153 182q19 23 22 38q3 27 -24 30l4 25
q39 -3 81 -3q38 0 71 3zM560 610l-15 -14l-121 108l-157 -108l-11 14l179 162z" />
    <glyph glyph-name="Ydieresis" unicode="&#x178;" horiz-adv-x="814" 
d="M896 652q-90 -2 -141 -64l-260 -315l-33 -193q-5 -31 6 -40t66 -9h23l-5 -31q-35 3 -145 3t-147 -3l5 31h24q54 0 68 9t19 38l33 195l-169 345q-10 20 -27.5 27t-58.5 7h-19l5 31l130 -3q113 0 149 3l-5 -31q-68 0 -72 -24q-1 -7 5 -20l144 -294l224 271q13 18 15 29
q4 19 -9.5 28.5t-37.5 9.5l5 31l114 -3q52 0 99 3zM482 784q-4 -20 -20.5 -34t-35.5 -14q-20 0 -32 14.5t-8 33.5q3 19 19.5 33.5t36.5 14.5q19 0 31 -14t9 -34zM690 784q-4 -20 -20.5 -34t-35.5 -14q-20 0 -32 14.5t-8 33.5q3 19 19.5 33.5t36.5 14.5q19 0 31 -14t9 -34z
" />
    <glyph glyph-name="Zacute" unicode="&#x179;" horiz-adv-x="669" 
d="M647 267l-62 -267h-487q-17 0 -21 2.5t-2 14.5q1 9 10 20l516 615h-171q-106 0 -162.5 -44t-79.5 -150h-25l49 225h472q9 0 12.5 -0.5t7.5 -1.5t3 -4.5t0 -9.5q-2 -10 -10 -19l-515 -614h182q69 0 115 15.5t73.5 50t41.5 70.5t28 97h25zM622 866q-1 -5 -4 -8.5t-6.5 -6.5
t-6 -5t-6 -4t-4.5 -3l-194 -93l-10 22l166 121q23 19 37 19q17 0 25.5 -13t2.5 -29z" />
    <glyph glyph-name="zacute" unicode="&#x17a;" horiz-adv-x="502" 
d="M489 201l-46 -201h-366q-17 0 -21 2t-2 13q0 7 10 18l385 456h-123q-78 0 -120.5 -32t-59.5 -112h-25l36 169h354q16 0 20.5 -2t2.5 -12q0 -6 -9 -17l-384 -455h130q51 0 85.5 11t55 36.5t31.5 52.5t21 73h25zM505 742q-3 -16 -23 -30l-180 -123l-13 19l146 145
q25 25 40 25q14 0 23 -11.5t7 -24.5z" />
    <glyph glyph-name="Zdotaccent" unicode="&#x17b;" horiz-adv-x="669" 
d="M647 267l-62 -267h-487q-17 0 -21 2.5t-2 14.5q1 9 10 20l516 615h-171q-106 0 -162.5 -44t-79.5 -150h-25l49 225h472q9 0 12.5 -0.5t7.5 -1.5t3 -4.5t0 -9.5q-2 -10 -10 -19l-515 -614h182q69 0 115 15.5t73.5 50t41.5 70.5t28 97h25zM523 811q-3 -22 -21 -37.5
t-40 -15.5t-35 15.5t-10 37.5q4 22 22 37.5t40 15.5t35 -15.5t9 -37.5z" />
    <glyph glyph-name="zdotaccent" unicode="&#x17c;" horiz-adv-x="502" 
d="M489 201l-46 -201h-366q-17 0 -21 2t-2 13q0 7 10 18l385 456h-123q-78 0 -120.5 -32t-59.5 -112h-25l36 169h354q16 0 20.5 -2t2.5 -12q0 -6 -9 -17l-384 -455h130q51 0 85.5 11t55 36.5t31.5 52.5t21 73h25zM418 684q-4 -22 -22 -37.5t-40 -15.5t-35 15.5t-9 37.5
t22 37.5t40 15.5t35 -15.5t9 -37.5z" />
    <glyph glyph-name="Zcaron" unicode="&#x17d;" horiz-adv-x="669" 
d="M647 267l-62 -267h-487q-17 0 -21 2.5t-2 14.5q1 9 10 20l516 615h-171q-106 0 -162.5 -44t-79.5 -150h-25l49 225h472q9 0 12.5 -0.5t7.5 -1.5t3 -4.5t0 -9.5q-2 -10 -10 -19l-515 -614h182q69 0 115 15.5t73.5 50t41.5 70.5t28 97h25zM627 853l-170 -117l-132 117
l15 16l129 -66l151 66z" />
    <glyph glyph-name="zcaron" unicode="&#x17e;" horiz-adv-x="502" 
d="M489 201l-46 -201h-366q-17 0 -21 2t-2 13q0 7 10 18l385 456h-123q-78 0 -120.5 -32t-59.5 -112h-25l36 169h354q16 0 20.5 -2t2.5 -12q0 -6 -9 -17l-384 -455h130q51 0 85.5 11t55 36.5t31.5 52.5t21 73h25zM530 758l-179 -162l-125 162l15 14l121 -108l157 108z" />
    <glyph glyph-name="Ereversed" unicode="&#x18e;" horiz-adv-x="742" 
d="M698 0h-601l1 258h25q0 -37 1 -61t5 -50.5t12 -42.5t21.5 -31.5t33.5 -23.5t48.5 -13t66.5 -5h151q34 0 42.5 7t13.5 33l44 267h-98q-71 0 -96 -24t-36 -93h-25l44 265h25q-11 -69 6 -93t88 -24h98l40 240q4 26 -2.5 33t-40.5 7h-143q-113 0 -159.5 -41t-77.5 -153h-25
l65 225h586l-5 -31h-24q-54 0 -68 -9t-19 -38l-87 -524q-5 -29 6 -38t65 -9h24z" />
    <glyph glyph-name="florin" unicode="&#x192;" horiz-adv-x="536" 
d="M553 342h-25q7 85 -18 114.5t-107 29.5h-95q-27 0 -34.5 -6.5t-12.5 -36.5l-29 -175h67q54 0 72 17.5t27 69.5h25l-33 -199h-25q9 52 -3.5 69.5t-66.5 17.5h-67l-28 -168q-6 -36 7.5 -43t73.5 -7l-4 -25l-122 3l-112 -3l4 25q49 0 62 8t18 39l61 367q5 31 -5 39t-59 8
l4 25h434z" />
    <glyph glyph-name="Ohorn" unicode="&#x1a0;" horiz-adv-x="844" 
d="M827 339q-25 -149 -145 -255t-265 -106q-144 0 -229 106q-84 104 -59 255q25 152 145 259t265 107q108 0 185 -63q39 10 61 43q-8 -2 -14 -2q-25 0 -36 16t-7 37q3 21 19.5 37t41.5 16q23 0 35 -18.5t7 -44.5q-6 -37 -29.5 -65.5t-56.5 -37.5q4 -3 23 -25
q84 -109 59 -259zM726 355q24 145 -27 231q-26 44 -69 69t-96 25q-109 0 -195 -94q-81 -86 -105 -231q-25 -158 25 -250q25 -46 67.5 -73.5t95.5 -27.5q109 0 197 101q82 94 107 250z" />
    <glyph glyph-name="ohorn" unicode="&#x1a1;" horiz-adv-x="635" 
d="M624 254q-17 -111 -108 -189q-91 -79 -201 -79q-113 0 -175 79q-64 77 -47 189q19 113 111 194q91 80 201 80q83 0 144 -50q34 8 54 37q-3 -1 -10 -1q-23 0 -33 14t-7 34t18 34t38 14q21 0 31.5 -17t6.5 -40q-5 -33 -26.5 -60t-50.5 -34q6 -8 10 -11q63 -80 44 -194z
M541 267q18 105 -19 168q-43 68 -121 68q-82 0 -143 -68q-58 -62 -76 -168q-19 -113 17 -182q18 -33 49.5 -53t70.5 -20q79 0 144 73q58 67 78 182z" />
    <glyph glyph-name="Uhorn" unicode="&#x1af;" horiz-adv-x="814" 
d="M889 725q-7 -45 -45.5 -77.5t-87.5 -37.5l-64 -382q-17 -103 -97 -177q-81 -73 -179 -73q-107 0 -172 73q-65 72 -48 177l65 389q4 23 -12 30q-16 6 -85 6l5 30l146 -3l148 3l-5 -30q-68 0 -86 -6q-18 -7 -22 -30l-65 -389q-17 -101 18 -157q38 -63 118 -63q85 0 156 63
q68 64 84 157l60 361q5 31 -17 48q-23 16 -74 16l5 30l117 -3q9 0 16 3l-8 -48q58 8 87 51q-7 -3 -18 -3q-25 0 -36.5 16t-7.5 37q3 21 20 37t42 16q23 0 34.5 -19t7.5 -45z" />
    <glyph glyph-name="uhorn" unicode="&#x1b0;" horiz-adv-x="613" 
d="M692 551q-7 -41 -42 -70.5t-78 -33.5l-46 -276q-14 -78 -75 -131q-62 -54 -136 -54q-83 0 -134 54t-37 131l46 276q4 27 -7 35q-11 6 -59 6l5 26q53 -3 107 -3t109 3l-5 -26q-48 0 -61 -6q-13 -7 -17 -35l-46 -276q-13 -75 14 -114q30 -46 89 -46q65 0 117 47
q53 45 64 113l41 248q6 35 -9 52t-52 17l5 26q42 -3 84 -3q7 0 14 3l-7 -42q48 7 75 43q-4 -1 -14 -1q-23 0 -33 14t-7 34t18 34t38 14q21 0 32 -17.5t7 -41.5z" />
    <glyph glyph-name="Acaron" unicode="&#x1cd;" horiz-adv-x="814" 
d="M765 0l-130 3q-108 0 -145 -3l5 31q82 0 87 29q1 4 -2 18l-31 153h-266l-70 -130q-7 -11 -8 -20q-3 -20 13 -35t52 -15l-5 -31l-115 3q-39 0 -102 -3l5 31q41 0 70 14.5t37.5 25.5t18.5 29l320 597q4 8 6.5 11t7 5.5t12.5 2.5q12 0 15.5 -4t6.5 -18l127 -626
q5 -22 18.5 -29.5t59.5 -7.5h18zM543 262l-67 330l-177 -330h244zM700 853l-170 -117l-132 117l15 16l129 -66l151 66z" />
    <glyph glyph-name="acaron" unicode="&#x1ce;" horiz-adv-x="613" 
d="M579 0q-72 3 -96 3l-107 -3l4 25q53 0 58 28q2 10 -11 60l-13 56h-207q-49 -88 -50 -99q0 -6 -0.5 -15.5t9 -19t28.5 -10.5l-4 -25l-82 3q-41 0 -74 -3l4 25q23 1 40.5 7.5t30.5 21t18 22t15 23.5l229 413q5 8 7 11t6.5 5.5t11.5 2.5q14 0 18 -22l98 -444q5 -26 17 -33
t54 -7zM408 194l-52 241l-135 -241h187zM585 758l-179 -162l-125 162l15 14l121 -108l157 108z" />
    <glyph glyph-name="Icaron" unicode="&#x1cf;" horiz-adv-x="406" 
d="M355 0q-34 3 -152 3q-117 0 -153 -3l5 31h26q56 0 70.5 9t19.5 38l88 527q5 29 -6.5 38t-67.5 9h-26l5 31q34 -3 152 -3q117 0 153 3l-5 -31h-26q-56 0 -70.5 -9t-19.5 -38l-88 -527q-5 -29 6.5 -38t67.5 -9h26zM496 853l-170 -117l-132 117l15 16l129 -66l151 66z" />
    <glyph glyph-name="icaron" unicode="&#x1d0;" horiz-adv-x="302" 
d="M263 0l-111 3l-113 -3l4 25q53 0 66 7.5t18 40.5l62 368q5 33 -5 40.5t-63 7.5l4 25l111 -3l113 3l-4 -25q-53 0 -66 -7.5t-18 -40.5l-62 -368q-5 -33 5 -40.5t63 -7.5zM430 758l-179 -162l-125 162l15 14l121 -108l157 108z" />
    <glyph glyph-name="Ocaron" unicode="&#x1d1;" horiz-adv-x="844" 
d="M828 339q-25 -150 -145.5 -255.5t-265.5 -105.5q-143 0 -228 105t-60 256q25 152 145.5 259t265.5 107q143 0 228 -106.5t60 -259.5zM727 354q12 90 1.5 152.5t-43.5 101t-71 55.5t-80 17q-41 0 -84.5 -17.5t-87.5 -53.5t-78.5 -102t-49.5 -153q-14 -96 -4 -162.5
t42 -108.5t70 -60.5t81 -18.5q41 0 85 19t88.5 57.5t80 109.5t50.5 164zM715 853l-170 -117l-132 117l15 16l129 -66l151 66z" />
    <glyph glyph-name="ocaron" unicode="&#x1d2;" horiz-adv-x="636" 
d="M628 255q-19 -113 -110.5 -191t-201.5 -78t-175.5 78.5t-46.5 190.5q18 112 109.5 192.5t202.5 80.5t175.5 -80.5t46.5 -192.5zM543 266q9 70 1 116t-34 73t-52.5 37.5t-55.5 10.5q-28 0 -59 -11.5t-64 -36t-60 -74t-38 -115.5q-9 -74 -1.5 -123t32.5 -78t52 -41t56 -12
t60.5 12.5t65 40t60 79.5t37.5 122zM596 758l-179 -162l-125 162l15 14l121 -108l157 108z" />
    <glyph glyph-name="Ucaron" unicode="&#x1d3;" horiz-adv-x="814" 
d="M867 652q-36 0 -60 -7t-35 -20.5t-14.5 -23.5t-6.5 -26l-60 -360q-14 -84 -92.5 -160.5t-182.5 -76.5q-107 0 -172 73t-48 178l63 376q5 29 -6 38t-65 9h-24l5 31q34 -3 147 -3q112 0 148 3l-5 -31h-24q-54 0 -68 -9t-19 -38l-63 -379q-6 -47 -4.5 -81.5t14.5 -58.5
t27.5 -39t34.5 -23.5t35.5 -11.5t31.5 -3q81 0 151.5 60.5t87.5 161.5l57 347q4 10 2.5 23t-7 24t-27.5 19t-58 8l5 31l118 -3l119 3zM724 853l-170 -117l-132 117l15 16l129 -66l151 66z" />
    <glyph glyph-name="ucaron" unicode="&#x1d4;" horiz-adv-x="613" 
d="M652 489q-71 0 -83 -62l-44 -266q-11 -62 -70.5 -118.5t-139.5 -56.5t-128.5 49t-44.5 113q0 12 10 75l36 217q6 33 -3.5 41t-59.5 8l4 25l107 -3l109 3l-4 -25q-49 0 -62 -8t-18 -39l-45 -269q-4 -38 -3 -64.5t12.5 -44.5t22.5 -28.5t27 -16t26 -7t20 -1.5
q58 0 113 43.5t69 123.5l39 235q13 76 -59 76l4 25q40 -3 84 -3q46 0 85 3zM604 758l-179 -162l-125 162l15 14l121 -108l157 108z" />
    <glyph glyph-name="Udieresisacute" unicode="&#x1d7;" horiz-adv-x="814" 
d="M867 652q-36 0 -60 -7t-35 -20.5t-14.5 -23.5t-6.5 -26l-60 -360q-14 -84 -92.5 -160.5t-182.5 -76.5q-107 0 -172 73t-48 178l63 376q5 29 -6 38t-65 9h-24l5 31q34 -3 147 -3q112 0 148 3l-5 -31h-24q-54 0 -68 -9t-19 -38l-63 -379q-6 -47 -4.5 -81.5t14.5 -58.5
t27.5 -39t34.5 -23.5t35.5 -11.5t31.5 -3q81 0 151.5 60.5t87.5 161.5l57 347q4 10 2.5 23t-7 24t-27.5 19t-58 8l5 31l118 -3l119 3zM506 784q-4 -20 -20.5 -34t-35.5 -14q-20 0 -32 14.5t-8 33.5q3 19 19.5 33.5t36.5 14.5q19 0 31 -14t9 -34zM714 784q-4 -20 -20.5 -34
t-35.5 -14q-20 0 -32 14.5t-8 33.5q3 19 19.5 33.5t36.5 14.5q19 0 31 -14t9 -34zM744 1014q-1 -5 -4 -8.5t-6.5 -6.5t-6 -5t-6 -4t-4.5 -3l-194 -93l-10 22l166 121q23 19 37 19q17 0 25.5 -13t2.5 -29z" />
    <glyph glyph-name="udieresisacute" unicode="&#x1d8;" horiz-adv-x="613" 
d="M652 489q-71 0 -83 -62l-44 -266q-11 -62 -70.5 -118.5t-139.5 -56.5t-128.5 49t-44.5 113q0 12 10 75l36 217q6 33 -3.5 41t-59.5 8l4 25l107 -3l109 3l-4 -25q-49 0 -62 -8t-18 -39l-45 -269q-4 -38 -3 -64.5t12.5 -44.5t22.5 -28.5t27 -16t26 -7t20 -1.5
q58 0 113 43.5t69 123.5l39 235q13 76 -59 76l4 25q40 -3 84 -3q46 0 85 3zM399 684q-3 -19 -19.5 -33.5t-36.5 -14.5q-19 0 -31 14t-9 34q4 20 20.5 34t35.5 14q20 0 32 -14.5t8 -33.5zM575 684q-3 -19 -19.5 -33.5t-36.5 -14.5q-19 0 -31 14t-9 34q4 20 20.5 34t35.5 14
q20 0 32 -14.5t8 -33.5zM621 910q-1 -5 -4 -8.5t-6.5 -6.5t-6 -5t-6 -4t-4.5 -3l-194 -93l-10 22l166 121q23 19 37 19q17 0 25.5 -13t2.5 -29z" />
    <glyph glyph-name="Udieresiscaron" unicode="&#x1d9;" horiz-adv-x="814" 
d="M867 652q-36 0 -60 -7t-35 -20.5t-14.5 -23.5t-6.5 -26l-60 -360q-14 -84 -92.5 -160.5t-182.5 -76.5q-107 0 -172 73t-48 178l63 376q5 29 -6 38t-65 9h-24l5 31q34 -3 147 -3q112 0 148 3l-5 -31h-24q-54 0 -68 -9t-19 -38l-63 -379q-6 -47 -4.5 -81.5t14.5 -58.5
t27.5 -39t34.5 -23.5t35.5 -11.5t31.5 -3q81 0 151.5 60.5t87.5 161.5l57 347q4 10 2.5 23t-7 24t-27.5 19t-58 8l5 31l118 -3l119 3zM506 784q-4 -20 -20.5 -34t-35.5 -14q-20 0 -32 14.5t-8 33.5q3 19 19.5 33.5t36.5 14.5q19 0 31 -14t9 -34zM714 784q-4 -20 -20.5 -34
t-35.5 -14q-20 0 -32 14.5t-8 33.5q3 19 19.5 33.5t36.5 14.5q19 0 31 -14t9 -34zM749 1001l-170 -117l-132 117l15 16l129 -66l151 66z" />
    <glyph glyph-name="udieresiscaron" unicode="&#x1da;" horiz-adv-x="613" 
d="M652 489q-71 0 -83 -62l-44 -266q-11 -62 -70.5 -118.5t-139.5 -56.5t-128.5 49t-44.5 113q0 12 10 75l36 217q6 33 -3.5 41t-59.5 8l4 25l107 -3l109 3l-4 -25q-49 0 -62 -8t-18 -39l-45 -269q-4 -38 -3 -64.5t12.5 -44.5t22.5 -28.5t27 -16t26 -7t20 -1.5
q58 0 113 43.5t69 123.5l39 235q13 76 -59 76l4 25q40 -3 84 -3q46 0 85 3zM399 684q-3 -19 -19.5 -33.5t-36.5 -14.5q-19 0 -31 14t-9 34q4 20 20.5 34t35.5 14q20 0 32 -14.5t8 -33.5zM575 684q-3 -19 -19.5 -33.5t-36.5 -14.5q-19 0 -31 14t-9 34q4 20 20.5 34t35.5 14
q20 0 32 -14.5t8 -33.5zM626 897l-170 -117l-132 117l15 16l129 -66l151 66z" />
    <glyph glyph-name="Udieresisgrave" unicode="&#x1db;" horiz-adv-x="814" 
d="M867 652q-36 0 -60 -7t-35 -20.5t-14.5 -23.5t-6.5 -26l-60 -360q-14 -84 -92.5 -160.5t-182.5 -76.5q-107 0 -172 73t-48 178l63 376q5 29 -6 38t-65 9h-24l5 31q34 -3 147 -3q112 0 148 3l-5 -31h-24q-54 0 -68 -9t-19 -38l-63 -379q-6 -47 -4.5 -81.5t14.5 -58.5
t27.5 -39t34.5 -23.5t35.5 -11.5t31.5 -3q81 0 151.5 60.5t87.5 161.5l57 347q4 10 2.5 23t-7 24t-27.5 19t-58 8l5 31l118 -3l119 3zM506 784q-4 -20 -20.5 -34t-35.5 -14q-20 0 -32 14.5t-8 33.5q3 19 19.5 33.5t36.5 14.5q19 0 31 -14t9 -34zM714 784q-4 -20 -20.5 -34
t-35.5 -14q-20 0 -32 14.5t-8 33.5q3 19 19.5 33.5t36.5 14.5q19 0 31 -14t9 -34zM656 916l-18 -22l-162 93q-18 12 -19 27q0 17 12.5 29.5t29.5 12.5q13 0 31 -19z" />
    <glyph glyph-name="udieresisgrave" unicode="&#x1dc;" horiz-adv-x="613" 
d="M652 489q-71 0 -83 -62l-44 -266q-11 -62 -70.5 -118.5t-139.5 -56.5t-128.5 49t-44.5 113q0 12 10 75l36 217q6 33 -3.5 41t-59.5 8l4 25l107 -3l109 3l-4 -25q-49 0 -62 -8t-18 -39l-45 -269q-4 -38 -3 -64.5t12.5 -44.5t22.5 -28.5t27 -16t26 -7t20 -1.5
q58 0 113 43.5t69 123.5l39 235q13 76 -59 76l4 25q40 -3 84 -3q46 0 85 3zM399 684q-3 -19 -19.5 -33.5t-36.5 -14.5q-19 0 -31 14t-9 34q4 20 20.5 34t35.5 14q20 0 32 -14.5t8 -33.5zM575 684q-3 -19 -19.5 -33.5t-36.5 -14.5q-19 0 -31 14t-9 34q4 20 20.5 34t35.5 14
q20 0 32 -14.5t8 -33.5zM533 812l-18 -22l-162 93q-18 12 -19 27q0 17 12.5 29.5t29.5 12.5q13 0 31 -19z" />
    <glyph glyph-name="eturned" unicode="&#x1dd;" horiz-adv-x="558" 
d="M529 0h-445l9 169h25q-5 -84 19.5 -114t109.5 -30h102q27 0 35 7t12 36l28 165h-70q-54 0 -73 -17.5t-28 -69.5h-25l34 199h25q-9 -52 4 -69.5t67 -17.5h70l31 185q5 29 -0.5 36t-32.5 7h-108q-63 0 -100.5 -18.5t-57 -51.5t-39.5 -99h-25l61 194h457l-4 -25
q-49 0 -62 -8t-18 -39l-61 -367q-5 -31 5 -39t59 -8z" />
    <glyph glyph-name="Gcaron" unicode="&#x1e6;" horiz-adv-x="851" 
d="M825 242q-49 0 -62 -6t-18 -38l-29 -174q-3 -23 -13 -23q-8 0 -27 22.5t-26 39.5q-32 -42 -91.5 -63.5t-123.5 -21.5q-152 0 -241.5 106.5t-64.5 257.5q25 150 150.5 256.5t275.5 106.5q37 0 68 -8.5t54 -25.5t33.5 -27t25.5 -28l65 77q10 12 18 12q7 0 8 -4.5t0 -15.5
q-1 -2 -1 -4l-40 -237q-2 -16 -5 -20t-15 -4q-9 0 -11 3t-2 14q2 112 -53 174.5t-139 62.5q-29 0 -61.5 -7t-76 -29t-79.5 -56.5t-67.5 -97t-44.5 -142.5q-9 -70 -6 -122t23.5 -89t44 -61t55 -37.5t57.5 -18.5t52 -5q11 0 23 0.5t41.5 7t52 18t43.5 36.5t27 59l10 64
q3 17 1 27.5t-22 15.5t-67 5h-35l6 31q35 -3 165 -3l128 3zM718 853l-170 -117l-132 117l15 16l129 -66l151 66z" />
    <glyph glyph-name="gcaron" unicode="&#x1e7;" horiz-adv-x="641" 
d="M625 182q-38 0 -48 -7.5t-15 -37.5l-19 -113q-3 -23 -13 -23q-8 0 -22.5 16.5t-19.5 28.5q-53 -60 -158 -60q-117 0 -186 79.5t-50 191.5q19 113 115 192t209 79q87 0 135 -63l47 51q12 12 17 12q11 0 6 -24l-28 -169q-2 -15 -5 -19.5t-12 -4.5t-11 13q1 89 -42 134
t-104 45q-19 0 -41 -4t-54.5 -19.5t-59.5 -40.5t-51.5 -72.5t-34.5 -109.5q-7 -53 -5 -92t17.5 -66.5t33 -44.5t41 -26.5t41.5 -13t36 -3.5q51 0 88 20q20 11 32 24t14.5 21.5t5.5 24.5l5 30q6 32 -6 41.5t-66 9.5h-20l5 25q34 -3 128 -3q49 0 100 3zM599 758l-179 -162
l-125 162l15 14l121 -108l157 108z" />
    <glyph glyph-name="Oogonek" unicode="&#x1ea;" horiz-adv-x="844" 
d="M828 339q-25 -150 -145 -255t-265 -106q-2 -2 -6.5 -6t-7.5 -7q-24 -26 -28 -48q-5 -28 16.5 -44.5t47.5 -16.5q45 0 75 50q5 6 11.5 3.5t3.5 -9.5q-17 -38 -50 -61t-67 -23q-41 0 -64.5 24t-18.5 55q6 32 31 60q17 17 26 24q-132 12 -207 115t-51 245q25 152 145.5 259
t265.5 107q143 0 228 -106.5t60 -259.5zM727 354q12 90 1.5 152.5t-43.5 101t-71 55.5t-80 17q-41 0 -84.5 -17.5t-87.5 -53.5t-78.5 -102t-49.5 -153q-14 -96 -4 -162.5t42 -108.5t70 -60.5t81 -18.5q41 0 85 19t88.5 57.5t80 109.5t50.5 164z" />
    <glyph glyph-name="oogonek" unicode="&#x1eb;" horiz-adv-x="636" 
d="M628 255q-19 -113 -110.5 -191t-201.5 -78h-3q-15 -10 -26 -21q-24 -26 -28 -48q-5 -28 16.5 -44.5t47.5 -16.5q45 0 75 50q5 6 11.5 3.5t3.5 -9.5q-17 -38 -50 -61t-67 -23q-41 0 -64.5 24t-18.5 55q6 32 31 60q16 17 38 33q-97 13 -151.5 88.5t-36.5 178.5
q18 112 109.5 192.5t202.5 80.5t175.5 -80.5t46.5 -192.5zM543 266q9 70 1 116t-34 73t-52.5 37.5t-55.5 10.5q-28 0 -59 -11.5t-64 -36t-60 -74t-38 -115.5q-9 -74 -1.5 -123t32.5 -78t52 -41t56 -12t60.5 12.5t65 40t60 79.5t37.5 122z" />
    <glyph glyph-name="jcaron" unicode="&#x1f0;" horiz-adv-x="424" 
d="M453 489q-40 0 -48.5 -9t-16.5 -56l-47 -280q-8 -47 -10 -52q-17 -48 -63 -77t-99 -29t-84.5 29t-24.5 69q4 21 17.5 32t31.5 11q17 0 27 -12t7 -29q-2 -15 -13.5 -28t-36.5 -14q24 -36 77 -36q29 0 58.5 26.5t38.5 81.5l54 323q6 31 -5 40.5t-62 9.5h-18l4 25
q39 -3 121 -3q59 0 96 3zM541 758l-179 -162l-125 162l15 14l121 -108l157 108z" />
    <glyph glyph-name="Gacute" unicode="&#x1f4;" horiz-adv-x="851" 
d="M825 242q-49 0 -62 -6t-18 -38l-29 -174q-3 -23 -13 -23q-8 0 -27 22.5t-26 39.5q-32 -42 -91.5 -63.5t-123.5 -21.5q-152 0 -241.5 106.5t-64.5 257.5q25 150 150.5 256.5t275.5 106.5q37 0 68 -8.5t54 -25.5t33.5 -27t25.5 -28l65 77q10 12 18 12q7 0 8 -4.5t0 -15.5
q-1 -2 -1 -4l-40 -237q-2 -16 -5 -20t-15 -4q-9 0 -11 3t-2 14q2 112 -53 174.5t-139 62.5q-29 0 -61.5 -7t-76 -29t-79.5 -56.5t-67.5 -97t-44.5 -142.5q-9 -70 -6 -122t23.5 -89t44 -61t55 -37.5t57.5 -18.5t52 -5q11 0 23 0.5t41.5 7t52 18t43.5 36.5t27 59l10 64
q3 17 1 27.5t-22 15.5t-67 5h-35l6 31q35 -3 165 -3l128 3zM713 866q-1 -5 -4 -8.5t-6.5 -6.5t-6 -5t-6 -4t-4.5 -3l-194 -93l-10 22l166 121q23 19 37 19q17 0 25.5 -13t2.5 -29z" />
    <glyph glyph-name="gacute" unicode="&#x1f5;" horiz-adv-x="641" 
d="M625 182q-38 0 -48 -7.5t-15 -37.5l-19 -113q-3 -23 -13 -23q-8 0 -22.5 16.5t-19.5 28.5q-53 -60 -158 -60q-117 0 -186 79.5t-50 191.5q19 113 115 192t209 79q87 0 135 -63l47 51q12 12 17 12q11 0 6 -24l-28 -169q-2 -15 -5 -19.5t-12 -4.5t-11 13q1 89 -42 134
t-104 45q-19 0 -41 -4t-54.5 -19.5t-59.5 -40.5t-51.5 -72.5t-34.5 -109.5q-7 -53 -5 -92t17.5 -66.5t33 -44.5t41 -26.5t41.5 -13t36 -3.5q51 0 88 20q20 11 32 24t14.5 21.5t5.5 24.5l5 30q6 32 -6 41.5t-66 9.5h-20l5 25q34 -3 128 -3q49 0 100 3zM574 742
q-3 -16 -23 -30l-180 -123l-13 19l146 145q25 25 40 25q14 0 23 -11.5t7 -24.5z" />
    <glyph glyph-name="Aringacute" unicode="&#x1fa;" horiz-adv-x="814" 
d="M765 0l-130 3q-108 0 -145 -3l5 31q82 0 87 29q1 4 -2 18l-31 153h-266l-70 -130q-7 -11 -8 -20q-3 -20 13 -35t52 -15l-5 -31l-115 3q-39 0 -102 -3l5 31q41 0 70 14.5t37.5 25.5t18.5 29l320 597q4 8 6.5 11t7 5.5t12.5 2.5q12 0 15.5 -4t6.5 -18l127 -626
q5 -22 18.5 -29.5t59.5 -7.5h18zM543 262l-67 330l-177 -330h244zM608 804q10 58 -57 58q-68 0 -77 -58t57 -58q67 0 77 58zM641 803q-6 -35 -39 -61t-77 -26q-40 0 -65 25.5t-19 63.5q6 35 39 61t77 26q40 0 65 -25.5t19 -63.5zM686 1032q-5 -14 -28 -27l-193 -93l-10 22
l166 121q23 19 37 19q17 0 25.5 -13t2.5 -29z" />
    <glyph glyph-name="aringacute" unicode="&#x1fb;" horiz-adv-x="613" 
d="M579 0q-72 3 -96 3l-107 -3l4 25q53 0 58 28q2 10 -11 60l-13 56h-207q-49 -88 -50 -99q0 -6 -0.5 -15.5t9 -19t28.5 -10.5l-4 -25l-82 3q-41 0 -74 -3l4 25q23 1 40.5 7.5t30.5 21t18 22t15 23.5l229 413q5 8 7 11t6.5 5.5t11.5 2.5q14 0 18 -22l98 -444q5 -26 17 -33
t54 -7zM408 194l-52 241l-135 -241h187zM490 700q10 58 -57 58q-68 0 -77 -58t57 -58q67 0 77 58zM523 699q-6 -35 -39 -61t-77 -26q-40 0 -65 25.5t-19 63.5q6 35 39 61t77 26q40 0 65 -25.5t19 -63.5zM568 928q-5 -14 -28 -27l-193 -93l-10 22l166 121q23 19 37 19
q17 0 25.5 -13t2.5 -29z" />
    <glyph glyph-name="AEacute" unicode="&#x1fc;" horiz-adv-x="975" 
d="M974 258l-85 -258h-516l5 31q52 0 65.5 6.5t19.5 38.5l39 237h-172l-116 -213q-7 -13 -8 -19q-4 -20 12 -34.5t52 -15.5l-5 -31l-114 3l-103 -3l5 31q91 0 126 67l304 553q-12 1 -38 1h-47l5 31h585l-10 -225h-25q3 50 0 86.5t-17.5 60.5t-46.5 35.5t-86 11.5h-112
q-34 0 -42.5 -7t-13.5 -33l-45 -268h94q69 0 93 24.5t35 92.5h25l-44 -265h-25q11 68 -4.5 92.5t-84.5 24.5h-94l-40 -242q-5 -26 1.5 -33t40.5 -7h111q37 0 66 5.5t50 13t39.5 24.5t30 31t24 43t20.5 50t21 60h25zM507 344l44 260q0 9 1 18.5t-8.5 18t-29.5 8.5l-167 -305
h160zM775 866q-1 -5 -4 -8.5t-6.5 -6.5t-6 -5t-6 -4t-4.5 -3l-194 -93l-10 22l166 121q23 19 37 19q17 0 25.5 -13t2.5 -29z" />
    <glyph glyph-name="aeacute" unicode="&#x1fd;" horiz-adv-x="736" 
d="M739 194l-61 -194h-392l4 25q37 0 47 7.5t15 37.5l27 165h-132l-76 -136q-12 -19 -13 -30q0 -5 -1 -14t8.5 -19t28.5 -11l-4 -25q-45 3 -81 3q-42 0 -75 -3l4 25q62 1 102 69l223 394q-10 1 -31 1h-27l4 25h443l-9 -169h-25q5 84 -16 114t-97 30h-76q-27 0 -35 -7
t-13 -36l-31 -186h64q53 0 71 17.5t27 69.5h25l-33 -199h-25q9 52 -4 69.5t-65 17.5h-64l-28 -167q-4 -30 1 -36.5t32 -6.5h77q85 0 121 35t65 134h25zM383 260l30 177q7 45 -24 48l-128 -225h122zM621 742q-3 -16 -23 -30l-180 -123l-13 19l146 145q25 25 40 25
q14 0 23 -11.5t7 -24.5z" />
    <glyph glyph-name="Oslashacute" unicode="&#x1fe;" horiz-adv-x="844" 
d="M828 339q-25 -150 -145.5 -255.5t-265.5 -105.5q-108 0 -190 65l-87 -99l-19 14l90 101q-110 118 -82 280q25 152 145.5 259t265.5 107q106 0 189 -66l88 100l19 -14l-91 -102q44 -41 71.5 -115.5t11.5 -168.5zM699 607q-64 76 -164 76q-14 0 -31 -2t-45 -10t-54 -21.5
t-56 -40t-54 -61.5t-45 -89t-32 -120q-26 -155 26 -243zM739 339q27 164 -27 248l-454 -511q57 -76 164 -76q24 0 50.5 4.5t70 25t79 54.5t69 100t48.5 155zM710 866q-1 -5 -4 -8.5t-6.5 -6.5t-6 -5t-6 -4t-4.5 -3l-194 -93l-10 22l166 121q23 19 37 19q17 0 25.5 -13
t2.5 -29z" />
    <glyph glyph-name="oslashacute" unicode="&#x1ff;" horiz-adv-x="636" 
d="M628 255q-19 -113 -110.5 -191t-201.5 -78q-80 0 -135 41l-71 -83l-18 14l70 83q-90 87 -68 214q18 112 109.5 192.5t202.5 80.5q76 0 135 -42l71 84l18 -14l-71 -85q40 -33 60 -91t9 -125zM556 255q19 122 -23 186l-329 -387q43 -46 115 -46q97 0 165 77q53 60 72 170z
M518 460q-46 46 -116 46q-98 0 -167 -81q-51 -61 -69 -170q-20 -119 22 -183zM557 659q-3 -16 -23 -30l-180 -123l-13 19l146 145q25 25 40 25q14 0 23 -11.5t7 -24.5z" />
    <glyph glyph-name="Adblgrave" unicode="&#x200;" horiz-adv-x="814" 
d="M765 0l-130 3q-108 0 -145 -3l5 31q82 0 87 29q1 4 -2 18l-31 153h-266l-70 -130q-7 -11 -8 -20q-3 -20 13 -35t52 -15l-5 -31l-115 3q-39 0 -102 -3l5 31q41 0 70 14.5t37.5 25.5t18.5 29l320 597q4 8 6.5 11t7 5.5t12.5 2.5q12 0 15.5 -4t6.5 -18l127 -626
q5 -22 18.5 -29.5t59.5 -7.5h18zM543 262l-67 330l-177 -330h244zM458 760l-24 -14l-75 124q-11 17 -9 28q2 14 15 24.5t28 10.5q22 0 29 -29zM633 760l-24 -14l-75 124q-11 17 -9 28q2 14 15 24.5t28 10.5q22 0 29 -29z" />
    <glyph glyph-name="adblgrave" unicode="&#x201;" horiz-adv-x="613" 
d="M579 0q-72 3 -96 3l-107 -3l4 25q53 0 58 28q2 10 -11 60l-13 56h-207q-49 -88 -50 -99q0 -6 -0.5 -15.5t9 -19t28.5 -10.5l-4 -25l-82 3q-41 0 -74 -3l4 25q23 1 40.5 7.5t30.5 21t18 22t15 23.5l229 413q5 8 7 11t6.5 5.5t11.5 2.5q14 0 18 -22l98 -444q5 -26 17 -33
t54 -7zM408 194l-52 241l-135 -241h187zM337 604l-23 -14l-76 124q-11 17 -9 28q2 14 15.5 24.5t28.5 10.5q21 0 28 -29zM512 604l-23 -14l-76 124q-11 17 -9 28q2 14 15.5 24.5t28.5 10.5q21 0 28 -29z" />
    <glyph glyph-name="Edblgrave" unicode="&#x204;" horiz-adv-x="742" 
d="M741 258l-85 -258h-601l5 31h24q54 0 68 9t19 38l87 524q5 29 -6 38t-65 9h-24l5 31h586l-9 -225h-25q3 57 -1.5 91t-23 59t-54 34.5t-94.5 9.5h-143q-34 0 -42.5 -7t-12.5 -33l-40 -240h98q71 0 96 24t36 93h25l-44 -265h-25q11 69 -6 93t-88 24h-98l-44 -267
q-5 -26 1.5 -33t40.5 -7h151q53 0 91 9.5t63.5 25.5t46 47t33.5 62t30 83h25zM451 760l-24 -14l-75 124q-11 17 -9 28q2 14 15 24.5t28 10.5q22 0 29 -29zM626 760l-24 -14l-75 124q-11 17 -9 28q2 14 15 24.5t28 10.5q22 0 29 -29z" />
    <glyph glyph-name="edblgrave" unicode="&#x205;" horiz-adv-x="558" 
d="M561 194l-61 -194h-457l4 25q49 0 62 8t18 39l61 367q5 31 -5 39t-59 8l4 25h445l-9 -169h-25q5 84 -19.5 114t-109.5 30h-102q-27 0 -34.5 -6.5t-12.5 -36.5l-28 -165h70q54 0 73 17.5t28 69.5h25l-33 -199h-25q9 52 -4.5 69.5t-67.5 17.5h-70l-31 -185q-4 -30 1 -36.5
t32 -6.5h108q63 0 100.5 18.5t57 51.5t39.5 99h25zM332 604l-23 -14l-76 124q-11 17 -9 28q2 14 15.5 24.5t28.5 10.5q21 0 28 -29zM507 604l-23 -14l-76 124q-11 17 -9 28q2 14 15.5 24.5t28.5 10.5q21 0 28 -29z" />
    <glyph glyph-name="Idblgrave" unicode="&#x208;" horiz-adv-x="406" 
d="M355 0q-34 3 -152 3q-117 0 -153 -3l5 31h26q56 0 70.5 9t19.5 38l88 527q5 29 -6.5 38t-67.5 9h-26l5 31q34 -3 152 -3q117 0 153 3l-5 -31h-26q-56 0 -70.5 -9t-19.5 -38l-88 -527q-5 -29 6.5 -38t67.5 -9h26zM283 760l-24 -14l-75 124q-11 17 -9 28q2 14 15 24.5
t28 10.5q22 0 29 -29zM458 760l-24 -14l-75 124q-11 17 -9 28q2 14 15 24.5t28 10.5q22 0 29 -29z" />
    <glyph glyph-name="idblgrave" unicode="&#x209;" horiz-adv-x="302" 
d="M263 0l-111 3l-113 -3l4 25q53 0 66 7.5t18 40.5l62 368q5 33 -5 40.5t-63 7.5l4 25l111 -3l113 3l-4 -25q-53 0 -66 -7.5t-18 -40.5l-62 -368q-5 -33 5 -40.5t63 -7.5zM205 604l-23 -14l-76 124q-11 17 -9 28q2 14 15.5 24.5t28.5 10.5q21 0 28 -29zM380 604l-23 -14
l-76 124q-11 17 -9 28q2 14 15.5 24.5t28.5 10.5q21 0 28 -29z" />
    <glyph glyph-name="Odblgrave" unicode="&#x20c;" horiz-adv-x="844" 
d="M828 339q-25 -150 -145.5 -255.5t-265.5 -105.5q-143 0 -228 105t-60 256q25 152 145.5 259t265.5 107q143 0 228 -106.5t60 -259.5zM727 354q12 90 1.5 152.5t-43.5 101t-71 55.5t-80 17q-41 0 -84.5 -17.5t-87.5 -53.5t-78.5 -102t-49.5 -153q-14 -96 -4 -162.5
t42 -108.5t70 -60.5t81 -18.5q41 0 85 19t88.5 57.5t80 109.5t50.5 164zM502 760l-24 -14l-75 124q-11 17 -9 28q2 14 15 24.5t28 10.5q22 0 29 -29zM677 760l-24 -14l-75 124q-11 17 -9 28q2 14 15 24.5t28 10.5q22 0 29 -29z" />
    <glyph glyph-name="odblgrave" unicode="&#x20d;" horiz-adv-x="636" 
d="M628 255q-19 -113 -110.5 -191t-201.5 -78t-175.5 78.5t-46.5 190.5q18 112 109.5 192.5t202.5 80.5t175.5 -80.5t46.5 -192.5zM543 266q9 70 1 116t-34 73t-52.5 37.5t-55.5 10.5q-28 0 -59 -11.5t-64 -36t-60 -74t-38 -115.5q-9 -74 -1.5 -123t32.5 -78t52 -41t56 -12
t60.5 12.5t65 40t60 79.5t37.5 122zM371 604l-23 -14l-76 124q-11 17 -9 28q2 14 15.5 24.5t28.5 10.5q21 0 28 -29zM546 604l-23 -14l-76 124q-11 17 -9 28q2 14 15.5 24.5t28.5 10.5q21 0 28 -29z" />
    <glyph glyph-name="Rdblgrave" unicode="&#x210;" horiz-adv-x="800" 
d="M797 88q-6 -34 -36 -72t-82 -38q-80 0 -121 41q-25 27 -27.5 61t8.5 83q11 51 8.5 78.5t-24.5 53.5q-31 36 -97 36h-125l-42 -253q-5 -29 6 -38t65 -9h24l-5 -31q-35 3 -145 3t-147 -3l5 31h24q54 0 68 9t19 38l88 527q5 29 -6 38t-65 9h-24l5 31h324q113 0 184 -53.5
t59 -126.5q-9 -53 -64.5 -97.5t-146.5 -65.5q56 -17 83 -52q19 -22 23 -45.5t3 -81.5q-1 -111 9 -135q10 -26 42 -26q14 0 27 5t30.5 26.5t27.5 57.5q5 16 15 16q13 0 10 -17zM635 503q7 43 -3.5 72.5t-27.5 44.5t-51 22.5t-54.5 8.5t-57.5 1q-51 0 -60 -1
q-18 -2 -23.5 -9.5t-9.5 -29.5l-43 -259h121q184 0 209 150zM451 760l-24 -14l-75 124q-11 17 -9 28q2 14 15 24.5t28 10.5q22 0 29 -29zM626 760l-24 -14l-75 124q-11 17 -9 28q2 14 15 24.5t28 10.5q22 0 29 -29z" />
    <glyph glyph-name="rdblgrave" unicode="&#x211;" horiz-adv-x="602" 
d="M604 68q-4 -25 -27 -53.5t-65 -28.5q-70 0 -98 33q-19 22 -21 43t7 62q6 32 6 53.5t-12 36.5q-27 32 -77 32h-90l-29 -174q-5 -31 5 -39t59 -8l-4 -25l-106 3l-107 -3l4 25q49 0 62 8t18 39l62 370q5 31 -5 39t-59 8l4 25h240q89 0 142.5 -40.5t44.5 -94.5
q-7 -44 -50.5 -77t-101.5 -47q25 -10 40.5 -24t22 -32.5t8 -28.5t2.5 -30q4 -93 9 -108q11 -24 31 -24q8 0 16 2t22.5 17.5t22.5 42.5q0 13 14 13q13 0 10 -15zM472 379q6 38 -3 62t-34 33.5t-46 12t-57 2.5q-45 0 -53 -3q-12 -6 -19 -40l-29 -178h88q46 0 77.5 11t46 30.5
t20.5 34.5t9 35zM355 604l-23 -14l-76 124q-11 17 -9 28q2 14 15.5 24.5t28.5 10.5q21 0 28 -29zM530 604l-23 -14l-76 124q-11 17 -9 28q2 14 15.5 24.5t28.5 10.5q21 0 28 -29z" />
    <glyph glyph-name="Udblgrave" unicode="&#x214;" horiz-adv-x="814" 
d="M867 652q-36 0 -60 -7t-35 -20.5t-14.5 -23.5t-6.5 -26l-60 -360q-14 -84 -92.5 -160.5t-182.5 -76.5q-107 0 -172 73t-48 178l63 376q5 29 -6 38t-65 9h-24l5 31q34 -3 147 -3q112 0 148 3l-5 -31h-24q-54 0 -68 -9t-19 -38l-63 -379q-6 -47 -4.5 -81.5t14.5 -58.5
t27.5 -39t34.5 -23.5t35.5 -11.5t31.5 -3q81 0 151.5 60.5t87.5 161.5l57 347q4 10 2.5 23t-7 24t-27.5 19t-58 8l5 31l118 -3l119 3zM511 760l-24 -14l-75 124q-11 17 -9 28q2 14 15 24.5t28 10.5q22 0 29 -29zM686 760l-24 -14l-75 124q-11 17 -9 28q2 14 15 24.5t28 10.5
q22 0 29 -29z" />
    <glyph glyph-name="udblgrave" unicode="&#x215;" horiz-adv-x="613" 
d="M652 489q-71 0 -83 -62l-44 -266q-11 -62 -70.5 -118.5t-139.5 -56.5t-128.5 49t-44.5 113q0 12 10 75l36 217q6 33 -3.5 41t-59.5 8l4 25l107 -3l109 3l-4 -25q-49 0 -62 -8t-18 -39l-45 -269q-4 -38 -3 -64.5t12.5 -44.5t22.5 -28.5t27 -16t26 -7t20 -1.5
q58 0 113 43.5t69 123.5l39 235q13 76 -59 76l4 25q40 -3 84 -3q46 0 85 3zM379 604l-23 -14l-76 124q-11 17 -9 28q2 14 15.5 24.5t28.5 10.5q21 0 28 -29zM554 604l-23 -14l-76 124q-11 17 -9 28q2 14 15.5 24.5t28.5 10.5q21 0 28 -29z" />
    <glyph glyph-name="uni0218" unicode="&#x218;" horiz-adv-x="611" 
d="M569 185q-14 -83 -82.5 -145t-159.5 -62q-124 0 -184 72l-47 -60q-9 -12 -17 -12t-9 5.5t2 18.5l34 200q2 11 3 15t4.5 7t9.5 3q5 0 8 -2t2 -7q-13 -107 43 -158q57 -51 156 -51q65 0 111.5 43t55.5 100q9 54 -20 95q-18 24 -36 32.5t-65 20.5q-7 2 -23.5 5.5t-23.5 5.5
q-68 17 -94.5 29.5t-52.5 46.5q-38 52 -27 124q14 80 83 137t155 57q44 0 79 -14t48 -26t30 -32l46 59q11 13 18 13t8 -4.5t0 -15.5q-1 -2 -1 -4l-34 -201q-2 -15 -5 -19.5t-12 -4.5q-8 0 -9 3t-1 15q3 88 -36.5 145.5t-134.5 57.5q-62 0 -108.5 -39t-55.5 -92
q-6 -36 13 -74t74 -52l131 -33q50 -13 81 -46.5t40.5 -73.5t2.5 -82zM326 -145q-7 -39 -29 -75t-40.5 -53t-24.5 -17q-9 0 -7 8q0 3 9 10q63 56 75 127q1 8 1 14q-13 -14 -33 -14q-19 0 -27.5 11.5t-6.5 27.5q3 16 16 28t31 12q24 0 33 -22.5t3 -56.5z" />
    <glyph glyph-name="uni0219" unicode="&#x219;" horiz-adv-x="458" 
d="M431 142q-10 -62 -62.5 -109t-122.5 -47q-91 0 -138 49q-15 -18 -23 -26q-20 -23 -26 -23q-11 0 -6 24l22 135q2 11 3 15t4.5 7t9.5 3q11 0 11 -9q-11 -74 30 -111q42 -39 117 -39q49 0 84 32t41 72q9 47 -19 75q-14 15 -26.5 20.5t-54.5 15.5q-72 17 -93.5 25.5
t-39.5 29.5q-37 45 -27 101q10 60 62 103t119 43q75 0 117 -49q19 22 23 26q20 23 26 23q7 0 8 -6t-2 -18l-23 -136q-2 -15 -5 -19.5t-12 -4.5q-10 0 -10 13q1 20 -1.5 38t-12.5 47t-38.5 46.5t-72.5 17.5q-48 0 -82 -29t-40 -66q-10 -63 51 -89q2 -1 59 -15q66 -16 86 -25
t42 -36q4 -5 9 -13.5t11 -35.5t2 -55zM250 -145q-7 -39 -29 -75t-40.5 -53t-24.5 -17q-9 0 -7 8q0 3 9 10q63 56 75 127q1 8 1 14q-13 -14 -33 -14q-19 0 -27.5 11.5t-6.5 27.5q3 16 16 28t31 12q24 0 33 -22.5t3 -56.5z" />
    <glyph glyph-name="uni021A" unicode="&#x21a;" horiz-adv-x="786" 
d="M808 452h-25q11 127 -15.5 160.5t-142.5 33.5q-48 0 -59 -2q-11 -1 -16.5 -6.5t-7.5 -11.5t-4 -20l-88 -527q-3 -17 -0.5 -27.5t24.5 -15.5t73 -5h40l-5 -31q-40 3 -189 3q-148 0 -190 -3l5 31h40q73 0 91 9.5t22 38.5l88 527q4 17 1.5 26.5t-17.5 11.5q-9 2 -57 2
q-42 0 -68.5 -2.5t-50 -11t-37 -20t-26.5 -35.5t-22 -52t-20 -73h-25l57 225h643zM414 -145q-7 -39 -29 -75t-40.5 -53t-24.5 -17q-9 0 -7 8q0 3 9 10q63 56 75 127q1 8 1 14q-13 -14 -33 -14q-19 0 -27.5 11.5t-6.5 27.5q3 16 16 28t31 12q24 0 33 -22.5t3 -56.5z" />
    <glyph glyph-name="uni021B" unicode="&#x21b;" horiz-adv-x="591" 
d="M612 339h-25q9 94 -12 119t-103 25q-43 0 -52 -5.5t-15 -37.5l-60 -364q-6 -32 5.5 -41.5t66.5 -9.5h21l-4 -25q-38 3 -137 3t-139 -3l4 25h21q55 0 69.5 9.5t20.5 41.5l60 364q6 32 -1 37.5t-50 5.5q-84 0 -113 -25t-51 -119h-25l42 169h491zM316 -145q-7 -39 -29 -75
t-40.5 -53t-24.5 -17q-9 0 -7 8q0 3 9 10q63 56 75 127q1 8 1 14q-13 -14 -33 -14q-19 0 -27.5 11.5t-6.5 27.5q3 16 16 28t31 12q24 0 33 -22.5t3 -56.5z" />
    <glyph glyph-name="uni0237" unicode="&#x237;" horiz-adv-x="424" 
d="M453 489q-40 0 -48.5 -9t-16.5 -56l-47 -280q-8 -47 -10 -52q-17 -48 -63 -77t-99 -29t-84.5 29t-24.5 69q4 21 17.5 32t31.5 11q17 0 27 -12t7 -29q-2 -15 -13.5 -28t-36.5 -14q24 -36 77 -36q29 0 58.5 26.5t38.5 81.5l54 323q6 31 -5 40.5t-62 9.5h-18l4 25
q39 -3 121 -3q59 0 96 3z" />
    <glyph glyph-name="ereversed" unicode="&#x258;" horiz-adv-x="558" 
d="M529 0h-457l3 194h25q-1 -50 3 -78.5t18.5 -51t43 -31t76.5 -8.5h108q27 0 35 7t12 36l31 185h-70q-54 0 -72.5 -17.5t-27.5 -69.5h-25l33 199h25q-9 -52 4 -69.5t67 -17.5h70l28 165q5 29 -0.5 36t-32.5 7h-102q-85 0 -120 -30t-57 -114h-25l47 169h445l-4 -25
q-49 0 -62 -8t-18 -39l-61 -367q-5 -31 5 -39t59 -8z" />
    <glyph glyph-name="schwa" unicode="&#x259;" horiz-adv-x="558" 
d="M529 0h-445l9 169h25q-5 -84 19.5 -114t109.5 -30h102q27 0 35 7t12 36l28 165h-70q-54 0 -73 -17.5t-28 -69.5h-25l34 199h25q-9 -52 4 -69.5t67 -17.5h70l31 185q5 29 -0.5 36t-32.5 7h-108q-63 0 -100.5 -18.5t-57 -51.5t-39.5 -99h-25l61 194h457l-4 -25
q-49 0 -62 -8t-18 -39l-61 -367q-5 -31 5 -39t59 -8z" />
    <glyph glyph-name="ringhalfright" unicode="&#x2be;" horiz-adv-x="480" 
d="M500 465q-14 -83 -85 -141t-155 -58q-57 0 -97 42l-29 -32q-10 -10 -17 -10q-14 0 -11 24l21 121q2 15 5 19t13 4q12 0 14 -15q-1 -61 28.5 -92t70.5 -31q17 0 37 5.5t48 21.5t51 53t32 91q9 45 1.5 75.5t-19 49.5t-31 29t-33.5 13t-27 3q-46 0 -88 -31t-53 -83
q-5 -17 -17 -17q-11 0 -13.5 5.5t0.5 13.5q8 53 59 97.5t120 44.5q85 0 137 -58.5t38 -143.5z" />
    <glyph glyph-name="ringhalfleft" unicode="&#x2bf;" horiz-adv-x="480" 
d="M490 408q-9 -53 -60 -97.5t-120 -44.5q-85 0 -136.5 58.5t-37.5 143.5q14 83 84.5 141t154.5 58q60 0 97 -42l30 32q10 10 16 10q15 0 11 -24l-20 -121q-2 -14 -5.5 -18.5t-13.5 -4.5q-13 0 -13 15q1 61 -29 92t-71 31q-17 0 -37 -5.5t-48 -21.5t-50.5 -53t-31.5 -91
q-9 -53 1 -90t31.5 -52.5t40 -21.5t35.5 -6q46 0 88 31t53 83q5 17 17 17q11 0 13.5 -4.5t0.5 -14.5z" />
    <glyph glyph-name="circumflex" unicode="&#x2c6;" 
d="M516 527l-15 -14l-121 108l-157 -108l-11 14l179 162z" />
    <glyph glyph-name="caron" unicode="&#x2c7;" 
d="M541 675l-179 -162l-125 162l15 14l121 -108l157 108z" />
    <glyph glyph-name="breve" unicode="&#x2d8;" 
d="M547 687q-13 -74 -67 -123t-118 -49t-101.5 49t-25.5 123h22q-9 -61 25 -97.5t86 -36.5t98.5 36.5t58.5 97.5h22z" />
    <glyph glyph-name="dotaccent" unicode="&#x2d9;" horiz-adv-x="319" 
d="M313 601q-4 -22 -22 -37.5t-40 -15.5t-35 15.5t-9 37.5t22 37.5t40 15.5t35 -15.5t9 -37.5z" />
    <glyph glyph-name="ring" unicode="&#x2da;" horiz-adv-x="873" 
d="M606 617q10 58 -57 58q-68 0 -77 -58t57 -58q67 0 77 58zM639 616q-6 -35 -39 -61t-77 -26q-40 0 -65 25.5t-19 63.5q6 35 39 61t77 26q40 0 65 -25.5t19 -63.5z" />
    <glyph glyph-name="ogonek" unicode="&#x2db;" 
d="M359 -100q-17 -38 -50 -61t-67 -23q-41 0 -64.5 24t-18.5 55q6 32 31 60q29 30 65 50h38q-33 -13 -60 -40q-24 -26 -28 -48q-5 -28 16.5 -44.5t47.5 -16.5q45 0 75 50q5 6 11.5 3.5t3.5 -9.5z" />
    <glyph glyph-name="tilde" unicode="&#x2dc;" 
d="M557 633q-54 -48 -77.5 -63.5t-50.5 -15.5q-24 0 -66 27q-34 22 -58 22q-45 0 -95 -49l-14 15q53 48 76.5 63.5t50.5 15.5q25 0 67 -27q32 -22 58 -22q44 0 94 49z" />
    <glyph glyph-name="hungarumlaut" unicode="&#x2dd;" 
d="M565 659q-2 -11 -19 -28l-116 -124l-19 14l84 144q17 29 38 29q15 0 24.5 -10.5t7.5 -24.5zM390 659q-2 -11 -19 -28l-116 -124l-19 14l84 144q17 29 38 29q15 0 24.5 -10.5t7.5 -24.5z" />
    <glyph glyph-name="uni0300" unicode="&#x300;" horiz-adv-x="0" 
d="M-154 525l-21 -19l-138 123q-16 16 -13 30q2 13 15 24.5t27 11.5q16 0 32 -25z" />
    <glyph glyph-name="uni0301" unicode="&#x301;" horiz-adv-x="0" 
d="M-67 659q-3 -16 -23 -30l-180 -123l-13 19l146 145q25 25 40 25q14 0 23 -11.5t7 -24.5z" />
    <glyph glyph-name="uni0302" unicode="&#x302;" horiz-adv-x="0" 
d="M-67 527l-15 -14l-121 108l-157 -108l-11 14l179 162z" />
    <glyph glyph-name="uni0303" unicode="&#x303;" horiz-adv-x="0" 
d="M-26 633q-54 -48 -77.5 -63.5t-50.5 -15.5q-24 0 -66 27q-34 22 -58 22q-45 0 -95 -49l-14 15q53 48 76.5 63.5t50.5 15.5q25 0 67 -27q32 -22 58 -22q44 0 94 49z" />
    <glyph glyph-name="uni0304" unicode="&#x304;" horiz-adv-x="0" 
d="M-20 585h-378l5 31h378z" />
    <glyph glyph-name="uni0306" unicode="&#x306;" horiz-adv-x="0" 
d="M-36 687q-13 -74 -67 -123t-118 -49t-101.5 49t-25.5 123h22q-9 -61 25 -97.5t86 -36.5t98.5 36.5t58.5 97.5h22z" />
    <glyph glyph-name="uni0307" unicode="&#x307;" horiz-adv-x="0" 
d="M-153 601q-4 -22 -22 -37.5t-40 -15.5t-35 15.5t-9 37.5t22 37.5t40 15.5t35 -15.5t9 -37.5z" />
    <glyph glyph-name="uni0308" unicode="&#x308;" horiz-adv-x="0" 
d="M-247 601q-3 -19 -19.5 -33.5t-36.5 -14.5q-19 0 -31 14t-9 34q4 20 20.5 34t35.5 14q20 0 32 -14.5t8 -33.5zM-71 601q-3 -19 -19.5 -33.5t-36.5 -14.5q-19 0 -31 14t-9 34q4 20 20.5 34t35.5 14q20 0 32 -14.5t8 -33.5z" />
    <glyph glyph-name="uni0309" unicode="&#x309;" horiz-adv-x="0" 
d="M-125 626q-3 -21 -30 -32q-51 -21 -55 -44l-2 -12q-2 -10 -12 -10t-8 10l2 12q6 36 43 60q7 7 8 16q4 18 1 21q-6 7 -25 7q-22 0 -40 -8q11 -7 8 -20q-1 -10 -9 -16.5t-17 -6.5t-14.5 6.5t-4.5 16.5q4 23 27 35t53 12q39 0 57 -11q22 -12 18 -36z" />
    <glyph glyph-name="uni030A" unicode="&#x30a;" horiz-adv-x="0" 
d="M-137 617q10 58 -57 58q-68 0 -77 -58t57 -58q67 0 77 58zM-104 616q-6 -35 -39 -61t-77 -26q-40 0 -65 25.5t-19 63.5q6 35 39 61t77 26q40 0 65 -25.5t19 -63.5z" />
    <glyph glyph-name="uni030B" unicode="&#x30b;" horiz-adv-x="0" 
d="M-18 659q-2 -11 -19 -28l-116 -124l-19 14l84 144q17 29 38 29q15 0 24.5 -10.5t7.5 -24.5zM-193 659q-2 -11 -19 -28l-116 -124l-19 14l84 144q17 29 38 29q15 0 24.5 -10.5t7.5 -24.5z" />
    <glyph glyph-name="uni030C" unicode="&#x30c;" horiz-adv-x="0" 
d="M-42 675l-179 -162l-125 162l15 14l121 -108l157 108z" />
    <glyph glyph-name="uni030F" unicode="&#x30f;" horiz-adv-x="0" 
d="M-267 521l-23 -14l-76 124q-11 17 -9 28q2 14 15.5 24.5t28.5 10.5q21 0 28 -29zM-92 521l-23 -14l-76 124q-11 17 -9 28q2 14 15.5 24.5t28.5 10.5q21 0 28 -29z" />
    <glyph glyph-name="uni0311" unicode="&#x311;" horiz-adv-x="0" 
d="M-65 515h-22q9 61 -25.5 97.5t-86.5 36.5t-98.5 -36.5t-57.5 -97.5h-22q13 74 67 123t118 49t101.5 -49t25.5 -123z" />
    <glyph glyph-name="uni0323" unicode="&#x323;" horiz-adv-x="0" 
d="M-278 -147q-3 -22 -21 -37.5t-40 -15.5t-35 15.5t-10 37.5q4 22 22 37.5t40 15.5t35 -15.5t9 -37.5z" />
    <glyph glyph-name="uni0326" unicode="&#x326;" horiz-adv-x="0" 
d="M-286 -145q-7 -39 -29 -75t-40.5 -53t-24.5 -17q-9 0 -7 8q0 3 9 10q63 56 75 127q1 8 1 14q-13 -14 -33 -14q-19 0 -27.5 11.5t-6.5 27.5q3 16 16 28t31 12q24 0 33 -22.5t3 -56.5z" />
    <glyph glyph-name="uni032E" unicode="&#x32e;" horiz-adv-x="0" 
d="M-161 -61q-13 -74 -67 -123t-118 -49t-101.5 49t-25.5 123h22q-9 -61 25 -97.5t86 -36.5t98.5 36.5t58.5 97.5h22z" />
    <glyph glyph-name="uni032F" unicode="&#x32f;" horiz-adv-x="0" 
d="M-190 -233h-22q9 61 -25.5 97.5t-86.5 36.5t-98.5 -36.5t-57.5 -97.5h-22q13 74 67 123t118 49t101.5 -49t25.5 -123z" />
    <glyph glyph-name="uni0330" unicode="&#x330;" horiz-adv-x="0" 
d="M-151 -115q-39 -35 -54.5 -47.5t-34.5 -22t-38 -9.5q-25 0 -67 27q-34 22 -58 22q-45 0 -94 -49l-15 15q39 35 54.5 47.5t34.5 22t38 9.5q25 0 67 -27q34 -22 58 -22q44 0 94 49z" />
    <glyph glyph-name="uni0331" unicode="&#x331;" horiz-adv-x="0" 
d="M-145 -162h-378l5 31h378z" />
    <glyph glyph-name="uni0332" unicode="&#x332;" horiz-adv-x="0" 
d="M-145 -162h-378l5 31h378z" />
    <glyph glyph-name="Alpha" unicode="&#x391;" horiz-adv-x="814" 
d="M765 0l-130 3q-108 0 -145 -3l5 31q82 0 87 29q1 4 -2 18l-31 153h-266l-70 -130q-7 -11 -8 -20q-3 -20 13 -35t52 -15l-5 -31l-115 3q-39 0 -102 -3l5 31q41 0 70 14.5t37.5 25.5t18.5 29l320 597q4 8 6.5 11t7 5.5t12.5 2.5q12 0 15.5 -4t6.5 -18l127 -626
q5 -22 18.5 -29.5t59.5 -7.5h18zM543 262l-67 330l-177 -330h244z" />
    <glyph glyph-name="Beta" unicode="&#x392;" horiz-adv-x="771" 
d="M729 183q-12 -73 -88.5 -128t-176.5 -55h-406l5 31h24q54 0 68 9t19 38l88 527q5 29 -6 38t-65 9h-24l5 31h378q99 0 157.5 -50.5t47.5 -118.5q-10 -56 -67 -99.5t-134 -57.5q88 -10 137 -60t38 -114zM658 514q8 50 -21 94t-99 44h-136q-34 0 -42.5 -7t-13.5 -33
l-41 -246h156q80 0 133.5 45t63.5 103zM629 184q10 60 -22.5 110t-104.5 50h-201l-45 -273q-5 -26 1.5 -33t40.5 -7h138q76 0 129 46.5t64 106.5z" />
    <glyph glyph-name="Gamma" unicode="&#x393;" horiz-adv-x="683" 
d="M700 455h-25q6 111 -22.5 152.5t-133.5 41.5h-115q-34 0 -42.5 -7t-12.5 -33l-89 -530q-4 -17 -1.5 -28t22.5 -15.5t66 -4.5h33l-5 -31q-35 3 -167 3q-117 0 -153 -3l5 31h24q54 0 68 9t19 38l87 524q5 29 -6 38t-65 9h-24l5 31h541z" />
    <glyph glyph-name="Delta" unicode="&#x394;" horiz-adv-x="903" 
d="M839 8q-1 -8 -22 -8h-732q-13 0 -17 1t-3 7q7 11 9 14l466 675q9 13 13.5 16t16.5 3t16 -3.5t8 -15.5l242 -675zM717 76l-196 544l-375 -544h571z" />
    <glyph glyph-name="Epsilon" unicode="&#x395;" horiz-adv-x="742" 
d="M741 258l-85 -258h-601l5 31h24q54 0 68 9t19 38l87 524q5 29 -6 38t-65 9h-24l5 31h586l-9 -225h-25q3 57 -1.5 91t-23 59t-54 34.5t-94.5 9.5h-143q-34 0 -42.5 -7t-12.5 -33l-40 -240h98q71 0 96 24t36 93h25l-44 -265h-25q11 69 -6 93t-88 24h-98l-44 -267
q-5 -26 1.5 -33t40.5 -7h151q53 0 91 9.5t63.5 25.5t46 47t33.5 62t30 83h25z" />
    <glyph glyph-name="Zeta" unicode="&#x396;" horiz-adv-x="669" 
d="M647 267l-62 -267h-487q-17 0 -21 2.5t-2 14.5q1 9 10 20l516 615h-171q-106 0 -162.5 -44t-79.5 -150h-25l49 225h472q9 0 12.5 -0.5t7.5 -1.5t3 -4.5t0 -9.5q-2 -10 -10 -19l-515 -614h182q69 0 115 15.5t73.5 50t41.5 70.5t28 97h25z" />
    <glyph glyph-name="Eta" unicode="&#x397;" horiz-adv-x="814" 
d="M758 0q-34 3 -147 3q-112 0 -148 -3l5 31h24q54 0 68 9t19 38l44 262h-319l-44 -262q-5 -29 6 -38t65 -9h24l-5 -31q-34 3 -147 3q-112 0 -148 -3l5 31h24q54 0 68 9t19 38l88 527q5 29 -6 38t-65 9h-24l5 31q34 -3 147 -3q112 0 148 3l-5 -31h-24q-54 0 -68 -9t-19 -38
l-39 -234h319l39 234q5 29 -6 38t-65 9h-24l5 31q34 -3 147 -3q112 0 148 3l-5 -31h-24q-54 0 -68 -9t-19 -38l-88 -527q-5 -29 6 -38t65 -9h24z" />
    <glyph glyph-name="Theta" unicode="&#x398;" horiz-adv-x="844" 
d="M828 339q-25 -150 -145.5 -255.5t-265.5 -105.5q-143 0 -228 105t-60 256q25 152 145.5 259t265.5 107q143 0 228 -106.5t60 -259.5zM731 339q13 92 2.5 157.5t-42.5 107t-71.5 60.5t-84.5 19q-43 0 -88.5 -19.5t-90.5 -58t-80 -108t-50 -158.5q-13 -91 -2.5 -155
t42.5 -104.5t71.5 -59.5t84.5 -19q43 0 88.5 19t90 57t80 106t50.5 156zM660 270h-25l6 34h-337l-6 -34h-25l24 144h25l-6 -34h337l6 34h25z" />
    <glyph glyph-name="Iota" unicode="&#x399;" horiz-adv-x="406" 
d="M355 0q-34 3 -152 3q-117 0 -153 -3l5 31h26q56 0 70.5 9t19.5 38l88 527q5 29 -6.5 38t-67.5 9h-26l5 31q34 -3 152 -3q117 0 153 3l-5 -31h-26q-56 0 -70.5 -9t-19.5 -38l-88 -527q-5 -29 6.5 -38t67.5 -9h26z" />
    <glyph glyph-name="Kappa" unicode="&#x39a;" horiz-adv-x="843" 
d="M785 0l-115 3q-108 0 -144 -3l5 31q57 0 62 29q2 10 -10 34l-149 271l-145 -114l-29 -173q-5 -29 6 -38t65 -9h24l-5 -31q-34 3 -147 3q-112 0 -148 -3l5 31h24q54 0 68 9t19 38l88 527q5 29 -6 38t-65 9h-24l5 31q34 -3 147 -3q112 0 148 3l-5 -31h-24q-54 0 -68 -9
t-19 -38l-53 -320l383 300q24 20 26 35q1 6 0 12.5t-10.5 13t-26.5 6.5l5 31q33 -3 126 -3q59 0 86 3l-5 -31q-83 -1 -157 -61l-218 -172l184 -337q10 -19 20 -29.5t24.5 -15t25 -5.5t32.5 -1z" />
    <glyph glyph-name="Lambda" unicode="&#x39b;" horiz-adv-x="756" 
d="M707 0l-122 3q-109 0 -145 -3l5 31q84 0 89 30q1 3 0 8.5t-1 6.5l-89 503l-244 -476q-8 -18 -8 -21q-3 -20 14 -35.5t53 -15.5l-5 -31l-112 3l-94 -3l5 31q80 1 114 70l304 596q4 8 6.5 11t7 5.5t11.5 2.5q12 0 15 -4t6 -17l110 -624q5 -28 20 -34t65 -6z" />
    <glyph glyph-name="Mu" unicode="&#x39c;" horiz-adv-x="989" 
d="M929 0q-36 3 -142 3q-107 0 -145 -3l5 31h24q54 0 68 9t19 38l96 575l-1 1l-365 -636q-10 -18 -22 -18q-10 0 -16 18l-151 629l-1 -1l-90 -541q-4 -10 -2.5 -23t7 -24t27.5 -19t58 -8l-5 -31l-116 3l-118 -3l5 31q36 0 60 7t35 20.5t14.5 22.5t6.5 24l83 500q5 29 -6 38
t-65 9h-24l5 31h169q17 0 22.5 -2.5t8.5 -15.5l137 -570l327 569q8 14 13.5 16.5t23.5 2.5h169l-5 -31h-24q-54 0 -68 -9t-19 -38l-88 -527q-5 -29 6 -38t65 -9h24z" />
    <glyph glyph-name="Nu" unicode="&#x39d;" horiz-adv-x="814" 
d="M867 652q-36 0 -60 -7t-35 -20.5t-14.5 -23t-6.5 -25.5l-91 -548q-3 -18 -6 -23t-13 -5t-16 12l-334 617l-87 -522q-4 -11 -2.5 -24.5t7 -25t27.5 -19t58 -7.5l-5 -31l-116 3l-118 -3l5 31q36 0 60 7t35 20.5t14.5 23t6.5 25.5l86 518q3 16 2 18q-1 9 -100 9l5 31h169
q15 0 19.5 -2t10.5 -12l284 -522l71 429q4 11 2.5 24.5t-7 25t-27.5 19t-58 7.5l5 31l116 -3l118 3z" />
    <glyph glyph-name="Xi" unicode="&#x39e;" horiz-adv-x="728" 
d="M750 521h-25q7 67 -1 78q-2 4 -21 6t-37 2h-18h-367q-73 0 -79 -9q-14 -15 -26 -77h-25l34 156h583zM611 266h-25l9 51h-357l-9 -51h-25l29 172h25l-8 -51h357l8 51h25zM697 167l-36 -167h-595l20 167h25q-8 -70 -2 -86q4 -11 82 -11h369q76 0 83 9q13 13 29 88h25z" />
    <glyph glyph-name="Omicron" unicode="&#x39f;" horiz-adv-x="844" 
d="M828 339q-25 -150 -145.5 -255.5t-265.5 -105.5q-143 0 -228 105t-60 256q25 152 145.5 259t265.5 107q143 0 228 -106.5t60 -259.5zM727 354q12 90 1.5 152.5t-43.5 101t-71 55.5t-80 17q-41 0 -84.5 -17.5t-87.5 -53.5t-78.5 -102t-49.5 -153q-14 -96 -4 -162.5
t42 -108.5t70 -60.5t81 -18.5q41 0 85 19t88.5 57.5t80 109.5t50.5 164z" />
    <glyph glyph-name="Pi" unicode="&#x3a0;" horiz-adv-x="814" 
d="M758 0q-34 3 -147 3q-112 0 -148 -3l5 31h24q54 0 68 9t19 38l95 571h-319l-95 -571q-5 -29 6 -38t65 -9h24l-5 -31q-34 3 -147 3q-112 0 -148 -3l5 31h24q54 0 68 9t19 38l87 524q5 29 -6 38t-65 9h-24l5 31h703l-5 -31h-24q-54 0 -68 -9t-19 -38l-87 -524q-5 -29 6 -38
t65 -9h24z" />
    <glyph glyph-name="Rho" unicode="&#x3a1;" horiz-adv-x="742" 
d="M752 497q-12 -75 -93.5 -128t-175.5 -53h-181l-40 -238q-5 -29 6 -38t65 -9h24l-5 -31q-34 3 -147 3q-112 0 -148 -3l5 31h24q54 0 68 9t19 38l88 527q5 29 -6 38t-65 9h-24l5 31h365q104 0 166 -55t50 -131zM649 497q2 15 3 23t1 27t-4 30.5t-14 27t-26 25t-42.5 16
t-61.5 6.5h-101q-34 0 -42.5 -7t-13.5 -33l-45 -270h150q48 0 84.5 12.5t56 28.5t32.5 41.5t16.5 39t6.5 33.5z" />
    <glyph glyph-name="Sigma" unicode="&#x3a3;" horiz-adv-x="786" 
d="M752 236l-67 -236h-587h-10.5t-7.5 1t-5 3.5t0 6.5q1 5 13 16l295 272l-201 361q3 17 7.5 20t22.5 3h587l-10 -225h-25q3 63 -7.5 102t-40 59t-68 26.5t-103.5 6.5h-249l166 -298q5 -9 4 -12q0 -3 -3.5 -7t-6.5 -7l-3 -3l-307 -283h294q65 0 105 6t77.5 25.5t62 59
t42.5 103.5h25z" />
    <glyph glyph-name="Tau" unicode="&#x3a4;" horiz-adv-x="786" 
d="M808 452h-25q11 127 -15.5 160.5t-142.5 33.5q-48 0 -59 -2q-11 -1 -16.5 -6.5t-7.5 -11.5t-4 -20l-88 -527q-3 -17 -0.5 -27.5t24.5 -15.5t73 -5h40l-5 -31q-40 3 -189 3q-148 0 -190 -3l5 31h40q73 0 91 9.5t22 38.5l88 527q4 17 1.5 26.5t-17.5 11.5q-9 2 -57 2
q-42 0 -68.5 -2.5t-50 -11t-37 -20t-26.5 -35.5t-22 -52t-20 -73h-25l57 225h643z" />
    <glyph glyph-name="Upsilon" unicode="&#x3a5;" horiz-adv-x="844" 
d="M863 552q-2 -17 -19 -17q-14 0 -12 15q1 25 -10 42t-29 24t-30.5 9.5t-22.5 2.5q-46 0 -84.5 -26.5t-64.5 -70t-42.5 -89.5t-24.5 -94l-45 -269q-4 -17 -1.5 -28t22.5 -15.5t66 -4.5h33l-5 -31q-35 3 -172 3q-136 0 -173 -3l5 31h33q66 0 82.5 9.5t20.5 38.5l45 269
q10 42 7.5 91t-12.5 91t-40.5 70t-76.5 28q-5 0 -12 -0.5t-25 -5t-32.5 -12t-29 -24t-20.5 -38.5q-3 -13 -17 -13q-11 0 -12.5 4t-0.5 13q10 55 55 104t108 49q80 0 124.5 -64.5t45.5 -184.5h1q35 106 101 177.5t153 71.5q63 0 92 -49t19 -104z" />
    <glyph glyph-name="Phi" unicode="&#x3a6;" horiz-adv-x="786" 
d="M770 341q-13 -79 -106 -139t-211 -68l-9 -55q-4 -17 -1.5 -28t22.5 -15.5t66 -4.5h33l-5 -31q-35 3 -169 3q-133 0 -170 -3l5 31h33q66 0 82.5 9.5t20.5 38.5l10 56q-116 10 -185.5 69t-56.5 138q13 76 101 136t209 70l10 56q4 17 1.5 28t-22.5 15.5t-66 4.5h-33l5 31
q35 -3 169 -3q133 0 170 3l-5 -31h-33q-66 0 -82.5 -9.5t-20.5 -38.5l-9 -55q114 -8 187 -67.5t60 -140.5zM670 342q27 165 -151 184l-62 -369q186 19 213 185zM374 158l62 367q-179 -20 -207 -184q-28 -162 145 -183z" />
    <glyph glyph-name="Chi" unicode="&#x3a7;" horiz-adv-x="814" 
d="M774 0l-129 3q-112 0 -148 -3l5 31q30 1 48 10.5t19 18.5q1 4 -5 15l-129 238l-189 -213q-13 -14 -14 -25q-3 -15 9 -29t42 -15l-5 -31q-39 3 -127 3l-112 -3l5 31q103 0 160 64l217 245l-151 277q-11 21 -27.5 28t-61.5 7h-19l5 31l129 -3q112 0 149 3l-5 -31
q-27 0 -46.5 -9t-21.5 -20q-1 -6 4 -15l109 -197l151 170q15 17 15 27q3 16 -9.5 29.5t-41.5 14.5l5 31q35 -3 127 -3l112 3l-5 -31q-103 0 -159 -63l-181 -205l171 -317q13 -23 31.5 -29.5t58.5 -6.5h19z" />
    <glyph glyph-name="Psi" unicode="&#x3a8;" horiz-adv-x="844" 
d="M861 543q-2 -9 -16 -11q-63 -9 -83 -139q-4 -23 -12.5 -48t-29.5 -62t-49.5 -65.5t-77.5 -52.5t-110 -30l-10 -56q-4 -17 -1.5 -28t22.5 -15.5t66 -4.5h33l-5 -31q-35 3 -169 3q-133 0 -170 -3l5 31h33q66 0 82.5 9.5t20.5 38.5l10 56q-50 6 -87 24t-57 43.5t-31.5 52.5
t-13.5 56t-1.5 47.5t3.5 34.5q12 80 0.5 107.5t-42.5 31.5q-9 1 -7 11q1 11 26 11h37q52 0 67 -39q15 -44 6 -98q-40 -225 104 -257l74 444q4 17 1.5 28t-22.5 15.5t-66 4.5h-33l5 31q35 -3 169 -3q133 0 170 3l-5 -31h-33q-66 0 -82.5 -9.5t-20.5 -38.5l-74 -445
q155 33 193 241q14 79 42 116.5t78 37.5h38q14 0 19 -1.5t4 -9.5z" />
    <glyph glyph-name="Omega" unicode="&#x3a9;" horiz-adv-x="786" 
d="M751 162l-60 -162h-169q-13 0 -16.5 0.5t-6.5 5t0 14.5q12 72 91 211q83 148 96 224q18 107 -37.5 167.5t-142.5 60.5q-85 0 -161 -60t-94 -168q-13 -77 20 -217q33 -150 21 -218q-2 -14 -6.5 -17t-21.5 -3h-170l-6 162h25q3 -66 6 -78q2 -7 5 -10t17.5 -6t42.5 -3h87
q-2 27 -12.5 57t-19.5 49t-29 56q-26 48 -38.5 76t-21.5 70t-2 82q17 102 122 176t241 74q135 0 215 -74t63 -176q-7 -41 -30.5 -85t-48 -74t-69.5 -81q-78 -88 -105 -150h87q29 0 44.5 3t19.5 7t9 14q12 23 30 73h25z" />
    <glyph glyph-name="baht" unicode="&#xe3f;" horiz-adv-x="771" 
d="M729 183q-12 -73 -88.5 -128t-176.5 -55h-72l-5 -30q-2 -15 -18 -15q-14 0 -12 15l5 30h-304l5 31h24q54 0 68 9t19 38l88 527q5 29 -6 38t-65 9h-24l5 31h304l5 30q2 15 17 15t13 -15l-5 -30h44q99 0 157.5 -50.5t47.5 -118.5q-10 -56 -67 -99.5t-134 -57.5
q88 -10 137 -60t38 -114zM658 514q8 50 -21 94t-99 44h-37l-48 -286h8q80 0 133.5 45t63.5 103zM423 366l48 286h-69q-34 0 -42.5 -7t-13.5 -33l-41 -246h118zM629 184q10 60 -22.5 110t-104.5 50h-53l-52 -313h39q76 0 129 46.5t64 106.5zM367 31l52 313h-118l-45 -273
q-5 -26 1.5 -33t40.5 -7h69z" />
    <glyph glyph-name="Ddotbelow" unicode="&#x1e0c;" horiz-adv-x="829" 
d="M812 336q-23 -140 -133.5 -238t-243.5 -98h-378l5 31h24q54 0 68 9t19 38l88 527q5 29 -6 38t-65 9h-24l5 31h378q133 0 210 -102t53 -245zM712 336q25 147 -19 222q-55 94 -176 94h-113q-34 0 -42.5 -7t-13.5 -33l-90 -541q-5 -26 1.5 -33t40.5 -7h113q115 0 196 78
q77 75 103 227zM380 -147q-3 -22 -21 -37.5t-40 -15.5t-35 15.5t-10 37.5q4 22 22 37.5t40 15.5t35 -15.5t9 -37.5z" />
    <glyph glyph-name="ddotbelow" unicode="&#x1e0d;" horiz-adv-x="624" 
d="M615 253q-17 -104 -101 -178.5t-188 -74.5h-281l4 25q49 0 62 8t18 39l62 370q5 31 -5 39t-59 8l4 25h281q106 0 163.5 -77.5t39.5 -183.5zM532 253q19 115 -15 171q-40 65 -132 65h-77q-27 0 -35 -7t-13 -36l-63 -378q-4 -30 1 -36.5t32 -6.5h77q101 0 163 72
q46 54 62 156zM293 -147q-3 -22 -21 -37.5t-40 -15.5t-35 15.5t-10 37.5q4 22 22 37.5t40 15.5t35 -15.5t9 -37.5z" />
    <glyph glyph-name="Dlinebelow" unicode="&#x1e0e;" horiz-adv-x="829" 
d="M812 336q-23 -140 -133.5 -238t-243.5 -98h-378l5 31h24q54 0 68 9t19 38l88 527q5 29 -6 38t-65 9h-24l5 31h378q133 0 210 -102t53 -245zM712 336q25 147 -19 222q-55 94 -176 94h-113q-34 0 -42.5 -7t-13.5 -33l-90 -541q-5 -26 1.5 -33t40.5 -7h113q115 0 196 78
q77 75 103 227zM514 -162h-378l5 31h378z" />
    <glyph glyph-name="dlinebelow" unicode="&#x1e0f;" horiz-adv-x="624" 
d="M615 253q-17 -104 -101 -178.5t-188 -74.5h-281l4 25q49 0 62 8t18 39l62 370q5 31 -5 39t-59 8l4 25h281q106 0 163.5 -77.5t39.5 -183.5zM532 253q19 115 -15 171q-40 65 -132 65h-77q-27 0 -35 -7t-13 -36l-63 -378q-4 -30 1 -36.5t32 -6.5h77q101 0 163 72
q46 54 62 156zM427 -162h-378l5 31h378z" />
    <glyph glyph-name="Hdotbelow" unicode="&#x1e24;" horiz-adv-x="814" 
d="M758 0q-34 3 -147 3q-112 0 -148 -3l5 31h24q54 0 68 9t19 38l44 262h-319l-44 -262q-5 -29 6 -38t65 -9h24l-5 -31q-34 3 -147 3q-112 0 -148 -3l5 31h24q54 0 68 9t19 38l88 527q5 29 -6 38t-65 9h-24l5 31q34 -3 147 -3q112 0 148 3l-5 -31h-24q-54 0 -68 -9t-19 -38
l-39 -234h319l39 234q5 29 -6 38t-65 9h-24l5 31q34 -3 147 -3q112 0 148 3l-5 -31h-24q-54 0 -68 -9t-19 -38l-88 -527q-5 -29 6 -38t65 -9h24zM435 -147q-3 -22 -21 -37.5t-40 -15.5t-35 15.5t-10 37.5q4 22 22 37.5t40 15.5t35 -15.5t9 -37.5z" />
    <glyph glyph-name="hdotbelow" unicode="&#x1e25;" horiz-adv-x="613" 
d="M570 0l-107 3l-109 -3l4 25q49 0 62 8t18 39l31 183h-239l-31 -183q-5 -31 5 -39t59 -8l-4 -25l-107 3l-109 -3l4 25q49 0 62 8t18 39l62 370q5 31 -5 39t-59 8l4 25l107 -3l109 3l-4 -25q-49 0 -62 -8t-18 -39l-27 -162h239l27 162q5 31 -5 39t-59 8l4 25l107 -3l109 3
l-4 -25q-49 0 -62 -8t-18 -39l-62 -370q-5 -31 5 -39t59 -8zM335 -147q-3 -22 -21 -37.5t-40 -15.5t-35 15.5t-10 37.5q4 22 22 37.5t40 15.5t35 -15.5t9 -37.5z" />
    <glyph glyph-name="Hdieresis" unicode="&#x1e26;" horiz-adv-x="814" 
d="M758 0q-34 3 -147 3q-112 0 -148 -3l5 31h24q54 0 68 9t19 38l44 262h-319l-44 -262q-5 -29 6 -38t65 -9h24l-5 -31q-34 3 -147 3q-112 0 -148 -3l5 31h24q54 0 68 9t19 38l88 527q5 29 -6 38t-65 9h-24l5 31q34 -3 147 -3q112 0 148 3l-5 -31h-24q-54 0 -68 -9t-19 -38
l-39 -234h319l39 234q5 29 -6 38t-65 9h-24l5 31q34 -3 147 -3q112 0 148 3l-5 -31h-24q-54 0 -68 -9t-19 -38l-88 -527q-5 -29 6 -38t65 -9h24zM482 784q-4 -20 -20.5 -34t-35.5 -14q-20 0 -32 14.5t-8 33.5q3 19 19.5 33.5t36.5 14.5q19 0 31 -14t9 -34zM690 784
q-4 -20 -20.5 -34t-35.5 -14q-20 0 -32 14.5t-8 33.5q3 19 19.5 33.5t36.5 14.5q19 0 31 -14t9 -34z" />
    <glyph glyph-name="hdieresis" unicode="&#x1e27;" horiz-adv-x="613" 
d="M570 0l-107 3l-109 -3l4 25q49 0 62 8t18 39l31 183h-239l-31 -183q-5 -31 5 -39t59 -8l-4 -25l-107 3l-109 -3l4 25q49 0 62 8t18 39l62 370q5 31 -5 39t-59 8l4 25l107 -3l109 3l-4 -25q-49 0 -62 -8t-18 -39l-27 -162h239l27 162q5 31 -5 39t-59 8l4 25l107 -3l109 3
l-4 -25q-49 0 -62 -8t-18 -39l-62 -370q-5 -31 5 -39t59 -8zM380 684q-3 -19 -19.5 -33.5t-36.5 -14.5q-19 0 -31 14t-9 34q4 20 20.5 34t35.5 14q20 0 32 -14.5t8 -33.5zM556 684q-3 -19 -19.5 -33.5t-36.5 -14.5q-19 0 -31 14t-9 34q4 20 20.5 34t35.5 14q20 0 32 -14.5
t8 -33.5z" />
    <glyph glyph-name="Hbrevebelow" unicode="&#x1e2a;" horiz-adv-x="814" 
d="M758 0q-34 3 -147 3q-112 0 -148 -3l5 31h24q54 0 68 9t19 38l44 262h-319l-44 -262q-5 -29 6 -38t65 -9h24l-5 -31q-34 3 -147 3q-112 0 -148 -3l5 31h24q54 0 68 9t19 38l88 527q5 29 -6 38t-65 9h-24l5 31q34 -3 147 -3q112 0 148 3l-5 -31h-24q-54 0 -68 -9t-19 -38
l-39 -234h319l39 234q5 29 -6 38t-65 9h-24l5 31q34 -3 147 -3q112 0 148 3l-5 -31h-24q-54 0 -68 -9t-19 -38l-88 -527q-5 -29 6 -38t65 -9h24zM553 -61q-13 -74 -67 -123t-118 -49t-101.5 49t-25.5 123h22q-9 -61 25 -97.5t86 -36.5t98.5 36.5t58.5 97.5h22z" />
    <glyph glyph-name="hbrevebelow" unicode="&#x1e2b;" horiz-adv-x="613" 
d="M570 0l-107 3l-109 -3l4 25q49 0 62 8t18 39l31 183h-239l-31 -183q-5 -31 5 -39t59 -8l-4 -25l-107 3l-109 -3l4 25q49 0 62 8t18 39l62 370q5 31 -5 39t-59 8l4 25l107 -3l109 3l-4 -25q-49 0 -62 -8t-18 -39l-27 -162h239l27 162q5 31 -5 39t-59 8l4 25l107 -3l109 3
l-4 -25q-49 0 -62 -8t-18 -39l-62 -370q-5 -31 5 -39t59 -8zM453 -61q-13 -74 -67 -123t-118 -49t-101.5 49t-25.5 123h22q-9 -61 25 -97.5t86 -36.5t98.5 36.5t58.5 97.5h22z" />
    <glyph glyph-name="Idieresisacute" unicode="&#x1e2e;" horiz-adv-x="406" 
d="M355 0q-34 3 -152 3q-117 0 -153 -3l5 31h26q56 0 70.5 9t19.5 38l88 527q5 29 -6.5 38t-67.5 9h-26l5 31q34 -3 152 -3q117 0 153 3l-5 -31h-26q-56 0 -70.5 -9t-19.5 -38l-88 -527q-5 -29 6.5 -38t67.5 -9h26zM278 784q-4 -20 -20.5 -34t-35.5 -14q-20 0 -32 14.5
t-8 33.5q3 19 19.5 33.5t36.5 14.5q19 0 31 -14t9 -34zM486 784q-4 -20 -20.5 -34t-35.5 -14q-20 0 -32 14.5t-8 33.5q3 19 19.5 33.5t36.5 14.5q19 0 31 -14t9 -34zM516 1014q-1 -5 -4 -8.5t-6.5 -6.5t-6 -5t-6 -4t-4.5 -3l-194 -93l-10 22l166 121q23 19 37 19
q17 0 25.5 -13t2.5 -29z" />
    <glyph glyph-name="idieresisacute" unicode="&#x1e2f;" horiz-adv-x="302" 
d="M263 0l-111 3l-113 -3l4 25q53 0 66 7.5t18 40.5l62 368q5 33 -5 40.5t-63 7.5l4 25l111 -3l113 3l-4 -25q-53 0 -66 -7.5t-18 -40.5l-62 -368q-5 -33 5 -40.5t63 -7.5zM225 684q-3 -19 -19.5 -33.5t-36.5 -14.5q-19 0 -31 14t-9 34q4 20 20.5 34t35.5 14q20 0 32 -14.5
t8 -33.5zM401 684q-3 -19 -19.5 -33.5t-36.5 -14.5q-19 0 -31 14t-9 34q4 20 20.5 34t35.5 14q20 0 32 -14.5t8 -33.5zM447 910q-1 -5 -4 -8.5t-6.5 -6.5t-6 -5t-6 -4t-4.5 -3l-194 -93l-10 22l166 121q23 19 37 19q17 0 25.5 -13t2.5 -29z" />
    <glyph glyph-name="Ldotbelow" unicode="&#x1e36;" horiz-adv-x="683" 
d="M667 258l-71 -258h-541l5 31h24q54 0 68 9t19 38l88 527q5 29 -6 38t-65 9h-24l5 31q34 -3 151 -3q132 0 169 3l-5 -31h-33q-66 0 -82.5 -9.5t-20.5 -38.5l-89 -533q-5 -26 1.5 -33t40.5 -7h94q38 0 70 8t54.5 19t41.5 31.5t30 36.5t22 44t16 43.5t13 44.5h25zM370 -147
q-3 -22 -21 -37.5t-40 -15.5t-35 15.5t-10 37.5q4 22 22 37.5t40 15.5t35 -15.5t9 -37.5z" />
    <glyph glyph-name="ldotbelow" unicode="&#x1e37;" horiz-adv-x="513" 
d="M505 194l-51 -194h-411l4 25q49 0 62 8t18 39l62 370q5 31 -5 39t-59 8l4 25l110 -3l124 3l-4 -25q-60 0 -76.5 -7t-22.5 -43l-62 -371q-4 -30 1 -36.5t32 -6.5h63q40 0 71 11t49 25t32 40t20 43.5t14 49.5h25zM285 -147q-3 -22 -21 -37.5t-40 -15.5t-35 15.5t-10 37.5
q4 22 22 37.5t40 15.5t35 -15.5t9 -37.5z" />
    <glyph glyph-name="Ldotbelowmacron" unicode="&#x1e38;" horiz-adv-x="683" 
d="M667 258l-71 -258h-541l5 31h24q54 0 68 9t19 38l88 527q5 29 -6 38t-65 9h-24l5 31q34 -3 151 -3q132 0 169 3l-5 -31h-33q-66 0 -82.5 -9.5t-20.5 -38.5l-89 -533q-5 -26 1.5 -33t40.5 -7h94q38 0 70 8t54.5 19t41.5 31.5t30 36.5t22 44t16 43.5t13 44.5h25zM370 -147
q-3 -22 -21 -37.5t-40 -15.5t-35 15.5t-10 37.5q4 22 22 37.5t40 15.5t35 -15.5t9 -37.5zM530 756h-378l5 31h378z" />
    <glyph glyph-name="ldotbelowmacron" unicode="&#x1e39;" horiz-adv-x="513" 
d="M505 194l-51 -194h-411l4 25q49 0 62 8t18 39l62 370q5 31 -5 39t-59 8l4 25l110 -3l124 3l-4 -25q-60 0 -76.5 -7t-22.5 -43l-62 -371q-4 -30 1 -36.5t32 -6.5h63q40 0 71 11t49 25t32 40t20 43.5t14 49.5h25zM285 -147q-3 -22 -21 -37.5t-40 -15.5t-35 15.5t-10 37.5
q4 22 22 37.5t40 15.5t35 -15.5t9 -37.5zM461 668h-378l5 31h378z" />
    <glyph glyph-name="Mdotbelow" unicode="&#x1e42;" horiz-adv-x="989" 
d="M929 0q-36 3 -142 3q-107 0 -145 -3l5 31h24q54 0 68 9t19 38l96 575l-1 1l-365 -636q-10 -18 -22 -18q-10 0 -16 18l-151 629l-1 -1l-90 -541q-4 -10 -2.5 -23t7 -24t27.5 -19t58 -8l-5 -31l-116 3l-118 -3l5 31q36 0 60 7t35 20.5t14.5 22.5t6.5 24l83 500q5 29 -6 38
t-65 9h-24l5 31h169q17 0 22.5 -2.5t8.5 -15.5l137 -570l327 569q8 14 13.5 16.5t23.5 2.5h169l-5 -31h-24q-54 0 -68 -9t-19 -38l-88 -527q-5 -29 6 -38t65 -9h24zM523 -147q-3 -22 -21 -37.5t-40 -15.5t-35 15.5t-10 37.5q4 22 22 37.5t40 15.5t35 -15.5t9 -37.5z" />
    <glyph glyph-name="mdotbelow" unicode="&#x1e43;" horiz-adv-x="747" 
d="M700 0q-99 3 -103 3l-105 -3l4 25q49 0 62 8t18 39l69 412l-1 1l-268 -467q-10 -18 -22 -18q-10 0 -16 18l-110 460l-1 -1l-63 -376q-13 -76 59 -76l-4 -25q-37 3 -85 3l-87 -3l4 25q25 0 42.5 8t26 22.5t11.5 23.5t5 22l57 341q5 31 -5 39t-59 8l4 25h121
q17 0 22.5 -2.5t8.5 -15.5l102 -421l241 420q8 14 13.5 16.5t23.5 2.5h121l-4 -25q-49 0 -62 -8t-18 -39l-62 -370q-5 -31 5 -39t59 -8zM402 -147q-3 -22 -21 -37.5t-40 -15.5t-35 15.5t-10 37.5q4 22 22 37.5t40 15.5t35 -15.5t9 -37.5z" />
    <glyph glyph-name="Ndotaccent" unicode="&#x1e44;" horiz-adv-x="814" 
d="M867 652q-36 0 -60 -7t-35 -20.5t-14.5 -23t-6.5 -25.5l-91 -548q-3 -18 -6 -23t-13 -5t-16 12l-334 617l-87 -522q-4 -11 -2.5 -24.5t7 -25t27.5 -19t58 -7.5l-5 -31l-116 3l-118 -3l5 31q36 0 60 7t35 20.5t14.5 23t6.5 25.5l86 518q3 16 2 18q-1 9 -100 9l5 31h169
q15 0 19.5 -2t10.5 -12l284 -522l71 429q4 11 2.5 24.5t-7 25t-27.5 19t-58 7.5l5 31l116 -3l118 3zM591 789q-3 -22 -21 -37.5t-40 -15.5t-35 15.5t-10 37.5q4 22 22 37.5t40 15.5t35 -15.5t9 -37.5z" />
    <glyph glyph-name="ndotaccent" unicode="&#x1e45;" horiz-adv-x="613" 
d="M652 489q-25 0 -42.5 -8t-26 -22.5t-11.5 -23.5t-5 -22l-65 -387q-2 -11 -3 -15.5t-4.5 -7.5t-10.5 -3q-9 0 -15 11l-241 436l-8 12l-60 -358q-13 -76 59 -76l-4 -25q-37 3 -85 3l-87 -3l4 25q25 0 42.5 8t26 22.5t11.5 23.5t5 22l63 381q-18 7 -70 7l4 25h120
q11 0 14.5 -0.5t6.5 -3t7 -9.5l212 -385l50 297q13 76 -59 76l4 25q36 -3 85 -3l87 3zM474 684q-4 -22 -22 -37.5t-40 -15.5t-35 15.5t-9 37.5t22 37.5t40 15.5t35 -15.5t9 -37.5z" />
    <glyph glyph-name="Ndotbelow" unicode="&#x1e46;" horiz-adv-x="814" 
d="M867 652q-36 0 -60 -7t-35 -20.5t-14.5 -23t-6.5 -25.5l-91 -548q-3 -18 -6 -23t-13 -5t-16 12l-334 617l-87 -522q-4 -11 -2.5 -24.5t7 -25t27.5 -19t58 -7.5l-5 -31l-116 3l-118 -3l5 31q36 0 60 7t35 20.5t14.5 23t6.5 25.5l86 518q3 16 2 18q-1 9 -100 9l5 31h169
q15 0 19.5 -2t10.5 -12l284 -522l71 429q4 11 2.5 24.5t-7 25t-27.5 19t-58 7.5l5 31l116 -3l118 3zM435 -147q-3 -22 -21 -37.5t-40 -15.5t-35 15.5t-10 37.5q4 22 22 37.5t40 15.5t35 -15.5t9 -37.5z" />
    <glyph glyph-name="ndotbelow" unicode="&#x1e47;" horiz-adv-x="613" 
d="M652 489q-25 0 -42.5 -8t-26 -22.5t-11.5 -23.5t-5 -22l-65 -387q-2 -11 -3 -15.5t-4.5 -7.5t-10.5 -3q-9 0 -15 11l-241 436l-8 12l-60 -358q-13 -76 59 -76l-4 -25q-37 3 -85 3l-87 -3l4 25q25 0 42.5 8t26 22.5t11.5 23.5t5 22l63 381q-18 7 -70 7l4 25h120
q11 0 14.5 -0.5t6.5 -3t7 -9.5l212 -385l50 297q13 76 -59 76l4 25q36 -3 85 -3l87 3zM335 -147q-3 -22 -21 -37.5t-40 -15.5t-35 15.5t-10 37.5q4 22 22 37.5t40 15.5t35 -15.5t9 -37.5z" />
    </font>
</defs>
</svg>
