<?xml version="1.0" standalone="no"?>
<!DOCTYPE svg PUBLIC "-//W3C//DTD SVG 1.1//EN" "http://www.w3.org/Graphics/SVG/1.1/DTD/svg11.dtd" >
<svg xmlns="http://www.w3.org/2000/svg" xmlns:xlink="http://www.w3.org/1999/xlink" version="1.1">
<metadata>
Created by FontForge 20170731 at Thu Oct  8 14:00:15 2009
 By Aleksey,,,
Copyright 2003, 2009 B. Jackowski and J. M. Nowacki (on behalf of TeX users groups). This work is released under the GUST Font License --  see http://tug.org/fonts/licenses/GUST-FONT-LICENSE.txt for details.
</metadata>
<defs>
<font id="LMSans9-Regular" horiz-adv-x="514" >
  <font-face 
    font-family="LM Sans 9"
    font-weight="400"
    font-stretch="normal"
    units-per-em="1000"
    panose-1="0 0 5 0 0 0 0 0 0 0"
    ascent="806"
    descent="-194"
    x-height="444"
    cap-height="694"
    bbox="-433 -313 1466 1155"
    underline-thickness="38"
    underline-position="-207"
    unicode-range="U+0020-FB04"
  />
<missing-glyph horiz-adv-x="280" 
 />
    <glyph glyph-name="I_J" unicode="IJ" horiz-adv-x="744" 
d="M191 0h-96v694h96v-694zM657 149q0 -84 -49.5 -127.5t-130.5 -43.5q-92 0 -176 42l14 80q53 -57 130 -57q41 0 68 13.5t36.5 36t12 34.5t2.5 25v542h93v-545z" />
    <glyph glyph-name="i_j" unicode="ij" horiz-adv-x="495" 
d="M170 563h-96v96h96v-96zM412 563h-96v96h96v-96zM162 0h-80v444h80v-444zM412 -59q0 -66 -38 -106t-92 -40q-63 0 -124 34l17 65q34 -31 78 -31q34 0 58 19q21 16 21 51v511h80v-503z" />
    <glyph glyph-name="f_k" unicode="fk" horiz-adv-x="816" 
d="M303 382h-120v-382h-80v382h-75v62h75v89q0 75 40 123.5t98 48.5q33 0 62 -11v-71q-29 17 -62 17q-24 0 -42.5 -17.5t-18.5 -60.5v-118h123v-62zM788 0h-86l-159 222l-81 -80v-142h-73v694h76v-456l205 206h95l-172 -172z" />
    <glyph glyph-name="f_f" unicode="ff" horiz-adv-x="600" 
d="M357 623q-42 17 -83 17q-14 0 -27.5 -3t-30 -10.5t-26.5 -24.5t-10 -42v-116h115v-62h-112v-382h-80v382h-75v62h75v88q0 74 48.5 123.5t123.5 49.5q38 0 82 -11v-71zM642 623q-42 17 -83 17q-14 0 -27.5 -3t-30 -10.5t-26.5 -24.5t-10 -42v-116h115v-62h-112v-382h-80
v532q0 74 48.5 123.5t123.5 49.5q38 0 82 -11v-71z" />
    <glyph glyph-name="f_i" unicode="fi" horiz-adv-x="551" 
d="M470 609h-86v86h86v-86zM467 0h-80v444h80v-444zM303 382h-120v-382h-80v382h-75v62h75v89q0 75 40 123.5t98 48.5q33 0 62 -11v-73q-27 19 -62 19q-24 0 -42.5 -17.5t-18.5 -60.5v-118h123v-62z" />
    <glyph glyph-name="f_l" unicode="fl" horiz-adv-x="551" 
d="M303 382h-120v-382h-80v382h-75v62h75v89q0 75 40 123.5t98 48.5q33 0 62 -11v-71q-29 17 -62 17q-24 0 -42.5 -17.5t-18.5 -60.5v-118h123v-62zM467 0h-80v694h80v-694z" />
    <glyph glyph-name="f_f_i" unicode="&#xfb00;i" horiz-adv-x="836" 
d="M755 609h-86v86h86v-86zM752 0h-80v444h80v-444zM587 382h-119v-382h-80v533q0 74 39.5 123t98.5 49q30 0 61 -10v-73q-27 18 -61 18q-24 0 -42.5 -17.5t-18.5 -60.5v-118h122v-62zM328 623q-33 17 -72 17q-16 0 -31 -4.5t-30 -23.5t-15 -51v-117h122v-62h-119v-382h-80
v382h-75v62h75v88q0 76 44.5 124.5t109.5 48.5q34 0 71 -11v-71z" />
    <glyph glyph-name="f_f_l" unicode="ffl" horiz-adv-x="836" 
d="M328 623q-33 17 -72 17q-16 0 -31 -4.5t-30 -23.5t-15 -51v-117h122v-62h-119v-382h-80v382h-75v62h75v88q0 76 44.5 124.5t109.5 48.5q34 0 71 -11v-71zM752 0h-80v694h80v-694zM587 382h-119v-382h-80v533q0 75 40 123.5t97 48.5q36 0 62 -11v-71q-30 17 -61 17
q-24 0 -42.5 -17.5t-18.5 -60.5v-118h122v-62z" />
    <glyph glyph-name=".notdef" horiz-adv-x="280" 
 />
    <glyph glyph-name=".null" horiz-adv-x="0" 
 />
    <glyph glyph-name="nonmarkingreturn" horiz-adv-x="333" 
 />
    <glyph glyph-name="space" unicode=" " horiz-adv-x="343" 
 />
    <glyph glyph-name="exclam" unicode="!" horiz-adv-x="326" 
d="M206 694l-8 -517h-70l-8 517h86zM206 0h-86v86h86v-86z" />
    <glyph glyph-name="quotedbl" unicode="&#x22;" horiz-adv-x="454" 
d="M185 430h-84v286h84v-286zM353 430h-84v286h84v-286z" />
    <glyph glyph-name="numbersign" unicode="#" horiz-adv-x="856" 
d="M798 146q0 -22 -37 -22h-229l-82 -294q-6 -24 -22 -24q-22 0 -22 22q0 6 4 18l77 278h-190l-82 -294q-6 -24 -22 -24q-22 0 -22 22q0 6 4 18l77 278h-158q-37 0 -37 22q0 21 33 21h175l45 167h-220q-33 0 -33 21q0 22 37 22h229l82 293q6 24 22 24q22 0 22 -22
q0 -6 -4 -18l-77 -277h190l82 293q6 24 22 24q22 0 22 -22q0 -6 -4 -18l-77 -277h158q37 0 37 -22q0 -21 -33 -21h-175l-45 -167h220q33 0 33 -21zM545 334h-190l-45 -167h190z" />
    <glyph glyph-name="dollar" unicode="$" 
d="M456 197q0 -74 -46 -133t-122 -72v-48h-62v46q-100 10 -180 69l13 72q72 -63 167 -72v260q-87 18 -128 74.5t-41 117.5q0 72 48 126.5t121 65.5v47h62v-46q83 -7 151 -56l-13 -69q-63 49 -138 57v-234q83 -17 125.5 -77t42.5 -128zM226 418v215q-46 -11 -68.5 -42.5
t-22.5 -64.5q0 -37 24.5 -67.5t66.5 -40.5zM378 183q0 43 -25.5 76.5t-64.5 44.5v-243q43 13 66.5 47t23.5 75z" />
    <glyph glyph-name="percent" unicode="%" horiz-adv-x="856" 
d="M342 548q0 -85 -42 -143t-99 -58t-100.5 57.5t-43.5 144.5q0 85 43 143t101 58q56 0 98.5 -58t42.5 -144zM678 728q0 -7 -7 -18l-447 -749q-11 -17 -22 -17q-9 0 -15.5 6t-6.5 16q0 5 9 20l445 747q11 17 23 17q8 0 14.5 -6t6.5 -16zM798 145q0 -85 -42 -143t-99 -58
t-100.5 57.5t-43.5 144.5q0 85 43 143t101 58q56 0 98.5 -58t42.5 -144zM269 549q0 55 -19.5 95.5t-48.5 40.5q-6 0 -12.5 -1.5t-16.5 -9.5t-17.5 -21.5t-13 -40.5t-5.5 -64t5.5 -64t13 -40.5t18 -21t16.5 -9t12 -1.5q28 0 48 40t20 97zM725 146q0 55 -19.5 95.5t-48.5 40.5
q-6 0 -12.5 -1.5t-16.5 -9.5t-17.5 -21.5t-13 -40.5t-5.5 -64t5.5 -64t13 -40.5t18 -21t16.5 -9t12 -1.5q28 0 48 40t20 97z" />
    <glyph glyph-name="ampersand" unicode="&#x26;" horiz-adv-x="779" 
d="M721 -7q-56 -15 -119 -15q-89 0 -167 58q-97 -58 -204 -58q-81 0 -134.5 50t-53.5 120q0 67 51 118q10 9 29.5 25t43 35.5t30.5 24.5q-31 82 -31 163q0 83 39 142.5t104 59.5q59 0 96.5 -48.5t37.5 -110.5q0 -29 -12 -57.5t-40 -59t-47 -48.5t-57 -51q30 -62 82.5 -128.5
t75.5 -87.5q122 102 173 281l66 -19q-56 -194 -187 -306q48 -35 106 -35q56 0 118 18v-71zM370 558q0 16 -4 35t-19 38.5t-39 19.5q-32 0 -53 -29t-21 -69q0 -69 26 -149q57 48 83.5 84t26.5 70zM379 83q-26 24 -79 90q-50 69 -76 116q-62 -51 -63 -52q-35 -35 -35 -82
q0 -41 27.5 -75t79.5 -34q80 0 146 37z" />
    <glyph glyph-name="quotesingle" unicode="'" horiz-adv-x="286" 
d="M185 430h-84v286h84v-286z" />
    <glyph glyph-name="parenleft" unicode="(" horiz-adv-x="400" 
d="M342 -249h-65q-90 76 -143 202.5t-53 297.5q0 167 52 294.5t144 204.5h65q-25 -26 -40.5 -44t-44.5 -64.5t-46.5 -95t-32 -127.5t-14.5 -169t14 -168.5t32 -127.5t47 -95t45 -65t40 -43z" />
    <glyph glyph-name="parenright" unicode=")" horiz-adv-x="400" 
d="M318 250q0 -167 -52 -294.5t-144 -204.5h-65q25 26 40.5 44t44.5 64.5t46.5 95t32 127.5t14.5 169t-14 168.5t-32 127.5t-47 95t-45 65t-40 43h65q90 -76 143 -202.5t53 -297.5z" />
    <glyph glyph-name="asterisk" unicode="*" 
d="M447 436q0 -16 -10.5 -26.5t-25.5 -10.5q-11 0 -26 11l-101 69l8 -128l1 -9q0 -16 -11 -26t-26 -10q-13 0 -24.5 9.5t-11.5 26.5l9 137l-95 -66q-20 -14 -32 -14q-15 0 -25.5 10.5t-10.5 26.5q0 21 25 35l112 57l-113 58q-24 12 -24 34q0 16 10.5 26.5t25.5 10.5
q11 0 26 -11l101 -69l-9 137q0 16 11 26t26 10q13 0 24.5 -9.5t11.5 -26.5l-9 -137l101 70q15 10 26 10q15 0 25.5 -10.5t10.5 -26.5q0 -21 -25 -35l-112 -57l113 -58q24 -12 24 -34z" />
    <glyph glyph-name="plus" unicode="+" horiz-adv-x="799" 
d="M741 250q0 -21 -35 -21h-285v-286q0 -35 -21 -35q-22 0 -22 35v286h-286q-35 0 -35 22q0 21 35 21h286v286q0 35 21 35q22 0 22 -35v-286h285q35 0 35 -22z" />
    <glyph glyph-name="comma" unicode="," horiz-adv-x="286" 
d="M185 1l-44 -128h-43l27 127h-26v86h86v-85z" />
    <glyph glyph-name="hyphen" unicode="-" horiz-adv-x="343" 
d="M285 191h-274v62h274v-62z" />
    <glyph glyph-name="period" unicode="." horiz-adv-x="286" 
d="M185 0h-86v86h86v-86z" />
    <glyph glyph-name="slash" unicode="/" 
d="M456 728q0 -2 -5 -17l-349 -938l-4.5 -12t-7 -7.5t-12.5 -3.5q-8 0 -14.5 6t-6.5 16q0 2 5 17l349 938l4.5 12t7 7.5t12.5 3.5q8 0 14.5 -6t6.5 -16z" />
    <glyph glyph-name="zero" unicode="0" 
d="M472 325q0 -157 -43 -240q-55 -107 -173 -107q-112 0 -170 102q-45 81 -45 245q0 170 50 254q56 97 166 97q50 0 93 -24t68 -65q54 -91 54 -262zM389 337q0 33 -1 53.5t-4 58t-11.5 61.5t-22.5 49.5t-38 38.5t-56 13q-87 0 -117 -108q-15 -52 -15 -166q0 -29 0.5 -46.5
t3 -52t7 -57.5t14.5 -51.5t23.5 -45.5t35.5 -29t49 -12q33 0 63 22t46 70q23 65 23 202z" />
    <glyph glyph-name="one" unicode="1" 
d="M437 0h-341v62h128v510q-55 -23 -134 -23v62q131 0 198 65h21v-614h128v-62z" />
    <glyph glyph-name="two" unicode="2" 
d="M462 0h-411v68l185 175q48 42 71.5 66.5t45 65t21.5 83.5q0 63 -40 106.5t-105 43.5q-51 0 -86.5 -34t-53.5 -116l-46 58q50 160 200 160q99 0 159 -63t60 -153q0 -66 -37.5 -113t-132.5 -124l-164 -149h110q6 0 18 0.5t18 0.5h188v-75z" />
    <glyph glyph-name="three" unicode="3" 
d="M470 181q0 -81 -62.5 -142t-154.5 -61q-62 0 -117 27t-93 73q8 44 12 64q30 -42 83.5 -70.5t112.5 -28.5q56 0 89.5 39.5t33.5 99.5q0 54 -31 96.5t-97 42.5h-75v65q32 2 54 4q38 4 65.5 19.5t40 37.5t18 40.5t5.5 35.5q0 44 -29.5 67.5t-71.5 23.5q-24 0 -48 -6
t-56.5 -30.5t-52.5 -64.5l-39 57q32 49 84 77.5t113 28.5q78 0 133 -44.5t55 -108.5q0 -52 -30 -97.5t-82 -72.5q63 -21 101.5 -67.5t38.5 -104.5z" />
    <glyph glyph-name="four" unicode="4" 
d="M484 167h-100v-167h-84v167h-271v65l258 422h97v-422h100v-65zM306 232v376q-1 -52 -133 -276l-61 -100h194z" />
    <glyph glyph-name="five" unicode="5" 
d="M462 203q0 -94 -66.5 -159.5t-160.5 -65.5q-51 0 -97 21.5t-66 40.5t-33 36l36 59q27 -47 71 -69.5t88 -22.5q53 0 92.5 38.5t39.5 122.5q0 85 -31 121t-70 36q-78 0 -112 -79h-72v372h346v-68h-269v-200q47 40 109 40q80 0 137.5 -65t57.5 -158z" />
    <glyph glyph-name="six" unicode="6" 
d="M470 223q0 -58 -15 -98t-52 -80q-60 -67 -145 -67q-39 0 -74 16t-68 52t-53 106.5t-20 168.5q0 156 81 255.5t193 99.5q56 0 109 -20v-63q-54 21 -108 21q-78 0 -128 -65t-58 -168q72 82 174 82q37 0 65 -17.5t57 -62.5q42 -67 42 -160zM383 223q0 74 -22 114
q-34 61 -98 61q-58 0 -93.5 -45.5t-35.5 -106.5q-1 -11 -1 -27q1 -13 3 -25t7 -35t14 -41t21.5 -36t33.5 -28.5t46 -10.5q63 0 99 57q26 43 26 123z" />
    <glyph glyph-name="seven" unicode="7" 
d="M470 585q-97 -107 -161 -261.5t-64 -334.5h-90q0 336 243 591h-123q-6 0 -18 -0.5t-18 -0.5h-196v75h427v-69z" />
    <glyph glyph-name="eight" unicode="8" 
d="M470 181q0 -82 -62 -142.5t-152 -60.5q-88 0 -150.5 60t-62.5 143q0 51 33.5 99t106.5 74q-51 15 -88.5 54.5t-37.5 92.5q0 70 57.5 122.5t142.5 52.5q83 0 141 -52.5t58 -122.5q0 -53 -37.5 -92.5t-88.5 -54.5q71 -26 105.5 -73.5t34.5 -99.5zM382 500q0 50 -33 82
t-93 32q-57 0 -91 -31.5t-34 -82.5q0 -50 33.5 -82t91.5 -32q60 0 93 32.5t33 81.5zM384 181q0 71 -39 105.5t-89 34.5q-48 0 -87.5 -34t-39.5 -106q0 -65 36 -101.5t92 -36.5q53 0 90 36t37 102z" />
    <glyph glyph-name="nine" unicode="9" 
d="M470 334q0 -157 -77 -256.5t-182 -99.5q-78 0 -137 47l33 56q45 -38 104 -38q60 0 109.5 54.5t60.5 176.5q-26 -32 -71 -57.5t-103 -25.5q-70 0 -117 73q-47 70 -47 168q0 56 14.5 95.5t51.5 80.5q62 68 151 68q38 0 72.5 -16t67 -52t51.5 -106.5t19 -167.5zM379 410
q0 17 -1 23q-1 21 -5 45t-15 58t-36.5 56t-61.5 22q-60 0 -97 -52q-33 -45 -33 -130q0 -80 26 -122q35 -54 94 -54q57 0 93 45.5t36 108.5z" />
    <glyph glyph-name="colon" unicode=":" horiz-adv-x="286" 
d="M185 358h-86v86h86v-86zM185 0h-86v86h86v-86z" />
    <glyph glyph-name="semicolon" unicode=";" horiz-adv-x="286" 
d="M185 358h-86v86h86v-86zM185 1l-44 -128h-43l27 127h-26v86h86v-85z" />
    <glyph glyph-name="less" unicode="&#x3c;" horiz-adv-x="799" 
d="M712 -30q0 -7 -5.5 -14t-16.5 -7q-6 0 -20 7l-564 271q-20 9 -20 24q0 14 20 23l566 272l18 6q10 0 16 -6.5t6 -15.5q0 -14 -20 -23l-535 -256l537 -259q18 -8 18 -22z" />
    <glyph glyph-name="equal" unicode="=" horiz-adv-x="799" 
d="M741 355q0 -21 -33 -21h-618q-33 0 -33 21q0 22 37 22h610q37 0 37 -22zM741 146q0 -22 -37 -22h-610q-37 0 -37 22q0 21 33 21h618q33 0 33 -21z" />
    <glyph glyph-name="greater" unicode="&#x3e;" horiz-adv-x="799" 
d="M712 251q0 -15 -20 -24l-566 -272l-18 -6q-11 0 -16.5 7t-5.5 14q0 14 20 24l535 257l-535 256q-20 10 -20 24q0 8 6 14.5t15 6.5q7 0 21 -7l564 -271q20 -9 20 -23z" />
    <glyph glyph-name="question" unicode="?" horiz-adv-x="485" 
d="M427 549q0 -70 -55 -118q-109 -89 -109 -201v-53h-70v32q0 173 115 268q11 9 16.5 15t12.5 22t7 36q0 29 -10.5 48.5t-29 27.5t-35 11t-38.5 3q-86 0 -150 -55l-24 67q79 53 173 53q104 0 150.5 -46t46.5 -110zM271 0h-86v86h86v-86z" />
    <glyph glyph-name="at" unicode="@" horiz-adv-x="685" 
d="M627 87q-36 -39 -95.5 -68.5t-132.5 -29.5q-141 0 -241.5 104.5t-100.5 253.5q0 150 101 254t240 104q229 0 229 -344q0 -64 -19.5 -113.5t-49.5 -76t-61 -39.5t-60 -13q-78 0 -134.5 66t-56.5 162t56.5 162t134.5 66q42 0 82 -22q-16 41 -48.5 64t-73.5 23
q-104 0 -182.5 -84.5t-78.5 -208.5q0 -120 76.5 -206.5t189.5 -86.5q74 0 147 29q8 4 26 4h52zM548 347q0 68 -33 115.5t-79 47.5q-45 0 -78 -46.5t-33 -116.5t33 -116.5t78 -46.5q46 0 79 47.5t33 115.5z" />
    <glyph glyph-name="A" unicode="A" horiz-adv-x="687" 
d="M657 0h-99l-77 199h-297l-76 -199h-79l268 694h92zM457 258l-125 362l-124 -362h249z" />
    <glyph glyph-name="B" unicode="B" horiz-adv-x="686" 
d="M628 188q0 -75 -73.5 -131.5t-182.5 -56.5h-274v694h247q106 0 180 -52t74 -122q0 -54 -46.5 -96t-122.5 -61q83 -12 140.5 -61t57.5 -114zM515 518q0 51 -59.5 84t-139.5 33h-128v-242h117q97 0 153.5 38.5t56.5 86.5zM541 189q0 58 -62.5 98.5t-143.5 40.5h-147v-269
h155q83 0 140.5 38t57.5 92z" />
    <glyph glyph-name="C" unicode="C" horiz-adv-x="657" 
d="M603 45q-61 -36 -98 -45q-43 -11 -107 -11q-138 0 -235 105q-97 106 -97 253q0 148 97 253t235 105q55 0 98 -8q43 -7 96 -27l-16 -88q-46 32 -85 43q-40 12 -93 12q-97 0 -167 -85q-69 -84 -69 -205q0 -120 69 -205q70 -85 167 -85q64 0 105 12q37 12 94 50z" />
    <glyph glyph-name="D" unicode="D" horiz-adv-x="743" 
d="M685 341q0 -142 -92 -241.5t-223 -99.5h-273v694h273q131 0 223 -103t92 -250zM592 341q0 133 -71 213.5t-177 80.5h-154v-576h155q105 0 176 77t71 205z" />
    <glyph glyph-name="E" unicode="E" horiz-adv-x="617" 
d="M573 0h-478v691h464v-70h-86l-244 2h-38v-231h339v-65h-339v-253l282 2h100v-76z" />
    <glyph glyph-name="F" unicode="F" horiz-adv-x="589" 
d="M545 621h-83l-237 2h-34v-245h311v-65h-311v-313h-96v691h450v-70z" />
    <glyph glyph-name="G" unicode="G" horiz-adv-x="685" 
d="M615 38q-104 -49 -217 -49q-138 0 -235 105q-97 106 -97 253q0 148 97 253t235 105q59 0 107 -11q46 -11 101 -38l-15 -88q-47 38 -91 54q-44 15 -102 15q-97 0 -167 -85q-69 -84 -69 -205q0 -120 69 -205q70 -85 167 -85q67 0 133 20v158h-133v65h217v-262z" />
    <glyph glyph-name="H" unicode="H" horiz-adv-x="727" 
d="M631 0h-96v328h-344v-328h-96v694h96v-301h344v301h96v-694z" />
    <glyph glyph-name="I" unicode="I" horiz-adv-x="287" 
d="M191 0h-96v694h96v-694z" />
    <glyph glyph-name="J" unicode="J" horiz-adv-x="486" 
d="M399 149q0 -84 -49.5 -127.5t-130.5 -43.5q-92 0 -176 42l14 80q53 -57 130 -57q41 0 68 13.5t36.5 36t12 34.5t2.5 25v542h93v-545z" />
    <glyph glyph-name="K" unicode="K" horiz-adv-x="715" 
d="M671 0h-99l-249 361l-134 -133v-228h-91v694h91v-368l369 368h98l-274 -274z" />
    <glyph glyph-name="L" unicode="L" horiz-adv-x="560" 
d="M516 0h-421v694h96v-626h38l243 2h44v-70z" />
    <glyph glyph-name="M" unicode="M" horiz-adv-x="898" 
d="M795 0h-82v616h-1q-20 -71 -89 -242l-138 -352h-76l-33 84l-110 282q-68 174 -81 228h-1v-616h-82v694h120l18 -45l133 -341q62 -157 75 -210h1q11 46 92 254l134 342h120v-694z" />
    <glyph glyph-name="N" unicode="N" horiz-adv-x="727" 
d="M628 0h-132l-26 52q-5 7 -25 47l-264 517h-1v-616h-82v694h132l26 -52q5 -7 25 -47l264 -517h1v616h82v-694z" />
    <glyph glyph-name="O" unicode="O" horiz-adv-x="759" 
d="M701 344q0 -154 -95.5 -260t-226.5 -106t-226.5 106t-95.5 260q0 156 95.5 264t226.5 108t226.5 -108t95.5 -264zM605 359q0 130 -67.5 209.5t-158.5 79.5t-158.5 -79t-67.5 -210q0 -137 67 -224t159 -87t159 87t67 224z" />
    <glyph glyph-name="P" unicode="P" horiz-adv-x="657" 
d="M599 491q0 -84 -69.5 -145t-173.5 -61h-163v-285h-96v694h259q104 0 173.5 -60.5t69.5 -142.5zM512 491q0 62 -48 103t-132 41h-142v-288h142q84 0 132 41t48 103z" />
    <glyph glyph-name="Q" unicode="Q" horiz-adv-x="759" 
d="M701 344q0 -98 -41.5 -180t-110.5 -131l123 -160h-112l-85 121q-46 -16 -96 -16q-131 0 -226.5 106t-95.5 260q0 156 95.5 264t226.5 108t226.5 -108t95.5 -264zM608 345q0 133 -68 218t-161 85t-161 -84.5t-68 -218.5q0 -135 68 -217t161 -82q28 0 52 7l-99 141h94
l78 -101q43 34 73.5 98.5t30.5 153.5z" />
    <glyph glyph-name="R" unicode="R" horiz-adv-x="666" 
d="M636 0h-96l-190 315h-160v-315h-93v694h252q107 0 183 -55t76 -132q0 -61 -48.5 -111t-125.5 -71zM521 507q0 56 -49.5 92t-134.5 36h-147v-255h147q87 0 135.5 37.5t48.5 89.5z" />
    <glyph glyph-name="S" unicode="S" horiz-adv-x="571" 
d="M513 191q0 -86 -65.5 -149.5t-165.5 -63.5q-125 0 -236 69l16 87q101 -82 220 -82q64 0 105 38t41 90q0 43 -29 75.5t-67 44.5l-84 21q-31 8 -49.5 13.5t-50 24.5t-52.5 47q-39 53 -39 111q0 79 65 139t167 60q43 0 80 -8t56.5 -16t52.5 -25l-16 -87q-77 65 -174 65
q-65 0 -105.5 -35t-40.5 -80q0 -41 30 -70.5t72 -39.5l101 -24q64 -15 116 -71t52 -134z" />
    <glyph glyph-name="T" unicode="T" horiz-adv-x="702" 
d="M664 618h-60l-205 2v-620h-96v620l-205 -2h-61v70h627v-70z" />
    <glyph glyph-name="U" unicode="U" horiz-adv-x="707" 
d="M611 233q0 -108 -75 -181.5t-180 -73.5q-106 0 -183.5 73.5t-77.5 182.5v460h96v-462q0 -94 49 -144.5t117 -50.5q69 0 120 51t51 145v461h83v-461z" />
    <glyph glyph-name="V" unicode="V" horiz-adv-x="687" 
d="M672 694l-281 -694h-96l-281 694h101l122 -306q105 -265 114 -312h1q15 68 112 306l125 312h83z" />
    <glyph glyph-name="W" unicode="W" horiz-adv-x="972" 
d="M957 694l-210 -694h-90l-92 307q-75 247 -82 309h-1q0 -17 -29 -120l-43 -153l-102 -343h-84l-210 694h92l86 -288q76 -257 85 -328l1 1q6 65 85 329l85 286h84l92 -308l47 -162q14 -52 23 -88.5t11 -47.5l2 -11q8 65 77 293l96 324h77z" />
    <glyph glyph-name="X" unicode="X" horiz-adv-x="687" 
d="M672 0h-113l-223 303l-219 -303h-103l275 366l-260 328h113l194 -258l190 258h103l-247 -328z" />
    <glyph glyph-name="Y" unicode="Y" horiz-adv-x="687" 
d="M683 694l-293 -416v-278h-93v278l-294 416h114l171 -244l65 -97l71 105l165 236h94z" />
    <glyph glyph-name="Z" unicode="Z" horiz-adv-x="628" 
d="M576 0h-519v45l390 584h-24l-259 -2h-93v67h499v-43l-390 -583h29l269 2h98v-70z" />
    <glyph glyph-name="bracketleft" unicode="[" horiz-adv-x="299" 
d="M276 -250h-173v1000h173v-65h-96v-870h96v-65z" />
    <glyph glyph-name="backslash" unicode="\" 
d="M456 -228q0 -10 -6.5 -16t-14.5 -6q-11 0 -15.5 5.5t-8.5 17.5l-349 938q-5 15 -5 17q0 10 6.5 16t14.5 6q11 0 15.5 -5.5t8.5 -17.5l349 -938q5 -15 5 -17z" />
    <glyph glyph-name="bracketright" unicode="]" horiz-adv-x="299" 
d="M195 -250h-173v65h96v870h-96v65h173v-1000z" />
    <glyph glyph-name="asciicircum" unicode="^" horiz-adv-x="556" 
d="M561 584l-12 -22l-272 123l-271 -123l-11 22l283 160z" />
    <glyph glyph-name="underscore" unicode="_" horiz-adv-x="687" 
d="M687 -167h-687v84h687v-84z" />
    <glyph glyph-name="grave" unicode="`" 
d="M329 527h-65l-152 167h83z" />
    <glyph glyph-name="a" unicode="a" horiz-adv-x="494" 
d="M422 0h-80v38q-66 -49 -170 -49q-59 0 -88.5 41.5t-29.5 85.5q0 60 76.5 93.5t208.5 36.5v42q0 49 -24.5 79.5t-65.5 30.5q-84 0 -154 -52l-6 71q78 44 161 44q74 0 123 -49t49 -123v-289zM339 140v52q-15 0 -39.5 -2t-67.5 -8t-72 -23t-29 -41q0 -29 27 -46.5t67 -17.5
q46 0 78 19q17 10 25.5 23t9.5 21.5t1 22.5z" />
    <glyph glyph-name="b" unicode="b" horiz-adv-x="531" 
d="M494 223q0 -99 -55.5 -166.5t-134.5 -67.5q-48 0 -84.5 19.5t-53.5 38.5v-47h-83v694h80v-297q74 58 167 58q71 0 117.5 -69t46.5 -163zM411 223q0 85 -42 126t-95 41q-68 0 -108 -56v-218q34 -62 98 -62q56 0 101.5 41t45.5 128z" />
    <glyph glyph-name="c" unicode="c" horiz-adv-x="457" 
d="M427 37q-80 -48 -168 -48q-96 0 -159.5 69t-63.5 164t62.5 167t164.5 72q52 0 83 -9.5t76 -34.5l-13 -70q-39 26 -69 36t-76 10q-74 0 -109.5 -51.5t-35.5 -118.5q0 -72 39 -119t102 -47q87 0 161 51z" />
    <glyph glyph-name="d" unicode="d" horiz-adv-x="531" 
d="M447 0h-83v52q-68 -63 -153 -63q-73 0 -124 68t-51 165t52 165t127 68q86 0 152 -55v294h80v-694zM364 141v197q-38 52 -97 52q-57 0 -102.5 -41t-45.5 -128q0 -83 41 -125t96 -42q58 0 97 52q11 14 11 35z" />
    <glyph glyph-name="e" unicode="e" horiz-adv-x="457" 
d="M427 219h-318q2 -69 45 -117t105 -48q83 0 157 53l6 -69q-77 -49 -164 -49q-94 0 -158.5 69t-64.5 168q0 97 60.5 166t147.5 69q94 0 144 -75q40 -62 40 -167zM367 278q-13 67 -49 92.5t-75 25.5q-46 0 -80.5 -34t-47.5 -84h252z" />
    <glyph glyph-name="f" unicode="f" horiz-adv-x="314" 
d="M356 623q-41 17 -83 17q-20 0 -37.5 -4t-36.5 -23.5t-19 -52.5v-116h114v-62h-111v-382h-80v382h-75v62h75v88q0 75 49 124t122 49q38 0 82 -11v-71z" />
    <glyph glyph-name="g" unicode="g" 
d="M499 388q-29 4 -74 4q-62 0 -62 -5q0 -2 4 -7q26 -44 26 -89q0 -67 -48.5 -115t-116.5 -48q-52 0 -95 29q-9 -14 -9 -34q0 -52 58 -52h92q17 0 31.5 -1t42 -4.5t48.5 -13t42.5 -24t33.5 -40t12 -58.5q0 -57 -66 -96.5t-162 -39.5t-161.5 40t-65.5 95q0 63 64 104
q-25 32 -25 75q0 45 29 83q-34 47 -34 101q0 66 48.5 114.5t116.5 48.5q55 0 99 -32q74 32 160 32zM319 292q0 52 -26.5 77.5t-64.5 25.5q-36 0 -63.5 -24.5t-27.5 -79.5q0 -52 26.5 -77.5t64.5 -25.5q36 0 63.5 24.5t27.5 79.5zM410 -71q0 66 -136 66h-94
q-34 0 -53.5 -16.5t-21.5 -32.5l-2 -16q0 -34 46 -55t108 -21t107.5 21.5t45.5 53.5z" />
    <glyph glyph-name="h" unicode="h" horiz-adv-x="531" 
d="M449 0h-83v290q0 13 -0.5 22t-6 25.5t-15 26.5t-30 18t-48.5 8q-52 0 -77 -44t-25 -102v-244h-83v694h80v-311q58 72 147 72q141 0 141 -158v-297z" />
    <glyph glyph-name="i" unicode="i" horiz-adv-x="245" 
d="M162 0h-80v444h80v-444zM171 563h-96v96h96v-96z" />
    <glyph glyph-name="j" unicode="j" horiz-adv-x="274" 
d="M191 -59q0 -66 -38 -106t-92 -40q-63 0 -124 34l23 65q34 -31 75 -31q14 0 28 2.5t31 19.5t17 47v512h80v-503zM191 563h-96v96h96v-96z" />
    <glyph glyph-name="k" unicode="k" horiz-adv-x="502" 
d="M484 0h-86l-159 222l-81 -80v-142h-73v694h76v-456l205 206h95l-172 -172z" />
    <glyph glyph-name="l" unicode="l" horiz-adv-x="245" 
d="M162 0h-80v694h80v-694z" />
    <glyph glyph-name="m" unicode="m" horiz-adv-x="816" 
d="M734 0h-83v290q0 13 -0.5 22t-6 25.5t-15 26.5t-30 18t-48.5 8q-52 0 -77 -44t-25 -102v-244h-83v290q0 13 -0.5 22t-6 25.5t-15 26.5t-30 18t-48.5 8q-52 0 -77 -44t-25 -102v-244h-83v450h77v-71q58 76 150 76q101 0 130 -82q63 82 155 82q141 0 141 -158v-297z" />
    <glyph glyph-name="n" unicode="n" horiz-adv-x="531" 
d="M449 0h-83v290q0 13 -0.5 22t-6 25.5t-15 26.5t-30 18t-48.5 8q-52 0 -77 -44t-25 -102v-244h-83v450h77v-71q58 76 150 76q141 0 141 -158v-297z" />
    <glyph glyph-name="o" unicode="o" 
d="M483 220q0 -97 -66.5 -164t-160.5 -67q-92 0 -159 66.5t-67 164.5q0 100 66.5 170.5t159.5 70.5q95 0 161 -71t66 -170zM400 230q0 81 -42.5 123.5t-101.5 42.5q-57 0 -100 -42t-43 -124q0 -81 41.5 -127t102.5 -46q59 0 101 45.5t42 127.5z" />
    <glyph glyph-name="p" unicode="p" horiz-adv-x="531" 
d="M494 223q0 -100 -56 -167t-133 -67q-79 0 -139 57v-240h-83v638h80v-48q75 59 171 59q70 0 115 -69t45 -163zM411 222q0 70 -40.5 117.5t-97.5 47.5q-67 0 -107 -55v-216q37 -62 97 -62t104 48.5t44 119.5z" />
    <glyph glyph-name="q" unicode="q" horiz-adv-x="531" 
d="M447 -194h-83v243q-68 -60 -157 -60q-73 0 -122 68.5t-49 163.5q0 100 56 167t133 67q78 0 142 -68v68h80v-649zM367 141v138q0 36 -27.5 72t-72.5 36q-59 0 -103.5 -47t-44.5 -119q0 -69 40.5 -118t97.5 -49q42 0 75 28q35 28 35 59z" />
    <glyph glyph-name="r" unicode="r" horiz-adv-x="351" 
d="M336 383q-71 -1 -122 -47.5t-51 -122.5v-213h-80v450h74v-91q66 94 179 96v-72z" />
    <glyph glyph-name="s" unicode="s" horiz-adv-x="394" 
d="M370 129q0 -42 -16.5 -71.5t-44 -43.5t-54 -19.5t-54.5 -5.5q-89 0 -172 44l13 73q72 -50 159 -50q11 0 21.5 1.5t29.5 6.5t31 19.5t12 37.5t-17.5 39t-32.5 20.5t-39 8.5q-57 11 -81.5 19.5t-50.5 31.5q-40 40 -40 89q0 37 16 64t36 39.5t49 19.5t42 8t27 1
q78 0 149 -32l-13 -70q-71 39 -145 39q-86 0 -86 -59q0 -22 16 -36t30 -18t40 -9q37 -7 54 -11.5t36.5 -13t35.5 -22.5q49 -42 49 -100z" />
    <glyph glyph-name="t" unicode="t" horiz-adv-x="371" 
d="M342 26q-74 -37 -152 -37q-86 0 -86 137v256h-85v62h88v127h74v-127h144v-62h-144v-238q0 -87 52 -87q50 0 92 32z" />
    <glyph glyph-name="u" unicode="u" horiz-adv-x="531" 
d="M449 0h-80v48q-33 -29 -84 -44t-99 -15q-54 0 -79.5 28.5t-25.5 91.5v335h83v-330q0 -36 14.5 -51t64.5 -15q51 0 87 26t36 81v289h83v-444z" />
    <glyph glyph-name="v" unicode="v" horiz-adv-x="474" 
d="M459 444l-176 -444h-93l-176 444h82l81 -209q56 -147 60 -180h2q5 38 62 186q13 34 79 203h79z" />
    <glyph glyph-name="w" unicode="w" horiz-adv-x="702" 
d="M687 444l-141 -444h-91l-76 247q-5 17 -19 72q-12 62 -13 68h-1q-3 -42 -48 -194l-60 -193h-83l-141 444h80l60 -195q44 -145 48 -190h1q5 71 107 385h74l69 -222q38 -126 44 -166h1q7 59 112 388h77z" />
    <glyph glyph-name="x" unicode="x" horiz-adv-x="474" 
d="M473 0h-88l-151 187l-147 -187h-87l199 229l-193 215h87l141 -163l135 163h87l-188 -215z" />
    <glyph glyph-name="y" unicode="y" horiz-adv-x="474" 
d="M459 444l-222 -530q-18 -42 -35.5 -68.5t-34 -36t-26 -12t-24.5 -2.5q-50 0 -74 8l-6 69q39 -17 81 -17q10 0 16.5 2t18.5 15t24 39l37 89l-200 444h84q73 -167 89 -207q54 -130 57 -178q3 47 34.5 132.5t101.5 252.5h79z" />
    <glyph glyph-name="z" unicode="z" horiz-adv-x="447" 
d="M413 0h-384v43l268 339h-77q-6 0 -18 -0.5t-18 -0.5h-141v63h367v-41l-267 -338h84q6 0 18 0.5t18 0.5h150v-66z" />
    <glyph glyph-name="braceleft" unicode="{" 
d="M440 -237q0 -13 -21 -13q-81 0 -137 34q-22 13 -35 27.5t-18.5 31.5t-6.5 28t-1 31v198q0 39 -2 47q-10 40 -44.5 64t-88.5 26q-13 0 -13 13t13 13q64 4 100 35q25 23 30 45t5 86v196q1 54 58.5 89.5t139.5 35.5q21 0 21 -13q0 -10 -10 -12q-69 -5 -105 -37
q-24 -21 -28.5 -43.5t-4.5 -99.5v-150q0 -19 -1 -29.5t-7 -30t-17 -32.5t-34.5 -28t-56.5 -25q102 -30 115 -104q1 -9 1 -87v-150q0 -38 3 -50q10 -37 44.5 -59t83.5 -25q17 0 17 -12z" />
    <glyph glyph-name="bar" unicode="|" horiz-adv-x="286" 
d="M164 -215q0 -35 -21 -35q-22 0 -22 35v930q0 35 22 35q21 0 21 -35v-930z" />
    <glyph glyph-name="braceright" unicode="}" 
d="M440 250q0 -13 -13 -13q-64 -4 -100 -35q-25 -23 -30 -45t-5 -86v-196q-1 -54 -59 -89.5t-138 -35.5q-22 0 -22 13q0 10 10 12q69 5 105 37q24 21 28.5 43t4.5 100v150q0 19 1 29.5t7 30t17 32.5t34.5 28t56.5 25q-102 30 -115 104q-1 9 -1 87v150q0 38 -3 50
q-10 37 -44.5 59t-83.5 25q-17 2 -17 12q0 13 22 13q80 0 136 -34q22 -13 35 -27.5t18.5 -31.5t6.5 -28t1 -31v-198q0 -39 2 -47q10 -40 44.5 -64t88.5 -26q13 0 13 -13z" />
    <glyph glyph-name="asciitilde" unicode="~" horiz-adv-x="556" 
d="M555 290l-54 -44q-20 -17 -57 -35q-40 -18 -73 -18q-42 0 -100 34q-65 37 -104 37q-68 0 -153 -71l-14 17l54 44q20 17 57 35q40 18 73 18q42 0 100 -34q65 -37 104 -37q68 0 153 71z" />
    <glyph glyph-name="uni00A0" unicode="&#xa0;" 
 />
    <glyph glyph-name="exclamdown" unicode="&#xa1;" horiz-adv-x="326" 
d="M206 414h-86v86h86v-86zM206 -194h-86l8 474v43h70v-43z" />
    <glyph glyph-name="cent" unicode="&#xa2;" horiz-adv-x="457" 
d="M427 37q-66 -40 -142 -47v-58h-68v61q-79 15 -130 80.5t-51 148.5t49 150.5t132 84.5v55h68v-51q41 -2 69.5 -11.5t67.5 -32.5l-13 -70q-62 43 -124 45v-334q71 6 136 50zM217 64v322q-50 -16 -74 -62t-24 -101q0 -59 26.5 -102t71.5 -57z" />
    <glyph glyph-name="sterling" unicode="&#xa3;" horiz-adv-x="687" 
d="M618 148q0 -69 -41.5 -119.5t-103.5 -50.5q-46 0 -108 16q-56 14 -88 20t-74 3t-60 -24l-64 54q49 58 78 106.5t36 103.5q5 29 0 56h-124v68h103q-17 51 -19 55q-20 100 40 179t158 79q83 0 140.5 -61.5t57.5 -147.5h-84q0 52 -33 88.5t-81 36.5q-58 0 -92.5 -48
t-22.5 -109q2 -11 25 -72h151v-68h-134q3 -36 -1 -68q-10 -69 -53 -142q51 -1 161 -28q54 -13 88 -13q28 0 44.5 26t16.5 60h84z" />
    <glyph glyph-name="currency" unicode="&#xa4;" horiz-adv-x="799" 
d="M642 9q-6 -6 -11 -7.5t-11 2t-9 6t-9 8.5l-75 75q-56 -45 -127 -45q-72 0 -128 45l-75 -75q-25 -25 -40 -9q-15 15 10 40l75 75q-44 53 -44 126q0 71 45 127l-76 76q-25 25 -10 40q16 16 40 -10l76 -76q56 45 127 45q69 0 126 -44l75 75q25 25 40 9q15 -15 -10 -40
l-75 -75q46 -54 46 -127q0 -71 -45 -126l75 -75q25 -25 10 -40zM560 250q0 66 -47 113t-113 47q-67 0 -113.5 -47t-46.5 -113t46.5 -113t113.5 -47q66 0 113 47t47 113z" />
    <glyph glyph-name="yen" unicode="&#xa5;" horiz-adv-x="687" 
d="M683 694l-231 -328h120v-68h-168l-14 -20v-64h182v-68h-182v-146h-93v146h-183v68h183v64l-14 20h-169v68h121l-232 328h114l171 -244l56 -84h18l62 92l165 236h94z" />
    <glyph glyph-name="brokenbar" unicode="&#xa6;" horiz-adv-x="286" 
d="M164 343q0 -34 -21 -34q-22 0 -22 34v372q0 35 22 35q21 0 21 -35v-372zM164 -215q0 -35 -21 -35q-22 0 -22 35v372q0 34 22 34q21 0 21 -34v-372z" />
    <glyph glyph-name="section" unicode="&#xa7;" horiz-adv-x="540" 
d="M505 200q0 -86 -71 -142q32 -43 32 -92q0 -75 -58 -126.5t-138 -51.5t-138 49t-58 122h84q0 -41 33.5 -68t78.5 -27q46 0 79 29.5t33 72.5q0 60 -97 102l-103 46q-64 29 -105.5 77.5t-41.5 108.5q0 85 71 141q-32 43 -32 93q0 75 58 126.5t138 51.5t138 -49t58 -122h-84
q0 41 -33.5 68t-78.5 27q-46 0 -79 -29.5t-33 -72.5q0 -60 97 -102l103 -46q64 -29 105.5 -77.5t41.5 -108.5zM421 200q0 65 -97 109l-103 46q-33 15 -58 33q-44 -31 -44 -88q0 -65 97 -109l103 -46q34 -17 58 -33q44 30 44 88z" />
    <glyph glyph-name="dieresis" unicode="&#xa8;" 
d="M221 568h-87v86h87v-86zM381 568h-87v86h87v-86z" />
    <glyph glyph-name="copyright" unicode="&#xa9;" horiz-adv-x="694" 
d="M694 347q0 -144 -101.5 -245.5t-245.5 -101.5t-245.5 101.5t-101.5 245.5t101.5 245.5t245.5 101.5t245.5 -101.5t101.5 -245.5zM654 347q0 127 -90 217t-217 90t-217 -90t-90 -217t90 -217t217 -90t217 90t90 217zM490 158q-33 -20 -57 -27t-63 -7q-90 0 -148 66.5
t-58 156.5q0 91 58 157t147 66q58 0 114 -21l-10 -52q-49 32 -104 32q-64 0 -105.5 -53.5t-41.5 -128.5q0 -73 41 -127.5t107 -54.5q40 0 62 8t55 30z" />
    <glyph glyph-name="ordfeminine" unicode="&#xaa;" horiz-adv-x="383" 
d="M346 394h-67v26q-55 -34 -143 -34q-49 0 -74 29t-25 60q0 42 64 65.5t175 25.5v29q0 35 -20 56t-55 21q-72 0 -130 -36l-5 50q65 30 136 30q62 0 103 -34t41 -86v-202zM312 332q0 -10 -10 -17t-24 -7h-173q-14 0 -24 7t-10 17t10 17t24 7h173q14 0 24 -7t10 -17zM276 492
v36q-13 0 -33.5 -1.5t-56.5 -5.5t-60 -16t-24 -29q0 -20 22.5 -32t56.5 -12q40 0 65 13q30 15 30 47z" />
    <glyph glyph-name="guillemotleft" unicode="&#xab;" 
d="M286 0h-65l-107 219l107 219h65l-88 -219zM457 0h-65l-107 219l107 219h65l-88 -219z" />
    <glyph glyph-name="logicalnot" unicode="&#xac;" horiz-adv-x="799" 
d="M741 145q0 -9 -6 -15t-15 -6t-15 6t-6 15v190h-621q-9 0 -15 6t-6 15t6 15t15 6h642q9 0 15 -6t6 -15v-211z" />
    <glyph glyph-name="uni00AD" unicode="&#xad;" horiz-adv-x="343" 
d="M285 191h-274v62h274v-62z" />
    <glyph glyph-name="registered" unicode="&#xae;" horiz-adv-x="694" 
d="M694 347q0 -144 -101.5 -245.5t-245.5 -101.5t-245.5 101.5t-101.5 245.5t101.5 245.5t245.5 101.5t245.5 -101.5t101.5 -245.5zM654 347q0 127 -90 217t-217 90t-217 -90t-90 -217t90 -217t217 -90t217 90t90 217zM525 137h-58l-115 191h-96v-191h-57v420h153
q64 0 110 -33t46 -80q0 -37 -29 -67t-76 -43zM456 444q0 33 -30 55t-82 22h-88v-154h88q53 0 82.5 22.5t29.5 54.5z" />
    <glyph glyph-name="macron" unicode="&#xaf;" 
d="M442 576h-371v69h371v-69z" />
    <glyph glyph-name="degree" unicode="&#xb0;" horiz-adv-x="385" 
d="M335 552q0 -59 -41.5 -101t-100.5 -42t-101 42t-42 101t42 100.5t101 41.5t100.5 -41.5t41.5 -100.5zM293 552q0 41 -29.5 70.5t-70.5 29.5q-42 0 -71.5 -29.5t-29.5 -70.5q0 -42 29.5 -71.5t71.5 -29.5q41 0 70.5 29.5t29.5 71.5z" />
    <glyph glyph-name="plusminus" unicode="&#xb1;" horiz-adv-x="799" 
d="M741 21q0 -21 -35 -21h-614q-35 0 -35 22q0 21 35 21h286v278h-286q-35 0 -35 22q0 21 35 21h286v286q0 35 21 35q22 0 22 -35v-286h285q35 0 35 -22q0 -21 -35 -21h-285v-278h285q35 0 35 -22z" />
    <glyph glyph-name="two.superior" unicode="&#xb2;" horiz-adv-x="364" 
d="M333 311h-296v41l133 105q34 25 51 39.5t32.5 39t15.5 50.5q0 38 -28.5 64t-75.5 26q-77 0 -101 -90l-33 34q35 96 144 96q71 0 114.5 -37.5t43.5 -91.5q0 -40 -27.5 -68.5t-95.5 -73.5l-118 -90h79q5 0 13.5 0.5t12.5 0.5h136v-45z" />
    <glyph glyph-name="three.superior" unicode="&#xb3;" horiz-adv-x="369" 
d="M338 419q0 -49 -44.5 -85t-111.5 -36q-93 0 -151 60q6 26 9 38q21 -25 59.5 -42t81.5 -17q40 0 64 23.5t24 59.5q0 32 -22 57.5t-70 25.5h-54v39l39 3q51 4 72 29.5t21 50.5q0 26 -21.5 40t-51.5 14q-76 0 -113 -60l-28 34q50 63 142 63q56 0 95.5 -26.5t39.5 -64.5
q0 -32 -21.5 -59t-58.5 -43q45 -13 72.5 -41t27.5 -63z" />
    <glyph glyph-name="acute" unicode="&#xb4;" 
d="M402 694l-152 -167h-65l134 167h83z" />
    <glyph glyph-name="uni00B5" unicode="&#xb5;" horiz-adv-x="531" 
d="M449 0h-81v47q-35 -30 -85.5 -44t-95.5 -14q-16 0 -22 1v-184h-84v638h84v-328q0 -38 14 -53t65 -15q53 0 87 27q34 29 34 82v287h84v-444z" />
    <glyph glyph-name="paragraph" unicode="&#xb6;" horiz-adv-x="628" 
d="M598 672q0 -21 -35 -21h-51v-810q0 -35 -21 -35q-22 0 -22 35v810h-72v-810q0 -35 -21 -35q-22 0 -22 35v387q-52 2 -102.5 17t-95 42.5t-72 72.5t-27.5 101q0 99 76.5 166t179.5 67h250q35 0 35 -22z" />
    <glyph glyph-name="periodcentered" unicode="&#xb7;" horiz-adv-x="799" 
d="M443 304h-86v86h86v-86z" />
    <glyph glyph-name="cedilla" unicode="&#xb8;" horiz-adv-x="457" 
d="M289 -24l-67 -168h-74l76 168h65z" />
    <glyph glyph-name="one.superior" unicode="&#xb9;" horiz-adv-x="379" 
d="M315 311h-246v37h92v306q-39 -14 -96 -14v37q94 0 142 39h15v-368h93v-37z" />
    <glyph glyph-name="ordmasculine" unicode="&#xba;" horiz-adv-x="431" 
d="M406 548q0 -68 -56 -115t-135 -47q-78 0 -134 46.5t-56 115.5q0 70 56 119t134 49q80 0 135.5 -49.5t55.5 -118.5zM372 332q0 -10 -10 -17t-24 -7h-245q-14 0 -24 7t-10 17t10 17t24 7h245q14 0 24 -7t10 -17zM336 555q0 56 -35.5 86t-85.5 30q-48 0 -84 -29.5t-36 -86.5
t35 -89t86 -32q49 0 84.5 32t35.5 89z" />
    <glyph glyph-name="guillemotright" unicode="&#xbb;" 
d="M400 219l-107 -219h-65l88 219l-88 219h65zM229 219l-107 -219h-65l88 219l-88 219h65z" />
    <glyph glyph-name="onequarter" unicode="&#xbc;" horiz-adv-x="808" 
d="M315 311h-246v37h92v306q-39 -14 -96 -14v37q94 0 142 39h15v-368h93v-37zM743 100h-72v-100h-60v100h-195v39l185 253h70v-253h72v-39zM675 674l-411 -654h-50l411 654h50zM615 139v226q-1 -32 -96 -166l-44 -60h140z" />
    <glyph glyph-name="onehalf" unicode="&#xbd;" horiz-adv-x="808" 
d="M315 311h-246v37h92v306q-39 -14 -96 -14v37q94 0 142 39h15v-368h93v-37zM743 0h-296v41l134 105q34 25 51 39.5t32.5 39t15.5 50.5q0 38 -28.5 64t-75.5 26q-78 0 -101 -90l-33 35q36 96 144 96q71 0 114 -38t43 -92q0 -40 -27.5 -68.5t-94.5 -73.5l-118 -90h79
q4 0 13 0.5t13 0.5h135v-45zM635 674l-412 -654h-49l411 654h50z" />
    <glyph glyph-name="threequarters" unicode="&#xbe;" horiz-adv-x="808" 
d="M369 419q0 -49 -44.5 -85t-111.5 -36q-93 0 -151 60q6 26 9 38q21 -25 59.5 -42t81.5 -17q40 0 64 23.5t24 59.5q0 32 -22 57.5t-70 25.5h-54v39l39 3q51 4 72 29.5t21 50.5q0 26 -21.5 40t-51.5 14q-76 0 -113 -60l-28 34q50 63 142 63q56 0 95.5 -26.5t39.5 -64.5
q0 -32 -21.5 -59t-58.5 -43q45 -13 72.5 -41t27.5 -63zM743 100h-72v-100h-60v100h-195v39l185 253h70v-253h72v-39zM675 674l-411 -654h-50l411 654h50zM615 139v226q-1 -32 -96 -166l-44 -60h140z" />
    <glyph glyph-name="questiondown" unicode="&#xbf;" horiz-adv-x="485" 
d="M271 414h-86v86h86v-86zM427 -152q-93 -53 -197 -53q-91 0 -132 44.5t-41 111.5q0 32 9.5 58.5t17.5 37t24 26.5q85 85 85 195v55h70v-32q0 -163 -96 -269q-27 -27 -27 -73q0 -48 21.5 -68.5t67.5 -20.5q95 0 174 55z" />
    <glyph glyph-name="Agrave" unicode="&#xc0;" horiz-adv-x="687" 
d="M657 0h-99l-77 199h-297l-76 -199h-79l268 694h92zM457 258l-125 362l-124 -362h249zM438 746h-89l-197 122h111z" />
    <glyph glyph-name="Aacute" unicode="&#xc1;" horiz-adv-x="687" 
d="M657 0h-99l-77 199h-297l-76 -199h-79l268 694h92zM457 258l-125 362l-124 -362h249zM534 868l-197 -122h-89l175 122h111z" />
    <glyph glyph-name="Acircumflex" unicode="&#xc2;" horiz-adv-x="687" 
d="M657 0h-99l-77 199h-297l-76 -199h-79l268 694h92zM457 258l-125 362l-124 -362h249zM499 736h-59l-97 97l-97 -97h-59l126 134h60z" />
    <glyph glyph-name="Atilde" unicode="&#xc3;" horiz-adv-x="687" 
d="M657 0h-99l-77 199h-297l-76 -199h-79l268 694h92zM457 258l-125 362l-124 -362h249zM513 859q-1 -55 -31 -89t-70 -34q-26 0 -74 31q-38 27 -63 27q-21 0 -29.5 -18t-8.5 -40h-65q1 55 31 89t70 34q26 0 74 -31q38 -27 63 -27q21 0 29.5 18t8.5 40h65z" />
    <glyph glyph-name="Adieresis" unicode="&#xc4;" horiz-adv-x="687" 
d="M657 0h-99l-77 199h-297l-76 -199h-79l268 694h92zM457 258l-125 362l-124 -362h249zM293 736h-87v86h87v-86zM481 736h-87v86h87v-86z" />
    <glyph glyph-name="Aring" unicode="&#xc5;" horiz-adv-x="687" 
d="M657 0h-99l-77 199h-297l-76 -199h-79l268 694h92zM457 258l-125 362l-124 -362h249zM394 778q0 37 -51 37t-51 -37t51 -37t51 37zM458 777q0 -33 -33 -58t-82 -25t-82 25t-33 60q0 33 33 58t82 25t82 -25t33 -60z" />
    <glyph glyph-name="AE" unicode="&#xc6;" horiz-adv-x="886" 
d="M842 0h-411v219h-231l-91 -219h-80l291 694h508v-70h-69l-211 2h-22v-233h273v-65h-273v-254q14 1 122 1l194 1v-76zM431 278v348h-60l-146 -348h206z" />
    <glyph glyph-name="Ccedilla" unicode="&#xc7;" horiz-adv-x="657" 
d="M605 34q-55 -32 -94.5 -44t-104.5 -12q-148 0 -244 109.5t-96 259.5t96.5 259.5t242.5 109.5q96 0 188 -35l-16 -87q-81 54 -173 54q-105 0 -173.5 -89t-68.5 -212q0 -121 67.5 -211t177.5 -90q46 0 81 8.5t54.5 19t56.5 34.5zM410 -46l-67 -168h-74l76 168h65z" />
    <glyph glyph-name="Egrave" unicode="&#xc8;" horiz-adv-x="617" 
d="M573 0h-478v691h464v-70h-86l-244 2h-38v-231h339v-65h-339v-253l282 2h100v-76zM404 746h-89l-197 122h111z" />
    <glyph glyph-name="Eacute" unicode="&#xc9;" horiz-adv-x="617" 
d="M573 0h-478v691h464v-70h-86l-244 2h-38v-231h339v-65h-339v-253l282 2h100v-76zM500 868l-197 -122h-89l175 122h111z" />
    <glyph glyph-name="Ecircumflex" unicode="&#xca;" horiz-adv-x="617" 
d="M573 0h-478v691h464v-70h-86l-244 2h-38v-231h339v-65h-339v-253l282 2h100v-76zM465 736h-59l-97 97l-97 -97h-59l126 134h60z" />
    <glyph glyph-name="Edieresis" unicode="&#xcb;" horiz-adv-x="617" 
d="M573 0h-478v691h464v-70h-86l-244 2h-38v-231h339v-65h-339v-253l282 2h100v-76zM259 736h-87v86h87v-86zM447 736h-87v86h87v-86z" />
    <glyph glyph-name="Igrave" unicode="&#xcc;" horiz-adv-x="287" 
d="M191 0h-96v694h96v-694zM191 746h-89l-197 122h111z" />
    <glyph glyph-name="Iacute" unicode="&#xcd;" horiz-adv-x="287" 
d="M191 0h-96v694h96v-694zM381 868l-197 -122h-89l175 122h111z" />
    <glyph glyph-name="Icircumflex" unicode="&#xce;" horiz-adv-x="287" 
d="M191 0h-96v694h96v-694zM300 736h-59l-97 97l-97 -97h-59l126 134h60z" />
    <glyph glyph-name="Idieresis" unicode="&#xcf;" horiz-adv-x="287" 
d="M191 0h-96v694h96v-694zM94 736h-87v86h87v-86zM282 736h-87v86h87v-86z" />
    <glyph glyph-name="Eth" unicode="&#xd0;" horiz-adv-x="743" 
d="M685 341q0 -142 -92 -241.5t-223 -99.5h-273v313h-84v68h84v313h273q131 0 223 -103t92 -250zM592 341q0 133 -71 213.5t-177 80.5h-154v-254h98v-68h-98v-254h155q105 0 176 77t71 205z" />
    <glyph glyph-name="Ntilde" unicode="&#xd1;" horiz-adv-x="727" 
d="M628 0h-132l-26 52q-5 7 -25 47l-264 517h-1v-616h-82v694h132l26 -52q5 -7 25 -47l264 -517h1v616h82v-694zM533 859q-1 -55 -31 -89t-70 -34q-26 0 -74 31q-38 27 -63 27q-21 0 -29.5 -18t-8.5 -40h-65q1 55 31 89t70 34q26 0 74 -31q38 -27 63 -27q21 0 29.5 18
t8.5 40h65z" />
    <glyph glyph-name="Ograve" unicode="&#xd2;" horiz-adv-x="759" 
d="M701 344q0 -154 -95.5 -260t-226.5 -106t-226.5 106t-95.5 260q0 156 95.5 264t226.5 108t226.5 -108t95.5 -264zM605 359q0 130 -67.5 209.5t-158.5 79.5t-158.5 -79t-67.5 -210q0 -137 67 -224t159 -87t159 87t67 224zM475 746h-89l-197 122h111z" />
    <glyph glyph-name="Oacute" unicode="&#xd3;" horiz-adv-x="759" 
d="M701 344q0 -154 -95.5 -260t-226.5 -106t-226.5 106t-95.5 260q0 156 95.5 264t226.5 108t226.5 -108t95.5 -264zM605 359q0 130 -67.5 209.5t-158.5 79.5t-158.5 -79t-67.5 -210q0 -137 67 -224t159 -87t159 87t67 224zM571 868l-197 -122h-89l175 122h111z" />
    <glyph glyph-name="Ocircumflex" unicode="&#xd4;" horiz-adv-x="759" 
d="M701 344q0 -154 -95.5 -260t-226.5 -106t-226.5 106t-95.5 260q0 156 95.5 264t226.5 108t226.5 -108t95.5 -264zM605 359q0 130 -67.5 209.5t-158.5 79.5t-158.5 -79t-67.5 -210q0 -137 67 -224t159 -87t159 87t67 224zM536 736h-59l-97 97l-97 -97h-59l126 134h60z" />
    <glyph glyph-name="Otilde" unicode="&#xd5;" horiz-adv-x="759" 
d="M701 344q0 -154 -95.5 -260t-226.5 -106t-226.5 106t-95.5 260q0 156 95.5 264t226.5 108t226.5 -108t95.5 -264zM605 359q0 130 -67.5 209.5t-158.5 79.5t-158.5 -79t-67.5 -210q0 -137 67 -224t159 -87t159 87t67 224zM550 859q-1 -55 -31 -89t-70 -34q-26 0 -74 31
q-38 27 -63 27q-21 0 -29.5 -18t-8.5 -40h-65q1 55 31 89t70 34q26 0 74 -31q38 -27 63 -27q21 0 29.5 18t8.5 40h65z" />
    <glyph glyph-name="Odieresis" unicode="&#xd6;" horiz-adv-x="759" 
d="M701 344q0 -154 -95.5 -260t-226.5 -106t-226.5 106t-95.5 260q0 156 95.5 264t226.5 108t226.5 -108t95.5 -264zM605 359q0 130 -67.5 209.5t-158.5 79.5t-158.5 -79t-67.5 -210q0 -137 67 -224t159 -87t159 87t67 224zM330 736h-87v86h87v-86zM518 736h-87v86h87v-86z
" />
    <glyph glyph-name="multiply" unicode="&#xd7;" horiz-adv-x="799" 
d="M642 9q-6 -6 -11 -7.5t-11 2t-9 6t-9 8.5l-203 202l-202 -202q-25 -25 -40 -9q-15 15 10 40l202 202l-202 202q-25 25 -10 40q16 16 40 -10l202 -202l202 202q25 25 40 9q15 -15 -10 -40l-201 -201l202 -202q25 -25 10 -40z" />
    <glyph glyph-name="Oslash" unicode="&#xd8;" horiz-adv-x="799" 
d="M741 344q0 -153 -101 -259.5t-241 -106.5q-79 0 -154 39l-48 -83l-59 34l51 88q-55 44 -93.5 119.5t-38.5 168.5q0 155 101 263.5t241 108.5q80 0 154 -39l48 83l59 -34l-51 -89q60 -49 96 -126.5t36 -166.5zM518 618q-59 33 -119 33q-103 0 -177 -83t-74 -224
q0 -138 78 -225zM650 344q0 142 -79 229l-291 -497q58 -33 119 -33q103 0 177 81.5t74 219.5z" />
    <glyph glyph-name="Ugrave" unicode="&#xd9;" horiz-adv-x="707" 
d="M611 233q0 -108 -75 -181.5t-180 -73.5q-106 0 -183.5 73.5t-77.5 182.5v460h96v-462q0 -94 49 -144.5t117 -50.5q69 0 120 51t51 145v461h83v-461zM448 746h-89l-197 122h111z" />
    <glyph glyph-name="Uacute" unicode="&#xda;" horiz-adv-x="707" 
d="M611 233q0 -108 -75 -181.5t-180 -73.5q-106 0 -183.5 73.5t-77.5 182.5v460h96v-462q0 -94 49 -144.5t117 -50.5q69 0 120 51t51 145v461h83v-461zM544 868l-197 -122h-89l175 122h111z" />
    <glyph glyph-name="Ucircumflex" unicode="&#xdb;" horiz-adv-x="707" 
d="M611 233q0 -108 -75 -181.5t-180 -73.5q-106 0 -183.5 73.5t-77.5 182.5v460h96v-462q0 -94 49 -144.5t117 -50.5q69 0 120 51t51 145v461h83v-461zM509 736h-59l-97 97l-97 -97h-59l126 134h60z" />
    <glyph glyph-name="Udieresis" unicode="&#xdc;" horiz-adv-x="707" 
d="M611 233q0 -108 -75 -181.5t-180 -73.5q-106 0 -183.5 73.5t-77.5 182.5v460h96v-462q0 -94 49 -144.5t117 -50.5q69 0 120 51t51 145v461h83v-461zM303 736h-87v86h87v-86zM491 736h-87v86h87v-86z" />
    <glyph glyph-name="Yacute" unicode="&#xdd;" horiz-adv-x="687" 
d="M683 694l-293 -416v-278h-93v278l-294 416h114l171 -244l65 -97l71 105l165 236h94zM534 868l-197 -122h-89l175 122h111z" />
    <glyph glyph-name="Thorn" unicode="&#xde;" horiz-adv-x="600" 
d="M542 374q0 -71 -57.5 -132.5t-170.5 -61.5h-126v-180h-90v694h90v-126h133q101 0 161 -59t60 -135zM455 374q0 52 -47 93.5t-131 41.5h-89v-270h97q47 0 82 14t53 36t26.5 43.5t8.5 41.5z" />
    <glyph glyph-name="germandbls" unicode="&#xdf;" horiz-adv-x="494" 
d="M464 179q0 -80 -52.5 -135t-128.5 -55q-47 0 -90 18l23 62q33 -15 67 -15q42 0 70.5 32.5t28.5 93.5q0 81 -44.5 139.5t-117.5 59.5v65q67 1 100.5 36t33.5 77q0 37 -26.5 60t-68.5 23q-33 0 -55 -11.5t-29.5 -30t-9.5 -29t-2 -22.5v-547h-80v549q0 76 54.5 116t121.5 40
q74 0 125.5 -43.5t51.5 -104.5q0 -36 -22 -76.5t-73 -71.5q54 -33 88.5 -95t34.5 -135z" />
    <glyph glyph-name="agrave" unicode="&#xe0;" horiz-adv-x="494" 
d="M422 0h-80v38q-66 -49 -170 -49q-59 0 -88.5 41.5t-29.5 85.5q0 60 76.5 93.5t208.5 36.5v42q0 49 -24.5 79.5t-65.5 30.5q-84 0 -154 -52l-6 71q78 44 161 44q74 0 123 -49t49 -123v-289zM339 140v52q-15 0 -39.5 -2t-67.5 -8t-72 -23t-29 -41q0 -29 27 -46.5t67 -17.5
q46 0 78 19q17 10 25.5 23t9.5 21.5t1 22.5zM319 527h-65l-152 167h83z" />
    <glyph glyph-name="aacute" unicode="&#xe1;" horiz-adv-x="494" 
d="M422 0h-80v38q-66 -49 -170 -49q-59 0 -88.5 41.5t-29.5 85.5q0 60 76.5 93.5t208.5 36.5v42q0 49 -24.5 79.5t-65.5 30.5q-84 0 -154 -52l-6 71q78 44 161 44q74 0 123 -49t49 -123v-289zM339 140v52q-15 0 -39.5 -2t-67.5 -8t-72 -23t-29 -41q0 -29 27 -46.5t67 -17.5
q46 0 78 19q17 10 25.5 23t9.5 21.5t1 22.5zM392 694l-152 -167h-65l134 167h83z" />
    <glyph glyph-name="acircumflex" unicode="&#xe2;" horiz-adv-x="494" 
d="M422 0h-80v38q-66 -49 -170 -49q-59 0 -88.5 41.5t-29.5 85.5q0 60 76.5 93.5t208.5 36.5v42q0 49 -24.5 79.5t-65.5 30.5q-84 0 -154 -52l-6 71q78 44 161 44q74 0 123 -49t49 -123v-289zM339 140v52q-15 0 -39.5 -2t-67.5 -8t-72 -23t-29 -41q0 -29 27 -46.5t67 -17.5
q46 0 78 19q17 10 25.5 23t9.5 21.5t1 22.5zM402 525h-59l-96 123l-96 -123h-59l125 172h60z" />
    <glyph glyph-name="atilde" unicode="&#xe3;" horiz-adv-x="494" 
d="M422 0h-80v38q-66 -49 -170 -49q-59 0 -88.5 41.5t-29.5 85.5q0 60 76.5 93.5t208.5 36.5v42q0 49 -24.5 79.5t-65.5 30.5q-84 0 -154 -52l-6 71q78 44 161 44q74 0 123 -49t49 -123v-289zM339 140v52q-15 0 -39.5 -2t-67.5 -8t-72 -23t-29 -41q0 -29 27 -46.5t67 -17.5
q46 0 78 19q17 10 25.5 23t9.5 21.5t1 22.5zM417 672q-1 -55 -31 -89t-70 -34q-26 0 -74 31q-38 27 -63 27q-21 0 -29.5 -18t-8.5 -40h-65q1 55 31 89t70 34q26 0 74 -31q38 -27 63 -27q21 0 29.5 18t8.5 40h65z" />
    <glyph glyph-name="adieresis" unicode="&#xe4;" horiz-adv-x="494" 
d="M422 0h-80v38q-66 -49 -170 -49q-59 0 -88.5 41.5t-29.5 85.5q0 60 76.5 93.5t208.5 36.5v42q0 49 -24.5 79.5t-65.5 30.5q-84 0 -154 -52l-6 71q78 44 161 44q74 0 123 -49t49 -123v-289zM339 140v52q-15 0 -39.5 -2t-67.5 -8t-72 -23t-29 -41q0 -29 27 -46.5t67 -17.5
q46 0 78 19q17 10 25.5 23t9.5 21.5t1 22.5zM211 568h-87v86h87v-86zM371 568h-87v86h87v-86z" />
    <glyph glyph-name="aring" unicode="&#xe5;" horiz-adv-x="494" 
d="M422 0h-80v38q-66 -49 -170 -49q-59 0 -88.5 41.5t-29.5 85.5q0 60 76.5 93.5t208.5 36.5v42q0 49 -24.5 79.5t-65.5 30.5q-84 0 -154 -52l-6 71q78 44 161 44q74 0 123 -49t49 -123v-289zM339 140v52q-15 0 -39.5 -2t-67.5 -8t-72 -23t-29 -41q0 -29 27 -46.5t67 -17.5
q46 0 78 19q17 10 25.5 23t9.5 21.5t1 22.5zM298 601q0 37 -51 37t-51 -37t51 -37t51 37zM362 600q0 -33 -33 -58t-82 -25t-82 25t-33 60q0 33 33 58t82 25t82 -25t33 -60z" />
    <glyph glyph-name="ae" unicode="&#xe6;" horiz-adv-x="742" 
d="M712 219h-300q4 -73 46 -119t101 -46q79 0 142 53l6 -69q-67 -49 -149 -49q-101 0 -168 75q-55 -75 -224 -75q-36 0 -61.5 15.5t-37 38.5t-16 41t-4.5 33q0 64 82.5 97t199.5 34q0 52 -2.5 70t-13.5 37q-25 43 -73 43q-85 0 -154 -52l-7 71q79 44 162 44q93 0 144 -76
q68 76 157 76q90 0 134 -77q36 -61 36 -165zM650 278q-10 64 -41 91t-67 27q-42 0 -76.5 -33t-47.5 -85h232zM334 130q0 29 -3 50q-1 10 -8 10q-61 0 -121 -15q-42 -11 -60 -23.5t-18 -33.5q0 -26 25 -45t69 -19q47 0 81 15q16 8 24.5 19.5t9.5 19.5t1 22z" />
    <glyph glyph-name="ccedilla" unicode="&#xe7;" horiz-adv-x="457" 
d="M427 37q-80 -48 -168 -48q-96 0 -159.5 69t-63.5 164t62.5 167t164.5 72q52 0 83 -9.5t76 -34.5l-13 -70q-39 26 -69 36t-76 10q-74 0 -109.5 -51.5t-35.5 -118.5q0 -72 39 -119t102 -47q87 0 161 51zM300 -46l-67 -168h-74l76 168h65z" />
    <glyph glyph-name="egrave" unicode="&#xe8;" horiz-adv-x="457" 
d="M427 219h-318q2 -69 45 -117t105 -48q83 0 157 53l6 -69q-77 -49 -164 -49q-94 0 -158.5 69t-64.5 168q0 97 60.5 166t147.5 69q94 0 144 -75q40 -62 40 -167zM367 278q-13 67 -49 92.5t-75 25.5q-46 0 -80.5 -34t-47.5 -84h252zM300 527h-65l-152 167h83z" />
    <glyph glyph-name="eacute" unicode="&#xe9;" horiz-adv-x="457" 
d="M427 219h-318q2 -69 45 -117t105 -48q83 0 157 53l6 -69q-77 -49 -164 -49q-94 0 -158.5 69t-64.5 168q0 97 60.5 166t147.5 69q94 0 144 -75q40 -62 40 -167zM367 278q-13 67 -49 92.5t-75 25.5q-46 0 -80.5 -34t-47.5 -84h252zM373 694l-152 -167h-65l134 167h83z" />
    <glyph glyph-name="ecircumflex" unicode="&#xea;" horiz-adv-x="457" 
d="M427 219h-318q2 -69 45 -117t105 -48q83 0 157 53l6 -69q-77 -49 -164 -49q-94 0 -158.5 69t-64.5 168q0 97 60.5 166t147.5 69q94 0 144 -75q40 -62 40 -167zM367 278q-13 67 -49 92.5t-75 25.5q-46 0 -80.5 -34t-47.5 -84h252zM383 525h-59l-96 123l-96 -123h-59
l125 172h60z" />
    <glyph glyph-name="edieresis" unicode="&#xeb;" horiz-adv-x="457" 
d="M427 219h-318q2 -69 45 -117t105 -48q83 0 157 53l6 -69q-77 -49 -164 -49q-94 0 -158.5 69t-64.5 168q0 97 60.5 166t147.5 69q94 0 144 -75q40 -62 40 -167zM367 278q-13 67 -49 92.5t-75 25.5q-46 0 -80.5 -34t-47.5 -84h252zM192 568h-87v86h87v-86zM352 568h-87v86
h87v-86z" />
    <glyph glyph-name="igrave" unicode="&#xec;" horiz-adv-x="245" 
d="M162 0h-80v444h80v-444zM162 527h-65l-152 167h83z" />
    <glyph glyph-name="iacute" unicode="&#xed;" horiz-adv-x="245" 
d="M162 0h-80v444h80v-444zM299 694l-152 -167h-65l134 167h83z" />
    <glyph glyph-name="icircumflex" unicode="&#xee;" horiz-adv-x="245" 
d="M162 0h-80v444h80v-444zM278 525h-59l-96 123l-96 -123h-59l125 172h60z" />
    <glyph glyph-name="idieresis" unicode="&#xef;" horiz-adv-x="245" 
d="M162 0h-80v444h80v-444zM87 568h-87v86h87v-86zM247 568h-87v86h87v-86z" />
    <glyph glyph-name="eth" unicode="&#xf0;" 
d="M484 245q0 -119 -59 -181q-75 -75 -169 -75q-92 0 -159.5 67t-67.5 164q0 98 66.5 169.5t161.5 71.5q52 0 105 -27q-41 86 -112 148l-77 -61l-39 49l64 51q-48 30 -108 51l37 53q69 -19 131 -58l76 60l39 -49l-63 -50q82 -70 128 -170.5t46 -212.5zM400 225
q0 72 -39.5 121.5t-104.5 49.5q-58 0 -100.5 -42t-42.5 -124t41.5 -127.5t102.5 -45.5q64 0 103.5 48t39.5 120z" />
    <glyph glyph-name="ntilde" unicode="&#xf1;" horiz-adv-x="531" 
d="M449 0h-83v290q0 13 -0.5 22t-6 25.5t-15 26.5t-30 18t-48.5 8q-52 0 -77 -44t-25 -102v-244h-83v450h77v-71q58 76 150 76q141 0 141 -158v-297zM435 672q-1 -55 -31 -89t-70 -34q-26 0 -74 31q-38 27 -63 27q-21 0 -29.5 -18t-8.5 -40h-65q1 55 31 89t70 34
q26 0 74 -31q38 -27 63 -27q21 0 29.5 18t8.5 40h65z" />
    <glyph glyph-name="ograve" unicode="&#xf2;" 
d="M483 220q0 -97 -66.5 -164t-160.5 -67q-92 0 -159 66.5t-67 164.5q0 100 66.5 170.5t159.5 70.5q95 0 161 -71t66 -170zM400 230q0 81 -42.5 123.5t-101.5 42.5q-57 0 -100 -42t-43 -124q0 -81 41.5 -127t102.5 -46q59 0 101 45.5t42 127.5zM329 527h-65l-152 167h83z
" />
    <glyph glyph-name="oacute" unicode="&#xf3;" 
d="M483 220q0 -97 -66.5 -164t-160.5 -67q-92 0 -159 66.5t-67 164.5q0 100 66.5 170.5t159.5 70.5q95 0 161 -71t66 -170zM400 230q0 81 -42.5 123.5t-101.5 42.5q-57 0 -100 -42t-43 -124q0 -81 41.5 -127t102.5 -46q59 0 101 45.5t42 127.5zM402 694l-152 -167h-65
l134 167h83z" />
    <glyph glyph-name="ocircumflex" unicode="&#xf4;" 
d="M483 220q0 -97 -66.5 -164t-160.5 -67q-92 0 -159 66.5t-67 164.5q0 100 66.5 170.5t159.5 70.5q95 0 161 -71t66 -170zM400 230q0 81 -42.5 123.5t-101.5 42.5q-57 0 -100 -42t-43 -124q0 -81 41.5 -127t102.5 -46q59 0 101 45.5t42 127.5zM412 525h-59l-96 123
l-96 -123h-59l125 172h60z" />
    <glyph glyph-name="otilde" unicode="&#xf5;" 
d="M483 220q0 -97 -66.5 -164t-160.5 -67q-92 0 -159 66.5t-67 164.5q0 100 66.5 170.5t159.5 70.5q95 0 161 -71t66 -170zM400 230q0 81 -42.5 123.5t-101.5 42.5q-57 0 -100 -42t-43 -124q0 -81 41.5 -127t102.5 -46q59 0 101 45.5t42 127.5zM427 672q-1 -55 -31 -89
t-70 -34q-26 0 -74 31q-38 27 -63 27q-21 0 -29.5 -18t-8.5 -40h-65q1 55 31 89t70 34q26 0 74 -31q38 -27 63 -27q21 0 29.5 18t8.5 40h65z" />
    <glyph glyph-name="odieresis" unicode="&#xf6;" 
d="M483 220q0 -97 -66.5 -164t-160.5 -67q-92 0 -159 66.5t-67 164.5q0 100 66.5 170.5t159.5 70.5q95 0 161 -71t66 -170zM400 230q0 81 -42.5 123.5t-101.5 42.5q-57 0 -100 -42t-43 -124q0 -81 41.5 -127t102.5 -46q59 0 101 45.5t42 127.5zM221 568h-87v86h87v-86z
M381 568h-87v86h87v-86z" />
    <glyph glyph-name="divide" unicode="&#xf7;" horiz-adv-x="799" 
d="M741 250q0 -21 -33 -21h-618q-33 0 -33 21q0 22 37 22h610q37 0 37 -22zM442 336h-86v86h86v-86zM442 80h-86v86h86v-86z" />
    <glyph glyph-name="oslash" unicode="&#xf8;" 
d="M481 220q0 -97 -66.5 -164t-158.5 -67q-48 0 -87 18l-69 -120l-57 32l71 123q-82 75 -82 178q0 99 65.5 170t159.5 71q49 0 89 -20l67 117l57 -32l-70 -121q81 -72 81 -185zM312 385q-27 11 -55 11q-62 0 -104 -47t-42 -129q0 -72 38 -117zM402 220q0 78 -38 124
l-161 -280q24 -10 54 -10q59 0 102 42.5t43 123.5z" />
    <glyph glyph-name="ugrave" unicode="&#xf9;" horiz-adv-x="531" 
d="M449 0h-80v48q-33 -29 -84 -44t-99 -15q-54 0 -79.5 28.5t-25.5 91.5v335h83v-330q0 -36 14.5 -51t64.5 -15q51 0 87 26t36 81v289h83v-444zM337 527h-65l-152 167h83z" />
    <glyph glyph-name="uacute" unicode="&#xfa;" horiz-adv-x="531" 
d="M449 0h-80v48q-33 -29 -84 -44t-99 -15q-54 0 -79.5 28.5t-25.5 91.5v335h83v-330q0 -36 14.5 -51t64.5 -15q51 0 87 26t36 81v289h83v-444zM410 694l-152 -167h-65l134 167h83z" />
    <glyph glyph-name="ucircumflex" unicode="&#xfb;" horiz-adv-x="531" 
d="M449 0h-80v48q-33 -29 -84 -44t-99 -15q-54 0 -79.5 28.5t-25.5 91.5v335h83v-330q0 -36 14.5 -51t64.5 -15q51 0 87 26t36 81v289h83v-444zM420 525h-59l-96 123l-96 -123h-59l125 172h60z" />
    <glyph glyph-name="udieresis" unicode="&#xfc;" horiz-adv-x="531" 
d="M449 0h-80v48q-33 -29 -84 -44t-99 -15q-54 0 -79.5 28.5t-25.5 91.5v335h83v-330q0 -36 14.5 -51t64.5 -15q51 0 87 26t36 81v289h83v-444zM229 568h-87v86h87v-86zM389 568h-87v86h87v-86z" />
    <glyph glyph-name="yacute" unicode="&#xfd;" horiz-adv-x="474" 
d="M459 444l-222 -530q-18 -42 -35.5 -68.5t-34 -36t-26 -12t-24.5 -2.5q-50 0 -74 8l-6 69q39 -17 81 -17q10 0 16.5 2t18.5 15t24 39l37 89l-200 444h84q73 -167 89 -207q54 -130 57 -178q3 47 34.5 132.5t101.5 252.5h79zM382 694l-152 -167h-65l134 167h83z" />
    <glyph glyph-name="thorn" unicode="&#xfe;" horiz-adv-x="531" 
d="M494 223q0 -100 -56 -167t-133 -67q-79 0 -139 57v-240h-83v888h80v-298q75 59 171 59q70 0 115 -69t45 -163zM411 222q0 70 -40.5 117.5t-97.5 47.5q-67 0 -107 -55v-216q37 -62 97 -62t104 48.5t44 119.5z" />
    <glyph glyph-name="ydieresis" unicode="&#xff;" horiz-adv-x="474" 
d="M459 444l-222 -530q-18 -42 -35.5 -68.5t-34 -36t-26 -12t-24.5 -2.5q-50 0 -74 8l-6 69q39 -17 81 -17q10 0 16.5 2t18.5 15t24 39l37 89l-200 444h84q73 -167 89 -207q54 -130 57 -178q3 47 34.5 132.5t101.5 252.5h79zM201 568h-87v86h87v-86zM361 568h-87v86h87v-86z
" />
    <glyph glyph-name="Amacron" unicode="&#x100;" horiz-adv-x="687" 
d="M657 0h-99l-77 199h-297l-76 -199h-79l268 694h92zM457 258l-125 362l-124 -362h249zM528 756h-371v69h371v-69z" />
    <glyph glyph-name="amacron" unicode="&#x101;" horiz-adv-x="494" 
d="M422 0h-80v38q-66 -49 -170 -49q-59 0 -88.5 41.5t-29.5 85.5q0 60 76.5 93.5t208.5 36.5v42q0 49 -24.5 79.5t-65.5 30.5q-84 0 -154 -52l-6 71q78 44 161 44q74 0 123 -49t49 -123v-289zM339 140v52q-15 0 -39.5 -2t-67.5 -8t-72 -23t-29 -41q0 -29 27 -46.5t67 -17.5
q46 0 78 19q17 10 25.5 23t9.5 21.5t1 22.5zM432 576h-371v69h371v-69z" />
    <glyph glyph-name="Abreve" unicode="&#x102;" horiz-adv-x="687" 
d="M657 0h-99l-77 199h-297l-76 -199h-79l268 694h92zM457 258l-125 362l-124 -362h249zM517 926q-1 -79 -53 -129.5t-122 -50.5q-68 0 -120.5 50t-53.5 130h65q2 -52 35.5 -80.5t74.5 -28.5q40 0 73.5 28.5t35.5 80.5h65z" />
    <glyph glyph-name="abreve" unicode="&#x103;" horiz-adv-x="494" 
d="M422 0h-80v38q-66 -49 -170 -49q-59 0 -88.5 41.5t-29.5 85.5q0 60 76.5 93.5t208.5 36.5v42q0 49 -24.5 79.5t-65.5 30.5q-84 0 -154 -52l-6 71q78 44 161 44q74 0 123 -49t49 -123v-289zM339 140v52q-15 0 -39.5 -2t-67.5 -8t-72 -23t-29 -41q0 -29 27 -46.5t67 -17.5
q46 0 78 19q17 10 25.5 23t9.5 21.5t1 22.5zM421 701q-1 -79 -53 -129.5t-122 -50.5q-68 0 -120.5 50t-53.5 130h65q2 -52 35.5 -80.5t74.5 -28.5q40 0 73.5 28.5t35.5 80.5h65z" />
    <glyph glyph-name="Aogonek" unicode="&#x104;" horiz-adv-x="687" 
d="M668 -187q-53 -25 -98 -25q-47 0 -72.5 25t-26.5 60q-2 37 22.5 71t64.5 56l-77 199h-297l-76 -199h-79l268 694h92l268 -694h-33q-91 -52 -90 -104q1 -34 53 -38q29 -1 67 14zM457 258l-125 362l-124 -362h249z" />
    <glyph glyph-name="aogonek" unicode="&#x105;" horiz-adv-x="494" 
d="M452 -187q-53 -25 -98 -25q-47 0 -72.5 25t-26.5 60q-2 37 22.5 71t64.5 56v38q-66 -49 -170 -49q-59 0 -88.5 41.5t-29.5 85.5q0 60 76.5 93.5t208.5 36.5v42q0 49 -24.5 79.5t-65.5 30.5q-84 0 -154 -52l-6 71q78 44 161 44q74 0 123 -49t49 -123v-289h-15
q-90 -51 -89 -104q1 -34 53 -38q29 -1 67 14zM339 140v52q-15 0 -39.5 -2t-67.5 -8t-72 -23t-29 -41q0 -29 27 -46.5t67 -17.5q46 0 78 19q17 10 25.5 23t9.5 21.5t1 22.5z" />
    <glyph glyph-name="Cacute" unicode="&#x106;" horiz-adv-x="657" 
d="M603 45q-61 -36 -98 -45q-43 -11 -107 -11q-138 0 -235 105q-97 106 -97 253q0 148 97 253t235 105q55 0 98 -8q43 -7 96 -27l-16 -88q-46 32 -85 43q-40 12 -93 12q-97 0 -167 -85q-69 -84 -69 -205q0 -120 69 -205q70 -85 167 -85q64 0 105 12q37 12 94 50zM552 868
l-197 -122h-89l175 122h111z" />
    <glyph glyph-name="cacute" unicode="&#x107;" horiz-adv-x="457" 
d="M427 37q-80 -48 -168 -48q-96 0 -159.5 69t-63.5 164t62.5 167t164.5 72q52 0 83 -9.5t76 -34.5l-13 -70q-39 26 -69 36t-76 10q-74 0 -109.5 -51.5t-35.5 -118.5q0 -72 39 -119t102 -47q87 0 161 51zM396 694l-152 -167h-65l134 167h83z" />
    <glyph glyph-name="Ccircumflex" unicode="&#x108;" horiz-adv-x="657" 
d="M603 45q-61 -36 -98 -45q-43 -11 -107 -11q-138 0 -235 105q-97 106 -97 253q0 148 97 253t235 105q55 0 98 -8q43 -7 96 -27l-16 -88q-46 32 -85 43q-40 12 -93 12q-97 0 -167 -85q-69 -84 -69 -205q0 -120 69 -205q70 -85 167 -85q64 0 105 12q37 12 94 50zM517 736
h-59l-97 97l-97 -97h-59l126 134h60z" />
    <glyph glyph-name="ccircumflex" unicode="&#x109;" horiz-adv-x="457" 
d="M427 37q-80 -48 -168 -48q-96 0 -159.5 69t-63.5 164t62.5 167t164.5 72q52 0 83 -9.5t76 -34.5l-13 -70q-39 26 -69 36t-76 10q-74 0 -109.5 -51.5t-35.5 -118.5q0 -72 39 -119t102 -47q87 0 161 51zM406 525h-59l-96 123l-96 -123h-59l125 172h60z" />
    <glyph glyph-name="Cdotaccent" unicode="&#x10a;" horiz-adv-x="657" 
d="M603 45q-61 -36 -98 -45q-43 -11 -107 -11q-138 0 -235 105q-97 106 -97 253q0 148 97 253t235 105q55 0 98 -8q43 -7 96 -27l-16 -88q-46 32 -85 43q-40 12 -93 12q-97 0 -167 -85q-69 -84 -69 -205q0 -120 69 -205q70 -85 167 -85q64 0 105 12q37 12 94 50zM409 736
h-96v96h96v-96z" />
    <glyph glyph-name="cdotaccent" unicode="&#x10b;" horiz-adv-x="457" 
d="M427 37q-80 -48 -168 -48q-96 0 -159.5 69t-63.5 164t62.5 167t164.5 72q52 0 83 -9.5t76 -34.5l-13 -70q-39 26 -69 36t-76 10q-74 0 -109.5 -51.5t-35.5 -118.5q0 -72 39 -119t102 -47q87 0 161 51zM299 563h-96v96h96v-96z" />
    <glyph glyph-name="Ccaron" unicode="&#x10c;" horiz-adv-x="657" 
d="M603 45q-61 -36 -98 -45q-43 -11 -107 -11q-138 0 -235 105q-97 106 -97 253q0 148 97 253t235 105q55 0 98 -8q43 -7 96 -27l-16 -88q-46 32 -85 43q-40 12 -93 12q-97 0 -167 -85q-69 -84 -69 -205q0 -120 69 -205q70 -85 167 -85q64 0 105 12q37 12 94 50zM517 870
l-126 -134h-60l-126 134h59l97 -97l97 97h59z" />
    <glyph glyph-name="ccaron" unicode="&#x10d;" horiz-adv-x="457" 
d="M427 37q-80 -48 -168 -48q-96 0 -159.5 69t-63.5 164t62.5 167t164.5 72q52 0 83 -9.5t76 -34.5l-13 -70q-39 26 -69 36t-76 10q-74 0 -109.5 -51.5t-35.5 -118.5q0 -72 39 -119t102 -47q87 0 161 51zM406 697l-125 -172h-60l-125 172h59l96 -123l96 123h59z" />
    <glyph glyph-name="Dcaron" unicode="&#x10e;" horiz-adv-x="743" 
d="M685 341q0 -142 -92 -241.5t-223 -99.5h-273v694h273q131 0 223 -103t92 -250zM592 341q0 133 -71 213.5t-177 80.5h-154v-576h155q105 0 176 77t71 205zM423 870l-126 -134h-60l-126 134h59l97 -97l97 97h59z" />
    <glyph glyph-name="dcaron" unicode="&#x10f;" horiz-adv-x="531" 
d="M447 0h-83v52q-68 -63 -153 -63q-73 0 -124 68t-51 165t52 165t127 68q86 0 152 -55v294h80v-694zM364 141v197q-38 52 -97 52q-57 0 -102.5 -41t-45.5 -128q0 -83 41 -125t96 -42q58 0 97 52q11 14 11 35zM563 617l-40 -115h-38l24 114h-23v78h77v-77z" />
    <glyph glyph-name="Dcroat" unicode="&#x110;" horiz-adv-x="743" 
d="M685 341q0 -142 -92 -241.5t-223 -99.5h-273v313h-84v68h84v313h273q131 0 223 -103t92 -250zM592 341q0 133 -71 213.5t-177 80.5h-154v-254h98v-68h-98v-254h155q105 0 176 77t71 205z" />
    <glyph glyph-name="dcroat" unicode="&#x111;" horiz-adv-x="531" 
d="M531 535h-84v-535h-83v52q-68 -63 -153 -63q-73 0 -124 68t-51 165t52 165t127 68q86 0 152 -55v135h-155v68h155v91h80v-91h84v-68zM364 141v197q-38 52 -97 52q-57 0 -102.5 -41t-45.5 -128q0 -83 41 -125t96 -42q58 0 97 52q11 14 11 35z" />
    <glyph glyph-name="Emacron" unicode="&#x112;" horiz-adv-x="617" 
d="M573 0h-478v691h464v-70h-86l-244 2h-38v-231h339v-65h-339v-253l282 2h100v-76zM494 756h-371v69h371v-69z" />
    <glyph glyph-name="emacron" unicode="&#x113;" horiz-adv-x="457" 
d="M427 219h-318q2 -69 45 -117t105 -48q83 0 157 53l6 -69q-77 -49 -164 -49q-94 0 -158.5 69t-64.5 168q0 97 60.5 166t147.5 69q94 0 144 -75q40 -62 40 -167zM367 278q-13 67 -49 92.5t-75 25.5q-46 0 -80.5 -34t-47.5 -84h252zM413 576h-371v69h371v-69z" />
    <glyph glyph-name="Ebreve" unicode="&#x114;" horiz-adv-x="617" 
d="M573 0h-478v691h464v-70h-86l-244 2h-38v-231h339v-65h-339v-253l282 2h100v-76zM483 926q-1 -79 -53 -129.5t-122 -50.5q-68 0 -120.5 50t-53.5 130h65q2 -52 35.5 -80.5t74.5 -28.5q40 0 73.5 28.5t35.5 80.5h65z" />
    <glyph glyph-name="ebreve" unicode="&#x115;" horiz-adv-x="457" 
d="M427 219h-318q2 -69 45 -117t105 -48q83 0 157 53l6 -69q-77 -49 -164 -49q-94 0 -158.5 69t-64.5 168q0 97 60.5 166t147.5 69q94 0 144 -75q40 -62 40 -167zM367 278q-13 67 -49 92.5t-75 25.5q-46 0 -80.5 -34t-47.5 -84h252zM402 701q-1 -79 -53 -129.5t-122 -50.5
q-68 0 -120.5 50t-53.5 130h65q2 -52 35.5 -80.5t74.5 -28.5q40 0 73.5 28.5t35.5 80.5h65z" />
    <glyph glyph-name="Edotaccent" unicode="&#x116;" horiz-adv-x="617" 
d="M573 0h-478v691h464v-70h-86l-244 2h-38v-231h339v-65h-339v-253l282 2h100v-76zM357 736h-96v96h96v-96z" />
    <glyph glyph-name="edotaccent" unicode="&#x117;" horiz-adv-x="457" 
d="M427 219h-318q2 -69 45 -117t105 -48q83 0 157 53l6 -69q-77 -49 -164 -49q-94 0 -158.5 69t-64.5 168q0 97 60.5 166t147.5 69q94 0 144 -75q40 -62 40 -167zM367 278q-13 67 -49 92.5t-75 25.5q-46 0 -80.5 -34t-47.5 -84h252zM277 563h-96v96h96v-96z" />
    <glyph glyph-name="Eogonek" unicode="&#x118;" horiz-adv-x="617" 
d="M586 -187q-53 -25 -98 -25q-47 0 -72.5 25t-26.5 60q-2 37 22.5 71t64.5 56h-381v691h464v-70h-86l-244 2h-38v-231h339v-65h-339v-253l282 2h100v-76h-34q-88 -50 -87 -104q1 -34 53 -38q29 -1 67 14z" />
    <glyph glyph-name="eogonek" unicode="&#x119;" horiz-adv-x="457" 
d="M427 219h-318q2 -69 45 -117t105 -48q83 0 157 53l6 -69q-35 -22 -80 -36q-91 -52 -90 -106q1 -34 53 -38q29 -1 67 14l14 -59q-53 -25 -98 -25q-47 0 -72.5 25t-26.5 60q-4 67 69 116q-94 0 -158.5 69t-64.5 168q0 97 60.5 166t147.5 69q94 0 144 -75q40 -62 40 -167z
M367 278q-13 67 -49 92.5t-75 25.5q-46 0 -80.5 -34t-47.5 -84h252z" />
    <glyph glyph-name="Ecaron" unicode="&#x11a;" horiz-adv-x="617" 
d="M573 0h-478v691h464v-70h-86l-244 2h-38v-231h339v-65h-339v-253l282 2h100v-76zM465 870l-126 -134h-60l-126 134h59l97 -97l97 97h59z" />
    <glyph glyph-name="ecaron" unicode="&#x11b;" horiz-adv-x="457" 
d="M427 219h-318q2 -69 45 -117t105 -48q83 0 157 53l6 -69q-77 -49 -164 -49q-94 0 -158.5 69t-64.5 168q0 97 60.5 166t147.5 69q94 0 144 -75q40 -62 40 -167zM367 278q-13 67 -49 92.5t-75 25.5q-46 0 -80.5 -34t-47.5 -84h252zM383 697l-125 -172h-60l-125 172h59
l96 -123l96 123h59z" />
    <glyph glyph-name="Gcircumflex" unicode="&#x11c;" horiz-adv-x="685" 
d="M615 38q-104 -49 -217 -49q-138 0 -235 105q-97 106 -97 253q0 148 97 253t235 105q59 0 107 -11q46 -11 101 -38l-15 -88q-47 38 -91 54q-44 15 -102 15q-97 0 -167 -85q-69 -84 -69 -205q0 -120 69 -205q70 -85 167 -85q67 0 133 20v158h-133v65h217v-262zM499 736h-59
l-97 97l-97 -97h-59l126 134h60z" />
    <glyph glyph-name="gcircumflex" unicode="&#x11d;" 
d="M499 388q-29 4 -74 4q-62 0 -62 -5q0 -2 4 -7q26 -44 26 -89q0 -67 -48.5 -115t-116.5 -48q-52 0 -95 29q-9 -14 -9 -34q0 -52 58 -52h92q17 0 31.5 -1t42 -4.5t48.5 -13t42.5 -24t33.5 -40t12 -58.5q0 -57 -66 -96.5t-162 -39.5t-161.5 40t-65.5 95q0 63 64 104
q-25 32 -25 75q0 45 29 83q-34 47 -34 101q0 66 48.5 114.5t116.5 48.5q55 0 99 -32q74 32 160 32zM319 292q0 52 -26.5 77.5t-64.5 25.5q-36 0 -63.5 -24.5t-27.5 -79.5q0 -52 26.5 -77.5t64.5 -25.5q36 0 63.5 24.5t27.5 79.5zM410 -71q0 66 -136 66h-94
q-34 0 -53.5 -16.5t-21.5 -32.5l-2 -16q0 -34 46 -55t108 -21t107.5 21.5t45.5 53.5zM376 525h-59l-96 123l-96 -123h-59l125 172h60z" />
    <glyph glyph-name="Gbreve" unicode="&#x11e;" horiz-adv-x="685" 
d="M615 38q-104 -49 -217 -49q-138 0 -235 105q-97 106 -97 253q0 148 97 253t235 105q59 0 107 -11q46 -11 101 -38l-15 -88q-47 38 -91 54q-44 15 -102 15q-97 0 -167 -85q-69 -84 -69 -205q0 -120 69 -205q70 -85 167 -85q67 0 133 20v158h-133v65h217v-262zM517 926
q-1 -79 -53 -129.5t-122 -50.5q-68 0 -120.5 50t-53.5 130h65q2 -52 35.5 -80.5t74.5 -28.5q40 0 73.5 28.5t35.5 80.5h65z" />
    <glyph glyph-name="gbreve" unicode="&#x11f;" 
d="M499 388q-29 4 -74 4q-62 0 -62 -5q0 -2 4 -7q26 -44 26 -89q0 -67 -48.5 -115t-116.5 -48q-52 0 -95 29q-9 -14 -9 -34q0 -52 58 -52h92q17 0 31.5 -1t42 -4.5t48.5 -13t42.5 -24t33.5 -40t12 -58.5q0 -57 -66 -96.5t-162 -39.5t-161.5 40t-65.5 95q0 63 64 104
q-25 32 -25 75q0 45 29 83q-34 47 -34 101q0 66 48.5 114.5t116.5 48.5q55 0 99 -32q74 32 160 32zM319 292q0 52 -26.5 77.5t-64.5 25.5q-36 0 -63.5 -24.5t-27.5 -79.5q0 -52 26.5 -77.5t64.5 -25.5q36 0 63.5 24.5t27.5 79.5zM410 -71q0 66 -136 66h-94
q-34 0 -53.5 -16.5t-21.5 -32.5l-2 -16q0 -34 46 -55t108 -21t107.5 21.5t45.5 53.5zM395 701q-1 -79 -53 -129.5t-122 -50.5q-68 0 -120.5 50t-53.5 130h65q2 -52 35.5 -80.5t74.5 -28.5q40 0 73.5 28.5t35.5 80.5h65z" />
    <glyph glyph-name="Gdotaccent" unicode="&#x120;" horiz-adv-x="685" 
d="M615 38q-104 -49 -217 -49q-138 0 -235 105q-97 106 -97 253q0 148 97 253t235 105q59 0 107 -11q46 -11 101 -38l-15 -88q-47 38 -91 54q-44 15 -102 15q-97 0 -167 -85q-69 -84 -69 -205q0 -120 69 -205q70 -85 167 -85q67 0 133 20v158h-133v65h217v-262zM391 736h-96
v96h96v-96z" />
    <glyph glyph-name="gdotaccent" unicode="&#x121;" 
d="M499 388q-29 4 -74 4q-62 0 -62 -5q0 -2 4 -7q26 -44 26 -89q0 -67 -48.5 -115t-116.5 -48q-52 0 -95 29q-9 -14 -9 -34q0 -52 58 -52h92q17 0 31.5 -1t42 -4.5t48.5 -13t42.5 -24t33.5 -40t12 -58.5q0 -57 -66 -96.5t-162 -39.5t-161.5 40t-65.5 95q0 63 64 104
q-25 32 -25 75q0 45 29 83q-34 47 -34 101q0 66 48.5 114.5t116.5 48.5q55 0 99 -32q74 32 160 32zM319 292q0 52 -26.5 77.5t-64.5 25.5q-36 0 -63.5 -24.5t-27.5 -79.5q0 -52 26.5 -77.5t64.5 -25.5q36 0 63.5 24.5t27.5 79.5zM410 -71q0 66 -136 66h-94
q-34 0 -53.5 -16.5t-21.5 -32.5l-2 -16q0 -34 46 -55t108 -21t107.5 21.5t45.5 53.5zM269 563h-96v96h96v-96z" />
    <glyph glyph-name="Gcommaaccent" unicode="&#x122;" horiz-adv-x="685" 
d="M615 38q-104 -49 -217 -49q-138 0 -235 105q-97 106 -97 253q0 148 97 253t235 105q59 0 107 -11q46 -11 101 -38l-15 -88q-47 38 -91 54q-44 15 -102 15q-97 0 -167 -85q-69 -84 -69 -205q0 -120 69 -205q70 -85 167 -85q67 0 133 20v158h-133v65h217v-262zM382 -156
l-40 -115h-38l24 114h-23v78h77v-77z" />
    <glyph glyph-name="gcommaaccent" unicode="&#x123;" 
d="M260 729l-24 -114h23v-78h-77v77l40 115h38zM499 388q-29 4 -74 4q-62 0 -62 -5q0 -2 4 -7q26 -44 26 -89q0 -67 -48.5 -115t-116.5 -48q-52 0 -95 29q-9 -14 -9 -34q0 -52 58 -52h92q17 0 31.5 -1t42 -4.5t48.5 -13t42.5 -24t33.5 -40t12 -58.5q0 -57 -66 -96.5
t-162 -39.5t-161.5 40t-65.5 95q0 63 64 104q-25 32 -25 75q0 45 29 83q-34 47 -34 101q0 66 48.5 114.5t116.5 48.5q55 0 99 -32q74 32 160 32zM319 292q0 52 -26.5 77.5t-64.5 25.5q-36 0 -63.5 -24.5t-27.5 -79.5q0 -52 26.5 -77.5t64.5 -25.5q36 0 63.5 24.5t27.5 79.5z
M410 -71q0 66 -136 66h-94q-34 0 -53.5 -16.5t-21.5 -32.5l-2 -16q0 -34 46 -55t108 -21t107.5 21.5t45.5 53.5z" />
    <glyph glyph-name="Hcircumflex" unicode="&#x124;" horiz-adv-x="727" 
d="M631 0h-96v328h-344v-328h-96v694h96v-301h344v301h96v-694zM519 736h-59l-97 97l-97 -97h-59l126 134h60z" />
    <glyph glyph-name="hcircumflex" unicode="&#x125;" horiz-adv-x="531" 
d="M449 0h-83v290q0 13 -0.5 22t-6 25.5t-15 26.5t-30 18t-48.5 8q-52 0 -77 -44t-25 -102v-244h-83v694h80v-311q58 72 147 72q141 0 141 -158v-297zM421 736h-59l-97 97l-97 -97h-59l126 134h60z" />
    <glyph glyph-name="Hbar" unicode="&#x126;" horiz-adv-x="727" 
d="M687 487h-56v-487h-96v328h-344v-328h-96v487h-56v68h56v139h96v-139h344v139h96v-139h56v-68zM535 393v94h-344v-94h344z" />
    <glyph glyph-name="hbar" unicode="&#x127;" horiz-adv-x="531" 
d="M449 0h-83v290q0 13 -0.5 22t-6 25.5t-15 26.5t-30 18t-48.5 8q-52 0 -77 -44t-25 -102v-244h-83v535h-84v68h84v91h80v-91h104v-68h-104v-152q58 72 147 72q141 0 141 -158v-297z" />
    <glyph glyph-name="Itilde" unicode="&#x128;" horiz-adv-x="287" 
d="M191 0h-96v694h96v-694zM314 859q-1 -55 -31 -89t-70 -34q-26 0 -74 31q-38 27 -63 27q-21 0 -29.5 -18t-8.5 -40h-65q1 55 31 89t70 34q26 0 74 -31q38 -27 63 -27q21 0 29.5 18t8.5 40h65z" />
    <glyph glyph-name="itilde" unicode="&#x129;" horiz-adv-x="245" 
d="M162 0h-80v444h80v-444zM293 672q-1 -55 -31 -89t-70 -34q-26 0 -74 31q-38 27 -63 27q-21 0 -29.5 -18t-8.5 -40h-65q1 55 31 89t70 34q26 0 74 -31q38 -27 63 -27q21 0 29.5 18t8.5 40h65z" />
    <glyph glyph-name="Imacron" unicode="&#x12a;" horiz-adv-x="287" 
d="M191 0h-96v694h96v-694zM329 756h-371v69h371v-69z" />
    <glyph glyph-name="imacron" unicode="&#x12b;" horiz-adv-x="245" 
d="M162 0h-80v444h80v-444zM308 576h-371v69h371v-69z" />
    <glyph glyph-name="Ibreve" unicode="&#x12c;" horiz-adv-x="287" 
d="M191 0h-96v694h96v-694zM318 926q-1 -79 -53 -129.5t-122 -50.5q-68 0 -120.5 50t-53.5 130h65q2 -52 35.5 -80.5t74.5 -28.5q40 0 73.5 28.5t35.5 80.5h65z" />
    <glyph glyph-name="ibreve" unicode="&#x12d;" horiz-adv-x="245" 
d="M162 0h-80v444h80v-444zM297 701q-1 -79 -53 -129.5t-122 -50.5q-68 0 -120.5 50t-53.5 130h65q2 -52 35.5 -80.5t74.5 -28.5q40 0 73.5 28.5t35.5 80.5h65z" />
    <glyph glyph-name="Iogonek" unicode="&#x12e;" horiz-adv-x="287" 
d="M236 -187q-53 -25 -98 -25q-47 0 -72.5 25t-26.5 60q-2 37 22.5 71t64.5 56h-31v694h96v-694q-90 -51 -89 -104q1 -34 53 -38q29 -1 67 14z" />
    <glyph glyph-name="iogonek" unicode="&#x12f;" horiz-adv-x="245" 
d="M170 588h-96v96h96v-96zM207 -187q-53 -25 -98 -25q-47 0 -72.5 25t-26.5 60q-2 37 22.5 71t64.5 56h-15v444h80v-444q-90 -51 -89 -104q1 -34 53 -38q29 -1 67 14z" />
    <glyph glyph-name="Idotaccent" unicode="&#x130;" horiz-adv-x="287" 
d="M191 0h-96v694h96v-694zM192 736h-96v96h96v-96z" />
    <glyph glyph-name="dotlessi" unicode="&#x131;" horiz-adv-x="245" 
d="M162 0h-80v444h80v-444z" />
    <glyph glyph-name="Jcircumflex" unicode="&#x134;" horiz-adv-x="486" 
d="M399 149q0 -84 -49.5 -127.5t-130.5 -43.5q-92 0 -176 42l14 80q53 -57 130 -57q41 0 68 13.5t36.5 36t12 34.5t2.5 25v542h93v-545zM508 736h-59l-97 97l-97 -97h-59l126 134h60z" />
    <glyph glyph-name="jcircumflex" unicode="&#x135;" horiz-adv-x="274" 
d="M191 -59q0 -66 -38 -106t-92 -40q-63 0 -124 34l23 65q34 -31 75 -31q14 0 28 2.5t31 19.5t17 47v512h80v-503zM298 525h-59l-96 123l-96 -123h-59l125 172h60z" />
    <glyph glyph-name="Kcommaaccent" unicode="&#x136;" horiz-adv-x="715" 
d="M671 0h-99l-249 361l-134 -133v-228h-91v694h91v-368l369 368h98l-274 -274zM397 -156l-40 -115h-38l24 114h-23v78h77v-77z" />
    <glyph glyph-name="kcommaaccent" unicode="&#x137;" horiz-adv-x="502" 
d="M484 0h-86l-159 222l-81 -80v-142h-73v694h76v-456l205 206h95l-172 -172zM290 -156l-40 -115h-38l24 114h-23v78h77v-77z" />
    <glyph glyph-name="Lacute" unicode="&#x139;" horiz-adv-x="560" 
d="M516 0h-421v694h96v-626h38l243 2h44v-70zM381 868l-197 -122h-89l175 122h111z" />
    <glyph glyph-name="lacute" unicode="&#x13a;" horiz-adv-x="245" 
d="M162 0h-80v694h80v-694zM368 868l-197 -122h-89l175 122h111z" />
    <glyph glyph-name="Lcommaaccent" unicode="&#x13b;" horiz-adv-x="560" 
d="M516 0h-421v694h96v-626h38l243 2h44v-70zM319 -156l-40 -115h-38l24 114h-23v78h77v-77z" />
    <glyph glyph-name="lcommaaccent" unicode="&#x13c;" horiz-adv-x="245" 
d="M162 0h-80v694h80v-694zM162 -156l-40 -115h-38l24 114h-23v78h77v-77z" />
    <glyph glyph-name="Lcaron" unicode="&#x13d;" horiz-adv-x="560" 
d="M516 0h-421v694h96v-626h38l243 2h44v-70zM326 617l-40 -115h-38l24 114h-23v78h77v-77z" />
    <glyph glyph-name="lcaron" unicode="&#x13e;" horiz-adv-x="245" 
d="M162 0h-80v694h80v-694zM278 617l-40 -115h-38l24 114h-23v78h77v-77z" />
    <glyph glyph-name="Ldot" unicode="&#x13f;" horiz-adv-x="560" 
d="M516 0h-421v694h96v-626h38l243 2h44v-70zM471 321h-96v96h96v-96z" />
    <glyph glyph-name="ldot" unicode="&#x140;" horiz-adv-x="303" 
d="M162 0h-80v694h80v-694zM322 321h-96v96h96v-96z" />
    <glyph glyph-name="Lslash" unicode="&#x141;" horiz-adv-x="646" 
d="M592 0h-421v286l-60 -51l-37 43l97 82v334h96v-253l127 107l38 -45l-165 -137v-298h38l243 2h44v-70z" />
    <glyph glyph-name="lslash" unicode="&#x142;" horiz-adv-x="333" 
d="M316 448l-106 -91v-357h-80v287l-57 -50l-38 45l95 84v328h80v-260l66 58z" />
    <glyph glyph-name="Nacute" unicode="&#x143;" horiz-adv-x="727" 
d="M628 0h-132l-26 52q-5 7 -25 47l-264 517h-1v-616h-82v694h132l26 -52q5 -7 25 -47l264 -517h1v616h82v-694zM554 868l-197 -122h-89l175 122h111z" />
    <glyph glyph-name="nacute" unicode="&#x144;" horiz-adv-x="531" 
d="M449 0h-83v290q0 13 -0.5 22t-6 25.5t-15 26.5t-30 18t-48.5 8q-52 0 -77 -44t-25 -102v-244h-83v450h77v-71q58 76 150 76q141 0 141 -158v-297zM410 694l-152 -167h-65l134 167h83z" />
    <glyph glyph-name="Ncommaaccent" unicode="&#x145;" horiz-adv-x="727" 
d="M628 0h-132l-26 52q-5 7 -25 47l-264 517h-1v-616h-82v694h132l26 -52q5 -7 25 -47l264 -517h1v616h82v-694zM402 -156l-40 -115h-38l24 114h-23v78h77v-77z" />
    <glyph glyph-name="ncommaaccent" unicode="&#x146;" horiz-adv-x="531" 
d="M449 0h-83v290q0 13 -0.5 22t-6 25.5t-15 26.5t-30 18t-48.5 8q-52 0 -77 -44t-25 -102v-244h-83v450h77v-71q58 76 150 76q141 0 141 -158v-297zM304 -156l-40 -115h-38l24 114h-23v78h77v-77z" />
    <glyph glyph-name="Ncaron" unicode="&#x147;" horiz-adv-x="727" 
d="M628 0h-132l-26 52q-5 7 -25 47l-264 517h-1v-616h-82v694h132l26 -52q5 -7 25 -47l264 -517h1v616h82v-694zM519 870l-126 -134h-60l-126 134h59l97 -97l97 97h59z" />
    <glyph glyph-name="ncaron" unicode="&#x148;" horiz-adv-x="531" 
d="M449 0h-83v290q0 13 -0.5 22t-6 25.5t-15 26.5t-30 18t-48.5 8q-52 0 -77 -44t-25 -102v-244h-83v450h77v-71q58 76 150 76q141 0 141 -158v-297zM420 697l-125 -172h-60l-125 172h59l96 -123l96 123h59z" />
    <glyph glyph-name="Eng" unicode="&#x14a;" horiz-adv-x="727" 
d="M631 347q0 -71 -14 -135.5t-41 -117.5t-72.5 -84.5t-103.5 -31.5v84q135 0 135 285q0 58 -5 103t-18.5 89t-42 68.5t-69.5 24.5q-76 0 -134 -46.5t-75 -117.5v-468h-96v694h96v-63q87 85 209 85q58 0 103.5 -31.5t72.5 -84.5t41 -117.5t14 -135.5z" />
    <glyph glyph-name="eng" unicode="&#x14b;" horiz-adv-x="531" 
d="M449 0q0 -84 -43 -146t-114 -62v68q74 0 74 140v290q0 13 -0.5 22t-6 25.5t-15 26.5t-30 18t-48.5 8q-52 0 -77 -44t-25 -102v-244h-83v450h77v-71q58 76 150 76q141 0 141 -158v-297z" />
    <glyph glyph-name="Omacron" unicode="&#x14c;" horiz-adv-x="759" 
d="M701 344q0 -154 -95.5 -260t-226.5 -106t-226.5 106t-95.5 260q0 156 95.5 264t226.5 108t226.5 -108t95.5 -264zM605 359q0 130 -67.5 209.5t-158.5 79.5t-158.5 -79t-67.5 -210q0 -137 67 -224t159 -87t159 87t67 224zM565 756h-371v69h371v-69z" />
    <glyph glyph-name="omacron" unicode="&#x14d;" 
d="M483 220q0 -97 -66.5 -164t-160.5 -67q-92 0 -159 66.5t-67 164.5q0 100 66.5 170.5t159.5 70.5q95 0 161 -71t66 -170zM400 230q0 81 -42.5 123.5t-101.5 42.5q-57 0 -100 -42t-43 -124q0 -81 41.5 -127t102.5 -46q59 0 101 45.5t42 127.5zM442 576h-371v69h371v-69z
" />
    <glyph glyph-name="Obreve" unicode="&#x14e;" horiz-adv-x="759" 
d="M701 344q0 -154 -95.5 -260t-226.5 -106t-226.5 106t-95.5 260q0 156 95.5 264t226.5 108t226.5 -108t95.5 -264zM605 359q0 130 -67.5 209.5t-158.5 79.5t-158.5 -79t-67.5 -210q0 -137 67 -224t159 -87t159 87t67 224zM554 926q-1 -79 -53 -129.5t-122 -50.5
q-68 0 -120.5 50t-53.5 130h65q2 -52 35.5 -80.5t74.5 -28.5q40 0 73.5 28.5t35.5 80.5h65z" />
    <glyph glyph-name="obreve" unicode="&#x14f;" 
d="M483 220q0 -97 -66.5 -164t-160.5 -67q-92 0 -159 66.5t-67 164.5q0 100 66.5 170.5t159.5 70.5q95 0 161 -71t66 -170zM400 230q0 81 -42.5 123.5t-101.5 42.5q-57 0 -100 -42t-43 -124q0 -81 41.5 -127t102.5 -46q59 0 101 45.5t42 127.5zM431 701q-1 -79 -53 -129.5
t-122 -50.5q-68 0 -120.5 50t-53.5 130h65q2 -52 35.5 -80.5t74.5 -28.5q40 0 73.5 28.5t35.5 80.5h65z" />
    <glyph glyph-name="Ohungarumlaut" unicode="&#x150;" horiz-adv-x="759" 
d="M701 344q0 -154 -95.5 -260t-226.5 -106t-226.5 106t-95.5 260q0 156 95.5 264t226.5 108t226.5 -108t95.5 -264zM605 359q0 130 -67.5 209.5t-158.5 79.5t-158.5 -79t-67.5 -210q0 -137 67 -224t159 -87t159 87t67 224zM379 913l-81 -167h-65l63 167h83zM550 913
l-81 -167h-65l63 167h83z" />
    <glyph glyph-name="ohungarumlaut" unicode="&#x151;" 
d="M483 220q0 -97 -66.5 -164t-160.5 -67q-92 0 -159 66.5t-67 164.5q0 100 66.5 170.5t159.5 70.5q95 0 161 -71t66 -170zM400 230q0 81 -42.5 123.5t-101.5 42.5q-57 0 -100 -42t-43 -124q0 -81 41.5 -127t102.5 -46q59 0 101 45.5t42 127.5zM256 694l-81 -167h-65l63 167
h83zM427 694l-81 -167h-65l63 167h83z" />
    <glyph glyph-name="OE" unicode="&#x152;" horiz-adv-x="1000" 
d="M956 0h-420q-35 0 -87 -11q-46 -11 -80 -11q-136 0 -238 106t-102 260q0 157 101.5 264.5t239.5 107.5q31 0 79 -11q52 -11 87 -11h406v-70h-84l-241 2h-38v-233h334v-65h-334v-254l279 2h98v-76zM486 346q0 178 -4 210q-6 53 -27 74t-81 21q-106 0 -179 -84.5
t-73 -207.5q0 -129 72.5 -222.5t179.5 -93.5q39 0 61 8t33 33t14 54t3 89z" />
    <glyph glyph-name="oe" unicode="&#x153;" horiz-adv-x="799" 
d="M769 219h-300q4 -73 46 -119t101 -46q79 0 142 53l6 -69q-67 -49 -149 -49q-58 0 -107.5 27.5t-78.5 71.5q-71 -99 -181 -99q-89 0 -153.5 68.5t-64.5 167.5q0 98 64.5 167t153.5 69q59 0 105.5 -28.5t73.5 -68.5q28 44 74 70.5t98 26.5q90 0 134 -77q36 -61 36 -165z
M707 278q-10 64 -41 91t-67 27q-42 0 -76.5 -33t-47.5 -85h232zM386 230q0 82 -41 124t-97 42q-58 0 -99.5 -42.5t-41.5 -123.5q0 -83 41 -129.5t100 -46.5q57 0 97.5 45.5t40.5 130.5z" />
    <glyph glyph-name="Racute" unicode="&#x154;" horiz-adv-x="666" 
d="M636 0h-96l-190 315h-160v-315h-93v694h252q107 0 183 -55t76 -132q0 -61 -48.5 -111t-125.5 -71zM521 507q0 56 -49.5 92t-134.5 36h-147v-255h147q87 0 135.5 37.5t48.5 89.5zM524 868l-197 -122h-89l175 122h111z" />
    <glyph glyph-name="racute" unicode="&#x155;" horiz-adv-x="351" 
d="M336 383q-71 -1 -122 -47.5t-51 -122.5v-213h-80v450h74v-91q66 94 179 96v-72zM300 694l-152 -167h-65l134 167h83z" />
    <glyph glyph-name="Rcommaaccent" unicode="&#x156;" horiz-adv-x="666" 
d="M636 0h-96l-190 315h-160v-315h-93v694h252q107 0 183 -55t76 -132q0 -61 -48.5 -111t-125.5 -71zM521 507q0 56 -49.5 92t-134.5 36h-147v-255h147q87 0 135.5 37.5t48.5 89.5zM372 -156l-40 -115h-38l24 114h-23v78h77v-77z" />
    <glyph glyph-name="rcommaaccent" unicode="&#x157;" horiz-adv-x="351" 
d="M336 383q-71 -1 -122 -47.5t-51 -122.5v-213h-80v450h74v-91q66 94 179 96v-72zM162 -156l-40 -115h-38l24 114h-23v78h77v-77z" />
    <glyph glyph-name="Rcaron" unicode="&#x158;" horiz-adv-x="666" 
d="M636 0h-96l-190 315h-160v-315h-93v694h252q107 0 183 -55t76 -132q0 -61 -48.5 -111t-125.5 -71zM521 507q0 56 -49.5 92t-134.5 36h-147v-255h147q87 0 135.5 37.5t48.5 89.5zM489 870l-126 -134h-60l-126 134h59l97 -97l97 97h59z" />
    <glyph glyph-name="rcaron" unicode="&#x159;" horiz-adv-x="351" 
d="M336 383q-71 -1 -122 -47.5t-51 -122.5v-213h-80v450h74v-91q66 94 179 96v-72zM331 697l-125 -172h-60l-125 172h59l96 -123l96 123h59z" />
    <glyph glyph-name="Sacute" unicode="&#x15a;" horiz-adv-x="571" 
d="M513 191q0 -86 -65.5 -149.5t-165.5 -63.5q-125 0 -236 69l16 87q101 -82 220 -82q64 0 105 38t41 90q0 43 -29 75.5t-67 44.5l-84 21q-31 8 -49.5 13.5t-50 24.5t-52.5 47q-39 53 -39 111q0 79 65 139t167 60q43 0 80 -8t56.5 -16t52.5 -25l-16 -87q-77 65 -174 65
q-65 0 -105.5 -35t-40.5 -80q0 -41 30 -70.5t72 -39.5l101 -24q64 -15 116 -71t52 -134zM477 868l-197 -122h-89l175 122h111z" />
    <glyph glyph-name="sacute" unicode="&#x15b;" horiz-adv-x="394" 
d="M370 129q0 -42 -16.5 -71.5t-44 -43.5t-54 -19.5t-54.5 -5.5q-89 0 -172 44l13 73q72 -50 159 -50q11 0 21.5 1.5t29.5 6.5t31 19.5t12 37.5t-17.5 39t-32.5 20.5t-39 8.5q-57 11 -81.5 19.5t-50.5 31.5q-40 40 -40 89q0 37 16 64t36 39.5t49 19.5t42 8t27 1
q78 0 149 -32l-13 -70q-71 39 -145 39q-86 0 -86 -59q0 -22 16 -36t30 -18t40 -9q37 -7 54 -11.5t36.5 -13t35.5 -22.5q49 -42 49 -100zM342 694l-152 -167h-65l134 167h83z" />
    <glyph glyph-name="Scircumflex" unicode="&#x15c;" horiz-adv-x="571" 
d="M513 191q0 -86 -65.5 -149.5t-165.5 -63.5q-125 0 -236 69l16 87q101 -82 220 -82q64 0 105 38t41 90q0 43 -29 75.5t-67 44.5l-84 21q-31 8 -49.5 13.5t-50 24.5t-52.5 47q-39 53 -39 111q0 79 65 139t167 60q43 0 80 -8t56.5 -16t52.5 -25l-16 -87q-77 65 -174 65
q-65 0 -105.5 -35t-40.5 -80q0 -41 30 -70.5t72 -39.5l101 -24q64 -15 116 -71t52 -134zM442 736h-59l-97 97l-97 -97h-59l126 134h60z" />
    <glyph glyph-name="scircumflex" unicode="&#x15d;" horiz-adv-x="394" 
d="M370 129q0 -42 -16.5 -71.5t-44 -43.5t-54 -19.5t-54.5 -5.5q-89 0 -172 44l13 73q72 -50 159 -50q11 0 21.5 1.5t29.5 6.5t31 19.5t12 37.5t-17.5 39t-32.5 20.5t-39 8.5q-57 11 -81.5 19.5t-50.5 31.5q-40 40 -40 89q0 37 16 64t36 39.5t49 19.5t42 8t27 1
q78 0 149 -32l-13 -70q-71 39 -145 39q-86 0 -86 -59q0 -22 16 -36t30 -18t40 -9q37 -7 54 -11.5t36.5 -13t35.5 -22.5q49 -42 49 -100zM352 525h-59l-96 123l-96 -123h-59l125 172h60z" />
    <glyph glyph-name="Scedilla" unicode="&#x15e;" horiz-adv-x="571" 
d="M513 191q0 -86 -65.5 -149.5t-165.5 -63.5q-125 0 -236 69l16 87q101 -82 220 -82q64 0 105 38t41 90q0 43 -29 75.5t-67 44.5l-84 21q-31 8 -49.5 13.5t-50 24.5t-52.5 47q-39 53 -39 111q0 79 65 139t167 60q43 0 80 -8t56.5 -16t52.5 -25l-16 -87q-77 65 -174 65
q-65 0 -105.5 -35t-40.5 -80q0 -41 30 -70.5t72 -39.5l101 -24q64 -15 116 -71t52 -134zM335 -46l-67 -168h-74l76 168h65z" />
    <glyph glyph-name="scedilla" unicode="&#x15f;" horiz-adv-x="394" 
d="M370 129q0 -42 -16.5 -71.5t-44 -43.5t-54 -19.5t-54.5 -5.5q-89 0 -172 44l13 73q72 -50 159 -50q11 0 21.5 1.5t29.5 6.5t31 19.5t12 37.5t-17.5 39t-32.5 20.5t-39 8.5q-57 11 -81.5 19.5t-50.5 31.5q-40 40 -40 89q0 37 16 64t36 39.5t49 19.5t42 8t27 1
q78 0 149 -32l-13 -70q-71 39 -145 39q-86 0 -86 -59q0 -22 16 -36t30 -18t40 -9q37 -7 54 -11.5t36.5 -13t35.5 -22.5q49 -42 49 -100zM246 -46l-67 -168h-74l76 168h65z" />
    <glyph glyph-name="Scaron" unicode="&#x160;" horiz-adv-x="571" 
d="M513 191q0 -86 -65.5 -149.5t-165.5 -63.5q-125 0 -236 69l16 87q101 -82 220 -82q64 0 105 38t41 90q0 43 -29 75.5t-67 44.5l-84 21q-31 8 -49.5 13.5t-50 24.5t-52.5 47q-39 53 -39 111q0 79 65 139t167 60q43 0 80 -8t56.5 -16t52.5 -25l-16 -87q-77 65 -174 65
q-65 0 -105.5 -35t-40.5 -80q0 -41 30 -70.5t72 -39.5l101 -24q64 -15 116 -71t52 -134zM442 870l-126 -134h-60l-126 134h59l97 -97l97 97h59z" />
    <glyph glyph-name="scaron" unicode="&#x161;" horiz-adv-x="394" 
d="M370 129q0 -42 -16.5 -71.5t-44 -43.5t-54 -19.5t-54.5 -5.5q-89 0 -172 44l13 73q72 -50 159 -50q11 0 21.5 1.5t29.5 6.5t31 19.5t12 37.5t-17.5 39t-32.5 20.5t-39 8.5q-57 11 -81.5 19.5t-50.5 31.5q-40 40 -40 89q0 37 16 64t36 39.5t49 19.5t42 8t27 1
q78 0 149 -32l-13 -70q-71 39 -145 39q-86 0 -86 -59q0 -22 16 -36t30 -18t40 -9q37 -7 54 -11.5t36.5 -13t35.5 -22.5q49 -42 49 -100zM352 697l-125 -172h-60l-125 172h59l96 -123l96 123h59z" />
    <glyph glyph-name="Tcedilla" unicode="&#x162;" horiz-adv-x="702" 
d="M664 618h-60l-205 2v-620h-96v620l-205 -2h-61v70h627v-70zM384 -24l-67 -168h-74l76 168h65z" />
    <glyph glyph-name="tcedilla" unicode="&#x163;" horiz-adv-x="371" 
d="M342 26q-74 -37 -152 -37q-86 0 -86 137v256h-85v62h88v127h74v-127h144v-62h-144v-238q0 -87 52 -87q50 0 92 32zM251 -24l-67 -168h-74l76 168h65z" />
    <glyph glyph-name="Tcaron" unicode="&#x164;" horiz-adv-x="702" 
d="M664 618h-60l-205 2v-620h-96v620l-205 -2h-61v70h627v-70zM507 870l-126 -134h-60l-126 134h59l97 -97l97 97h59z" />
    <glyph glyph-name="tcaron" unicode="&#x165;" horiz-adv-x="371" 
d="M342 26q-74 -37 -152 -37q-86 0 -86 137v256h-85v62h88v127h74v-127h144v-62h-144v-238q0 -87 52 -87q50 0 92 32zM297 598l-40 -115h-38l24 114h-23v78h77v-77z" />
    <glyph glyph-name="Utilde" unicode="&#x168;" horiz-adv-x="707" 
d="M611 233q0 -108 -75 -181.5t-180 -73.5q-106 0 -183.5 73.5t-77.5 182.5v460h96v-462q0 -94 49 -144.5t117 -50.5q69 0 120 51t51 145v461h83v-461zM523 859q-1 -55 -31 -89t-70 -34q-26 0 -74 31q-38 27 -63 27q-21 0 -29.5 -18t-8.5 -40h-65q1 55 31 89t70 34
q26 0 74 -31q38 -27 63 -27q21 0 29.5 18t8.5 40h65z" />
    <glyph glyph-name="utilde" unicode="&#x169;" horiz-adv-x="531" 
d="M449 0h-80v48q-33 -29 -84 -44t-99 -15q-54 0 -79.5 28.5t-25.5 91.5v335h83v-330q0 -36 14.5 -51t64.5 -15q51 0 87 26t36 81v289h83v-444zM435 672q-1 -55 -31 -89t-70 -34q-26 0 -74 31q-38 27 -63 27q-21 0 -29.5 -18t-8.5 -40h-65q1 55 31 89t70 34q26 0 74 -31
q38 -27 63 -27q21 0 29.5 18t8.5 40h65z" />
    <glyph glyph-name="Umacron" unicode="&#x16a;" horiz-adv-x="707" 
d="M611 233q0 -108 -75 -181.5t-180 -73.5q-106 0 -183.5 73.5t-77.5 182.5v460h96v-462q0 -94 49 -144.5t117 -50.5q69 0 120 51t51 145v461h83v-461zM538 756h-371v69h371v-69z" />
    <glyph glyph-name="umacron" unicode="&#x16b;" horiz-adv-x="531" 
d="M449 0h-80v48q-33 -29 -84 -44t-99 -15q-54 0 -79.5 28.5t-25.5 91.5v335h83v-330q0 -36 14.5 -51t64.5 -15q51 0 87 26t36 81v289h83v-444zM450 576h-371v69h371v-69z" />
    <glyph glyph-name="Ubreve" unicode="&#x16c;" horiz-adv-x="707" 
d="M611 233q0 -108 -75 -181.5t-180 -73.5q-106 0 -183.5 73.5t-77.5 182.5v460h96v-462q0 -94 49 -144.5t117 -50.5q69 0 120 51t51 145v461h83v-461zM527 926q-1 -79 -53 -129.5t-122 -50.5q-68 0 -120.5 50t-53.5 130h65q2 -52 35.5 -80.5t74.5 -28.5q40 0 73.5 28.5
t35.5 80.5h65z" />
    <glyph glyph-name="ubreve" unicode="&#x16d;" horiz-adv-x="531" 
d="M449 0h-80v48q-33 -29 -84 -44t-99 -15q-54 0 -79.5 28.5t-25.5 91.5v335h83v-330q0 -36 14.5 -51t64.5 -15q51 0 87 26t36 81v289h83v-444zM439 701q-1 -79 -53 -129.5t-122 -50.5q-68 0 -120.5 50t-53.5 130h65q2 -52 35.5 -80.5t74.5 -28.5q40 0 73.5 28.5t35.5 80.5
h65z" />
    <glyph glyph-name="Uring" unicode="&#x16e;" horiz-adv-x="707" 
d="M611 233q0 -108 -75 -181.5t-180 -73.5q-106 0 -183.5 73.5t-77.5 182.5v460h96v-462q0 -94 49 -144.5t117 -50.5q69 0 120 51t51 145v461h83v-461zM404 778q0 37 -51 37t-51 -37t51 -37t51 37zM468 777q0 -33 -33 -58t-82 -25t-82 25t-33 60q0 33 33 58t82 25t82 -25
t33 -60z" />
    <glyph glyph-name="uring" unicode="&#x16f;" horiz-adv-x="531" 
d="M449 0h-80v48q-33 -29 -84 -44t-99 -15q-54 0 -79.5 28.5t-25.5 91.5v335h83v-330q0 -36 14.5 -51t64.5 -15q51 0 87 26t36 81v289h83v-444zM316 601q0 37 -51 37t-51 -37t51 -37t51 37zM380 600q0 -33 -33 -58t-82 -25t-82 25t-33 60q0 33 33 58t82 25t82 -25t33 -60z
" />
    <glyph glyph-name="Uhungarumlaut" unicode="&#x170;" horiz-adv-x="707" 
d="M611 233q0 -108 -75 -181.5t-180 -73.5q-106 0 -183.5 73.5t-77.5 182.5v460h96v-462q0 -94 49 -144.5t117 -50.5q69 0 120 51t51 145v461h83v-461zM352 913l-81 -167h-65l63 167h83zM523 913l-81 -167h-65l63 167h83z" />
    <glyph glyph-name="uhungarumlaut" unicode="&#x171;" horiz-adv-x="531" 
d="M449 0h-80v48q-33 -29 -84 -44t-99 -15q-54 0 -79.5 28.5t-25.5 91.5v335h83v-330q0 -36 14.5 -51t64.5 -15q51 0 87 26t36 81v289h83v-444zM264 694l-81 -167h-65l63 167h83zM435 694l-81 -167h-65l63 167h83z" />
    <glyph glyph-name="Uogonek" unicode="&#x172;" horiz-adv-x="707" 
d="M611 233q0 -96 -61.5 -167t-152.5 -85q-60 -41 -59 -85q1 -34 53 -38q29 -1 67 14l14 -59q-53 -25 -98 -25q-47 0 -72.5 25t-26.5 60q-3 58 56 106q-98 9 -167 81t-69 174v460h96v-462q0 -94 49 -144.5t117 -50.5q69 0 120 51t51 145v461h83v-461z" />
    <glyph glyph-name="uogonek" unicode="&#x173;" horiz-adv-x="531" 
d="M494 -187q-53 -25 -98 -25q-47 0 -72.5 25t-26.5 60q-2 37 22.5 71t64.5 56h-15v48q-33 -29 -84 -44t-99 -15q-54 0 -79.5 28.5t-25.5 91.5v335h83v-330q0 -36 14.5 -51t64.5 -15q51 0 87 26t36 81v289h83v-444q-90 -51 -89 -104q1 -34 53 -38q29 -1 67 14z" />
    <glyph glyph-name="Wcircumflex" unicode="&#x174;" horiz-adv-x="972" 
d="M957 694l-210 -694h-90l-92 307q-75 247 -82 309h-1q0 -17 -29 -120l-43 -153l-102 -343h-84l-210 694h92l86 -288q76 -257 85 -328l1 1q6 65 85 329l85 286h84l92 -308l47 -162q14 -52 23 -88.5t11 -47.5l2 -11q8 65 77 293l96 324h77zM642 736h-59l-97 97l-97 -97h-59
l126 134h60z" />
    <glyph glyph-name="wcircumflex" unicode="&#x175;" horiz-adv-x="702" 
d="M687 444l-141 -444h-91l-76 247q-5 17 -19 72q-12 62 -13 68h-1q-3 -42 -48 -194l-60 -193h-83l-141 444h80l60 -195q44 -145 48 -190h1q5 71 107 385h74l69 -222q38 -126 44 -166h1q7 59 112 388h77zM506 525h-59l-96 123l-96 -123h-59l125 172h60z" />
    <glyph glyph-name="Ycircumflex" unicode="&#x176;" horiz-adv-x="687" 
d="M683 694l-293 -416v-278h-93v278l-294 416h114l171 -244l65 -97l71 105l165 236h94zM499 736h-59l-97 97l-97 -97h-59l126 134h60z" />
    <glyph glyph-name="ycircumflex" unicode="&#x177;" horiz-adv-x="474" 
d="M459 444l-222 -530q-18 -42 -35.5 -68.5t-34 -36t-26 -12t-24.5 -2.5q-50 0 -74 8l-6 69q39 -17 81 -17q10 0 16.5 2t18.5 15t24 39l37 89l-200 444h84q73 -167 89 -207q54 -130 57 -178q3 47 34.5 132.5t101.5 252.5h79zM392 525h-59l-96 123l-96 -123h-59l125 172h60z
" />
    <glyph glyph-name="Ydieresis" unicode="&#x178;" horiz-adv-x="687" 
d="M683 694l-293 -416v-278h-93v278l-294 416h114l171 -244l65 -97l71 105l165 236h94zM293 736h-87v86h87v-86zM481 736h-87v86h87v-86z" />
    <glyph glyph-name="Zacute" unicode="&#x179;" horiz-adv-x="628" 
d="M576 0h-519v45l390 584h-24l-259 -2h-93v67h499v-43l-390 -583h29l269 2h98v-70zM505 868l-197 -122h-89l175 122h111z" />
    <glyph glyph-name="zacute" unicode="&#x17a;" horiz-adv-x="447" 
d="M413 0h-384v43l268 339h-77q-6 0 -18 -0.5t-18 -0.5h-141v63h367v-41l-267 -338h84q6 0 18 0.5t18 0.5h150v-66zM368 694l-152 -167h-65l134 167h83z" />
    <glyph glyph-name="Zdotaccent" unicode="&#x17b;" horiz-adv-x="628" 
d="M576 0h-519v45l390 584h-24l-259 -2h-93v67h499v-43l-390 -583h29l269 2h98v-70zM362 736h-96v96h96v-96z" />
    <glyph glyph-name="zdotaccent" unicode="&#x17c;" horiz-adv-x="447" 
d="M413 0h-384v43l268 339h-77q-6 0 -18 -0.5t-18 -0.5h-141v63h367v-41l-267 -338h84q6 0 18 0.5t18 0.5h150v-66zM272 563h-96v96h96v-96z" />
    <glyph glyph-name="Zcaron" unicode="&#x17d;" horiz-adv-x="628" 
d="M576 0h-519v45l390 584h-24l-259 -2h-93v67h499v-43l-390 -583h29l269 2h98v-70zM470 870l-126 -134h-60l-126 134h59l97 -97l97 97h59z" />
    <glyph glyph-name="zcaron" unicode="&#x17e;" horiz-adv-x="447" 
d="M413 0h-384v43l268 339h-77q-6 0 -18 -0.5t-18 -0.5h-141v63h367v-41l-267 -338h84q6 0 18 0.5t18 0.5h150v-66zM378 697l-125 -172h-60l-125 172h59l96 -123l96 123h59z" />
    <glyph glyph-name="longs" unicode="&#x17f;" horiz-adv-x="293" 
d="M335 623q-41 17 -83 17q-19 0 -36.5 -4t-35.5 -23.5t-18 -52.5v-560h-80v532q0 75 49 124t122 49q38 0 82 -11v-71z" />
    <glyph glyph-name="Ereversed" unicode="&#x18e;" horiz-adv-x="617" 
d="M573 0h-478v76h100l282 -2v253h-339v65h339v231h-38l-244 -2h-86v70h464v-691z" />
    <glyph glyph-name="florin" unicode="&#x192;" horiz-adv-x="314" 
d="M356 623q-41 17 -83 17q-20 0 -37.5 -4t-36.5 -23.5t-19 -52.5v-116h114v-62h-111v-382h-80v382h-75v62h75v88q0 75 49 124t122 49q38 0 82 -11v-71z" />
    <glyph glyph-name="Ohorn" unicode="&#x1a0;" horiz-adv-x="759" 
d="M700 344q0 -150 -94 -259q-45 -50 -104 -78.5t-124 -28.5q-64 0 -123.5 28.5t-103.5 78.5q-94 109 -94 259q0 154 94 263t227 109q86 0 161 -50l31 28h-23l-1 1v85l1 1h84l1 -1v-85l-65 -50q20 -15 39 -38q94 -109 94 -263zM604 361q0 122 -64 204q-66 83 -162 83
t-161 -83q-64 -82 -64 -204q0 -134 64 -223q65 -90 161 -90q97 0 162 90q64 89 64 223z" />
    <glyph glyph-name="ohorn" unicode="&#x1a1;" 
d="M485 445l-71 -53l2 -2q66 -71 66 -171q0 -94 -66 -162t-160 -68t-160 68q-67 67 -67 162q0 101 67 171q66 71 160 71q73 0 133 -47l34 30h-24l-1 1v85l1 1h85l1 -1v-85zM400 231q0 73 -39 119q-40 46 -104 46t-104 -46q-39 -44 -39 -119q0 -79 39 -126q39 -48 104 -48
q64 0 104 48q39 47 39 126z" />
    <glyph glyph-name="Uhorn" unicode="&#x1af;" horiz-adv-x="707" 
d="M712 695l-1 -1l-102 -73v-390q0 -104 -74 -178q-75 -75 -180 -75q-106 0 -184 75q-76 74 -76 178v463h96v-463q0 -87 45 -139q46 -55 119 -55q77 0 124 55q47 54 47 139v463h83v-32l40 32h-23l-1 1v85l1 1h85l1 -1v-85z" />
    <glyph glyph-name="uhorn" unicode="&#x1b0;" horiz-adv-x="531" 
d="M551 445l-103 -74v-371h-80v47q-67 -58 -184 -58q-52 0 -78 29q-26 30 -26 92v334h84v-334q0 -38 17 -49q16 -13 69 -13q47 0 81 28.5t34 69.5v298h83v-33l40 33h-23l-1 1v85l1 1h85l1 -1v-85z" />
    <glyph glyph-name="Acaron" unicode="&#x1cd;" horiz-adv-x="687" 
d="M657 0h-99l-77 199h-297l-76 -199h-79l268 694h92zM457 258l-125 362l-124 -362h249zM499 870l-126 -134h-60l-126 134h59l97 -97l97 97h59z" />
    <glyph glyph-name="acaron" unicode="&#x1ce;" horiz-adv-x="494" 
d="M422 0h-80v38q-66 -49 -170 -49q-59 0 -88.5 41.5t-29.5 85.5q0 60 76.5 93.5t208.5 36.5v42q0 49 -24.5 79.5t-65.5 30.5q-84 0 -154 -52l-6 71q78 44 161 44q74 0 123 -49t49 -123v-289zM339 140v52q-15 0 -39.5 -2t-67.5 -8t-72 -23t-29 -41q0 -29 27 -46.5t67 -17.5
q46 0 78 19q17 10 25.5 23t9.5 21.5t1 22.5zM402 697l-125 -172h-60l-125 172h59l96 -123l96 123h59z" />
    <glyph glyph-name="Icaron" unicode="&#x1cf;" horiz-adv-x="287" 
d="M191 0h-96v694h96v-694zM300 870l-126 -134h-60l-126 134h59l97 -97l97 97h59z" />
    <glyph glyph-name="icaron" unicode="&#x1d0;" horiz-adv-x="245" 
d="M162 0h-80v444h80v-444zM278 697l-125 -172h-60l-125 172h59l96 -123l96 123h59z" />
    <glyph glyph-name="Ocaron" unicode="&#x1d1;" horiz-adv-x="759" 
d="M701 344q0 -154 -95.5 -260t-226.5 -106t-226.5 106t-95.5 260q0 156 95.5 264t226.5 108t226.5 -108t95.5 -264zM605 359q0 130 -67.5 209.5t-158.5 79.5t-158.5 -79t-67.5 -210q0 -137 67 -224t159 -87t159 87t67 224zM536 870l-126 -134h-60l-126 134h59l97 -97l97 97
h59z" />
    <glyph glyph-name="ocaron" unicode="&#x1d2;" 
d="M483 220q0 -97 -66.5 -164t-160.5 -67q-92 0 -159 66.5t-67 164.5q0 100 66.5 170.5t159.5 70.5q95 0 161 -71t66 -170zM400 230q0 81 -42.5 123.5t-101.5 42.5q-57 0 -100 -42t-43 -124q0 -81 41.5 -127t102.5 -46q59 0 101 45.5t42 127.5zM412 697l-125 -172h-60
l-125 172h59l96 -123l96 123h59z" />
    <glyph glyph-name="Ucaron" unicode="&#x1d3;" horiz-adv-x="707" 
d="M611 233q0 -108 -75 -181.5t-180 -73.5q-106 0 -183.5 73.5t-77.5 182.5v460h96v-462q0 -94 49 -144.5t117 -50.5q69 0 120 51t51 145v461h83v-461zM509 870l-126 -134h-60l-126 134h59l97 -97l97 97h59z" />
    <glyph glyph-name="ucaron" unicode="&#x1d4;" horiz-adv-x="531" 
d="M449 0h-80v48q-33 -29 -84 -44t-99 -15q-54 0 -79.5 28.5t-25.5 91.5v335h83v-330q0 -36 14.5 -51t64.5 -15q51 0 87 26t36 81v289h83v-444zM420 697l-125 -172h-60l-125 172h59l96 -123l96 123h59z" />
    <glyph glyph-name="Udieresisacute" unicode="&#x1d7;" horiz-adv-x="707" 
d="M611 233q0 -108 -75 -181.5t-180 -73.5q-106 0 -183.5 73.5t-77.5 182.5v460h96v-462q0 -94 49 -144.5t117 -50.5q69 0 120 51t51 145v461h83v-461zM303 736h-87v86h87v-86zM491 736h-87v86h87v-86zM544 996l-197 -122h-89l175 122h111z" />
    <glyph glyph-name="udieresisacute" unicode="&#x1d8;" horiz-adv-x="531" 
d="M449 0h-80v48q-33 -29 -84 -44t-99 -15q-54 0 -79.5 28.5t-25.5 91.5v335h83v-330q0 -36 14.5 -51t64.5 -15q51 0 87 26t36 81v289h83v-444zM229 568h-87v86h87v-86zM389 568h-87v86h87v-86zM456 828l-197 -122h-89l175 122h111z" />
    <glyph glyph-name="Udieresiscaron" unicode="&#x1d9;" horiz-adv-x="707" 
d="M611 233q0 -108 -75 -181.5t-180 -73.5q-106 0 -183.5 73.5t-77.5 182.5v460h96v-462q0 -94 49 -144.5t117 -50.5q69 0 120 51t51 145v461h83v-461zM303 736h-87v86h87v-86zM491 736h-87v86h87v-86zM509 998l-126 -134h-60l-126 134h59l97 -97l97 97h59z" />
    <glyph glyph-name="udieresiscaron" unicode="&#x1da;" horiz-adv-x="531" 
d="M449 0h-80v48q-33 -29 -84 -44t-99 -15q-54 0 -79.5 28.5t-25.5 91.5v335h83v-330q0 -36 14.5 -51t64.5 -15q51 0 87 26t36 81v289h83v-444zM229 568h-87v86h87v-86zM389 568h-87v86h87v-86zM421 830l-126 -134h-60l-126 134h59l97 -97l97 97h59z" />
    <glyph glyph-name="Udieresisgrave" unicode="&#x1db;" horiz-adv-x="707" 
d="M611 233q0 -108 -75 -181.5t-180 -73.5q-106 0 -183.5 73.5t-77.5 182.5v460h96v-462q0 -94 49 -144.5t117 -50.5q69 0 120 51t51 145v461h83v-461zM303 736h-87v86h87v-86zM491 736h-87v86h87v-86zM448 874h-89l-197 122h111z" />
    <glyph glyph-name="udieresisgrave" unicode="&#x1dc;" horiz-adv-x="531" 
d="M449 0h-80v48q-33 -29 -84 -44t-99 -15q-54 0 -79.5 28.5t-25.5 91.5v335h83v-330q0 -36 14.5 -51t64.5 -15q51 0 87 26t36 81v289h83v-444zM229 568h-87v86h87v-86zM389 568h-87v86h87v-86zM360 706h-89l-197 122h111z" />
    <glyph glyph-name="eturned" unicode="&#x1dd;" horiz-adv-x="457" 
d="M427 224q0 -97 -60.5 -166t-147.5 -69q-94 0 -144 75q-40 62 -40 167h318q-2 69 -45 117t-105 48q-83 0 -157 -53l-6 69q77 49 164 49q94 0 158.5 -69t64.5 -168zM347 172h-252q13 -67 49 -92.5t75 -25.5q46 0 80.5 34t47.5 84z" />
    <glyph glyph-name="Gcaron" unicode="&#x1e6;" horiz-adv-x="685" 
d="M615 38q-104 -49 -217 -49q-138 0 -235 105q-97 106 -97 253q0 148 97 253t235 105q59 0 107 -11q46 -11 101 -38l-15 -88q-47 38 -91 54q-44 15 -102 15q-97 0 -167 -85q-69 -84 -69 -205q0 -120 69 -205q70 -85 167 -85q67 0 133 20v158h-133v65h217v-262zM499 870
l-126 -134h-60l-126 134h59l97 -97l97 97h59z" />
    <glyph glyph-name="gcaron" unicode="&#x1e7;" 
d="M499 388q-29 4 -74 4q-62 0 -62 -5q0 -2 4 -7q26 -44 26 -89q0 -67 -48.5 -115t-116.5 -48q-52 0 -95 29q-9 -14 -9 -34q0 -52 58 -52h92q17 0 31.5 -1t42 -4.5t48.5 -13t42.5 -24t33.5 -40t12 -58.5q0 -57 -66 -96.5t-162 -39.5t-161.5 40t-65.5 95q0 63 64 104
q-25 32 -25 75q0 45 29 83q-34 47 -34 101q0 66 48.5 114.5t116.5 48.5q55 0 99 -32q74 32 160 32zM319 292q0 52 -26.5 77.5t-64.5 25.5q-36 0 -63.5 -24.5t-27.5 -79.5q0 -52 26.5 -77.5t64.5 -25.5q36 0 63.5 24.5t27.5 79.5zM410 -71q0 66 -136 66h-94
q-34 0 -53.5 -16.5t-21.5 -32.5l-2 -16q0 -34 46 -55t108 -21t107.5 21.5t45.5 53.5zM376 697l-125 -172h-60l-125 172h59l96 -123l96 123h59z" />
    <glyph glyph-name="Oogonek" unicode="&#x1ea;" horiz-adv-x="759" 
d="M701 344q0 -139 -79 -240.5t-195 -121.5q-61 -41 -60 -86q1 -34 53 -38q30 -1 67 14l14 -59q-53 -25 -98 -25q-47 0 -72.5 25t-26.5 60q-3 59 56 106q-125 8 -214 112.5t-89 252.5q0 156 95.5 264t226.5 108t226.5 -108t95.5 -264zM605 359q0 130 -67.5 209.5
t-158.5 79.5t-158.5 -79t-67.5 -210q0 -137 67 -224t159 -87t159 87t67 224z" />
    <glyph glyph-name="oogonek" unicode="&#x1eb;" 
d="M483 220q0 -80 -47.5 -141.5t-119.5 -81.5q-85 -50 -84 -101q1 -34 53 -38q29 -1 67 14l14 -59q-53 -25 -98 -25q-47 0 -72.5 25t-26.5 60q-4 66 70 117q-87 6 -148 71.5t-61 158.5q0 100 66.5 170.5t159.5 70.5q95 0 161 -71t66 -170zM400 230q0 81 -42.5 123.5
t-101.5 42.5q-57 0 -100 -42t-43 -124q0 -81 41.5 -127t102.5 -46q59 0 101 45.5t42 127.5z" />
    <glyph glyph-name="jcaron" unicode="&#x1f0;" horiz-adv-x="274" 
d="M191 -59q0 -66 -38 -106t-92 -40q-63 0 -124 34l23 65q34 -31 75 -31q14 0 28 2.5t31 19.5t17 47v512h80v-503zM298 697l-125 -172h-60l-125 172h59l96 -123l96 123h59z" />
    <glyph glyph-name="Gacute" unicode="&#x1f4;" horiz-adv-x="685" 
d="M615 38q-104 -49 -217 -49q-138 0 -235 105q-97 106 -97 253q0 148 97 253t235 105q59 0 107 -11q46 -11 101 -38l-15 -88q-47 38 -91 54q-44 15 -102 15q-97 0 -167 -85q-69 -84 -69 -205q0 -120 69 -205q70 -85 167 -85q67 0 133 20v158h-133v65h217v-262zM534 868
l-197 -122h-89l175 122h111z" />
    <glyph glyph-name="gacute" unicode="&#x1f5;" 
d="M499 388q-29 4 -74 4q-62 0 -62 -5q0 -2 4 -7q26 -44 26 -89q0 -67 -48.5 -115t-116.5 -48q-52 0 -95 29q-9 -14 -9 -34q0 -52 58 -52h92q17 0 31.5 -1t42 -4.5t48.5 -13t42.5 -24t33.5 -40t12 -58.5q0 -57 -66 -96.5t-162 -39.5t-161.5 40t-65.5 95q0 63 64 104
q-25 32 -25 75q0 45 29 83q-34 47 -34 101q0 66 48.5 114.5t116.5 48.5q55 0 99 -32q74 32 160 32zM319 292q0 52 -26.5 77.5t-64.5 25.5q-36 0 -63.5 -24.5t-27.5 -79.5q0 -52 26.5 -77.5t64.5 -25.5q36 0 63.5 24.5t27.5 79.5zM410 -71q0 66 -136 66h-94
q-34 0 -53.5 -16.5t-21.5 -32.5l-2 -16q0 -34 46 -55t108 -21t107.5 21.5t45.5 53.5zM366 694l-152 -167h-65l134 167h83z" />
    <glyph glyph-name="Aringacute" unicode="&#x1fa;" horiz-adv-x="687" 
d="M657 0h-99l-77 199h-297l-76 -199h-79l268 694h92zM457 258l-125 362l-124 -362h249zM394 778q0 37 -51 37t-51 -37t51 -37t51 37zM458 777q0 -33 -33 -58t-82 -25t-82 25t-33 60q0 33 33 58t82 25t82 -25t33 -60zM486 1019l-197 -122h-89l175 122h111z" />
    <glyph glyph-name="aringacute" unicode="&#x1fb;" horiz-adv-x="494" 
d="M422 0h-80v38q-66 -49 -170 -49q-59 0 -88.5 41.5t-29.5 85.5q0 60 76.5 93.5t208.5 36.5v42q0 49 -24.5 79.5t-65.5 30.5q-84 0 -154 -52l-6 71q78 44 161 44q74 0 123 -49t49 -123v-289zM339 140v52q-15 0 -39.5 -2t-67.5 -8t-72 -23t-29 -41q0 -29 27 -46.5t67 -17.5
q46 0 78 19q17 10 25.5 23t9.5 21.5t1 22.5zM298 601q0 37 -51 37t-51 -37t51 -37t51 37zM362 600q0 -33 -33 -58t-82 -25t-82 25t-33 60q0 33 33 58t82 25t82 -25t33 -60zM390 842l-197 -122h-89l175 122h111z" />
    <glyph glyph-name="AEacute" unicode="&#x1fc;" horiz-adv-x="886" 
d="M842 0h-411v219h-231l-91 -219h-80l291 694h508v-70h-69l-211 2h-22v-233h273v-65h-273v-254q14 1 122 1l194 1v-76zM431 278v348h-60l-146 -348h206zM634 868l-197 -122h-89l175 122h111z" />
    <glyph glyph-name="aeacute" unicode="&#x1fd;" horiz-adv-x="742" 
d="M712 219h-300q4 -73 46 -119t101 -46q79 0 142 53l6 -69q-67 -49 -149 -49q-101 0 -168 75q-55 -75 -224 -75q-36 0 -61.5 15.5t-37 38.5t-16 41t-4.5 33q0 64 82.5 97t199.5 34q0 52 -2.5 70t-13.5 37q-25 43 -73 43q-85 0 -154 -52l-7 71q79 44 162 44q93 0 144 -76
q68 76 157 76q90 0 134 -77q36 -61 36 -165zM650 278q-10 64 -41 91t-67 27q-42 0 -76.5 -33t-47.5 -85h232zM334 130q0 29 -3 50q-1 10 -8 10q-61 0 -121 -15q-42 -11 -60 -23.5t-18 -33.5q0 -26 25 -45t69 -19q47 0 81 15q16 8 24.5 19.5t9.5 19.5t1 22zM516 694
l-152 -167h-65l134 167h83z" />
    <glyph glyph-name="Oslashacute" unicode="&#x1fe;" horiz-adv-x="799" 
d="M741 344q0 -153 -101 -259.5t-241 -106.5q-79 0 -154 39l-48 -83l-59 34l51 88q-55 44 -93.5 119.5t-38.5 168.5q0 155 101 263.5t241 108.5q80 0 154 -39l48 83l59 -34l-51 -89q60 -49 96 -126.5t36 -166.5zM518 618q-59 33 -119 33q-103 0 -177 -83t-74 -224
q0 -138 78 -225zM650 344q0 142 -79 229l-291 -497q58 -33 119 -33q103 0 177 81.5t74 219.5zM591 868l-197 -122h-89l175 122h111z" />
    <glyph glyph-name="oslashacute" unicode="&#x1ff;" 
d="M481 220q0 -97 -66.5 -164t-158.5 -67q-48 0 -87 18l-69 -120l-57 32l71 123q-82 75 -82 178q0 99 65.5 170t159.5 71q49 0 89 -20l67 117l57 -32l-70 -121q81 -72 81 -185zM312 385q-27 11 -55 11q-62 0 -104 -47t-42 -129q0 -72 38 -117zM402 220q0 78 -38 124
l-161 -280q24 -10 54 -10q59 0 102 42.5t43 123.5zM402 694l-152 -167h-65l134 167h83z" />
    <glyph glyph-name="Adblgrave" unicode="&#x200;" horiz-adv-x="687" 
d="M657 0h-99l-77 199h-297l-76 -199h-79l268 694h92zM457 258l-125 362l-124 -362h249zM462 746h-65l-81 167h83zM291 746h-65l-81 167h83z" />
    <glyph glyph-name="adblgrave" unicode="&#x201;" horiz-adv-x="494" 
d="M422 0h-80v38q-66 -49 -170 -49q-59 0 -88.5 41.5t-29.5 85.5q0 60 76.5 93.5t208.5 36.5v42q0 49 -24.5 79.5t-65.5 30.5q-84 0 -154 -52l-6 71q78 44 161 44q74 0 123 -49t49 -123v-289zM339 140v52q-15 0 -39.5 -2t-67.5 -8t-72 -23t-29 -41q0 -29 27 -46.5t67 -17.5
q46 0 78 19q17 10 25.5 23t9.5 21.5t1 22.5zM394 527h-65l-81 167h83zM223 527h-65l-81 167h83z" />
    <glyph glyph-name="Edblgrave" unicode="&#x204;" horiz-adv-x="617" 
d="M573 0h-478v691h464v-70h-86l-244 2h-38v-231h339v-65h-339v-253l282 2h100v-76zM456 746h-65l-81 167h83zM285 746h-65l-81 167h83z" />
    <glyph glyph-name="edblgrave" unicode="&#x205;" horiz-adv-x="457" 
d="M427 219h-318q2 -69 45 -117t105 -48q83 0 157 53l6 -69q-77 -49 -164 -49q-94 0 -158.5 69t-64.5 168q0 97 60.5 166t147.5 69q94 0 144 -75q40 -62 40 -167zM367 278q-13 67 -49 92.5t-75 25.5q-46 0 -80.5 -34t-47.5 -84h252zM375 527h-65l-81 167h83zM204 527h-65
l-81 167h83z" />
    <glyph glyph-name="Idblgrave" unicode="&#x208;" horiz-adv-x="287" 
d="M191 0h-96v694h96v-694zM291 746h-65l-81 167h83zM120 746h-65l-81 167h83z" />
    <glyph glyph-name="idblgrave" unicode="&#x209;" horiz-adv-x="245" 
d="M162 0h-80v444h80v-444zM270 527h-65l-81 167h83zM99 527h-65l-81 167h83z" />
    <glyph glyph-name="Odblgrave" unicode="&#x20c;" horiz-adv-x="759" 
d="M701 344q0 -154 -95.5 -260t-226.5 -106t-226.5 106t-95.5 260q0 156 95.5 264t226.5 108t226.5 -108t95.5 -264zM605 359q0 130 -67.5 209.5t-158.5 79.5t-158.5 -79t-67.5 -210q0 -137 67 -224t159 -87t159 87t67 224zM527 746h-65l-81 167h83zM356 746h-65l-81 167h83
z" />
    <glyph glyph-name="odblgrave" unicode="&#x20d;" 
d="M483 220q0 -97 -66.5 -164t-160.5 -67q-92 0 -159 66.5t-67 164.5q0 100 66.5 170.5t159.5 70.5q95 0 161 -71t66 -170zM400 230q0 81 -42.5 123.5t-101.5 42.5q-57 0 -100 -42t-43 -124q0 -81 41.5 -127t102.5 -46q59 0 101 45.5t42 127.5zM404 527h-65l-81 167h83z
M233 527h-65l-81 167h83z" />
    <glyph glyph-name="Rdblgrave" unicode="&#x210;" horiz-adv-x="666" 
d="M636 0h-96l-190 315h-160v-315h-93v694h252q107 0 183 -55t76 -132q0 -61 -48.5 -111t-125.5 -71zM521 507q0 56 -49.5 92t-134.5 36h-147v-255h147q87 0 135.5 37.5t48.5 89.5zM451 746h-65l-81 167h83zM280 746h-65l-81 167h83z" />
    <glyph glyph-name="rdblgrave" unicode="&#x211;" horiz-adv-x="351" 
d="M336 383q-71 -1 -122 -47.5t-51 -122.5v-213h-80v450h74v-91q66 94 179 96v-72zM323 527h-65l-81 167h83zM152 527h-65l-81 167h83z" />
    <glyph glyph-name="Udblgrave" unicode="&#x214;" horiz-adv-x="707" 
d="M611 233q0 -108 -75 -181.5t-180 -73.5q-106 0 -183.5 73.5t-77.5 182.5v460h96v-462q0 -94 49 -144.5t117 -50.5q69 0 120 51t51 145v461h83v-461zM500 746h-65l-81 167h83zM329 746h-65l-81 167h83z" />
    <glyph glyph-name="udblgrave" unicode="&#x215;" horiz-adv-x="531" 
d="M449 0h-80v48q-33 -29 -84 -44t-99 -15q-54 0 -79.5 28.5t-25.5 91.5v335h83v-330q0 -36 14.5 -51t64.5 -15q51 0 87 26t36 81v289h83v-444zM412 527h-65l-81 167h83zM241 527h-65l-81 167h83z" />
    <glyph glyph-name="uni0218" unicode="&#x218;" horiz-adv-x="571" 
d="M513 191q0 -86 -65.5 -149.5t-165.5 -63.5q-125 0 -236 69l16 87q101 -82 220 -82q64 0 105 38t41 90q0 43 -29 75.5t-67 44.5l-84 21q-31 8 -49.5 13.5t-50 24.5t-52.5 47q-39 53 -39 111q0 79 65 139t167 60q43 0 80 -8t56.5 -16t52.5 -25l-16 -87q-77 65 -174 65
q-65 0 -105.5 -35t-40.5 -80q0 -41 30 -70.5t72 -39.5l101 -24q64 -15 116 -71t52 -134zM325 -156l-40 -115h-38l24 114h-23v78h77v-77z" />
    <glyph glyph-name="uni0219" unicode="&#x219;" horiz-adv-x="394" 
d="M370 129q0 -42 -16.5 -71.5t-44 -43.5t-54 -19.5t-54.5 -5.5q-89 0 -172 44l13 73q72 -50 159 -50q11 0 21.5 1.5t29.5 6.5t31 19.5t12 37.5t-17.5 39t-32.5 20.5t-39 8.5q-57 11 -81.5 19.5t-50.5 31.5q-40 40 -40 89q0 37 16 64t36 39.5t49 19.5t42 8t27 1
q78 0 149 -32l-13 -70q-71 39 -145 39q-86 0 -86 -59q0 -22 16 -36t30 -18t40 -9q37 -7 54 -11.5t36.5 -13t35.5 -22.5q49 -42 49 -100zM236 -156l-40 -115h-38l24 114h-23v78h77v-77z" />
    <glyph glyph-name="uni021A" unicode="&#x21a;" horiz-adv-x="702" 
d="M664 618h-60l-205 2v-620h-96v620l-205 -2h-61v70h627v-70zM390 -156l-40 -115h-38l24 114h-23v78h77v-77z" />
    <glyph glyph-name="uni021B" unicode="&#x21b;" horiz-adv-x="371" 
d="M342 26q-74 -37 -152 -37q-86 0 -86 137v256h-85v62h88v127h74v-127h144v-62h-144v-238q0 -87 52 -87q50 0 92 32zM225 -156l-40 -115h-38l24 114h-23v78h77v-77z" />
    <glyph glyph-name="uni0237" unicode="&#x237;" horiz-adv-x="274" 
d="M191 -59q0 -66 -38 -106t-92 -40q-63 0 -124 34l23 65q34 -31 75 -31q14 0 28 2.5t31 19.5t17 47v512h80v-503z" />
    <glyph glyph-name="ereversed" unicode="&#x258;" horiz-adv-x="457" 
d="M427 226q0 -99 -64.5 -168t-158.5 -69q-87 0 -164 49l6 69q74 -53 157 -53q62 0 105 48t45 117h-318q0 105 40 167q50 75 144 75q87 0 147.5 -69t60.5 -166zM347 278q-13 50 -47.5 84t-80.5 34q-39 0 -75 -25.5t-49 -92.5h252z" />
    <glyph glyph-name="schwa" unicode="&#x259;" horiz-adv-x="457" 
d="M427 224q0 -97 -60.5 -166t-147.5 -69q-94 0 -144 75q-40 62 -40 167h318q-2 69 -45 117t-105 48q-83 0 -157 -53l-6 69q77 49 164 49q94 0 158.5 -69t64.5 -168zM347 172h-252q13 -67 49 -92.5t75 -25.5q46 0 80.5 34t47.5 84z" />
    <glyph glyph-name="ringhalfright" unicode="&#x2be;" horiz-adv-x="413" 
d="M356 459q0 -72 -48 -126.5t-125 -54.5q-39 0 -62.5 7t-57.5 26q-3 3 -3 5v1l10 51q2 5 6 5q2 0 3 -1q48 -32 103 -32q51 0 76 35.5t25 82.5q0 51 -27 83.5t-71 32.5q-63 0 -115 -36q0 -1 -3 -1q-6 0 -6 5l-4 53q0 3 3 5q57 36 126 36q73 0 121.5 -52t48.5 -125z" />
    <glyph glyph-name="ringhalfleft" unicode="&#x2bf;" horiz-adv-x="413" 
d="M356 319q0 -3 -3 -5q-57 -36 -126 -36q-73 0 -121.5 52t-48.5 125q0 72 48 126.5t125 54.5q39 0 62.5 -7t57.5 -26q3 -3 3 -5v-1l-10 -51q-2 -5 -6 -5q-2 0 -3 1q-48 32 -103 32q-51 0 -76 -35.5t-25 -82.5q0 -51 27 -83.5t71 -32.5q62 0 115 36q0 1 3 1q6 0 6 -5z" />
    <glyph glyph-name="circumflex" unicode="&#x2c6;" 
d="M412 525h-59l-96 123l-96 -123h-59l125 172h60z" />
    <glyph glyph-name="caron" unicode="&#x2c7;" 
d="M412 697l-125 -172h-60l-125 172h59l96 -123l96 123h59z" />
    <glyph glyph-name="breve" unicode="&#x2d8;" 
d="M431 701q-1 -79 -53 -129.5t-122 -50.5q-68 0 -120.5 50t-53.5 130h65q2 -52 35.5 -80.5t74.5 -28.5q40 0 73.5 28.5t35.5 80.5h65z" />
    <glyph glyph-name="dotaccent" unicode="&#x2d9;" horiz-adv-x="286" 
d="M191 563h-96v96h96v-96z" />
    <glyph glyph-name="ring" unicode="&#x2da;" horiz-adv-x="687" 
d="M394 601q0 37 -51 37t-51 -37t51 -37t51 37zM458 600q0 -33 -33 -58t-82 -25t-82 25t-33 60q0 33 33 58t82 25t82 -25t33 -60z" />
    <glyph glyph-name="ogonek" unicode="&#x2db;" 
d="M356 -187q-53 -25 -98 -25q-47 0 -72.5 25t-26.5 60q-2 37 22.5 71t64.5 56h65q-90 -51 -89 -104q1 -34 53 -38q29 -1 67 14z" />
    <glyph glyph-name="tilde" unicode="&#x2dc;" 
d="M427 672q-1 -55 -31 -89t-70 -34q-26 0 -74 31q-38 27 -63 27q-21 0 -29.5 -18t-8.5 -40h-65q1 55 31 89t70 34q26 0 74 -31q38 -27 63 -27q21 0 29.5 18t8.5 40h65z" />
    <glyph glyph-name="hungarumlaut" unicode="&#x2dd;" 
d="M256 694l-81 -167h-65l63 167h83zM427 694l-81 -167h-65l63 167h83z" />
    <glyph glyph-name="uni0300" unicode="&#x300;" horiz-adv-x="0" 
d="M-175 527h-65l-152 167h83z" />
    <glyph glyph-name="uni0301" unicode="&#x301;" horiz-adv-x="0" 
d="M-102 694l-152 -167h-65l134 167h83z" />
    <glyph glyph-name="uni0302" unicode="&#x302;" horiz-adv-x="0" 
d="M-92 525h-59l-96 123l-96 -123h-59l125 172h60z" />
    <glyph glyph-name="uni0303" unicode="&#x303;" horiz-adv-x="0" 
d="M-77 672q-1 -55 -31 -89t-70 -34q-26 0 -74 31q-38 27 -63 27q-21 0 -29.5 -18t-8.5 -40h-65q1 55 31 89t70 34q26 0 74 -31q38 -27 63 -27q21 0 29.5 18t8.5 40h65z" />
    <glyph glyph-name="uni0304" unicode="&#x304;" horiz-adv-x="0" 
d="M-62 576h-371v69h371v-69z" />
    <glyph glyph-name="uni0306" unicode="&#x306;" horiz-adv-x="0" 
d="M-73 701q-1 -79 -53 -129.5t-122 -50.5q-68 0 -120.5 50t-53.5 130h65q2 -52 35.5 -80.5t74.5 -28.5q40 0 73.5 28.5t35.5 80.5h65z" />
    <glyph glyph-name="uni0307" unicode="&#x307;" horiz-adv-x="0" 
d="M-199 563h-96v96h96v-96z" />
    <glyph glyph-name="uni0308" unicode="&#x308;" horiz-adv-x="0" 
d="M-283 568h-87v86h87v-86zM-123 568h-87v86h87v-86z" />
    <glyph glyph-name="uni0309" unicode="&#x309;" horiz-adv-x="0" 
d="M-147 639q0 -31 -28 -51q-1 0 -16 -9q-27 -16 -38 -27t-11 -28v-19l-1 -1h-27l-1 1v19q0 67 54 96q14 7 14 19q0 20 -12 29q-11 8 -41 8q-50 0 -76 -44h-1h-1l-15 42v1q37 43 93 43q51 0 79 -20q28 -22 28 -59z" />
    <glyph glyph-name="uni030A" unicode="&#x30a;" horiz-adv-x="0" 
d="M-196 601q0 37 -51 37t-51 -37t51 -37t51 37zM-132 600q0 -33 -33 -58t-82 -25t-82 25t-33 60q0 33 33 58t82 25t82 -25t33 -60z" />
    <glyph glyph-name="uni030B" unicode="&#x30b;" horiz-adv-x="0" 
d="M-248 694l-81 -167h-65l63 167h83zM-77 694l-81 -167h-65l63 167h83z" />
    <glyph glyph-name="uni030C" unicode="&#x30c;" horiz-adv-x="0" 
d="M-92 697l-125 -172h-60l-125 172h59l96 -123l96 123h59z" />
    <glyph glyph-name="uni030F" unicode="&#x30f;" horiz-adv-x="0" 
d="M-100 527h-65l-81 167h83zM-271 527h-65l-81 167h83z" />
    <glyph glyph-name="uni0311" unicode="&#x311;" horiz-adv-x="0" 
d="M-73 521h-65q-2 52 -35.5 80.5t-74.5 28.5q-40 0 -73.5 -28.5t-35.5 -80.5h-65q1 79 53 129.5t122 50.5q68 0 120.5 -50t53.5 -130z" />
    <glyph glyph-name="uni0323" unicode="&#x323;" horiz-adv-x="0" 
d="M-199 -200h-96v96h96v-96z" />
    <glyph glyph-name="uni0326" unicode="&#x326;" horiz-adv-x="0" 
d="M-208 -156l-40 -115h-38l24 114h-23v78h77v-77z" />
    <glyph glyph-name="uni032E" unicode="&#x32e;" horiz-adv-x="0" 
d="M-73 -62q-1 -79 -53 -129.5t-122 -50.5q-68 0 -120.5 50t-53.5 130h65q2 -52 35.5 -80.5t74.5 -28.5q40 0 73.5 28.5t35.5 80.5h65z" />
    <glyph glyph-name="uni032F" unicode="&#x32f;" horiz-adv-x="0" 
d="M-73 -242h-65q-2 52 -35.5 80.5t-74.5 28.5q-40 0 -73.5 -28.5t-35.5 -80.5h-65q1 79 53 129.5t122 50.5q68 0 120.5 -50t53.5 -130z" />
    <glyph glyph-name="uni0330" unicode="&#x330;" horiz-adv-x="0" 
d="M-77 -90q-1 -55 -31 -89t-70 -34q-26 0 -74 31q-38 27 -63 27q-21 0 -29.5 -18t-8.5 -40h-65q1 55 31 89t70 34q26 0 74 -31q38 -27 63 -27q21 0 29.5 18t8.5 40h65z" />
    <glyph glyph-name="uni0331" unicode="&#x331;" horiz-adv-x="0" 
d="M-62 -186h-371v69h371v-69z" />
    <glyph glyph-name="uni0332" unicode="&#x332;" horiz-adv-x="0" 
d="M-62 -186h-371v69h371v-69z" />
    <glyph glyph-name="Alpha" unicode="&#x391;" horiz-adv-x="687" 
d="M657 0h-99l-77 199h-297l-76 -199h-79l268 694h92zM457 258l-125 362l-124 -362h249z" />
    <glyph glyph-name="Beta" unicode="&#x392;" horiz-adv-x="686" 
d="M628 188q0 -75 -73.5 -131.5t-182.5 -56.5h-274v694h247q106 0 180 -52t74 -122q0 -54 -46.5 -96t-122.5 -61q83 -12 140.5 -61t57.5 -114zM515 518q0 51 -59.5 84t-139.5 33h-128v-242h117q97 0 153.5 38.5t56.5 86.5zM541 189q0 58 -62.5 98.5t-143.5 40.5h-147v-269
h155q83 0 140.5 38t57.5 92z" />
    <glyph glyph-name="Gamma" unicode="&#x393;" horiz-adv-x="560" 
d="M516 621h-75l-223 2h-27v-623h-96v691h421v-70z" />
    <glyph glyph-name="Delta" unicode="&#x394;" horiz-adv-x="856" 
d="M812 0h-769l337 694h95zM662 90l-137 285q-96 198 -110 245q-12 -38 -105 -235l-141 -295h493z" />
    <glyph glyph-name="Epsilon" unicode="&#x395;" horiz-adv-x="617" 
d="M573 0h-478v691h464v-70h-86l-244 2h-38v-231h339v-65h-339v-253l282 2h100v-76z" />
    <glyph glyph-name="Zeta" unicode="&#x396;" horiz-adv-x="628" 
d="M576 0h-519v45l390 584h-24l-259 -2h-93v67h499v-43l-390 -583h29l269 2h98v-70z" />
    <glyph glyph-name="Eta" unicode="&#x397;" horiz-adv-x="727" 
d="M631 0h-96v328h-344v-328h-96v694h96v-301h344v301h96v-694z" />
    <glyph glyph-name="Theta" unicode="&#x398;" horiz-adv-x="799" 
d="M741 344q0 -153 -101 -259.5t-241 -106.5t-241 106.5t-101 259.5q0 155 101 263.5t241 108.5q141 0 241.5 -108t100.5 -264zM651 344q0 134 -74.5 220.5t-177.5 86.5t-177.5 -86t-74.5 -221q0 -131 74 -215t178 -84t178 84t74 215zM593 303h-388v90h388v-90z" />
    <glyph glyph-name="Iota" unicode="&#x399;" horiz-adv-x="287" 
d="M191 0h-96v694h96v-694z" />
    <glyph glyph-name="Kappa" unicode="&#x39a;" horiz-adv-x="715" 
d="M671 0h-99l-249 361l-134 -133v-228h-91v694h91v-368l369 368h98l-274 -274z" />
    <glyph glyph-name="Lambda" unicode="&#x39b;" horiz-adv-x="630" 
d="M600 0h-101l-101 294l-55 169q-16 52 -26 90.5t-12 50.5l-2 13h-1q-4 -37 -38 -148l-51 -158l-106 -311h-78l240 694h91z" />
    <glyph glyph-name="Mu" unicode="&#x39c;" horiz-adv-x="898" 
d="M795 0h-82v616h-1q-20 -71 -89 -242l-138 -352h-76l-33 84l-110 282q-68 174 -81 228h-1v-616h-82v694h120l18 -45l133 -341q62 -157 75 -210h1q11 46 92 254l134 342h120v-694z" />
    <glyph glyph-name="Nu" unicode="&#x39d;" horiz-adv-x="727" 
d="M628 0h-132l-26 52q-5 7 -25 47l-264 517h-1v-616h-82v694h132l26 -52q5 -7 25 -47l264 -517h1v616h82v-694z" />
    <glyph glyph-name="Xi" unicode="&#x39e;" horiz-adv-x="685" 
d="M635 607h-129l-164 1l-164 -1h-129v81h586v-81zM641 0h-598v81h132l167 -1l167 1h132v-81zM570 318h-456v80h456v-80z" />
    <glyph glyph-name="Omicron" unicode="&#x39f;" horiz-adv-x="759" 
d="M701 344q0 -154 -95.5 -260t-226.5 -106t-226.5 106t-95.5 260q0 156 95.5 264t226.5 108t226.5 -108t95.5 -264zM605 359q0 130 -67.5 209.5t-158.5 79.5t-158.5 -79t-67.5 -210q0 -137 67 -224t159 -87t159 87t67 224z" />
    <glyph glyph-name="Pi" unicode="&#x3a0;" horiz-adv-x="727" 
d="M631 0h-96v626h-344v-626h-96v691h536v-691z" />
    <glyph glyph-name="Rho" unicode="&#x3a1;" horiz-adv-x="657" 
d="M599 491q0 -84 -69.5 -145t-173.5 -61h-163v-285h-96v694h259q104 0 173.5 -60.5t69.5 -142.5zM512 491q0 62 -48 103t-132 41h-142v-288h142q84 0 132 41t48 103z" />
    <glyph glyph-name="Sigma" unicode="&#x3a3;" horiz-adv-x="742" 
d="M684 0h-627l239 333l-239 293v68h627v-70h-123l-319 2h-61l228 -279l-197 -273h60l299 2h113v-76z" />
    <glyph glyph-name="Tau" unicode="&#x3a4;" horiz-adv-x="702" 
d="M664 618h-60l-205 2v-620h-96v620l-205 -2h-61v70h627v-70z" />
    <glyph glyph-name="Upsilon" unicode="&#x3a5;" horiz-adv-x="799" 
d="M741 555h-83q-2 42 -26 65.5t-56 23.5q-129 0 -129 -269v-375h-96v375q0 269 -129 269q-32 0 -56 -23.5t-26 -65.5h-83q2 74 51.5 117.5t112.5 43.5q141 0 177 -219h1q37 219 178 219q63 0 112.5 -43.5t51.5 -117.5z" />
    <glyph glyph-name="Phi" unicode="&#x3a6;" horiz-adv-x="742" 
d="M684 347q0 -92 -78.5 -161t-192.5 -80v-106h-90v107q-114 13 -190 81.5t-76 158.5t76 158.5t190 81.5v107h90v-106q114 -11 192.5 -80t78.5 -161zM323 172v350q-86 -14 -129.5 -63.5t-43.5 -111.5t43.5 -111.5t129.5 -63.5zM591 347q0 61 -44 112t-134 63v-350
q89 12 133.5 63t44.5 112z" />
    <glyph glyph-name="Chi" unicode="&#x3a7;" horiz-adv-x="687" 
d="M672 0h-113l-223 303l-219 -303h-103l275 366l-260 328h113l194 -258l190 258h103l-247 -328z" />
    <glyph glyph-name="Psi" unicode="&#x3a8;" horiz-adv-x="799" 
d="M741 550q-69 -4 -69 -124q0 -21 -0.5 -37t-5 -48.5t-13 -58t-25.5 -57t-41 -54t-61.5 -40.5t-84.5 -24v-107h-90v107q-63 9 -108.5 38.5t-69.5 73.5t-35.5 89t-11.5 95q0 30 -2 51t-8.5 45t-21 37t-37.5 14v65h80q47 0 63 -40t16 -153q0 -212 135 -247v519h90v-519
q40 10 68.5 35t42 51t21 65t8.5 60.5t1 53.5q0 59 6 96.5t18 53.5t24 20.5t31 4.5h80v-65z" />
    <glyph glyph-name="Omega" unicode="&#x3a9;" horiz-adv-x="742" 
d="M695 0h-252q2 87 65 215q29 59 41 86.5t25.5 74t13.5 85.5q0 82 -62 136t-156 54q-92 0 -154.5 -53.5t-62.5 -136.5q0 -52 18.5 -105t56.5 -129q38 -78 53.5 -127t16.5 -100h-252v75h87q6 0 18 -0.5t18 -0.5h53q-18 61 -81 163q-43 72 -63.5 122.5t-20.5 102.5
q0 104 90.5 179t223.5 75q131 0 222 -75t91 -179q0 -40 -15 -84.5t-30.5 -73t-47.5 -82.5q-53 -87 -72 -148h53q6 0 18 0.5t18 0.5h87v-75z" />
    <glyph glyph-name="baht" unicode="&#xe3f;" horiz-adv-x="686" 
d="M628 188q0 -75 -73.5 -131.5t-182.5 -56.5h-3v-68h-68v68h-203v694h203v68h68v-69q97 -6 163.5 -56.5t66.5 -116.5q0 -54 -46.5 -96t-122.5 -61q83 -12 140.5 -61t57.5 -114zM515 518q0 42 -41.5 72.5t-104.5 40.5v-233q69 12 107.5 46.5t38.5 73.5zM301 393v242h-113
v-242h113zM541 189q0 51 -50.5 90t-121.5 47v-266q73 6 122.5 43t49.5 86zM301 59v269h-113v-269h113z" />
    <glyph glyph-name="Ddotbelow" unicode="&#x1e0c;" horiz-adv-x="743" 
d="M685 341q0 -142 -92 -241.5t-223 -99.5h-273v694h273q131 0 223 -103t92 -250zM592 341q0 133 -71 213.5t-177 80.5h-154v-576h155q105 0 176 77t71 205zM315 -200h-96v96h96v-96z" />
    <glyph glyph-name="ddotbelow" unicode="&#x1e0d;" horiz-adv-x="531" 
d="M447 0h-83v52q-68 -63 -153 -63q-73 0 -124 68t-51 165t52 165t127 68q86 0 152 -55v294h80v-694zM364 141v197q-38 52 -97 52q-57 0 -102.5 -41t-45.5 -128q0 -83 41 -125t96 -42q58 0 97 52q11 14 11 35zM314 -200h-96v96h96v-96z" />
    <glyph glyph-name="Dlinebelow" unicode="&#x1e0e;" horiz-adv-x="743" 
d="M685 341q0 -142 -92 -241.5t-223 -99.5h-273v694h273q131 0 223 -103t92 -250zM592 341q0 133 -71 213.5t-177 80.5h-154v-576h155q105 0 176 77t71 205zM452 -186h-371v69h371v-69z" />
    <glyph glyph-name="dlinebelow" unicode="&#x1e0f;" horiz-adv-x="531" 
d="M447 0h-83v52q-68 -63 -153 -63q-73 0 -124 68t-51 165t52 165t127 68q86 0 152 -55v294h80v-694zM364 141v197q-38 52 -97 52q-57 0 -102.5 -41t-45.5 -128q0 -83 41 -125t96 -42q58 0 97 52q11 14 11 35zM450 -186h-371v69h371v-69z" />
    <glyph glyph-name="Hdotbelow" unicode="&#x1e24;" horiz-adv-x="727" 
d="M631 0h-96v328h-344v-328h-96v694h96v-301h344v301h96v-694zM412 -200h-96v96h96v-96z" />
    <glyph glyph-name="hdotbelow" unicode="&#x1e25;" horiz-adv-x="531" 
d="M449 0h-83v290q0 13 -0.5 22t-6 25.5t-15 26.5t-30 18t-48.5 8q-52 0 -77 -44t-25 -102v-244h-83v694h80v-311q58 72 147 72q141 0 141 -158v-297zM313 -200h-96v96h96v-96z" />
    <glyph glyph-name="Hdieresis" unicode="&#x1e26;" horiz-adv-x="727" 
d="M631 0h-96v328h-344v-328h-96v694h96v-301h344v301h96v-694zM313 736h-87v86h87v-86zM501 736h-87v86h87v-86z" />
    <glyph glyph-name="hdieresis" unicode="&#x1e27;" horiz-adv-x="531" 
d="M449 0h-83v290q0 13 -0.5 22t-6 25.5t-15 26.5t-30 18t-48.5 8q-52 0 -77 -44t-25 -102v-244h-83v694h80v-311q58 72 147 72q141 0 141 -158v-297zM215 736h-87v86h87v-86zM403 736h-87v86h87v-86z" />
    <glyph glyph-name="Hbrevebelow" unicode="&#x1e2a;" horiz-adv-x="727" 
d="M631 0h-96v328h-344v-328h-96v694h96v-301h344v301h96v-694zM537 -62q-1 -79 -53 -129.5t-122 -50.5q-68 0 -120.5 50t-53.5 130h65q2 -52 35.5 -80.5t74.5 -28.5q40 0 73.5 28.5t35.5 80.5h65z" />
    <glyph glyph-name="hbrevebelow" unicode="&#x1e2b;" horiz-adv-x="531" 
d="M449 0h-83v290q0 13 -0.5 22t-6 25.5t-15 26.5t-30 18t-48.5 8q-52 0 -77 -44t-25 -102v-244h-83v694h80v-311q58 72 147 72q141 0 141 -158v-297zM439 -62q-1 -79 -53 -129.5t-122 -50.5q-68 0 -120.5 50t-53.5 130h65q2 -52 35.5 -80.5t74.5 -28.5q40 0 73.5 28.5
t35.5 80.5h65z" />
    <glyph glyph-name="Idieresisacute" unicode="&#x1e2e;" horiz-adv-x="287" 
d="M191 0h-96v694h96v-694zM94 736h-87v86h87v-86zM282 736h-87v86h87v-86zM335 996l-197 -122h-89l175 122h111z" />
    <glyph glyph-name="idieresisacute" unicode="&#x1e2f;" horiz-adv-x="245" 
d="M162 0h-80v444h80v-444zM87 568h-87v86h87v-86zM247 568h-87v86h87v-86zM314 828l-197 -122h-89l175 122h111z" />
    <glyph glyph-name="Ldotbelow" unicode="&#x1e36;" horiz-adv-x="560" 
d="M516 0h-421v694h96v-626h38l243 2h44v-70zM328 -200h-96v96h96v-96z" />
    <glyph glyph-name="ldotbelow" unicode="&#x1e37;" horiz-adv-x="245" 
d="M162 0h-80v694h80v-694zM171 -200h-96v96h96v-96z" />
    <glyph glyph-name="Ldotbelowmacron" unicode="&#x1e38;" horiz-adv-x="560" 
d="M516 0h-421v694h96v-626h38l243 2h44v-70zM328 -200h-96v96h96v-96zM328 756h-371v69h371v-69z" />
    <glyph glyph-name="ldotbelowmacron" unicode="&#x1e39;" horiz-adv-x="245" 
d="M162 0h-80v694h80v-694zM171 -200h-96v96h96v-96zM320 756h-371v69h371v-69z" />
    <glyph glyph-name="Mdotbelow" unicode="&#x1e42;" horiz-adv-x="898" 
d="M795 0h-82v616h-1q-20 -71 -89 -242l-138 -352h-76l-33 84l-110 282q-68 174 -81 228h-1v-616h-82v694h120l18 -45l133 -341q62 -157 75 -210h1q11 46 92 254l134 342h120v-694zM497 -200h-96v96h96v-96z" />
    <glyph glyph-name="mdotbelow" unicode="&#x1e43;" horiz-adv-x="816" 
d="M734 0h-83v290q0 13 -0.5 22t-6 25.5t-15 26.5t-30 18t-48.5 8q-52 0 -77 -44t-25 -102v-244h-83v290q0 13 -0.5 22t-6 25.5t-15 26.5t-30 18t-48.5 8q-52 0 -77 -44t-25 -102v-244h-83v450h77v-71q58 76 150 76q101 0 130 -82q63 82 155 82q141 0 141 -158v-297z
M456 -200h-96v96h96v-96z" />
    <glyph glyph-name="Ndotaccent" unicode="&#x1e44;" horiz-adv-x="727" 
d="M628 0h-132l-26 52q-5 7 -25 47l-264 517h-1v-616h-82v694h132l26 -52q5 -7 25 -47l264 -517h1v616h82v-694zM412 736h-96v96h96v-96z" />
    <glyph glyph-name="ndotaccent" unicode="&#x1e45;" horiz-adv-x="531" 
d="M449 0h-83v290q0 13 -0.5 22t-6 25.5t-15 26.5t-30 18t-48.5 8q-52 0 -77 -44t-25 -102v-244h-83v450h77v-71q58 76 150 76q141 0 141 -158v-297zM314 563h-96v96h96v-96z" />
    <glyph glyph-name="Ndotbelow" unicode="&#x1e46;" horiz-adv-x="727" 
d="M628 0h-132l-26 52q-5 7 -25 47l-264 517h-1v-616h-82v694h132l26 -52q5 -7 25 -47l264 -517h1v616h82v-694zM412 -200h-96v96h96v-96z" />
    <glyph glyph-name="ndotbelow" unicode="&#x1e47;" horiz-adv-x="531" 
d="M449 0h-83v290q0 13 -0.5 22t-6 25.5t-15 26.5t-30 18t-48.5 8q-52 0 -77 -44t-25 -102v-244h-83v450h77v-71q58 76 150 76q141 0 141 -158v-297zM314 -200h-96v96h96v-96z" />
    <glyph glyph-name="Rdotaccent" unicode="&#x1e58;" horiz-adv-x="666" 
d="M636 0h-96l-190 315h-160v-315h-93v694h252q107 0 183 -55t76 -132q0 -61 -48.5 -111t-125.5 -71zM521 507q0 56 -49.5 92t-134.5 36h-147v-255h147q87 0 135.5 37.5t48.5 89.5zM381 736h-96v96h96v-96z" />
    <glyph glyph-name="rdotaccent" unicode="&#x1e59;" horiz-adv-x="351" 
d="M336 383q-71 -1 -122 -47.5t-51 -122.5v-213h-80v450h74v-91q66 94 179 96v-72zM224 563h-96v96h96v-96z" />
    <glyph glyph-name="Rdotbelow" unicode="&#x1e5a;" horiz-adv-x="666" 
d="M636 0h-96l-190 315h-160v-315h-93v694h252q107 0 183 -55t76 -132q0 -61 -48.5 -111t-125.5 -71zM521 507q0 56 -49.5 92t-134.5 36h-147v-255h147q87 0 135.5 37.5t48.5 89.5zM381 -200h-96v96h96v-96z" />
    <glyph glyph-name="rdotbelow" unicode="&#x1e5b;" horiz-adv-x="351" 
d="M336 383q-71 -1 -122 -47.5t-51 -122.5v-213h-80v450h74v-91q66 94 179 96v-72zM171 -200h-96v96h96v-96z" />
    <glyph glyph-name="Rdotbelowmacron" unicode="&#x1e5c;" horiz-adv-x="666" 
d="M636 0h-96l-190 315h-160v-315h-93v694h252q107 0 183 -55t76 -132q0 -61 -48.5 -111t-125.5 -71zM521 507q0 56 -49.5 92t-134.5 36h-147v-255h147q87 0 135.5 37.5t48.5 89.5zM381 -200h-96v96h96v-96zM518 756h-371v69h371v-69z" />
    <glyph glyph-name="rdotbelowmacron" unicode="&#x1e5d;" horiz-adv-x="351" 
d="M336 383q-71 -1 -122 -47.5t-51 -122.5v-213h-80v450h74v-91q66 94 179 96v-72zM171 -200h-96v96h96v-96zM361 576h-371v69h371v-69z" />
    <glyph glyph-name="Sdotbelow" unicode="&#x1e62;" horiz-adv-x="571" 
d="M513 191q0 -86 -65.5 -149.5t-165.5 -63.5q-125 0 -236 69l16 87q101 -82 220 -82q64 0 105 38t41 90q0 43 -29 75.5t-67 44.5l-84 21q-31 8 -49.5 13.5t-50 24.5t-52.5 47q-39 53 -39 111q0 79 65 139t167 60q43 0 80 -8t56.5 -16t52.5 -25l-16 -87q-77 65 -174 65
q-65 0 -105.5 -35t-40.5 -80q0 -41 30 -70.5t72 -39.5l101 -24q64 -15 116 -71t52 -134zM334 -200h-96v96h96v-96z" />
    <glyph glyph-name="sdotbelow" unicode="&#x1e63;" horiz-adv-x="394" 
d="M370 129q0 -42 -16.5 -71.5t-44 -43.5t-54 -19.5t-54.5 -5.5q-89 0 -172 44l13 73q72 -50 159 -50q11 0 21.5 1.5t29.5 6.5t31 19.5t12 37.5t-17.5 39t-32.5 20.5t-39 8.5q-57 11 -81.5 19.5t-50.5 31.5q-40 40 -40 89q0 37 16 64t36 39.5t49 19.5t42 8t27 1
q78 0 149 -32l-13 -70q-71 39 -145 39q-86 0 -86 -59q0 -22 16 -36t30 -18t40 -9q37 -7 54 -11.5t36.5 -13t35.5 -22.5q49 -42 49 -100zM245 -200h-96v96h96v-96z" />
    <glyph glyph-name="Tdotbelow" unicode="&#x1e6c;" horiz-adv-x="702" 
d="M664 618h-60l-205 2v-620h-96v620l-205 -2h-61v70h627v-70zM399 -200h-96v96h96v-96z" />
    <glyph glyph-name="tdotbelow" unicode="&#x1e6d;" horiz-adv-x="371" 
d="M342 26q-74 -37 -152 -37q-86 0 -86 137v256h-85v62h88v127h74v-127h144v-62h-144v-238q0 -87 52 -87q50 0 92 32zM234 -200h-96v96h96v-96z" />
    <glyph glyph-name="Tlinebelow" unicode="&#x1e6e;" horiz-adv-x="702" 
d="M664 618h-60l-205 2v-620h-96v620l-205 -2h-61v70h627v-70zM536 -186h-371v69h371v-69z" />
    <glyph glyph-name="tlinebelow" unicode="&#x1e6f;" horiz-adv-x="371" 
d="M342 26q-74 -37 -152 -37q-86 0 -86 137v256h-85v62h88v127h74v-127h144v-62h-144v-238q0 -87 52 -87q50 0 92 32zM371 -186h-371v69h371v-69z" />
    <glyph glyph-name="Wgrave" unicode="&#x1e80;" horiz-adv-x="972" 
d="M957 694l-210 -694h-90l-92 307q-75 247 -82 309h-1q0 -17 -29 -120l-43 -153l-102 -343h-84l-210 694h92l86 -288q76 -257 85 -328l1 1q6 65 85 329l85 286h84l92 -308l47 -162q14 -52 23 -88.5t11 -47.5l2 -11q8 65 77 293l96 324h77zM581 746h-89l-197 122h111z" />
    <glyph glyph-name="wgrave" unicode="&#x1e81;" horiz-adv-x="702" 
d="M687 444l-141 -444h-91l-76 247q-5 17 -19 72q-12 62 -13 68h-1q-3 -42 -48 -194l-60 -193h-83l-141 444h80l60 -195q44 -145 48 -190h1q5 71 107 385h74l69 -222q38 -126 44 -166h1q7 59 112 388h77zM423 527h-65l-152 167h83z" />
    <glyph glyph-name="Wacute" unicode="&#x1e82;" horiz-adv-x="972" 
d="M957 694l-210 -694h-90l-92 307q-75 247 -82 309h-1q0 -17 -29 -120l-43 -153l-102 -343h-84l-210 694h92l86 -288q76 -257 85 -328l1 1q6 65 85 329l85 286h84l92 -308l47 -162q14 -52 23 -88.5t11 -47.5l2 -11q8 65 77 293l96 324h77zM677 868l-197 -122h-89l175 122
h111z" />
    <glyph glyph-name="wacute" unicode="&#x1e83;" horiz-adv-x="702" 
d="M687 444l-141 -444h-91l-76 247q-5 17 -19 72q-12 62 -13 68h-1q-3 -42 -48 -194l-60 -193h-83l-141 444h80l60 -195q44 -145 48 -190h1q5 71 107 385h74l69 -222q38 -126 44 -166h1q7 59 112 388h77zM496 694l-152 -167h-65l134 167h83z" />
    <glyph glyph-name="Wdieresis" unicode="&#x1e84;" horiz-adv-x="972" 
d="M957 694l-210 -694h-90l-92 307q-75 247 -82 309h-1q0 -17 -29 -120l-43 -153l-102 -343h-84l-210 694h92l86 -288q76 -257 85 -328l1 1q6 65 85 329l85 286h84l92 -308l47 -162q14 -52 23 -88.5t11 -47.5l2 -11q8 65 77 293l96 324h77zM436 736h-87v86h87v-86zM624 736
h-87v86h87v-86z" />
    <glyph glyph-name="wdieresis" unicode="&#x1e85;" horiz-adv-x="702" 
d="M687 444l-141 -444h-91l-76 247q-5 17 -19 72q-12 62 -13 68h-1q-3 -42 -48 -194l-60 -193h-83l-141 444h80l60 -195q44 -145 48 -190h1q5 71 107 385h74l69 -222q38 -126 44 -166h1q7 59 112 388h77zM315 568h-87v86h87v-86zM475 568h-87v86h87v-86z" />
    <glyph glyph-name="Zdotbelow" unicode="&#x1e92;" horiz-adv-x="628" 
d="M576 0h-519v45l390 584h-24l-259 -2h-93v67h499v-43l-390 -583h29l269 2h98v-70zM362 -200h-96v96h96v-96z" />
    <glyph glyph-name="zdotbelow" unicode="&#x1e93;" horiz-adv-x="447" 
d="M413 0h-384v43l268 339h-77q-6 0 -18 -0.5t-18 -0.5h-141v63h367v-41l-267 -338h84q6 0 18 0.5t18 0.5h150v-66zM272 -200h-96v96h96v-96z" />
    <glyph glyph-name="tdieresis" unicode="&#x1e97;" horiz-adv-x="371" 
d="M342 26q-74 -37 -152 -37q-86 0 -86 137v256h-85v62h88v127h74v-127h144v-62h-144v-238q0 -87 52 -87q50 0 92 32zM94 613h-87v86h87v-86zM282 613h-87v86h87v-86z" />
    <glyph glyph-name="Adotbelow" unicode="&#x1ea0;" horiz-adv-x="687" 
d="M657 0h-99l-77 199h-297l-76 -199h-79l268 694h92zM457 258l-125 362l-124 -362h249zM392 -200h-96v96h96v-96z" />
    <glyph glyph-name="adotbelow" unicode="&#x1ea1;" horiz-adv-x="494" 
d="M422 0h-80v38q-66 -49 -170 -49q-59 0 -88.5 41.5t-29.5 85.5q0 60 76.5 93.5t208.5 36.5v42q0 49 -24.5 79.5t-65.5 30.5q-84 0 -154 -52l-6 71q78 44 161 44q74 0 123 -49t49 -123v-289zM339 140v52q-15 0 -39.5 -2t-67.5 -8t-72 -23t-29 -41q0 -29 27 -46.5t67 -17.5
q46 0 78 19q17 10 25.5 23t9.5 21.5t1 22.5zM295 -200h-96v96h96v-96z" />
    <glyph glyph-name="Ahookabove" unicode="&#x1ea2;" horiz-adv-x="687" 
d="M657 0h-99l-77 199h-297l-76 -199h-79l268 694h92zM457 258l-125 362l-124 -362h249zM443 871q0 -31 -28 -51q-1 0 -16 -9q-27 -16 -38 -27t-11 -28v-19l-1 -1h-27l-1 1v19q0 67 54 96q14 7 14 19q0 20 -12 29q-11 8 -41 8q-50 0 -76 -44h-1h-1l-15 42v1q37 43 93 43
q51 0 79 -20q28 -22 28 -59z" />
    <glyph glyph-name="ahookabove" unicode="&#x1ea3;" horiz-adv-x="494" 
d="M422 0h-80v38q-66 -49 -170 -49q-59 0 -88.5 41.5t-29.5 85.5q0 60 76.5 93.5t208.5 36.5v42q0 49 -24.5 79.5t-65.5 30.5q-84 0 -154 -52l-6 71q78 44 161 44q74 0 123 -49t49 -123v-289zM339 140v52q-15 0 -39.5 -2t-67.5 -8t-72 -23t-29 -41q0 -29 27 -46.5t67 -17.5
q46 0 78 19q17 10 25.5 23t9.5 21.5t1 22.5zM347 639q0 -31 -28 -51q-1 0 -16 -9q-27 -16 -38 -27t-11 -28v-19l-1 -1h-27l-1 1v19q0 67 54 96q14 7 14 19q0 20 -12 29q-11 8 -41 8q-50 0 -76 -44h-1h-1l-15 42v1q37 43 93 43q51 0 79 -20q28 -22 28 -59z" />
    <glyph glyph-name="Acircumflexacute" unicode="&#x1ea4;" horiz-adv-x="687" 
d="M657 0h-99l-77 199h-297l-76 -199h-79l268 694h92zM457 258l-125 362l-124 -362h249zM499 736h-59l-97 97l-97 -97h-59l126 134h60zM486 1027l-197 -122h-89l175 122h111z" />
    <glyph glyph-name="acircumflexacute" unicode="&#x1ea5;" horiz-adv-x="494" 
d="M422 0h-80v38q-66 -49 -170 -49q-59 0 -88.5 41.5t-29.5 85.5q0 60 76.5 93.5t208.5 36.5v42q0 49 -24.5 79.5t-65.5 30.5q-84 0 -154 -52l-6 71q78 44 161 44q74 0 123 -49t49 -123v-289zM339 140v52q-15 0 -39.5 -2t-67.5 -8t-72 -23t-29 -41q0 -29 27 -46.5t67 -17.5
q46 0 78 19q17 10 25.5 23t9.5 21.5t1 22.5zM403 525h-59l-97 97l-97 -97h-59l126 134h60zM390 816l-197 -122h-89l175 122h111z" />
    <glyph glyph-name="Acircumflexgrave" unicode="&#x1ea6;" horiz-adv-x="687" 
d="M657 0h-99l-77 199h-297l-76 -199h-79l268 694h92zM457 258l-125 362l-124 -362h249zM499 736h-59l-97 97l-97 -97h-59l126 134h60zM486 905l-175 122h-111l197 -122h89z" />
    <glyph glyph-name="acircumflexgrave" unicode="&#x1ea7;" horiz-adv-x="494" 
d="M422 0h-80v38q-66 -49 -170 -49q-59 0 -88.5 41.5t-29.5 85.5q0 60 76.5 93.5t208.5 36.5v42q0 49 -24.5 79.5t-65.5 30.5q-84 0 -154 -52l-6 71q78 44 161 44q74 0 123 -49t49 -123v-289zM339 140v52q-15 0 -39.5 -2t-67.5 -8t-72 -23t-29 -41q0 -29 27 -46.5t67 -17.5
q46 0 78 19q17 10 25.5 23t9.5 21.5t1 22.5zM403 525h-59l-97 97l-97 -97h-59l126 134h60zM390 694l-175 122h-111l197 -122h89z" />
    <glyph glyph-name="Acircumflexhookabove" unicode="&#x1ea8;" horiz-adv-x="687" 
d="M657 0h-99l-77 199h-297l-76 -199h-79l268 694h92zM457 258l-125 362l-124 -362h249zM499 736h-59l-97 97l-97 -97h-59l126 134h60zM543 1020q0 -31 -28 -51q-1 0 -16 -9q-27 -16 -38 -27t-11 -28v-19l-1 -1h-27l-1 1v19q0 67 54 96q14 7 14 19q0 20 -12 29q-11 8 -41 8
q-50 0 -76 -44h-1h-1l-15 42v1q37 43 93 43q51 0 79 -20q28 -22 28 -59z" />
    <glyph glyph-name="acircumflexhookabove" unicode="&#x1ea9;" horiz-adv-x="494" 
d="M422 0h-80v38q-66 -49 -170 -49q-59 0 -88.5 41.5t-29.5 85.5q0 60 76.5 93.5t208.5 36.5v42q0 49 -24.5 79.5t-65.5 30.5q-84 0 -154 -52l-6 71q78 44 161 44q74 0 123 -49t49 -123v-289zM339 140v52q-15 0 -39.5 -2t-67.5 -8t-72 -23t-29 -41q0 -29 27 -46.5t67 -17.5
q46 0 78 19q17 10 25.5 23t9.5 21.5t1 22.5zM403 525h-59l-97 97l-97 -97h-59l126 134h60zM447 809q0 -31 -28 -51q-1 0 -16 -9q-27 -16 -38 -27t-11 -28v-19l-1 -1h-27l-1 1v19q0 67 54 96q14 7 14 19q0 20 -12 29q-11 8 -41 8q-50 0 -76 -44h-1h-1l-15 42v1q37 43 93 43
q51 0 79 -20q28 -22 28 -59z" />
    <glyph glyph-name="Acircumflextilde" unicode="&#x1eaa;" horiz-adv-x="687" 
d="M657 0h-99l-77 199h-297l-76 -199h-79l268 694h92zM457 258l-125 362l-124 -362h249zM499 736h-59l-97 97l-97 -97h-59l126 134h60zM514 1048q-1 -55 -31 -89t-70 -34q-26 0 -74 31q-38 27 -63 27q-21 0 -29.5 -18t-8.5 -40h-65q1 55 31 89t70 34q26 0 74 -31
q38 -27 63 -27q21 0 29.5 18t8.5 40h65z" />
    <glyph glyph-name="acircumflextilde" unicode="&#x1eab;" horiz-adv-x="494" 
d="M422 0h-80v38q-66 -49 -170 -49q-59 0 -88.5 41.5t-29.5 85.5q0 60 76.5 93.5t208.5 36.5v42q0 49 -24.5 79.5t-65.5 30.5q-84 0 -154 -52l-6 71q78 44 161 44q74 0 123 -49t49 -123v-289zM339 140v52q-15 0 -39.5 -2t-67.5 -8t-72 -23t-29 -41q0 -29 27 -46.5t67 -17.5
q46 0 78 19q17 10 25.5 23t9.5 21.5t1 22.5zM403 525h-59l-97 97l-97 -97h-59l126 134h60zM418 837q-1 -55 -31 -89t-70 -34q-26 0 -74 31q-38 27 -63 27q-21 0 -29.5 -18t-8.5 -40h-65q1 55 31 89t70 34q26 0 74 -31q38 -27 63 -27q21 0 29.5 18t8.5 40h65z" />
    <glyph glyph-name="Acircumflexdotbelow" unicode="&#x1eac;" horiz-adv-x="687" 
d="M657 0h-99l-77 199h-297l-76 -199h-79l268 694h92zM457 258l-125 362l-124 -362h249zM499 736h-59l-97 97l-97 -97h-59l126 134h60zM392 -200h-96v96h96v-96z" />
    <glyph glyph-name="acircumflexdotbelow" unicode="&#x1ead;" horiz-adv-x="494" 
d="M422 0h-80v38q-66 -49 -170 -49q-59 0 -88.5 41.5t-29.5 85.5q0 60 76.5 93.5t208.5 36.5v42q0 49 -24.5 79.5t-65.5 30.5q-84 0 -154 -52l-6 71q78 44 161 44q74 0 123 -49t49 -123v-289zM339 140v52q-15 0 -39.5 -2t-67.5 -8t-72 -23t-29 -41q0 -29 27 -46.5t67 -17.5
q46 0 78 19q17 10 25.5 23t9.5 21.5t1 22.5zM402 525h-59l-96 123l-96 -123h-59l125 172h60zM295 -200h-96v96h96v-96z" />
    <glyph glyph-name="Abreveacute" unicode="&#x1eae;" horiz-adv-x="687" 
d="M657 0h-99l-77 199h-297l-76 -199h-79l268 694h92zM457 258l-125 362l-124 -362h249zM517 926q-1 -79 -53 -129.5t-122 -50.5q-68 0 -120.5 50t-53.5 130h65q2 -52 35.5 -80.5t74.5 -28.5q40 0 73.5 28.5t35.5 80.5h65zM486 1083l-197 -122h-89l175 122h111z" />
    <glyph glyph-name="abreveacute" unicode="&#x1eaf;" horiz-adv-x="494" 
d="M422 0h-80v38q-66 -49 -170 -49q-59 0 -88.5 41.5t-29.5 85.5q0 60 76.5 93.5t208.5 36.5v42q0 49 -24.5 79.5t-65.5 30.5q-84 0 -154 -52l-6 71q78 44 161 44q74 0 123 -49t49 -123v-289zM339 140v52q-15 0 -39.5 -2t-67.5 -8t-72 -23t-29 -41q0 -29 27 -46.5t67 -17.5
q46 0 78 19q17 10 25.5 23t9.5 21.5t1 22.5zM421 701q-1 -79 -53 -129.5t-122 -50.5q-68 0 -120.5 50t-53.5 130h65q2 -52 35.5 -80.5t74.5 -28.5q40 0 73.5 28.5t35.5 80.5h65zM390 858l-197 -122h-89l175 122h111z" />
    <glyph glyph-name="Abrevegrave" unicode="&#x1eb0;" horiz-adv-x="687" 
d="M657 0h-99l-77 199h-297l-76 -199h-79l268 694h92zM457 258l-125 362l-124 -362h249zM517 926q-1 -79 -53 -129.5t-122 -50.5q-68 0 -120.5 50t-53.5 130h65q2 -52 35.5 -80.5t74.5 -28.5q40 0 73.5 28.5t35.5 80.5h65zM486 961l-175 122h-111l197 -122h89z" />
    <glyph glyph-name="abrevegrave" unicode="&#x1eb1;" horiz-adv-x="494" 
d="M422 0h-80v38q-66 -49 -170 -49q-59 0 -88.5 41.5t-29.5 85.5q0 60 76.5 93.5t208.5 36.5v42q0 49 -24.5 79.5t-65.5 30.5q-84 0 -154 -52l-6 71q78 44 161 44q74 0 123 -49t49 -123v-289zM339 140v52q-15 0 -39.5 -2t-67.5 -8t-72 -23t-29 -41q0 -29 27 -46.5t67 -17.5
q46 0 78 19q17 10 25.5 23t9.5 21.5t1 22.5zM421 701q-1 -79 -53 -129.5t-122 -50.5q-68 0 -120.5 50t-53.5 130h65q2 -52 35.5 -80.5t74.5 -28.5q40 0 73.5 28.5t35.5 80.5h65zM390 736l-175 122h-111l197 -122h89z" />
    <glyph glyph-name="Abrevehookabove" unicode="&#x1eb2;" horiz-adv-x="687" 
d="M657 0h-99l-77 199h-297l-76 -199h-79l268 694h92zM457 258l-125 362l-124 -362h249zM517 926q-1 -79 -53 -129.5t-122 -50.5q-68 0 -120.5 50t-53.5 130h65q2 -52 35.5 -80.5t74.5 -28.5q40 0 73.5 28.5t35.5 80.5h65zM443 1076q0 -31 -28 -51q-1 0 -16 -9
q-27 -16 -38 -27t-11 -28v-19l-1 -1h-27l-1 1v19q0 67 54 96q14 7 14 19q0 20 -12 29q-11 8 -41 8q-50 0 -76 -44h-1h-1l-15 42v1q37 43 93 43q51 0 79 -20q28 -22 28 -59z" />
    <glyph glyph-name="abrevehookabove" unicode="&#x1eb3;" horiz-adv-x="494" 
d="M422 0h-80v38q-66 -49 -170 -49q-59 0 -88.5 41.5t-29.5 85.5q0 60 76.5 93.5t208.5 36.5v42q0 49 -24.5 79.5t-65.5 30.5q-84 0 -154 -52l-6 71q78 44 161 44q74 0 123 -49t49 -123v-289zM339 140v52q-15 0 -39.5 -2t-67.5 -8t-72 -23t-29 -41q0 -29 27 -46.5t67 -17.5
q46 0 78 19q17 10 25.5 23t9.5 21.5t1 22.5zM421 701q-1 -79 -53 -129.5t-122 -50.5q-68 0 -120.5 50t-53.5 130h65q2 -52 35.5 -80.5t74.5 -28.5q40 0 73.5 28.5t35.5 80.5h65zM347 851q0 -31 -28 -51q-1 0 -16 -9q-27 -16 -38 -27t-11 -28v-19l-1 -1h-27l-1 1v19
q0 67 54 96q14 7 14 19q0 20 -12 29q-11 8 -41 8q-50 0 -76 -44h-1h-1l-15 42v1q37 43 93 43q51 0 79 -20q28 -22 28 -59z" />
    <glyph glyph-name="Abrevetilde" unicode="&#x1eb4;" horiz-adv-x="687" 
d="M657 0h-99l-77 199h-297l-76 -199h-79l268 694h92zM457 258l-125 362l-124 -362h249zM517 926q-1 -79 -53 -129.5t-122 -50.5q-68 0 -120.5 50t-53.5 130h65q2 -52 35.5 -80.5t74.5 -28.5q40 0 73.5 28.5t35.5 80.5h65zM513 1104q-1 -55 -31 -89t-70 -34q-26 0 -74 31
q-38 27 -63 27q-21 0 -29.5 -18t-8.5 -40h-65q1 55 31 89t70 34q26 0 74 -31q38 -27 63 -27q21 0 29.5 18t8.5 40h65z" />
    <glyph glyph-name="abrevetilde" unicode="&#x1eb5;" horiz-adv-x="494" 
d="M422 0h-80v38q-66 -49 -170 -49q-59 0 -88.5 41.5t-29.5 85.5q0 60 76.5 93.5t208.5 36.5v42q0 49 -24.5 79.5t-65.5 30.5q-84 0 -154 -52l-6 71q78 44 161 44q74 0 123 -49t49 -123v-289zM339 140v52q-15 0 -39.5 -2t-67.5 -8t-72 -23t-29 -41q0 -29 27 -46.5t67 -17.5
q46 0 78 19q17 10 25.5 23t9.5 21.5t1 22.5zM421 701q-1 -79 -53 -129.5t-122 -50.5q-68 0 -120.5 50t-53.5 130h65q2 -52 35.5 -80.5t74.5 -28.5q40 0 73.5 28.5t35.5 80.5h65zM417 879q-1 -55 -31 -89t-70 -34q-26 0 -74 31q-38 27 -63 27q-21 0 -29.5 -18t-8.5 -40h-65
q1 55 31 89t70 34q26 0 74 -31q38 -27 63 -27q21 0 29.5 18t8.5 40h65z" />
    <glyph glyph-name="Abrevedotbelow" unicode="&#x1eb6;" horiz-adv-x="687" 
d="M657 0h-99l-77 199h-297l-76 -199h-79l268 694h92zM457 258l-125 362l-124 -362h249zM517 926q-1 -79 -53 -129.5t-122 -50.5q-68 0 -120.5 50t-53.5 130h65q2 -52 35.5 -80.5t74.5 -28.5q40 0 73.5 28.5t35.5 80.5h65zM392 -200h-96v96h96v-96z" />
    <glyph glyph-name="abrevedotbelow" unicode="&#x1eb7;" horiz-adv-x="494" 
d="M422 0h-80v38q-66 -49 -170 -49q-59 0 -88.5 41.5t-29.5 85.5q0 60 76.5 93.5t208.5 36.5v42q0 49 -24.5 79.5t-65.5 30.5q-84 0 -154 -52l-6 71q78 44 161 44q74 0 123 -49t49 -123v-289zM339 140v52q-15 0 -39.5 -2t-67.5 -8t-72 -23t-29 -41q0 -29 27 -46.5t67 -17.5
q46 0 78 19q17 10 25.5 23t9.5 21.5t1 22.5zM421 701q-1 -79 -53 -129.5t-122 -50.5q-68 0 -120.5 50t-53.5 130h65q2 -52 35.5 -80.5t74.5 -28.5q40 0 73.5 28.5t35.5 80.5h65zM295 -200h-96v96h96v-96z" />
    <glyph glyph-name="Edotbelow" unicode="&#x1eb8;" horiz-adv-x="617" 
d="M573 0h-478v691h464v-70h-86l-244 2h-38v-231h339v-65h-339v-253l282 2h100v-76zM357 -200h-96v96h96v-96z" />
    <glyph glyph-name="edotbelow" unicode="&#x1eb9;" horiz-adv-x="457" 
d="M427 219h-318q2 -69 45 -117t105 -48q83 0 157 53l6 -69q-77 -49 -164 -49q-94 0 -158.5 69t-64.5 168q0 97 60.5 166t147.5 69q94 0 144 -75q40 -62 40 -167zM367 278q-13 67 -49 92.5t-75 25.5q-46 0 -80.5 -34t-47.5 -84h252zM277 -200h-96v96h96v-96z" />
    <glyph glyph-name="Ehookabove" unicode="&#x1eba;" horiz-adv-x="617" 
d="M573 0h-478v691h464v-70h-86l-244 2h-38v-231h339v-65h-339v-253l282 2h100v-76zM409 871q0 -31 -28 -51q-1 0 -16 -9q-27 -16 -38 -27t-11 -28v-19l-1 -1h-27l-1 1v19q0 67 54 96q14 7 14 19q0 20 -12 29q-11 8 -41 8q-50 0 -76 -44h-1h-1l-15 42v1q37 43 93 43
q51 0 79 -20q28 -22 28 -59z" />
    <glyph glyph-name="ehookabove" unicode="&#x1ebb;" horiz-adv-x="457" 
d="M427 219h-318q2 -69 45 -117t105 -48q83 0 157 53l6 -69q-77 -49 -164 -49q-94 0 -158.5 69t-64.5 168q0 97 60.5 166t147.5 69q94 0 144 -75q40 -62 40 -167zM367 278q-13 67 -49 92.5t-75 25.5q-46 0 -80.5 -34t-47.5 -84h252zM328 639q0 -31 -28 -51q-1 0 -16 -9
q-27 -16 -38 -27t-11 -28v-19l-1 -1h-27l-1 1v19q0 67 54 96q14 7 14 19q0 20 -12 29q-11 8 -41 8q-50 0 -76 -44h-1h-1l-15 42v1q37 43 93 43q51 0 79 -20q28 -22 28 -59z" />
    <glyph glyph-name="Etilde" unicode="&#x1ebc;" horiz-adv-x="617" 
d="M573 0h-478v691h464v-70h-86l-244 2h-38v-231h339v-65h-339v-253l282 2h100v-76zM479 859q-1 -55 -31 -89t-70 -34q-26 0 -74 31q-38 27 -63 27q-21 0 -29.5 -18t-8.5 -40h-65q1 55 31 89t70 34q26 0 74 -31q38 -27 63 -27q21 0 29.5 18t8.5 40h65z" />
    <glyph glyph-name="etilde" unicode="&#x1ebd;" horiz-adv-x="457" 
d="M427 219h-318q2 -69 45 -117t105 -48q83 0 157 53l6 -69q-77 -49 -164 -49q-94 0 -158.5 69t-64.5 168q0 97 60.5 166t147.5 69q94 0 144 -75q40 -62 40 -167zM367 278q-13 67 -49 92.5t-75 25.5q-46 0 -80.5 -34t-47.5 -84h252zM398 672q-1 -55 -31 -89t-70 -34
q-26 0 -74 31q-38 27 -63 27q-21 0 -29.5 -18t-8.5 -40h-65q1 55 31 89t70 34q26 0 74 -31q38 -27 63 -27q21 0 29.5 18t8.5 40h65z" />
    <glyph glyph-name="Ecircumflexacute" unicode="&#x1ebe;" horiz-adv-x="617" 
d="M573 0h-478v691h464v-70h-86l-244 2h-38v-231h339v-65h-339v-253l282 2h100v-76zM465 736h-59l-97 97l-97 -97h-59l126 134h60zM452 1027l-197 -122h-89l175 122h111z" />
    <glyph glyph-name="ecircumflexacute" unicode="&#x1ebf;" horiz-adv-x="457" 
d="M427 219h-318q2 -69 45 -117t105 -48q83 0 157 53l6 -69q-77 -49 -164 -49q-94 0 -158.5 69t-64.5 168q0 97 60.5 166t147.5 69q94 0 144 -75q40 -62 40 -167zM367 278q-13 67 -49 92.5t-75 25.5q-46 0 -80.5 -34t-47.5 -84h252zM384 525h-59l-97 97l-97 -97h-59l126 134
h60zM371 816l-197 -122h-89l175 122h111z" />
    <glyph glyph-name="Ecircumflexgrave" unicode="&#x1ec0;" horiz-adv-x="617" 
d="M573 0h-478v691h464v-70h-86l-244 2h-38v-231h339v-65h-339v-253l282 2h100v-76zM465 736h-59l-97 97l-97 -97h-59l126 134h60zM452 905l-175 122h-111l197 -122h89z" />
    <glyph glyph-name="ecircumflexgrave" unicode="&#x1ec1;" horiz-adv-x="457" 
d="M427 219h-318q2 -69 45 -117t105 -48q83 0 157 53l6 -69q-77 -49 -164 -49q-94 0 -158.5 69t-64.5 168q0 97 60.5 166t147.5 69q94 0 144 -75q40 -62 40 -167zM367 278q-13 67 -49 92.5t-75 25.5q-46 0 -80.5 -34t-47.5 -84h252zM384 525h-59l-97 97l-97 -97h-59l126 134
h60zM371 694l-175 122h-111l197 -122h89z" />
    <glyph glyph-name="Ecircumflexhookabove" unicode="&#x1ec2;" horiz-adv-x="617" 
d="M573 0h-478v691h464v-70h-86l-244 2h-38v-231h339v-65h-339v-253l282 2h100v-76zM465 736h-59l-97 97l-97 -97h-59l126 134h60zM509 1020q0 -31 -28 -51q-1 0 -16 -9q-27 -16 -38 -27t-11 -28v-19l-1 -1h-27l-1 1v19q0 67 54 96q14 7 14 19q0 20 -12 29q-11 8 -41 8
q-50 0 -76 -44h-1h-1l-15 42v1q37 43 93 43q51 0 79 -20q28 -22 28 -59z" />
    <glyph glyph-name="ecircumflexhookabove" unicode="&#x1ec3;" horiz-adv-x="457" 
d="M427 219h-318q2 -69 45 -117t105 -48q83 0 157 53l6 -69q-77 -49 -164 -49q-94 0 -158.5 69t-64.5 168q0 97 60.5 166t147.5 69q94 0 144 -75q40 -62 40 -167zM367 278q-13 67 -49 92.5t-75 25.5q-46 0 -80.5 -34t-47.5 -84h252zM384 525h-59l-97 97l-97 -97h-59l126 134
h60zM428 809q0 -31 -28 -51q-1 0 -16 -9q-27 -16 -38 -27t-11 -28v-19l-1 -1h-27l-1 1v19q0 67 54 96q14 7 14 19q0 20 -12 29q-11 8 -41 8q-50 0 -76 -44h-1h-1l-15 42v1q37 43 93 43q51 0 79 -20q28 -22 28 -59z" />
    <glyph glyph-name="Ecircumflextilde" unicode="&#x1ec4;" horiz-adv-x="617" 
d="M573 0h-478v691h464v-70h-86l-244 2h-38v-231h339v-65h-339v-253l282 2h100v-76zM465 736h-59l-97 97l-97 -97h-59l126 134h60zM480 1048q-1 -55 -31 -89t-70 -34q-26 0 -74 31q-38 27 -63 27q-21 0 -29.5 -18t-8.5 -40h-65q1 55 31 89t70 34q26 0 74 -31q38 -27 63 -27
q21 0 29.5 18t8.5 40h65z" />
    <glyph glyph-name="ecircumflextilde" unicode="&#x1ec5;" horiz-adv-x="457" 
d="M427 219h-318q2 -69 45 -117t105 -48q83 0 157 53l6 -69q-77 -49 -164 -49q-94 0 -158.5 69t-64.5 168q0 97 60.5 166t147.5 69q94 0 144 -75q40 -62 40 -167zM367 278q-13 67 -49 92.5t-75 25.5q-46 0 -80.5 -34t-47.5 -84h252zM384 525h-59l-97 97l-97 -97h-59l126 134
h60zM399 837q-1 -55 -31 -89t-70 -34q-26 0 -74 31q-38 27 -63 27q-21 0 -29.5 -18t-8.5 -40h-65q1 55 31 89t70 34q26 0 74 -31q38 -27 63 -27q21 0 29.5 18t8.5 40h65z" />
    <glyph glyph-name="Ecircumflexdotbelow" unicode="&#x1ec6;" horiz-adv-x="617" 
d="M573 0h-478v691h464v-70h-86l-244 2h-38v-231h339v-65h-339v-253l282 2h100v-76zM465 736h-59l-97 97l-97 -97h-59l126 134h60zM357 -200h-96v96h96v-96z" />
    <glyph glyph-name="ecircumflexdotbelow" unicode="&#x1ec7;" horiz-adv-x="457" 
d="M427 219h-318q2 -69 45 -117t105 -48q83 0 157 53l6 -69q-77 -49 -164 -49q-94 0 -158.5 69t-64.5 168q0 97 60.5 166t147.5 69q94 0 144 -75q40 -62 40 -167zM367 278q-13 67 -49 92.5t-75 25.5q-46 0 -80.5 -34t-47.5 -84h252zM383 525h-59l-96 123l-96 -123h-59
l125 172h60zM277 -200h-96v96h96v-96z" />
    <glyph glyph-name="Ihookabove" unicode="&#x1ec8;" horiz-adv-x="287" 
d="M191 0h-96v694h96v-694zM244 871q0 -31 -28 -51q-1 0 -16 -9q-27 -16 -38 -27t-11 -28v-19l-1 -1h-27l-1 1v19q0 67 54 96q14 7 14 19q0 20 -12 29q-11 8 -41 8q-50 0 -76 -44h-1h-1l-15 42v1q37 43 93 43q51 0 79 -20q28 -22 28 -59z" />
    <glyph glyph-name="ihookabove" unicode="&#x1ec9;" horiz-adv-x="245" 
d="M162 0h-80v444h80v-444zM223 639q0 -31 -28 -51q-1 0 -16 -9q-27 -16 -38 -27t-11 -28v-19l-1 -1h-27l-1 1v19q0 67 54 96q14 7 14 19q0 20 -12 29q-11 8 -41 8q-50 0 -76 -44h-1h-1l-15 42v1q37 43 93 43q51 0 79 -20q28 -22 28 -59z" />
    <glyph glyph-name="Idotbelow" unicode="&#x1eca;" horiz-adv-x="287" 
d="M191 0h-96v694h96v-694zM192 -200h-96v96h96v-96z" />
    <glyph glyph-name="idotbelow" unicode="&#x1ecb;" horiz-adv-x="245" 
d="M162 0h-80v444h80v-444zM171 563h-96v96h96v-96zM171 -200h-96v96h96v-96z" />
    <glyph glyph-name="Odotbelow" unicode="&#x1ecc;" horiz-adv-x="759" 
d="M701 344q0 -154 -95.5 -260t-226.5 -106t-226.5 106t-95.5 260q0 156 95.5 264t226.5 108t226.5 -108t95.5 -264zM605 359q0 130 -67.5 209.5t-158.5 79.5t-158.5 -79t-67.5 -210q0 -137 67 -224t159 -87t159 87t67 224zM428 -200h-96v96h96v-96z" />
    <glyph glyph-name="odotbelow" unicode="&#x1ecd;" 
d="M483 220q0 -97 -66.5 -164t-160.5 -67q-92 0 -159 66.5t-67 164.5q0 100 66.5 170.5t159.5 70.5q95 0 161 -71t66 -170zM400 230q0 81 -42.5 123.5t-101.5 42.5q-57 0 -100 -42t-43 -124q0 -81 41.5 -127t102.5 -46q59 0 101 45.5t42 127.5zM305 -200h-96v96h96v-96z" />
    <glyph glyph-name="Ohookabove" unicode="&#x1ece;" horiz-adv-x="759" 
d="M701 344q0 -154 -95.5 -260t-226.5 -106t-226.5 106t-95.5 260q0 156 95.5 264t226.5 108t226.5 -108t95.5 -264zM605 359q0 130 -67.5 209.5t-158.5 79.5t-158.5 -79t-67.5 -210q0 -137 67 -224t159 -87t159 87t67 224zM480 871q0 -31 -28 -51q-1 0 -16 -9
q-27 -16 -38 -27t-11 -28v-19l-1 -1h-27l-1 1v19q0 67 54 96q14 7 14 19q0 20 -12 29q-11 8 -41 8q-50 0 -76 -44h-1h-1l-15 42v1q37 43 93 43q51 0 79 -20q28 -22 28 -59z" />
    <glyph glyph-name="ohookabove" unicode="&#x1ecf;" 
d="M483 220q0 -97 -66.5 -164t-160.5 -67q-92 0 -159 66.5t-67 164.5q0 100 66.5 170.5t159.5 70.5q95 0 161 -71t66 -170zM400 230q0 81 -42.5 123.5t-101.5 42.5q-57 0 -100 -42t-43 -124q0 -81 41.5 -127t102.5 -46q59 0 101 45.5t42 127.5zM357 639q0 -31 -28 -51
q-1 0 -16 -9q-27 -16 -38 -27t-11 -28v-19l-1 -1h-27l-1 1v19q0 67 54 96q14 7 14 19q0 20 -12 29q-11 8 -41 8q-50 0 -76 -44h-1h-1l-15 42v1q37 43 93 43q51 0 79 -20q28 -22 28 -59z" />
    <glyph glyph-name="Ocircumflexacute" unicode="&#x1ed0;" horiz-adv-x="759" 
d="M701 344q0 -154 -95.5 -260t-226.5 -106t-226.5 106t-95.5 260q0 156 95.5 264t226.5 108t226.5 -108t95.5 -264zM605 359q0 130 -67.5 209.5t-158.5 79.5t-158.5 -79t-67.5 -210q0 -137 67 -224t159 -87t159 87t67 224zM536 736h-59l-97 97l-97 -97h-59l126 134h60z
M523 1027l-197 -122h-89l175 122h111z" />
    <glyph glyph-name="ocircumflexacute" unicode="&#x1ed1;" 
d="M483 220q0 -97 -66.5 -164t-160.5 -67q-92 0 -159 66.5t-67 164.5q0 100 66.5 170.5t159.5 70.5q95 0 161 -71t66 -170zM400 230q0 81 -42.5 123.5t-101.5 42.5q-57 0 -100 -42t-43 -124q0 -81 41.5 -127t102.5 -46q59 0 101 45.5t42 127.5zM413 525h-59l-97 97l-97 -97
h-59l126 134h60zM400 816l-197 -122h-89l175 122h111z" />
    <glyph glyph-name="Ocircumflexgrave" unicode="&#x1ed2;" horiz-adv-x="759" 
d="M701 344q0 -154 -95.5 -260t-226.5 -106t-226.5 106t-95.5 260q0 156 95.5 264t226.5 108t226.5 -108t95.5 -264zM605 359q0 130 -67.5 209.5t-158.5 79.5t-158.5 -79t-67.5 -210q0 -137 67 -224t159 -87t159 87t67 224zM536 736h-59l-97 97l-97 -97h-59l126 134h60z
M523 905l-175 122h-111l197 -122h89z" />
    <glyph glyph-name="ocircumflexgrave" unicode="&#x1ed3;" 
d="M483 220q0 -97 -66.5 -164t-160.5 -67q-92 0 -159 66.5t-67 164.5q0 100 66.5 170.5t159.5 70.5q95 0 161 -71t66 -170zM400 230q0 81 -42.5 123.5t-101.5 42.5q-57 0 -100 -42t-43 -124q0 -81 41.5 -127t102.5 -46q59 0 101 45.5t42 127.5zM413 525h-59l-97 97l-97 -97
h-59l126 134h60zM400 694l-175 122h-111l197 -122h89z" />
    <glyph glyph-name="Ocircumflexhookabove" unicode="&#x1ed4;" horiz-adv-x="759" 
d="M701 344q0 -154 -95.5 -260t-226.5 -106t-226.5 106t-95.5 260q0 156 95.5 264t226.5 108t226.5 -108t95.5 -264zM605 359q0 130 -67.5 209.5t-158.5 79.5t-158.5 -79t-67.5 -210q0 -137 67 -224t159 -87t159 87t67 224zM536 736h-59l-97 97l-97 -97h-59l126 134h60z
M580 1020q0 -31 -28 -51q-1 0 -16 -9q-27 -16 -38 -27t-11 -28v-19l-1 -1h-27l-1 1v19q0 67 54 96q14 7 14 19q0 20 -12 29q-11 8 -41 8q-50 0 -76 -44h-1h-1l-15 42v1q37 43 93 43q51 0 79 -20q28 -22 28 -59z" />
    <glyph glyph-name="ocircumflexhookabove" unicode="&#x1ed5;" 
d="M483 220q0 -97 -66.5 -164t-160.5 -67q-92 0 -159 66.5t-67 164.5q0 100 66.5 170.5t159.5 70.5q95 0 161 -71t66 -170zM400 230q0 81 -42.5 123.5t-101.5 42.5q-57 0 -100 -42t-43 -124q0 -81 41.5 -127t102.5 -46q59 0 101 45.5t42 127.5zM413 525h-59l-97 97l-97 -97
h-59l126 134h60zM457 809q0 -31 -28 -51q-1 0 -16 -9q-27 -16 -38 -27t-11 -28v-19l-1 -1h-27l-1 1v19q0 67 54 96q14 7 14 19q0 20 -12 29q-11 8 -41 8q-50 0 -76 -44h-1h-1l-15 42v1q37 43 93 43q51 0 79 -20q28 -22 28 -59z" />
    <glyph glyph-name="Ocircumflextilde" unicode="&#x1ed6;" horiz-adv-x="759" 
d="M701 344q0 -154 -95.5 -260t-226.5 -106t-226.5 106t-95.5 260q0 156 95.5 264t226.5 108t226.5 -108t95.5 -264zM605 359q0 130 -67.5 209.5t-158.5 79.5t-158.5 -79t-67.5 -210q0 -137 67 -224t159 -87t159 87t67 224zM536 736h-59l-97 97l-97 -97h-59l126 134h60z
M551 1048q-1 -55 -31 -89t-70 -34q-26 0 -74 31q-38 27 -63 27q-21 0 -29.5 -18t-8.5 -40h-65q1 55 31 89t70 34q26 0 74 -31q38 -27 63 -27q21 0 29.5 18t8.5 40h65z" />
    <glyph glyph-name="ocircumflextilde" unicode="&#x1ed7;" 
d="M483 220q0 -97 -66.5 -164t-160.5 -67q-92 0 -159 66.5t-67 164.5q0 100 66.5 170.5t159.5 70.5q95 0 161 -71t66 -170zM400 230q0 81 -42.5 123.5t-101.5 42.5q-57 0 -100 -42t-43 -124q0 -81 41.5 -127t102.5 -46q59 0 101 45.5t42 127.5zM413 525h-59l-97 97l-97 -97
h-59l126 134h60zM428 837q-1 -55 -31 -89t-70 -34q-26 0 -74 31q-38 27 -63 27q-21 0 -29.5 -18t-8.5 -40h-65q1 55 31 89t70 34q26 0 74 -31q38 -27 63 -27q21 0 29.5 18t8.5 40h65z" />
    <glyph glyph-name="Ocircumflexdotbelow" unicode="&#x1ed8;" horiz-adv-x="759" 
d="M701 344q0 -154 -95.5 -260t-226.5 -106t-226.5 106t-95.5 260q0 156 95.5 264t226.5 108t226.5 -108t95.5 -264zM605 359q0 130 -67.5 209.5t-158.5 79.5t-158.5 -79t-67.5 -210q0 -137 67 -224t159 -87t159 87t67 224zM536 736h-59l-97 97l-97 -97h-59l126 134h60z
M428 -200h-96v96h96v-96z" />
    <glyph glyph-name="ocircumflexdotbelow" unicode="&#x1ed9;" 
d="M483 220q0 -97 -66.5 -164t-160.5 -67q-92 0 -159 66.5t-67 164.5q0 100 66.5 170.5t159.5 70.5q95 0 161 -71t66 -170zM400 230q0 81 -42.5 123.5t-101.5 42.5q-57 0 -100 -42t-43 -124q0 -81 41.5 -127t102.5 -46q59 0 101 45.5t42 127.5zM412 525h-59l-96 123
l-96 -123h-59l125 172h60zM305 -200h-96v96h96v-96z" />
    <glyph glyph-name="Ohornacute" unicode="&#x1eda;" horiz-adv-x="759" 
d="M700 344q0 -150 -94 -259q-45 -50 -104 -78.5t-124 -28.5q-64 0 -123.5 28.5t-103.5 78.5q-94 109 -94 259q0 154 94 263t227 109q86 0 161 -50l31 28h-23l-1 1v85l1 1h84l1 -1v-85l-65 -50q20 -15 39 -38q94 -109 94 -263zM604 361q0 122 -64 204q-66 83 -162 83
t-161 -83q-64 -82 -64 -204q0 -134 64 -223q65 -90 161 -90q97 0 162 90q64 89 64 223zM542 868l-197 -122h-89l175 122h111z" />
    <glyph glyph-name="ohornacute" unicode="&#x1edb;" 
d="M485 445l-71 -53l2 -2q66 -71 66 -171q0 -94 -66 -162t-160 -68t-160 68q-67 67 -67 162q0 101 67 171q66 71 160 71q73 0 133 -47l34 30h-24l-1 1v85l1 1h85l1 -1v-85zM400 231q0 73 -39 119q-40 46 -104 46t-104 -46q-39 -44 -39 -119q0 -79 39 -126q39 -48 104 -48
q64 0 104 48q39 47 39 126zM373 694l-152 -167h-65l134 167h83z" />
    <glyph glyph-name="Ohorngrave" unicode="&#x1edc;" horiz-adv-x="759" 
d="M700 344q0 -150 -94 -259q-45 -50 -104 -78.5t-124 -28.5q-64 0 -123.5 28.5t-103.5 78.5q-94 109 -94 259q0 154 94 263t227 109q86 0 161 -50l31 28h-23l-1 1v85l1 1h84l1 -1v-85l-65 -50q20 -15 39 -38q94 -109 94 -263zM604 361q0 122 -64 204q-66 83 -162 83
t-161 -83q-64 -82 -64 -204q0 -134 64 -223q65 -90 161 -90q97 0 162 90q64 89 64 223zM475 746h-89l-197 122h111z" />
    <glyph glyph-name="ohorngrave" unicode="&#x1edd;" 
d="M485 445l-71 -53l2 -2q66 -71 66 -171q0 -94 -66 -162t-160 -68t-160 68q-67 67 -67 162q0 101 67 171q66 71 160 71q73 0 133 -47l34 30h-24l-1 1v85l1 1h85l1 -1v-85zM400 231q0 73 -39 119q-40 46 -104 46t-104 -46q-39 -44 -39 -119q0 -79 39 -126q39 -48 104 -48
q64 0 104 48q39 47 39 126zM329 527h-65l-152 167h83z" />
    <glyph glyph-name="Ohornhookabove" unicode="&#x1ede;" horiz-adv-x="759" 
d="M700 344q0 -150 -94 -259q-45 -50 -104 -78.5t-124 -28.5q-64 0 -123.5 28.5t-103.5 78.5q-94 109 -94 259q0 154 94 263t227 109q86 0 161 -50l31 28h-23l-1 1v85l1 1h84l1 -1v-85l-65 -50q20 -15 39 -38q94 -109 94 -263zM604 361q0 122 -64 204q-66 83 -162 83
t-161 -83q-64 -82 -64 -204q0 -134 64 -223q65 -90 161 -90q97 0 162 90q64 89 64 223zM480 871q0 -31 -28 -51q-1 0 -16 -9q-27 -16 -38 -27t-11 -28v-19l-1 -1h-27l-1 1v19q0 67 54 96q14 7 14 19q0 20 -12 29q-11 8 -41 8q-50 0 -76 -44h-1h-1l-15 42v1q37 43 93 43
q51 0 79 -20q28 -22 28 -59z" />
    <glyph glyph-name="ohornhookabove" unicode="&#x1edf;" 
d="M485 445l-71 -53l2 -2q66 -71 66 -171q0 -94 -66 -162t-160 -68t-160 68q-67 67 -67 162q0 101 67 171q66 71 160 71q73 0 133 -47l34 30h-24l-1 1v85l1 1h85l1 -1v-85zM400 231q0 73 -39 119q-40 46 -104 46t-104 -46q-39 -44 -39 -119q0 -79 39 -126q39 -48 104 -48
q64 0 104 48q39 47 39 126zM357 639q0 -31 -28 -51q-1 0 -16 -9q-27 -16 -38 -27t-11 -28v-19l-1 -1h-27l-1 1v19q0 67 54 96q14 7 14 19q0 20 -12 29q-11 8 -41 8q-50 0 -76 -44h-1h-1l-15 42v1q37 43 93 43q51 0 79 -20q28 -22 28 -59z" />
    <glyph glyph-name="Ohorntilde" unicode="&#x1ee0;" horiz-adv-x="759" 
d="M700 344q0 -150 -94 -259q-45 -50 -104 -78.5t-124 -28.5q-64 0 -123.5 28.5t-103.5 78.5q-94 109 -94 259q0 154 94 263t227 109q86 0 161 -50l31 28h-23l-1 1v85l1 1h84l1 -1v-85l-65 -50q20 -15 39 -38q94 -109 94 -263zM604 361q0 122 -64 204q-66 83 -162 83
t-161 -83q-64 -82 -64 -204q0 -134 64 -223q65 -90 161 -90q97 0 162 90q64 89 64 223zM550 859q-1 -55 -31 -89t-70 -34q-26 0 -74 31q-38 27 -63 27q-21 0 -29.5 -18t-8.5 -40h-65q1 55 31 89t70 34q26 0 74 -31q38 -27 63 -27q21 0 29.5 18t8.5 40h65z" />
    <glyph glyph-name="ohorntilde" unicode="&#x1ee1;" 
d="M485 445l-71 -53l2 -2q66 -71 66 -171q0 -94 -66 -162t-160 -68t-160 68q-67 67 -67 162q0 101 67 171q66 71 160 71q73 0 133 -47l34 30h-24l-1 1v85l1 1h85l1 -1v-85zM400 231q0 73 -39 119q-40 46 -104 46t-104 -46q-39 -44 -39 -119q0 -79 39 -126q39 -48 104 -48
q64 0 104 48q39 47 39 126zM427 672q-1 -55 -31 -89t-70 -34q-26 0 -74 31q-38 27 -63 27q-21 0 -29.5 -18t-8.5 -40h-65q1 55 31 89t70 34q26 0 74 -31q38 -27 63 -27q21 0 29.5 18t8.5 40h65z" />
    <glyph glyph-name="Ohorndotbelow" unicode="&#x1ee2;" horiz-adv-x="759" 
d="M700 344q0 -150 -94 -259q-45 -50 -104 -78.5t-124 -28.5q-64 0 -123.5 28.5t-103.5 78.5q-94 109 -94 259q0 154 94 263t227 109q86 0 161 -50l31 28h-23l-1 1v85l1 1h84l1 -1v-85l-65 -50q20 -15 39 -38q94 -109 94 -263zM604 361q0 122 -64 204q-66 83 -162 83
t-161 -83q-64 -82 -64 -204q0 -134 64 -223q65 -90 161 -90q97 0 162 90q64 89 64 223zM428 -200h-96v96h96v-96z" />
    <glyph glyph-name="ohorndotbelow" unicode="&#x1ee3;" 
d="M485 445l-71 -53l2 -2q66 -71 66 -171q0 -94 -66 -162t-160 -68t-160 68q-67 67 -67 162q0 101 67 171q66 71 160 71q73 0 133 -47l34 30h-24l-1 1v85l1 1h85l1 -1v-85zM400 231q0 73 -39 119q-40 46 -104 46t-104 -46q-39 -44 -39 -119q0 -79 39 -126q39 -48 104 -48
q64 0 104 48q39 47 39 126zM305 -200h-96v96h96v-96z" />
    <glyph glyph-name="Udotbelow" unicode="&#x1ee4;" horiz-adv-x="707" 
d="M611 233q0 -108 -75 -181.5t-180 -73.5q-106 0 -183.5 73.5t-77.5 182.5v460h96v-462q0 -94 49 -144.5t117 -50.5q69 0 120 51t51 145v461h83v-461zM402 -200h-96v96h96v-96z" />
    <glyph glyph-name="udotbelow" unicode="&#x1ee5;" horiz-adv-x="531" 
d="M449 0h-80v48q-33 -29 -84 -44t-99 -15q-54 0 -79.5 28.5t-25.5 91.5v335h83v-330q0 -36 14.5 -51t64.5 -15q51 0 87 26t36 81v289h83v-444zM314 -200h-96v96h96v-96z" />
    <glyph glyph-name="Uhookabove" unicode="&#x1ee6;" horiz-adv-x="707" 
d="M611 233q0 -108 -75 -181.5t-180 -73.5q-106 0 -183.5 73.5t-77.5 182.5v460h96v-462q0 -94 49 -144.5t117 -50.5q69 0 120 51t51 145v461h83v-461zM453 871q0 -31 -28 -51q-1 0 -16 -9q-27 -16 -38 -27t-11 -28v-19l-1 -1h-27l-1 1v19q0 67 54 96q14 7 14 19
q0 20 -12 29q-11 8 -41 8q-50 0 -76 -44h-1h-1l-15 42v1q37 43 93 43q51 0 79 -20q28 -22 28 -59z" />
    <glyph glyph-name="uhookabove" unicode="&#x1ee7;" horiz-adv-x="531" 
d="M449 0h-80v48q-33 -29 -84 -44t-99 -15q-54 0 -79.5 28.5t-25.5 91.5v335h83v-330q0 -36 14.5 -51t64.5 -15q51 0 87 26t36 81v289h83v-444zM365 639q0 -31 -28 -51q-1 0 -16 -9q-27 -16 -38 -27t-11 -28v-19l-1 -1h-27l-1 1v19q0 67 54 96q14 7 14 19q0 20 -12 29
q-11 8 -41 8q-50 0 -76 -44h-1h-1l-15 42v1q37 43 93 43q51 0 79 -20q28 -22 28 -59z" />
    <glyph glyph-name="Uhornacute" unicode="&#x1ee8;" horiz-adv-x="707" 
d="M712 695l-1 -1l-102 -73v-390q0 -104 -74 -178q-75 -75 -180 -75q-106 0 -184 75q-76 74 -76 178v463h96v-463q0 -87 45 -139q46 -55 119 -55q77 0 124 55q47 54 47 139v463h83v-32l40 32h-23l-1 1v85l1 1h85l1 -1v-85zM516 868l-197 -122h-89l175 122h111z" />
    <glyph glyph-name="uhornacute" unicode="&#x1ee9;" horiz-adv-x="531" 
d="M551 445l-103 -74v-371h-80v47q-67 -58 -184 -58q-52 0 -78 29q-26 30 -26 92v334h84v-334q0 -38 17 -49q16 -13 69 -13q47 0 81 28.5t34 69.5v298h83v-33l40 33h-23l-1 1v85l1 1h85l1 -1v-85zM382 694l-152 -167h-65l134 167h83z" />
    <glyph glyph-name="Uhorngrave" unicode="&#x1eea;" horiz-adv-x="707" 
d="M712 695l-1 -1l-102 -73v-390q0 -104 -74 -178q-75 -75 -180 -75q-106 0 -184 75q-76 74 -76 178v463h96v-463q0 -87 45 -139q46 -55 119 -55q77 0 124 55q47 54 47 139v463h83v-32l40 32h-23l-1 1v85l1 1h85l1 -1v-85zM448 746h-89l-197 122h111z" />
    <glyph glyph-name="uhorngrave" unicode="&#x1eeb;" horiz-adv-x="531" 
d="M551 445l-103 -74v-371h-80v47q-67 -58 -184 -58q-52 0 -78 29q-26 30 -26 92v334h84v-334q0 -38 17 -49q16 -13 69 -13q47 0 81 28.5t34 69.5v298h83v-33l40 33h-23l-1 1v85l1 1h85l1 -1v-85zM337 527h-65l-152 167h83z" />
    <glyph glyph-name="Uhornhookabove" unicode="&#x1eec;" horiz-adv-x="707" 
d="M712 695l-1 -1l-102 -73v-390q0 -104 -74 -178q-75 -75 -180 -75q-106 0 -184 75q-76 74 -76 178v463h96v-463q0 -87 45 -139q46 -55 119 -55q77 0 124 55q47 54 47 139v463h83v-32l40 32h-23l-1 1v85l1 1h85l1 -1v-85zM453 871q0 -31 -28 -51q-1 0 -16 -9
q-27 -16 -38 -27t-11 -28v-19l-1 -1h-27l-1 1v19q0 67 54 96q14 7 14 19q0 20 -12 29q-11 8 -41 8q-50 0 -76 -44h-1h-1l-15 42v1q37 43 93 43q51 0 79 -20q28 -22 28 -59z" />
    <glyph glyph-name="uhornhookabove" unicode="&#x1eed;" horiz-adv-x="531" 
d="M551 445l-103 -74v-371h-80v47q-67 -58 -184 -58q-52 0 -78 29q-26 30 -26 92v334h84v-334q0 -38 17 -49q16 -13 69 -13q47 0 81 28.5t34 69.5v298h83v-33l40 33h-23l-1 1v85l1 1h85l1 -1v-85zM365 639q0 -31 -28 -51q-1 0 -16 -9q-27 -16 -38 -27t-11 -28v-19l-1 -1h-27
l-1 1v19q0 67 54 96q14 7 14 19q0 20 -12 29q-11 8 -41 8q-50 0 -76 -44h-1h-1l-15 42v1q37 43 93 43q51 0 79 -20q28 -22 28 -59z" />
    <glyph glyph-name="Uhorntilde" unicode="&#x1eee;" horiz-adv-x="707" 
d="M712 695l-1 -1l-102 -73v-390q0 -104 -74 -178q-75 -75 -180 -75q-106 0 -184 75q-76 74 -76 178v463h96v-463q0 -87 45 -139q46 -55 119 -55q77 0 124 55q47 54 47 139v463h83v-32l40 32h-23l-1 1v85l1 1h85l1 -1v-85zM523 859q-1 -55 -31 -89t-70 -34q-26 0 -74 31
q-38 27 -63 27q-21 0 -29.5 -18t-8.5 -40h-65q1 55 31 89t70 34q26 0 74 -31q38 -27 63 -27q21 0 29.5 18t8.5 40h65z" />
    <glyph glyph-name="uhorntilde" unicode="&#x1eef;" horiz-adv-x="531" 
d="M551 445l-103 -74v-371h-80v47q-67 -58 -184 -58q-52 0 -78 29q-26 30 -26 92v334h84v-334q0 -38 17 -49q16 -13 69 -13q47 0 81 28.5t34 69.5v298h83v-33l40 33h-23l-1 1v85l1 1h85l1 -1v-85zM435 672q-1 -55 -31 -89t-70 -34q-26 0 -74 31q-38 27 -63 27
q-21 0 -29.5 -18t-8.5 -40h-65q1 55 31 89t70 34q26 0 74 -31q38 -27 63 -27q21 0 29.5 18t8.5 40h65z" />
    <glyph glyph-name="Uhorndotbelow" unicode="&#x1ef0;" horiz-adv-x="707" 
d="M712 695l-1 -1l-102 -73v-390q0 -104 -74 -178q-75 -75 -180 -75q-106 0 -184 75q-76 74 -76 178v463h96v-463q0 -87 45 -139q46 -55 119 -55q77 0 124 55q47 54 47 139v463h83v-32l40 32h-23l-1 1v85l1 1h85l1 -1v-85zM402 -200h-96v96h96v-96z" />
    <glyph glyph-name="uhorndotbelow" unicode="&#x1ef1;" horiz-adv-x="531" 
d="M551 445l-103 -74v-371h-80v47q-67 -58 -184 -58q-52 0 -78 29q-26 30 -26 92v334h84v-334q0 -38 17 -49q16 -13 69 -13q47 0 81 28.5t34 69.5v298h83v-33l40 33h-23l-1 1v85l1 1h85l1 -1v-85zM314 -200h-96v96h96v-96z" />
    <glyph glyph-name="Ygrave" unicode="&#x1ef2;" horiz-adv-x="687" 
d="M683 694l-293 -416v-278h-93v278l-294 416h114l171 -244l65 -97l71 105l165 236h94zM438 746h-89l-197 122h111z" />
    <glyph glyph-name="ygrave" unicode="&#x1ef3;" horiz-adv-x="474" 
d="M459 444l-222 -530q-18 -42 -35.5 -68.5t-34 -36t-26 -12t-24.5 -2.5q-50 0 -74 8l-6 69q39 -17 81 -17q10 0 16.5 2t18.5 15t24 39l37 89l-200 444h84q73 -167 89 -207q54 -130 57 -178q3 47 34.5 132.5t101.5 252.5h79zM309 527h-65l-152 167h83z" />
    <glyph glyph-name="Ydotbelow" unicode="&#x1ef4;" horiz-adv-x="687" 
d="M683 694l-293 -416v-278h-93v278l-294 416h114l171 -244l65 -97l71 105l165 236h94zM392 -200h-96v96h96v-96z" />
    <glyph glyph-name="ydotbelow" unicode="&#x1ef5;" horiz-adv-x="474" 
d="M459 444l-222 -530q-18 -42 -35.5 -68.5t-34 -36t-26 -12t-24.5 -2.5q-50 0 -74 8l-6 69q39 -17 81 -17q10 0 16.5 2t18.5 15t24 39l37 89l-200 444h84q73 -167 89 -207q54 -130 57 -178q3 47 34.5 132.5t101.5 252.5h79zM403 -200h-96v96h96v-96z" />
    <glyph glyph-name="Yhookabove" unicode="&#x1ef6;" horiz-adv-x="687" 
d="M683 694l-293 -416v-278h-93v278l-294 416h114l171 -244l65 -97l71 105l165 236h94zM443 871q0 -31 -28 -51q-1 0 -16 -9q-27 -16 -38 -27t-11 -28v-19l-1 -1h-27l-1 1v19q0 67 54 96q14 7 14 19q0 20 -12 29q-11 8 -41 8q-50 0 -76 -44h-1h-1l-15 42v1q37 43 93 43
q51 0 79 -20q28 -22 28 -59z" />
    <glyph glyph-name="yhookabove" unicode="&#x1ef7;" horiz-adv-x="474" 
d="M459 444l-222 -530q-18 -42 -35.5 -68.5t-34 -36t-26 -12t-24.5 -2.5q-50 0 -74 8l-6 69q39 -17 81 -17q10 0 16.5 2t18.5 15t24 39l37 89l-200 444h84q73 -167 89 -207q54 -130 57 -178q3 47 34.5 132.5t101.5 252.5h79zM337 639q0 -31 -28 -51q-1 0 -16 -9
q-27 -16 -38 -27t-11 -28v-19l-1 -1h-27l-1 1v19q0 67 54 96q14 7 14 19q0 20 -12 29q-11 8 -41 8q-50 0 -76 -44h-1h-1l-15 42v1q37 43 93 43q51 0 79 -20q28 -22 28 -59z" />
    <glyph glyph-name="Ytilde" unicode="&#x1ef8;" horiz-adv-x="687" 
d="M683 694l-293 -416v-278h-93v278l-294 416h114l171 -244l65 -97l71 105l165 236h94zM513 859q-1 -55 -31 -89t-70 -34q-26 0 -74 31q-38 27 -63 27q-21 0 -29.5 -18t-8.5 -40h-65q1 55 31 89t70 34q26 0 74 -31q38 -27 63 -27q21 0 29.5 18t8.5 40h65z" />
    <glyph glyph-name="ytilde" unicode="&#x1ef9;" horiz-adv-x="474" 
d="M459 444l-222 -530q-18 -42 -35.5 -68.5t-34 -36t-26 -12t-24.5 -2.5q-50 0 -74 8l-6 69q39 -17 81 -17q10 0 16.5 2t18.5 15t24 39l37 89l-200 444h84q73 -167 89 -207q54 -130 57 -178q3 47 34.5 132.5t101.5 252.5h79zM407 672q-1 -55 -31 -89t-70 -34q-26 0 -74 31
q-38 27 -63 27q-21 0 -29.5 -18t-8.5 -40h-65q1 55 31 89t70 34q26 0 74 -31q38 -27 63 -27q21 0 29.5 18t8.5 40h65z" />
    <glyph glyph-name="uni2010" unicode="&#x2010;" horiz-adv-x="343" 
d="M308 191h-274v62h274v-62z" />
    <glyph glyph-name="uni2011" unicode="&#x2011;" horiz-adv-x="343" 
d="M308 191h-274v62h274v-62z" />
    <glyph glyph-name="endash" unicode="&#x2013;" 
d="M513 242h-513v65h513v-65z" />
    <glyph glyph-name="emdash" unicode="&#x2014;" horiz-adv-x="1028" 
d="M1027 242h-1027v65h1027v-65z" />
    <glyph glyph-name="dblverticalbar" unicode="&#x2016;" horiz-adv-x="412" 
d="M164 -215q0 -35 -21 -35q-22 0 -22 35v930q0 35 22 35q21 0 21 -35v-930zM290 -215q0 -35 -21 -35q-22 0 -22 35v930q0 35 22 35q21 0 21 -35v-930z" />
    <glyph glyph-name="quoteleft" unicode="&#x2018;" horiz-adv-x="286" 
d="M186 694l-27 -127h26v-86h-86v85l44 128h43z" />
    <glyph glyph-name="quoteright" unicode="&#x2019;" horiz-adv-x="286" 
d="M185 609l-44 -128h-43l27 127h-26v86h86v-85z" />
    <glyph glyph-name="quotesinglbase" unicode="&#x201a;" horiz-adv-x="286" 
d="M186 1l-44 -128h-43l27 127h-26v86h86v-85z" />
    <glyph glyph-name="quotedblleft" unicode="&#x201c;" horiz-adv-x="486" 
d="M186 694l-27 -127h26v-86h-86v85l44 128h43zM386 694l-27 -127h26v-86h-86v85l44 128h43z" />
    <glyph glyph-name="quotedblright" unicode="&#x201d;" horiz-adv-x="486" 
d="M187 609l-44 -128h-43l27 127h-26v86h86v-85zM387 609l-44 -128h-43l27 127h-26v86h86v-85z" />
    <glyph glyph-name="quotedblbase" unicode="&#x201e;" horiz-adv-x="486" 
d="M187 1l-44 -128h-43l27 127h-26v86h86v-85zM387 1l-44 -128h-43l27 127h-26v86h86v-85z" />
    <glyph glyph-name="dagger" unicode="&#x2020;" horiz-adv-x="457" 
d="M400 430q0 -6 -2 -12.5t-11.5 -14.5t-25.5 -8q-21 0 -63 12q-40 11 -58 12q3 -37 13 -84q11 -56 11 -116q0 -226 -21 -423q-2 -12 -15 -12q-6 0 -9 2.5t-4 7t-2 15.5q-20 206 -20 410q0 60 11 116q10 47 13 84q-18 -1 -58 -12q-42 -12 -63 -12q-22 0 -30.5 12t-8.5 24
q0 6 2 12.5t11.5 14.5t25.5 8q21 0 63 -12q40 -11 58 -12q0 34 -12 111q-12 75 -12 109q0 43 36 43q35 0 35 -43q0 -46 -12 -109q-12 -77 -12 -111q18 1 58 12q42 12 63 12q22 0 30.5 -12t8.5 -24z" />
    <glyph glyph-name="daggerdbl" unicode="&#x2021;" horiz-adv-x="457" 
d="M400 477q0 -6 -2 -12.5t-11.5 -14.5t-25.5 -8q-21 0 -63 12q-40 11 -58 12q1 -28 11 -79q13 -69 13 -96q0 -41 -36 -41q-35 0 -35 41q0 33 13 99q9 43 11 76q-18 -1 -58 -12q-42 -12 -63 -12q-22 0 -30.5 12t-8.5 24q0 6 2 12.5t11.5 14.5t25.5 8q21 0 63 -12
q40 -11 58 -12q-1 28 -11 79q-13 69 -13 96q0 41 36 41q35 0 35 -41q0 -33 -13 -99q-9 -43 -11 -76q18 1 58 12q42 12 63 12q22 0 30.5 -12t8.5 -24zM400 22q0 -15 -10 -25t-26 -10q-28 0 -66 11q-34 10 -58 12q1 -29 10 -71q14 -71 14 -103q0 -41 -36 -41q-35 0 -35 41
q0 28 10 83q12 56 14 91q-24 -3 -48 -10q-48 -13 -76 -13q-16 0 -26 10t-10 25q0 14 9.5 24.5t26.5 10.5q26 0 66 -11q34 -10 58 -12q-1 29 -10 71q-14 71 -14 103q0 41 36 41q35 0 35 -41q0 -28 -10 -83q-12 -56 -14 -91q29 4 45 8q54 15 80 15q15 0 25 -10t10 -25z" />
    <glyph glyph-name="bullet" unicode="&#x2022;" horiz-adv-x="799" 
d="M545 116h-290v290h290v-290z" />
    <glyph glyph-name="ellipsis" unicode="&#x2026;" horiz-adv-x="642" 
d="M186 0h-86v86h86v-86zM364 0h-86v86h86v-86zM542 0h-86v86h86v-86z" />
    <glyph glyph-name="perthousand" unicode="&#x2030;" horiz-adv-x="1181" 
d="M1118 145q0 -85 -42 -143t-99 -58t-100.5 57.5t-43.5 144.5q0 85 43 143t101 58q56 0 98.5 -58t42.5 -144zM763 145q0 -85 -42 -143t-99 -58t-100.5 57.5t-43.5 144.5q0 85 43 143t101 58q56 0 98.5 -58t42.5 -144zM349 548q0 -85 -42 -143t-99 -58t-100.5 57.5
t-43.5 144.5q0 85 43 143t101 58q56 0 98.5 -58t42.5 -144zM643 728q0 -7 -7 -18l-447 -749q-11 -17 -22 -17q-9 0 -15.5 6t-6.5 16q0 5 9 20l445 747q11 17 23 17q8 0 14.5 -6t6.5 -16zM1045 146q0 55 -19.5 95.5t-48.5 40.5q-6 0 -12.5 -1.5t-16.5 -9.5t-17.5 -21.5
t-13 -40.5t-5.5 -64t5.5 -64t13 -40.5t18 -21t16.5 -9t12 -1.5q28 0 48 40t20 97zM690 146q0 55 -19.5 95.5t-48.5 40.5q-6 0 -12.5 -1.5t-16.5 -9.5t-17.5 -21.5t-13 -40.5t-5.5 -64t5.5 -64t13 -40.5t18 -21t16.5 -9t12 -1.5q28 0 48 40t20 97zM276 549q0 55 -19.5 95.5
t-48.5 40.5q-6 0 -12.5 -1.5t-16.5 -9.5t-17.5 -21.5t-13 -40.5t-5.5 -64t5.5 -64t13 -40.5t18 -21t16.5 -9t12 -1.5q28 0 48 40t20 97z" />
    <glyph glyph-name="permyriad" unicode="&#x2031;" horiz-adv-x="1508" 
d="M1466 145q0 -85 -42 -143t-99 -58t-100.5 57.5t-43.5 144.5q0 85 43 143t101 58q56 0 98.5 -58t42.5 -144zM1111 145q0 -85 -42 -143t-99 -58t-100.5 57.5t-43.5 144.5q0 85 43 143t101 58q56 0 98.5 -58t42.5 -144zM756 145q0 -85 -42 -143t-99 -58t-100.5 57.5
t-43.5 144.5q0 85 43 143t101 58q56 0 98.5 -58t42.5 -144zM342 548q0 -85 -42 -143t-99 -58t-100.5 57.5t-43.5 144.5q0 85 43 143t101 58q56 0 98.5 -58t42.5 -144zM636 728q0 -7 -7 -18l-447 -749q-11 -17 -22 -17q-9 0 -15.5 6t-6.5 16q0 5 9 20l445 747q11 17 23 17
q8 0 14.5 -6t6.5 -16zM1393 146q0 55 -19.5 95.5t-48.5 40.5q-6 0 -12.5 -1.5t-16.5 -9.5t-17.5 -21.5t-13 -40.5t-5.5 -64t5.5 -64t13 -40.5t18 -21t16.5 -9t12 -1.5q28 0 48 40t20 97zM1038 146q0 55 -19.5 95.5t-48.5 40.5q-6 0 -12.5 -1.5t-16.5 -9.5t-17.5 -21.5
t-13 -40.5t-5.5 -64t5.5 -64t13 -40.5t18 -21t16.5 -9t12 -1.5q28 0 48 40t20 97zM683 146q0 55 -19.5 95.5t-48.5 40.5q-6 0 -12.5 -1.5t-16.5 -9.5t-17.5 -21.5t-13 -40.5t-5.5 -64t5.5 -64t13 -40.5t18 -21t16.5 -9t12 -1.5q28 0 48 40t20 97zM269 549q0 55 -19.5 95.5
t-48.5 40.5q-6 0 -12.5 -1.5t-16.5 -9.5t-17.5 -21.5t-13 -40.5t-5.5 -64t5.5 -64t13 -40.5t18 -21t16.5 -9t12 -1.5q28 0 48 40t20 97z" />
    <glyph glyph-name="guilsinglleft" unicode="&#x2039;" horiz-adv-x="343" 
d="M286 0h-65l-107 219l107 219h65l-88 -219z" />
    <glyph glyph-name="guilsinglright" unicode="&#x203a;" horiz-adv-x="343" 
d="M229 219l-107 -219h-65l88 219l-88 219h65z" />
    <glyph glyph-name="referencemark" unicode="&#x203b;" horiz-adv-x="799" 
d="M642 9q-6 -6 -11 -7.5t-11 2t-9 6t-9 8.5l-203 202l-202 -202q-25 -25 -40 -9q-15 15 10 40l202 202l-202 202q-25 25 -10 40q16 16 40 -10l202 -202l202 202q25 25 40 9q15 -15 -10 -40l-201 -201l202 -202q25 -25 10 -40zM436 463q0 -16 -10.5 -26.5t-26.5 -10.5
q-15 0 -26 10.5t-11 26.5q0 15 11 26t26 11q16 0 26.5 -11t10.5 -26zM225 251q0 -16 -11 -26.5t-26 -10.5q-16 0 -26.5 10.5t-10.5 26.5q0 15 10.5 26t26.5 11q15 0 26 -11t11 -26zM436 39q0 -15 -10.5 -26t-26.5 -11q-15 0 -26 11t-11 26t11 26t26 11q16 0 26.5 -11
t10.5 -26zM648 251q0 -16 -10.5 -26.5t-26.5 -10.5q-15 0 -26 10.5t-11 26.5q0 15 11 26t26 11q16 0 26.5 -11t10.5 -26z" />
    <glyph glyph-name="interrobang" unicode="&#x203d;" horiz-adv-x="485" 
d="M286 0h-86v86h86v-86zM414 549q0 -32 -9.5 -58.5t-17.5 -37t-24 -26.5q-85 -85 -85 -195v-55h-70v32q0 49 6 85l-5 344q-76 -8 -141 -53l-24 67q75 43 165 52l-1 24h69v-25q72 -9 104.5 -52t32.5 -102zM331 551q0 73 -55 86l-3 -197q12 18 31 38q27 27 27 73z" />
    <glyph glyph-name="uni203F" unicode="&#x203f;" horiz-adv-x="613" 
d="M533 -68q-1 -63 -91 -101q-57 -25 -136 -25q-77 0 -141 27q-84 37 -85 99h84q2 -18 18 -30t40.5 -17.5t45.5 -7.5t42 -2q47 0 91.5 13.5t47.5 43.5h84z" />
    <glyph glyph-name="uni2040" unicode="&#x2040;" horiz-adv-x="613" 
d="M533 569h-84q-2 18 -18 30t-40.5 17.5t-45.5 7.5t-42 2q-47 0 -91.5 -13.5t-47.5 -43.5h-84q1 63 91 101q57 25 136 25q77 0 141 -27q84 -37 85 -99z" />
    <glyph glyph-name="fraction" unicode="&#x2044;" horiz-adv-x="575" 
d="M518 674l-411 -654h-50l411 654h50z" />
    <glyph glyph-name="quillbracketleft" unicode="&#x2045;" horiz-adv-x="371" 
d="M318 -313q-100 0 -173 50.5t-73 146.5v207q0 66 48 112.5t112 46.5v2q-24 0 -57 13q-50 19 -77 57t-27 89q0 6 0.5 17.5t0.5 16.5v169q0 48 13 69q28 42 89.5 55t143.5 13v-65q-8 0 -24 0.5t-25 0.5q-23 0 -37.5 -1.5t-34.5 -6.5t-30.5 -19t-10.5 -36v-214
q0 -65 48.5 -95.5t112.5 -30.5v-66q-68 0 -114.5 -32t-46.5 -98v-216q0 -56 31 -88t83 -32h48v-65z" />
    <glyph glyph-name="quillbracketright" unicode="&#x2046;" horiz-adv-x="371" 
d="M299 -113q0 -46 -13 -67q-19 -30 -63 -46.5t-80.5 -19.5t-88.5 -3v65q9 0 25.5 -0.5t25.5 -0.5q22 0 36.5 1.5t34 7t29.5 19t10 35.5v214q0 64 -48 95t-114 31v66q67 0 114.5 31.5t47.5 94.5v214q0 22 -10.5 36t-30.5 19t-33.5 6.5t-35.5 1.5q-9 0 -25.5 -0.5t-25.5 -0.5
v65q52 0 88.5 -3t80.5 -19.5t63 -46.5q13 -21 13 -67v-196q0 -38 -7 -61q-14 -44 -59 -75t-94 -31v-2q24 0 57 -13q103 -39 103 -154v-196z" />
    <glyph glyph-name="discount" unicode="&#x2052;" 
d="M455 729q0 -9 -20 -46l-37 -75l-286 -568q-1 -2 -4 -9t-5 -11t-5.5 -9t-8 -7.5t-9.5 -2.5h-1q-10 0 -16 6.5t-6 15.5q0 7 4 16t11 20t9 16l43 87l225 445q6 12 24.5 53.5t32.5 64.5t24 25l5 1q9 0 14.5 -6.5t5.5 -15.5zM209 642q-5 -20 -30 -20h-74q-26 0 -26 25v63
q0 3 -0.5 8.5t-0.5 7.5q0 22 20 25q4 1 14 1h64q33 0 33 -31v-79zM435 33q0 -19 -7.5 -25.5t-23.5 -6.5h-67q-32 0 -32 26v87q4 14 17 16q4 1 14 1h71q28 0 28 -30v-68z" />
    <glyph glyph-name="uni2054" unicode="&#x2054;" horiz-adv-x="613" 
d="M533 -194h-84q-2 18 -18 30t-40.5 17.5t-45.5 7.5t-42 2q-47 0 -91.5 -13.5t-47.5 -43.5h-84q1 63 91 101q57 25 136 25q77 0 141 -27q84 -37 85 -99z" />
    <glyph glyph-name="colonmonetary" unicode="&#x20a1;" horiz-adv-x="657" 
d="M605 34q-55 -32 -94.5 -44t-104.5 -12h-11v-80h-68v89q-117 29 -189 130.5t-72 229.5t72.5 229.5t188.5 130.5v89h68v-80h10q96 0 188 -35l-16 -87q-81 54 -173 54h-9v-602h12q46 0 81 8.5t54.5 19t56.5 34.5zM327 61v572q-74 -30 -119.5 -109t-45.5 -177
q0 -95 44.5 -175.5t120.5 -110.5z" />
    <glyph glyph-name="lira" unicode="&#x20a4;" horiz-adv-x="687" 
d="M618 148q0 -69 -41.5 -119.5t-103.5 -50.5q-46 0 -108 16q-56 14 -88 20t-74 3t-60 -24l-64 54q46 54 74.5 100t37.5 97h-122v68h124l-3 14q-1 6 -5 18l-13 38h-103v68h82q-13 96 46.5 170t153.5 74q83 0 140.5 -61.5t57.5 -147.5h-84q0 52 -33 88.5t-81 36.5
q-58 0 -92.5 -48t-22.5 -109v-3h176v-68h-152l4 -10q7 -20 8 -26l6 -34h134v-68h-136q-10 -72 -52 -141q51 -1 161 -28q54 -13 88 -13q28 0 44.5 26t16.5 60h84z" />
    <glyph glyph-name="naira" unicode="&#x20a6;" horiz-adv-x="727" 
d="M673 244h-45v-244h-132l-26 52q-5 7 -25 47l-74 145h-191v-244h-82v244h-45v68h45v70h-45v68h45v244h132l26 -52q5 -7 25 -47l74 -145h191v244h82v-244h45v-68h-45v-70h45v-68zM266 450l-85 166h-1v-166h86zM336 312l-36 70h-120v-70h156zM546 312v70h-156l35 -70h121z
M546 78v166h-86l85 -166h1z" />
    <glyph glyph-name="won" unicode="&#x20a9;" horiz-adv-x="972" 
d="M957 244h-136l-74 -244h-90l-73 244h-203l-73 -244h-84l-74 244h-136v68h116l-22 70h-94v68h74l-74 244h92l73 -244h197l72 244h84l73 -244h203l72 244h77l-74 -244h74v-68h-94l-22 -70h116v-68zM563 312l-20 70h-122l-11 -39l-9 -31h162zM355 382h-156l20 -70h116z
M316 244h-78q34 -128 39 -166l1 1q4 37 38 165zM788 382h-163l21 -70h121l17 58zM747 244h-82l6 -20q14 -52 23 -88.5t11 -47.5l2 -11q5 40 40 167zM523 450q-36 130 -40 166h-1q0 -17 -29 -120l-13 -46h83z" />
    <glyph glyph-name="dong" unicode="&#x20ab;" horiz-adv-x="531" 
d="M504 543h-79v-508h-79v49q-65 -60 -146 -60q-70 0 -118 65t-48 157q0 91 49.5 156t120.5 65q81 0 145 -52v128h-148v65h148v86h76v-86h79v-65zM504 -68h-470v68h470v-68zM346 169v187q-35 49 -92 49q-54 0 -97.5 -39t-43.5 -121q0 -79 38.5 -119t91.5 -40q56 0 92 49
q11 14 11 34z" />
    <glyph glyph-name="Euro" unicode="&#x20ac;" horiz-adv-x="615" 
d="M564 34q-41 -34 -72 -45t-85 -11q-118 0 -201 108q-57 75 -74 170h-80l10 58h62q-1 11 -1 33t1 33h-72l10 58h70q17 95 74 170q83 108 201 108q77 0 145 -34l-15 -87q-53 53 -130 53t-133 -88q-32 -52 -47 -122h282l-10 -58h-279q-1 -11 -1 -33t1 -33h267l-10 -58h-250
q14 -68 47 -122q57 -88 133 -88q53 0 83.5 12.5t67.5 49.5z" />
    <glyph glyph-name="peso" unicode="&#x20b1;" horiz-adv-x="657" 
d="M599 491q0 -84 -69.5 -145t-173.5 -61h-163v-77h136v-68h-136v-140h-96v140h-77v68h77v486h259q104 0 173.5 -60.5t69.5 -142.5zM512 491q0 62 -48 103t-132 41h-142v-288h142q84 0 132 41t48 103z" />
    <glyph glyph-name="centigrade" unicode="&#x2103;" horiz-adv-x="885" 
d="M833 42q0 -7 -8 -12q-85 -51 -191 -51q-103 0 -182.5 55.5t-118.5 138.5t-39 176t41.5 177t118.5 137.5t170 53.5q100 0 197 -35l-15 -87q-8 3 -22 13q-76 41 -150 41q-76 0 -133.5 -47t-84 -114.5t-26.5 -140.5t27.5 -140.5t84 -113.5t130.5 -46q79 0 123 21
q16 6 41.5 22t30.5 19q0 -9 3 -32t3 -35zM228 582q0 -43 -29.5 -77t-72.5 -38h-10q-51 0 -83.5 34t-32.5 79q0 43 29.5 77t72.5 38h10q51 0 83.5 -34t32.5 -79zM185 582v6q-5 27 -25 45.5t-46 18.5q-28 0 -49.5 -21.5t-21.5 -50.5v-6q5 -27 25 -45.5t46 -18.5
q28 0 49.5 21.5t21.5 50.5z" />
    <glyph glyph-name="numero" unicode="&#x2116;" horiz-adv-x="840" 
d="M763 397q0 -50 -27.5 -93t-77.5 -43q-49 0 -77 43.5t-28 92.5q0 56 27.5 100.5t77.5 44.5t77.5 -46t27.5 -99zM761 154h-209v62h209v-62zM474 1h-132l-152 558q-2 8 -10 62v-620h-82v694h132l151 -552l10 -61v613h83v-694zM696 398q0 18 -1 29t-4 25.5t-11.5 21.5
t-21.5 7q-17 0 -26.5 -14.5t-11 -29.5t-1.5 -39q0 -71 39 -71q19 0 28.5 21.5t9.5 49.5z" />
    <glyph glyph-name="published" unicode="&#x2117;" horiz-adv-x="694" 
d="M694 347q0 -144 -101.5 -245.5t-245.5 -101.5t-245.5 101.5t-101.5 245.5t101.5 245.5t245.5 101.5t245.5 -101.5t101.5 -245.5zM654 347q0 127 -90 217t-217 90t-217 -90t-90 -217t90 -217t217 -90t217 90t90 217zM518 434q0 -51 -42 -87.5t-105 -36.5h-98v-173h-59v420
h157q63 0 105 -37t42 -86zM465 434q0 38 -29 62.5t-79 24.5h-86v-174h86q51 0 79.5 24.5t28.5 62.5z" />
    <glyph glyph-name="recipe" unicode="&#x211e;" horiz-adv-x="666" 
d="M636 0h-96l-44 74l-75 -66l-45 52l84 73l-110 182h-160v-315h-93v694h252q107 0 183 -55t76 -132q0 -61 -48.5 -111t-125.5 -71l86 -139l71 62l45 -51l-79 -70zM521 507q0 56 -49.5 92t-134.5 36h-147v-255h147q87 0 135.5 37.5t48.5 89.5z" />
    <glyph glyph-name="servicemark" unicode="&#x2120;" horiz-adv-x="882" 
d="M308 379q0 -51 -39.5 -89t-99.5 -38q-77 0 -141 41l9 52q62 -49 132 -49q39 0 63.5 23t24.5 54q0 26 -17.5 45t-40.5 27l-50 12q-64 15 -91 51q-24 32 -24 67q0 47 39 83t100 36q56 0 114 -29l-10 -52q-46 39 -104 39q-39 0 -63.5 -21t-24.5 -48q0 -25 18 -42.5t43 -23.5
l61 -15q38 -8 69.5 -42t31.5 -81zM785 265h-49v369h-1q-15 -51 -53 -145l-83 -211h-46l-20 50l-66 170q-43 115 -48 136h-1v-369h-49v416h72l11 -27l80 -204q40 -104 45 -126q4 15 55 152l81 205h72v-416z" />
    <glyph glyph-name="trademark" unicode="&#x2122;" horiz-adv-x="960" 
d="M398 652h-36l-123 2v-372h-57v372l-123 -2h-37v42h376v-42zM875 282h-49v369q-12 -43 -54 -145l-83 -211h-45l-20 50l-66 169q-35 86 -49 137v-369h-49v416h72l10 -27l80 -205q34 -78 45 -126h1q9 37 55 153l80 205h72v-416z" />
    <glyph glyph-name="ohm" unicode="&#x2126;" horiz-adv-x="742" 
d="M695 0h-252q2 87 65 215q29 59 41 86.5t25.5 74t13.5 85.5q0 82 -62 136t-156 54q-92 0 -154.5 -53.5t-62.5 -136.5q0 -52 18.5 -105t56.5 -129q38 -78 53.5 -127t16.5 -100h-252v75h87q6 0 18 -0.5t18 -0.5h53q-18 61 -81 163q-43 72 -63.5 122.5t-20.5 102.5
q0 104 90.5 179t223.5 75q131 0 222 -75t91 -179q0 -40 -15 -84.5t-30.5 -73t-47.5 -82.5q-53 -87 -72 -148h53q6 0 18 0.5t18 0.5h87v-75z" />
    <glyph glyph-name="uni2127" unicode="&#x2127;" horiz-adv-x="742" 
d="M696 619h-87q-6 0 -18 0.5t-18 0.5h-53q18 -61 81 -163q43 -72 63.5 -122.5t20.5 -102.5q0 -104 -90.5 -179t-223.5 -75q-131 0 -222 75t-91 179q0 40 15 84.5t30.5 73t47.5 82.5q53 87 72 148h-53q-6 0 -18 -0.5t-18 -0.5h-87v75h252q-2 -87 -65 -215q-29 -59 -41 -86.5
t-25.5 -74t-13.5 -85.5q0 -82 62 -136t156 -54q92 0 154.5 53.5t62.5 136.5q0 52 -18.5 105t-56.5 129q-38 78 -53.5 127t-16.5 100h252v-75z" />
    <glyph glyph-name="estimated" unicode="&#x212e;" horiz-adv-x="690" 
d="M660 362h-528q-12 0 -12 -11v-6l3 -40q13 -98 79 -170.5t160 -79.5h12q109 0 275 53q0 -9 3 -29.5t3 -31.5q0 -4 -2 -7t-4.5 -4t-7 -2t-6.5 -2l-51 -15q-80 -23 -204 -27h-19q-137 6 -233.5 109t-98.5 239v7q0 93 39.5 176t117 137t176.5 54q126 0 206 -77
q92 -87 92 -273zM575 421q-10 105 -69 165t-143 60q-90 0 -153.5 -66t-82.5 -159h448z" />
    <glyph glyph-name="uni2190" unicode="&#x2190;" horiz-adv-x="1028" 
d="M970 250q0 -21 -31 -21l-770 -1q7 -4 23 -20q88 -88 115 -219h-35q-7 0 -11 12q-9 73 -70 148.5t-134 100.5v1q68 24 122 87t76 137q1 4 3 15t5 16.5t9 5.5h35q-22 -110 -87 -189q-33 -40 -51 -50l771 -1q30 0 30 -22z" />
    <glyph glyph-name="uni2191" unicode="&#x2191;" 
d="M486 423q-130 29 -208 138v-734q0 -13 -10.5 -18.5t-21 0t-10.5 18.5v734q-77 -109 -207 -138v43q86 19 147.5 80.5t80.5 147.5q19 -86 81 -147.5t148 -80.5v-43z" />
    <glyph glyph-name="uni2192" unicode="&#x2192;" horiz-adv-x="1028" 
d="M970 250q-68 -24 -122 -87t-76 -137q-1 -4 -3 -15t-5 -16.5t-9 -5.5h-35q22 110 87 189q33 40 51 50l-770 1q-31 0 -31 21q0 22 31 22l770 1q-7 4 -23 20q-88 88 -115 219h35q3 0 5 -0.5t3 -2t1.5 -3t1 -4.5t0.5 -4q13 -66 52.5 -123t95.5 -94l30 -18q18 -8 26 -13z" />
    <glyph glyph-name="uni2193" unicode="&#x2193;" 
d="M486 34q-86 -19 -148 -80.5t-81 -147.5q-19 85 -80.5 147t-147.5 81v43q130 -29 207 -138v734q0 13 10.5 18.5t21 0t10.5 -18.5v-734q78 109 208 138v-43z" />
    <glyph glyph-name="minus" unicode="&#x2212;" horiz-adv-x="799" 
d="M741 250q0 -21 -33 -21h-618q-33 0 -33 21q0 22 37 22h610q37 0 37 -22z" />
    <glyph glyph-name="fraction.alt" unicode="&#x2215;" horiz-adv-x="0" 
d="M231 674l-411 -654h-50l411 654h50z" />
    <glyph glyph-name="asterisk.math" unicode="&#x2217;" 
d="M447 161q0 -15 -11 -27t-26 -12h-2q-12 0 -41 22q-11 7 -39 27t-43 29q0 -21 4 -64t4 -64v-9q0 -15 -11.5 -24.5t-25.5 -9.5q-15 0 -25.5 10t-10.5 26v7q0 9 2 27l3 57q0 5 1 14t1.5 16t0.5 14q-15 -9 -43 -29t-39 -27q-29 -22 -41 -22h-2q-15 0 -26 12t-11 27
q0 8 3 14.5t10 11.5t11 7.5t15.5 7.5t12.5 6q6 3 36 19.5t47 22.5v2q-17 6 -47 22.5t-36 19.5q-1 1 -12.5 6t-15.5 7.5t-11 7.5t-10 11.5t-3 14.5q0 15 11 27t26 12h2q12 0 41 -22q11 -7 39 -27t43 -29q0 7 -0.5 14t-1.5 16t-1 14l-3 57q-2 18 -2 27v7q0 16 10.5 26t25.5 10
q14 0 25.5 -9.5t11.5 -24.5v-9q0 -22 -4 -64t-4 -64q15 9 43 29t39 27q29 22 41 22h2q15 0 26 -12t11 -27q0 -8 -3 -14.5t-10 -11.5t-11 -7.5t-15.5 -7.5t-12.5 -6q-6 -3 -36 -19.5t-47 -22.5v-2q17 -6 47 -22.5t36 -19.5q1 -1 12.5 -6t15.5 -7.5t11 -7.5t10 -11.5t3 -14.5z
" />
    <glyph glyph-name="radical" unicode="&#x221a;" horiz-adv-x="485" 
d="M536 745q-2 -19 -30 -19h-77q-10 0 -13 -9l-197 -760q-1 -5 -3.5 -15.5t-3.5 -14.5t-4 -11.5t-6.5 -10.5t-9 -5.5t-12.5 -2.5h-15l-47 233l-50 -88l-33 32l-11 14l35 65l104 179l46 -235l10 33q22 88 76 289t79 310q1 3 2.5 9.5t2.5 9.5t3.5 8t5.5 7t8.5 4t12.5 2h76
q3 0 9 0.5t10 0.5q32 0 32 -22v-3z" />
    <glyph glyph-name="infinity" unicode="&#x221e;" horiz-adv-x="1028" 
d="M469 212l-45 58q-23 30 -39 48t-39.5 39.5t-49 31.5t-53.5 10q-57 0 -89.5 -52.5t-32.5 -124.5q0 -77 31 -132.5t89 -55.5q130 0 228 178zM907 222q0 77 -31 132.5t-89 55.5q-130 0 -228 -178l45 -58q23 -30 39 -48t39.5 -39.5t49 -31.5t53.5 -10q57 0 89.5 52.5
t32.5 124.5zM971 222q0 -99 -63 -171.5t-155 -72.5q-62 0 -112.5 39t-102.5 105l-23 30q-106 -176 -238 -176q-94 0 -157 72.5t-63 173.5q0 99 63 171.5t155 72.5q62 0 112.5 -39t102.5 -105l23 -30q106 176 238 176q94 0 157 -72.5t63 -173.5z" />
    <glyph glyph-name="anglearc" unicode="&#x2222;" horiz-adv-x="799" 
d="M741 21q0 -11 -8.5 -17.5t-19.5 -2.5l-138 50q-28 -71 -79 -135q-6 -8 -16 -8q-9 0 -15 6t-6 15t4 13q48 61 72 123l-464 166q-14 5 -14 20t14 20l464 166q-24 62 -72 123q-4 4 -4 13t6 15t15 6q10 0 16 -8q51 -64 79 -135l138 50q11 4 19.5 -2.5t8.5 -17.5
q0 -15 -14 -20l-138 -49q25 -76 25 -161t-25 -161l138 -49q14 -5 14 -20zM572 251q0 73 -22 147l-410 -147l410 -147q22 74 22 147z" />
    <glyph glyph-name="diameter" unicode="&#x2300;" horiz-adv-x="799" 
d="M741 572q0 -9 -6 -15l-95 -94q80 -91 80 -212q0 -133 -94 -227t-227 -94q-121 0 -211 79l-95 -95q-6 -6 -15 -6t-15 6t-6 15t6 15l95 95q-80 90 -80 212q0 133 94 227t227 94q121 0 212 -80l94 95q6 6 15 6t15 -6t6 -15zM678 251q0 104 -67 182l-393 -394q77 -67 181 -67
q115 0 197 82t82 197zM581 462q-77 68 -182 68q-115 0 -197 -82t-82 -197q0 -103 68 -182z" />
    <glyph glyph-name="angleleft" unicode="&#x2329;" horiz-adv-x="400" 
d="M342 -228q0 -9 -6.5 -15.5t-15.5 -6.5q-8 0 -14.5 7t-9.5 14.5t-6 17.5t-4 11l-142 366l-21 54q-10 22 -10 30q0 6 11 33l163 421q1 1 6 16.5t10 22t13 7.5l5 1q9 0 14.5 -7t5.5 -16q0 -8 -3 -17t-8.5 -20.5t-7.5 -16.5l-125 -323l-34 -88q-4 -8 -4 -13t4 -14t4 -10
l21 -54l140 -361q13 -31 14 -37v-2z" />
    <glyph glyph-name="angleright" unicode="&#x232a;" horiz-adv-x="400" 
d="M286 251q0 -5 -2 -10.5t-4.5 -12t-3.5 -9.5l-165 -425q-1 -1 -4.5 -12t-6 -15.5t-8 -10t-12.5 -6.5q-20 0 -23 18q0 8 3 16l53 137l90 231q21 54 26 68l8 19q0 1 1 3.5t1.5 4.5t0.5 4q0 3 -9 27l-162 417q-12 30 -12 35q0 6 5 13t12 7l5 1q8 0 14 -6.5t9 -13t6 -16.5
t4 -12l163 -420q11 -28 11 -32z" />
    <glyph glyph-name="blanksymbol" unicode="&#x2422;" horiz-adv-x="531" 
d="M494 223q0 -99 -55.5 -166.5t-134.5 -67.5q-48 0 -84.5 19.5t-53.5 38.5v-47h-83v466l-38 -33l-45 51l83 73v137h80v-67l52 45l45 -51l-97 -85v-139q74 58 167 58q71 0 117.5 -69t46.5 -163zM411 223q0 85 -42 126t-95 41q-68 0 -108 -56v-218q34 -62 98 -62
q56 0 101.5 41t45.5 128z" />
    <glyph glyph-name="uni2423" unicode="&#x2423;" 
d="M471 -97q0 -10 -7 -16.5t-16 -6.5h-382q-9 0 -16 6.5t-7 16.5v316q0 15 11.5 21t23 0t11.5 -21v-293h336v293q0 15 11.5 21t23 0t11.5 -21v-316z" />
    <glyph glyph-name="openbullet" unicode="&#x25e6;" horiz-adv-x="799" 
d="M545 116h-290v290h290v-290zM503 261q0 43 -30 73t-73 30t-73 -30t-30 -73t30 -73t73 -30t73 30t30 73z" />
    <glyph glyph-name="uni266A" unicode="&#x266a;" horiz-adv-x="628" 
d="M571 137q0 -10 -6 -18t-16 -8h-3q-8 4 -12.5 11.5t-5.5 13.5t-1 17t-1 17q-5 42 -20 90.5t-30 82t-41 88t-37 80.5v-414q-8 -61 -59 -95t-112 -34q-64 0 -117 38.5t-53 102.5q0 61 51.5 91.5t117.5 30.5q81 0 129 -37v501q0 31 23 31q13 0 17.5 -10.5t5 -33t1.5 -26.5
q7 -58 35.5 -129.5t57.5 -126.5t52.5 -127.5t23.5 -135.5z" />
    <glyph glyph-name="married" unicode="&#x26ad;" 
d="M608 252q0 -91 -64.5 -157t-153.5 -66q-36 0 -76 11t-57 31h-1q-20 -20 -57 -31t-72 -11q-91 0 -156.5 64.5t-65.5 156.5t65.5 157.5t157.5 65.5q77 0 129 -42q20 20 57 31t72 11q91 0 156.5 -64.5t65.5 -156.5zM534 252q0 63 -42.5 105t-104.5 42q-10 0 -21 -2t-18 -4.5
t-19.5 -7t-18.5 -6.5q40 -78 40 -128q0 -52 -40 -128q48 -19 77 -19q64 0 105.5 42.5t41.5 105.5zM203 123q-2 4 -7 12t-7 12q-26 45 -26 104q0 50 40 128q-6 2 -18.5 6.5t-19.5 7t-18 4.5t-21 2q-63 0 -105 -42t-42 -105t41.5 -105.5t105.5 -42.5q30 0 77 19zM269 251
l-5 43l-8 22q-12 -39 -12 -67q0 -36 13 -63l7 22z" />
    <glyph glyph-name="divorced" unicode="&#x26ae;" 
d="M171 252q0 -86 -53.5 -155t-140.5 -69q-81 0 -133.5 70t-52.5 153q0 82 46.5 146.5t128.5 75.5h10q85 0 140 -68t55 -153zM722 252q0 -83 -46.5 -148t-129.5 -75h-10q-86 0 -139.5 68t-53.5 154q0 83 47.5 148t130.5 74q3 0 7 0.5t7 0.5q81 0 134 -69t53 -153zM299 -113
h-84v728h84v-728zM89 253q0 57 -28.5 101t-82.5 44q-55 0 -83.5 -45t-28.5 -102q0 -58 29 -102.5t84 -44.5q97 0 109 136q0 2 0.5 6t0.5 7zM647 251q0 58 -29 102.5t-83 44.5q-59 0 -85 -47.5t-26 -109.5q14 -137 110 -137q55 0 84 44.5t29 102.5z" />
    <glyph glyph-name="dblbracketleft" unicode="&#x27e6;" horiz-adv-x="414" 
d="M391 -249h-271v1000h271v-43h-100v-914h100v-43zM248 -206v914h-85v-914h85z" />
    <glyph glyph-name="dblbracketright" unicode="&#x27e7;" horiz-adv-x="414" 
d="M293 -249h-270v43h99v914h-99v43h270v-1000zM250 -206v914h-85v-914h85z" />
    <glyph glyph-name="acute.cap" unicode="&#xea00;" 
d="M448 618l-197 -122h-89l175 122h111z" />
    <glyph glyph-name="uni0301.cap" unicode="&#xea01;" horiz-adv-x="0" 
d="M-102 944l-152 -167h-65l134 167h83z" />
    <glyph glyph-name="breve.cap" unicode="&#xea02;" 
d="M431 676q-1 -79 -53 -129.5t-122 -50.5q-68 0 -120.5 50t-53.5 130h65q2 -52 35.5 -80.5t74.5 -28.5q40 0 73.5 28.5t35.5 80.5h65z" />
    <glyph glyph-name="space_uni0306_uni0301.cap" unicode="&#xea03;" 
d="M431 676q-1 -79 -53 -129.5t-122 -50.5q-68 0 -120.5 50t-53.5 130h65q2 -52 35.5 -80.5t74.5 -28.5q40 0 73.5 28.5t35.5 80.5h65zM400 833l-197 -122h-89l175 122h111z" />
    <glyph glyph-name="space_uni0306_uni0301" unicode="&#xea04;" 
d="M431 701q-1 -79 -53 -129.5t-122 -50.5q-68 0 -120.5 50t-53.5 130h65q2 -52 35.5 -80.5t74.5 -28.5q40 0 73.5 28.5t35.5 80.5h65zM400 858l-197 -122h-89l175 122h111z" />
    <glyph glyph-name="space_uni032E" unicode="&#xea05;" 
d="M431 -62q-1 -79 -53 -129.5t-122 -50.5q-68 0 -120.5 50t-53.5 130h65q2 -52 35.5 -80.5t74.5 -28.5q40 0 73.5 28.5t35.5 80.5h65z" />
    <glyph glyph-name="space_uni032F" unicode="&#xea06;" 
d="M431 -242h-65q-2 52 -35.5 80.5t-74.5 28.5q-40 0 -73.5 -28.5t-35.5 -80.5h-65q1 79 53 129.5t122 50.5q68 0 120.5 -50t53.5 -130z" />
    <glyph glyph-name="uni0306.cap" unicode="&#xea07;" horiz-adv-x="0" 
d="M-73 951q-1 -79 -53 -129.5t-122 -50.5q-68 0 -120.5 50t-53.5 130h65q2 -52 35.5 -80.5t74.5 -28.5q40 0 73.5 28.5t35.5 80.5h65z" />
    <glyph glyph-name="space_uni0306_uni0300.cap" unicode="&#xea08;" 
d="M431 676q-1 -79 -53 -129.5t-122 -50.5q-68 0 -120.5 50t-53.5 130h65q2 -52 35.5 -80.5t74.5 -28.5q40 0 73.5 28.5t35.5 80.5h65zM400 711l-175 122h-111l197 -122h89z" />
    <glyph glyph-name="space_uni0306_uni0300" unicode="&#xea09;" 
d="M431 701q-1 -79 -53 -129.5t-122 -50.5q-68 0 -120.5 50t-53.5 130h65q2 -52 35.5 -80.5t74.5 -28.5q40 0 73.5 28.5t35.5 80.5h65zM400 736l-175 122h-111l197 -122h89z" />
    <glyph glyph-name="space_uni0306_uni0309.cap" unicode="&#xea0a;" 
d="M431 676q-1 -79 -53 -129.5t-122 -50.5q-68 0 -120.5 50t-53.5 130h65q2 -52 35.5 -80.5t74.5 -28.5q40 0 73.5 28.5t35.5 80.5h65zM357 826q0 -31 -28 -51q-1 0 -16 -9q-27 -16 -38 -27t-11 -28v-19l-1 -1h-27l-1 1v19q0 67 54 96q14 7 14 19q0 20 -12 29q-11 8 -41 8
q-50 0 -76 -44h-1h-1l-15 42v1q37 43 93 43q51 0 79 -20q28 -22 28 -59z" />
    <glyph glyph-name="space_uni0306_uni0309" unicode="&#xea0b;" 
d="M431 701q-1 -79 -53 -129.5t-122 -50.5q-68 0 -120.5 50t-53.5 130h65q2 -52 35.5 -80.5t74.5 -28.5q40 0 73.5 28.5t35.5 80.5h65zM357 851q0 -31 -28 -51q-1 0 -16 -9q-27 -16 -38 -27t-11 -28v-19l-1 -1h-27l-1 1v19q0 67 54 96q14 7 14 19q0 20 -12 29q-11 8 -41 8
q-50 0 -76 -44h-1h-1l-15 42v1q37 43 93 43q51 0 79 -20q28 -22 28 -59z" />
    <glyph glyph-name="space_uni0311.cap" unicode="&#xea0c;" 
d="M431 496h-65q-2 52 -35.5 80.5t-74.5 28.5q-40 0 -73.5 -28.5t-35.5 -80.5h-65q1 79 53 129.5t122 50.5q68 0 120.5 -50t53.5 -130z" />
    <glyph glyph-name="space_uni0311" unicode="&#xea0d;" 
d="M431 521h-65q-2 52 -35.5 80.5t-74.5 28.5q-40 0 -73.5 -28.5t-35.5 -80.5h-65q1 79 53 129.5t122 50.5q68 0 120.5 -50t53.5 -130z" />
    <glyph glyph-name="uni0311.cap" unicode="&#xea0e;" horiz-adv-x="0" 
d="M-73 771h-65q-2 52 -35.5 80.5t-74.5 28.5q-40 0 -73.5 -28.5t-35.5 -80.5h-65q1 79 53 129.5t122 50.5q68 0 120.5 -50t53.5 -130z" />
    <glyph glyph-name="space_uni0306_uni0303.cap" unicode="&#xea0f;" 
d="M431 676q-1 -79 -53 -129.5t-122 -50.5q-68 0 -120.5 50t-53.5 130h65q2 -52 35.5 -80.5t74.5 -28.5q40 0 73.5 28.5t35.5 80.5h65zM427 854q-1 -55 -31 -89t-70 -34q-26 0 -74 31q-38 27 -63 27q-21 0 -29.5 -18t-8.5 -40h-65q1 55 31 89t70 34q26 0 74 -31
q38 -27 63 -27q21 0 29.5 18t8.5 40h65z" />
    <glyph glyph-name="space_uni0306_uni0303" unicode="&#xea10;" 
d="M431 701q-1 -79 -53 -129.5t-122 -50.5q-68 0 -120.5 50t-53.5 130h65q2 -52 35.5 -80.5t74.5 -28.5q40 0 73.5 28.5t35.5 80.5h65zM427 879q-1 -55 -31 -89t-70 -34q-26 0 -74 31q-38 27 -63 27q-21 0 -29.5 -18t-8.5 -40h-65q1 55 31 89t70 34q26 0 74 -31
q38 -27 63 -27q21 0 29.5 18t8.5 40h65z" />
    <glyph glyph-name="caron.cap" unicode="&#xea11;" 
d="M413 620l-126 -134h-60l-126 134h59l97 -97l97 97h59z" />
    <glyph glyph-name="uni030C.cap" unicode="&#xea14;" horiz-adv-x="0" 
d="M-92 947l-125 -172h-60l-125 172h59l96 -123l96 123h59z" />
    <glyph glyph-name="circumflex.cap" unicode="&#xea15;" 
d="M413 486h-59l-97 97l-97 -97h-59l126 134h60z" />
    <glyph glyph-name="space_uni0302_uni0301.cap" unicode="&#xea16;" 
d="M413 486h-59l-97 97l-97 -97h-59l126 134h60zM400 777l-197 -122h-89l175 122h111z" />
    <glyph glyph-name="space_uni0302_uni0301" unicode="&#xea17;" 
d="M413 525h-59l-97 97l-97 -97h-59l126 134h60zM400 816l-197 -122h-89l175 122h111z" />
    <glyph glyph-name="uni0302.cap" unicode="&#xea18;" horiz-adv-x="0" 
d="M-92 775h-59l-96 123l-96 -123h-59l125 172h60z" />
    <glyph glyph-name="space_uni0302_uni0300.cap" unicode="&#xea19;" 
d="M413 486h-59l-97 97l-97 -97h-59l126 134h60zM400 655l-175 122h-111l197 -122h89z" />
    <glyph glyph-name="space_uni0302_uni0300" unicode="&#xea1a;" 
d="M413 525h-59l-97 97l-97 -97h-59l126 134h60zM400 694l-175 122h-111l197 -122h89z" />
    <glyph glyph-name="space_uni0302_uni0309.cap" unicode="&#xea1b;" 
d="M413 486h-59l-97 97l-97 -97h-59l126 134h60zM457 770q0 -31 -28 -51q-1 0 -16 -9q-27 -16 -38 -27t-11 -28v-19l-1 -1h-27l-1 1v19q0 67 54 96q14 7 14 19q0 20 -12 29q-11 8 -41 8q-50 0 -76 -44h-1h-1l-15 42v1q37 43 93 43q51 0 79 -20q28 -22 28 -59z" />
    <glyph glyph-name="space_uni0302_uni0309" unicode="&#xea1c;" 
d="M413 525h-59l-97 97l-97 -97h-59l126 134h60zM457 809q0 -31 -28 -51q-1 0 -16 -9q-27 -16 -38 -27t-11 -28v-19l-1 -1h-27l-1 1v19q0 67 54 96q14 7 14 19q0 20 -12 29q-11 8 -41 8q-50 0 -76 -44h-1h-1l-15 42v1q37 43 93 43q51 0 79 -20q28 -22 28 -59z" />
    <glyph glyph-name="space_uni0302_uni0303.cap" unicode="&#xea1d;" 
d="M413 486h-59l-97 97l-97 -97h-59l126 134h60zM428 798q-1 -55 -31 -89t-70 -34q-26 0 -74 31q-38 27 -63 27q-21 0 -29.5 -18t-8.5 -40h-65q1 55 31 89t70 34q26 0 74 -31q38 -27 63 -27q21 0 29.5 18t8.5 40h65z" />
    <glyph glyph-name="space_uni0302_uni0303" unicode="&#xea1e;" 
d="M413 525h-59l-97 97l-97 -97h-59l126 134h60zM428 837q-1 -55 -31 -89t-70 -34q-26 0 -74 31q-38 27 -63 27q-21 0 -29.5 -18t-8.5 -40h-65q1 55 31 89t70 34q26 0 74 -31q38 -27 63 -27q21 0 29.5 18t8.5 40h65z" />
    <glyph glyph-name="space_uni0326" unicode="&#xea1f;" 
d="M296 -156l-40 -115h-38l24 114h-23v78h77v-77z" />
    <glyph glyph-name="space_uni030F.cap" unicode="&#xea25;" 
d="M404 496h-65l-81 167h83zM233 496h-65l-81 167h83z" />
    <glyph glyph-name="space_uni030F" unicode="&#xea26;" 
d="M404 527h-65l-81 167h83zM233 527h-65l-81 167h83z" />
    <glyph glyph-name="uni030F.cap" unicode="&#xea27;" horiz-adv-x="0" 
d="M-100 777h-65l-81 167h83zM-271 777h-65l-81 167h83z" />
    <glyph glyph-name="dieresis.cap" unicode="&#xea28;" 
d="M207 486h-87v86h87v-86zM395 486h-87v86h87v-86z" />
    <glyph glyph-name="space_uni0308_uni0301.cap" unicode="&#xea29;" 
d="M207 486h-87v86h87v-86zM395 486h-87v86h87v-86zM448 746l-197 -122h-89l175 122h111z" />
    <glyph glyph-name="space_uni0308_uni0301" unicode="&#xea2a;" 
d="M221 568h-87v86h87v-86zM381 568h-87v86h87v-86zM448 828l-197 -122h-89l175 122h111z" />
    <glyph glyph-name="space_uni0308_uni030C.cap" unicode="&#xea2b;" 
d="M207 486h-87v86h87v-86zM395 486h-87v86h87v-86zM413 748l-126 -134h-60l-126 134h59l97 -97l97 97h59z" />
    <glyph glyph-name="space_uni0308_uni030C" unicode="&#xea2c;" 
d="M221 568h-87v86h87v-86zM381 568h-87v86h87v-86zM413 830l-126 -134h-60l-126 134h59l97 -97l97 97h59z" />
    <glyph glyph-name="uni0308.cap" unicode="&#xea2d;" horiz-adv-x="0" 
d="M-283 818h-87v86h87v-86zM-123 818h-87v86h87v-86z" />
    <glyph glyph-name="space_uni0308_uni0300.cap" unicode="&#xea2e;" 
d="M207 486h-87v86h87v-86zM395 486h-87v86h87v-86zM352 624h-89l-197 122h111z" />
    <glyph glyph-name="space_uni0308_uni0300" unicode="&#xea2f;" 
d="M221 568h-87v86h87v-86zM381 568h-87v86h87v-86zM352 706h-89l-197 122h111z" />
    <glyph glyph-name="dotaccent.cap" unicode="&#xea30;" horiz-adv-x="286" 
d="M191 486h-96v96h96v-96z" />
    <glyph glyph-name="uni0307.cap" unicode="&#xea31;" horiz-adv-x="0" 
d="M-199 813h-96v96h96v-96z" />
    <glyph glyph-name="grave.cap" unicode="&#xea32;" 
d="M352 496h-89l-197 122h111z" />
    <glyph glyph-name="uni0300.cap" unicode="&#xea33;" horiz-adv-x="0" 
d="M-175 777h-65l-152 167h83z" />
    <glyph glyph-name="space_uni0309.cap" unicode="&#xea34;" 
d="M357 621q0 -31 -28 -51q-1 0 -16 -9q-27 -16 -38 -27t-11 -28v-19l-1 -1h-27l-1 1v19q0 67 54 96q14 7 14 19q0 20 -12 29q-11 8 -41 8q-50 0 -76 -44h-1h-1l-15 42v1q37 43 93 43q51 0 79 -20q28 -22 28 -59z" />
    <glyph glyph-name="space_uni0309" unicode="&#xea35;" 
d="M357 639q0 -31 -28 -51q-1 0 -16 -9q-27 -16 -38 -27t-11 -28v-19l-1 -1h-27l-1 1v19q0 67 54 96q14 7 14 19q0 20 -12 29q-11 8 -41 8q-50 0 -76 -44h-1h-1l-15 42v1q37 43 93 43q51 0 79 -20q28 -22 28 -59z" />
    <glyph glyph-name="uni0309.cap" unicode="&#xea36;" horiz-adv-x="0" 
d="M-147 889q0 -31 -28 -51q-1 0 -16 -9q-27 -16 -38 -27t-11 -28v-19l-1 -1h-27l-1 1v19q0 67 54 96q14 7 14 19q0 20 -12 29q-11 8 -41 8q-50 0 -76 -44h-1h-1l-15 42v1q37 43 93 43q51 0 79 -20q28 -22 28 -59z" />
    <glyph glyph-name="hungarumlaut.cap" unicode="&#xea38;" 
d="M256 663l-81 -167h-65l63 167h83zM427 663l-81 -167h-65l63 167h83z" />
    <glyph glyph-name="uni030B.cap" unicode="&#xea39;" horiz-adv-x="0" 
d="M-248 944l-81 -167h-65l63 167h83zM-77 944l-81 -167h-65l63 167h83z" />
    <glyph glyph-name="space_uni0332" unicode="&#xea3a;" 
d="M442 -186h-371v69h371v-69z" />
    <glyph glyph-name="macron.cap" unicode="&#xea3b;" 
d="M442 506h-371v69h371v-69z" />
    <glyph glyph-name="macron.cap.alt" unicode="&#xea3c;" 
d="M356 506h-199v69h199v-69z" />
    <glyph glyph-name="macron.alt" unicode="&#xea3d;" 
d="M356 576h-199v69h199v-69z" />
    <glyph glyph-name="space_uni0331" unicode="&#xea3e;" 
d="M442 -186h-371v69h371v-69z" />
    <glyph glyph-name="uni0304.cap" unicode="&#xea3f;" horiz-adv-x="0" 
d="M-62 826h-371v69h371v-69z" />
    <glyph glyph-name="ring.cap" unicode="&#xea40;" horiz-adv-x="687" 
d="M394 528q0 37 -51 37t-51 -37t51 -37t51 37zM458 527q0 -33 -33 -58t-82 -25t-82 25t-33 60q0 33 33 58t82 25t82 -25t33 -60z" />
    <glyph glyph-name="space_uni030A_uni0301.cap" unicode="&#xea41;" horiz-adv-x="687" 
d="M394 528q0 37 -51 37t-51 -37t51 -37t51 37zM458 527q0 -33 -33 -58t-82 -25t-82 25t-33 60q0 33 33 58t82 25t82 -25t33 -60zM486 769l-197 -122h-89l175 122h111z" />
    <glyph glyph-name="space_uni030A_uni0301" unicode="&#xea42;" horiz-adv-x="687" 
d="M394 601q0 37 -51 37t-51 -37t51 -37t51 37zM458 600q0 -33 -33 -58t-82 -25t-82 25t-33 60q0 33 33 58t82 25t82 -25t33 -60zM486 842l-197 -122h-89l175 122h111z" />
    <glyph glyph-name="uni030A.cap" unicode="&#xea43;" horiz-adv-x="0" 
d="M-196 851q0 37 -51 37t-51 -37t51 -37t51 37zM-132 850q0 -33 -33 -58t-82 -25t-82 25t-33 60q0 33 33 58t82 25t82 -25t33 -60z" />
    <glyph glyph-name="tilde.cap" unicode="&#xea44;" 
d="M427 609q-1 -55 -31 -89t-70 -34q-26 0 -74 31q-38 27 -63 27q-21 0 -29.5 -18t-8.5 -40h-65q1 55 31 89t70 34q26 0 74 -31q38 -27 63 -27q21 0 29.5 18t8.5 40h65z" />
    <glyph glyph-name="space_uni0330" unicode="&#xea45;" 
d="M427 -90q-1 -55 -31 -89t-70 -34q-26 0 -74 31q-38 27 -63 27q-21 0 -29.5 -18t-8.5 -40h-65q1 55 31 89t70 34q26 0 74 -31q38 -27 63 -27q21 0 29.5 18t8.5 40h65z" />
    <glyph glyph-name="uni0303.cap" unicode="&#xea46;" horiz-adv-x="0" 
d="M-77 922q-1 -55 -31 -89t-70 -34q-26 0 -74 31q-38 27 -63 27q-21 0 -29.5 -18t-8.5 -40h-65q1 55 31 89t70 34q26 0 74 -31q38 -27 63 -27q21 0 29.5 18t8.5 40h65z" />
    <glyph glyph-name="acute.ts1" unicode="&#xeb02;" 
d="M427 726l-153 -187h-64l33 47l101 140h83z" />
    <glyph glyph-name="Aogonekacute" unicode="&#xeb03;" horiz-adv-x="687" 
d="M668 -187q-53 -25 -98 -25q-47 0 -72.5 25t-26.5 60q-2 37 22.5 71t64.5 56l-77 199h-297l-76 -199h-79l268 694h92l268 -694h-33q-91 -52 -90 -104q1 -34 53 -38q29 -1 67 14zM457 258l-125 362l-124 -362h249zM534 868l-197 -122h-89l175 122h111z" />
    <glyph glyph-name="aogonekacute" unicode="&#xeb04;" horiz-adv-x="494" 
d="M452 -187q-53 -25 -98 -25q-47 0 -72.5 25t-26.5 60q-2 37 22.5 71t64.5 56v38q-66 -49 -170 -49q-59 0 -88.5 41.5t-29.5 85.5q0 60 76.5 93.5t208.5 36.5v42q0 49 -24.5 79.5t-65.5 30.5q-84 0 -154 -52l-6 71q78 44 161 44q74 0 123 -49t49 -123v-289h-15
q-90 -51 -89 -104q1 -34 53 -38q29 -1 67 14zM339 140v52q-15 0 -39.5 -2t-67.5 -8t-72 -23t-29 -41q0 -29 27 -46.5t67 -17.5q46 0 78 19q17 10 25.5 23t9.5 21.5t1 22.5zM392 694l-152 -167h-65l134 167h83z" />
    <glyph glyph-name="bigcircle" unicode="&#xeb08;" horiz-adv-x="694" 
d="M694 347q0 -144 -101.5 -245.5t-245.5 -101.5t-245.5 101.5t-101.5 245.5t101.5 245.5t245.5 101.5t245.5 -101.5t101.5 -245.5zM654 347q0 127 -90 217t-217 90t-217 -90t-90 -217t90 -217t217 -90t217 90t90 217z" />
    <glyph glyph-name="star.alt" unicode="&#xeb09;" 
d="M509 309l-196 -100l100 -196l-144 143l-12 9l-12 -9l-144 -143l100 196l-196 100l218 -34l33 216h2l33 -216z" />
    <glyph glyph-name="breve.ts1" unicode="&#xeb0a;" horiz-adv-x="628" 
d="M545 726q0 -92 -71 -146.5t-160 -54.5q-90 0 -161 55.5t-71 145.5h65q0 -58 51.5 -94t114.5 -36q64 0 115.5 35.5t51.5 94.5h65z" />
    <glyph glyph-name="caron.ts1" unicode="&#xeb0d;" horiz-adv-x="628" 
d="M489 748q-4 -9 -38 -69l-61 -112l-29 -52l-4 -8t-4.5 -8.5t-5.5 -5.5t-9 -3h-48q-4 0 -7 1t-5 3t-3 3.5t-2.5 5t-2.5 5.5l-93 169q-34 60 -39 71h45l19 -2l12 -16l100 -169l79 135l32 50z" />
    <glyph glyph-name="copyleft" unicode="&#xeb0f;" horiz-adv-x="694" 
d="M694 347q0 -144 -101.5 -245.5t-245.5 -101.5t-245.5 101.5t-101.5 245.5t101.5 245.5t245.5 101.5t245.5 -101.5t101.5 -245.5zM654 347q0 127 -90 217t-217 90t-217 -90t-90 -217t90 -217t217 -90t217 90t90 217zM530 347q0 -91 -58 -157t-147 -66q-39 0 -63 7t-58 27
l4 45q22 -15 34 -21.5t33 -11.5t49 -5q67 0 107.5 54.5t40.5 127.5q0 75 -41.5 128.5t-104.5 53.5q-55 0 -105 -32l-10 52q56 21 114 21q89 0 147 -66t58 -157z" />
    <glyph glyph-name="cwm" unicode="&#xeb10;" horiz-adv-x="0" 
 />
    <glyph glyph-name="cwmascender" unicode="&#xeb11;" horiz-adv-x="0" 
 />
    <glyph glyph-name="cwmcapital" unicode="&#xeb12;" horiz-adv-x="0" 
 />
    <glyph glyph-name="dblgrave.ts1" unicode="&#xeb15;" 
d="M232 541h-64l-82 185h75l8 -2zM403 541h-64l-82 185h75l8 -2z" />
    <glyph glyph-name="died" unicode="&#xeb16;" 
d="M456 368h-157v-395h-84v393h-158v73h158v189h84v-187h157v-73z" />
    <glyph glyph-name="dieresis.ts1" unicode="&#xeb17;" 
d="M202 595h-90v90h90v-90zM401 595h-90v90h90v-90z" />
    <glyph glyph-name="space_uni0323" unicode="&#xeb19;" horiz-adv-x="286" 
d="M191 -200h-96v96h96v-96z" />
    <glyph glyph-name="Eogonekacute" unicode="&#xeb1e;" horiz-adv-x="617" 
d="M586 -187q-53 -25 -98 -25q-47 0 -72.5 25t-26.5 60q-2 37 22.5 71t64.5 56h-381v691h464v-70h-86l-244 2h-38v-231h339v-65h-339v-253l282 2h100v-76h-34q-88 -50 -87 -104q1 -34 53 -38q29 -1 67 14zM500 868l-197 -122h-89l175 122h111z" />
    <glyph glyph-name="eogonekacute" unicode="&#xeb1f;" horiz-adv-x="457" 
d="M427 219h-318q2 -69 45 -117t105 -48q83 0 157 53l6 -69q-35 -22 -80 -36q-91 -52 -90 -106q1 -34 53 -38q29 -1 67 14l14 -59q-53 -25 -98 -25q-47 0 -72.5 25t-26.5 60q-4 67 69 116q-94 0 -158.5 69t-64.5 168q0 97 60.5 166t147.5 69q94 0 144 -75q40 -62 40 -167z
M367 278q-13 67 -49 92.5t-75 25.5q-46 0 -80.5 -34t-47.5 -84h252zM373 694l-152 -167h-65l134 167h83z" />
    <glyph glyph-name="S_S" unicode="&#xeb28;" horiz-adv-x="1142" 
d="M513 191q0 -86 -65.5 -149.5t-165.5 -63.5q-125 0 -236 69l16 87q101 -82 220 -82q64 0 105 38t41 90q0 43 -29 75.5t-67 44.5l-84 21q-31 8 -49.5 13.5t-50 24.5t-52.5 47q-39 53 -39 111q0 79 65 139t167 60q43 0 80 -8t56.5 -16t52.5 -25l-16 -87q-77 65 -174 65
q-65 0 -105.5 -35t-40.5 -80q0 -41 30 -70.5t72 -39.5l101 -24q64 -15 116 -71t52 -134zM1084 191q0 -86 -65.5 -149.5t-165.5 -63.5q-125 0 -236 69l16 87q101 -82 220 -82q64 0 105 38t41 90q0 43 -29 75.5t-67 44.5l-84 21q-31 8 -49.5 13.5t-50 24.5t-52.5 47
q-39 53 -39 111q0 79 65 139t167 60q43 0 80 -8t56.5 -16t52.5 -25l-16 -87q-77 65 -174 65q-65 0 -105.5 -35t-40.5 -80q0 -41 30 -70.5t72 -39.5l101 -24q64 -15 116 -71t52 -134z" />
    <glyph glyph-name="gnaborretni" unicode="&#xeb29;" horiz-adv-x="485" 
d="M271 414h-86v86h86v-86zM427 -152q-75 -43 -165 -52v-24h-68v25q-72 9 -104.5 52t-32.5 102q0 32 9.5 58.5t17.5 37t24 26.5q85 85 85 195v55h70v-32q0 -49 -6 -85l4 -344q76 8 142 53zM197 60q-6 -9 -30 -38q-27 -27 -27 -73q0 -73 55 -86z" />
    <glyph glyph-name="grave.ts1" unicode="&#xeb2a;" 
d="M303 540h-64l-153 186h57l26 -1z" />
    </font>
</defs>
</svg>
