<?xml version="1.0" standalone="no"?>
<!DOCTYPE svg PUBLIC "-//W3C//DTD SVG 1.1//EN" "http://www.w3.org/Graphics/SVG/1.1/DTD/svg11.dtd" >
<svg xmlns="http://www.w3.org/2000/svg" xmlns:xlink="http://www.w3.org/1999/xlink" version="1.1">
<metadata>
Created by FontForge 20170731 at Thu Oct  8 14:00:20 2009
 By Aleksey,,,
Copyright 2003, 2009 B. Jackowski and J. M. Nowacki (on behalf of TeX users groups). This work is released under the GUST Font License --  see http://tug.org/fonts/licenses/GUST-FONT-LICENSE.txt for details.
</metadata>
<defs>
<font id="LMSans9-Oblique" horiz-adv-x="514" >
  <font-face 
    font-family="LM Sans 9"
    font-weight="400"
    font-style="oblique"
    font-stretch="normal"
    units-per-em="1000"
    panose-1="0 0 5 0 0 0 0 0 0 0"
    ascent="806"
    descent="-194"
    x-height="444"
    cap-height="694"
    bbox="-473 -313 1503.75 1155"
    underline-thickness="38"
    underline-position="-207"
    slope="-12"
    unicode-range="U+0020-FB04"
  />
<missing-glyph horiz-adv-x="280" 
 />
    <glyph glyph-name="I_J" unicode="IJ" horiz-adv-x="744" 
d="M191 0h-96l148 694h96zM689 149q-18 -84 -77 -127.5t-140 -43.5q-91 0 -167 42l31 80q42 -57 118 -57q41 0 71 13.5t44 35.5t19.5 35t7.5 25l116 542h93z" />
    <glyph glyph-name="i_j" unicode="ij" horiz-adv-x="495" 
d="M290 563h-96l20 96h96zM532 563h-96l20 96h96zM162 0h-80l94 444h80zM399 -59q-14 -66 -60.5 -106t-100.5 -40q-63 0 -116 34l30 65q28 -31 72 -31q34 0 62 19q24 16 32 51l108 511h80z" />
    <glyph glyph-name="f_k" unicode="fk" horiz-adv-x="816" 
d="M384 382h-120l-81 -382h-80l81 382h-75l13 62h75l19 89q16 75 66.5 123.5t108.5 48.5q31 0 60 -11l-16 -71q-24 17 -58 17q-24 0 -46.5 -17.5t-31.5 -60.5l-25 -118h123zM788 0h-86l-112 222l-98 -80l-30 -142h-73l148 694h76l-97 -456l248 206h95l-208 -172z" />
    <glyph glyph-name="f_f" unicode="ff" horiz-adv-x="600" 
d="M489 623q-38 17 -79 17q-14 0 -28.5 -3t-32 -10.5t-31.5 -24.5t-19 -42l-25 -116h115l-13 -62h-112l-81 -382h-80l81 382h-75l13 62h75l19 88q16 74 75 123.5t134 49.5q38 0 80 -11zM774 623q-38 17 -79 17q-14 0 -28.5 -3t-32 -10.5t-31.5 -24.5t-19 -42l-25 -116h115
l-13 -62h-112l-81 -382h-80l113 532q16 74 75 123.5t134 49.5q38 0 80 -11z" />
    <glyph glyph-name="f_i" unicode="fi" horiz-adv-x="551" 
d="M599 609h-86l19 86h86zM467 0h-80l94 444h80zM384 382h-120l-81 -382h-80l81 382h-75l13 62h75l19 89q16 75 66.5 123.5t108.5 48.5q31 0 60 -11l-16 -73q-23 19 -58 19q-24 0 -46.5 -17.5t-31.5 -60.5l-25 -118h123z" />
    <glyph glyph-name="f_l" unicode="fl" horiz-adv-x="551" 
d="M384 382h-120l-81 -382h-80l81 382h-75l13 62h75l19 89q16 75 66.5 123.5t108.5 48.5q31 0 60 -11l-16 -71q-24 17 -58 17q-24 0 -46.5 -17.5t-31.5 -60.5l-25 -118h123zM467 0h-80l148 694h80z" />
    <glyph glyph-name="f_f_i" unicode="&#xfb00;i" horiz-adv-x="836" 
d="M884 609h-86l19 86h86zM752 0h-80l94 444h80zM668 382h-119l-81 -382h-80l113 533q16 74 66 123t109 49q29 0 59 -10l-16 -73q-23 18 -57 18q-24 0 -46.5 -17.5t-31.5 -60.5l-25 -118h122zM460 623q-29 17 -68 17q-16 0 -32 -4.5t-35 -23.5t-26 -51l-25 -117h122l-13 -62
h-119l-81 -382h-80l81 382h-75l13 62h75l19 88q16 76 71 124.5t120 48.5q34 0 69 -11z" />
    <glyph glyph-name="f_f_l" unicode="ffl" horiz-adv-x="836" 
d="M460 623q-29 17 -68 17q-16 0 -32 -4.5t-35 -23.5t-26 -51l-25 -117h122l-13 -62h-119l-81 -382h-80l81 382h-75l13 62h75l19 88q16 76 71 124.5t120 48.5q34 0 69 -11zM752 0h-80l148 694h80zM668 382h-119l-81 -382h-80l113 533q16 75 66.5 123.5t107.5 48.5
q34 0 60 -11l-16 -71q-26 17 -57 17q-24 0 -46.5 -17.5t-31.5 -60.5l-25 -118h122z" />
    <glyph glyph-name=".notdef" horiz-adv-x="280" 
 />
    <glyph glyph-name=".null" horiz-adv-x="0" 
 />
    <glyph glyph-name="nonmarkingreturn" horiz-adv-x="333" 
 />
    <glyph glyph-name="space" unicode=" " horiz-adv-x="343" 
 />
    <glyph glyph-name="exclam" unicode="!" horiz-adv-x="326" 
d="M354 694l-118 -517h-70l102 517h86zM206 0h-86l18 86h86z" />
    <glyph glyph-name="quotedbl" unicode="&#x22;" horiz-adv-x="454" 
d="M276 430h-84l61 286h84zM444 430h-84l61 286h84z" />
    <glyph glyph-name="numbersign" unicode="#" horiz-adv-x="856" 
d="M829 146q-5 -22 -42 -22h-229l-144 -294q-12 -24 -27 -24q-21 0 -18 22q1 4 8 18l136 278h-190l-144 -294q-12 -24 -27 -24q-21 0 -18 22q1 4 8 18l136 278h-158q-11 0 -17 0.5t-11.5 6t-3.5 15.5q4 21 37 21h175l81 167h-220q-9 0 -14.5 0.5t-11 5.5t-3.5 15q5 22 42 22
h229l144 293q12 24 28 24q22 0 17 -22q-2 -8 -8 -18l-136 -277h190l144 293q12 24 28 24q22 0 17 -22q-2 -8 -8 -18l-136 -277h158q11 0 17 -0.5t11.5 -6t3.5 -15.5q-4 -21 -37 -21h-175l-81 -167h220q10 0 15.5 -0.5t10.5 -5.5t3 -15zM616 334h-190l-81 -167h190z" />
    <glyph glyph-name="dollar" unicode="$" 
d="M498 197q-16 -74 -74.5 -133t-137.5 -72l-10 -48h-62l10 46q-98 10 -165 69l28 72q57 -63 152 -72l55 260q-44 9 -74 31.5t-41.5 49t-16 56.5t3.5 55q15 72 74.5 126.5t134.5 65.5l10 47h62l-9 -46q81 -7 139 -56l-28 -69q-53 49 -126 57l-50 -234q41 -9 70.5 -31
t41.5 -50.5t16.5 -61.5t-3.5 -62zM315 418l46 215q-49 -11 -78 -42.5t-36 -64.5q-8 -37 10 -67.5t58 -40.5zM417 183q9 43 -9 76.5t-55 44.5l-52 -243q46 13 76.5 47t39.5 75z" />
    <glyph glyph-name="percent" unicode="%" horiz-adv-x="856" 
d="M458 548q-18 -85 -72 -143t-111 -58q-58 0 -89 57.5t-12 144.5q18 85 73 143t113 58q57 0 87 -58t11 -144zM833 728q-2 -7 -11 -18l-606 -749q-15 -17 -26 -17q-9 0 -14 6t-3 16q1 6 13 20l604 747q15 17 26 17q8 0 13.5 -6t3.5 -16zM829 145q-18 -85 -72.5 -143
t-111.5 -58t-88 57.5t-13 144.5q18 85 73.5 143t113.5 58q56 0 86 -58t12 -144zM386 549q12 54 1 95t-40 41q-6 0 -13 -1.5t-19 -9.5t-22 -21.5t-21.5 -40.5t-19.5 -64t-7.5 -64t5 -40.5t13.5 -21t14.5 -9t11.5 -1.5q28 0 56.5 40t40.5 97zM756 146q12 54 1 95t-40 41
q-6 0 -13 -1.5t-19 -9.5t-22 -21.5t-21 -40.5t-19 -64t-8 -64t4.5 -40.5t13.5 -21t14.5 -9t11.5 -1.5q28 0 56.5 40t40.5 97z" />
    <glyph glyph-name="ampersand" unicode="&#x26;" horiz-adv-x="779" 
d="M720 -7q-60 -15 -123 -15q-88 0 -154 58q-110 -58 -217 -58q-81 0 -124 50t-28 120q15 68 77 118l121 85q-14 82 3 163q18 84 69.5 143t116.5 59q59 0 86.5 -49t13.5 -110q-6 -29 -24 -57.5t-52 -59t-57.5 -48.5t-68.5 -51q17 -62 55.5 -129t57.5 -87q142 101 232 281
l62 -19q-98 -194 -252 -306q41 -35 99 -35q55 0 122 18zM489 558q1 14 2.5 34.5t-10 39.5t-35.5 19q-32 0 -59 -29t-35 -69q-16 -59 -6 -149q130 93 143 154zM397 83q-22 25 -60 90q-34 61 -52 116q-18 -13 -32 -23t-21 -14.5t-11.5 -7.5t-6.5 -4.5t-3 -2.5q-43 -35 -52 -82
q-9 -41 11.5 -75t72.5 -34q79 0 154 37z" />
    <glyph glyph-name="quotesingle" unicode="'" horiz-adv-x="286" 
d="M276 430h-84l61 286h84z" />
    <glyph glyph-name="parenleft" unicode="(" horiz-adv-x="400" 
d="M289 -249h-65q-48 49 -75.5 119t-34 167t19.5 214q36 167 115 294.5t187 204.5h65q-31 -26 -49.5 -43.5t-58 -65t-67 -95.5t-59 -127t-50.5 -169t-21.5 -168.5t5 -127.5t26.5 -95t31 -64.5t31 -43.5z" />
    <glyph glyph-name="parenright" unicode=")" horiz-adv-x="400" 
d="M371 250q-36 -167 -115 -294.5t-187 -204.5h-65q30 26 49.5 44t58.5 64.5t67 95t59 127.5t50 169t22 168.5t-4.5 127.5t-26.5 95t-31.5 65t-31.5 43h65q48 -49 76 -119t34 -167t-20 -214z" />
    <glyph glyph-name="asterisk" unicode="*" 
d="M540 436q-4 -16 -16.5 -26.5t-27.5 -10.5q-11 0 -24 11l-86 69l-19 -128l-1 -9q-4 -16 -17 -26t-28 -10q-13 0 -22.5 9.5t-5.5 26.5l38 137l-109 -66q-23 -14 -35 -14q-15 0 -23.5 10.5t-4.5 26.5q4 21 32 35l124 57l-100 58q-22 12 -17 34q3 16 16 26.5t28 10.5
q11 0 23 -11l87 -69l20 137q4 17 16.5 26.5t27.5 9.5q13 0 22.5 -9.5t6.5 -26.5l-38 -137l116 70q16 10 28 10q15 0 23 -10.5t5 -26.5q-5 -22 -33 -35l-124 -57l101 -58q21 -12 17 -34z" />
    <glyph glyph-name="plus" unicode="+" horiz-adv-x="799" 
d="M794 250q-4 -21 -39 -21h-285l-61 -286q-7 -35 -29 -35q-23 0 -14 35l61 286h-286q-11 0 -16.5 0.5t-11 6t-3.5 15.5q5 21 40 21h286l61 286q7 35 28 35q22 0 15 -35l-61 -286h285q11 0 16.5 -0.5t10.5 -6t3 -15.5z" />
    <glyph glyph-name="comma" unicode="," horiz-adv-x="286" 
d="M185 1l-71 -128h-43l54 127h-26l18 86h86z" />
    <glyph glyph-name="hyphen" unicode="-" horiz-adv-x="343" 
d="M326 191h-274l13 62h274z" />
    <glyph glyph-name="period" unicode="." horiz-adv-x="286" 
d="M185 0h-86l18 86h86z" />
    <glyph glyph-name="slash" unicode="/" 
d="M611 728q0 -1 -9 -17l-548 -938q-13 -23 -29 -23q-8 0 -13.5 6t-2.5 16q0 3 8 17l549 938q12 23 28 23q8 0 13.5 -6t3.5 -16z" />
    <glyph glyph-name="zero" unicode="0" 
d="M541 325q-34 -158 -94 -240q-79 -107 -196 -107q-112 0 -148 102q-29 83 7 245q37 172 104 254q77 97 187 97q49 0 87 -24t55 -65q14 -37 16.5 -83t-2.5 -85.5t-16 -93.5zM461 337q4 22 6 31t6.5 33t5 36.5t2.5 35.5t-0.5 36.5t-5.5 31.5t-10.5 28.5t-17.5 21.5t-26 15.5
t-35 4.5q-87 0 -140 -108q-27 -54 -50 -166q-5 -26 -8 -40.5t-8 -44.5t-5.5 -50t-0.5 -47t6 -44.5t16 -34.5t28 -25t42 -8q78 0 129 92q35 61 66 202z" />
    <glyph glyph-name="one" unicode="1" 
d="M437 0h-341l13 62h128l109 510q-60 -23 -139 -23l13 62q131 0 212 65h21l-131 -614h128z" />
    <glyph glyph-name="two" unicode="2" 
d="M462 0h-411l14 68l223 175q56 42 85 66.5t59 65t39 83.5q14 63 -17 106.5t-96 43.5q-107 0 -172 -150l-33 58q84 160 234 160q99 0 145.5 -63t27.5 -153q-14 -66 -62 -113t-159 -124l-195 -149h110q6 0 18 0.5t18 0.5h188z" />
    <glyph glyph-name="three" unicode="3" 
d="M508 181q-17 -81 -92.5 -142t-167.5 -61q-62 0 -111 27t-77 73q6 17 25 64q21 -42 68.5 -70.5t106.5 -28.5q56 0 98 39.5t55 99.5q11 54 -11 96.5t-88 42.5h-75l14 65q32 2 55 4q72 7 110 49t47 84q10 44 -14.5 67.5t-66.5 23.5q-40 0 -88.5 -22t-90.5 -79l-27 57
q43 49 101 77.5t119 28.5q78 0 123 -44.5t32 -108.5q-11 -52 -50.5 -97.5t-97.5 -72.5q58 -21 87 -67.5t16 -104.5z" />
    <glyph glyph-name="four" unicode="4" 
d="M519 167h-100l-35 -167h-84l35 167h-271l14 65l348 422h97l-90 -422h100zM355 232l80 376q-11 -46 -191 -276l-83 -100h194z" />
    <glyph glyph-name="five" unicode="5" 
d="M505 203q-19 -93 -100 -159t-175 -66q-51 0 -92.5 21.5t-57.5 40.5t-25 36l49 59q17 -47 56 -69.5t83 -22.5q53 0 100.5 38.5t65.5 122.5q18 85 -5 121t-62 36q-78 0 -129 -79h-72l79 372h346l-14 -68h-269l-43 -200q56 40 118 40q80 0 123.5 -65.5t23.5 -157.5z" />
    <glyph glyph-name="six" unicode="6" 
d="M517 223q-12 -58 -35.5 -97.5t-68.5 -80.5q-74 -67 -160 -67q-30 0 -56 9.5t-51 32.5t-37 62t-14.5 98t16.5 141q33 156 135.5 255.5t214.5 99.5q55 0 104 -20l-13 -63q-49 21 -103 21q-78 0 -142 -65t-94 -168q89 82 191 82q37 0 61.5 -17.5t43.5 -62.5q28 -66 8 -160z
M430 223q16 74 3 114q-21 61 -85 61q-58 0 -103.5 -46t-58.5 -106q-1 -4 -6 -27q-2 -13 -2.5 -25t-0.5 -35t5 -41t14 -36.5t27.5 -28.5t43.5 -10q63 0 111 57q36 44 52 123z" />
    <glyph glyph-name="seven" unicode="7" 
d="M594 585q-119 -106 -216 -261t-135 -335h-90q71 336 368 591h-123q-6 0 -18 -0.5t-18 -0.5h-196l16 75h427z" />
    <glyph glyph-name="eight" unicode="8" 
d="M508 181q-17 -82 -92 -142.5t-165 -60.5q-88 0 -137.5 60t-32.5 143q11 51 54.5 99t122.5 74q-48 15 -77 54.5t-18 92.5q16 70 84.5 122.5t153.5 52.5q83 0 129.5 -52.5t31.5 -122.5q-11 -53 -56.5 -92.5t-100.5 -54.5q66 -26 90.5 -73.5t12.5 -99.5zM488 500
q11 50 -15 82t-86 32q-57 0 -98 -31.5t-52 -82.5q-11 -50 16 -82t85 -32q60 0 100 32.5t50 81.5zM422 181q15 71 -16.5 105.5t-81.5 34.5q-48 0 -94.5 -34t-62.5 -106q-14 -65 14.5 -101.5t84.5 -36.5q53 0 97.5 36t58.5 102z" />
    <glyph glyph-name="nine" unicode="9" 
d="M541 334q-33 -157 -131.5 -256.5t-203.5 -99.5q-77 0 -127 47l45 56q37 -38 96 -38q60 0 121 54.5t98 176.5q-86 -83 -191 -83q-37 0 -60.5 16.5t-41.5 56.5q-32 71 -11 168q12 56 35 95.5t68 80.5q78 68 166 68q30 0 56 -9t49 -33.5t36 -61.5t13 -98.5t-17 -139.5z
M466 410q4 14 4 23q4 20 5 44.5t-2.5 58.5t-24.5 56t-57 22q-60 0 -109 -52q-42 -45 -60 -130q-17 -81 0 -122q7 -16 14 -26t25 -19t43 -9q57 0 103 45.5t59 108.5z" />
    <glyph glyph-name="colon" unicode=":" horiz-adv-x="286" 
d="M261 358h-86l18 86h86zM185 0h-86l18 86h86z" />
    <glyph glyph-name="semicolon" unicode=";" horiz-adv-x="286" 
d="M261 358h-86l18 86h86zM185 1l-71 -128h-43l54 127h-26l18 86h86z" />
    <glyph glyph-name="less" unicode="&#x3c;" horiz-adv-x="799" 
d="M706 -30q-6 -21 -27 -21q-6 0 -18 7l-507 271q-18 9 -15 24q3 14 25 23l624 272l19 6q10 0 15 -6.5t3 -15.5q-3 -14 -25 -23l-590 -256l482 -259q16 -8 14 -22z" />
    <glyph glyph-name="equal" unicode="=" horiz-adv-x="799" 
d="M816 355q-4 -21 -37 -21h-618q-9 0 -14.5 0.5t-11 5.5t-3.5 15q5 22 42 22h610q11 0 17 -0.5t11.5 -6t3.5 -15.5zM772 146q-5 -22 -42 -22h-610q-11 0 -17 0.5t-11.5 6t-3.5 15.5q4 21 37 21h618q10 0 15.5 -0.5t10.5 -5.5t3 -15z" />
    <glyph glyph-name="greater" unicode="&#x3e;" horiz-adv-x="799" 
d="M765 251q-3 -15 -25 -24l-624 -272l-19 -6q-11 0 -15 7t-2 14q2 14 25 24l589 257l-480 256q-19 10 -15 24q2 8 9 14.5t16 6.5q7 0 20 -7l506 -271q18 -9 15 -23z" />
    <glyph glyph-name="question" unicode="?" horiz-adv-x="485" 
d="M544 549q-15 -68 -80 -118q-128 -89 -152 -201l-11 -53h-70l6 32q37 172 172 268q13 9 20 15t17.5 22t14.5 36q6 29 0 48.5t-23 27.5t-33 11t-38 3q-87 0 -162 -55l-9 67q90 53 184 53q104 0 140.5 -45.5t23.5 -110.5zM271 0h-86l18 86h86z" />
    <glyph glyph-name="at" unicode="@" horiz-adv-x="685" 
d="M645 87q-44 -39 -109.5 -68.5t-138.5 -29.5q-141 0 -219.5 104.5t-46.5 253.5q32 150 155 254t262 104q47 0 81 -15t53 -36.5t28.5 -56t12 -62t-1.5 -67t-7.5 -59t-9.5 -48.5q-14 -64 -44 -113.5t-65.5 -76t-69.5 -39.5t-63 -13q-78 0 -120.5 66t-21.5 162
q20 96 90.5 162t148.5 66q41 0 78 -22q-7 41 -35 64t-69 23q-104 0 -200.5 -84.5t-122.5 -208.5q-26 -120 32 -206.5t171 -86.5q75 0 154 29q8 4 26 4h52zM622 347q14 68 -9 115.5t-69 47.5q-45 0 -87.5 -46.5t-57.5 -116.5t8 -116.5t68 -46.5q46 0 89 47t58 116z" />
    <glyph glyph-name="A" unicode="A" horiz-adv-x="687" 
d="M657 0h-99l-35 199h-297l-118 -199h-79l416 694h92zM512 258l-48 362l-201 -362h249z" />
    <glyph glyph-name="B" unicode="B" horiz-adv-x="686" 
d="M668 188q-16 -74 -101.5 -131t-194.5 -57h-274l148 694h247q106 0 168.5 -52t48.5 -122q-12 -54 -67.5 -96t-135.5 -61q80 -12 127.5 -61t33.5 -114zM625 518q11 51 -41.5 84t-132.5 33h-128l-51 -242h117q97 0 161.5 38.5t74.5 86.5zM581 189q12 58 -41.5 98.5
t-134.5 40.5h-147l-57 -269h155q83 0 148.5 38t76.5 92z" />
    <glyph glyph-name="C" unicode="C" horiz-adv-x="657" 
d="M613 45q-69 -36 -108 -45q-45 -11 -109 -11q-66 0 -122 27.5t-91 77.5q-74 107 -43 253q32 149 151 253q119 105 257 105q55 0 96 -8q42 -7 90 -27l-34 -88q-38 31 -76 43q-37 12 -91 12q-97 0 -185 -85q-86 -83 -112 -205q-26 -119 25 -205q52 -85 149 -85q65 0 108 12
q40 12 104 50z" />
    <glyph glyph-name="D" unicode="D" horiz-adv-x="743" 
d="M757 341q-30 -142 -143 -241.5t-244 -99.5h-273l148 694h273q131 0 200.5 -103t38.5 -250zM664 341q29 133 -25 213.5t-160 80.5h-154l-122 -576h155q105 0 192 77t114 205z" />
    <glyph glyph-name="E" unicode="E" horiz-adv-x="617" 
d="M573 0h-478l147 691h464l-15 -70h-86l-244 2h-38l-49 -231h339l-13 -65h-339l-54 -253l282 2h100z" />
    <glyph glyph-name="F" unicode="F" horiz-adv-x="589" 
d="M677 621h-83l-237 2h-34l-52 -245h311l-13 -65h-311l-67 -313h-96l147 691h450z" />
    <glyph glyph-name="G" unicode="G" horiz-adv-x="685" 
d="M623 38q-115 -49 -227 -49q-66 0 -122 27.5t-91 77.5q-74 107 -43 253q32 149 151 253q119 105 257 105q58 0 105 -11q44 -11 92 -38l-33 -88q-38 38 -80 54q-40 15 -99 15q-97 0 -185 -85q-86 -83 -112 -205q-26 -119 25 -205q52 -85 149 -85q68 0 137 20l34 158h-133
l14 65h217z" />
    <glyph glyph-name="H" unicode="H" horiz-adv-x="727" 
d="M631 0h-96l70 328h-344l-70 -328h-96l148 694h96l-64 -301h344l64 301h96z" />
    <glyph glyph-name="I" unicode="I" horiz-adv-x="287" 
d="M191 0h-96l148 694h96z" />
    <glyph glyph-name="J" unicode="J" horiz-adv-x="486" 
d="M431 149q-18 -84 -77 -127.5t-140 -43.5q-91 0 -167 42l31 80q42 -57 118 -57q41 0 71 13.5t44 35.5t19.5 35t7.5 25l116 542h93z" />
    <glyph glyph-name="K" unicode="K" horiz-adv-x="715" 
d="M671 0h-99l-172 361l-163 -133l-48 -228h-91l148 694h91l-79 -368l448 368h98l-333 -274z" />
    <glyph glyph-name="L" unicode="L" horiz-adv-x="560" 
d="M516 0h-421l148 694h96l-134 -626h38l244 2h44z" />
    <glyph glyph-name="M" unicode="M" horiz-adv-x="898" 
d="M795 0h-82l131 616h-1q-35 -71 -141 -242l-212 -352h-76l-15 84l-51 282q-31 173 -32 228h-1l-131 -616h-82l148 694h120l8 -45l60 -341q30 -159 31 -210h1q17 38 146 254l207 342h120z" />
    <glyph glyph-name="N" unicode="N" horiz-adv-x="727" 
d="M628 0h-132l-15 52q-1 3 -15 47l-154 517h-1l-131 -616h-82l148 694h132l14 -52q6 -10 15 -47l155 -517h1l131 616h82z" />
    <glyph glyph-name="O" unicode="O" horiz-adv-x="759" 
d="M774 344q-33 -154 -150.5 -260t-249.5 -106q-131 0 -204 106t-40 260q33 156 151.5 264t249.5 108t203.5 -108t39.5 -264zM681 359q28 130 -22.5 209.5t-141.5 79.5t-175.5 -79t-112.5 -210q-29 -137 19.5 -224t140.5 -87t177.5 87t114.5 224z" />
    <glyph glyph-name="P" unicode="P" horiz-adv-x="657" 
d="M703 491q-18 -84 -100 -145t-186 -61h-163l-61 -285h-96l148 694h259q104 0 160.5 -60.5t38.5 -142.5zM616 491q13 62 -26 103t-123 41h-142l-61 -288h142q84 0 140.5 41t69.5 103z" />
    <glyph glyph-name="Q" unicode="Q" horiz-adv-x="759" 
d="M774 344q-21 -98 -80 -180t-138 -131l89 -160h-112l-59 121q-50 -16 -100 -16q-131 0 -204 106t-40 260q33 156 151.5 264t249.5 108t203.5 -108t39.5 -264zM681 345q28 133 -21.5 218t-142.5 85q-94 0 -180 -84.5t-114 -218.5q-28 -135 23 -217t143 -82q28 0 53 7
l-69 141h94l57 -101q50 34 94 98.5t63 153.5z" />
    <glyph glyph-name="R" unicode="R" horiz-adv-x="666" 
d="M636 0h-96l-123 315h-160l-67 -315h-93l148 694h252q107 0 171.5 -55t47.5 -132q-13 -61 -72 -111t-141 -71zM629 507q12 56 -30 92t-127 36h-147l-54 -255h147q87 0 143.5 37t67.5 90z" />
    <glyph glyph-name="S" unicode="S" horiz-adv-x="571" 
d="M554 191q-19 -86 -98 -149.5t-179 -63.5q-125 0 -221 69l34 87q85 -82 203 -82q64 0 113 38t60 90q9 44 -12.5 76t-57.5 44l-80 21q-29 7 -46.5 13t-44.5 25t-43 47q-27 52 -15 111q17 79 94.5 139t179.5 60q43 0 78.5 -8t53 -16t47.5 -25l-35 -87q-62 65 -160 65
q-65 0 -112.5 -35t-57.5 -80q-9 -41 15 -70.5t63 -39.5l96 -24q61 -15 101.5 -71t23.5 -134z" />
    <glyph glyph-name="T" unicode="T" horiz-adv-x="702" 
d="M795 618h-60l-204 2l-132 -620h-96l132 620l-206 -2h-61l15 70h627z" />
    <glyph glyph-name="U" unicode="U" horiz-adv-x="707" 
d="M661 233q-23 -108 -114 -181.5t-196 -73.5q-106 0 -168 73.5t-38 182.5l98 460h96l-99 -462q-20 -94 18.5 -144.5t106.5 -50.5q69 0 131 51t82 145l98 461h83z" />
    <glyph glyph-name="V" unicode="V" horiz-adv-x="687" 
d="M820 694l-429 -694h-96l-133 694h101l56 -306q49 -257 48 -312h1q17 38 82.5 149t94.5 157l192 312h83z" />
    <glyph glyph-name="W" unicode="W" horiz-adv-x="972" 
d="M1105 694l-358 -694h-90l-27 307q-22 254 -16 309h-1q-4 -18 -55 -120l-75 -153l-175 -343h-84l-62 694h92l24 -288q22 -253 16 -328l1 1q24 78 155 329l146 286h84l26 -308l13 -162q3 -52 4 -88.5t1 -47.5l-1 -11q22 64 140 293l165 324h77z" />
    <glyph glyph-name="X" unicode="X" horiz-adv-x="687" 
d="M672 0h-113l-159 303l-283 -303h-103l353 366l-190 328h113l139 -258l245 258h103l-317 -328z" />
    <glyph glyph-name="Y" unicode="Y" horiz-adv-x="687" 
d="M831 694l-382 -416l-59 -278h-93l59 278l-205 416h114l119 -244l44 -97l93 105l216 236h94z" />
    <glyph glyph-name="Z" unicode="Z" horiz-adv-x="628" 
d="M576 0h-519l10 45l514 584h-24l-260 -2h-93l15 67h499l-10 -43l-514 -583h29l270 2h98z" />
    <glyph glyph-name="bracketleft" unicode="[" horiz-adv-x="299" 
d="M223 -250h-173l212 1000h173l-13 -65h-96l-185 -870h96z" />
    <glyph glyph-name="backslash" unicode="\" 
d="M408 -228q-6 -22 -26 -22q-17 0 -19 23l-150 938q-2 15 -1 17q2 10 9.5 16t15.5 6q16 0 20 -23l149 -938q0 -3 0.5 -7t1 -6t0.5 -4z" />
    <glyph glyph-name="bracketright" unicode="]" horiz-adv-x="299" 
d="M142 -250h-173l14 65h96l185 870h-96l13 65h173z" />
    <glyph glyph-name="asciicircum" unicode="^" horiz-adv-x="556" 
d="M685 584l-17 -22l-245 123l-298 -123l-6 22l317 160z" />
    <glyph glyph-name="underscore" unicode="_" horiz-adv-x="687" 
d="M652 -167h-687l17 84h687z" />
    <glyph glyph-name="grave" unicode="`" 
d="M441 527h-65l-116 167h83z" />
    <glyph glyph-name="a" unicode="a" horiz-adv-x="494" 
d="M422 0h-80l8 38q-76 -49 -180 -49q-59 0 -79.5 41.5t-11.5 85.5q13 60 96 93.5t216 36.5l9 42q11 49 -7 79.5t-59 30.5q-85 0 -165 -52l9 71q86 44 170 44q74 0 112.5 -49t22.5 -123zM369 140l11 52q-15 0 -40 -2t-69.5 -8t-77 -23t-37.5 -41q-6 -29 17 -46.5t63 -17.5
q46 0 83 19q19 10 30 23t13.5 21t6.5 23z" />
    <glyph glyph-name="b" unicode="b" horiz-adv-x="531" 
d="M541 223q-21 -99 -90.5 -166.5t-148.5 -67.5q-34 0 -63.5 12.5t-42.5 24t-20 21.5l-10 -47h-83l148 694h80l-64 -297q88 58 180 58q71 0 102.5 -69t11.5 -163zM458 223q18 85 -14.5 126t-86.5 41q-69 0 -120 -56l-46 -218q21 -62 84 -62q56 0 110.5 41t72.5 128z" />
    <glyph glyph-name="c" unicode="c" horiz-adv-x="457" 
d="M435 37q-91 -48 -178 -48q-96 0 -145 69t-29 164t98 167t180 72q51 0 80.5 -9t69.5 -35l-28 -70q-33 26 -61 36t-74 10q-74 0 -120.5 -51.5t-61.5 -118.5q-15 -72 14 -119t92 -47q87 0 172 51z" />
    <glyph glyph-name="d" unicode="d" horiz-adv-x="531" 
d="M447 0h-83l11 52q-81 -63 -166 -63q-73 0 -109.5 68t-16.5 165q20 96 87 164.5t142 68.5q86 0 140 -55l63 294h80zM394 141l42 197q-28 52 -86 52q-57 0 -111.5 -41t-72.5 -128q-18 -83 14 -125t87 -42q58 0 109 52q10 10 12.5 15t5.5 20z" />
    <glyph glyph-name="e" unicode="e" horiz-adv-x="457" 
d="M474 219h-318q-13 -69 19.5 -117t94.5 -48q83 0 169 53l-9 -69q-87 -49 -174 -49q-94 0 -144 69t-29 168q20 96 95.5 165.5t162.5 69.5q93 0 128 -75q26 -60 5 -167zM426 278q1 36 -8.5 61t-26.5 36.5t-32.5 16t-31.5 4.5q-46 0 -87.5 -34t-65.5 -84h252z" />
    <glyph glyph-name="f" unicode="f" horiz-adv-x="314" 
d="M488 623q-37 17 -79 17q-20 0 -38.5 -4t-41.5 -23.5t-30 -52.5l-25 -116h114l-13 -62h-111l-81 -382h-80l81 382h-75l13 62h75l19 88q16 75 75.5 124t132.5 49q36 0 80 -11z" />
    <glyph glyph-name="g" unicode="g" 
d="M581 388q-28 4 -73 4q-62 0 -63 -5q0 -2 3 -7q16 -44 7 -89q-14 -67 -73 -115t-127 -48q-50 0 -89 29q-13 -17 -16 -34q-11 -52 47 -52h92q21 0 39 -1t51 -9t53.5 -21.5t32.5 -42t4 -67.5q-12 -57 -86.5 -96.5t-170.5 -39.5t-153 40t-45 95q14 64 86 104q-18 32 -9 75
q10 46 47 83q-24 47 -13 101q14 67 73 115t127 48q54 0 92 -32q81 32 167 32zM381 292q11 52 -10 77.5t-59 25.5q-36 0 -68.5 -24.5t-44.5 -79.5q-11 -52 10 -77.5t59 -25.5q36 0 68.5 24.5t44.5 79.5zM395 -71q5 23 -9 38t-40.5 20t-41.5 6.5t-31 1.5h-94q-34 0 -57 -16.5
t-28 -32.5l-6 -16q-7 -34 34.5 -55t103.5 -21t112 21.5t57 53.5z" />
    <glyph glyph-name="h" unicode="h" horiz-adv-x="531" 
d="M449 0h-83l62 290q3 13 4 22t-0.5 25.5t-9.5 26.5t-26.5 18t-46.5 8q-52 0 -86.5 -44t-46.5 -102l-52 -244h-83l148 694h80l-67 -311q74 72 163 72q141 0 107 -158z" />
    <glyph glyph-name="i" unicode="i" horiz-adv-x="245" 
d="M162 0h-80l94 444h80zM291 563h-96l20 96h96z" />
    <glyph glyph-name="j" unicode="j" horiz-adv-x="274" 
d="M178 -59q-14 -66 -60.5 -106t-100.5 -40q-63 0 -116 34l36 65q28 -31 69 -31q76 0 91 69l108 512h80zM311 563h-96l20 96h96z" />
    <glyph glyph-name="k" unicode="k" horiz-adv-x="502" 
d="M484 0h-86l-112 222l-98 -80l-30 -142h-73l148 694h76l-97 -456l248 206h95l-208 -172z" />
    <glyph glyph-name="l" unicode="l" horiz-adv-x="245" 
d="M162 0h-80l148 694h80z" />
    <glyph glyph-name="m" unicode="m" horiz-adv-x="816" 
d="M734 0h-83l62 290q3 13 4 22t-0.5 25.5t-9.5 26.5t-26.5 18t-46.5 8q-52 0 -86.5 -44t-46.5 -102l-52 -244h-83l62 290q3 13 4 22t-0.5 25.5t-9.5 26.5t-26.5 18t-46.5 8q-52 0 -86.5 -44t-46.5 -102l-52 -244h-83l96 450h77l-15 -71q73 76 166 76q104 0 112 -82
q82 82 173 82q141 0 107 -158z" />
    <glyph glyph-name="n" unicode="n" horiz-adv-x="531" 
d="M449 0h-83l62 290q3 13 4 22t-0.5 25.5t-9.5 26.5t-26.5 18t-46.5 8q-52 0 -86.5 -44t-46.5 -102l-52 -244h-83l96 450h77l-15 -71q73 76 166 76q141 0 107 -158z" />
    <glyph glyph-name="o" unicode="o" 
d="M530 220q-21 -97 -101.5 -164t-174.5 -67q-92 0 -145 66.5t-32 164.5q21 100 102.5 170.5t174.5 70.5q95 0 146 -71t30 -170zM449 230q17 81 -16.5 123.5t-92.5 42.5q-57 0 -109 -42t-69 -124q-17 -81 14.5 -127t92.5 -46q59 0 110.5 45.5t69.5 127.5z" />
    <glyph glyph-name="p" unicode="p" horiz-adv-x="531" 
d="M541 223q-21 -100 -91 -167t-147 -67q-80 0 -127 57l-51 -240h-83l135 638h80l-10 -48q89 59 184 59q70 0 100 -69t10 -163zM458 222q15 70 -15.5 117.5t-87.5 47.5q-38 0 -69.5 -18t-48.5 -37l-46 -216q23 -62 83 -62t114.5 48.5t69.5 119.5z" />
    <glyph glyph-name="q" unicode="q" horiz-adv-x="531" 
d="M406 -194h-83l51 243q-80 -60 -169 -60q-73 0 -108 68.5t-14 163.5q21 100 91.5 167t147.5 67t127 -68l15 68h80zM397 141l29 138q8 36 -12 72t-65 36q-59 0 -113.5 -47t-69.5 -119q-15 -69 15 -118t87 -49q44 0 81 28q41 28 48 59z" />
    <glyph glyph-name="r" unicode="r" horiz-adv-x="351" 
d="M417 383q-71 -1 -131.5 -47.5t-77.5 -122.5l-45 -213h-80l96 450h74l-20 -91q86 94 200 96z" />
    <glyph glyph-name="s" unicode="s" horiz-adv-x="394" 
d="M397 129q-9 -42 -31.5 -71.5t-53 -43.5t-58 -19.5t-55.5 -5.5q-90 0 -163 44l29 73q60 -50 148 -50q94 0 108 65q4 18 -2 31t-20.5 20.5t-25 10.5t-27.5 6q-55 11 -77 19.5t-44 31.5q-32 39 -21 89q7 31 22.5 55.5t37 38t41 22t43 11.5t33.5 4t21 1q78 0 142 -32l-28 -70
q-61 39 -136 39q-86 0 -99 -59q-5 -22 8 -36t26.5 -18t38.5 -9q51 -10 74 -18.5t42 -28.5q40 -43 27 -100z" />
    <glyph glyph-name="t" unicode="t" horiz-adv-x="371" 
d="M348 26q-82 -37 -160 -37q-87 0 -57 137l54 256h-85l13 62h88l27 127h74l-27 -127h144l-13 -62h-144l-50 -238q-18 -87 33 -87t99 32z" />
    <glyph glyph-name="u" unicode="u" horiz-adv-x="531" 
d="M449 0h-80l10 48q-79 -59 -195 -59q-54 0 -73.5 28.5t-6.5 91.5l71 335h83l-70 -330q-8 -36 3.5 -51t61.5 -15q51 0 92.5 26t53.5 81l61 289h83z" />
    <glyph glyph-name="v" unicode="v" horiz-adv-x="474" 
d="M553 444l-270 -444h-93l-82 444h82l37 -209q24 -145 22 -180h2q14 40 101 186q30 50 61.5 102t60.5 101h79z" />
    <glyph glyph-name="w" unicode="w" horiz-adv-x="702" 
d="M781 444l-235 -444h-91l-23 247q-3 26 -4 72q0 59 1 68h-1q-11 -41 -89 -194l-101 -193h-83l-47 444h80l19 -195q13 -139 8 -190h1q17 62 188 385h74l22 -222q12 -130 9 -166h1q18 55 194 388h77z" />
    <glyph glyph-name="x" unicode="x" horiz-adv-x="474" 
d="M473 0h-88l-111 187l-187 -187h-87l248 229l-148 215h87l107 -163l169 163h87l-233 -215z" />
    <glyph glyph-name="y" unicode="y" horiz-adv-x="474" 
d="M553 444l-334 -530q-27 -42 -50 -68.5t-42 -36t-29 -12t-25 -2.5q-48 0 -72 8l9 69q35 -17 77 -17q10 0 16.5 2t21.5 15t33 39l56 89l-106 444h84q37 -165 45 -207q27 -128 20 -178q9 33 43.5 97.5t66.5 115.5t107 172h79z" />
    <glyph glyph-name="z" unicode="z" horiz-adv-x="447" 
d="M413 0h-384l9 43l340 339h-77q-6 0 -18 -0.5t-18 -0.5h-141l13 63h367l-8 -41l-339 -338h84q6 0 18 0.5t18 0.5h150z" />
    <glyph glyph-name="braceleft" unicode="{" 
d="M390 -237q-3 -13 -24 -13q-81 0 -130 34q-25 17 -34.5 39.5t-8 37t6.5 41.5l42 198q9 41 8 47q-2 40 -31 64t-83 26q-13 0 -10 13t16 13q65 4 107 35q30 23 39.5 44.5t23.5 86.5l42 196q12 54 77 89.5t147 35.5h8.5t6 -1.5t4.5 -4t0 -7.5q-3 -10 -13 -12q-71 -5 -113 -37
q-28 -21 -37 -43t-26 -100l-32 -150q-5 -24 -10.5 -38t-20 -37t-43.5 -40.5t-73 -29.5q96 -30 93 -104q-1 -10 -17 -87l-32 -150q-8 -34 -8 -50q2 -37 32 -59t78 -25q5 0 8.5 -0.5t5.5 -3.5t1 -8z" />
    <glyph glyph-name="bar" unicode="|" horiz-adv-x="286" 
d="M118 -215q-7 -35 -28 -35q-22 0 -15 35l198 930q2 11 4 17t8.5 12t16.5 6q22 0 14 -35z" />
    <glyph glyph-name="braceright" unicode="}" 
d="M493 250q-3 -13 -16 -13q-64 -4 -107 -35q-30 -23 -39.5 -44.5t-23.5 -86.5l-42 -196q-12 -54 -77.5 -89.5t-145.5 -35.5q-8 0 -11.5 0.5t-6 3.5t-1.5 9q1 10 12 12q70 5 113 37q28 21 37.5 43.5t25.5 99.5l32 150q5 24 10.5 38t20 37t44 40.5t72.5 29.5q-96 31 -93 104
l18 87l32 150q8 39 7 50q-2 37 -32 59t-78 25q-15 2 -15 8q0 2 1 4q2 13 24 13q81 0 129 -34q25 -17 34.5 -39.5t8 -37t-6.5 -41.5l-42 -198q-8 -37 -8 -47q2 -40 31.5 -64t82.5 -26q13 0 10 -13z" />
    <glyph glyph-name="asciitilde" unicode="~" horiz-adv-x="556" 
d="M617 290l-64 -44q-24 -17 -64 -35q-43 -18 -77 -18q-41 0 -93 34q-56 37 -96 37q-68 0 -168 -71l-10 17l63 44q24 17 64 35q45 18 77 18q43 0 93 -34q21 -14 31 -19.5t28 -11.5t37 -6q69 0 168 71z" />
    <glyph glyph-name="uni00A0" unicode="&#xa0;" 
 />
    <glyph glyph-name="exclamdown" unicode="&#xa1;" horiz-adv-x="326" 
d="M294 414h-86l18 86h86zM165 -194h-86l109 474l9 43h70l-9 -43z" />
    <glyph glyph-name="cent" unicode="&#xa2;" horiz-adv-x="457" 
d="M435 37q-74 -40 -152 -47l-12 -58h-68l13 61q-76 15 -113 80t-20 149q18 83 81.5 150.5t149.5 84.5l12 55h68l-11 -51q40 -2 66.5 -11.5t61.5 -32.5l-28 -70q-54 43 -115 45l-71 -334q73 6 147 50zM231 64l68 322q-53 -16 -87 -62t-46 -101q-12 -59 5.5 -102t59.5 -57z
" />
    <glyph glyph-name="sterling" unicode="&#xa3;" horiz-adv-x="687" 
d="M649 148q-15 -69 -67 -119.5t-114 -50.5q-45 0 -104 16q-53 14 -84 20t-73.5 3t-64.5 -24l-53 54q61 58 100 106.5t59 103.5q10 28 12 56h-124l14 68h103q-1 12 -3 25.5t-3 21t-1 8.5q2 100 78.5 179t174.5 79q83 0 127 -61.5t26 -147.5h-84q11 52 -14 88.5t-73 36.5
q-58 0 -103 -48t-46 -109q0 -12 10 -72h151l-14 -68h-134q-5 -36 -16 -68q-25 -69 -83 -142q51 -1 155 -28q50 -13 85 -13q28 0 50 26t29 60h84z" />
    <glyph glyph-name="currency" unicode="&#xa4;" horiz-adv-x="799" 
d="M644 9q-20 -16 -38 9l-59 75q-66 -45 -137 -45t-118 45l-91 -75q-8 -7 -11 -9t-10 -5.5t-12 -2t-9 7.5q-12 15 18 40l91 75q-32 54 -17 126q14 69 72 127l-60 76q-20 25 -1 40q19 16 38 -10l60 -76q64 45 136 45q68 0 117 -44l91 75q30 25 42 9q11 -15 -19 -40l-91 -75
q34 -53 19 -127q-15 -72 -72 -126l59 -75q20 -25 2 -40zM613 250q14 66 -23 113t-103 47q-67 0 -123.5 -47t-70.5 -113t22.5 -113t103.5 -47q66 0 123 47t71 113z" />
    <glyph glyph-name="yen" unicode="&#xa5;" horiz-adv-x="687" 
d="M831 694l-301 -328h120l-15 -68h-168l-18 -20l-14 -64h182l-14 -68h-182l-31 -146h-93l31 146h-183l14 68h183l14 64l-10 20h-169l15 68h121l-162 328h114l119 -244l38 -84h18l81 92l216 236h94z" />
    <glyph glyph-name="brokenbar" unicode="&#xa6;" horiz-adv-x="286" 
d="M237 343q-8 -34 -28 -34q-11 0 -14.5 10t-0.5 24l79 372q2 11 4 17t8.5 12t16.5 6q22 0 14 -35zM118 -215q-7 -35 -28 -35q-22 0 -15 35l79 372q8 34 30 34q21 0 13 -34z" />
    <glyph glyph-name="section" unicode="&#xa7;" horiz-adv-x="540" 
d="M548 200q-18 -86 -102 -142q23 -42 13 -92q-16 -75 -85 -126.5t-149 -51.5t-127.5 49t-32.5 122h84q-9 -41 18.5 -68t73.5 -27t85 29.5t49 72.5q13 60 -76 102l-93 46q-58 29 -89 77.5t-18 108.5q18 85 101 141q-24 42 -12 93q16 75 84.5 126.5t148.5 51.5t127.5 -49
t32.5 -122h-84q9 41 -18.5 68t-73.5 27t-85 -29.5t-48 -72.5q-13 -60 75 -102l93 -46q58 -29 89.5 -77.5t18.5 -108.5zM464 200q14 65 -74 109l-94 46q-27 13 -51 33q-51 -32 -62 -88q-14 -66 74 -109l93 -46q27 -15 51 -33q50 29 63 88z" />
    <glyph glyph-name="dieresis" unicode="&#xa8;" 
d="M342 568h-87l18 86h87zM502 568h-87l18 86h87z" />
    <glyph glyph-name="copyright" unicode="&#xa9;" horiz-adv-x="694" 
d="M768 347q-31 -144 -154 -245.5t-267 -101.5t-224 101.5t-49 245.5t154 245.5t267 101.5t224 -101.5t49 -245.5zM728 347q27 127 -43.5 217t-198.5 90q-127 0 -236 -90t-136 -217t44 -217t198 -90t236 90t136 217zM524 158q-38 -20 -63.5 -27t-64.5 -7q-90 0 -133.5 66.5
t-24.5 156.5q19 91 91 157t161 66q58 0 110 -21l-21 -52q-43 32 -98 32q-64 0 -117 -53.5t-68 -128.5q-16 -73 13.5 -127.5t95.5 -54.5q28 0 50.5 5.5t35.5 11.5t39 21z" />
    <glyph glyph-name="ordfeminine" unicode="&#xaa;" horiz-adv-x="383" 
d="M430 394h-67l5 26q-62 -34 -150 -34q-49 0 -68 29t-12 60q9 42 78 65.5t180 25.5l6 29q8 35 -7.5 56t-50.5 21q-72 0 -138 -36l6 50q71 30 142 30q62 0 96 -34t23 -86zM383 332q-2 -10 -14 -17t-26 -7h-173q-14 0 -22 7t-6 17q1 10 13 17t26 7h173q14 0 22.5 -7t6.5 -17z
M381 492l7 36q-22 0 -53 -2t-79 -15t-53 -35q-4 -20 16 -32t54 -12q40 0 68 13q15 7 24 16.5t11 14.5t5 16z" />
    <glyph glyph-name="guillemotleft" unicode="&#xab;" 
d="M286 0h-65l-60 219l153 219h65l-134 -219zM457 0h-65l-60 219l153 219h65l-134 -219z" />
    <glyph glyph-name="logicalnot" unicode="&#xac;" horiz-adv-x="799" 
d="M772 145q-5 -21 -26 -21q-9 0 -13.5 6t-2.5 15l40 190h-621q-9 0 -13.5 6t-2.5 15q1 9 8.5 15t16.5 6h642q20 0 17 -21z" />
    <glyph glyph-name="uni00AD" unicode="&#xad;" horiz-adv-x="343" 
d="M326 191h-274l13 62h274z" />
    <glyph glyph-name="registered" unicode="&#xae;" horiz-adv-x="694" 
d="M768 347q-31 -144 -154 -245.5t-267 -101.5t-224 101.5t-49 245.5t154 245.5t267 101.5t224 -101.5t49 -245.5zM728 347q27 127 -43.5 217t-198.5 90q-127 0 -236 -90t-136 -217t44 -217t198 -90t236 90t136 217zM554 137h-58l-74 191h-96l-41 -191h-57l89 420h153
q65 0 103.5 -33.5t28.5 -79.5q-7 -37 -42.5 -67t-85.5 -43zM550 444q8 33 -17.5 55t-77.5 22h-88l-33 -154h88q53 0 87.5 22.5t40.5 54.5z" />
    <glyph glyph-name="macron" unicode="&#xaf;" 
d="M564 576h-371l15 69h371z" />
    <glyph glyph-name="degree" unicode="&#xb0;" horiz-adv-x="385" 
d="M452 552q-12 -59 -62.5 -101t-109.5 -42t-92 42t-21 101q13 59 64 100.5t110 41.5t91.5 -41.5t19.5 -100.5zM410 552q9 41 -14 70.5t-64 29.5q-42 0 -78 -29.5t-45 -70.5q-9 -42 14.5 -71.5t65.5 -29.5q41 0 76.5 29.5t44.5 71.5z" />
    <glyph glyph-name="plusminus" unicode="&#xb1;" horiz-adv-x="799" 
d="M745 21q-4 -21 -39 -21h-614q-11 0 -16.5 0.5t-10.5 6t-3 15.5q4 21 39 21h286l59 278h-286q-11 0 -16.5 0.5t-10.5 6t-3 15.5q4 21 39 21h286l61 286q8 35 29 35q23 0 14 -35l-61 -286h285q11 0 16.5 -0.5t11 -6t3.5 -15.5q-5 -21 -40 -21h-285l-59 -278h285
q11 0 16.5 -0.5t10.5 -6t3 -15.5z" />
    <glyph glyph-name="two.superior" unicode="&#xb2;" horiz-adv-x="364" 
d="M399 311h-296l9 41l155 105q39 25 59 39.5t41 39t27 50.5q8 38 -15 64t-70 26q-78 0 -120 -90l-26 34q56 96 164 96q71 0 106.5 -37.5t24.5 -91.5q-9 -40 -42.5 -68t-110.5 -74l-138 -90h79q5 0 14 0.5t13 0.5h136z" />
    <glyph glyph-name="three.superior" unicode="&#xb3;" horiz-adv-x="369" 
d="M427 419q-10 -49 -62.5 -85t-119.5 -36q-93 0 -138 60q3 5 7 15t10 23q16 -25 51 -42t78 -17q40 0 68.5 23.5t36.5 59.5q7 32 -9.5 57.5t-64.5 25.5h-54l8 39l40 3q52 4 78 29.5t32 50.5q6 26 -13 40t-49 14q-75 0 -125 -60l-21 34q63 63 155 63q56 0 90 -26.5t26 -64.5
q-7 -32 -34 -59t-68 -43q43 -13 64 -41t14 -63z" />
    <glyph glyph-name="acute" unicode="&#xb4;" 
d="M550 694l-188 -167h-65l170 167h83z" />
    <glyph glyph-name="uni00B5" unicode="&#xb5;" horiz-adv-x="531" 
d="M449 0h-81l10 47q-79 -58 -193 -58q-16 0 -22 1l-39 -184h-84l135 638h84l-69 -328q-5 -23 -4.5 -38t16.5 -22.5t52 -7.5q53 0 93 27q41 30 51 82l61 287h84z" />
    <glyph glyph-name="paragraph" unicode="&#xb6;" horiz-adv-x="628" 
d="M741 672q-5 -21 -40 -21h-51l-172 -810q-7 -35 -28 -35q-22 0 -15 35l172 810h-72l-172 -810q-7 -35 -28 -35q-22 0 -15 35l82 387q-51 2 -98.5 17t-86 42.5t-56.5 72.5t-6 101q21 99 111.5 166t194.5 67h250q11 0 16.5 -0.5t10.5 -6t3 -15.5z" />
    <glyph glyph-name="periodcentered" unicode="&#xb7;" horiz-adv-x="799" 
d="M508 304h-86l18 86h86z" />
    <glyph glyph-name="cedilla" unicode="&#xb8;" horiz-adv-x="457" 
d="M284 -24l-103 -168h-74l112 168h65z" />
    <glyph glyph-name="one.superior" unicode="&#xb9;" horiz-adv-x="379" 
d="M381 311h-246l8 37h92l65 306q-42 -14 -99 -14l8 37q94 0 150 39h15l-78 -368h93z" />
    <glyph glyph-name="ordmasculine" unicode="&#xba;" horiz-adv-x="431" 
d="M522 548q-14 -68 -80 -115t-145 -47q-78 0 -124 46.5t-32 115.5q15 70 81.5 119t144.5 49q80 0 125 -49.5t30 -118.5zM443 332q-2 -10 -14 -17t-26 -7h-245q-14 0 -22 7t-6 17q1 10 13 17t26 7h245q13 0 22 -7t7 -17zM454 555q12 56 -17 86t-79 30q-48 0 -90.5 -29.5
t-54.5 -86.5t16 -89t79 -32q49 0 91.5 32t54.5 89z" />
    <glyph glyph-name="guillemotright" unicode="&#xbb;" 
d="M446 219l-153 -219h-65l134 219l-41 219h65zM275 219l-153 -219h-65l134 219l-41 219h65z" />
    <glyph glyph-name="onequarter" unicode="&#xbc;" horiz-adv-x="808" 
d="M381 311h-246l8 37h92l65 306q-42 -14 -99 -14l8 37q94 0 150 39h15l-78 -368h93zM764 100h-72l-21 -100h-60l21 100h-195l9 39l238 253h70l-53 -253h72zM818 674l-550 -654h-50l550 654h50zM645 139l48 226q-9 -34 -132 -166l-56 -60h140z" />
    <glyph glyph-name="onehalf" unicode="&#xbd;" horiz-adv-x="808" 
d="M381 311h-246l8 37h92l65 306q-42 -14 -99 -14l8 37q94 0 150 39h15l-78 -368h93zM743 0h-296l9 41l156 105q39 25 59 39.5t41 39t26 50.5q9 38 -14 64t-70 26q-79 0 -121 -90l-25 35q55 96 164 96q71 0 106 -38t24 -92q-9 -40 -42.5 -68.5t-110.5 -73.5l-137 -90h79
q5 0 14 0.5t13 0.5h135zM778 674l-551 -654h-49l550 654h50z" />
    <glyph glyph-name="threequarters" unicode="&#xbe;" horiz-adv-x="808" 
d="M458 419q-10 -49 -62.5 -85t-119.5 -36q-93 0 -138 60q3 5 7 15t10 23q16 -25 51 -42t78 -17q40 0 68.5 23.5t36.5 59.5q7 32 -9.5 57.5t-64.5 25.5h-54l8 39l40 3q52 4 78 29.5t32 50.5q6 26 -13 40t-49 14q-75 0 -125 -60l-21 34q63 63 155 63q56 0 90 -26.5t26 -64.5
q-7 -32 -34 -59t-68 -43q43 -13 64 -41t14 -63zM764 100h-72l-21 -100h-60l21 100h-195l9 39l238 253h70l-53 -253h72zM818 674l-550 -654h-50l550 654h50zM645 139l48 226q-9 -34 -132 -166l-56 -60h140z" />
    <glyph glyph-name="questiondown" unicode="&#xbf;" horiz-adv-x="485" 
d="M359 414h-86l18 86h86zM395 -152q-105 -53 -209 -53q-91 0 -122.5 44.5t-16.5 111.5q6 32 21.5 58.5t26 37t29.5 26.5q101 84 126 195l12 55h70l-7 -32q-35 -163 -153 -269q-32 -26 -43 -73q-10 -48 7 -68.5t63 -20.5q95 0 186 55z" />
    <glyph glyph-name="Agrave" unicode="&#xc0;" horiz-adv-x="687" 
d="M657 0h-99l-35 199h-297l-118 -199h-79l416 694h92zM512 258l-48 362l-201 -362h249zM597 746h-89l-171 122h111z" />
    <glyph glyph-name="Aacute" unicode="&#xc1;" horiz-adv-x="687" 
d="M657 0h-99l-35 199h-297l-118 -199h-79l416 694h92zM512 258l-48 362l-201 -362h249zM719 868l-223 -122h-89l201 122h111z" />
    <glyph glyph-name="Acircumflex" unicode="&#xc2;" horiz-adv-x="687" 
d="M657 0h-99l-35 199h-297l-118 -199h-79l416 694h92zM512 258l-48 362l-201 -362h249zM656 736h-59l-76 97l-118 -97h-59l155 134h60z" />
    <glyph glyph-name="Atilde" unicode="&#xc3;" horiz-adv-x="687" 
d="M657 0h-99l-35 199h-297l-118 -199h-79l416 694h92zM512 258l-48 362l-201 -362h249zM696 859q-12 -55 -49.5 -89t-77.5 -34q-26 0 -67 31q-34 27 -57 27q-21 0 -33.5 -18t-17.5 -40h-65q13 56 50 89.5t77 33.5q25 0 68 -31q32 -27 57 -27q21 0 33.5 18.5t16.5 39.5h65z
" />
    <glyph glyph-name="Adieresis" unicode="&#xc4;" horiz-adv-x="687" 
d="M657 0h-99l-35 199h-297l-118 -199h-79l416 694h92zM512 258l-48 362l-201 -362h249zM450 736h-87l19 86h87zM638 736h-87l19 86h87z" />
    <glyph glyph-name="Aring" unicode="&#xc5;" horiz-adv-x="687" 
d="M657 0h-99l-35 199h-297l-118 -199h-79l416 694h92zM512 258l-48 362l-201 -362h249zM559 778q5 21 -9 29t-34 8q-51 0 -59 -37q-4 -21 10 -29t33 -8q51 0 59 37zM623 777q-7 -33 -45.5 -58t-87.5 -25t-77 25t-20 60q7 33 45.5 58t87.5 25t77 -25t20 -60z" />
    <glyph glyph-name="AE" unicode="&#xc6;" horiz-adv-x="886" 
d="M842 0h-411l47 219h-231l-138 -219h-80l439 694h508l-15 -70h-69l-211 2h-22l-49 -233h273l-14 -65h-273l-54 -254q14 1 122 1l194 1zM490 278l74 348h-60l-220 -348h206z" />
    <glyph glyph-name="Ccedilla" unicode="&#xc7;" horiz-adv-x="657" 
d="M612 34q-62 -32 -104 -44t-107 -12q-98 0 -166 52t-92 136t-3 181q32 150 151.5 259.5t265.5 109.5q96 0 181 -35l-35 -87q-69 54 -161 54q-105 0 -192.5 -89t-113.5 -212q-26 -120 22.5 -210.5t158.5 -90.5q46 0 83 8.5t58.5 19t63.5 34.5zM400 -46l-102 -168h-74
l111 168h65z" />
    <glyph glyph-name="Egrave" unicode="&#xc8;" horiz-adv-x="617" 
d="M573 0h-478l147 691h464l-15 -70h-86l-244 2h-38l-49 -231h339l-13 -65h-339l-54 -253l282 2h100zM562 746h-89l-171 122h111z" />
    <glyph glyph-name="Eacute" unicode="&#xc9;" horiz-adv-x="617" 
d="M573 0h-478l147 691h464l-15 -70h-86l-244 2h-38l-49 -231h339l-13 -65h-339l-54 -253l282 2h100zM684 868l-223 -122h-89l201 122h111z" />
    <glyph glyph-name="Ecircumflex" unicode="&#xca;" horiz-adv-x="617" 
d="M573 0h-478l147 691h464l-15 -70h-86l-244 2h-38l-49 -231h339l-13 -65h-339l-54 -253l282 2h100zM621 736h-59l-76 97l-118 -97h-59l155 134h60z" />
    <glyph glyph-name="Edieresis" unicode="&#xcb;" horiz-adv-x="617" 
d="M573 0h-478l147 691h464l-15 -70h-86l-244 2h-38l-49 -231h339l-13 -65h-339l-54 -253l282 2h100zM415 736h-87l19 86h87zM603 736h-87l19 86h87z" />
    <glyph glyph-name="Igrave" unicode="&#xcc;" horiz-adv-x="287" 
d="M191 0h-96l148 694h96zM349 746h-89l-171 122h111z" />
    <glyph glyph-name="Iacute" unicode="&#xcd;" horiz-adv-x="287" 
d="M191 0h-96l148 694h96zM565 868l-223 -122h-89l201 122h111z" />
    <glyph glyph-name="Icircumflex" unicode="&#xce;" horiz-adv-x="287" 
d="M191 0h-96l148 694h96zM456 736h-59l-76 97l-118 -97h-59l155 134h60z" />
    <glyph glyph-name="Idieresis" unicode="&#xcf;" horiz-adv-x="287" 
d="M191 0h-96l148 694h96zM250 736h-87l19 86h87zM438 736h-87l19 86h87z" />
    <glyph glyph-name="Eth" unicode="&#xd0;" horiz-adv-x="743" 
d="M757 341q-30 -142 -143 -241.5t-244 -99.5h-273l67 313h-84l14 68h84l67 313h273q131 0 200.5 -103t38.5 -250zM664 341q29 133 -25 213.5t-160 80.5h-154l-54 -254h98l-14 -68h-98l-54 -254h155q105 0 192 77t114 205z" />
    <glyph glyph-name="Ntilde" unicode="&#xd1;" horiz-adv-x="727" 
d="M628 0h-132l-15 52q-1 3 -15 47l-154 517h-1l-131 -616h-82l148 694h132l14 -52q6 -10 15 -47l155 -517h1l131 616h82zM716 859q-12 -55 -49.5 -89t-77.5 -34q-26 0 -67 31q-34 27 -57 27q-21 0 -33.5 -18t-17.5 -40h-65q13 56 50 89.5t77 33.5q25 0 68 -31
q32 -27 57 -27q21 0 33.5 18.5t16.5 39.5h65z" />
    <glyph glyph-name="Ograve" unicode="&#xd2;" horiz-adv-x="759" 
d="M774 344q-33 -154 -150.5 -260t-249.5 -106q-131 0 -204 106t-40 260q33 156 151.5 264t249.5 108t203.5 -108t39.5 -264zM681 359q28 130 -22.5 209.5t-141.5 79.5t-175.5 -79t-112.5 -210q-29 -137 19.5 -224t140.5 -87t177.5 87t114.5 224zM633 746h-89l-171 122h111z
" />
    <glyph glyph-name="Oacute" unicode="&#xd3;" horiz-adv-x="759" 
d="M774 344q-33 -154 -150.5 -260t-249.5 -106q-131 0 -204 106t-40 260q33 156 151.5 264t249.5 108t203.5 -108t39.5 -264zM681 359q28 130 -22.5 209.5t-141.5 79.5t-175.5 -79t-112.5 -210q-29 -137 19.5 -224t140.5 -87t177.5 87t114.5 224zM755 868l-223 -122h-89
l201 122h111z" />
    <glyph glyph-name="Ocircumflex" unicode="&#xd4;" horiz-adv-x="759" 
d="M774 344q-33 -154 -150.5 -260t-249.5 -106q-131 0 -204 106t-40 260q33 156 151.5 264t249.5 108t203.5 -108t39.5 -264zM681 359q28 130 -22.5 209.5t-141.5 79.5t-175.5 -79t-112.5 -210q-29 -137 19.5 -224t140.5 -87t177.5 87t114.5 224zM692 736h-59l-76 97
l-118 -97h-59l155 134h60z" />
    <glyph glyph-name="Otilde" unicode="&#xd5;" horiz-adv-x="759" 
d="M774 344q-33 -154 -150.5 -260t-249.5 -106q-131 0 -204 106t-40 260q33 156 151.5 264t249.5 108t203.5 -108t39.5 -264zM681 359q28 130 -22.5 209.5t-141.5 79.5t-175.5 -79t-112.5 -210q-29 -137 19.5 -224t140.5 -87t177.5 87t114.5 224zM732 859q-12 -55 -49.5 -89
t-77.5 -34q-26 0 -67 31q-34 27 -57 27q-21 0 -33.5 -18t-17.5 -40h-65q13 56 50 89.5t77 33.5q25 0 68 -31q32 -27 57 -27q21 0 33.5 18.5t16.5 39.5h65z" />
    <glyph glyph-name="Odieresis" unicode="&#xd6;" horiz-adv-x="759" 
d="M774 344q-33 -154 -150.5 -260t-249.5 -106q-131 0 -204 106t-40 260q33 156 151.5 264t249.5 108t203.5 -108t39.5 -264zM681 359q28 130 -22.5 209.5t-141.5 79.5t-175.5 -79t-112.5 -210q-29 -137 19.5 -224t140.5 -87t177.5 87t114.5 224zM486 736h-87l19 86h87z
M674 736h-87l19 86h87z" />
    <glyph glyph-name="multiply" unicode="&#xd7;" horiz-adv-x="799" 
d="M644 9q-20 -16 -38 9l-160 202l-245 -202q-8 -7 -11 -9t-10 -5.5t-12 -2t-9 7.5q-12 15 18 40l245 202l-159 202q-20 25 -1 40q19 16 38 -10l159 -202l245 202q30 25 42 9q11 -15 -19 -40l-244 -201l159 -202q20 -25 2 -40z" />
    <glyph glyph-name="Oslash" unicode="&#xd8;" horiz-adv-x="799" 
d="M814 344q-32 -153 -155.5 -259.5t-264.5 -106.5q-79 0 -145 39l-66 -83l-52 34l70 88q-46 43 -68.5 119t-2.5 169q33 155 157 263.5t264 108.5q79 0 146 -39l66 83l51 -34l-70 -89q50 -49 69.5 -126.5t0.5 -166.5zM649 618q-51 33 -112 33q-103 0 -194.5 -83t-121.5 -224
q-29 -139 30 -225zM723 344q31 140 -30 229l-397 -497q51 -33 112 -33q103 0 194.5 81.5t120.5 219.5z" />
    <glyph glyph-name="Ugrave" unicode="&#xd9;" horiz-adv-x="707" 
d="M661 233q-23 -108 -114 -181.5t-196 -73.5q-106 0 -168 73.5t-38 182.5l98 460h96l-99 -462q-20 -94 18.5 -144.5t106.5 -50.5q69 0 131 51t82 145l98 461h83zM607 746h-89l-171 122h111z" />
    <glyph glyph-name="Uacute" unicode="&#xda;" horiz-adv-x="707" 
d="M661 233q-23 -108 -114 -181.5t-196 -73.5q-106 0 -168 73.5t-38 182.5l98 460h96l-99 -462q-20 -94 18.5 -144.5t106.5 -50.5q69 0 131 51t82 145l98 461h83zM729 868l-223 -122h-89l201 122h111z" />
    <glyph glyph-name="Ucircumflex" unicode="&#xdb;" horiz-adv-x="707" 
d="M661 233q-23 -108 -114 -181.5t-196 -73.5q-106 0 -168 73.5t-38 182.5l98 460h96l-99 -462q-20 -94 18.5 -144.5t106.5 -50.5q69 0 131 51t82 145l98 461h83zM666 736h-59l-76 97l-118 -97h-59l155 134h60z" />
    <glyph glyph-name="Udieresis" unicode="&#xdc;" horiz-adv-x="707" 
d="M661 233q-23 -108 -114 -181.5t-196 -73.5q-106 0 -168 73.5t-38 182.5l98 460h96l-99 -462q-20 -94 18.5 -144.5t106.5 -50.5q69 0 131 51t82 145l98 461h83zM460 736h-87l19 86h87zM648 736h-87l19 86h87z" />
    <glyph glyph-name="Yacute" unicode="&#xdd;" horiz-adv-x="687" 
d="M831 694l-382 -416l-59 -278h-93l59 278l-205 416h114l119 -244l44 -97l93 105l216 236h94zM719 868l-223 -122h-89l201 122h111z" />
    <glyph glyph-name="Thorn" unicode="&#xde;" horiz-adv-x="600" 
d="M621 374q-6 -31 -25.5 -63.5t-51.5 -62.5t-82.5 -49t-109.5 -19h-126l-38 -180h-90l148 694h90l-27 -126h133q101 0 148 -59t31 -135zM534 374q12 52 -26.5 93.5t-122.5 41.5h-89l-57 -270h97q61 0 107 25t65.5 53.5t25.5 56.5z" />
    <glyph glyph-name="germandbls" unicode="&#xdf;" horiz-adv-x="494" 
d="M502 179q-17 -80 -81 -135t-140 -55q-47 0 -87 18l37 62q30 -15 63 -15q42 0 77.5 32.5t48.5 93.5q17 81 -15 139.5t-104 59.5l13 65q68 1 109 36.5t49 76.5q8 37 -13.5 60t-63.5 23q-93 0 -116 -93l-116 -547h-80l117 549q16 76 79 116t130 40q74 0 116 -43.5t29 -104.5
q-7 -36 -37.5 -76.5t-88.5 -71.5q48 -33 69 -95t5 -135z" />
    <glyph glyph-name="agrave" unicode="&#xe0;" horiz-adv-x="494" 
d="M422 0h-80l8 38q-76 -49 -180 -49q-59 0 -79.5 41.5t-11.5 85.5q13 60 96 93.5t216 36.5l9 42q11 49 -7 79.5t-59 30.5q-85 0 -165 -52l9 71q86 44 170 44q74 0 112.5 -49t22.5 -123zM369 140l11 52q-15 0 -40 -2t-69.5 -8t-77 -23t-37.5 -41q-6 -29 17 -46.5t63 -17.5
q46 0 83 19q19 10 30 23t13.5 21t6.5 23zM431 527h-65l-116 167h83z" />
    <glyph glyph-name="aacute" unicode="&#xe1;" horiz-adv-x="494" 
d="M422 0h-80l8 38q-76 -49 -180 -49q-59 0 -79.5 41.5t-11.5 85.5q13 60 96 93.5t216 36.5l9 42q11 49 -7 79.5t-59 30.5q-85 0 -165 -52l9 71q86 44 170 44q74 0 112.5 -49t22.5 -123zM369 140l11 52q-15 0 -40 -2t-69.5 -8t-77 -23t-37.5 -41q-6 -29 17 -46.5t63 -17.5
q46 0 83 19q19 10 30 23t13.5 21t6.5 23zM540 694l-188 -167h-65l170 167h83z" />
    <glyph glyph-name="acircumflex" unicode="&#xe2;" horiz-adv-x="494" 
d="M422 0h-80l8 38q-76 -49 -180 -49q-59 0 -79.5 41.5t-11.5 85.5q13 60 96 93.5t216 36.5l9 42q11 49 -7 79.5t-59 30.5q-85 0 -165 -52l9 71q86 44 170 44q74 0 112.5 -49t22.5 -123zM369 140l11 52q-15 0 -40 -2t-69.5 -8t-77 -23t-37.5 -41q-6 -29 17 -46.5t63 -17.5
q46 0 83 19q19 10 30 23t13.5 21t6.5 23zM514 525h-59l-70 123l-122 -123h-59l161 172h60z" />
    <glyph glyph-name="atilde" unicode="&#xe3;" horiz-adv-x="494" 
d="M422 0h-80l8 38q-76 -49 -180 -49q-59 0 -79.5 41.5t-11.5 85.5q13 60 96 93.5t216 36.5l9 42q11 49 -7 79.5t-59 30.5q-85 0 -165 -52l9 71q86 44 170 44q74 0 112.5 -49t22.5 -123zM369 140l11 52q-15 0 -40 -2t-69.5 -8t-77 -23t-37.5 -41q-6 -29 17 -46.5t63 -17.5
q46 0 83 19q19 10 30 23t13.5 21t6.5 23zM560 672q-13 -56 -50 -89.5t-77 -33.5q-25 0 -68 31q-31 27 -57 27q-21 0 -33.5 -18.5t-16.5 -39.5h-65q12 55 49.5 89t77.5 34q26 0 67 -31q34 -27 58 -27q37 0 50 58h65z" />
    <glyph glyph-name="adieresis" unicode="&#xe4;" horiz-adv-x="494" 
d="M422 0h-80l8 38q-76 -49 -180 -49q-59 0 -79.5 41.5t-11.5 85.5q13 60 96 93.5t216 36.5l9 42q11 49 -7 79.5t-59 30.5q-85 0 -165 -52l9 71q86 44 170 44q74 0 112.5 -49t22.5 -123zM369 140l11 52q-15 0 -40 -2t-69.5 -8t-77 -23t-37.5 -41q-6 -29 17 -46.5t63 -17.5
q46 0 83 19q19 10 30 23t13.5 21t6.5 23zM332 568h-87l18 86h87zM492 568h-87l18 86h87z" />
    <glyph glyph-name="aring" unicode="&#xe5;" horiz-adv-x="494" 
d="M422 0h-80l8 38q-76 -49 -180 -49q-59 0 -79.5 41.5t-11.5 85.5q13 60 96 93.5t216 36.5l9 42q11 49 -7 79.5t-59 30.5q-85 0 -165 -52l9 71q86 44 170 44q74 0 112.5 -49t22.5 -123zM369 140l11 52q-15 0 -40 -2t-69.5 -8t-77 -23t-37.5 -41q-6 -29 17 -46.5t63 -17.5
q46 0 83 19q19 10 30 23t13.5 21t6.5 23zM425 601q4 21 -10 29t-33 8q-51 0 -59 -37q-5 -21 9.5 -29t33.5 -8q51 0 59 37zM489 600q-7 -33 -45.5 -58t-87.5 -25t-77 25t-20 60q7 33 45.5 58t87.5 25t77 -25t20 -60z" />
    <glyph glyph-name="ae" unicode="&#xe6;" horiz-adv-x="742" 
d="M759 219h-300q-12 -73 20 -119t91 -46q80 0 154 53l-9 -69q-77 -49 -159 -49q-102 0 -152 75q-71 -75 -240 -75q-36 0 -58.5 16t-28 37t-8 42.5t2.5 32.5q13 64 102.5 97t207.5 34q11 52 12.5 67.5t-6.5 39.5q-15 43 -63 43q-86 0 -165 -52l8 71q88 44 171 44
q92 0 128 -76q84 76 173 76q90 0 118 -77q22 -58 1 -165zM709 278q3 64 -22 91t-61 27q-42 0 -83.5 -33t-65.5 -85h232zM362 130q6 34 7 50q1 7 0 8.5t-6 1.5q-61 0 -124 -15q-44 -11 -65 -23.5t-25 -33.5q-6 -27 15 -45.5t65 -18.5q47 0 85 15q18 8 28.5 19.5t13.5 19
t6 22.5z" />
    <glyph glyph-name="ccedilla" unicode="&#xe7;" horiz-adv-x="457" 
d="M435 37q-91 -48 -178 -48q-96 0 -145 69t-29 164t98 167t180 72q51 0 80.5 -9t69.5 -35l-28 -70q-33 26 -61 36t-74 10q-74 0 -120.5 -51.5t-61.5 -118.5q-15 -72 14 -119t92 -47q87 0 172 51zM290 -46l-102 -168h-74l111 168h65z" />
    <glyph glyph-name="egrave" unicode="&#xe8;" horiz-adv-x="457" 
d="M474 219h-318q-13 -69 19.5 -117t94.5 -48q83 0 169 53l-9 -69q-87 -49 -174 -49q-94 0 -144 69t-29 168q20 96 95.5 165.5t162.5 69.5q93 0 128 -75q26 -60 5 -167zM426 278q1 36 -8.5 61t-26.5 36.5t-32.5 16t-31.5 4.5q-46 0 -87.5 -34t-65.5 -84h252zM412 527h-65
l-116 167h83z" />
    <glyph glyph-name="eacute" unicode="&#xe9;" horiz-adv-x="457" 
d="M474 219h-318q-13 -69 19.5 -117t94.5 -48q83 0 169 53l-9 -69q-87 -49 -174 -49q-94 0 -144 69t-29 168q20 96 95.5 165.5t162.5 69.5q93 0 128 -75q26 -60 5 -167zM426 278q1 36 -8.5 61t-26.5 36.5t-32.5 16t-31.5 4.5q-46 0 -87.5 -34t-65.5 -84h252zM521 694
l-188 -167h-65l170 167h83z" />
    <glyph glyph-name="ecircumflex" unicode="&#xea;" horiz-adv-x="457" 
d="M474 219h-318q-13 -69 19.5 -117t94.5 -48q83 0 169 53l-9 -69q-87 -49 -174 -49q-94 0 -144 69t-29 168q20 96 95.5 165.5t162.5 69.5q93 0 128 -75q26 -60 5 -167zM426 278q1 36 -8.5 61t-26.5 36.5t-32.5 16t-31.5 4.5q-46 0 -87.5 -34t-65.5 -84h252zM495 525h-59
l-70 123l-122 -123h-59l161 172h60z" />
    <glyph glyph-name="edieresis" unicode="&#xeb;" horiz-adv-x="457" 
d="M474 219h-318q-13 -69 19.5 -117t94.5 -48q83 0 169 53l-9 -69q-87 -49 -174 -49q-94 0 -144 69t-29 168q20 96 95.5 165.5t162.5 69.5q93 0 128 -75q26 -60 5 -167zM426 278q1 36 -8.5 61t-26.5 36.5t-32.5 16t-31.5 4.5q-46 0 -87.5 -34t-65.5 -84h252zM313 568h-87
l18 86h87zM473 568h-87l18 86h87z" />
    <glyph glyph-name="igrave" unicode="&#xec;" horiz-adv-x="245" 
d="M162 0h-80l94 444h80zM274 527h-65l-116 167h83z" />
    <glyph glyph-name="iacute" unicode="&#xed;" horiz-adv-x="245" 
d="M162 0h-80l94 444h80zM447 694l-188 -167h-65l170 167h83z" />
    <glyph glyph-name="icircumflex" unicode="&#xee;" horiz-adv-x="245" 
d="M162 0h-80l94 444h80zM390 525h-59l-70 123l-122 -123h-59l161 172h60z" />
    <glyph glyph-name="idieresis" unicode="&#xef;" horiz-adv-x="245" 
d="M162 0h-80l94 444h80zM208 568h-87l18 86h87zM368 568h-87l18 86h87z" />
    <glyph glyph-name="eth" unicode="&#xf0;" 
d="M536 245q-26 -120 -97 -181q-91 -75 -185 -75q-92 0 -145.5 67t-32.5 164q20 98 102 169.5t177 71.5q52 0 99 -27q-23 86 -80 148l-90 -61l-29 49l75 51q-42 31 -97 51l48 53q64 -19 119 -58l89 60l28 -49l-74 -50q67 -70 92 -170.5t1 -212.5zM448 225q16 72 -13 121.5
t-95 49.5q-58 0 -109.5 -42t-68.5 -124t14.5 -127.5t92.5 -45.5q64 0 114 48t65 120z" />
    <glyph glyph-name="ntilde" unicode="&#xf1;" horiz-adv-x="531" 
d="M449 0h-83l62 290q3 13 4 22t-0.5 25.5t-9.5 26.5t-26.5 18t-46.5 8q-52 0 -86.5 -44t-46.5 -102l-52 -244h-83l96 450h77l-15 -71q73 76 166 76q141 0 107 -158zM578 672q-13 -56 -50 -89.5t-77 -33.5q-25 0 -68 31q-32 27 -57 27q-21 0 -33.5 -18.5t-16.5 -39.5h-65
q12 55 49.5 89t77.5 34q26 0 67 -31q34 -27 58 -27q37 0 50 58h65z" />
    <glyph glyph-name="ograve" unicode="&#xf2;" 
d="M530 220q-21 -97 -101.5 -164t-174.5 -67q-92 0 -145 66.5t-32 164.5q21 100 102.5 170.5t174.5 70.5q95 0 146 -71t30 -170zM449 230q17 81 -16.5 123.5t-92.5 42.5q-57 0 -109 -42t-69 -124q-17 -81 14.5 -127t92.5 -46q59 0 110.5 45.5t69.5 127.5zM441 527h-65
l-116 167h83z" />
    <glyph glyph-name="oacute" unicode="&#xf3;" 
d="M530 220q-21 -97 -101.5 -164t-174.5 -67q-92 0 -145 66.5t-32 164.5q21 100 102.5 170.5t174.5 70.5q95 0 146 -71t30 -170zM449 230q17 81 -16.5 123.5t-92.5 42.5q-57 0 -109 -42t-69 -124q-17 -81 14.5 -127t92.5 -46q59 0 110.5 45.5t69.5 127.5zM550 694l-188 -167
h-65l170 167h83z" />
    <glyph glyph-name="ocircumflex" unicode="&#xf4;" 
d="M530 220q-21 -97 -101.5 -164t-174.5 -67q-92 0 -145 66.5t-32 164.5q21 100 102.5 170.5t174.5 70.5q95 0 146 -71t30 -170zM449 230q17 81 -16.5 123.5t-92.5 42.5q-57 0 -109 -42t-69 -124q-17 -81 14.5 -127t92.5 -46q59 0 110.5 45.5t69.5 127.5zM524 525h-59
l-70 123l-122 -123h-59l161 172h60z" />
    <glyph glyph-name="otilde" unicode="&#xf5;" 
d="M530 220q-21 -97 -101.5 -164t-174.5 -67q-92 0 -145 66.5t-32 164.5q21 100 102.5 170.5t174.5 70.5q95 0 146 -71t30 -170zM449 230q17 81 -16.5 123.5t-92.5 42.5q-57 0 -109 -42t-69 -124q-17 -81 14.5 -127t92.5 -46q59 0 110.5 45.5t69.5 127.5zM570 672
q-13 -56 -50 -89.5t-77 -33.5q-25 0 -68 31q-32 27 -57 27q-21 0 -33.5 -18.5t-16.5 -39.5h-65q12 55 49.5 89t77.5 34q26 0 67 -31q34 -27 58 -27q37 0 50 58h65z" />
    <glyph glyph-name="odieresis" unicode="&#xf6;" 
d="M530 220q-21 -97 -101.5 -164t-174.5 -67q-92 0 -145 66.5t-32 164.5q21 100 102.5 170.5t174.5 70.5q95 0 146 -71t30 -170zM449 230q17 81 -16.5 123.5t-92.5 42.5q-57 0 -109 -42t-69 -124q-17 -81 14.5 -127t92.5 -46q59 0 110.5 45.5t69.5 127.5zM342 568h-87l18 86
h87zM502 568h-87l18 86h87z" />
    <glyph glyph-name="divide" unicode="&#xf7;" horiz-adv-x="799" 
d="M794 250q-4 -21 -37 -21h-618q-9 0 -14.5 0.5t-11 5.5t-3.5 15q5 22 42 22h610q11 0 17 -0.5t11.5 -6t3.5 -15.5zM513 336h-86l19 86h86zM459 80h-86l18 86h86z" />
    <glyph glyph-name="oslash" unicode="&#xf8;" 
d="M528 220q-21 -97 -101.5 -164t-172.5 -67q-48 0 -84 18l-94 -120l-50 32l97 123q-66 73 -44 178q21 99 101.5 170t174.5 71q48 0 85 -20l92 117l50 -32l-96 -121q66 -72 42 -185zM394 385q-25 11 -53 11q-62 0 -114 -47t-69 -129q-17 -70 13 -117zM449 220q16 78 -12 124
l-220 -280q21 -10 51 -10q59 0 111 42.5t70 123.5z" />
    <glyph glyph-name="ugrave" unicode="&#xf9;" horiz-adv-x="531" 
d="M449 0h-80l10 48q-79 -59 -195 -59q-54 0 -73.5 28.5t-6.5 91.5l71 335h83l-70 -330q-8 -36 3.5 -51t61.5 -15q51 0 92.5 26t53.5 81l61 289h83zM449 527h-65l-116 167h83z" />
    <glyph glyph-name="uacute" unicode="&#xfa;" horiz-adv-x="531" 
d="M449 0h-80l10 48q-79 -59 -195 -59q-54 0 -73.5 28.5t-6.5 91.5l71 335h83l-70 -330q-8 -36 3.5 -51t61.5 -15q51 0 92.5 26t53.5 81l61 289h83zM558 694l-188 -167h-65l170 167h83z" />
    <glyph glyph-name="ucircumflex" unicode="&#xfb;" horiz-adv-x="531" 
d="M449 0h-80l10 48q-79 -59 -195 -59q-54 0 -73.5 28.5t-6.5 91.5l71 335h83l-70 -330q-8 -36 3.5 -51t61.5 -15q51 0 92.5 26t53.5 81l61 289h83zM532 525h-59l-70 123l-122 -123h-59l161 172h60z" />
    <glyph glyph-name="udieresis" unicode="&#xfc;" horiz-adv-x="531" 
d="M449 0h-80l10 48q-79 -59 -195 -59q-54 0 -73.5 28.5t-6.5 91.5l71 335h83l-70 -330q-8 -36 3.5 -51t61.5 -15q51 0 92.5 26t53.5 81l61 289h83zM350 568h-87l18 86h87zM510 568h-87l18 86h87z" />
    <glyph glyph-name="yacute" unicode="&#xfd;" horiz-adv-x="474" 
d="M553 444l-334 -530q-27 -42 -50 -68.5t-42 -36t-29 -12t-25 -2.5q-48 0 -72 8l9 69q35 -17 77 -17q10 0 16.5 2t21.5 15t33 39l56 89l-106 444h84q37 -165 45 -207q27 -128 20 -178q9 33 43.5 97.5t66.5 115.5t107 172h79zM530 694l-188 -167h-65l170 167h83z" />
    <glyph glyph-name="thorn" unicode="&#xfe;" horiz-adv-x="531" 
d="M541 223q-21 -100 -91 -167t-147 -67q-80 0 -127 57l-51 -240h-83l189 888h80l-64 -298q89 59 184 59q70 0 100 -69t10 -163zM458 222q15 70 -15.5 117.5t-87.5 47.5q-38 0 -69.5 -18t-48.5 -37l-46 -216q23 -62 83 -62t114.5 48.5t69.5 119.5z" />
    <glyph glyph-name="ydieresis" unicode="&#xff;" horiz-adv-x="474" 
d="M553 444l-334 -530q-27 -42 -50 -68.5t-42 -36t-29 -12t-25 -2.5q-48 0 -72 8l9 69q35 -17 77 -17q10 0 16.5 2t21.5 15t33 39l56 89l-106 444h84q37 -165 45 -207q27 -128 20 -178q9 33 43.5 97.5t66.5 115.5t107 172h79zM322 568h-87l18 86h87zM482 568h-87l18 86h87z
" />
    <glyph glyph-name="Amacron" unicode="&#x100;" horiz-adv-x="687" 
d="M657 0h-99l-35 199h-297l-118 -199h-79l416 694h92zM512 258l-48 362l-201 -362h249zM690 756h-371l14 69h371z" />
    <glyph glyph-name="amacron" unicode="&#x101;" horiz-adv-x="494" 
d="M422 0h-80l8 38q-76 -49 -180 -49q-59 0 -79.5 41.5t-11.5 85.5q13 60 96 93.5t216 36.5l9 42q11 49 -7 79.5t-59 30.5q-85 0 -165 -52l9 71q86 44 170 44q74 0 112.5 -49t22.5 -123zM369 140l11 52q-15 0 -40 -2t-69.5 -8t-77 -23t-37.5 -41q-6 -29 17 -46.5t63 -17.5
q46 0 83 19q19 10 30 23t13.5 21t6.5 23zM554 576h-371l15 69h371z" />
    <glyph glyph-name="Abreve" unicode="&#x102;" horiz-adv-x="687" 
d="M657 0h-99l-35 199h-297l-118 -199h-79l416 694h92zM512 258l-48 362l-201 -362h249zM715 926q-18 -79 -81 -129.5t-133 -50.5q-68 0 -109.5 50t-25.5 130h65q-9 -52 18.5 -80.5t68.5 -28.5q40 0 79.5 28.5t52.5 80.5h65z" />
    <glyph glyph-name="abreve" unicode="&#x103;" horiz-adv-x="494" 
d="M422 0h-80l8 38q-76 -49 -180 -49q-59 0 -79.5 41.5t-11.5 85.5q13 60 96 93.5t216 36.5l9 42q11 49 -7 79.5t-59 30.5q-85 0 -165 -52l9 71q86 44 170 44q74 0 112.5 -49t22.5 -123zM369 140l11 52q-15 0 -40 -2t-69.5 -8t-77 -23t-37.5 -41q-6 -29 17 -46.5t63 -17.5
q46 0 83 19q19 10 30 23t13.5 21t6.5 23zM570 701q-18 -79 -80.5 -129.5t-132.5 -50.5q-68 0 -110 50t-26 130h65q-9 -52 18.5 -80.5t68.5 -28.5q40 0 79.5 28.5t52.5 80.5h65z" />
    <glyph glyph-name="Aogonek" unicode="&#x104;" horiz-adv-x="687" 
d="M628 -187q-58 -25 -103 -25q-47 0 -67.5 25t-13.5 60q6 37 38 71t76 56l-35 199h-297l-118 -199h-79l416 694h92l120 -694h-33q-102 -51 -112 -104q-3 -21 8.5 -28.5t36.5 -9.5q29 -1 70 14zM512 258l-48 362l-201 -362h249z" />
    <glyph glyph-name="aogonek" unicode="&#x105;" horiz-adv-x="494" 
d="M412 -187q-58 -25 -103 -25q-47 0 -67.5 25t-13.5 60q6 37 38 71t76 56l8 38q-76 -49 -180 -49q-59 0 -79.5 41.5t-11.5 85.5q13 60 96 93.5t216 36.5l9 42q11 49 -7 79.5t-59 30.5q-85 0 -165 -52l9 71q86 44 170 44q74 0 112.5 -49t22.5 -123l-61 -289h-15
q-101 -51 -111 -104q-3 -21 8.5 -28.5t36.5 -9.5q29 -1 70 14zM369 140l11 52q-15 0 -40 -2t-69.5 -8t-77 -23t-37.5 -41q-6 -29 17 -46.5t63 -17.5q46 0 83 19q19 10 30 23t13.5 21t6.5 23z" />
    <glyph glyph-name="Cacute" unicode="&#x106;" horiz-adv-x="657" 
d="M613 45q-69 -36 -108 -45q-45 -11 -109 -11q-66 0 -122 27.5t-91 77.5q-74 107 -43 253q32 149 151 253q119 105 257 105q55 0 96 -8q42 -7 90 -27l-34 -88q-38 31 -76 43q-37 12 -91 12q-97 0 -185 -85q-86 -83 -112 -205q-26 -119 25 -205q52 -85 149 -85q65 0 108 12
q40 12 104 50zM736 868l-223 -122h-89l201 122h111z" />
    <glyph glyph-name="cacute" unicode="&#x107;" horiz-adv-x="457" 
d="M435 37q-91 -48 -178 -48q-96 0 -145 69t-29 164t98 167t180 72q51 0 80.5 -9t69.5 -35l-28 -70q-33 26 -61 36t-74 10q-74 0 -120.5 -51.5t-61.5 -118.5q-15 -72 14 -119t92 -47q87 0 172 51zM544 694l-188 -167h-65l170 167h83z" />
    <glyph glyph-name="Ccircumflex" unicode="&#x108;" horiz-adv-x="657" 
d="M613 45q-69 -36 -108 -45q-45 -11 -109 -11q-66 0 -122 27.5t-91 77.5q-74 107 -43 253q32 149 151 253q119 105 257 105q55 0 96 -8q42 -7 90 -27l-34 -88q-38 31 -76 43q-37 12 -91 12q-97 0 -185 -85q-86 -83 -112 -205q-26 -119 25 -205q52 -85 149 -85q65 0 108 12
q40 12 104 50zM673 736h-59l-76 97l-118 -97h-59l155 134h60z" />
    <glyph glyph-name="ccircumflex" unicode="&#x109;" horiz-adv-x="457" 
d="M435 37q-91 -48 -178 -48q-96 0 -145 69t-29 164t98 167t180 72q51 0 80.5 -9t69.5 -35l-28 -70q-33 26 -61 36t-74 10q-74 0 -120.5 -51.5t-61.5 -118.5q-15 -72 14 -119t92 -47q87 0 172 51zM518 525h-59l-70 123l-122 -123h-59l161 172h60z" />
    <glyph glyph-name="Cdotaccent" unicode="&#x10a;" horiz-adv-x="657" 
d="M613 45q-69 -36 -108 -45q-45 -11 -109 -11q-66 0 -122 27.5t-91 77.5q-74 107 -43 253q32 149 151 253q119 105 257 105q55 0 96 -8q42 -7 90 -27l-34 -88q-38 31 -76 43q-37 12 -91 12q-97 0 -185 -85q-86 -83 -112 -205q-26 -119 25 -205q52 -85 149 -85q65 0 108 12
q40 12 104 50zM565 736h-96l21 96h96z" />
    <glyph glyph-name="cdotaccent" unicode="&#x10b;" horiz-adv-x="457" 
d="M435 37q-91 -48 -178 -48q-96 0 -145 69t-29 164t98 167t180 72q51 0 80.5 -9t69.5 -35l-28 -70q-33 26 -61 36t-74 10q-74 0 -120.5 -51.5t-61.5 -118.5q-15 -72 14 -119t92 -47q87 0 172 51zM419 563h-96l20 96h96z" />
    <glyph glyph-name="Ccaron" unicode="&#x10c;" horiz-adv-x="657" 
d="M613 45q-69 -36 -108 -45q-45 -11 -109 -11q-66 0 -122 27.5t-91 77.5q-74 107 -43 253q32 149 151 253q119 105 257 105q55 0 96 -8q42 -7 90 -27l-34 -88q-38 31 -76 43q-37 12 -91 12q-97 0 -185 -85q-86 -83 -112 -205q-26 -119 25 -205q52 -85 149 -85q65 0 108 12
q40 12 104 50zM702 870l-155 -134h-60l-97 134h59l76 -97l118 97h59z" />
    <glyph glyph-name="ccaron" unicode="&#x10d;" horiz-adv-x="457" 
d="M435 37q-91 -48 -178 -48q-96 0 -145 69t-29 164t98 167t180 72q51 0 80.5 -9t69.5 -35l-28 -70q-33 26 -61 36t-74 10q-74 0 -120.5 -51.5t-61.5 -118.5q-15 -72 14 -119t92 -47q87 0 172 51zM554 697l-161 -172h-60l-89 172h59l70 -123l122 123h59z" />
    <glyph glyph-name="Dcaron" unicode="&#x10e;" horiz-adv-x="743" 
d="M757 341q-30 -142 -143 -241.5t-244 -99.5h-273l148 694h273q131 0 200.5 -103t38.5 -250zM664 341q29 133 -25 213.5t-160 80.5h-154l-122 -576h155q105 0 192 77t114 205zM608 870l-155 -134h-60l-97 134h59l76 -97l118 97h59z" />
    <glyph glyph-name="dcaron" unicode="&#x10f;" horiz-adv-x="531" 
d="M447 0h-83l11 52q-81 -63 -166 -63q-73 0 -109.5 68t-16.5 165q20 96 87 164.5t142 68.5q86 0 140 -55l63 294h80zM394 141l42 197q-28 52 -86 52q-57 0 -111.5 -41t-72.5 -128q-18 -83 14 -125t87 -42q58 0 109 52q10 10 12.5 15t5.5 20zM694 617l-64 -115h-38l48 114
h-23l17 78h77z" />
    <glyph glyph-name="Dcroat" unicode="&#x110;" horiz-adv-x="743" 
d="M757 341q-30 -142 -143 -241.5t-244 -99.5h-273l67 313h-84l14 68h84l67 313h273q131 0 200.5 -103t38.5 -250zM664 341q29 133 -25 213.5t-160 80.5h-154l-54 -254h98l-14 -68h-98l-54 -254h155q105 0 192 77t114 205z" />
    <glyph glyph-name="dcroat" unicode="&#x111;" horiz-adv-x="531" 
d="M645 535h-84l-114 -535h-83l11 52q-81 -63 -166 -63q-73 0 -109.5 68t-16.5 165q20 96 87 164.5t142 68.5q86 0 140 -55l29 135h-155l14 68h155l20 91h80l-20 -91h84zM394 141l42 197q-28 52 -86 52q-57 0 -111.5 -41t-72.5 -128q-18 -83 14 -125t87 -42q58 0 109 52
q10 10 12.5 15t5.5 20z" />
    <glyph glyph-name="Emacron" unicode="&#x112;" horiz-adv-x="617" 
d="M573 0h-478l147 691h464l-15 -70h-86l-244 2h-38l-49 -231h339l-13 -65h-339l-54 -253l282 2h100zM655 756h-371l14 69h371z" />
    <glyph glyph-name="emacron" unicode="&#x113;" horiz-adv-x="457" 
d="M474 219h-318q-13 -69 19.5 -117t94.5 -48q83 0 169 53l-9 -69q-87 -49 -174 -49q-94 0 -144 69t-29 168q20 96 95.5 165.5t162.5 69.5q93 0 128 -75q26 -60 5 -167zM426 278q1 36 -8.5 61t-26.5 36.5t-32.5 16t-31.5 4.5q-46 0 -87.5 -34t-65.5 -84h252zM535 576h-371
l15 69h371z" />
    <glyph glyph-name="Ebreve" unicode="&#x114;" horiz-adv-x="617" 
d="M573 0h-478l147 691h464l-15 -70h-86l-244 2h-38l-49 -231h339l-13 -65h-339l-54 -253l282 2h100zM680 926q-18 -79 -81 -129.5t-133 -50.5q-68 0 -109.5 50t-25.5 130h65q-9 -52 18.5 -80.5t68.5 -28.5q40 0 79.5 28.5t52.5 80.5h65z" />
    <glyph glyph-name="ebreve" unicode="&#x115;" horiz-adv-x="457" 
d="M474 219h-318q-13 -69 19.5 -117t94.5 -48q83 0 169 53l-9 -69q-87 -49 -174 -49q-94 0 -144 69t-29 168q20 96 95.5 165.5t162.5 69.5q93 0 128 -75q26 -60 5 -167zM426 278q1 36 -8.5 61t-26.5 36.5t-32.5 16t-31.5 4.5q-46 0 -87.5 -34t-65.5 -84h252zM551 701
q-18 -79 -80.5 -129.5t-132.5 -50.5q-68 0 -110 50t-26 130h65q-9 -52 18.5 -80.5t68.5 -28.5q40 0 79.5 28.5t52.5 80.5h65z" />
    <glyph glyph-name="Edotaccent" unicode="&#x116;" horiz-adv-x="617" 
d="M573 0h-478l147 691h464l-15 -70h-86l-244 2h-38l-49 -231h339l-13 -65h-339l-54 -253l282 2h100zM513 736h-96l21 96h96z" />
    <glyph glyph-name="edotaccent" unicode="&#x117;" horiz-adv-x="457" 
d="M474 219h-318q-13 -69 19.5 -117t94.5 -48q83 0 169 53l-9 -69q-87 -49 -174 -49q-94 0 -144 69t-29 168q20 96 95.5 165.5t162.5 69.5q93 0 128 -75q26 -60 5 -167zM426 278q1 36 -8.5 61t-26.5 36.5t-32.5 16t-31.5 4.5q-46 0 -87.5 -34t-65.5 -84h252zM397 563h-96
l20 96h96z" />
    <glyph glyph-name="Eogonek" unicode="&#x118;" horiz-adv-x="617" 
d="M546 -187q-58 -25 -103 -25q-47 0 -67.5 25t-13.5 60q6 37 38 71t76 56h-381l147 691h464l-15 -70h-86l-244 2h-38l-49 -231h339l-13 -65h-339l-54 -253l282 2h100l-16 -76h-34q-99 -50 -109 -104q-3 -21 8.5 -28.5t36.5 -9.5q29 -1 70 14z" />
    <glyph glyph-name="eogonek" unicode="&#x119;" horiz-adv-x="457" 
d="M474 219h-318q-13 -69 19.5 -117t94.5 -48q83 0 169 53l-9 -69q-41 -23 -88 -36q-102 -52 -112 -106q-3 -21 8.5 -28.5t36.5 -9.5q29 -1 70 14l1 -59q-58 -25 -103 -25q-47 0 -67.5 25t-13.5 60q10 67 94 116q-94 0 -144 69t-29 168q20 96 95.5 165.5t162.5 69.5
q93 0 128 -75q26 -60 5 -167zM426 278q1 36 -8.5 61t-26.5 36.5t-32.5 16t-31.5 4.5q-46 0 -87.5 -34t-65.5 -84h252z" />
    <glyph glyph-name="Ecaron" unicode="&#x11a;" horiz-adv-x="617" 
d="M573 0h-478l147 691h464l-15 -70h-86l-244 2h-38l-49 -231h339l-13 -65h-339l-54 -253l282 2h100zM650 870l-155 -134h-60l-97 134h59l76 -97l118 97h59z" />
    <glyph glyph-name="ecaron" unicode="&#x11b;" horiz-adv-x="457" 
d="M474 219h-318q-13 -69 19.5 -117t94.5 -48q83 0 169 53l-9 -69q-87 -49 -174 -49q-94 0 -144 69t-29 168q20 96 95.5 165.5t162.5 69.5q93 0 128 -75q26 -60 5 -167zM426 278q1 36 -8.5 61t-26.5 36.5t-32.5 16t-31.5 4.5q-46 0 -87.5 -34t-65.5 -84h252zM531 697
l-161 -172h-60l-89 172h59l70 -123l122 123h59z" />
    <glyph glyph-name="Gcircumflex" unicode="&#x11c;" horiz-adv-x="685" 
d="M623 38q-115 -49 -227 -49q-66 0 -122 27.5t-91 77.5q-74 107 -43 253q32 149 151 253q119 105 257 105q58 0 105 -11q44 -11 92 -38l-33 -88q-38 38 -80 54q-40 15 -99 15q-97 0 -185 -85q-86 -83 -112 -205q-26 -119 25 -205q52 -85 149 -85q68 0 137 20l34 158h-133
l14 65h217zM655 736h-59l-76 97l-118 -97h-59l155 134h60z" />
    <glyph glyph-name="gcircumflex" unicode="&#x11d;" 
d="M581 388q-28 4 -73 4q-62 0 -63 -5q0 -2 3 -7q16 -44 7 -89q-14 -67 -73 -115t-127 -48q-50 0 -89 29q-13 -17 -16 -34q-11 -52 47 -52h92q21 0 39 -1t51 -9t53.5 -21.5t32.5 -42t4 -67.5q-12 -57 -86.5 -96.5t-170.5 -39.5t-153 40t-45 95q14 64 86 104q-18 32 -9 75
q10 46 47 83q-24 47 -13 101q14 67 73 115t127 48q54 0 92 -32q81 32 167 32zM381 292q11 52 -10 77.5t-59 25.5q-36 0 -68.5 -24.5t-44.5 -79.5q-11 -52 10 -77.5t59 -25.5q36 0 68.5 24.5t44.5 79.5zM395 -71q5 23 -9 38t-40.5 20t-41.5 6.5t-31 1.5h-94q-34 0 -57 -16.5
t-28 -32.5l-6 -16q-7 -34 34.5 -55t103.5 -21t112 21.5t57 53.5zM488 525h-59l-70 123l-122 -123h-59l161 172h60z" />
    <glyph glyph-name="Gbreve" unicode="&#x11e;" horiz-adv-x="685" 
d="M623 38q-115 -49 -227 -49q-66 0 -122 27.5t-91 77.5q-74 107 -43 253q32 149 151 253q119 105 257 105q58 0 105 -11q44 -11 92 -38l-33 -88q-38 38 -80 54q-40 15 -99 15q-97 0 -185 -85q-86 -83 -112 -205q-26 -119 25 -205q52 -85 149 -85q68 0 137 20l34 158h-133
l14 65h217zM714 926q-18 -79 -81 -129.5t-133 -50.5q-68 0 -109.5 50t-25.5 130h65q-9 -52 18.5 -80.5t68.5 -28.5q40 0 79.5 28.5t52.5 80.5h65z" />
    <glyph glyph-name="gbreve" unicode="&#x11f;" 
d="M581 388q-28 4 -73 4q-62 0 -63 -5q0 -2 3 -7q16 -44 7 -89q-14 -67 -73 -115t-127 -48q-50 0 -89 29q-13 -17 -16 -34q-11 -52 47 -52h92q21 0 39 -1t51 -9t53.5 -21.5t32.5 -42t4 -67.5q-12 -57 -86.5 -96.5t-170.5 -39.5t-153 40t-45 95q14 64 86 104q-18 32 -9 75
q10 46 47 83q-24 47 -13 101q14 67 73 115t127 48q54 0 92 -32q81 32 167 32zM381 292q11 52 -10 77.5t-59 25.5q-36 0 -68.5 -24.5t-44.5 -79.5q-11 -52 10 -77.5t59 -25.5q36 0 68.5 24.5t44.5 79.5zM395 -71q5 23 -9 38t-40.5 20t-41.5 6.5t-31 1.5h-94q-34 0 -57 -16.5
t-28 -32.5l-6 -16q-7 -34 34.5 -55t103.5 -21t112 21.5t57 53.5zM544 701q-18 -79 -80.5 -129.5t-132.5 -50.5q-68 0 -110 50t-26 130h65q-9 -52 18.5 -80.5t68.5 -28.5q40 0 79.5 28.5t52.5 80.5h65z" />
    <glyph glyph-name="Gdotaccent" unicode="&#x120;" horiz-adv-x="685" 
d="M623 38q-115 -49 -227 -49q-66 0 -122 27.5t-91 77.5q-74 107 -43 253q32 149 151 253q119 105 257 105q58 0 105 -11q44 -11 92 -38l-33 -88q-38 38 -80 54q-40 15 -99 15q-97 0 -185 -85q-86 -83 -112 -205q-26 -119 25 -205q52 -85 149 -85q68 0 137 20l34 158h-133
l14 65h217zM547 736h-96l21 96h96z" />
    <glyph glyph-name="gdotaccent" unicode="&#x121;" 
d="M581 388q-28 4 -73 4q-62 0 -63 -5q0 -2 3 -7q16 -44 7 -89q-14 -67 -73 -115t-127 -48q-50 0 -89 29q-13 -17 -16 -34q-11 -52 47 -52h92q21 0 39 -1t51 -9t53.5 -21.5t32.5 -42t4 -67.5q-12 -57 -86.5 -96.5t-170.5 -39.5t-153 40t-45 95q14 64 86 104q-18 32 -9 75
q10 46 47 83q-24 47 -13 101q14 67 73 115t127 48q54 0 92 -32q81 32 167 32zM381 292q11 52 -10 77.5t-59 25.5q-36 0 -68.5 -24.5t-44.5 -79.5q-11 -52 10 -77.5t59 -25.5q36 0 68.5 24.5t44.5 79.5zM395 -71q5 23 -9 38t-40.5 20t-41.5 6.5t-31 1.5h-94q-34 0 -57 -16.5
t-28 -32.5l-6 -16q-7 -34 34.5 -55t103.5 -21t112 21.5t57 53.5zM389 563h-96l20 96h96z" />
    <glyph glyph-name="Gcommaaccent" unicode="&#x122;" horiz-adv-x="685" 
d="M623 38q-115 -49 -227 -49q-66 0 -122 27.5t-91 77.5q-74 107 -43 253q32 149 151 253q119 105 257 105q58 0 105 -11q44 -11 92 -38l-33 -88q-38 38 -80 54q-40 15 -99 15q-97 0 -185 -85q-86 -83 -112 -205q-26 -119 25 -205q52 -85 149 -85q68 0 137 20l34 158h-133
l14 65h217zM349 -156l-65 -115h-38l49 114h-23l16 78h77z" />
    <glyph glyph-name="gcommaaccent" unicode="&#x123;" 
d="M415 729l-48 -114h23l-17 -78h-77l17 77l64 115h38zM581 388q-28 4 -73 4q-62 0 -63 -5q0 -2 3 -7q16 -44 7 -89q-14 -67 -73 -115t-127 -48q-50 0 -89 29q-13 -17 -16 -34q-11 -52 47 -52h92q21 0 39 -1t51 -9t53.5 -21.5t32.5 -42t4 -67.5q-12 -57 -86.5 -96.5
t-170.5 -39.5t-153 40t-45 95q14 64 86 104q-18 32 -9 75q10 46 47 83q-24 47 -13 101q14 67 73 115t127 48q54 0 92 -32q81 32 167 32zM381 292q11 52 -10 77.5t-59 25.5q-36 0 -68.5 -24.5t-44.5 -79.5q-11 -52 10 -77.5t59 -25.5q36 0 68.5 24.5t44.5 79.5zM395 -71
q5 23 -9 38t-40.5 20t-41.5 6.5t-31 1.5h-94q-34 0 -57 -16.5t-28 -32.5l-6 -16q-7 -34 34.5 -55t103.5 -21t112 21.5t57 53.5z" />
    <glyph glyph-name="Hcircumflex" unicode="&#x124;" horiz-adv-x="727" 
d="M631 0h-96l70 328h-344l-70 -328h-96l148 694h96l-64 -301h344l64 301h96zM676 736h-59l-76 97l-118 -97h-59l155 134h60z" />
    <glyph glyph-name="hcircumflex" unicode="&#x125;" horiz-adv-x="531" 
d="M449 0h-83l62 290q3 13 4 22t-0.5 25.5t-9.5 26.5t-26.5 18t-46.5 8q-52 0 -86.5 -44t-46.5 -102l-52 -244h-83l148 694h80l-67 -311q74 72 163 72q141 0 107 -158zM578 736h-59l-76 97l-118 -97h-59l155 134h60z" />
    <glyph glyph-name="Hbar" unicode="&#x126;" horiz-adv-x="727" 
d="M791 487h-56l-104 -487h-96l70 328h-344l-70 -328h-96l104 487h-56l14 68h56l30 139h96l-30 -139h344l30 139h96l-30 -139h56zM619 393l20 94h-344l-20 -94h344z" />
    <glyph glyph-name="hbar" unicode="&#x127;" horiz-adv-x="531" 
d="M449 0h-83l62 290q3 13 4 22t-0.5 25.5t-9.5 26.5t-26.5 18t-46.5 8q-52 0 -86.5 -44t-46.5 -102l-52 -244h-83l114 535h-84l14 68h84l20 91h80l-20 -91h104l-14 -68h-104l-33 -152q74 72 163 72q141 0 107 -158z" />
    <glyph glyph-name="Itilde" unicode="&#x128;" horiz-adv-x="287" 
d="M191 0h-96l148 694h96zM496 859q-12 -55 -49.5 -89t-77.5 -34q-26 0 -67 31q-34 27 -57 27q-21 0 -33.5 -18t-17.5 -40h-65q13 56 50 89.5t77 33.5q25 0 68 -31q32 -27 57 -27q21 0 33.5 18.5t16.5 39.5h65z" />
    <glyph glyph-name="itilde" unicode="&#x129;" horiz-adv-x="245" 
d="M162 0h-80l94 444h80zM436 672q-13 -56 -50 -89.5t-77 -33.5q-25 0 -68 31q-31 27 -57 27q-21 0 -33.5 -18.5t-16.5 -39.5h-65q12 55 49.5 89t77.5 34q26 0 67 -31q34 -27 58 -27q37 0 50 58h65z" />
    <glyph glyph-name="Imacron" unicode="&#x12a;" horiz-adv-x="287" 
d="M191 0h-96l148 694h96zM490 756h-371l14 69h371z" />
    <glyph glyph-name="imacron" unicode="&#x12b;" horiz-adv-x="245" 
d="M162 0h-80l94 444h80zM430 576h-371l15 69h371z" />
    <glyph glyph-name="Ibreve" unicode="&#x12c;" horiz-adv-x="287" 
d="M191 0h-96l148 694h96zM515 926q-18 -79 -81 -129.5t-133 -50.5q-68 0 -109.5 50t-25.5 130h65q-9 -52 18.5 -80.5t68.5 -28.5q40 0 79.5 28.5t52.5 80.5h65z" />
    <glyph glyph-name="ibreve" unicode="&#x12d;" horiz-adv-x="245" 
d="M162 0h-80l94 444h80zM446 701q-18 -79 -80.5 -129.5t-132.5 -50.5q-68 0 -110 50t-26 130h65q-9 -52 18.5 -80.5t68.5 -28.5q40 0 79.5 28.5t52.5 80.5h65z" />
    <glyph glyph-name="Iogonek" unicode="&#x12e;" horiz-adv-x="287" 
d="M196 -187q-58 -25 -103 -25q-47 0 -67.5 25t-13.5 60q6 37 38 71t76 56h-31l148 694h96l-148 -694q-101 -51 -111 -104q-3 -21 8.5 -28.5t36.5 -9.5q29 -1 70 14z" />
    <glyph glyph-name="iogonek" unicode="&#x12f;" horiz-adv-x="245" 
d="M295 588h-96l20 96h96zM167 -187q-58 -25 -103 -25q-47 0 -67.5 25t-13.5 60q6 37 38 71t76 56h-15l94 444h80l-94 -444q-101 -51 -111 -104q-3 -21 8.5 -28.5t36.5 -9.5q29 -1 70 14z" />
    <glyph glyph-name="Idotaccent" unicode="&#x130;" horiz-adv-x="287" 
d="M191 0h-96l148 694h96zM348 736h-96l21 96h96z" />
    <glyph glyph-name="dotlessi" unicode="&#x131;" horiz-adv-x="245" 
d="M162 0h-80l94 444h80z" />
    <glyph glyph-name="Jcircumflex" unicode="&#x134;" horiz-adv-x="486" 
d="M431 149q-18 -84 -77 -127.5t-140 -43.5q-91 0 -167 42l31 80q42 -57 118 -57q41 0 71 13.5t44 35.5t19.5 35t7.5 25l116 542h93zM664 736h-59l-76 97l-118 -97h-59l155 134h60z" />
    <glyph glyph-name="jcircumflex" unicode="&#x135;" horiz-adv-x="274" 
d="M178 -59q-14 -66 -60.5 -106t-100.5 -40q-63 0 -116 34l36 65q28 -31 69 -31q76 0 91 69l108 512h80zM410 525h-59l-70 123l-122 -123h-59l161 172h60z" />
    <glyph glyph-name="Kcommaaccent" unicode="&#x136;" horiz-adv-x="715" 
d="M671 0h-99l-172 361l-163 -133l-48 -228h-91l148 694h91l-79 -368l448 368h98l-333 -274zM364 -156l-65 -115h-38l49 114h-23l16 78h77z" />
    <glyph glyph-name="kcommaaccent" unicode="&#x137;" horiz-adv-x="502" 
d="M484 0h-86l-112 222l-98 -80l-30 -142h-73l148 694h76l-97 -456l248 206h95l-208 -172zM257 -156l-65 -115h-38l49 114h-23l16 78h77z" />
    <glyph glyph-name="Lacute" unicode="&#x139;" horiz-adv-x="560" 
d="M516 0h-421l148 694h96l-134 -626h38l244 2h44zM565 868l-223 -122h-89l201 122h111z" />
    <glyph glyph-name="lacute" unicode="&#x13a;" horiz-adv-x="245" 
d="M162 0h-80l148 694h80zM552 868l-223 -122h-89l201 122h111z" />
    <glyph glyph-name="Lcommaaccent" unicode="&#x13b;" horiz-adv-x="560" 
d="M516 0h-421l148 694h96l-134 -626h38l244 2h44zM286 -156l-65 -115h-38l49 114h-23l16 78h77z" />
    <glyph glyph-name="lcommaaccent" unicode="&#x13c;" horiz-adv-x="245" 
d="M162 0h-80l148 694h80zM129 -156l-65 -115h-38l49 114h-23l16 78h77z" />
    <glyph glyph-name="Lcaron" unicode="&#x13d;" horiz-adv-x="560" 
d="M516 0h-421l148 694h96l-134 -626h38l244 2h44zM457 617l-64 -115h-38l48 114h-23l17 78h77z" />
    <glyph glyph-name="lcaron" unicode="&#x13e;" horiz-adv-x="245" 
d="M162 0h-80l148 694h80zM409 617l-64 -115h-38l48 114h-23l17 78h77z" />
    <glyph glyph-name="Ldot" unicode="&#x13f;" horiz-adv-x="560" 
d="M516 0h-421l148 694h96l-134 -626h38l244 2h44zM539 321h-96l21 96h96z" />
    <glyph glyph-name="ldot" unicode="&#x140;" horiz-adv-x="303" 
d="M162 0h-80l148 694h80zM390 321h-96l21 96h96z" />
    <glyph glyph-name="Lslash" unicode="&#x141;" horiz-adv-x="646" 
d="M592 0h-421l61 286l-71 -51l-28 43l115 82l71 334h96l-54 -253l149 107l29 -45l-194 -137l-64 -298h38l244 2h44z" />
    <glyph glyph-name="lslash" unicode="&#x142;" horiz-adv-x="333" 
d="M411 448l-125 -91l-76 -357h-80l61 287l-68 -50l-28 45l113 84l70 328h80l-56 -260l79 58z" />
    <glyph glyph-name="Nacute" unicode="&#x143;" horiz-adv-x="727" 
d="M628 0h-132l-15 52q-1 3 -15 47l-154 517h-1l-131 -616h-82l148 694h132l14 -52q6 -10 15 -47l155 -517h1l131 616h82zM739 868l-223 -122h-89l201 122h111z" />
    <glyph glyph-name="nacute" unicode="&#x144;" horiz-adv-x="531" 
d="M449 0h-83l62 290q3 13 4 22t-0.5 25.5t-9.5 26.5t-26.5 18t-46.5 8q-52 0 -86.5 -44t-46.5 -102l-52 -244h-83l96 450h77l-15 -71q73 76 166 76q141 0 107 -158zM558 694l-188 -167h-65l170 167h83z" />
    <glyph glyph-name="Ncommaaccent" unicode="&#x145;" horiz-adv-x="727" 
d="M628 0h-132l-15 52q-1 3 -15 47l-154 517h-1l-131 -616h-82l148 694h132l14 -52q6 -10 15 -47l155 -517h1l131 616h82zM369 -156l-65 -115h-38l49 114h-23l16 78h77z" />
    <glyph glyph-name="ncommaaccent" unicode="&#x146;" horiz-adv-x="531" 
d="M449 0h-83l62 290q3 13 4 22t-0.5 25.5t-9.5 26.5t-26.5 18t-46.5 8q-52 0 -86.5 -44t-46.5 -102l-52 -244h-83l96 450h77l-15 -71q73 76 166 76q141 0 107 -158zM271 -156l-65 -115h-38l49 114h-23l16 78h77z" />
    <glyph glyph-name="Ncaron" unicode="&#x147;" horiz-adv-x="727" 
d="M628 0h-132l-15 52q-1 3 -15 47l-154 517h-1l-131 -616h-82l148 694h132l14 -52q6 -10 15 -47l155 -517h1l131 616h82zM705 870l-155 -134h-60l-97 134h59l76 -97l118 97h59z" />
    <glyph glyph-name="ncaron" unicode="&#x148;" horiz-adv-x="531" 
d="M449 0h-83l62 290q3 13 4 22t-0.5 25.5t-9.5 26.5t-26.5 18t-46.5 8q-52 0 -86.5 -44t-46.5 -102l-52 -244h-83l96 450h77l-15 -71q73 76 166 76q141 0 107 -158zM568 697l-161 -172h-60l-89 172h59l70 -123l122 123h59z" />
    <glyph glyph-name="Eng" unicode="&#x14a;" horiz-adv-x="727" 
d="M705 347q-32 -151 -115 -260t-195 -109l18 84q135 0 196 285t-75 285q-76 0 -143.5 -46.5t-100.5 -117.5l-99 -468h-96l148 694h96l-14 -63q104 85 227 85q58 0 97 -32t54 -84t17 -118t-15 -135z" />
    <glyph glyph-name="eng" unicode="&#x14b;" horiz-adv-x="531" 
d="M449 0q-18 -85 -74 -146.5t-127 -61.5l14 68q40 0 66 40.5t38 99.5l62 290q3 13 4 22t-0.5 25.5t-9.5 26.5t-26.5 18t-46.5 8q-52 0 -86.5 -44t-46.5 -102l-52 -244h-83l96 450h77l-15 -71q73 76 166 76q141 0 107 -158z" />
    <glyph glyph-name="Omacron" unicode="&#x14c;" horiz-adv-x="759" 
d="M774 344q-33 -154 -150.5 -260t-249.5 -106q-131 0 -204 106t-40 260q33 156 151.5 264t249.5 108t203.5 -108t39.5 -264zM681 359q28 130 -22.5 209.5t-141.5 79.5t-175.5 -79t-112.5 -210q-29 -137 19.5 -224t140.5 -87t177.5 87t114.5 224zM726 756h-371l14 69h371z
" />
    <glyph glyph-name="omacron" unicode="&#x14d;" 
d="M530 220q-21 -97 -101.5 -164t-174.5 -67q-92 0 -145 66.5t-32 164.5q21 100 102.5 170.5t174.5 70.5q95 0 146 -71t30 -170zM449 230q17 81 -16.5 123.5t-92.5 42.5q-57 0 -109 -42t-69 -124q-17 -81 14.5 -127t92.5 -46q59 0 110.5 45.5t69.5 127.5zM564 576h-371
l15 69h371z" />
    <glyph glyph-name="Obreve" unicode="&#x14e;" horiz-adv-x="759" 
d="M774 344q-33 -154 -150.5 -260t-249.5 -106q-131 0 -204 106t-40 260q33 156 151.5 264t249.5 108t203.5 -108t39.5 -264zM681 359q28 130 -22.5 209.5t-141.5 79.5t-175.5 -79t-112.5 -210q-29 -137 19.5 -224t140.5 -87t177.5 87t114.5 224zM751 926
q-18 -79 -81 -129.5t-133 -50.5q-68 0 -109.5 50t-25.5 130h65q-9 -52 18.5 -80.5t68.5 -28.5q40 0 79.5 28.5t52.5 80.5h65z" />
    <glyph glyph-name="obreve" unicode="&#x14f;" 
d="M530 220q-21 -97 -101.5 -164t-174.5 -67q-92 0 -145 66.5t-32 164.5q21 100 102.5 170.5t174.5 70.5q95 0 146 -71t30 -170zM449 230q17 81 -16.5 123.5t-92.5 42.5q-57 0 -109 -42t-69 -124q-17 -81 14.5 -127t92.5 -46q59 0 110.5 45.5t69.5 127.5zM580 701
q-18 -79 -80.5 -129.5t-132.5 -50.5q-68 0 -110 50t-26 130h65q-9 -52 18.5 -80.5t68.5 -28.5q40 0 79.5 28.5t52.5 80.5h65z" />
    <glyph glyph-name="Ohungarumlaut" unicode="&#x150;" horiz-adv-x="759" 
d="M774 344q-33 -154 -150.5 -260t-249.5 -106q-131 0 -204 106t-40 260q33 156 151.5 264t249.5 108t203.5 -108t39.5 -264zM681 359q28 130 -22.5 209.5t-141.5 79.5t-175.5 -79t-112.5 -210q-29 -137 19.5 -224t140.5 -87t177.5 87t114.5 224zM573 913l-117 -167h-65
l99 167h83zM744 913l-117 -167h-65l99 167h83z" />
    <glyph glyph-name="ohungarumlaut" unicode="&#x151;" 
d="M530 220q-21 -97 -101.5 -164t-174.5 -67q-92 0 -145 66.5t-32 164.5q21 100 102.5 170.5t174.5 70.5q95 0 146 -71t30 -170zM449 230q17 81 -16.5 123.5t-92.5 42.5q-57 0 -109 -42t-69 -124q-17 -81 14.5 -127t92.5 -46q59 0 110.5 45.5t69.5 127.5zM404 694l-117 -167
h-65l99 167h83zM575 694l-117 -167h-65l99 167h83z" />
    <glyph glyph-name="OE" unicode="&#x152;" horiz-adv-x="1000" 
d="M956 0h-420q-35 0 -89 -11q-49 -11 -83 -11q-137 0 -216 106t-46 260q22 103 87.5 189.5t154 134.5t178.5 48q32 0 77 -11q50 -11 85 -11h406l-15 -70h-84l-241 2h-38l-49 -233h334l-14 -65h-334l-54 -254l279 2h98zM560 346q37 177 40 210q5 53 -11.5 74t-76.5 21
q-106 0 -197 -84.5t-117 -207.5q-27 -129 25.5 -222.5t159.5 -93.5q74 0 100 36t50 148z" />
    <glyph glyph-name="oe" unicode="&#x153;" horiz-adv-x="799" 
d="M816 219h-300q-12 -73 20 -119t91 -46q80 0 154 53l-9 -69q-77 -49 -159 -49q-58 0 -102 27.5t-63 71.5q-92 -99 -202 -99q-89 0 -139 68.5t-29 167.5q21 98 100 167t168 69q59 0 99.5 -28.5t58.5 -68.5q38 44 89.5 70.5t103.5 26.5q90 0 118 -77q22 -58 1 -165zM766 278
q3 64 -22 91t-61 27q-42 0 -83.5 -33t-65.5 -85h232zM435 230q17 82 -15 124t-88 42q-58 0 -108.5 -42.5t-67.5 -123.5q-18 -83 13 -129.5t90 -46.5q57 0 107.5 45.5t68.5 130.5z" />
    <glyph glyph-name="Racute" unicode="&#x154;" horiz-adv-x="666" 
d="M636 0h-96l-123 315h-160l-67 -315h-93l148 694h252q107 0 171.5 -55t47.5 -132q-13 -61 -72 -111t-141 -71zM629 507q12 56 -30 92t-127 36h-147l-54 -255h147q87 0 143.5 37t67.5 90zM708 868l-223 -122h-89l201 122h111z" />
    <glyph glyph-name="racute" unicode="&#x155;" horiz-adv-x="351" 
d="M417 383q-71 -1 -131.5 -47.5t-77.5 -122.5l-45 -213h-80l96 450h74l-20 -91q86 94 200 96zM448 694l-188 -167h-65l170 167h83z" />
    <glyph glyph-name="Rcommaaccent" unicode="&#x156;" horiz-adv-x="666" 
d="M636 0h-96l-123 315h-160l-67 -315h-93l148 694h252q107 0 171.5 -55t47.5 -132q-13 -61 -72 -111t-141 -71zM629 507q12 56 -30 92t-127 36h-147l-54 -255h147q87 0 143.5 37t67.5 90zM339 -156l-65 -115h-38l49 114h-23l16 78h77z" />
    <glyph glyph-name="rcommaaccent" unicode="&#x157;" horiz-adv-x="351" 
d="M417 383q-71 -1 -131.5 -47.5t-77.5 -122.5l-45 -213h-80l96 450h74l-20 -91q86 94 200 96zM129 -156l-65 -115h-38l49 114h-23l16 78h77z" />
    <glyph glyph-name="Rcaron" unicode="&#x158;" horiz-adv-x="666" 
d="M636 0h-96l-123 315h-160l-67 -315h-93l148 694h252q107 0 171.5 -55t47.5 -132q-13 -61 -72 -111t-141 -71zM629 507q12 56 -30 92t-127 36h-147l-54 -255h147q87 0 143.5 37t67.5 90zM674 870l-155 -134h-60l-97 134h59l76 -97l118 97h59z" />
    <glyph glyph-name="rcaron" unicode="&#x159;" horiz-adv-x="351" 
d="M417 383q-71 -1 -131.5 -47.5t-77.5 -122.5l-45 -213h-80l96 450h74l-20 -91q86 94 200 96zM479 697l-161 -172h-60l-89 172h59l70 -123l122 123h59z" />
    <glyph glyph-name="Sacute" unicode="&#x15a;" horiz-adv-x="571" 
d="M554 191q-19 -86 -98 -149.5t-179 -63.5q-125 0 -221 69l34 87q85 -82 203 -82q64 0 113 38t60 90q9 44 -12.5 76t-57.5 44l-80 21q-29 7 -46.5 13t-44.5 25t-43 47q-27 52 -15 111q17 79 94.5 139t179.5 60q43 0 78.5 -8t53 -16t47.5 -25l-35 -87q-62 65 -160 65
q-65 0 -112.5 -35t-57.5 -80q-9 -41 15 -70.5t63 -39.5l96 -24q61 -15 101.5 -71t23.5 -134zM661 868l-223 -122h-89l201 122h111z" />
    <glyph glyph-name="sacute" unicode="&#x15b;" horiz-adv-x="394" 
d="M397 129q-9 -42 -31.5 -71.5t-53 -43.5t-58 -19.5t-55.5 -5.5q-90 0 -163 44l29 73q60 -50 148 -50q94 0 108 65q4 18 -2 31t-20.5 20.5t-25 10.5t-27.5 6q-55 11 -77 19.5t-44 31.5q-32 39 -21 89q7 31 22.5 55.5t37 38t41 22t43 11.5t33.5 4t21 1q78 0 142 -32l-28 -70
q-61 39 -136 39q-86 0 -99 -59q-5 -22 8 -36t26.5 -18t38.5 -9q51 -10 74 -18.5t42 -28.5q40 -43 27 -100zM490 694l-188 -167h-65l170 167h83z" />
    <glyph glyph-name="Scircumflex" unicode="&#x15c;" horiz-adv-x="571" 
d="M554 191q-19 -86 -98 -149.5t-179 -63.5q-125 0 -221 69l34 87q85 -82 203 -82q64 0 113 38t60 90q9 44 -12.5 76t-57.5 44l-80 21q-29 7 -46.5 13t-44.5 25t-43 47q-27 52 -15 111q17 79 94.5 139t179.5 60q43 0 78.5 -8t53 -16t47.5 -25l-35 -87q-62 65 -160 65
q-65 0 -112.5 -35t-57.5 -80q-9 -41 15 -70.5t63 -39.5l96 -24q61 -15 101.5 -71t23.5 -134zM598 736h-59l-76 97l-118 -97h-59l155 134h60z" />
    <glyph glyph-name="scircumflex" unicode="&#x15d;" horiz-adv-x="394" 
d="M397 129q-9 -42 -31.5 -71.5t-53 -43.5t-58 -19.5t-55.5 -5.5q-90 0 -163 44l29 73q60 -50 148 -50q94 0 108 65q4 18 -2 31t-20.5 20.5t-25 10.5t-27.5 6q-55 11 -77 19.5t-44 31.5q-32 39 -21 89q7 31 22.5 55.5t37 38t41 22t43 11.5t33.5 4t21 1q78 0 142 -32l-28 -70
q-61 39 -136 39q-86 0 -99 -59q-5 -22 8 -36t26.5 -18t38.5 -9q51 -10 74 -18.5t42 -28.5q40 -43 27 -100zM464 525h-59l-70 123l-122 -123h-59l161 172h60z" />
    <glyph glyph-name="Scedilla" unicode="&#x15e;" horiz-adv-x="571" 
d="M554 191q-19 -86 -98 -149.5t-179 -63.5q-125 0 -221 69l34 87q85 -82 203 -82q64 0 113 38t60 90q9 44 -12.5 76t-57.5 44l-80 21q-29 7 -46.5 13t-44.5 25t-43 47q-27 52 -15 111q17 79 94.5 139t179.5 60q43 0 78.5 -8t53 -16t47.5 -25l-35 -87q-62 65 -160 65
q-65 0 -112.5 -35t-57.5 -80q-9 -41 15 -70.5t63 -39.5l96 -24q61 -15 101.5 -71t23.5 -134zM325 -46l-102 -168h-74l111 168h65z" />
    <glyph glyph-name="scedilla" unicode="&#x15f;" horiz-adv-x="394" 
d="M397 129q-9 -42 -31.5 -71.5t-53 -43.5t-58 -19.5t-55.5 -5.5q-90 0 -163 44l29 73q60 -50 148 -50q94 0 108 65q4 18 -2 31t-20.5 20.5t-25 10.5t-27.5 6q-55 11 -77 19.5t-44 31.5q-32 39 -21 89q7 31 22.5 55.5t37 38t41 22t43 11.5t33.5 4t21 1q78 0 142 -32l-28 -70
q-61 39 -136 39q-86 0 -99 -59q-5 -22 8 -36t26.5 -18t38.5 -9q51 -10 74 -18.5t42 -28.5q40 -43 27 -100zM236 -46l-102 -168h-74l111 168h65z" />
    <glyph glyph-name="Scaron" unicode="&#x160;" horiz-adv-x="571" 
d="M554 191q-19 -86 -98 -149.5t-179 -63.5q-125 0 -221 69l34 87q85 -82 203 -82q64 0 113 38t60 90q9 44 -12.5 76t-57.5 44l-80 21q-29 7 -46.5 13t-44.5 25t-43 47q-27 52 -15 111q17 79 94.5 139t179.5 60q43 0 78.5 -8t53 -16t47.5 -25l-35 -87q-62 65 -160 65
q-65 0 -112.5 -35t-57.5 -80q-9 -41 15 -70.5t63 -39.5l96 -24q61 -15 101.5 -71t23.5 -134zM627 870l-155 -134h-60l-97 134h59l76 -97l118 97h59z" />
    <glyph glyph-name="scaron" unicode="&#x161;" horiz-adv-x="394" 
d="M397 129q-9 -42 -31.5 -71.5t-53 -43.5t-58 -19.5t-55.5 -5.5q-90 0 -163 44l29 73q60 -50 148 -50q94 0 108 65q4 18 -2 31t-20.5 20.5t-25 10.5t-27.5 6q-55 11 -77 19.5t-44 31.5q-32 39 -21 89q7 31 22.5 55.5t37 38t41 22t43 11.5t33.5 4t21 1q78 0 142 -32l-28 -70
q-61 39 -136 39q-86 0 -99 -59q-5 -22 8 -36t26.5 -18t38.5 -9q51 -10 74 -18.5t42 -28.5q40 -43 27 -100zM500 697l-161 -172h-60l-89 172h59l70 -123l122 123h59z" />
    <glyph glyph-name="Tcedilla" unicode="&#x162;" horiz-adv-x="702" 
d="M795 618h-60l-204 2l-132 -620h-96l132 620l-206 -2h-61l15 70h627zM378 -24l-102 -168h-74l111 168h65z" />
    <glyph glyph-name="tcedilla" unicode="&#x163;" horiz-adv-x="371" 
d="M348 26q-82 -37 -160 -37q-87 0 -57 137l54 256h-85l13 62h88l27 127h74l-27 -127h144l-13 -62h-144l-50 -238q-18 -87 33 -87t99 32zM245 -24l-102 -168h-74l111 168h65z" />
    <glyph glyph-name="Tcaron" unicode="&#x164;" horiz-adv-x="702" 
d="M795 618h-60l-204 2l-132 -620h-96l132 620l-206 -2h-61l15 70h627zM692 870l-155 -134h-60l-97 134h59l76 -97l118 97h59z" />
    <glyph glyph-name="tcaron" unicode="&#x165;" horiz-adv-x="371" 
d="M348 26q-82 -37 -160 -37q-87 0 -57 137l54 256h-85l13 62h88l27 127h74l-27 -127h144l-13 -62h-144l-50 -238q-18 -87 33 -87t99 32zM424 598l-64 -115h-38l48 114h-23l16 78h77z" />
    <glyph glyph-name="Utilde" unicode="&#x168;" horiz-adv-x="707" 
d="M661 233q-23 -108 -114 -181.5t-196 -73.5q-106 0 -168 73.5t-38 182.5l98 460h96l-99 -462q-20 -94 18.5 -144.5t106.5 -50.5q69 0 131 51t82 145l98 461h83zM706 859q-12 -55 -49.5 -89t-77.5 -34q-26 0 -67 31q-34 27 -57 27q-21 0 -33.5 -18t-17.5 -40h-65
q13 56 50 89.5t77 33.5q25 0 68 -31q32 -27 57 -27q21 0 33.5 18.5t16.5 39.5h65z" />
    <glyph glyph-name="utilde" unicode="&#x169;" horiz-adv-x="531" 
d="M449 0h-80l10 48q-79 -59 -195 -59q-54 0 -73.5 28.5t-6.5 91.5l71 335h83l-70 -330q-8 -36 3.5 -51t61.5 -15q51 0 92.5 26t53.5 81l61 289h83zM578 672q-13 -56 -50 -89.5t-77 -33.5q-25 0 -68 31q-32 27 -57 27q-21 0 -33.5 -18.5t-16.5 -39.5h-65q12 55 49.5 89
t77.5 34q26 0 67 -31q34 -27 58 -27q37 0 50 58h65z" />
    <glyph glyph-name="Umacron" unicode="&#x16a;" horiz-adv-x="707" 
d="M661 233q-23 -108 -114 -181.5t-196 -73.5q-106 0 -168 73.5t-38 182.5l98 460h96l-99 -462q-20 -94 18.5 -144.5t106.5 -50.5q69 0 131 51t82 145l98 461h83zM700 756h-371l14 69h371z" />
    <glyph glyph-name="umacron" unicode="&#x16b;" horiz-adv-x="531" 
d="M449 0h-80l10 48q-79 -59 -195 -59q-54 0 -73.5 28.5t-6.5 91.5l71 335h83l-70 -330q-8 -36 3.5 -51t61.5 -15q51 0 92.5 26t53.5 81l61 289h83zM572 576h-371l15 69h371z" />
    <glyph glyph-name="Ubreve" unicode="&#x16c;" horiz-adv-x="707" 
d="M661 233q-23 -108 -114 -181.5t-196 -73.5q-106 0 -168 73.5t-38 182.5l98 460h96l-99 -462q-20 -94 18.5 -144.5t106.5 -50.5q69 0 131 51t82 145l98 461h83zM725 926q-18 -79 -81 -129.5t-133 -50.5q-68 0 -109.5 50t-25.5 130h65q-9 -52 18.5 -80.5t68.5 -28.5
q40 0 79.5 28.5t52.5 80.5h65z" />
    <glyph glyph-name="ubreve" unicode="&#x16d;" horiz-adv-x="531" 
d="M449 0h-80l10 48q-79 -59 -195 -59q-54 0 -73.5 28.5t-6.5 91.5l71 335h83l-70 -330q-8 -36 3.5 -51t61.5 -15q51 0 92.5 26t53.5 81l61 289h83zM588 701q-18 -79 -80.5 -129.5t-132.5 -50.5q-68 0 -110 50t-26 130h65q-9 -52 18.5 -80.5t68.5 -28.5q40 0 79.5 28.5
t52.5 80.5h65z" />
    <glyph glyph-name="Uring" unicode="&#x16e;" horiz-adv-x="707" 
d="M661 233q-23 -108 -114 -181.5t-196 -73.5q-106 0 -168 73.5t-38 182.5l98 460h96l-99 -462q-20 -94 18.5 -144.5t106.5 -50.5q69 0 131 51t82 145l98 461h83zM569 778q5 21 -9 29t-34 8q-51 0 -59 -37q-4 -21 10 -29t33 -8q51 0 59 37zM633 777q-7 -33 -45.5 -58
t-87.5 -25t-77 25t-20 60q7 33 45.5 58t87.5 25t77 -25t20 -60z" />
    <glyph glyph-name="uring" unicode="&#x16f;" horiz-adv-x="531" 
d="M449 0h-80l10 48q-79 -59 -195 -59q-54 0 -73.5 28.5t-6.5 91.5l71 335h83l-70 -330q-8 -36 3.5 -51t61.5 -15q51 0 92.5 26t53.5 81l61 289h83zM444 601q4 21 -10 29t-33 8q-51 0 -59 -37q-5 -21 9.5 -29t33.5 -8q51 0 59 37zM508 600q-7 -33 -45.5 -58t-87.5 -25
t-77 25t-20 60q7 33 45.5 58t87.5 25t77 -25t20 -60z" />
    <glyph glyph-name="Uhungarumlaut" unicode="&#x170;" horiz-adv-x="707" 
d="M661 233q-23 -108 -114 -181.5t-196 -73.5q-106 0 -168 73.5t-38 182.5l98 460h96l-99 -462q-20 -94 18.5 -144.5t106.5 -50.5q69 0 131 51t82 145l98 461h83zM547 913l-117 -167h-65l99 167h83zM718 913l-117 -167h-65l99 167h83z" />
    <glyph glyph-name="uhungarumlaut" unicode="&#x171;" horiz-adv-x="531" 
d="M449 0h-80l10 48q-79 -59 -195 -59q-54 0 -73.5 28.5t-6.5 91.5l71 335h83l-70 -330q-8 -36 3.5 -51t61.5 -15q51 0 92.5 26t53.5 81l61 289h83zM412 694l-117 -167h-65l99 167h83zM583 694l-117 -167h-65l99 167h83z" />
    <glyph glyph-name="Uogonek" unicode="&#x172;" horiz-adv-x="707" 
d="M661 233q-21 -96 -97.5 -167t-170.5 -85q-69 -41 -77 -85q-3 -21 8.5 -28.5t36.5 -9.5q29 -1 70 14l1 -59q-58 -25 -103 -25q-47 0 -67.5 25t-13.5 60q10 58 79 106q-96 9 -150 80.5t-32 174.5l98 460h96l-99 -462q-20 -94 18.5 -144.5t106.5 -50.5q69 0 131 51t82 145
l98 461h83z" />
    <glyph glyph-name="uogonek" unicode="&#x173;" horiz-adv-x="531" 
d="M454 -187q-58 -25 -103 -25q-47 0 -67.5 25t-13.5 60q6 37 38 71t76 56h-15l10 48q-79 -59 -195 -59q-54 0 -73.5 28.5t-6.5 91.5l71 335h83l-70 -330q-8 -36 3.5 -51t61.5 -15q51 0 92.5 26t53.5 81l61 289h83l-94 -444q-101 -51 -111 -104q-3 -21 8.5 -28.5t36.5 -9.5
q29 -1 70 14z" />
    <glyph glyph-name="Wcircumflex" unicode="&#x174;" horiz-adv-x="972" 
d="M1105 694l-358 -694h-90l-27 307q-22 254 -16 309h-1q-4 -18 -55 -120l-75 -153l-175 -343h-84l-62 694h92l24 -288q22 -253 16 -328l1 1q24 78 155 329l146 286h84l26 -308l13 -162q3 -52 4 -88.5t1 -47.5l-1 -11q22 64 140 293l165 324h77zM798 736h-59l-76 97
l-118 -97h-59l155 134h60z" />
    <glyph glyph-name="wcircumflex" unicode="&#x175;" horiz-adv-x="702" 
d="M781 444l-235 -444h-91l-23 247q-3 26 -4 72q0 59 1 68h-1q-11 -41 -89 -194l-101 -193h-83l-47 444h80l19 -195q13 -139 8 -190h1q17 62 188 385h74l22 -222q12 -130 9 -166h1q18 55 194 388h77zM618 525h-59l-70 123l-122 -123h-59l161 172h60z" />
    <glyph glyph-name="Ycircumflex" unicode="&#x176;" horiz-adv-x="687" 
d="M831 694l-382 -416l-59 -278h-93l59 278l-205 416h114l119 -244l44 -97l93 105l216 236h94zM656 736h-59l-76 97l-118 -97h-59l155 134h60z" />
    <glyph glyph-name="ycircumflex" unicode="&#x177;" horiz-adv-x="474" 
d="M553 444l-334 -530q-27 -42 -50 -68.5t-42 -36t-29 -12t-25 -2.5q-48 0 -72 8l9 69q35 -17 77 -17q10 0 16.5 2t21.5 15t33 39l56 89l-106 444h84q37 -165 45 -207q27 -128 20 -178q9 33 43.5 97.5t66.5 115.5t107 172h79zM504 525h-59l-70 123l-122 -123h-59l161 172h60
z" />
    <glyph glyph-name="Ydieresis" unicode="&#x178;" horiz-adv-x="687" 
d="M831 694l-382 -416l-59 -278h-93l59 278l-205 416h114l119 -244l44 -97l93 105l216 236h94zM450 736h-87l19 86h87zM638 736h-87l19 86h87z" />
    <glyph glyph-name="Zacute" unicode="&#x179;" horiz-adv-x="628" 
d="M576 0h-519l10 45l514 584h-24l-260 -2h-93l15 67h499l-10 -43l-514 -583h29l270 2h98zM689 868l-223 -122h-89l201 122h111z" />
    <glyph glyph-name="zacute" unicode="&#x17a;" horiz-adv-x="447" 
d="M413 0h-384l9 43l340 339h-77q-6 0 -18 -0.5t-18 -0.5h-141l13 63h367l-8 -41l-339 -338h84q6 0 18 0.5t18 0.5h150zM516 694l-188 -167h-65l170 167h83z" />
    <glyph glyph-name="Zdotaccent" unicode="&#x17b;" horiz-adv-x="628" 
d="M576 0h-519l10 45l514 584h-24l-260 -2h-93l15 67h499l-10 -43l-514 -583h29l270 2h98zM518 736h-96l21 96h96z" />
    <glyph glyph-name="zdotaccent" unicode="&#x17c;" horiz-adv-x="447" 
d="M413 0h-384l9 43l340 339h-77q-6 0 -18 -0.5t-18 -0.5h-141l13 63h367l-8 -41l-339 -338h84q6 0 18 0.5t18 0.5h150zM392 563h-96l20 96h96z" />
    <glyph glyph-name="Zcaron" unicode="&#x17d;" horiz-adv-x="628" 
d="M576 0h-519l10 45l514 584h-24l-260 -2h-93l15 67h499l-10 -43l-514 -583h29l270 2h98zM655 870l-155 -134h-60l-97 134h59l76 -97l118 97h59z" />
    <glyph glyph-name="zcaron" unicode="&#x17e;" horiz-adv-x="447" 
d="M413 0h-384l9 43l340 339h-77q-6 0 -18 -0.5t-18 -0.5h-141l13 63h367l-8 -41l-339 -338h84q6 0 18 0.5t18 0.5h150zM526 697l-161 -172h-60l-89 172h59l70 -123l122 123h59z" />
    <glyph glyph-name="longs" unicode="&#x17f;" horiz-adv-x="293" 
d="M467 623q-37 17 -79 17q-90 0 -107 -80l-119 -560h-80l113 532q16 75 75.5 124t132.5 49q36 0 80 -11z" />
    <glyph glyph-name="Ereversed" unicode="&#x18e;" horiz-adv-x="617" 
d="M573 0h-478l16 76h100l282 -2l54 253h-339l13 65h339l49 231h-38l-244 -2h-86l15 70h464z" />
    <glyph glyph-name="florin" unicode="&#x192;" horiz-adv-x="314" 
d="M488 623q-37 17 -79 17q-20 0 -38.5 -4t-41.5 -23.5t-30 -52.5l-25 -116h114l-13 -62h-111l-81 -382h-80l81 382h-75l13 62h75l19 88q16 75 75.5 124t132.5 49q36 0 80 -11z" />
    <glyph glyph-name="Ohorn" unicode="&#x1a0;" horiz-adv-x="759" 
d="M773 344q-31 -149 -149 -259q-119 -107 -251 -107q-64 0 -117 28.5t-87 78.5q-71 108 -39 259q34 154 150 263q117 109 250 109q85 0 151 -50l37 28h-23l-1 1l18 85l1 1h84l1 -1l-18 -85l-76 -50q16 -15 31 -38q72 -109 38 -263zM681 361q25 123 -21 204q-48 83 -144 83
t-179 -83q-82 -84 -107 -204q-29 -134 16 -223q21 -41 58 -65.5t84 -24.5q98 0 181 90q83 89 112 223z" />
    <glyph glyph-name="ohorn" unicode="&#x1a1;" 
d="M580 445l-83 -53l2 -2q51 -71 30 -171q-20 -94 -101 -162t-174 -68q-94 0 -146 68q-52 66 -32 162q21 101 103 171q81 71 175 71q73 0 123 -47l40 30h-24v1l18 85l1 1h85l1 -1zM449 231q15 73 -14 119t-94 46q-63 0 -114 -46q-48 -44 -64 -119q-16 -79 12 -126
q29 -48 94 -48q64 0 114 48t66 126z" />
    <glyph glyph-name="Uhorn" unicode="&#x1af;" horiz-adv-x="707" 
d="M860 695l-1 -1l-118 -73l-83 -390q-22 -103 -112 -178q-91 -75 -196 -75q-106 0 -168 75q-60 74 -38 178l99 463h96l-99 -463q-19 -86 16 -139q33 -55 107 -55q76 0 136 55q57 53 76 139l99 463h83l-7 -32l47 32h-23l-1 1l18 85l1 1h85l1 -1z" />
    <glyph glyph-name="uhorn" unicode="&#x1b0;" horiz-adv-x="531" 
d="M646 445l-119 -74l-79 -371h-80l10 47q-80 -58 -196 -58q-52 0 -72 29q-20 30 -7 92l71 334h84l-71 -334q-8 -38 7 -49q13 -13 66 -13q47 0 87 28.5t49 69.5l63 298h83l-7 -33l47 33h-23v1l18 85l1 1h85l1 -1z" />
    <glyph glyph-name="Acaron" unicode="&#x1cd;" horiz-adv-x="687" 
d="M657 0h-99l-35 199h-297l-118 -199h-79l416 694h92zM512 258l-48 362l-201 -362h249zM685 870l-155 -134h-60l-97 134h59l76 -97l118 97h59z" />
    <glyph glyph-name="acaron" unicode="&#x1ce;" horiz-adv-x="494" 
d="M422 0h-80l8 38q-76 -49 -180 -49q-59 0 -79.5 41.5t-11.5 85.5q13 60 96 93.5t216 36.5l9 42q11 49 -7 79.5t-59 30.5q-85 0 -165 -52l9 71q86 44 170 44q74 0 112.5 -49t22.5 -123zM369 140l11 52q-15 0 -40 -2t-69.5 -8t-77 -23t-37.5 -41q-6 -29 17 -46.5t63 -17.5
q46 0 83 19q19 10 30 23t13.5 21t6.5 23zM550 697l-161 -172h-60l-89 172h59l70 -123l122 123h59z" />
    <glyph glyph-name="Icaron" unicode="&#x1cf;" horiz-adv-x="287" 
d="M191 0h-96l148 694h96zM485 870l-155 -134h-60l-97 134h59l76 -97l118 97h59z" />
    <glyph glyph-name="icaron" unicode="&#x1d0;" horiz-adv-x="245" 
d="M162 0h-80l94 444h80zM426 697l-161 -172h-60l-89 172h59l70 -123l122 123h59z" />
    <glyph glyph-name="Ocaron" unicode="&#x1d1;" horiz-adv-x="759" 
d="M774 344q-33 -154 -150.5 -260t-249.5 -106q-131 0 -204 106t-40 260q33 156 151.5 264t249.5 108t203.5 -108t39.5 -264zM681 359q28 130 -22.5 209.5t-141.5 79.5t-175.5 -79t-112.5 -210q-29 -137 19.5 -224t140.5 -87t177.5 87t114.5 224zM721 870l-155 -134h-60
l-97 134h59l76 -97l118 97h59z" />
    <glyph glyph-name="ocaron" unicode="&#x1d2;" 
d="M530 220q-21 -97 -101.5 -164t-174.5 -67q-92 0 -145 66.5t-32 164.5q21 100 102.5 170.5t174.5 70.5q95 0 146 -71t30 -170zM449 230q17 81 -16.5 123.5t-92.5 42.5q-57 0 -109 -42t-69 -124q-17 -81 14.5 -127t92.5 -46q59 0 110.5 45.5t69.5 127.5zM560 697l-161 -172
h-60l-89 172h59l70 -123l122 123h59z" />
    <glyph glyph-name="Ucaron" unicode="&#x1d3;" horiz-adv-x="707" 
d="M661 233q-23 -108 -114 -181.5t-196 -73.5q-106 0 -168 73.5t-38 182.5l98 460h96l-99 -462q-20 -94 18.5 -144.5t106.5 -50.5q69 0 131 51t82 145l98 461h83zM695 870l-155 -134h-60l-97 134h59l76 -97l118 97h59z" />
    <glyph glyph-name="ucaron" unicode="&#x1d4;" horiz-adv-x="531" 
d="M449 0h-80l10 48q-79 -59 -195 -59q-54 0 -73.5 28.5t-6.5 91.5l71 335h83l-70 -330q-8 -36 3.5 -51t61.5 -15q51 0 92.5 26t53.5 81l61 289h83zM568 697l-161 -172h-60l-89 172h59l70 -123l122 123h59z" />
    <glyph glyph-name="Udieresisacute" unicode="&#x1d7;" horiz-adv-x="707" 
d="M661 233q-23 -108 -114 -181.5t-196 -73.5q-106 0 -168 73.5t-38 182.5l98 460h96l-99 -462q-20 -94 18.5 -144.5t106.5 -50.5q69 0 131 51t82 145l98 461h83zM460 736h-87l19 86h87zM648 736h-87l19 86h87zM756 996l-223 -122h-89l201 122h111z" />
    <glyph glyph-name="udieresisacute" unicode="&#x1d8;" horiz-adv-x="531" 
d="M449 0h-80l10 48q-79 -59 -195 -59q-54 0 -73.5 28.5t-6.5 91.5l71 335h83l-70 -330q-8 -36 3.5 -51t61.5 -15q51 0 92.5 26t53.5 81l61 289h83zM350 568h-87l18 86h87zM510 568h-87l18 86h87zM632 828l-223 -122h-89l201 122h111z" />
    <glyph glyph-name="Udieresiscaron" unicode="&#x1d9;" horiz-adv-x="707" 
d="M661 233q-23 -108 -114 -181.5t-196 -73.5q-106 0 -168 73.5t-38 182.5l98 460h96l-99 -462q-20 -94 18.5 -144.5t106.5 -50.5q69 0 131 51t82 145l98 461h83zM460 736h-87l19 86h87zM648 736h-87l19 86h87zM722 998l-155 -134h-60l-97 134h59l76 -97l118 97h59z" />
    <glyph glyph-name="udieresiscaron" unicode="&#x1da;" horiz-adv-x="531" 
d="M449 0h-80l10 48q-79 -59 -195 -59q-54 0 -73.5 28.5t-6.5 91.5l71 335h83l-70 -330q-8 -36 3.5 -51t61.5 -15q51 0 92.5 26t53.5 81l61 289h83zM350 568h-87l18 86h87zM510 568h-87l18 86h87zM598 830l-155 -134h-60l-97 134h59l76 -97l118 97h59z" />
    <glyph glyph-name="Udieresisgrave" unicode="&#x1db;" horiz-adv-x="707" 
d="M661 233q-23 -108 -114 -181.5t-196 -73.5q-106 0 -168 73.5t-38 182.5l98 460h96l-99 -462q-20 -94 18.5 -144.5t106.5 -50.5q69 0 131 51t82 145l98 461h83zM460 736h-87l19 86h87zM648 736h-87l19 86h87zM634 874h-89l-171 122h111z" />
    <glyph glyph-name="udieresisgrave" unicode="&#x1dc;" horiz-adv-x="531" 
d="M449 0h-80l10 48q-79 -59 -195 -59q-54 0 -73.5 28.5t-6.5 91.5l71 335h83l-70 -330q-8 -36 3.5 -51t61.5 -15q51 0 92.5 26t53.5 81l61 289h83zM350 568h-87l18 86h87zM510 568h-87l18 86h87zM510 706h-89l-171 122h111z" />
    <glyph glyph-name="eturned" unicode="&#x1dd;" horiz-adv-x="457" 
d="M475 224q-21 -97 -96.5 -166t-161.5 -69q-95 0 -128 75q-26 58 -5 167h318q13 69 -20 117t-95 48q-83 0 -168 -53l9 69q86 49 174 49q94 0 144 -69t29 -168zM384 172h-252q-1 -36 8.5 -61t26 -36.5t32 -16t31.5 -4.5q46 0 88.5 34t65.5 84z" />
    <glyph glyph-name="Gcaron" unicode="&#x1e6;" horiz-adv-x="685" 
d="M623 38q-115 -49 -227 -49q-66 0 -122 27.5t-91 77.5q-74 107 -43 253q32 149 151 253q119 105 257 105q58 0 105 -11q44 -11 92 -38l-33 -88q-38 38 -80 54q-40 15 -99 15q-97 0 -185 -85q-86 -83 -112 -205q-26 -119 25 -205q52 -85 149 -85q68 0 137 20l34 158h-133
l14 65h217zM684 870l-155 -134h-60l-97 134h59l76 -97l118 97h59z" />
    <glyph glyph-name="gcaron" unicode="&#x1e7;" 
d="M581 388q-28 4 -73 4q-62 0 -63 -5q0 -2 3 -7q16 -44 7 -89q-14 -67 -73 -115t-127 -48q-50 0 -89 29q-13 -17 -16 -34q-11 -52 47 -52h92q21 0 39 -1t51 -9t53.5 -21.5t32.5 -42t4 -67.5q-12 -57 -86.5 -96.5t-170.5 -39.5t-153 40t-45 95q14 64 86 104q-18 32 -9 75
q10 46 47 83q-24 47 -13 101q14 67 73 115t127 48q54 0 92 -32q81 32 167 32zM381 292q11 52 -10 77.5t-59 25.5q-36 0 -68.5 -24.5t-44.5 -79.5q-11 -52 10 -77.5t59 -25.5q36 0 68.5 24.5t44.5 79.5zM395 -71q5 23 -9 38t-40.5 20t-41.5 6.5t-31 1.5h-94q-34 0 -57 -16.5
t-28 -32.5l-6 -16q-7 -34 34.5 -55t103.5 -21t112 21.5t57 53.5zM524 697l-161 -172h-60l-89 172h59l70 -123l122 123h59z" />
    <glyph glyph-name="Oogonek" unicode="&#x1ea;" horiz-adv-x="759" 
d="M774 344q-30 -139 -130 -240.5t-221 -121.5q-70 -42 -78 -86q-3 -21 8.5 -28.5t36.5 -9.5q29 -1 70 14l1 -59q-58 -25 -103 -25q-47 0 -67.5 25t-13.5 60q10 59 79 106q-123 8 -190 112.5t-36 252.5q33 156 151.5 264t249.5 108t203.5 -108t39.5 -264zM681 359
q28 130 -22.5 209.5t-141.5 79.5t-175.5 -79t-112.5 -210q-29 -137 19.5 -224t140.5 -87t177.5 87t114.5 224z" />
    <glyph glyph-name="oogonek" unicode="&#x1eb;" 
d="M530 220q-17 -80 -77.5 -141.5t-137.5 -81.5q-95 -51 -105 -101q-3 -21 8.5 -28.5t36.5 -9.5q29 -1 70 14l1 -59q-58 -25 -103 -25q-47 0 -67.5 25t-13.5 60q5 32 31 63t64 54q-86 6 -133 71.5t-27 158.5q21 100 102.5 170.5t174.5 70.5q95 0 146 -71t30 -170zM449 230
q17 81 -16.5 123.5t-92.5 42.5q-57 0 -109 -42t-69 -124q-17 -81 14.5 -127t92.5 -46q59 0 110.5 45.5t69.5 127.5z" />
    <glyph glyph-name="jcaron" unicode="&#x1f0;" horiz-adv-x="274" 
d="M178 -59q-14 -66 -60.5 -106t-100.5 -40q-63 0 -116 34l36 65q28 -31 69 -31q76 0 91 69l108 512h80zM446 697l-161 -172h-60l-89 172h59l70 -123l122 123h59z" />
    <glyph glyph-name="Gacute" unicode="&#x1f4;" horiz-adv-x="685" 
d="M623 38q-115 -49 -227 -49q-66 0 -122 27.5t-91 77.5q-74 107 -43 253q32 149 151 253q119 105 257 105q58 0 105 -11q44 -11 92 -38l-33 -88q-38 38 -80 54q-40 15 -99 15q-97 0 -185 -85q-86 -83 -112 -205q-26 -119 25 -205q52 -85 149 -85q68 0 137 20l34 158h-133
l14 65h217zM718 868l-223 -122h-89l201 122h111z" />
    <glyph glyph-name="gacute" unicode="&#x1f5;" 
d="M581 388q-28 4 -73 4q-62 0 -63 -5q0 -2 3 -7q16 -44 7 -89q-14 -67 -73 -115t-127 -48q-50 0 -89 29q-13 -17 -16 -34q-11 -52 47 -52h92q21 0 39 -1t51 -9t53.5 -21.5t32.5 -42t4 -67.5q-12 -57 -86.5 -96.5t-170.5 -39.5t-153 40t-45 95q14 64 86 104q-18 32 -9 75
q10 46 47 83q-24 47 -13 101q14 67 73 115t127 48q54 0 92 -32q81 32 167 32zM381 292q11 52 -10 77.5t-59 25.5q-36 0 -68.5 -24.5t-44.5 -79.5q-11 -52 10 -77.5t59 -25.5q36 0 68.5 24.5t44.5 79.5zM395 -71q5 23 -9 38t-40.5 20t-41.5 6.5t-31 1.5h-94q-34 0 -57 -16.5
t-28 -32.5l-6 -16q-7 -34 34.5 -55t103.5 -21t112 21.5t57 53.5zM514 694l-188 -167h-65l170 167h83z" />
    <glyph glyph-name="Aringacute" unicode="&#x1fa;" horiz-adv-x="687" 
d="M657 0h-99l-35 199h-297l-118 -199h-79l416 694h92zM512 258l-48 362l-201 -362h249zM559 778q5 21 -9 29t-34 8q-51 0 -59 -37q-4 -21 10 -29t33 -8q51 0 59 37zM623 777q-7 -33 -45.5 -58t-87.5 -25t-77 25t-20 60q7 33 45.5 58t87.5 25t77 -25t20 -60zM702 1019
l-222 -122h-89l200 122h111z" />
    <glyph glyph-name="aringacute" unicode="&#x1fb;" horiz-adv-x="494" 
d="M422 0h-80l8 38q-76 -49 -180 -49q-59 0 -79.5 41.5t-11.5 85.5q13 60 96 93.5t216 36.5l9 42q11 49 -7 79.5t-59 30.5q-85 0 -165 -52l9 71q86 44 170 44q74 0 112.5 -49t22.5 -123zM369 140l11 52q-15 0 -40 -2t-69.5 -8t-77 -23t-37.5 -41q-6 -29 17 -46.5t63 -17.5
q46 0 83 19q19 10 30 23t13.5 21t6.5 23zM425 601q5 21 -9 29t-34 8q-51 0 -59 -37q-5 -21 9.5 -29t33.5 -8q51 0 59 37zM489 600q-7 -33 -45.5 -58t-87.5 -25t-77 25t-20 60q7 33 45.5 58t87.5 25t77 -25t20 -60zM568 842l-223 -122h-89l201 122h111z" />
    <glyph glyph-name="AEacute" unicode="&#x1fc;" horiz-adv-x="886" 
d="M842 0h-411l47 219h-231l-138 -219h-80l439 694h508l-15 -70h-69l-211 2h-22l-49 -233h273l-14 -65h-273l-54 -254q14 1 122 1l194 1zM490 278l74 348h-60l-220 -348h206zM818 868l-223 -122h-89l201 122h111z" />
    <glyph glyph-name="aeacute" unicode="&#x1fd;" horiz-adv-x="742" 
d="M759 219h-300q-12 -73 20 -119t91 -46q80 0 154 53l-9 -69q-77 -49 -159 -49q-102 0 -152 75q-71 -75 -240 -75q-36 0 -58.5 16t-28 37t-8 42.5t2.5 32.5q13 64 102.5 97t207.5 34q11 52 12.5 67.5t-6.5 39.5q-15 43 -63 43q-86 0 -165 -52l8 71q88 44 171 44
q92 0 128 -76q84 76 173 76q90 0 118 -77q22 -58 1 -165zM709 278q3 64 -22 91t-61 27q-42 0 -83.5 -33t-65.5 -85h232zM362 130q6 34 7 50q1 7 0 8.5t-6 1.5q-61 0 -124 -15q-44 -11 -65 -23.5t-25 -33.5q-6 -27 15 -45.5t65 -18.5q47 0 85 15q18 8 28.5 19.5t13.5 19
t6 22.5zM664 694l-188 -167h-65l170 167h83z" />
    <glyph glyph-name="Oslashacute" unicode="&#x1fe;" horiz-adv-x="799" 
d="M814 344q-32 -153 -155.5 -259.5t-264.5 -106.5q-79 0 -145 39l-66 -83l-52 34l70 88q-46 43 -68.5 119t-2.5 169q33 155 157 263.5t264 108.5q79 0 146 -39l66 83l51 -34l-70 -89q50 -49 69.5 -126.5t0.5 -166.5zM649 618q-51 33 -112 33q-103 0 -194.5 -83t-121.5 -224
q-29 -139 30 -225zM723 344q31 140 -30 229l-397 -497q51 -33 112 -33q103 0 194.5 81.5t120.5 219.5zM775 868l-223 -122h-89l201 122h111z" />
    <glyph glyph-name="oslashacute" unicode="&#x1ff;" 
d="M528 220q-21 -97 -101.5 -164t-172.5 -67q-48 0 -84 18l-94 -120l-50 32l97 123q-66 73 -44 178q21 99 101.5 170t174.5 71q48 0 85 -20l92 117l50 -32l-96 -121q66 -72 42 -185zM394 385q-25 11 -53 11q-62 0 -114 -47t-69 -129q-17 -70 13 -117zM449 220q16 78 -12 124
l-220 -280q21 -10 51 -10q59 0 111 42.5t70 123.5zM550 694l-188 -167h-65l170 167h83z" />
    <glyph glyph-name="Adblgrave" unicode="&#x200;" horiz-adv-x="687" 
d="M657 0h-99l-35 199h-297l-118 -199h-79l416 694h92zM512 258l-48 362l-201 -362h249zM620 746h-65l-45 167h83zM449 746h-65l-45 167h83z" />
    <glyph glyph-name="adblgrave" unicode="&#x201;" horiz-adv-x="494" 
d="M422 0h-80l8 38q-76 -49 -180 -49q-59 0 -79.5 41.5t-11.5 85.5q13 60 96 93.5t216 36.5l9 42q11 49 -7 79.5t-59 30.5q-85 0 -165 -52l9 71q86 44 170 44q74 0 112.5 -49t22.5 -123zM369 140l11 52q-15 0 -40 -2t-69.5 -8t-77 -23t-37.5 -41q-6 -29 17 -46.5t63 -17.5
q46 0 83 19q19 10 30 23t13.5 21t6.5 23zM506 527h-65l-45 167h83zM335 527h-65l-45 167h83z" />
    <glyph glyph-name="Edblgrave" unicode="&#x204;" horiz-adv-x="617" 
d="M573 0h-478l147 691h464l-15 -70h-86l-244 2h-38l-49 -231h339l-13 -65h-339l-54 -253l282 2h100zM614 746h-65l-45 167h83zM443 746h-65l-45 167h83z" />
    <glyph glyph-name="edblgrave" unicode="&#x205;" horiz-adv-x="457" 
d="M474 219h-318q-13 -69 19.5 -117t94.5 -48q83 0 169 53l-9 -69q-87 -49 -174 -49q-94 0 -144 69t-29 168q20 96 95.5 165.5t162.5 69.5q93 0 128 -75q26 -60 5 -167zM426 278q1 36 -8.5 61t-26.5 36.5t-32.5 16t-31.5 4.5q-46 0 -87.5 -34t-65.5 -84h252zM487 527h-65
l-45 167h83zM316 527h-65l-45 167h83z" />
    <glyph glyph-name="Idblgrave" unicode="&#x208;" horiz-adv-x="287" 
d="M191 0h-96l148 694h96zM449 746h-65l-45 167h83zM278 746h-65l-45 167h83z" />
    <glyph glyph-name="idblgrave" unicode="&#x209;" horiz-adv-x="245" 
d="M162 0h-80l94 444h80zM382 527h-65l-45 167h83zM211 527h-65l-45 167h83z" />
    <glyph glyph-name="Odblgrave" unicode="&#x20c;" horiz-adv-x="759" 
d="M774 344q-33 -154 -150.5 -260t-249.5 -106q-131 0 -204 106t-40 260q33 156 151.5 264t249.5 108t203.5 -108t39.5 -264zM681 359q28 130 -22.5 209.5t-141.5 79.5t-175.5 -79t-112.5 -210q-29 -137 19.5 -224t140.5 -87t177.5 87t114.5 224zM685 746h-65l-45 167h83z
M514 746h-65l-45 167h83z" />
    <glyph glyph-name="odblgrave" unicode="&#x20d;" 
d="M530 220q-21 -97 -101.5 -164t-174.5 -67q-92 0 -145 66.5t-32 164.5q21 100 102.5 170.5t174.5 70.5q95 0 146 -71t30 -170zM449 230q17 81 -16.5 123.5t-92.5 42.5q-57 0 -109 -42t-69 -124q-17 -81 14.5 -127t92.5 -46q59 0 110.5 45.5t69.5 127.5zM516 527h-65
l-45 167h83zM345 527h-65l-45 167h83z" />
    <glyph glyph-name="Rdblgrave" unicode="&#x210;" horiz-adv-x="666" 
d="M636 0h-96l-123 315h-160l-67 -315h-93l148 694h252q107 0 171.5 -55t47.5 -132q-13 -61 -72 -111t-141 -71zM629 507q12 56 -30 92t-127 36h-147l-54 -255h147q87 0 143.5 37t67.5 90zM610 746h-65l-45 167h83zM439 746h-65l-45 167h83z" />
    <glyph glyph-name="rdblgrave" unicode="&#x211;" horiz-adv-x="351" 
d="M417 383q-71 -1 -131.5 -47.5t-77.5 -122.5l-45 -213h-80l96 450h74l-20 -91q86 94 200 96zM435 527h-65l-45 167h83zM264 527h-65l-45 167h83z" />
    <glyph glyph-name="Udblgrave" unicode="&#x214;" horiz-adv-x="707" 
d="M661 233q-23 -108 -114 -181.5t-196 -73.5q-106 0 -168 73.5t-38 182.5l98 460h96l-99 -462q-20 -94 18.5 -144.5t106.5 -50.5q69 0 131 51t82 145l98 461h83zM659 746h-65l-45 167h83zM488 746h-65l-45 167h83z" />
    <glyph glyph-name="udblgrave" unicode="&#x215;" horiz-adv-x="531" 
d="M449 0h-80l10 48q-79 -59 -195 -59q-54 0 -73.5 28.5t-6.5 91.5l71 335h83l-70 -330q-8 -36 3.5 -51t61.5 -15q51 0 92.5 26t53.5 81l61 289h83zM524 527h-65l-45 167h83zM353 527h-65l-45 167h83z" />
    <glyph glyph-name="uni0218" unicode="&#x218;" horiz-adv-x="571" 
d="M554 191q-19 -86 -98 -149.5t-179 -63.5q-125 0 -221 69l34 87q85 -82 203 -82q64 0 113 38t60 90q9 44 -12.5 76t-57.5 44l-80 21q-29 7 -46.5 13t-44.5 25t-43 47q-27 52 -15 111q17 79 94.5 139t179.5 60q43 0 78.5 -8t53 -16t47.5 -25l-35 -87q-62 65 -160 65
q-65 0 -112.5 -35t-57.5 -80q-9 -41 15 -70.5t63 -39.5l96 -24q61 -15 101.5 -71t23.5 -134zM292 -156l-65 -115h-38l49 114h-23l16 78h77z" />
    <glyph glyph-name="uni0219" unicode="&#x219;" horiz-adv-x="394" 
d="M397 129q-9 -42 -31.5 -71.5t-53 -43.5t-58 -19.5t-55.5 -5.5q-90 0 -163 44l29 73q60 -50 148 -50q94 0 108 65q4 18 -2 31t-20.5 20.5t-25 10.5t-27.5 6q-55 11 -77 19.5t-44 31.5q-32 39 -21 89q7 31 22.5 55.5t37 38t41 22t43 11.5t33.5 4t21 1q78 0 142 -32l-28 -70
q-61 39 -136 39q-86 0 -99 -59q-5 -22 8 -36t26.5 -18t38.5 -9q51 -10 74 -18.5t42 -28.5q40 -43 27 -100zM203 -156l-65 -115h-38l49 114h-23l16 78h77z" />
    <glyph glyph-name="uni021A" unicode="&#x21a;" horiz-adv-x="702" 
d="M795 618h-60l-204 2l-132 -620h-96l132 620l-206 -2h-61l15 70h627zM357 -156l-65 -115h-38l49 114h-23l16 78h77z" />
    <glyph glyph-name="uni021B" unicode="&#x21b;" horiz-adv-x="371" 
d="M348 26q-82 -37 -160 -37q-87 0 -57 137l54 256h-85l13 62h88l27 127h74l-27 -127h144l-13 -62h-144l-50 -238q-18 -87 33 -87t99 32zM192 -156l-65 -115h-38l49 114h-23l16 78h77z" />
    <glyph glyph-name="uni0237" unicode="&#x237;" horiz-adv-x="274" 
d="M178 -59q-14 -66 -60.5 -106t-100.5 -40q-63 0 -116 34l36 65q28 -31 69 -31q76 0 91 69l108 512h80z" />
    <glyph glyph-name="ereversed" unicode="&#x258;" horiz-adv-x="457" 
d="M475 226q-21 -99 -100 -168t-173 -69q-88 0 -154 49l21 69q62 -53 145 -53q62 0 115.5 48t70.5 117h-318q20 104 75 167q65 75 160 75q86 0 132 -69t26 -166zM406 278q-2 50 -29.5 84t-73.5 34q-23 0 -46.5 -7.5t-53.5 -35.5t-49 -75h252z" />
    <glyph glyph-name="schwa" unicode="&#x259;" horiz-adv-x="457" 
d="M475 224q-21 -97 -96.5 -166t-161.5 -69q-95 0 -128 75q-26 58 -5 167h318q13 69 -20 117t-95 48q-83 0 -168 -53l9 69q86 49 174 49q94 0 144 -69t29 -168zM384 172h-252q-1 -36 8.5 -61t26 -36.5t32 -16t31.5 -4.5q46 0 88.5 34t65.5 84z" />
    <glyph glyph-name="ringhalfright" unicode="&#x2be;" horiz-adv-x="414" 
d="M454 458q-15 -72 -74 -126t-136 -54q-39 0 -61.5 7t-51.5 26q-1 0 -3 5l1 2l21 52q0 3 4 3q3 0 4 -1q24 -18 43.5 -25t52.5 -7q52 0 85 36t43 84q11 49 -9 81.5t-63 32.5q-61 0 -124 -36q-1 -1 -3 -1q-5 0 -5 7l6 52q0 4 4 4q63 36 133 36q73 0 111 -52.5t22 -125.5z" />
    <glyph glyph-name="ringhalfleft" unicode="&#x2bf;" horiz-adv-x="414" 
d="M425 318q-2 -4 -4 -4q-65 -36 -134 -36q-73 0 -110.5 52.5t-22.5 125.5q15 72 74 126t136 54q39 0 61.5 -7t51.5 -26q3 -1 3 -5v-2l-21 -52q-1 -3 -5 -3q-3 0 -4 1q-24 18 -43.5 25t-52.5 7q-52 0 -85 -36t-43 -84q-10 -50 9.5 -82t62.5 -32q61 0 124 36q1 1 3 1
q4 0 6 -7z" />
    <glyph glyph-name="circumflex" unicode="&#x2c6;" 
d="M524 525h-59l-70 123l-122 -123h-59l161 172h60z" />
    <glyph glyph-name="caron" unicode="&#x2c7;" 
d="M560 697l-161 -172h-60l-89 172h59l70 -123l122 123h59z" />
    <glyph glyph-name="breve" unicode="&#x2d8;" 
d="M580 701q-18 -79 -80.5 -129.5t-132.5 -50.5q-68 0 -110 50t-26 130h65q-9 -52 18.5 -80.5t68.5 -28.5q40 0 79.5 28.5t52.5 80.5h65z" />
    <glyph glyph-name="dotaccent" unicode="&#x2d9;" horiz-adv-x="286" 
d="M311 563h-96l20 96h96z" />
    <glyph glyph-name="ring" unicode="&#x2da;" horiz-adv-x="758" 
d="M557 601q4 21 -10 29t-33 8q-51 0 -59 -37q-5 -21 9.5 -29t33.5 -8q51 0 59 37zM621 600q-7 -33 -45.5 -58t-87.5 -25t-77 25t-20 60q7 33 45.5 58t87.5 25t77 -25t20 -60z" />
    <glyph glyph-name="ogonek" unicode="&#x2db;" 
d="M316 -187q-58 -25 -103 -25q-47 0 -67.5 25t-13.5 60q6 37 38 71t76 56h65q-101 -51 -111 -104q-3 -21 8.5 -28.5t36.5 -9.5q29 -1 70 14z" />
    <glyph glyph-name="tilde" unicode="&#x2dc;" 
d="M570 672q-13 -56 -50 -89.5t-77 -33.5q-25 0 -68 31q-32 27 -57 27q-21 0 -33.5 -18.5t-16.5 -39.5h-65q12 55 49.5 89t77.5 34q26 0 67 -31q34 -27 58 -27q37 0 50 58h65z" />
    <glyph glyph-name="hungarumlaut" unicode="&#x2dd;" 
d="M404 694l-117 -167h-65l99 167h83zM575 694l-117 -167h-65l99 167h83z" />
    <glyph glyph-name="uni0300" unicode="&#x300;" horiz-adv-x="0" 
d="M-63 527h-65l-116 167h83z" />
    <glyph glyph-name="uni0301" unicode="&#x301;" horiz-adv-x="0" 
d="M46 694l-188 -167h-65l170 167h83z" />
    <glyph glyph-name="uni0302" unicode="&#x302;" horiz-adv-x="0" 
d="M20 525h-59l-70 123l-122 -123h-59l161 172h60z" />
    <glyph glyph-name="uni0303" unicode="&#x303;" horiz-adv-x="0" 
d="M66 672q-13 -56 -50 -89.5t-77 -33.5q-25 0 -68 31q-31 27 -57 27q-21 0 -33.5 -18.5t-16.5 -39.5h-65q12 55 49.5 89t77.5 34q26 0 67 -31q34 -27 58 -27q37 0 50 58h65z" />
    <glyph glyph-name="uni0304" unicode="&#x304;" horiz-adv-x="0" 
d="M60 576h-371l15 69h371z" />
    <glyph glyph-name="uni0306" unicode="&#x306;" horiz-adv-x="0" 
d="M76 701q-18 -79 -80.5 -129.5t-132.5 -50.5q-68 0 -110 50t-26 130h65q-9 -52 18.5 -80.5t68.5 -28.5q40 0 79.5 28.5t52.5 80.5h65z" />
    <glyph glyph-name="uni0307" unicode="&#x307;" horiz-adv-x="0" 
d="M-79 563h-96l20 96h96z" />
    <glyph glyph-name="uni0308" unicode="&#x308;" horiz-adv-x="0" 
d="M-162 568h-87l18 86h87zM-2 568h-87l18 86h87z" />
    <glyph glyph-name="uni0309" unicode="&#x309;" horiz-adv-x="0" 
d="M-11 639q-6 -31 -39 -51l-18 -9q-31 -16 -44 -27t-17 -28l-4 -19l-1 -1h-27l-1 1l4 19q15 67 75 96q15 7 18 19q5 20 -6 29q-10 8 -39 8q-50 0 -86 -44h-1h-1l-6 42v1q46 43 103 43q51 0 74 -20q24 -22 16 -59z" />
    <glyph glyph-name="uni030A" unicode="&#x30a;" horiz-adv-x="0" 
d="M-69 601q4 21 -10 29t-33 8q-51 0 -59 -37q-5 -21 9.5 -29t33.5 -8q51 0 59 37zM-5 600q-7 -33 -45.5 -58t-87.5 -25t-77 25t-20 60q7 33 45.5 58t87.5 25t77 -25t20 -60z" />
    <glyph glyph-name="uni030B" unicode="&#x30b;" horiz-adv-x="0" 
d="M-100 694l-117 -167h-65l99 167h83zM71 694l-117 -167h-65l99 167h83z" />
    <glyph glyph-name="uni030C" unicode="&#x30c;" horiz-adv-x="0" 
d="M56 697l-161 -172h-60l-89 172h59l70 -123l122 123h59z" />
    <glyph glyph-name="uni030F" unicode="&#x30f;" horiz-adv-x="0" 
d="M12 527h-65l-45 167h83zM-159 527h-65l-45 167h83z" />
    <glyph glyph-name="uni0311" unicode="&#x311;" horiz-adv-x="0" 
d="M38 521h-65q8 52 -19 80.5t-68 28.5q-40 0 -79.5 -28.5t-52.5 -80.5h-65q18 79 80.5 129.5t132.5 50.5q68 0 110 -50t26 -130z" />
    <glyph glyph-name="uni0323" unicode="&#x323;" horiz-adv-x="0" 
d="M-242 -200h-96l21 96h96z" />
    <glyph glyph-name="uni0326" unicode="&#x326;" horiz-adv-x="0" 
d="M-241 -156l-65 -115h-38l49 114h-23l16 78h77z" />
    <glyph glyph-name="uni032E" unicode="&#x32e;" horiz-adv-x="0" 
d="M-86 -62q-18 -79 -80.5 -129.5t-132.5 -50.5q-68 0 -110 50t-26 130h65q-9 -52 18.5 -80.5t68.5 -28.5q40 0 79.5 28.5t52.5 80.5h65z" />
    <glyph glyph-name="uni032F" unicode="&#x32f;" horiz-adv-x="0" 
d="M-124 -242h-65q8 52 -19 80.5t-68 28.5q-40 0 -79.5 -28.5t-52.5 -80.5h-65q18 79 80.5 129.5t132.5 50.5q68 0 109.5 -49.5t26.5 -130.5z" />
    <glyph glyph-name="uni0330" unicode="&#x330;" horiz-adv-x="0" 
d="M-96 -90q-12 -55 -49.5 -89t-77.5 -34q-25 0 -68 31q-32 27 -57 27q-21 0 -33.5 -18.5t-16.5 -39.5h-65q12 55 49.5 89t77.5 34q26 0 67 -31q34 -27 58 -27q37 0 50 58h65z" />
    <glyph glyph-name="uni0331" unicode="&#x331;" horiz-adv-x="0" 
d="M-102 -186h-371l15 69h371z" />
    <glyph glyph-name="uni0332" unicode="&#x332;" horiz-adv-x="0" 
d="M-102 -186h-371l15 69h371z" />
    <glyph glyph-name="Alpha" unicode="&#x391;" horiz-adv-x="687" 
d="M657 0h-99l-35 199h-297l-118 -199h-79l416 694h92zM512 258l-48 362l-201 -362h249z" />
    <glyph glyph-name="Beta" unicode="&#x392;" horiz-adv-x="686" 
d="M668 188q-16 -74 -101.5 -131t-194.5 -57h-274l148 694h247q106 0 168.5 -52t48.5 -122q-12 -54 -67.5 -96t-135.5 -61q80 -12 127.5 -61t33.5 -114zM625 518q11 51 -41.5 84t-132.5 33h-128l-51 -242h117q97 0 161.5 38.5t74.5 86.5zM581 189q12 58 -41.5 98.5
t-134.5 40.5h-147l-57 -269h155q83 0 148.5 38t76.5 92z" />
    <glyph glyph-name="Gamma" unicode="&#x393;" horiz-adv-x="560" 
d="M648 621h-75l-223 2h-27l-132 -623h-96l147 691h421z" />
    <glyph glyph-name="Delta" unicode="&#x394;" horiz-adv-x="856" 
d="M812 0h-769l485 694h95zM681 90l-76 285q-53 194 -58 245q-19 -36 -155 -235l-204 -295h493z" />
    <glyph glyph-name="Epsilon" unicode="&#x395;" horiz-adv-x="617" 
d="M573 0h-478l147 691h464l-15 -70h-86l-244 2h-38l-49 -231h339l-13 -65h-339l-54 -253l282 2h100z" />
    <glyph glyph-name="Zeta" unicode="&#x396;" horiz-adv-x="628" 
d="M576 0h-519l10 45l514 584h-24l-260 -2h-93l15 67h499l-10 -43l-514 -583h29l270 2h98z" />
    <glyph glyph-name="Eta" unicode="&#x397;" horiz-adv-x="727" 
d="M631 0h-96l70 328h-344l-70 -328h-96l148 694h96l-64 -301h344l64 301h96z" />
    <glyph glyph-name="Theta" unicode="&#x398;" horiz-adv-x="799" 
d="M814 344q-32 -153 -155.5 -259.5t-264.5 -106.5q-140 0 -218 106.5t-46 259.5q33 155 157 263.5t264 108.5q141 0 218.5 -108.5t44.5 -263.5zM724 344q28 134 -28 220.5t-159 86.5t-196 -86t-121 -221q-28 -131 28.5 -215t160.5 -84t195.5 84t119.5 215zM657 303h-388
l20 90h388z" />
    <glyph glyph-name="Iota" unicode="&#x399;" horiz-adv-x="287" 
d="M191 0h-96l148 694h96z" />
    <glyph glyph-name="Kappa" unicode="&#x39a;" horiz-adv-x="715" 
d="M671 0h-99l-172 361l-163 -133l-48 -228h-91l148 694h91l-79 -368l448 368h98l-333 -274z" />
    <glyph glyph-name="Lambda" unicode="&#x39b;" horiz-adv-x="630" 
d="M600 0h-101l-39 294l-19 169q-5 52 -6.5 90.5t-0.5 50.5v13h-1q-9 -29 -69 -148l-85 -158l-172 -311h-78l388 694h91z" />
    <glyph glyph-name="Mu" unicode="&#x39c;" horiz-adv-x="898" 
d="M795 0h-82l131 616h-1q-35 -71 -141 -242l-212 -352h-76l-15 84l-51 282q-31 173 -32 228h-1l-131 -616h-82l148 694h120l8 -45l60 -341q30 -159 31 -210h1q17 38 146 254l207 342h120z" />
    <glyph glyph-name="Nu" unicode="&#x39d;" horiz-adv-x="727" 
d="M628 0h-132l-15 52q-1 3 -15 47l-154 517h-1l-131 -616h-82l148 694h132l14 -52q6 -10 15 -47l155 -517h1l131 616h82z" />
    <glyph glyph-name="Xi" unicode="&#x39e;" horiz-adv-x="685" 
d="M764 607h-129l-164 1l-164 -1h-129l17 81h586zM641 0h-598l17 81h132l167 -1l167 1h132zM638 318h-456l17 80h456z" />
    <glyph glyph-name="Omicron" unicode="&#x39f;" horiz-adv-x="759" 
d="M774 344q-33 -154 -150.5 -260t-249.5 -106q-131 0 -204 106t-40 260q33 156 151.5 264t249.5 108t203.5 -108t39.5 -264zM681 359q28 130 -22.5 209.5t-141.5 79.5t-175.5 -79t-112.5 -210q-29 -137 19.5 -224t140.5 -87t177.5 87t114.5 224z" />
    <glyph glyph-name="Pi" unicode="&#x3a0;" horiz-adv-x="727" 
d="M631 0h-96l133 626h-344l-133 -626h-96l147 691h536z" />
    <glyph glyph-name="Rho" unicode="&#x3a1;" horiz-adv-x="657" 
d="M703 491q-18 -84 -100 -145t-186 -61h-163l-61 -285h-96l148 694h259q104 0 160.5 -60.5t38.5 -142.5zM616 491q13 62 -26 103t-123 41h-142l-61 -288h142q84 0 140.5 41t69.5 103z" />
    <glyph glyph-name="Sigma" unicode="&#x3a3;" horiz-adv-x="742" 
d="M684 0h-627l310 333l-177 293l15 68h627l-15 -70h-123l-319 2h-61l169 -279l-255 -273h60l299 2h113z" />
    <glyph glyph-name="Tau" unicode="&#x3a4;" horiz-adv-x="702" 
d="M795 618h-60l-204 2l-132 -620h-96l132 620l-206 -2h-61l15 70h627z" />
    <glyph glyph-name="Upsilon" unicode="&#x3a5;" horiz-adv-x="799" 
d="M859 555h-83q7 42 -12 65.5t-51 23.5q-129 0 -186 -269l-80 -375h-96l80 375q57 269 -72 269q-32 0 -61 -23.5t-40 -65.5h-83q18 74 76.5 117.5t121.5 43.5q142 0 131 -219h1q83 219 224 219q63 0 103 -43.5t27 -117.5z" />
    <glyph glyph-name="Phi" unicode="&#x3a6;" horiz-adv-x="742" 
d="M758 347q-20 -92 -113 -161t-209 -80l-23 -106h-90l23 107q-112 13 -173.5 81.5t-41.5 158.5q19 90 109.5 158.5t207.5 81.5l23 107h90l-23 -106q111 -11 175 -80t45 -161zM360 172l74 350q-89 -14 -143 -63.5t-67 -111.5t20 -111.5t116 -63.5zM665 347q13 61 -20.5 112
t-120.5 63l-74 -350q91 12 146 62.5t69 112.5z" />
    <glyph glyph-name="Chi" unicode="&#x3a7;" horiz-adv-x="687" 
d="M672 0h-113l-159 303l-283 -303h-103l353 366l-190 328h113l139 -258l245 258h103l-317 -328z" />
    <glyph glyph-name="Psi" unicode="&#x3a8;" horiz-adv-x="799" 
d="M858 550q-22 -1 -40.5 -15t-29 -35t-16.5 -38.5t-9 -35.5q-63 -289 -299 -319l-23 -107h-90l23 107q-61 9 -100.5 39.5t-53.5 72t-17 90.5t9 94q6 30 8.5 51t1.5 44.5t-13.5 37t-34.5 14.5l14 65h80q47 0 54.5 -40.5t-16.5 -152.5q-48 -211 82 -247l111 519h90l-111 -519
q42 10 76 35t53 51t35 65t21.5 60t12.5 54q13 59 26.5 96.5t29 53.5t28.5 20.5t32 4.5h80z" />
    <glyph glyph-name="Omega" unicode="&#x3a9;" horiz-adv-x="742" 
d="M695 0h-252q20 88 111 215q40 58 58.5 86.5t42 74.5t31.5 85q17 82 -33.5 136t-144.5 54q-92 0 -165.5 -53.5t-91.5 -136.5q-10 -30 -6 -75.5t10.5 -76.5t20.5 -82q21 -77 26 -123t-4 -104h-252l16 75h87q6 0 18 -0.5t18 -0.5h53q-6 64 -47 163q-27 72 -37 122.5t1 102.5
q22 104 128.5 179t239.5 75q131 0 206 -75t53 -179q-8 -40 -32.5 -84t-46.5 -73.5t-65 -82.5q-72 -88 -103 -148h53q6 0 18 0.5t18 0.5h87z" />
    <glyph glyph-name="baht" unicode="&#xe3f;" horiz-adv-x="686" 
d="M668 188q-16 -74 -101.5 -131t-194.5 -57h-3l-14 -68h-68l14 68h-203l148 694h203l14 68h68l-15 -69q96 -6 152 -56.5t42 -116.5q-12 -54 -67.5 -96t-135.5 -61q80 -12 127.5 -61t33.5 -114zM625 518q9 42 -26.5 72.5t-95.5 40.5l-49 -233q71 12 117 46.5t54 73.5z
M385 393l51 242h-113l-51 -242h113zM581 189q11 51 -31.5 90t-111.5 47l-56 -266q74 6 131 43t68 86zM314 59l57 269h-113l-57 -269h113z" />
    <glyph glyph-name="Ddotbelow" unicode="&#x1e0c;" horiz-adv-x="743" 
d="M757 341q-30 -142 -143 -241.5t-244 -99.5h-273l148 694h273q131 0 200.5 -103t38.5 -250zM664 341q29 133 -25 213.5t-160 80.5h-154l-122 -576h155q105 0 192 77t114 205zM272 -200h-96l21 96h96z" />
    <glyph glyph-name="ddotbelow" unicode="&#x1e0d;" horiz-adv-x="531" 
d="M447 0h-83l11 52q-81 -63 -166 -63q-73 0 -109.5 68t-16.5 165q20 96 87 164.5t142 68.5q86 0 140 -55l63 294h80zM394 141l42 197q-28 52 -86 52q-57 0 -111.5 -41t-72.5 -128q-18 -83 14 -125t87 -42q58 0 109 52q10 10 12.5 15t5.5 20zM271 -200h-96l21 96h96z" />
    <glyph glyph-name="Dlinebelow" unicode="&#x1e0e;" horiz-adv-x="743" 
d="M757 341q-30 -142 -143 -241.5t-244 -99.5h-273l148 694h273q131 0 200.5 -103t38.5 -250zM664 341q29 133 -25 213.5t-160 80.5h-154l-122 -576h155q105 0 192 77t114 205zM412 -186h-371l15 69h371z" />
    <glyph glyph-name="dlinebelow" unicode="&#x1e0f;" horiz-adv-x="531" 
d="M447 0h-83l11 52q-81 -63 -166 -63q-73 0 -109.5 68t-16.5 165q20 96 87 164.5t142 68.5q86 0 140 -55l63 294h80zM394 141l42 197q-28 52 -86 52q-57 0 -111.5 -41t-72.5 -128q-18 -83 14 -125t87 -42q58 0 109 52q10 10 12.5 15t5.5 20zM410 -186h-371l15 69h371z" />
    <glyph glyph-name="Hdotbelow" unicode="&#x1e24;" horiz-adv-x="727" 
d="M631 0h-96l70 328h-344l-70 -328h-96l148 694h96l-64 -301h344l64 301h96zM369 -200h-96l21 96h96z" />
    <glyph glyph-name="hdotbelow" unicode="&#x1e25;" horiz-adv-x="531" 
d="M449 0h-83l62 290q3 13 4 22t-0.5 25.5t-9.5 26.5t-26.5 18t-46.5 8q-52 0 -86.5 -44t-46.5 -102l-52 -244h-83l148 694h80l-67 -311q74 72 163 72q141 0 107 -158zM270 -200h-96l21 96h96z" />
    <glyph glyph-name="Hdieresis" unicode="&#x1e26;" horiz-adv-x="727" 
d="M631 0h-96l70 328h-344l-70 -328h-96l148 694h96l-64 -301h344l64 301h96zM470 736h-87l19 86h87zM658 736h-87l19 86h87z" />
    <glyph glyph-name="hdieresis" unicode="&#x1e27;" horiz-adv-x="531" 
d="M449 0h-83l62 290q3 13 4 22t-0.5 25.5t-9.5 26.5t-26.5 18t-46.5 8q-52 0 -86.5 -44t-46.5 -102l-52 -244h-83l148 694h80l-67 -311q74 72 163 72q141 0 107 -158zM372 736h-87l19 86h87zM560 736h-87l19 86h87z" />
    <glyph glyph-name="Hbrevebelow" unicode="&#x1e2a;" horiz-adv-x="727" 
d="M631 0h-96l70 328h-344l-70 -328h-96l148 694h96l-64 -301h344l64 301h96zM524 -62q-18 -79 -80.5 -129.5t-132.5 -50.5q-68 0 -110 50t-26 130h65q-9 -52 18.5 -80.5t68.5 -28.5q40 0 79.5 28.5t52.5 80.5h65z" />
    <glyph glyph-name="hbrevebelow" unicode="&#x1e2b;" horiz-adv-x="531" 
d="M449 0h-83l62 290q3 13 4 22t-0.5 25.5t-9.5 26.5t-26.5 18t-46.5 8q-52 0 -86.5 -44t-46.5 -102l-52 -244h-83l148 694h80l-67 -311q74 72 163 72q141 0 107 -158zM426 -62q-18 -79 -80.5 -129.5t-132.5 -50.5q-68 0 -110 50t-26 130h65q-9 -52 18.5 -80.5t68.5 -28.5
q40 0 79.5 28.5t52.5 80.5h65z" />
    <glyph glyph-name="Idieresisacute" unicode="&#x1e2e;" horiz-adv-x="287" 
d="M191 0h-96l148 694h96zM250 736h-87l19 86h87zM438 736h-87l19 86h87zM546 996l-223 -122h-89l201 122h111z" />
    <glyph glyph-name="idieresisacute" unicode="&#x1e2f;" horiz-adv-x="245" 
d="M162 0h-80l94 444h80zM208 568h-87l18 86h87zM368 568h-87l18 86h87zM490 828l-223 -122h-89l201 122h111z" />
    <glyph glyph-name="Ldotbelow" unicode="&#x1e36;" horiz-adv-x="560" 
d="M516 0h-421l148 694h96l-134 -626h38l244 2h44zM285 -200h-96l21 96h96z" />
    <glyph glyph-name="ldotbelow" unicode="&#x1e37;" horiz-adv-x="245" 
d="M162 0h-80l148 694h80zM128 -200h-96l21 96h96z" />
    <glyph glyph-name="Ldotbelowmacron" unicode="&#x1e38;" horiz-adv-x="560" 
d="M516 0h-421l148 694h96l-134 -626h38l244 2h44zM285 -200h-96l21 96h96zM489 756h-371l14 69h371z" />
    <glyph glyph-name="ldotbelowmacron" unicode="&#x1e39;" horiz-adv-x="245" 
d="M162 0h-80l148 694h80zM128 -200h-96l21 96h96zM481 756h-371l14 69h371z" />
    <glyph glyph-name="Mdotbelow" unicode="&#x1e42;" horiz-adv-x="898" 
d="M795 0h-82l131 616h-1q-35 -71 -141 -242l-212 -352h-76l-15 84l-51 282q-31 173 -32 228h-1l-131 -616h-82l148 694h120l8 -45l60 -341q30 -159 31 -210h1q17 38 146 254l207 342h120zM454 -200h-96l21 96h96z" />
    <glyph glyph-name="mdotbelow" unicode="&#x1e43;" horiz-adv-x="816" 
d="M734 0h-83l62 290q3 13 4 22t-0.5 25.5t-9.5 26.5t-26.5 18t-46.5 8q-52 0 -86.5 -44t-46.5 -102l-52 -244h-83l62 290q3 13 4 22t-0.5 25.5t-9.5 26.5t-26.5 18t-46.5 8q-52 0 -86.5 -44t-46.5 -102l-52 -244h-83l96 450h77l-15 -71q73 76 166 76q104 0 112 -82
q82 82 173 82q141 0 107 -158zM413 -200h-96l21 96h96z" />
    <glyph glyph-name="Ndotaccent" unicode="&#x1e44;" horiz-adv-x="727" 
d="M628 0h-132l-15 52q-1 3 -15 47l-154 517h-1l-131 -616h-82l148 694h132l14 -52q6 -10 15 -47l155 -517h1l131 616h82zM568 736h-96l21 96h96z" />
    <glyph glyph-name="ndotaccent" unicode="&#x1e45;" horiz-adv-x="531" 
d="M449 0h-83l62 290q3 13 4 22t-0.5 25.5t-9.5 26.5t-26.5 18t-46.5 8q-52 0 -86.5 -44t-46.5 -102l-52 -244h-83l96 450h77l-15 -71q73 76 166 76q141 0 107 -158zM434 563h-96l20 96h96z" />
    <glyph glyph-name="Ndotbelow" unicode="&#x1e46;" horiz-adv-x="727" 
d="M628 0h-132l-15 52q-1 3 -15 47l-154 517h-1l-131 -616h-82l148 694h132l14 -52q6 -10 15 -47l155 -517h1l131 616h82zM369 -200h-96l21 96h96z" />
    <glyph glyph-name="ndotbelow" unicode="&#x1e47;" horiz-adv-x="531" 
d="M449 0h-83l62 290q3 13 4 22t-0.5 25.5t-9.5 26.5t-26.5 18t-46.5 8q-52 0 -86.5 -44t-46.5 -102l-52 -244h-83l96 450h77l-15 -71q73 76 166 76q141 0 107 -158zM271 -200h-96l21 96h96z" />
    <glyph glyph-name="Rdotaccent" unicode="&#x1e58;" horiz-adv-x="666" 
d="M636 0h-96l-123 315h-160l-67 -315h-93l148 694h252q107 0 171.5 -55t47.5 -132q-13 -61 -72 -111t-141 -71zM629 507q12 56 -30 92t-127 36h-147l-54 -255h147q87 0 143.5 37t67.5 90zM537 736h-96l21 96h96z" />
    <glyph glyph-name="rdotaccent" unicode="&#x1e59;" horiz-adv-x="351" 
d="M417 383q-71 -1 -131.5 -47.5t-77.5 -122.5l-45 -213h-80l96 450h74l-20 -91q86 94 200 96zM344 563h-96l20 96h96z" />
    <glyph glyph-name="Rdotbelow" unicode="&#x1e5a;" horiz-adv-x="666" 
d="M636 0h-96l-123 315h-160l-67 -315h-93l148 694h252q107 0 171.5 -55t47.5 -132q-13 -61 -72 -111t-141 -71zM629 507q12 56 -30 92t-127 36h-147l-54 -255h147q87 0 143.5 37t67.5 90zM338 -200h-96l21 96h96z" />
    <glyph glyph-name="rdotbelow" unicode="&#x1e5b;" horiz-adv-x="351" 
d="M417 383q-71 -1 -131.5 -47.5t-77.5 -122.5l-45 -213h-80l96 450h74l-20 -91q86 94 200 96zM128 -200h-96l21 96h96z" />
    <glyph glyph-name="Rdotbelowmacron" unicode="&#x1e5c;" horiz-adv-x="666" 
d="M636 0h-96l-123 315h-160l-67 -315h-93l148 694h252q107 0 171.5 -55t47.5 -132q-13 -61 -72 -111t-141 -71zM629 507q12 56 -30 92t-127 36h-147l-54 -255h147q87 0 143.5 37t67.5 90zM338 -200h-96l21 96h96zM679 756h-371l14 69h371z" />
    <glyph glyph-name="rdotbelowmacron" unicode="&#x1e5d;" horiz-adv-x="351" 
d="M417 383q-71 -1 -131.5 -47.5t-77.5 -122.5l-45 -213h-80l96 450h74l-20 -91q86 94 200 96zM128 -200h-96l21 96h96zM483 576h-371l15 69h371z" />
    <glyph glyph-name="Sdotbelow" unicode="&#x1e62;" horiz-adv-x="571" 
d="M554 191q-19 -86 -98 -149.5t-179 -63.5q-125 0 -221 69l34 87q85 -82 203 -82q64 0 113 38t60 90q9 44 -12.5 76t-57.5 44l-80 21q-29 7 -46.5 13t-44.5 25t-43 47q-27 52 -15 111q17 79 94.5 139t179.5 60q43 0 78.5 -8t53 -16t47.5 -25l-35 -87q-62 65 -160 65
q-65 0 -112.5 -35t-57.5 -80q-9 -41 15 -70.5t63 -39.5l96 -24q61 -15 101.5 -71t23.5 -134zM291 -200h-96l21 96h96z" />
    <glyph glyph-name="sdotbelow" unicode="&#x1e63;" horiz-adv-x="394" 
d="M397 129q-9 -42 -31.5 -71.5t-53 -43.5t-58 -19.5t-55.5 -5.5q-90 0 -163 44l29 73q60 -50 148 -50q94 0 108 65q4 18 -2 31t-20.5 20.5t-25 10.5t-27.5 6q-55 11 -77 19.5t-44 31.5q-32 39 -21 89q7 31 22.5 55.5t37 38t41 22t43 11.5t33.5 4t21 1q78 0 142 -32l-28 -70
q-61 39 -136 39q-86 0 -99 -59q-5 -22 8 -36t26.5 -18t38.5 -9q51 -10 74 -18.5t42 -28.5q40 -43 27 -100zM202 -200h-96l21 96h96z" />
    <glyph glyph-name="Tdotbelow" unicode="&#x1e6c;" horiz-adv-x="702" 
d="M795 618h-60l-204 2l-132 -620h-96l132 620l-206 -2h-61l15 70h627zM356 -200h-96l21 96h96z" />
    <glyph glyph-name="tdotbelow" unicode="&#x1e6d;" horiz-adv-x="371" 
d="M348 26q-82 -37 -160 -37q-87 0 -57 137l54 256h-85l13 62h88l27 127h74l-27 -127h144l-13 -62h-144l-50 -238q-18 -87 33 -87t99 32zM191 -200h-96l21 96h96z" />
    <glyph glyph-name="Tlinebelow" unicode="&#x1e6e;" horiz-adv-x="702" 
d="M795 618h-60l-204 2l-132 -620h-96l132 620l-206 -2h-61l15 70h627zM496 -186h-371l15 69h371z" />
    <glyph glyph-name="tlinebelow" unicode="&#x1e6f;" horiz-adv-x="371" 
d="M348 26q-82 -37 -160 -37q-87 0 -57 137l54 256h-85l13 62h88l27 127h74l-27 -127h144l-13 -62h-144l-50 -238q-18 -87 33 -87t99 32zM331 -186h-371l15 69h371z" />
    <glyph glyph-name="Wgrave" unicode="&#x1e80;" horiz-adv-x="972" 
d="M1105 694l-358 -694h-90l-27 307q-22 254 -16 309h-1q-4 -18 -55 -120l-75 -153l-175 -343h-84l-62 694h92l24 -288q22 -253 16 -328l1 1q24 78 155 329l146 286h84l26 -308l13 -162q3 -52 4 -88.5t1 -47.5l-1 -11q22 64 140 293l165 324h77zM739 746h-89l-171 122h111z
" />
    <glyph glyph-name="wgrave" unicode="&#x1e81;" horiz-adv-x="702" 
d="M781 444l-235 -444h-91l-23 247q-3 26 -4 72q0 59 1 68h-1q-11 -41 -89 -194l-101 -193h-83l-47 444h80l19 -195q13 -139 8 -190h1q17 62 188 385h74l22 -222q12 -130 9 -166h1q18 55 194 388h77zM535 527h-65l-116 167h83z" />
    <glyph glyph-name="Wacute" unicode="&#x1e82;" horiz-adv-x="972" 
d="M1105 694l-358 -694h-90l-27 307q-22 254 -16 309h-1q-4 -18 -55 -120l-75 -153l-175 -343h-84l-62 694h92l24 -288q22 -253 16 -328l1 1q24 78 155 329l146 286h84l26 -308l13 -162q3 -52 4 -88.5t1 -47.5l-1 -11q22 64 140 293l165 324h77zM861 868l-223 -122h-89
l201 122h111z" />
    <glyph glyph-name="wacute" unicode="&#x1e83;" horiz-adv-x="702" 
d="M781 444l-235 -444h-91l-23 247q-3 26 -4 72q0 59 1 68h-1q-11 -41 -89 -194l-101 -193h-83l-47 444h80l19 -195q13 -139 8 -190h1q17 62 188 385h74l22 -222q12 -130 9 -166h1q18 55 194 388h77zM644 694l-188 -167h-65l170 167h83z" />
    <glyph glyph-name="Wdieresis" unicode="&#x1e84;" horiz-adv-x="972" 
d="M1105 694l-358 -694h-90l-27 307q-22 254 -16 309h-1q-4 -18 -55 -120l-75 -153l-175 -343h-84l-62 694h92l24 -288q22 -253 16 -328l1 1q24 78 155 329l146 286h84l26 -308l13 -162q3 -52 4 -88.5t1 -47.5l-1 -11q22 64 140 293l165 324h77zM592 736h-87l19 86h87z
M780 736h-87l19 86h87z" />
    <glyph glyph-name="wdieresis" unicode="&#x1e85;" horiz-adv-x="702" 
d="M781 444l-235 -444h-91l-23 247q-3 26 -4 72q0 59 1 68h-1q-11 -41 -89 -194l-101 -193h-83l-47 444h80l19 -195q13 -139 8 -190h1q17 62 188 385h74l22 -222q12 -130 9 -166h1q18 55 194 388h77zM436 568h-87l18 86h87zM596 568h-87l18 86h87z" />
    <glyph glyph-name="Zdotbelow" unicode="&#x1e92;" horiz-adv-x="628" 
d="M576 0h-519l10 45l514 584h-24l-260 -2h-93l15 67h499l-10 -43l-514 -583h29l270 2h98zM319 -200h-96l21 96h96z" />
    <glyph glyph-name="zdotbelow" unicode="&#x1e93;" horiz-adv-x="447" 
d="M413 0h-384l9 43l340 339h-77q-6 0 -18 -0.5t-18 -0.5h-141l13 63h367l-8 -41l-339 -338h84q6 0 18 0.5t18 0.5h150zM229 -200h-96l21 96h96z" />
    <glyph glyph-name="tdieresis" unicode="&#x1e97;" horiz-adv-x="371" 
d="M348 26q-82 -37 -160 -37q-87 0 -57 137l54 256h-85l13 62h88l27 127h74l-27 -127h144l-13 -62h-144l-50 -238q-18 -87 33 -87t99 32zM224 613h-87l19 86h87zM412 613h-87l19 86h87z" />
    <glyph glyph-name="Adotbelow" unicode="&#x1ea0;" horiz-adv-x="687" 
d="M657 0h-99l-35 199h-297l-118 -199h-79l416 694h92zM512 258l-48 362l-201 -362h249zM349 -200h-96l21 96h96z" />
    <glyph glyph-name="adotbelow" unicode="&#x1ea1;" horiz-adv-x="494" 
d="M422 0h-80l8 38q-76 -49 -180 -49q-59 0 -79.5 41.5t-11.5 85.5q13 60 96 93.5t216 36.5l9 42q11 49 -7 79.5t-59 30.5q-85 0 -165 -52l9 71q86 44 170 44q74 0 112.5 -49t22.5 -123zM369 140l11 52q-15 0 -40 -2t-69.5 -8t-77 -23t-37.5 -41q-6 -29 17 -46.5t63 -17.5
q46 0 83 19q19 10 30 23t13.5 21t6.5 23zM252 -200h-96l21 96h96z" />
    <glyph glyph-name="Ahookabove" unicode="&#x1ea2;" horiz-adv-x="687" 
d="M657 0h-99l-35 199h-297l-118 -199h-79l416 694h92zM512 258l-48 362l-201 -362h249zM629 871q-6 -31 -39 -51l-4 -2l-4 -2l-5 -2.5l-5 -2.5q-30 -16 -43 -27t-17 -28l-4 -19l-2 -1h-27v1l4 19q13 67 74 96q15 7 18 19q5 20 -6 29q-9 8 -39 8q-51 0 -85 -44h-1h-1l-7 42
l1 1q45 43 102 43q51 0 75 -20q23 -21 15 -59z" />
    <glyph glyph-name="ahookabove" unicode="&#x1ea3;" horiz-adv-x="494" 
d="M422 0h-80l8 38q-76 -49 -180 -49q-59 0 -79.5 41.5t-11.5 85.5q13 60 96 93.5t216 36.5l9 42q11 49 -7 79.5t-59 30.5q-85 0 -165 -52l9 71q86 44 170 44q74 0 112.5 -49t22.5 -123zM369 140l11 52q-15 0 -40 -2t-69.5 -8t-77 -23t-37.5 -41q-6 -29 17 -46.5t63 -17.5
q46 0 83 19q19 10 30 23t13.5 21t6.5 23zM483 639q-6 -31 -39 -51l-18 -9q-31 -16 -44 -27t-17 -28l-4 -19l-1 -1h-27l-1 1l4 19q15 67 75 96q15 7 18 19q5 20 -6 29q-10 8 -39 8q-50 0 -86 -44h-1h-1l-6 42v1q46 43 103 43q51 0 74 -20q24 -22 16 -59z" />
    <glyph glyph-name="Acircumflexacute" unicode="&#x1ea4;" horiz-adv-x="687" 
d="M657 0h-99l-35 199h-297l-118 -199h-79l416 694h92zM512 258l-48 362l-201 -362h249zM656 736h-59l-76 97l-118 -97h-59l155 134h60zM705 1027l-223 -122h-89l201 122h111z" />
    <glyph glyph-name="acircumflexacute" unicode="&#x1ea5;" horiz-adv-x="494" 
d="M422 0h-80l8 38q-76 -49 -180 -49q-59 0 -79.5 41.5t-11.5 85.5q13 60 96 93.5t216 36.5l9 42q11 49 -7 79.5t-59 30.5q-85 0 -165 -52l9 71q86 44 170 44q74 0 112.5 -49t22.5 -123zM369 140l11 52q-15 0 -40 -2t-69.5 -8t-77 -23t-37.5 -41q-6 -29 17 -46.5t63 -17.5
q46 0 83 19q19 10 30 23t13.5 21t6.5 23zM515 525h-59l-77 97l-117 -97h-59l154 134h60zM563 816l-222 -122h-89l200 122h111z" />
    <glyph glyph-name="Acircumflexgrave" unicode="&#x1ea6;" horiz-adv-x="687" 
d="M657 0h-99l-35 199h-297l-118 -199h-79l416 694h92zM512 258l-48 362l-201 -362h249zM656 736h-59l-76 97l-118 -97h-59l155 134h60zM679 905l-149 122h-111l171 -122h89z" />
    <glyph glyph-name="acircumflexgrave" unicode="&#x1ea7;" horiz-adv-x="494" 
d="M422 0h-80l8 38q-76 -49 -180 -49q-59 0 -79.5 41.5t-11.5 85.5q13 60 96 93.5t216 36.5l9 42q11 49 -7 79.5t-59 30.5q-85 0 -165 -52l9 71q86 44 170 44q74 0 112.5 -49t22.5 -123zM369 140l11 52q-15 0 -40 -2t-69.5 -8t-77 -23t-37.5 -41q-6 -29 17 -46.5t63 -17.5
q46 0 83 19q19 10 30 23t13.5 21t6.5 23zM515 525h-59l-77 97l-117 -97h-59l154 134h60zM538 694l-150 122h-111l172 -122h89z" />
    <glyph glyph-name="Acircumflexhookabove" unicode="&#x1ea8;" horiz-adv-x="687" 
d="M657 0h-99l-35 199h-297l-118 -199h-79l416 694h92zM512 258l-48 362l-201 -362h249zM656 736h-59l-76 97l-118 -97h-59l155 134h60zM761 1020q-8 -31 -39 -51q-3 -1 -5.5 -2t-6 -3.5t-6.5 -3.5q-31 -16 -44 -27t-17 -28l-4 -19l-1 -1h-27l-1 1l4 19q15 67 75 96
q15 8 18 19q3 21 -6 29q-10 8 -39 8q-50 0 -86 -44h-1h-1l-6 42v1q46 43 102 43q51 0 75 -20q24 -22 16 -59z" />
    <glyph glyph-name="acircumflexhookabove" unicode="&#x1ea9;" horiz-adv-x="494" 
d="M422 0h-80l8 38q-76 -49 -180 -49q-59 0 -79.5 41.5t-11.5 85.5q13 60 96 93.5t216 36.5l9 42q11 49 -7 79.5t-59 30.5q-85 0 -165 -52l9 71q86 44 170 44q74 0 112.5 -49t22.5 -123zM369 140l11 52q-15 0 -40 -2t-69.5 -8t-77 -23t-37.5 -41q-6 -29 17 -46.5t63 -17.5
q46 0 83 19q19 10 30 23t13.5 21t6.5 23zM515 525h-59l-77 97l-117 -97h-59l154 134h60zM619 809q-6 -31 -39 -51l-4 -2l-4 -2l-5 -2.5l-5 -2.5q-30 -16 -43 -27t-17 -28l-5 -19l-1 -1h-27l-1 1l5 19q13 67 74 96q15 7 18 19q5 20 -6 29q-9 8 -39 8q-50 0 -86 -44h-1h-1
l-6 42l1 1q45 43 102 43q51 0 74 -20q24 -21 16 -59z" />
    <glyph glyph-name="Acircumflextilde" unicode="&#x1eaa;" horiz-adv-x="687" 
d="M657 0h-99l-35 199h-297l-118 -199h-79l416 694h92zM512 258l-48 362l-201 -362h249zM656 736h-59l-76 97l-118 -97h-59l155 134h60zM738 1048q-13 -55 -50.5 -89t-77.5 -34q-4 0 -8.5 0.5t-8.5 2t-7 2t-8 3l-7 3.5t-7 5t-6.5 4.5t-7.5 5t-7 5.5q-32 27 -57 27
q-21 0 -33.5 -18t-17.5 -40h-65q13 55 50.5 89t77.5 34q4 0 8.5 -0.5t8.5 -2t7 -2t8 -3l7 -3.5t7 -5t6.5 -4.5t7.5 -5t7 -5.5q31 -27 57 -27q21 0 33.5 18t17.5 40h65z" />
    <glyph glyph-name="acircumflextilde" unicode="&#x1eab;" horiz-adv-x="494" 
d="M422 0h-80l8 38q-76 -49 -180 -49q-59 0 -79.5 41.5t-11.5 85.5q13 60 96 93.5t216 36.5l9 42q11 49 -7 79.5t-59 30.5q-85 0 -165 -52l9 71q86 44 170 44q74 0 112.5 -49t22.5 -123zM369 140l11 52q-15 0 -40 -2t-69.5 -8t-77 -23t-37.5 -41q-6 -29 17 -46.5t63 -17.5
q46 0 83 19q19 10 30 23t13.5 21t6.5 23zM515 525h-59l-77 97l-117 -97h-59l154 134h60zM596 837q-12 -55 -49.5 -89t-77.5 -34q-25 0 -68 31q-31 27 -57 27q-21 0 -33.5 -18.5t-16.5 -39.5h-65q12 55 49.5 89t77.5 34q26 0 67 -31q34 -27 58 -27q37 0 50 58h65z" />
    <glyph glyph-name="Acircumflexdotbelow" unicode="&#x1eac;" horiz-adv-x="687" 
d="M657 0h-99l-35 199h-297l-118 -199h-79l416 694h92zM512 258l-48 362l-201 -362h249zM656 736h-59l-76 97l-118 -97h-59l155 134h60zM349 -200h-96l21 96h96z" />
    <glyph glyph-name="acircumflexdotbelow" unicode="&#x1ead;" horiz-adv-x="494" 
d="M422 0h-80l8 38q-76 -49 -180 -49q-59 0 -79.5 41.5t-11.5 85.5q13 60 96 93.5t216 36.5l9 42q11 49 -7 79.5t-59 30.5q-85 0 -165 -52l9 71q86 44 170 44q74 0 112.5 -49t22.5 -123zM369 140l11 52q-15 0 -40 -2t-69.5 -8t-77 -23t-37.5 -41q-6 -29 17 -46.5t63 -17.5
q46 0 83 19q19 10 30 23t13.5 21t6.5 23zM514 525h-59l-70 123l-122 -123h-59l161 172h60zM252 -200h-96l21 96h96z" />
    <glyph glyph-name="Abreveacute" unicode="&#x1eae;" horiz-adv-x="687" 
d="M657 0h-99l-35 199h-297l-118 -199h-79l416 694h92zM512 258l-48 362l-201 -362h249zM715 926q-18 -79 -81 -129.5t-133 -50.5q-68 0 -109.5 50t-25.5 130h65q-9 -52 18.5 -80.5t68.5 -28.5q40 0 79.5 28.5t52.5 80.5h65zM717 1083l-223 -122h-89l201 122h111z" />
    <glyph glyph-name="abreveacute" unicode="&#x1eaf;" horiz-adv-x="494" 
d="M422 0h-80l8 38q-76 -49 -180 -49q-59 0 -79.5 41.5t-11.5 85.5q13 60 96 93.5t216 36.5l9 42q11 49 -7 79.5t-59 30.5q-85 0 -165 -52l9 71q86 44 170 44q74 0 112.5 -49t22.5 -123zM369 140l11 52q-15 0 -40 -2t-69.5 -8t-77 -23t-37.5 -41q-6 -29 17 -46.5t63 -17.5
q46 0 83 19q19 10 30 23t13.5 21t6.5 23zM570 701q-18 -79 -80.5 -129.5t-132.5 -50.5q-68 0 -110 50t-26 130h65q-9 -52 18.5 -80.5t68.5 -28.5q40 0 79.5 28.5t52.5 80.5h65zM572 858l-223 -122h-89l201 122h111z" />
    <glyph glyph-name="Abrevegrave" unicode="&#x1eb0;" horiz-adv-x="687" 
d="M657 0h-99l-35 199h-297l-118 -199h-79l416 694h92zM512 258l-48 362l-201 -362h249zM715 926q-18 -79 -81 -129.5t-133 -50.5q-68 0 -109.5 50t-25.5 130h65q-9 -52 18.5 -80.5t68.5 -28.5q40 0 79.5 28.5t52.5 80.5h65zM691 961l-149 122h-111l171 -122h89z" />
    <glyph glyph-name="abrevegrave" unicode="&#x1eb1;" horiz-adv-x="494" 
d="M422 0h-80l8 38q-76 -49 -180 -49q-59 0 -79.5 41.5t-11.5 85.5q13 60 96 93.5t216 36.5l9 42q11 49 -7 79.5t-59 30.5q-85 0 -165 -52l9 71q86 44 170 44q74 0 112.5 -49t22.5 -123zM369 140l11 52q-15 0 -40 -2t-69.5 -8t-77 -23t-37.5 -41q-6 -29 17 -46.5t63 -17.5
q46 0 83 19q19 10 30 23t13.5 21t6.5 23zM570 701q-18 -79 -80.5 -129.5t-132.5 -50.5q-68 0 -110 50t-26 130h65q-9 -52 18.5 -80.5t68.5 -28.5q40 0 79.5 28.5t52.5 80.5h65zM546 736l-149 122h-111l171 -122h89z" />
    <glyph glyph-name="Abrevehookabove" unicode="&#x1eb2;" horiz-adv-x="687" 
d="M657 0h-99l-35 199h-297l-118 -199h-79l416 694h92zM512 258l-48 362l-201 -362h249zM715 926q-18 -79 -81 -129.5t-133 -50.5q-68 0 -109.5 50t-25.5 130h65q-9 -52 18.5 -80.5t68.5 -28.5q40 0 79.5 28.5t52.5 80.5h65zM673 1076q-8 -31 -39 -51q-3 -1 -5.5 -2t-6 -3.5
t-6.5 -3.5q-31 -16 -44 -27t-17 -28l-4 -19l-1 -1h-27l-1 1l4 19q15 67 75 96q15 8 18 19q3 20 -6 29q-10 8 -40 8q-49 0 -85 -44h-1h-1l-6 42v1q46 43 102 43q51 0 75 -20q24 -22 16 -59z" />
    <glyph glyph-name="abrevehookabove" unicode="&#x1eb3;" horiz-adv-x="494" 
d="M422 0h-80l8 38q-76 -49 -180 -49q-59 0 -79.5 41.5t-11.5 85.5q13 60 96 93.5t216 36.5l9 42q11 49 -7 79.5t-59 30.5q-85 0 -165 -52l9 71q86 44 170 44q74 0 112.5 -49t22.5 -123zM369 140l11 52q-15 0 -40 -2t-69.5 -8t-77 -23t-37.5 -41q-6 -29 17 -46.5t63 -17.5
q46 0 83 19q19 10 30 23t13.5 21t6.5 23zM570 701q-18 -79 -80.5 -129.5t-132.5 -50.5q-68 0 -110 50t-26 130h65q-9 -52 18.5 -80.5t68.5 -28.5q40 0 79.5 28.5t52.5 80.5h65zM528 851q-6 -31 -39 -51l-18 -9q-30 -16 -43.5 -27t-17.5 -28l-4 -19l-1 -1h-27l-1 1l4 19
q15 67 75 96q15 7 18 19q5 20 -6 29q-9 8 -39 8q-50 0 -86 -44h-1h-1l-6 42l1 1q45 43 102 43q51 0 74 -20q24 -22 16 -59z" />
    <glyph glyph-name="Abrevetilde" unicode="&#x1eb4;" horiz-adv-x="687" 
d="M657 0h-99l-35 199h-297l-118 -199h-79l416 694h92zM512 258l-48 362l-201 -362h249zM715 926q-18 -79 -81 -129.5t-133 -50.5q-68 0 -109.5 50t-25.5 130h65q-9 -52 18.5 -80.5t68.5 -28.5q40 0 79.5 28.5t52.5 80.5h65zM749 1104q-13 -55 -50.5 -89t-77.5 -34
q-4 0 -8.5 0.5t-8.5 2t-7 2t-8 3l-7 3.5t-7 5t-6.5 4.5t-7.5 5t-7 5.5q-31 27 -57 27q-21 0 -33.5 -18t-17.5 -40h-65q13 55 50.5 89t77.5 34q4 0 8.5 -0.5t8.5 -2t7 -2t8 -3l7 -3.5t7 -5t6.5 -4.5t7.5 -5t7 -5.5q32 -27 57 -27q21 0 33.5 18t17.5 40h65z" />
    <glyph glyph-name="abrevetilde" unicode="&#x1eb5;" horiz-adv-x="494" 
d="M422 0h-80l8 38q-76 -49 -180 -49q-59 0 -79.5 41.5t-11.5 85.5q13 60 96 93.5t216 36.5l9 42q11 49 -7 79.5t-59 30.5q-85 0 -165 -52l9 71q86 44 170 44q74 0 112.5 -49t22.5 -123zM369 140l11 52q-15 0 -40 -2t-69.5 -8t-77 -23t-37.5 -41q-6 -29 17 -46.5t63 -17.5
q46 0 83 19q19 10 30 23t13.5 21t6.5 23zM570 701q-18 -79 -80.5 -129.5t-132.5 -50.5q-68 0 -110 50t-26 130h65q-9 -52 18.5 -80.5t68.5 -28.5q40 0 79.5 28.5t52.5 80.5h65zM604 879q-13 -56 -50 -89.5t-77 -33.5q-25 0 -68 31q-32 27 -57 27q-21 0 -33.5 -18.5
t-16.5 -39.5h-65q12 55 49.5 89t77.5 34q26 0 67 -31q34 -27 58 -27q37 0 50 58h65z" />
    <glyph glyph-name="Abrevedotbelow" unicode="&#x1eb6;" horiz-adv-x="687" 
d="M657 0h-99l-35 199h-297l-118 -199h-79l416 694h92zM512 258l-48 362l-201 -362h249zM715 926q-18 -79 -81 -129.5t-133 -50.5q-68 0 -109.5 50t-25.5 130h65q-9 -52 18.5 -80.5t68.5 -28.5q40 0 79.5 28.5t52.5 80.5h65zM349 -200h-96l21 96h96z" />
    <glyph glyph-name="abrevedotbelow" unicode="&#x1eb7;" horiz-adv-x="494" 
d="M422 0h-80l8 38q-76 -49 -180 -49q-59 0 -79.5 41.5t-11.5 85.5q13 60 96 93.5t216 36.5l9 42q11 49 -7 79.5t-59 30.5q-85 0 -165 -52l9 71q86 44 170 44q74 0 112.5 -49t22.5 -123zM369 140l11 52q-15 0 -40 -2t-69.5 -8t-77 -23t-37.5 -41q-6 -29 17 -46.5t63 -17.5
q46 0 83 19q19 10 30 23t13.5 21t6.5 23zM570 701q-18 -79 -80.5 -129.5t-132.5 -50.5q-68 0 -110 50t-26 130h65q-9 -52 18.5 -80.5t68.5 -28.5q40 0 79.5 28.5t52.5 80.5h65zM252 -200h-96l21 96h96z" />
    <glyph glyph-name="Edotbelow" unicode="&#x1eb8;" horiz-adv-x="617" 
d="M573 0h-478l147 691h464l-15 -70h-86l-244 2h-38l-49 -231h339l-13 -65h-339l-54 -253l282 2h100zM314 -200h-96l21 96h96z" />
    <glyph glyph-name="edotbelow" unicode="&#x1eb9;" horiz-adv-x="457" 
d="M474 219h-318q-13 -69 19.5 -117t94.5 -48q83 0 169 53l-9 -69q-87 -49 -174 -49q-94 0 -144 69t-29 168q20 96 95.5 165.5t162.5 69.5q93 0 128 -75q26 -60 5 -167zM426 278q1 36 -8.5 61t-26.5 36.5t-32.5 16t-31.5 4.5q-46 0 -87.5 -34t-65.5 -84h252zM234 -200h-96
l21 96h96z" />
    <glyph glyph-name="Ehookabove" unicode="&#x1eba;" horiz-adv-x="617" 
d="M573 0h-478l147 691h464l-15 -70h-86l-244 2h-38l-49 -231h339l-13 -65h-339l-54 -253l282 2h100zM594 871q-6 -31 -39 -51l-4 -2l-4 -2l-5 -2.5l-5 -2.5q-30 -16 -43 -27t-17 -28l-4 -19l-2 -1h-27v1l4 19q13 67 74 96q15 7 18 19q5 20 -6 29q-9 8 -39 8q-51 0 -85 -44
h-1h-1l-7 42l1 1q45 43 102 43q51 0 75 -20q23 -21 15 -59z" />
    <glyph glyph-name="ehookabove" unicode="&#x1ebb;" horiz-adv-x="457" 
d="M474 219h-318q-13 -69 19.5 -117t94.5 -48q83 0 169 53l-9 -69q-87 -49 -174 -49q-94 0 -144 69t-29 168q20 96 95.5 165.5t162.5 69.5q93 0 128 -75q26 -60 5 -167zM426 278q1 36 -8.5 61t-26.5 36.5t-32.5 16t-31.5 4.5q-46 0 -87.5 -34t-65.5 -84h252zM464 639
q-6 -31 -39 -51l-4 -2l-4 -2l-5 -2.5l-5 -2.5q-31 -16 -44 -27t-17 -28l-4 -19l-1 -1h-27l-1 1l4 19q15 67 75 96q15 7 18 19q5 20 -6 29q-10 8 -39 8q-50 0 -86 -44h-1h-1l-6 42v1q46 43 103 43q51 0 74 -20q24 -22 16 -59z" />
    <glyph glyph-name="Etilde" unicode="&#x1ebc;" horiz-adv-x="617" 
d="M573 0h-478l147 691h464l-15 -70h-86l-244 2h-38l-49 -231h339l-13 -65h-339l-54 -253l282 2h100zM661 859q-12 -55 -49.5 -89t-77.5 -34q-26 0 -67 31q-34 27 -57 27q-21 0 -33.5 -18t-17.5 -40h-65q13 56 50 89.5t77 33.5q25 0 68 -31q31 -27 57 -27q21 0 33.5 18.5
t16.5 39.5h65z" />
    <glyph glyph-name="etilde" unicode="&#x1ebd;" horiz-adv-x="457" 
d="M474 219h-318q-13 -69 19.5 -117t94.5 -48q83 0 169 53l-9 -69q-87 -49 -174 -49q-94 0 -144 69t-29 168q20 96 95.5 165.5t162.5 69.5q93 0 128 -75q26 -60 5 -167zM426 278q1 36 -8.5 61t-26.5 36.5t-32.5 16t-31.5 4.5q-46 0 -87.5 -34t-65.5 -84h252zM541 672
q-13 -56 -50 -89.5t-77 -33.5q-25 0 -68 31q-32 27 -57 27q-21 0 -33.5 -18.5t-16.5 -39.5h-65q12 55 49.5 89t77.5 34q26 0 67 -31q34 -27 58 -27q37 0 50 58h65z" />
    <glyph glyph-name="Ecircumflexacute" unicode="&#x1ebe;" horiz-adv-x="617" 
d="M573 0h-478l147 691h464l-15 -70h-86l-244 2h-38l-49 -231h339l-13 -65h-339l-54 -253l282 2h100zM621 736h-59l-76 97l-118 -97h-59l155 134h60zM670 1027l-223 -122h-89l201 122h111z" />
    <glyph glyph-name="ecircumflexacute" unicode="&#x1ebf;" horiz-adv-x="457" 
d="M474 219h-318q-13 -69 19.5 -117t94.5 -48q83 0 169 53l-9 -69q-87 -49 -174 -49q-94 0 -144 69t-29 168q20 96 95.5 165.5t162.5 69.5q93 0 128 -75q26 -60 5 -167zM426 278q1 36 -8.5 61t-26.5 36.5t-32.5 16t-31.5 4.5q-46 0 -87.5 -34t-65.5 -84h252zM496 525h-59
l-77 97l-117 -97h-59l154 134h60zM544 816l-222 -122h-89l200 122h111z" />
    <glyph glyph-name="Ecircumflexgrave" unicode="&#x1ec0;" horiz-adv-x="617" 
d="M573 0h-478l147 691h464l-15 -70h-86l-244 2h-38l-49 -231h339l-13 -65h-339l-54 -253l282 2h100zM621 736h-59l-76 97l-118 -97h-59l155 134h60zM644 905l-149 122h-111l171 -122h89z" />
    <glyph glyph-name="ecircumflexgrave" unicode="&#x1ec1;" horiz-adv-x="457" 
d="M474 219h-318q-13 -69 19.5 -117t94.5 -48q83 0 169 53l-9 -69q-87 -49 -174 -49q-94 0 -144 69t-29 168q20 96 95.5 165.5t162.5 69.5q93 0 128 -75q26 -60 5 -167zM426 278q1 36 -8.5 61t-26.5 36.5t-32.5 16t-31.5 4.5q-46 0 -87.5 -34t-65.5 -84h252zM496 525h-59
l-77 97l-117 -97h-59l154 134h60zM519 694l-150 122h-111l172 -122h89z" />
    <glyph glyph-name="Ecircumflexhookabove" unicode="&#x1ec2;" horiz-adv-x="617" 
d="M573 0h-478l147 691h464l-15 -70h-86l-244 2h-38l-49 -231h339l-13 -65h-339l-54 -253l282 2h100zM621 736h-59l-76 97l-118 -97h-59l155 134h60zM726 1020q-8 -31 -39 -51l-18 -9q-31 -16 -44 -27t-17 -28l-4 -19l-1 -1h-27l-1 1l4 19q15 67 75 96q15 8 18 19
q3 21 -6 29q-10 8 -39 8q-50 0 -86 -44h-1h-1l-6 42v1q46 43 102 43q51 0 75 -20q24 -22 16 -59z" />
    <glyph glyph-name="ecircumflexhookabove" unicode="&#x1ec3;" horiz-adv-x="457" 
d="M474 219h-318q-13 -69 19.5 -117t94.5 -48q83 0 169 53l-9 -69q-87 -49 -174 -49q-94 0 -144 69t-29 168q20 96 95.5 165.5t162.5 69.5q93 0 128 -75q26 -60 5 -167zM426 278q1 36 -8.5 61t-26.5 36.5t-32.5 16t-31.5 4.5q-46 0 -87.5 -34t-65.5 -84h252zM496 525h-59
l-77 97l-117 -97h-59l154 134h60zM600 809q-6 -31 -39 -51l-4 -2l-4 -2l-5 -2.5l-5 -2.5q-30 -16 -43 -27t-17 -28l-5 -19l-1 -1h-27l-1 1l5 19q13 67 74 96q15 7 18 19q5 20 -6 29q-9 8 -39 8q-50 0 -86 -44h-1h-1l-6 42l1 1q45 43 102 43q51 0 74 -20q24 -21 16 -59z" />
    <glyph glyph-name="Ecircumflextilde" unicode="&#x1ec4;" horiz-adv-x="617" 
d="M573 0h-478l147 691h464l-15 -70h-86l-244 2h-38l-49 -231h339l-13 -65h-339l-54 -253l282 2h100zM621 736h-59l-76 97l-118 -97h-59l155 134h60zM703 1048q-13 -55 -50.5 -89t-77.5 -34q-4 0 -8.5 0.5t-8.5 2t-7 2t-8 3l-7 3.5t-7 5t-6.5 4.5t-7.5 5t-7 5.5
q-32 27 -57 27q-21 0 -33.5 -18t-17.5 -40h-65q13 55 50.5 89t77.5 34q4 0 8.5 -0.5t8.5 -2t7 -2t8 -3l7 -3.5t7 -5t6.5 -4.5t7.5 -5t7 -5.5q32 -27 57 -27q21 0 33.5 18t17.5 40h65z" />
    <glyph glyph-name="ecircumflextilde" unicode="&#x1ec5;" horiz-adv-x="457" 
d="M474 219h-318q-13 -69 19.5 -117t94.5 -48q83 0 169 53l-9 -69q-87 -49 -174 -49q-94 0 -144 69t-29 168q20 96 95.5 165.5t162.5 69.5q93 0 128 -75q26 -60 5 -167zM426 278q1 36 -8.5 61t-26.5 36.5t-32.5 16t-31.5 4.5q-46 0 -87.5 -34t-65.5 -84h252zM496 525h-59
l-77 97l-117 -97h-59l154 134h60zM577 837q-12 -55 -49.5 -89t-77.5 -34q-25 0 -68 31q-32 27 -57 27q-21 0 -33.5 -18.5t-16.5 -39.5h-65q12 55 49.5 89t77.5 34q26 0 67 -31q34 -27 58 -27q37 0 50 58h65z" />
    <glyph glyph-name="Ecircumflexdotbelow" unicode="&#x1ec6;" horiz-adv-x="617" 
d="M573 0h-478l147 691h464l-15 -70h-86l-244 2h-38l-49 -231h339l-13 -65h-339l-54 -253l282 2h100zM621 736h-59l-76 97l-118 -97h-59l155 134h60zM314 -200h-96l21 96h96z" />
    <glyph glyph-name="ecircumflexdotbelow" unicode="&#x1ec7;" horiz-adv-x="457" 
d="M474 219h-318q-13 -69 19.5 -117t94.5 -48q83 0 169 53l-9 -69q-87 -49 -174 -49q-94 0 -144 69t-29 168q20 96 95.5 165.5t162.5 69.5q93 0 128 -75q26 -60 5 -167zM426 278q1 36 -8.5 61t-26.5 36.5t-32.5 16t-31.5 4.5q-46 0 -87.5 -34t-65.5 -84h252zM495 525h-59
l-70 123l-122 -123h-59l161 172h60zM234 -200h-96l21 96h96z" />
    <glyph glyph-name="Ihookabove" unicode="&#x1ec8;" horiz-adv-x="287" 
d="M191 0h-96l148 694h96zM429 871q-6 -31 -39 -51l-4 -2l-4 -2l-5 -2.5l-5 -2.5q-30 -16 -43 -27t-17 -28l-4 -19l-2 -1h-27v1l4 19q13 67 74 96q15 7 18 19q5 20 -6 29q-9 8 -39 8q-51 0 -85 -44h-1h-1l-7 42l1 1q45 43 102 43q51 0 75 -20q23 -21 15 -59z" />
    <glyph glyph-name="ihookabove" unicode="&#x1ec9;" horiz-adv-x="245" 
d="M162 0h-80l94 444h80zM359 639q-6 -31 -39 -51l-4 -2l-4 -2l-5 -2.5l-5 -2.5q-31 -16 -44 -27t-17 -28l-4 -19l-1 -1h-27l-1 1l4 19q15 67 75 96q15 7 18 19q5 20 -6 29q-10 8 -39 8q-50 0 -86 -44h-1h-1l-6 42v1q46 43 103 43q51 0 74 -20q24 -22 16 -59z" />
    <glyph glyph-name="Idotbelow" unicode="&#x1eca;" horiz-adv-x="287" 
d="M191 0h-96l148 694h96zM149 -200h-96l21 96h96z" />
    <glyph glyph-name="idotbelow" unicode="&#x1ecb;" horiz-adv-x="245" 
d="M162 0h-80l94 444h80zM291 563h-96l20 96h96zM128 -200h-96l21 96h96z" />
    <glyph glyph-name="Odotbelow" unicode="&#x1ecc;" horiz-adv-x="759" 
d="M774 344q-33 -154 -150.5 -260t-249.5 -106q-131 0 -204 106t-40 260q33 156 151.5 264t249.5 108t203.5 -108t39.5 -264zM681 359q28 130 -22.5 209.5t-141.5 79.5t-175.5 -79t-112.5 -210q-29 -137 19.5 -224t140.5 -87t177.5 87t114.5 224zM385 -200h-96l21 96h96z
" />
    <glyph glyph-name="odotbelow" unicode="&#x1ecd;" 
d="M530 220q-21 -97 -101.5 -164t-174.5 -67q-92 0 -145 66.5t-32 164.5q21 100 102.5 170.5t174.5 70.5q95 0 146 -71t30 -170zM449 230q17 81 -16.5 123.5t-92.5 42.5q-57 0 -109 -42t-69 -124q-17 -81 14.5 -127t92.5 -46q59 0 110.5 45.5t69.5 127.5zM262 -200h-96
l21 96h96z" />
    <glyph glyph-name="Ohookabove" unicode="&#x1ece;" horiz-adv-x="759" 
d="M774 344q-33 -154 -150.5 -260t-249.5 -106q-131 0 -204 106t-40 260q33 156 151.5 264t249.5 108t203.5 -108t39.5 -264zM681 359q28 130 -22.5 209.5t-141.5 79.5t-175.5 -79t-112.5 -210q-29 -137 19.5 -224t140.5 -87t177.5 87t114.5 224zM665 871q-6 -31 -39 -51
l-4 -2l-4 -2l-5 -2.5l-5 -2.5q-30 -16 -43 -27t-17 -28l-4 -19l-2 -1h-27v1l4 19q13 67 74 96q15 7 18 19q5 20 -6 29q-9 8 -39 8q-51 0 -85 -44h-1h-1l-7 42l1 1q45 43 102 43q51 0 75 -20q23 -21 15 -59z" />
    <glyph glyph-name="ohookabove" unicode="&#x1ecf;" 
d="M530 220q-21 -97 -101.5 -164t-174.5 -67q-92 0 -145 66.5t-32 164.5q21 100 102.5 170.5t174.5 70.5q95 0 146 -71t30 -170zM449 230q17 81 -16.5 123.5t-92.5 42.5q-57 0 -109 -42t-69 -124q-17 -81 14.5 -127t92.5 -46q59 0 110.5 45.5t69.5 127.5zM493 639
q-6 -31 -39 -51l-18 -9q-31 -16 -44 -27t-17 -28l-4 -19l-1 -1h-27l-1 1l4 19q15 67 75 96q15 7 18 19q5 20 -6 29q-10 8 -39 8q-50 0 -86 -44h-1h-1l-6 42v1q46 43 103 43q51 0 74 -20q24 -22 16 -59z" />
    <glyph glyph-name="Ocircumflexacute" unicode="&#x1ed0;" horiz-adv-x="759" 
d="M774 344q-33 -154 -150.5 -260t-249.5 -106q-131 0 -204 106t-40 260q33 156 151.5 264t249.5 108t203.5 -108t39.5 -264zM681 359q28 130 -22.5 209.5t-141.5 79.5t-175.5 -79t-112.5 -210q-29 -137 19.5 -224t140.5 -87t177.5 87t114.5 224zM692 736h-59l-76 97
l-118 -97h-59l155 134h60zM741 1027l-223 -122h-89l201 122h111z" />
    <glyph glyph-name="ocircumflexacute" unicode="&#x1ed1;" 
d="M530 220q-21 -97 -101.5 -164t-174.5 -67q-92 0 -145 66.5t-32 164.5q21 100 102.5 170.5t174.5 70.5q95 0 146 -71t30 -170zM449 230q17 81 -16.5 123.5t-92.5 42.5q-57 0 -109 -42t-69 -124q-17 -81 14.5 -127t92.5 -46q59 0 110.5 45.5t69.5 127.5zM525 525h-59
l-77 97l-117 -97h-59l154 134h60zM573 816l-222 -122h-89l200 122h111z" />
    <glyph glyph-name="Ocircumflexgrave" unicode="&#x1ed2;" horiz-adv-x="759" 
d="M774 344q-33 -154 -150.5 -260t-249.5 -106q-131 0 -204 106t-40 260q33 156 151.5 264t249.5 108t203.5 -108t39.5 -264zM681 359q28 130 -22.5 209.5t-141.5 79.5t-175.5 -79t-112.5 -210q-29 -137 19.5 -224t140.5 -87t177.5 87t114.5 224zM692 736h-59l-76 97
l-118 -97h-59l155 134h60zM715 905l-149 122h-111l171 -122h89z" />
    <glyph glyph-name="ocircumflexgrave" unicode="&#x1ed3;" 
d="M530 220q-21 -97 -101.5 -164t-174.5 -67q-92 0 -145 66.5t-32 164.5q21 100 102.5 170.5t174.5 70.5q95 0 146 -71t30 -170zM449 230q17 81 -16.5 123.5t-92.5 42.5q-57 0 -109 -42t-69 -124q-17 -81 14.5 -127t92.5 -46q59 0 110.5 45.5t69.5 127.5zM525 525h-59
l-77 97l-117 -97h-59l154 134h60zM548 694l-150 122h-111l172 -122h89z" />
    <glyph glyph-name="Ocircumflexhookabove" unicode="&#x1ed4;" horiz-adv-x="759" 
d="M774 344q-33 -154 -150.5 -260t-249.5 -106q-131 0 -204 106t-40 260q33 156 151.5 264t249.5 108t203.5 -108t39.5 -264zM681 359q28 130 -22.5 209.5t-141.5 79.5t-175.5 -79t-112.5 -210q-29 -137 19.5 -224t140.5 -87t177.5 87t114.5 224zM692 736h-59l-76 97
l-118 -97h-59l155 134h60zM797 1020q-8 -31 -39 -51q-3 -1 -5.5 -2t-6 -3.5t-6.5 -3.5q-31 -16 -44 -27t-17 -28l-4 -19l-1 -1h-27l-1 1l4 19q15 67 75 96q15 8 18 19q3 21 -6 29q-10 8 -39 8q-50 0 -86 -44h-1h-1l-6 42v1q46 43 102 43q51 0 75 -20q24 -22 16 -59z" />
    <glyph glyph-name="ocircumflexhookabove" unicode="&#x1ed5;" 
d="M530 220q-21 -97 -101.5 -164t-174.5 -67q-92 0 -145 66.5t-32 164.5q21 100 102.5 170.5t174.5 70.5q95 0 146 -71t30 -170zM449 230q17 81 -16.5 123.5t-92.5 42.5q-57 0 -109 -42t-69 -124q-17 -81 14.5 -127t92.5 -46q59 0 110.5 45.5t69.5 127.5zM525 525h-59
l-77 97l-117 -97h-59l154 134h60zM629 809q-6 -31 -39 -51l-4 -2l-4 -2l-5 -2.5l-5 -2.5q-30 -16 -43 -27t-17 -28l-5 -19l-1 -1h-27l-1 1l5 19q13 67 74 96q15 7 18 19q5 20 -6 29q-9 8 -39 8q-50 0 -86 -44h-1h-1l-6 42l1 1q45 43 102 43q51 0 74 -20q24 -21 16 -59z" />
    <glyph glyph-name="Ocircumflextilde" unicode="&#x1ed6;" horiz-adv-x="759" 
d="M774 344q-33 -154 -150.5 -260t-249.5 -106q-131 0 -204 106t-40 260q33 156 151.5 264t249.5 108t203.5 -108t39.5 -264zM681 359q28 130 -22.5 209.5t-141.5 79.5t-175.5 -79t-112.5 -210q-29 -137 19.5 -224t140.5 -87t177.5 87t114.5 224zM692 736h-59l-76 97
l-118 -97h-59l155 134h60zM774 1048q-13 -55 -50.5 -89t-77.5 -34q-4 0 -8.5 0.5t-8.5 2t-7 2t-8 3l-7 3.5t-7 5t-6.5 4.5t-7.5 5t-7 5.5q-31 27 -57 27q-21 0 -33.5 -18t-17.5 -40h-65q13 55 50.5 89t77.5 34q4 0 8.5 -0.5t8.5 -2t7 -2t8 -3l7 -3.5t7 -5t6.5 -4.5t7.5 -5
t7 -5.5q31 -27 57 -27q21 0 33.5 18t17.5 40h65z" />
    <glyph glyph-name="ocircumflextilde" unicode="&#x1ed7;" 
d="M530 220q-21 -97 -101.5 -164t-174.5 -67q-92 0 -145 66.5t-32 164.5q21 100 102.5 170.5t174.5 70.5q95 0 146 -71t30 -170zM449 230q17 81 -16.5 123.5t-92.5 42.5q-57 0 -109 -42t-69 -124q-17 -81 14.5 -127t92.5 -46q59 0 110.5 45.5t69.5 127.5zM525 525h-59
l-77 97l-117 -97h-59l154 134h60zM606 837q-12 -55 -49.5 -89t-77.5 -34q-25 0 -68 31q-32 27 -57 27q-21 0 -33.5 -18.5t-16.5 -39.5h-65q12 55 49.5 89t77.5 34q26 0 67 -31q34 -27 58 -27q37 0 50 58h65z" />
    <glyph glyph-name="Ocircumflexdotbelow" unicode="&#x1ed8;" horiz-adv-x="759" 
d="M774 344q-33 -154 -150.5 -260t-249.5 -106q-131 0 -204 106t-40 260q33 156 151.5 264t249.5 108t203.5 -108t39.5 -264zM681 359q28 130 -22.5 209.5t-141.5 79.5t-175.5 -79t-112.5 -210q-29 -137 19.5 -224t140.5 -87t177.5 87t114.5 224zM692 736h-59l-76 97
l-118 -97h-59l155 134h60zM385 -200h-96l21 96h96z" />
    <glyph glyph-name="ocircumflexdotbelow" unicode="&#x1ed9;" 
d="M530 220q-21 -97 -101.5 -164t-174.5 -67q-92 0 -145 66.5t-32 164.5q21 100 102.5 170.5t174.5 70.5q95 0 146 -71t30 -170zM449 230q17 81 -16.5 123.5t-92.5 42.5q-57 0 -109 -42t-69 -124q-17 -81 14.5 -127t92.5 -46q59 0 110.5 45.5t69.5 127.5zM524 525h-59
l-70 123l-122 -123h-59l161 172h60zM262 -200h-96l21 96h96z" />
    <glyph glyph-name="Ohornacute" unicode="&#x1eda;" horiz-adv-x="759" 
d="M773 344q-31 -149 -149 -259q-119 -107 -251 -107q-64 0 -117 28.5t-87 78.5q-71 108 -39 259q34 154 150 263q117 109 250 109q85 0 151 -50l37 28h-23l-1 1l18 85l1 1h84l1 -1l-18 -85l-76 -50q16 -15 31 -38q72 -109 38 -263zM681 361q25 123 -21 204q-48 83 -144 83
t-179 -83q-82 -84 -107 -204q-29 -134 16 -223q21 -41 58 -65.5t84 -24.5q98 0 181 90q83 89 112 223zM726 868l-223 -122h-89l201 122h111z" />
    <glyph glyph-name="ohornacute" unicode="&#x1edb;" 
d="M580 445l-83 -53l2 -2q51 -71 30 -171q-20 -94 -101 -162t-174 -68q-94 0 -146 68q-52 66 -32 162q21 101 103 171q81 71 175 71q73 0 123 -47l40 30h-24v1l18 85l1 1h85l1 -1zM449 231q15 73 -14 119t-94 46q-63 0 -114 -46q-48 -44 -64 -119q-16 -79 12 -126
q29 -48 94 -48q64 0 114 48t66 126zM521 694l-188 -167h-65l170 167h83z" />
    <glyph glyph-name="Ohorngrave" unicode="&#x1edc;" horiz-adv-x="759" 
d="M773 344q-31 -149 -149 -259q-119 -107 -251 -107q-64 0 -117 28.5t-87 78.5q-71 108 -39 259q34 154 150 263q117 109 250 109q85 0 151 -50l37 28h-23l-1 1l18 85l1 1h84l1 -1l-18 -85l-76 -50q16 -15 31 -38q72 -109 38 -263zM681 361q25 123 -21 204q-48 83 -144 83
t-179 -83q-82 -84 -107 -204q-29 -134 16 -223q21 -41 58 -65.5t84 -24.5q98 0 181 90q83 89 112 223zM633 746h-89l-171 122h111z" />
    <glyph glyph-name="ohorngrave" unicode="&#x1edd;" 
d="M580 445l-83 -53l2 -2q51 -71 30 -171q-20 -94 -101 -162t-174 -68q-94 0 -146 68q-52 66 -32 162q21 101 103 171q81 71 175 71q73 0 123 -47l40 30h-24v1l18 85l1 1h85l1 -1zM449 231q15 73 -14 119t-94 46q-63 0 -114 -46q-48 -44 -64 -119q-16 -79 12 -126
q29 -48 94 -48q64 0 114 48t66 126zM441 527h-65l-116 167h83z" />
    <glyph glyph-name="Ohornhookabove" unicode="&#x1ede;" horiz-adv-x="759" 
d="M773 344q-31 -149 -149 -259q-119 -107 -251 -107q-64 0 -117 28.5t-87 78.5q-71 108 -39 259q34 154 150 263q117 109 250 109q85 0 151 -50l37 28h-23l-1 1l18 85l1 1h84l1 -1l-18 -85l-76 -50q16 -15 31 -38q72 -109 38 -263zM681 361q25 123 -21 204q-48 83 -144 83
t-179 -83q-82 -84 -107 -204q-29 -134 16 -223q21 -41 58 -65.5t84 -24.5q98 0 181 90q83 89 112 223zM665 871q-6 -31 -39 -51l-4 -2l-4 -2l-5 -2.5l-5 -2.5q-30 -16 -43 -27t-17 -28l-4 -19l-2 -1h-27v1l4 19q13 67 74 96q15 7 18 19q5 20 -6 29q-9 8 -39 8q-51 0 -85 -44
h-1h-1l-7 42l1 1q45 43 102 43q51 0 75 -20q23 -21 15 -59z" />
    <glyph glyph-name="ohornhookabove" unicode="&#x1edf;" 
d="M580 445l-83 -53l2 -2q51 -71 30 -171q-20 -94 -101 -162t-174 -68q-94 0 -146 68q-52 66 -32 162q21 101 103 171q81 71 175 71q73 0 123 -47l40 30h-24v1l18 85l1 1h85l1 -1zM449 231q15 73 -14 119t-94 46q-63 0 -114 -46q-48 -44 -64 -119q-16 -79 12 -126
q29 -48 94 -48q64 0 114 48t66 126zM493 639q-6 -31 -39 -51l-18 -9q-31 -16 -44 -27t-17 -28l-4 -19l-1 -1h-27l-1 1l4 19q15 67 75 96q15 7 18 19q5 20 -6 29q-10 8 -39 8q-50 0 -86 -44h-1h-1l-6 42v1q46 43 103 43q51 0 74 -20q24 -22 16 -59z" />
    <glyph glyph-name="Ohorntilde" unicode="&#x1ee0;" horiz-adv-x="759" 
d="M773 344q-31 -149 -149 -259q-119 -107 -251 -107q-64 0 -117 28.5t-87 78.5q-71 108 -39 259q34 154 150 263q117 109 250 109q85 0 151 -50l37 28h-23l-1 1l18 85l1 1h84l1 -1l-18 -85l-76 -50q16 -15 31 -38q72 -109 38 -263zM681 361q25 123 -21 204q-48 83 -144 83
t-179 -83q-82 -84 -107 -204q-29 -134 16 -223q21 -41 58 -65.5t84 -24.5q98 0 181 90q83 89 112 223zM732 859q-12 -55 -49.5 -89t-77.5 -34q-26 0 -67 31q-34 27 -57 27q-21 0 -33.5 -18t-17.5 -40h-65q13 56 50 89.5t77 33.5q25 0 68 -31q32 -27 57 -27q21 0 33.5 18.5
t16.5 39.5h65z" />
    <glyph glyph-name="ohorntilde" unicode="&#x1ee1;" 
d="M580 445l-83 -53l2 -2q51 -71 30 -171q-20 -94 -101 -162t-174 -68q-94 0 -146 68q-52 66 -32 162q21 101 103 171q81 71 175 71q73 0 123 -47l40 30h-24v1l18 85l1 1h85l1 -1zM449 231q15 73 -14 119t-94 46q-63 0 -114 -46q-48 -44 -64 -119q-16 -79 12 -126
q29 -48 94 -48q64 0 114 48t66 126zM570 672q-13 -56 -50 -89.5t-77 -33.5q-25 0 -68 31q-32 27 -57 27q-21 0 -33.5 -18.5t-16.5 -39.5h-65q12 55 49.5 89t77.5 34q26 0 67 -31q34 -27 58 -27q37 0 50 58h65z" />
    <glyph glyph-name="Ohorndotbelow" unicode="&#x1ee2;" horiz-adv-x="759" 
d="M773 344q-31 -149 -149 -259q-119 -107 -251 -107q-64 0 -117 28.5t-87 78.5q-71 108 -39 259q34 154 150 263q117 109 250 109q85 0 151 -50l37 28h-23l-1 1l18 85l1 1h84l1 -1l-18 -85l-76 -50q16 -15 31 -38q72 -109 38 -263zM681 361q25 123 -21 204q-48 83 -144 83
t-179 -83q-82 -84 -107 -204q-29 -134 16 -223q21 -41 58 -65.5t84 -24.5q98 0 181 90q83 89 112 223zM385 -200h-96l21 96h96z" />
    <glyph glyph-name="ohorndotbelow" unicode="&#x1ee3;" 
d="M580 445l-83 -53l2 -2q51 -71 30 -171q-20 -94 -101 -162t-174 -68q-94 0 -146 68q-52 66 -32 162q21 101 103 171q81 71 175 71q73 0 123 -47l40 30h-24v1l18 85l1 1h85l1 -1zM449 231q15 73 -14 119t-94 46q-63 0 -114 -46q-48 -44 -64 -119q-16 -79 12 -126
q29 -48 94 -48q64 0 114 48t66 126zM262 -200h-96l21 96h96z" />
    <glyph glyph-name="Udotbelow" unicode="&#x1ee4;" horiz-adv-x="707" 
d="M661 233q-23 -108 -114 -181.5t-196 -73.5q-106 0 -168 73.5t-38 182.5l98 460h96l-99 -462q-20 -94 18.5 -144.5t106.5 -50.5q69 0 131 51t82 145l98 461h83zM359 -200h-96l21 96h96z" />
    <glyph glyph-name="udotbelow" unicode="&#x1ee5;" horiz-adv-x="531" 
d="M449 0h-80l10 48q-79 -59 -195 -59q-54 0 -73.5 28.5t-6.5 91.5l71 335h83l-70 -330q-8 -36 3.5 -51t61.5 -15q51 0 92.5 26t53.5 81l61 289h83zM271 -200h-96l21 96h96z" />
    <glyph glyph-name="Uhookabove" unicode="&#x1ee6;" horiz-adv-x="707" 
d="M661 233q-23 -108 -114 -181.5t-196 -73.5q-106 0 -168 73.5t-38 182.5l98 460h96l-99 -462q-20 -94 18.5 -144.5t106.5 -50.5q69 0 131 51t82 145l98 461h83zM639 871q-6 -31 -39 -51l-4 -2l-4 -2l-5 -2.5l-5 -2.5q-30 -16 -43 -27t-17 -28l-4 -19l-2 -1h-27v1l4 19
q13 67 74 96q15 7 18 19q5 20 -6 29q-9 8 -39 8q-51 0 -85 -44h-1h-1l-7 42l1 1q45 43 102 43q51 0 75 -20q23 -21 15 -59z" />
    <glyph glyph-name="uhookabove" unicode="&#x1ee7;" horiz-adv-x="531" 
d="M449 0h-80l10 48q-79 -59 -195 -59q-54 0 -73.5 28.5t-6.5 91.5l71 335h83l-70 -330q-8 -36 3.5 -51t61.5 -15q51 0 92.5 26t53.5 81l61 289h83zM501 639q-6 -31 -39 -51l-18 -9q-31 -16 -44 -27t-17 -28l-4 -19l-1 -1h-27l-1 1l4 19q15 67 75 96q15 7 18 19q5 20 -6 29
q-10 8 -39 8q-50 0 -86 -44h-1h-1l-6 42v1q46 43 103 43q51 0 74 -20q24 -22 16 -59z" />
    <glyph glyph-name="Uhornacute" unicode="&#x1ee8;" horiz-adv-x="707" 
d="M860 695l-1 -1l-118 -73l-83 -390q-22 -103 -112 -178q-91 -75 -196 -75q-106 0 -168 75q-60 74 -38 178l99 463h96l-99 -463q-19 -86 16 -139q33 -55 107 -55q76 0 136 55q57 53 76 139l99 463h83l-7 -32l47 32h-23l-1 1l18 85l1 1h85l1 -1zM700 868l-223 -122h-89
l201 122h111z" />
    <glyph glyph-name="uhornacute" unicode="&#x1ee9;" horiz-adv-x="531" 
d="M646 445l-119 -74l-79 -371h-80l10 47q-80 -58 -196 -58q-52 0 -72 29q-20 30 -7 92l71 334h84l-71 -334q-8 -38 7 -49q13 -13 66 -13q47 0 87 28.5t49 69.5l63 298h83l-7 -33l47 33h-23v1l18 85l1 1h85l1 -1zM530 694l-188 -167h-65l170 167h83z" />
    <glyph glyph-name="Uhorngrave" unicode="&#x1eea;" horiz-adv-x="707" 
d="M860 695l-1 -1l-118 -73l-83 -390q-22 -103 -112 -178q-91 -75 -196 -75q-106 0 -168 75q-60 74 -38 178l99 463h96l-99 -463q-19 -86 16 -139q33 -55 107 -55q76 0 136 55q57 53 76 139l99 463h83l-7 -32l47 32h-23l-1 1l18 85l1 1h85l1 -1zM607 746h-89l-171 122h111z
" />
    <glyph glyph-name="uhorngrave" unicode="&#x1eeb;" horiz-adv-x="531" 
d="M646 445l-119 -74l-79 -371h-80l10 47q-80 -58 -196 -58q-52 0 -72 29q-20 30 -7 92l71 334h84l-71 -334q-8 -38 7 -49q13 -13 66 -13q47 0 87 28.5t49 69.5l63 298h83l-7 -33l47 33h-23v1l18 85l1 1h85l1 -1zM449 527h-65l-116 167h83z" />
    <glyph glyph-name="Uhornhookabove" unicode="&#x1eec;" horiz-adv-x="707" 
d="M860 695l-1 -1l-118 -73l-83 -390q-22 -103 -112 -178q-91 -75 -196 -75q-106 0 -168 75q-60 74 -38 178l99 463h96l-99 -463q-19 -86 16 -139q33 -55 107 -55q76 0 136 55q57 53 76 139l99 463h83l-7 -32l47 32h-23l-1 1l18 85l1 1h85l1 -1zM639 871q-6 -31 -39 -51
l-4 -2l-4 -2l-5 -2.5l-5 -2.5q-30 -16 -43 -27t-17 -28l-4 -19l-2 -1h-27v1l4 19q13 67 74 96q15 7 18 19q5 20 -6 29q-9 8 -39 8q-51 0 -85 -44h-1h-1l-7 42l1 1q45 43 102 43q51 0 75 -20q23 -21 15 -59z" />
    <glyph glyph-name="uhornhookabove" unicode="&#x1eed;" horiz-adv-x="531" 
d="M646 445l-119 -74l-79 -371h-80l10 47q-80 -58 -196 -58q-52 0 -72 29q-20 30 -7 92l71 334h84l-71 -334q-8 -38 7 -49q13 -13 66 -13q47 0 87 28.5t49 69.5l63 298h83l-7 -33l47 33h-23v1l18 85l1 1h85l1 -1zM501 639q-6 -31 -39 -51l-18 -9q-31 -16 -44 -27t-17 -28
l-4 -19l-1 -1h-27l-1 1l4 19q15 67 75 96q15 7 18 19q5 20 -6 29q-10 8 -39 8q-50 0 -86 -44h-1h-1l-6 42v1q46 43 103 43q51 0 74 -20q24 -22 16 -59z" />
    <glyph glyph-name="Uhorntilde" unicode="&#x1eee;" horiz-adv-x="707" 
d="M860 695l-1 -1l-118 -73l-83 -390q-22 -103 -112 -178q-91 -75 -196 -75q-106 0 -168 75q-60 74 -38 178l99 463h96l-99 -463q-19 -86 16 -139q33 -55 107 -55q76 0 136 55q57 53 76 139l99 463h83l-7 -32l47 32h-23l-1 1l18 85l1 1h85l1 -1zM706 859q-12 -55 -49.5 -89
t-77.5 -34q-26 0 -67 31q-34 27 -57 27q-21 0 -33.5 -18t-17.5 -40h-65q13 56 50 89.5t77 33.5q25 0 68 -31q32 -27 57 -27q21 0 33.5 18.5t16.5 39.5h65z" />
    <glyph glyph-name="uhorntilde" unicode="&#x1eef;" horiz-adv-x="531" 
d="M646 445l-119 -74l-79 -371h-80l10 47q-80 -58 -196 -58q-52 0 -72 29q-20 30 -7 92l71 334h84l-71 -334q-8 -38 7 -49q13 -13 66 -13q47 0 87 28.5t49 69.5l63 298h83l-7 -33l47 33h-23v1l18 85l1 1h85l1 -1zM578 672q-13 -56 -50 -89.5t-77 -33.5q-25 0 -68 31
q-32 27 -57 27q-21 0 -33.5 -18.5t-16.5 -39.5h-65q12 55 49.5 89t77.5 34q26 0 67 -31q34 -27 58 -27q37 0 50 58h65z" />
    <glyph glyph-name="Uhorndotbelow" unicode="&#x1ef0;" horiz-adv-x="707" 
d="M860 695l-1 -1l-118 -73l-83 -390q-22 -103 -112 -178q-91 -75 -196 -75q-106 0 -168 75q-60 74 -38 178l99 463h96l-99 -463q-19 -86 16 -139q33 -55 107 -55q76 0 136 55q57 53 76 139l99 463h83l-7 -32l47 32h-23l-1 1l18 85l1 1h85l1 -1zM359 -200h-96l21 96h96z" />
    <glyph glyph-name="uhorndotbelow" unicode="&#x1ef1;" horiz-adv-x="531" 
d="M646 445l-119 -74l-79 -371h-80l10 47q-80 -58 -196 -58q-52 0 -72 29q-20 30 -7 92l71 334h84l-71 -334q-8 -38 7 -49q13 -13 66 -13q47 0 87 28.5t49 69.5l63 298h83l-7 -33l47 33h-23v1l18 85l1 1h85l1 -1zM271 -200h-96l21 96h96z" />
    <glyph glyph-name="Ygrave" unicode="&#x1ef2;" horiz-adv-x="687" 
d="M831 694l-382 -416l-59 -278h-93l59 278l-205 416h114l119 -244l44 -97l93 105l216 236h94zM597 746h-89l-171 122h111z" />
    <glyph glyph-name="ygrave" unicode="&#x1ef3;" horiz-adv-x="474" 
d="M553 444l-334 -530q-27 -42 -50 -68.5t-42 -36t-29 -12t-25 -2.5q-48 0 -72 8l9 69q35 -17 77 -17q10 0 16.5 2t21.5 15t33 39l56 89l-106 444h84q37 -165 45 -207q27 -128 20 -178q9 33 43.5 97.5t66.5 115.5t107 172h79zM421 527h-65l-116 167h83z" />
    <glyph glyph-name="Ydotbelow" unicode="&#x1ef4;" horiz-adv-x="687" 
d="M831 694l-382 -416l-59 -278h-93l59 278l-205 416h114l119 -244l44 -97l93 105l216 236h94zM349 -200h-96l21 96h96z" />
    <glyph glyph-name="ydotbelow" unicode="&#x1ef5;" horiz-adv-x="474" 
d="M553 444l-334 -530q-27 -42 -50 -68.5t-42 -36t-29 -12t-25 -2.5q-48 0 -72 8l9 69q35 -17 77 -17q10 0 16.5 2t21.5 15t33 39l56 89l-106 444h84q37 -165 45 -207q27 -128 20 -178q9 33 43.5 97.5t66.5 115.5t107 172h79zM360 -200h-96l21 96h96z" />
    <glyph glyph-name="Yhookabove" unicode="&#x1ef6;" horiz-adv-x="687" 
d="M831 694l-382 -416l-59 -278h-93l59 278l-205 416h114l119 -244l44 -97l93 105l216 236h94zM629 871q-6 -31 -39 -51l-4 -2l-4 -2l-5 -2.5l-5 -2.5q-30 -16 -43 -27t-17 -28l-4 -19l-2 -1h-27v1l4 19q13 67 74 96q15 7 18 19q5 20 -6 29q-9 8 -39 8q-51 0 -85 -44h-1h-1
l-7 42l1 1q45 43 102 43q51 0 75 -20q23 -21 15 -59z" />
    <glyph glyph-name="yhookabove" unicode="&#x1ef7;" horiz-adv-x="474" 
d="M553 444l-334 -530q-27 -42 -50 -68.5t-42 -36t-29 -12t-25 -2.5q-48 0 -72 8l9 69q35 -17 77 -17q10 0 16.5 2t21.5 15t33 39l56 89l-106 444h84q37 -165 45 -207q27 -128 20 -178q9 33 43.5 97.5t66.5 115.5t107 172h79zM473 639q-6 -31 -39 -51l-18 -9
q-31 -16 -44 -27t-17 -28l-4 -19l-1 -1h-27l-1 1l4 19q15 67 75 96q15 7 18 19q5 20 -6 29q-10 8 -39 8q-50 0 -86 -44h-1h-1l-6 42v1q46 43 103 43q51 0 74 -20q24 -22 16 -59z" />
    <glyph glyph-name="Ytilde" unicode="&#x1ef8;" horiz-adv-x="687" 
d="M831 694l-382 -416l-59 -278h-93l59 278l-205 416h114l119 -244l44 -97l93 105l216 236h94zM696 859q-12 -55 -49.5 -89t-77.5 -34q-26 0 -67 31q-34 27 -57 27q-21 0 -33.5 -18t-17.5 -40h-65q13 56 50 89.5t77 33.5q25 0 68 -31q32 -27 57 -27q21 0 33.5 18.5
t16.5 39.5h65z" />
    <glyph glyph-name="ytilde" unicode="&#x1ef9;" horiz-adv-x="474" 
d="M553 444l-334 -530q-27 -42 -50 -68.5t-42 -36t-29 -12t-25 -2.5q-48 0 -72 8l9 69q35 -17 77 -17q10 0 16.5 2t21.5 15t33 39l56 89l-106 444h84q37 -165 45 -207q27 -128 20 -178q9 33 43.5 97.5t66.5 115.5t107 172h79zM550 672q-13 -56 -50 -89.5t-77 -33.5
q-25 0 -68 31q-32 27 -57 27q-21 0 -33.5 -18.5t-16.5 -39.5h-65q12 55 49.5 89t77.5 34q26 0 67 -31q34 -27 58 -27q37 0 50 58h65z" />
    <glyph glyph-name="uni2010" unicode="&#x2010;" horiz-adv-x="343" 
d="M349 191h-274l13 62h274z" />
    <glyph glyph-name="uni2011" unicode="&#x2011;" horiz-adv-x="343" 
d="M349 191h-274l13 62h274z" />
    <glyph glyph-name="endash" unicode="&#x2013;" 
d="M564 242h-513l14 65h513z" />
    <glyph glyph-name="emdash" unicode="&#x2014;" horiz-adv-x="1028" 
d="M1078 242h-1027l14 65h1027z" />
    <glyph glyph-name="dblverticalbar" unicode="&#x2016;" horiz-adv-x="412" 
d="M118 -215q-7 -35 -28 -35q-22 0 -15 35l198 930q2 11 4 17t8.5 12t16.5 6q22 0 14 -35zM244 -215q-8 -35 -28 -35q-22 0 -15 35l198 930q2 11 4 17t8.5 12t16.5 6q22 0 14 -35z" />
    <glyph glyph-name="quoteleft" unicode="&#x2018;" horiz-adv-x="286" 
d="M334 694l-54 -127h26l-19 -86h-86l18 85l72 128h43z" />
    <glyph glyph-name="quoteright" unicode="&#x2019;" horiz-adv-x="286" 
d="M314 609l-71 -128h-43l54 127h-26l19 86h86z" />
    <glyph glyph-name="quotesinglbase" unicode="&#x201a;" horiz-adv-x="286" 
d="M186 1l-71 -128h-43l54 127h-26l18 86h86z" />
    <glyph glyph-name="quotedblleft" unicode="&#x201c;" horiz-adv-x="486" 
d="M334 694l-54 -127h26l-19 -86h-86l18 85l72 128h43zM534 694l-54 -127h26l-19 -86h-86l18 85l72 128h43z" />
    <glyph glyph-name="quotedblright" unicode="&#x201d;" horiz-adv-x="486" 
d="M316 609l-71 -128h-43l54 127h-26l19 86h86zM516 609l-71 -128h-43l54 127h-26l19 86h86z" />
    <glyph glyph-name="quotedblbase" unicode="&#x201e;" horiz-adv-x="486" 
d="M187 1l-71 -128h-43l54 127h-26l18 86h86zM387 1l-71 -128h-43l54 127h-26l18 86h86z" />
    <glyph glyph-name="dagger" unicode="&#x2020;" horiz-adv-x="457" 
d="M491 430q-1 -5 -4 -12t-14.5 -15t-27.5 -8q-22 0 -60 12q-39 11 -56 12q-5 -38 -5 -84q-1 -56 -13 -116q-48 -226 -111 -423q-5 -12 -18 -12q-9 0 -10.5 5.5t0.5 19.5q27 219 68 410q12 61 35 116q20 49 31 84q-19 -1 -60 -12q-46 -12 -66 -12q-22 0 -28 12t-3 24
q1 5 4 12t14.5 15t27.5 8q22 0 60 -12q39 -11 56 -12q6 28 12 111q3 76 11 109q10 43 45 43q31 0 26 -43q-10 -43 -35 -109q-27 -72 -36 -111q19 1 60 12q46 12 66 12q22 0 28 -12t3 -24z" />
    <glyph glyph-name="daggerdbl" unicode="&#x2021;" horiz-adv-x="457" 
d="M501 477q-1 -5 -4 -12t-14.5 -15t-27.5 -8q-21 0 -61 12q-38 11 -55 12q-5 -32 -6 -79q-2 -73 -7 -96q-9 -41 -45 -41q-35 0 -26 41q8 37 34 99q20 47 27 76q-18 -1 -61 -12q-44 -12 -65 -12q-22 0 -28 12t-3 24q1 5 4 12t14.5 15t27.5 8q22 0 60 -12q39 -11 56 -12
q5 32 6 79q2 73 7 96q9 41 45 41q35 0 26 -41q-8 -37 -34 -99q-20 -47 -27 -76q19 1 60 12q46 12 66 12q22 0 28 -12t3 -24zM405 22q-3 -15 -15.5 -25t-28.5 -10q-28 0 -63 11q-32 10 -56 12q-5 -35 -5 -71q-1 -75 -8 -103q-8 -41 -45 -41q-35 0 -26 41q5 26 28 83
q22 51 33 91q-25 -3 -50 -10q-51 -13 -79 -13q-16 0 -23.5 10t-4.5 25q8 35 43 35q25 0 64 -11q32 -10 55 -12q5 26 5 71q1 67 8 103q9 41 45 41q35 0 26 -41q-7 -31 -27 -83q-25 -58 -34 -91q30 4 47 8q57 15 83 15q15 0 23 -10t5 -25z" />
    <glyph glyph-name="bullet" unicode="&#x2022;" horiz-adv-x="799" 
d="M570 116h-290l61 290h290z" />
    <glyph glyph-name="ellipsis" unicode="&#x2026;" horiz-adv-x="642" 
d="M186 0h-86l18 86h86zM364 0h-86l18 86h86zM542 0h-86l18 86h86z" />
    <glyph glyph-name="perthousand" unicode="&#x2030;" horiz-adv-x="1181" 
d="M1149 145q-18 -85 -72.5 -143t-111.5 -58t-88 57.5t-13 144.5q18 85 73.5 143t113.5 58q56 0 86 -58t12 -144zM794 145q-18 -85 -72.5 -143t-111.5 -58t-88 57.5t-13 144.5q18 85 73.5 143t113.5 58q56 0 86 -58t12 -144zM465 548q-18 -85 -72 -143t-111 -58
q-58 0 -89 57.5t-12 144.5q18 85 73 143t113 58q57 0 87 -58t11 -144zM798 728q-2 -7 -11 -18l-606 -749q-15 -17 -26 -17q-9 0 -14 6t-3 16q1 6 13 20l604 747q15 17 26 17q8 0 13.5 -6t3.5 -16zM1076 146q12 54 1 95t-40 41q-6 0 -13 -1.5t-19 -9.5t-22 -21.5t-21 -40.5
t-19 -64t-8 -64t4.5 -40.5t13.5 -21t14.5 -9t11.5 -1.5q28 0 56.5 40t40.5 97zM721 146q12 54 1 95t-40 41q-6 0 -13 -1.5t-19 -9.5t-22 -21.5t-21 -40.5t-19 -64t-8 -64t4.5 -40.5t13.5 -21t14.5 -9t11.5 -1.5q28 0 56.5 40t40.5 97zM393 549q12 54 1 95t-40 41
q-6 0 -13 -1.5t-19 -9.5t-22 -21.5t-21.5 -40.5t-19.5 -64t-7.5 -64t5 -40.5t13.5 -21t14.5 -9t11.5 -1.5q28 0 56.5 40t40.5 97z" />
    <glyph glyph-name="permyriad" unicode="&#x2031;" horiz-adv-x="1508" 
d="M1497 145q-18 -85 -72.5 -143t-111.5 -58t-88 57.5t-13 144.5q18 85 73.5 143t113.5 58q56 0 86 -58t12 -144zM1142 145q-18 -85 -72.5 -143t-111.5 -58t-88 57.5t-13 144.5q18 85 73.5 143t113.5 58q56 0 86 -58t12 -144zM787 145q-18 -85 -72.5 -143t-111.5 -58
t-88 57.5t-13 144.5q18 85 73.5 143t113.5 58q56 0 86 -58t12 -144zM458 548q-18 -85 -72 -143t-111 -58q-58 0 -89 57.5t-12 144.5q18 85 73 143t113 58q57 0 87 -58t11 -144zM791 728q-2 -7 -11 -18l-606 -749q-15 -17 -26 -17q-9 0 -14 6t-3 16q1 6 13 20l604 747
q15 17 26 17q8 0 13.5 -6t3.5 -16zM1424 146q12 54 1 95t-40 41q-6 0 -13 -1.5t-19 -9.5t-22 -21.5t-21 -40.5t-19 -64t-8 -64t4.5 -40.5t13.5 -21t14.5 -9t11.5 -1.5q28 0 56.5 40t40.5 97zM1069 146q12 54 1 95t-40 41q-6 0 -13 -1.5t-19 -9.5t-22 -21.5t-21 -40.5
t-19 -64t-8 -64t4.5 -40.5t13.5 -21t14.5 -9t11.5 -1.5q28 0 56.5 40t40.5 97zM714 146q12 54 1 95t-40 41q-6 0 -13 -1.5t-19 -9.5t-22 -21.5t-21 -40.5t-19 -64t-8 -64t4.5 -40.5t13.5 -21t14.5 -9t11.5 -1.5q28 0 56.5 40t40.5 97zM386 549q12 54 1 95t-40 41
q-6 0 -13 -1.5t-19 -9.5t-22 -21.5t-21.5 -40.5t-19.5 -64t-7.5 -64t5 -40.5t13.5 -21t14.5 -9t11.5 -1.5q28 0 56.5 40t40.5 97z" />
    <glyph glyph-name="guilsinglleft" unicode="&#x2039;" horiz-adv-x="343" 
d="M286 0h-65l-60 219l153 219h65l-134 -219z" />
    <glyph glyph-name="guilsinglright" unicode="&#x203a;" horiz-adv-x="343" 
d="M275 219l-153 -219h-65l134 219l-41 219h65z" />
    <glyph glyph-name="referencemark" unicode="&#x203b;" horiz-adv-x="799" 
d="M644 9q-20 -16 -38 9l-160 202l-245 -202q-8 -7 -11 -9t-10 -5.5t-12 -2t-9 7.5q-12 15 18 40l245 202l-159 202q-20 25 -1 40q19 16 38 -10l159 -202l245 202q30 25 42 9q11 -15 -19 -40l-244 -201l159 -202q20 -25 2 -40zM534 463q-3 -16 -15.5 -26.5t-28.5 -10.5
q-15 0 -24 10.5t-6 26.5q4 15 17 26t28 11q16 0 24.5 -11t4.5 -26zM278 251q-3 -15 -16.5 -26t-28.5 -11q-16 0 -24 10.5t-5 26.5q4 15 17 26t28 11t24 -11t5 -26zM444 39q-3 -15 -16 -26t-29 -11q-15 0 -23.5 11t-5.5 26q4 15 17 26t28 11q16 0 24.5 -11t4.5 -26zM701 251
q-3 -16 -16 -26.5t-29 -10.5q-15 0 -23.5 10.5t-5.5 26.5q4 15 17 26t28 11q16 0 24.5 -11t4.5 -26z" />
    <glyph glyph-name="interrobang" unicode="&#x203d;" horiz-adv-x="485" 
d="M286 0h-86l18 86h86zM531 549q-7 -32 -22.5 -59t-25 -36.5t-29.5 -26.5q-102 -84 -127 -195l-11 -55h-70l6 32q12 53 24 85l69 344q-78 -8 -153 -53l-9 67q84 43 176 52l4 24h69l-6 -25q70 -9 94 -52t11 -102zM448 551q15 73 -37 86l-44 -197q13 16 39 38q33 29 42 73z
" />
    <glyph glyph-name="uni203F" unicode="&#x203f;" horiz-adv-x="613" 
d="M518 -68q-14 -63 -112 -101q-62 -25 -141 -25q-78 0 -136 27q-76 37 -64 99h84q-2 -18 11.5 -30t37 -17.5t44 -7.5t41.5 -2q47 0 94.5 13.5t56.5 43.5h84z" />
    <glyph glyph-name="uni2040" unicode="&#x2040;" horiz-adv-x="613" 
d="M654 569h-84q2 18 -11.5 30t-37 17.5t-44 7.5t-41.5 2q-47 0 -94.5 -13.5t-56.5 -43.5h-84q15 63 112 101q62 25 142 25q77 0 135 -27q76 -37 64 -99z" />
    <glyph glyph-name="fraction" unicode="&#x2044;" horiz-adv-x="575" 
d="M661 674l-550 -654h-50l550 654h50z" />
    <glyph glyph-name="quillbracketleft" unicode="&#x2045;" horiz-adv-x="371" 
d="M251 -313q-100 0 -162 50.5t-42 146.5l44 207q14 66 72 112.5t122 46.5l1 2q-23 0 -55 13q-46 19 -65 57t-8 89q2 6 5 17.5t4 16.5l36 169q10 48 27 69q26 30 74 46t85 19t89 3l-14 -65q-8 0 -24 0.5t-25 0.5q-23 0 -37.5 -1.5t-36 -6.5t-34.5 -19t-18 -36l-46 -214
q-7 -34 2 -59.5t30.5 -39.5t47 -20.5t54.5 -6.5l-14 -66q-68 0 -121 -32t-67 -98l-46 -216q-12 -56 12 -88t76 -32h48z" />
    <glyph glyph-name="quillbracketright" unicode="&#x2046;" horiz-adv-x="371" 
d="M275 -113q-10 -46 -27 -67q-25 -30 -72.5 -46.5t-85 -19.5t-89.5 -3l14 65q9 0 26 -0.5t25 -0.5q22 0 36.5 1.5t35 7t33.5 19t18 35.5l46 214q13 64 -28.5 95t-107.5 31l14 66q68 0 122 31.5t67 94.5l46 214q4 18 -1.5 30.5t-14.5 18.5t-26 9.5t-27.5 4t-27.5 0.5
q-9 0 -26 -0.5t-25 -0.5l14 65q52 0 88 -3t76.5 -19.5t52.5 -46.5q9 -23 -1 -67l-42 -196q-6 -34 -20 -61q-23 -44 -74.5 -75t-100.5 -31l-1 -2q24 0 54 -13q96 -39 71 -154z" />
    <glyph glyph-name="discount" unicode="&#x2052;" 
d="M610 729q-2 -10 -30 -46l-53 -75l-406 -568q-1 -2 -6 -9t-8 -10.5t-7.5 -9t-9.5 -8t-10 -2.5h-1q-10 0 -14.5 6.5t-2.5 15.5q1 7 7.5 16t15.5 20t12 16l61 87l320 445q9 12 36 53t46 64.5t29 25.5l6 1q9 0 13 -6.5t2 -15.5zM345 642q-9 -20 -34 -20h-74q-26 0 -20 25
l13 63q0 2 1 8t1 8q5 22 26 25q4 1 14 1h64q16 0 23 -6t3 -25zM442 33q-7 -32 -38 -32h-67q-10 0 -15.5 1.5t-9 7.5t-1.5 17l18 87q7 14 21 16q4 1 14 1h71q29 0 21 -30z" />
    <glyph glyph-name="uni2054" unicode="&#x2054;" horiz-adv-x="613" 
d="M492 -194h-84q2 18 -11.5 30t-37 17.5t-44 7.5t-41.5 2q-47 0 -94.5 -13.5t-56.5 -43.5h-84q15 64 112 101q62 25 141 25q78 0 136 -27q76 -37 64 -99z" />
    <glyph glyph-name="colonmonetary" unicode="&#x20a1;" horiz-adv-x="657" 
d="M612 34q-62 -32 -104 -44t-107 -12h-11l-17 -80h-68l19 89q-111 29 -161 131t-23 229q27 128 121 229.5t216 130.5l19 89h68l-17 -80h10q96 0 181 -35l-35 -87q-69 54 -161 54h-9l-128 -602h12q46 0 83 8.5t58.5 19t63.5 34.5zM340 61l122 572q-81 -30 -143.5 -109
t-82.5 -177q-20 -95 7.5 -175.5t96.5 -110.5z" />
    <glyph glyph-name="lira" unicode="&#x20a4;" horiz-adv-x="687" 
d="M649 148q-15 -69 -67 -119.5t-114 -50.5q-45 0 -104 16q-53 14 -84 20t-73.5 3t-64.5 -24l-53 54q57 53 95.5 99.5t58.5 97.5h-122l14 68h124v14q1 6 -1 18l-5 38h-103l15 68h82q8 96 83 170t169 74q83 0 127 -61.5t26 -147.5h-84q11 52 -14 88.5t-73 36.5
q-58 0 -103 -48t-46 -109v-3h176l-15 -68h-152l2 -10q1 -4 2 -13t1 -13l-2 -34h134l-14 -68h-136q-26 -72 -82 -141q51 -1 155 -28q50 -13 85 -13q28 0 50 26t29 60h84z" />
    <glyph glyph-name="naira" unicode="&#x20a6;" horiz-adv-x="727" 
d="M725 244h-45l-52 -244h-132l-15 52q-1 3 -15 47l-43 145h-191l-52 -244h-82l52 244h-45l14 68h45l15 70h-45l15 68h45l52 244h132l14 -52q6 -10 15 -47l44 -145h191l52 244h82l-52 -244h45l-15 -68h-45l-15 -70h45zM362 450l-50 166h-1l-35 -166h86zM402 312l-21 70h-120
l-15 -70h156zM612 312l15 70h-156l20 -70h121zM563 78l35 166h-86l50 -166h1z" />
    <glyph glyph-name="won" unicode="&#x20a9;" horiz-adv-x="972" 
d="M1009 244h-136l-126 -244h-90l-21 244h-203l-125 -244h-84l-22 244h-136l14 68h116l-7 70h-94l15 68h74l-22 244h92l21 -244h197l124 244h84l21 -244h203l124 244h77l-126 -244h74l-15 -68h-94l-37 -70h116zM629 312l-5 70h-122l-19 -39l-16 -31h162zM436 382h-156l5 -70
h116zM368 244h-78q8 -127 4 -166l1 1q9 31 73 165zM869 382h-163l6 -70h121l30 58zM799 244h-82l2 -20q3 -52 4 -88.5t1 -47.5l-1 -11q13 39 76 167zM619 450q-9 124 -5 166h-1q-4 -18 -55 -120l-22 -46h83z" />
    <glyph glyph-name="dong" unicode="&#x20ab;" horiz-adv-x="531" 
d="M619 543h-79l-108 -508h-79l11 49q-77 -60 -159 -60q-70 0 -104.5 65t-14.5 157q20 91 83 156t134 65q82 0 134 -52l27 128h-148l14 65h148l19 86h76l-19 -86h79zM490 -68h-470l14 68h470zM382 169l40 187q-25 49 -82 49q-54 0 -105.5 -39t-69.5 -121q-17 -79 13 -119
t83 -40q55 0 103 49q13 13 18 34z" />
    <glyph glyph-name="Euro" unicode="&#x20ac;" horiz-adv-x="615" 
d="M571 34q-49 -34 -82 -45t-86 -11q-58 0 -104.5 29t-73.5 79q-41 72 -39 170h-80l23 58h62q1 16 6 33q2 11 8 33h-72l22 58h70q40 99 111 170q105 108 224 108q77 0 137 -34l-34 -87q-42 53 -118 53q-78 0 -152 -88q-45 -54 -72 -122h281l-22 -58h-279q-6 -22 -8 -33
q-5 -17 -6 -33h267l-23 -58h-249q-2 -68 21 -122q37 -88 114 -88q53 0 85.5 12.5t77.5 49.5z" />
    <glyph glyph-name="peso" unicode="&#x20b1;" horiz-adv-x="657" 
d="M703 491q-18 -84 -100 -145t-186 -61h-163l-17 -77h136l-14 -68h-136l-30 -140h-96l30 140h-77l14 68h77l104 486h259q104 0 160.5 -60.5t38.5 -142.5zM616 491q13 62 -26 103t-123 41h-142l-61 -288h142q84 0 140.5 41t69.5 103z" />
    <glyph glyph-name="centigrade" unicode="&#x2103;" horiz-adv-x="885" 
d="M842 42q-1 -6 -11 -12q-95 -51 -201 -51q-103 0 -170.5 55.5t-89 138.5t-2.5 176q20 93 79.5 177t147.5 137.5t181 53.5q100 0 190 -35l-34 -87q-7 3 -19 13q-66 41 -141 41q-112 0 -197.5 -93t-110.5 -209q-14 -53 -7 -106.5t26.5 -96.5t61 -70t97.5 -27q79 0 127 21
q18 6 46.5 22t34.5 19q-2 -10 -3.5 -32.5t-4.5 -34.5zM352 582q-9 -43 -45.5 -77t-81.5 -38h-10q-51 0 -76 34t-16 79q9 43 45.5 77t81.5 38h10q51 0 76 -34t16 -79zM309 582l1 6q1 27 -15 45.5t-42 18.5q-28 0 -54.5 -21.5t-32.5 -50.5l-1 -6q-1 -27 15 -45.5t42 -18.5
q28 0 54.5 21.5t32.5 50.5z" />
    <glyph glyph-name="numero" unicode="&#x2116;" horiz-adv-x="840" 
d="M847 397q-10 -50 -47 -93t-87 -43q-49 0 -67.5 43.5t-8.5 92.5q13 56 50 100.5t86 44.5q50 0 67.5 -46.5t6.5 -98.5zM794 154h-209l13 62h209zM474 1h-132l-33 558q-1 14 -0.5 21t2 20.5t1.5 20.5l-132 -620h-82l148 694h132l33 -552l-3 -61l131 613h83zM781 398
q9 28 6 55.5t-27 27.5q-40 0 -56 -83q-16 -71 24 -71q19 0 33 21.5t20 49.5z" />
    <glyph glyph-name="published" unicode="&#x2117;" horiz-adv-x="694" 
d="M768 347q-31 -144 -154 -245.5t-267 -101.5t-224 101.5t-49 245.5t154 245.5t267 101.5t224 -101.5t49 -245.5zM728 347q27 127 -43.5 217t-198.5 90q-127 0 -236 -90t-136 -217t44 -217t198 -90t236 90t136 217zM610 434q-11 -51 -60.5 -87.5t-112.5 -36.5h-98l-37 -173
h-59l89 420h157q63 0 97.5 -37t23.5 -86zM557 434q9 38 -15 62.5t-74 24.5h-86l-37 -174h86q51 0 84.5 24.5t41.5 62.5z" />
    <glyph glyph-name="recipe" unicode="&#x211e;" horiz-adv-x="666" 
d="M636 0h-96l-28 74l-89 -66l-34 52l99 73l-71 182h-160l-67 -315h-93l148 694h252q107 0 171.5 -55t47.5 -132q-13 -61 -72 -111t-141 -71l57 -139l84 62l34 -51l-94 -70zM629 507q12 56 -30 92t-127 36h-147l-54 -255h147q87 0 143.5 37t67.5 90z" />
    <glyph glyph-name="servicemark" unicode="&#x2120;" horiz-adv-x="882" 
d="M389 379q-11 -51 -58.5 -89t-107.5 -38q-78 0 -133 41l20 52q52 -49 122 -49q39 0 68.5 23t35.5 54q6 26 -7 45.5t-35 26.5l-48 12q-61 15 -80 51q-17 32 -10 67q10 47 57 83t108 36q57 0 107 -29l-21 -52q-38 39 -95 39q-39 0 -68 -21t-35 -48q-6 -25 8.5 -42.5
t38.5 -23.5l58 -15q36 -8 60.5 -42t14.5 -81zM841 265h-49l79 369h-1q-30 -61 -84 -145l-128 -211h-46l-9 50l-30 170q-19 101 -19 136h-1l-79 -369h-49l89 416h72l5 -27l37 -204q1 -9 6 -38t8.5 -53t3.5 -35q1 3 87 152l125 205h72z" />
    <glyph glyph-name="trademark" unicode="&#x2122;" horiz-adv-x="960" 
d="M537 652h-36l-123 2l-79 -372h-57l79 372l-123 -2h-37l9 42h376zM935 282h-49l78 369q-9 -19 -84 -145l-128 -211h-45l-10 50l-30 169q-17 99 -20 137l-78 -369h-49l88 416h72l5 -27l36 -205q18 -84 18 -126h1q22 48 88 153l123 205h72z" />
    <glyph glyph-name="ohm" unicode="&#x2126;" horiz-adv-x="742" 
d="M695 0h-252q20 88 111 215q40 58 58.5 86.5t42 74.5t31.5 85q17 82 -33.5 136t-144.5 54q-92 0 -165.5 -53.5t-91.5 -136.5q-10 -30 -6 -75.5t10.5 -76.5t20.5 -82q21 -77 26 -123t-4 -104h-252l16 75h87q6 0 18 -0.5t18 -0.5h53q-6 64 -47 163q-27 72 -37 122.5t1 102.5
q22 104 128.5 179t239.5 75q131 0 206 -75t53 -179q-8 -40 -32.5 -84t-46.5 -73.5t-65 -82.5q-72 -88 -103 -148h53q6 0 18 0.5t18 0.5h87z" />
    <glyph glyph-name="uni2127" unicode="&#x2127;" horiz-adv-x="742" 
d="M828 619h-87q-6 0 -18 0.5t-18 0.5h-53q3 -37 12 -68.5t34 -94.5q28 -71 37.5 -121.5t-1.5 -103.5q-22 -104 -128.5 -179t-239.5 -75q-131 0 -206 75t-53 179q8 40 33 85t45.5 72t65.5 83q70 85 104 148h-53q-6 0 -18 -0.5t-18 -0.5h-87l16 75h252q-20 -86 -111 -215
q-42 -60 -59.5 -86.5t-41 -73.5t-31.5 -86q-18 -82 32.5 -136t144.5 -54q92 0 166 53.5t92 136.5q18 84 -26 234q-21 79 -26 123t5 104h252z" />
    <glyph glyph-name="estimated" unicode="&#x212e;" horiz-adv-x="690" 
d="M737 362h-528q-12 0 -14 -11l-2 -6l-5 -40q-8 -98 42.5 -170.5t143.5 -79.5h12q108 0 286 53q-1 -8 -3 -29t-4 -32q-1 -4 -4 -7t-5.5 -4t-7 -2t-6.5 -2l-54 -15q-85 -23 -210 -27h-19q-136 6 -210.5 109t-47.5 239l1 7q20 93 77 175.5t146 137t188 54.5q126 0 190 -77
q73 -86 34 -273zM664 421q12 105 -34 165t-130 60q-90 0 -167.5 -66t-116.5 -159h448z" />
    <glyph glyph-name="uni2190" unicode="&#x2190;" horiz-adv-x="1028" 
d="M1023 250q-4 -21 -35 -21l-771 -1q9 -5 19 -20q69 -88 69 -219h-35q-7 0 -9 12q7 73 -38 148.5t-113 100.5v1q73 24 141 87t105 137q2 4 6.5 15t8.5 16.5t10 5.5h35q-46 -109 -127 -189q-43 -40 -62 -50l771 -1q9 0 14 -1t9 -6.5t2 -14.5z" />
    <glyph glyph-name="uni2191" unicode="&#x2191;" 
d="M576 423q-124 29 -179 138l-156 -734q-4 -20 -24 -21q-18 -1 -19 15l1 6l156 734q-99 -109 -236 -138l9 43q89 19 164 80.5t113 147.5q0 -86 49 -147.5t131 -80.5z" />
    <glyph glyph-name="uni2192" unicode="&#x2192;" horiz-adv-x="1028" 
d="M1023 250q-73 -24 -140.5 -87t-104.5 -137q-2 -4 -6.5 -15t-8.5 -16.5t-10 -5.5h-35q44 109 127 189q39 39 61 50l-769 1q-13 0 -21.5 4t-5.5 17q4 22 36 22l770 1q-4 2 -19 20q-70 88 -68 219h35q7 0 7.5 -2.5t0.5 -11.5q-1 -66 26.5 -123t75.5 -94l26 -18q16 -8 23 -13
z" />
    <glyph glyph-name="uni2193" unicode="&#x2193;" 
d="M493 34q-90 -19 -165 -80.5t-112 -147.5q-1 86 -49.5 147.5t-130.5 80.5l9 43q124 -29 178 -138l156 734q4 20 24 21q18 1 19 -15l-1 -6l-156 -734q101 109 237 138z" />
    <glyph glyph-name="minus" unicode="&#x2212;" horiz-adv-x="799" 
d="M794 250q-4 -21 -37 -21h-618q-9 0 -14.5 0.5t-11 5.5t-3.5 15q5 22 42 22h610q11 0 17 -0.5t11.5 -6t3.5 -15.5z" />
    <glyph glyph-name="fraction.alt" unicode="&#x2215;" horiz-adv-x="0" 
d="M374 674l-550 -654h-50l550 654h50z" />
    <glyph glyph-name="asterisk.math" unicode="&#x2217;" 
d="M481 161q-3 -15 -16.5 -27t-28.5 -12h-2q-12 0 -36 22q-11 8 -34 28t-36 28q-5 -21 -10.5 -64t-9.5 -64l-2 -9q-3 -15 -16.5 -24.5t-27.5 -9.5q-15 0 -23.5 10t-4.5 26l1 7q2 9 8 27l15 57q2 8 6.5 22t6.5 22q-18 -9 -51 -29.5t-43 -26.5q-34 -22 -46 -22h-2
q-15 0 -23.5 12t-5.5 27q2 8 6 14.5t12.5 11.5t13 7.5t16.5 7.5t14 6q8 3 41 19.5t51 22.5l1 2q-16 6 -42 22t-33 20q-2 1 -11.5 5.5t-13 7.5t-9.5 8t-7.5 11.5t-0.5 14.5q4 15 17.5 27t28.5 12h2q12 0 36 -22q9 -7 33 -27t37 -29q2 8 4 22t3 22l9 57q0 3 0.5 8.5t1 10
t1.5 8.5l2 7q4 16 16.5 26t27.5 10q14 0 23.5 -9.5t5.5 -24.5l-2 -9q-5 -21 -18 -63.5t-17 -64.5q18 9 49.5 29t44.5 27q34 22 46 22h2q15 0 23.5 -12t4.5 -27q-1 -7 -5 -13t-7.5 -9.5t-11.5 -8t-12 -6t-13.5 -5.5t-12.5 -5q-5 -2 -39 -19t-52 -23l-1 -2q16 -6 42.5 -22.5
t31.5 -19.5q1 -1 11.5 -6t13.5 -7t9.5 -7.5t8 -12t-0.5 -14.5z" />
    <glyph glyph-name="radical" unicode="&#x221a;" horiz-adv-x="485" 
d="M694 745q-6 -19 -34 -19h-77q-10 0 -15 -9l-358 -760q-2 -5 -6.5 -15.5t-7 -14.5t-7 -11.5t-8.5 -10.5t-10 -5.5t-13 -2.5h-15l3 233l-69 -88l-26 32l-8 14l49 65l142 179l-4 -235q1 1 17 33q42 93 138 293t144 306q1 3 4.5 9.5t5 9.5t5 8t7 7t9 4t12.5 2h76q3 0 9.5 0.5
t10.5 0.5q13 0 21.5 -5t5.5 -17z" />
    <glyph glyph-name="infinity" unicode="&#x221e;" horiz-adv-x="1028" 
d="M516 218l-29 52q-16 30 -28 48t-31 39t-42.5 31.5t-50.5 10.5q-59 0 -105.5 -52.5t-61.5 -124.5q-9 -48 -8 -90t22.5 -70t59.5 -28q132 0 274 184zM954 222q9 48 8 90t-22.5 70t-59.5 28q-133 0 -273 -184l29 -52q17 -30 28.5 -47.5t30.5 -39.5t42 -32t51 -10
q58 0 104.5 53t61.5 124zM1018 222q-21 -99 -97 -171.5t-166 -72.5q-62 0 -105.5 39t-80.5 105l-17 31q-142 -177 -274 -177q-96 0 -145.5 72.5t-28.5 173.5q22 99 97.5 171.5t165.5 72.5q62 0 105.5 -39t80.5 -105l17 -31q143 177 275 177q95 0 144.5 -72.5t28.5 -173.5z
" />
    <glyph glyph-name="anglearc" unicode="&#x2222;" horiz-adv-x="799" 
d="M745 21q-2 -11 -12 -17.5t-20 -2.5l-127 50q-45 -73 -108 -135q-8 -8 -18 -8q-9 0 -13.5 6t-2.5 15t7 13q58 58 98 123l-429 166q-13 6 -10 20q3 15 19 20l499 166q-12 63 -46 123q-3 4 -1 13q1 9 8.5 15t16.5 6q10 0 15 -8q37 -63 50 -135l148 50q12 4 19 -2.5t5 -17.5
q-3 -15 -18 -20l-148 -49q9 -75 -10 -161q-16 -82 -59 -161l128 -49q12 -5 9 -20zM625 251q16 74 10 147l-442 -147l379 -147q39 76 53 147z" />
    <glyph glyph-name="diameter" unicode="&#x2300;" horiz-adv-x="799" 
d="M863 572q-3 -10 -10 -15l-115 -94q62 -92 35 -212q-28 -133 -142 -227t-247 -94q-121 0 -194 79l-115 -95q-7 -6 -17 -6q-9 0 -13.5 6t-2.5 15t9 15l115 95q-61 89 -35 212q28 133 142.5 227t247.5 94q120 0 195 -80l114 95q8 6 16 6q20 0 17 -21zM731 251
q23 104 -28 182l-477 -394q62 -67 167 -67q116 0 215 82t123 197zM679 462q-63 68 -167 68q-116 0 -215 -82t-124 -197q-22 -102 30 -182z" />
    <glyph glyph-name="angleleft" unicode="&#x2329;" horiz-adv-x="400" 
d="M294 -228q-6 -22 -27 -22q-10 0 -15 10t-7 24.5t-2 15.5l-64 366l-9 54q-5 24 -4 30q1 4 18 33l253 421q2 3 7.5 13t9 15.5t9.5 11t12 6.5l6 1q19 0 15 -23q-2 -8 -7 -16.5t-13.5 -21.5t-10.5 -16l-193 -323l-53 -88q-6 -7 -7 -13q-1 -5 1 -13.5t2 -10.5l10 -54l63 -361
q6 -36 6 -37v-2z" />
    <glyph glyph-name="angleright" unicode="&#x232a;" horiz-adv-x="400" 
d="M339 251q-1 -5 -3.5 -10.5t-6.5 -12t-6 -9.5l-256 -425q-1 -2 -5.5 -9.5t-7 -12t-7 -10t-9.5 -8.5t-11 -4q-9 0 -14.5 5t-4.5 13t6 16l82 137l139 231l41 68l12 19q5 10 5 12q0 1 -3 27l-73 417q-6 30 -5 35q2 6 8 13t13 7l6 1q8 0 12.5 -6.5t6 -13t2.5 -17t1 -11.5
l74 -420q5 -27 4 -32z" />
    <glyph glyph-name="blanksymbol" unicode="&#x2422;" horiz-adv-x="531" 
d="M541 223q-21 -99 -90.5 -166.5t-148.5 -67.5q-34 0 -63.5 12.5t-42.5 24t-20 21.5l-10 -47h-83l99 466l-45 -33l-34 51l98 73l30 137h80l-15 -67l62 45l34 -51l-115 -85l-30 -139q88 58 180 58q71 0 102.5 -69t11.5 -163zM458 223q18 85 -14.5 126t-86.5 41
q-69 0 -120 -56l-46 -218q21 -62 84 -62q56 0 110.5 41t72.5 128z" />
    <glyph glyph-name="uni2423" unicode="&#x2423;" 
d="M450 -97q-2 -10 -10 -16.5t-18 -6.5h-381q-10 0 -15 6.5t-3 16.5l67 316q4 22 26 23q19 1 20 -15v-8l-62 -293h335l62 293q5 22 27 23q18 1 20 -15l-1 -8z" />
    <glyph glyph-name="openbullet" unicode="&#x25e6;" horiz-adv-x="799" 
d="M570 116h-290l61 290h290zM558 261q10 43 -14 73t-67 30t-79 -30t-46 -73q-9 -43 15 -73t67 -30t79 30t45 73z" />
    <glyph glyph-name="uni266A" unicode="&#x266a;" horiz-adv-x="628" 
d="M600 137q-6 -26 -27 -26h-3q-8 4 -11 11.5t-2.5 13.5t3 17.5t2.5 16.5q5 55 -1.5 107t-28 134.5t-25.5 99.5l-88 -414q-21 -61 -79.5 -95t-119.5 -34q-64 0 -108.5 38.5t-31.5 102.5q9 41 42.5 70t72.5 40.5t80 11.5q81 0 121 -37l107 501q7 31 29 31q8 0 12 -4.5t4 -13
t-1 -16.5t-3.5 -19t-2.5 -17q-5 -58 8.5 -129.5t30.5 -126t25.5 -128t-5.5 -135.5z" />
    <glyph glyph-name="married" unicode="&#x26ad;" 
d="M662 252q-20 -91 -98.5 -157t-167.5 -66q-36 0 -73.5 11t-50.5 31h-1q-24 -20 -63.5 -31t-74.5 -11q-91 0 -142.5 64.5t-32.5 156.5t99 157.5t172 65.5q77 0 120 -42q24 20 63.5 31t74.5 11q91 0 142.5 -64.5t32.5 -156.5zM588 252q13 63 -20.5 105t-95.5 42
q-19 0 -81 -20q12 -43 15 -62.5t-3 -65.5q-7 -33 -22.5 -61t-44.5 -67q44 -19 73 -19q64 0 114.5 42.5t64.5 105.5zM229 123l-9 24q-16 45 -4 104q11 51 68 128q-7 2 -18 6.5t-17.5 7t-17 4.5t-20.5 2q-63 0 -114 -42t-64 -105q-14 -63 18.5 -105.5t96.5 -42.5q30 0 81 19z
M322 251l4 43l-3 22q-20 -38 -26 -67q-8 -34 0 -63l11 22z" />
    <glyph glyph-name="divorced" unicode="&#x26ae;" 
d="M225 252q-19 -86 -87 -155t-155 -69q-81 0 -119 70t-20 153q18 82 78 146.5t145 75.5h10q85 0 125.5 -68t22.5 -153zM776 252q-18 -84 -78.5 -148.5t-145.5 -74.5h-10q-86 0 -125 68t-21 154q18 83 79.5 148t146.5 74q2 0 7 0.5t7 0.5q81 0 119.5 -69t20.5 -153z
M275 -113h-84l155 728h84zM143 253q12 57 -7 101t-73 44q-55 0 -93 -44.5t-51 -102.5q-12 -58 7.5 -102.5t74.5 -44.5q98 0 138 136q0 2 1.5 6t2.5 7zM700 251q13 59 -6.5 103t-73.5 44q-59 0 -95 -47t-50 -110q-14 -137 81 -137q55 0 93.5 44.5t50.5 102.5z" />
    <glyph glyph-name="dblbracketleft" unicode="&#x27e6;" horiz-adv-x="414" 
d="M338 -249h-271l213 1000h271l-10 -43h-100l-194 -914h100zM204 -206l194 914h-85l-194 -914h85z" />
    <glyph glyph-name="dblbracketright" unicode="&#x27e7;" horiz-adv-x="414" 
d="M240 -249h-270l9 43h99l194 914h-99l10 43h270zM206 -206l194 914h-85l-194 -914h85z" />
    <glyph glyph-name="acute.cap" unicode="&#xea00;" 
d="M579 618l-223 -122h-89l201 122h111z" />
    <glyph glyph-name="uni0301.cap" unicode="&#xea01;" horiz-adv-x="0" 
d="M99 944l-188 -167h-65l170 167h83z" />
    <glyph glyph-name="breve.cap" unicode="&#xea02;" 
d="M575 676q-18 -79 -81 -129.5t-133 -50.5q-68 0 -109.5 50t-25.5 130h65q-9 -52 18.5 -80.5t68.5 -28.5q40 0 79.5 28.5t52.5 80.5h65z" />
    <glyph glyph-name="space_uni0306_uni0301.cap" unicode="&#xea03;" 
d="M575 676q-18 -79 -81 -129.5t-133 -50.5q-68 0 -109.5 50t-25.5 130h65q-9 -52 18.5 -80.5t68.5 -28.5q40 0 79.5 28.5t52.5 80.5h65zM577 833l-223 -122h-89l201 122h111z" />
    <glyph glyph-name="space_uni0306_uni0301" unicode="&#xea04;" 
d="M580 701q-18 -79 -80.5 -129.5t-132.5 -50.5q-68 0 -110 50t-26 130h65q-9 -52 18.5 -80.5t68.5 -28.5q40 0 79.5 28.5t52.5 80.5h65zM582 858l-223 -122h-89l201 122h111z" />
    <glyph glyph-name="space_uni032E" unicode="&#xea05;" 
d="M418 -62q-18 -79 -80.5 -129.5t-132.5 -50.5q-68 0 -110 50t-26 130h65q-9 -52 18.5 -80.5t68.5 -28.5q40 0 79.5 28.5t52.5 80.5h65z" />
    <glyph glyph-name="space_uni032F" unicode="&#xea06;" 
d="M380 -242h-65q8 52 -19 80.5t-68 28.5q-40 0 -79.5 -28.5t-52.5 -80.5h-65q18 79 80.5 129.5t132.5 50.5q68 0 109.5 -49.5t26.5 -130.5z" />
    <glyph glyph-name="uni0306.cap" unicode="&#xea07;" horiz-adv-x="0" 
d="M129 951q-18 -79 -80.5 -129.5t-132.5 -50.5q-68 0 -110 50t-26 130h65q-9 -52 18.5 -80.5t68.5 -28.5q40 0 79.5 28.5t52.5 80.5h65z" />
    <glyph glyph-name="space_uni0306_uni0300.cap" unicode="&#xea08;" 
d="M575 676q-18 -79 -81 -129.5t-133 -50.5q-68 0 -109.5 50t-25.5 130h65q-9 -52 18.5 -80.5t68.5 -28.5q40 0 79.5 28.5t52.5 80.5h65zM551 711l-149 122h-111l171 -122h89z" />
    <glyph glyph-name="space_uni0306_uni0300" unicode="&#xea09;" 
d="M580 701q-18 -79 -80.5 -129.5t-132.5 -50.5q-68 0 -110 50t-26 130h65q-9 -52 18.5 -80.5t68.5 -28.5q40 0 79.5 28.5t52.5 80.5h65zM556 736l-149 122h-111l171 -122h89z" />
    <glyph glyph-name="space_uni0306_uni0309.cap" unicode="&#xea0a;" 
d="M575 676q-18 -79 -81 -129.5t-133 -50.5q-68 0 -109.5 50t-25.5 130h65q-9 -52 18.5 -80.5t68.5 -28.5q40 0 79.5 28.5t52.5 80.5h65zM533 826q-8 -31 -39 -51q-3 -1 -5.5 -2t-6 -3.5t-6.5 -3.5q-31 -16 -44 -27t-17 -28l-4 -19l-1 -1h-27l-1 1l4 19q15 67 75 96
q15 8 18 19q3 20 -6 29q-10 8 -40 8q-49 0 -85 -44h-1h-1l-6 42v1q46 43 102 43q51 0 75 -20q24 -22 16 -59z" />
    <glyph glyph-name="space_uni0306_uni0309" unicode="&#xea0b;" 
d="M580 701q-18 -79 -80.5 -129.5t-132.5 -50.5q-68 0 -110 50t-26 130h65q-9 -52 18.5 -80.5t68.5 -28.5q40 0 79.5 28.5t52.5 80.5h65zM538 851q-6 -31 -39 -51l-18 -9q-30 -16 -43.5 -27t-17.5 -28l-4 -19l-1 -1h-27l-1 1l4 19q15 67 75 96q15 7 18 19q5 20 -6 29
q-9 8 -39 8q-50 0 -86 -44h-1h-1l-6 42l1 1q45 43 102 43q51 0 74 -20q24 -22 16 -59z" />
    <glyph glyph-name="space_uni0311.cap" unicode="&#xea0c;" 
d="M536 496h-65q9 52 -18 80.5t-68 28.5q-40 0 -79.5 -28t-53.5 -81h-65q19 79 81.5 129.5t132.5 50.5q68 0 109.5 -50t25.5 -130z" />
    <glyph glyph-name="space_uni0311" unicode="&#xea0d;" 
d="M542 521h-65q8 52 -19 80.5t-68 28.5q-40 0 -79.5 -28.5t-52.5 -80.5h-65q18 79 80.5 129.5t132.5 50.5q68 0 110 -50t26 -130z" />
    <glyph glyph-name="uni0311.cap" unicode="&#xea0e;" horiz-adv-x="0" 
d="M91 771h-65q9 52 -18.5 80.5t-68.5 28.5q-40 0 -79.5 -28.5t-52.5 -80.5h-65q18 79 80.5 129.5t132.5 50.5q68 0 110 -50t26 -130z" />
    <glyph glyph-name="space_uni0306_uni0303.cap" unicode="&#xea0f;" 
d="M575 676q-18 -79 -81 -129.5t-133 -50.5q-68 0 -109.5 50t-25.5 130h65q-9 -52 18.5 -80.5t68.5 -28.5q40 0 79.5 28.5t52.5 80.5h65zM609 854q-13 -55 -50.5 -89t-77.5 -34q-4 0 -8.5 0.5t-8.5 2t-7 2t-8 3l-7 3.5t-7 5t-6.5 4.5t-7.5 5t-7 5.5q-31 27 -57 27
q-21 0 -33.5 -18t-17.5 -40h-65q13 55 50.5 89t77.5 34q4 0 8.5 -0.5t8.5 -2t7 -2t8 -3l7 -3.5t7 -5t6.5 -4.5t7.5 -5t7 -5.5q32 -27 57 -27q21 0 33.5 18t17.5 40h65z" />
    <glyph glyph-name="space_uni0306_uni0303" unicode="&#xea10;" 
d="M580 701q-18 -79 -80.5 -129.5t-132.5 -50.5q-68 0 -110 50t-26 130h65q-9 -52 18.5 -80.5t68.5 -28.5q40 0 79.5 28.5t52.5 80.5h65zM614 879q-13 -56 -50 -89.5t-77 -33.5q-25 0 -68 31q-31 27 -57 27q-21 0 -33.5 -18.5t-16.5 -39.5h-65q12 55 49.5 89t77.5 34
q26 0 67 -31q34 -27 58 -27q37 0 50 58h65z" />
    <glyph glyph-name="caron.cap" unicode="&#xea11;" 
d="M545 620l-155 -134h-60l-97 134h59l76 -97l118 97h59z" />
    <glyph glyph-name="uni030C.cap" unicode="&#xea14;" horiz-adv-x="0" 
d="M109 947l-161 -172h-60l-89 172h59l70 -123l122 123h59z" />
    <glyph glyph-name="circumflex.cap" unicode="&#xea15;" 
d="M516 486h-59l-76 97l-118 -97h-59l155 134h60z" />
    <glyph glyph-name="space_uni0302_uni0301.cap" unicode="&#xea16;" 
d="M516 486h-59l-76 97l-118 -97h-59l155 134h60zM565 777l-223 -122h-89l201 122h111z" />
    <glyph glyph-name="space_uni0302_uni0301" unicode="&#xea17;" 
d="M525 525h-59l-77 97l-117 -97h-59l154 134h60zM573 816l-222 -122h-89l200 122h111z" />
    <glyph glyph-name="uni0302.cap" unicode="&#xea18;" horiz-adv-x="0" 
d="M73 775h-59l-70 123l-122 -123h-59l161 172h60z" />
    <glyph glyph-name="space_uni0302_uni0300.cap" unicode="&#xea19;" 
d="M516 486h-59l-76 97l-118 -97h-59l155 134h60zM539 655l-149 122h-111l171 -122h89z" />
    <glyph glyph-name="space_uni0302_uni0300" unicode="&#xea1a;" 
d="M525 525h-59l-77 97l-117 -97h-59l154 134h60zM548 694l-150 122h-111l172 -122h89z" />
    <glyph glyph-name="space_uni0302_uni0309.cap" unicode="&#xea1b;" 
d="M516 486h-59l-76 97l-118 -97h-59l155 134h60zM621 770q-8 -31 -39 -51l-18 -9q-31 -16 -44 -27t-17 -28l-4 -19l-1 -1h-27l-1 1l4 19q15 67 75 96q15 8 18 19q3 21 -6 29q-10 8 -39 8q-50 0 -86 -44h-1h-1l-6 42v1q46 43 102 43q51 0 75 -20q24 -22 16 -59z" />
    <glyph glyph-name="space_uni0302_uni0309" unicode="&#xea1c;" 
d="M525 525h-59l-77 97l-117 -97h-59l154 134h60zM629 809q-6 -31 -39 -51l-4 -2l-4 -2l-5 -2.5l-5 -2.5q-30 -16 -43 -27t-17 -28l-5 -19l-1 -1h-27l-1 1l5 19q13 67 74 96q15 7 18 19q5 20 -6 29q-9 8 -39 8q-50 0 -86 -44h-1h-1l-6 42l1 1q45 43 102 43q51 0 74 -20
q24 -21 16 -59z" />
    <glyph glyph-name="space_uni0302_uni0303.cap" unicode="&#xea1d;" 
d="M516 486h-59l-76 97l-118 -97h-59l155 134h60zM598 798q-13 -55 -50.5 -89t-77.5 -34q-4 0 -8.5 0.5t-8.5 2t-7 2t-8 3l-7 3.5t-7 5t-6.5 4.5t-7.5 5t-7 5.5q-32 27 -57 27q-21 0 -33.5 -18t-17.5 -40h-65q13 55 50.5 89t77.5 34q4 0 8.5 -0.5t8.5 -2t7 -2t8 -3l7 -3.5
t7 -5t6.5 -4.5t7.5 -5t7 -5.5q31 -27 57 -27q21 0 33.5 18t17.5 40h65z" />
    <glyph glyph-name="space_uni0302_uni0303" unicode="&#xea1e;" 
d="M525 525h-59l-77 97l-117 -97h-59l154 134h60zM606 837q-12 -55 -49.5 -89t-77.5 -34q-25 0 -68 31q-32 27 -57 27q-21 0 -33.5 -18.5t-16.5 -39.5h-65q12 55 49.5 89t77.5 34q26 0 67 -31q34 -27 58 -27q37 0 50 58h65z" />
    <glyph glyph-name="space_uni0326" unicode="&#xea1f;" 
d="M263 -156l-65 -115h-38l49 114h-23l16 78h77z" />
    <glyph glyph-name="space_uni030F.cap" unicode="&#xea25;" 
d="M509 496h-65l-45 167h83zM338 496h-65l-45 167h83z" />
    <glyph glyph-name="space_uni030F" unicode="&#xea26;" 
d="M516 527h-65l-45 167h83zM345 527h-65l-45 167h83z" />
    <glyph glyph-name="uni030F.cap" unicode="&#xea27;" horiz-adv-x="0" 
d="M65 777h-65l-45 167h83zM-106 777h-65l-45 167h83z" />
    <glyph glyph-name="dieresis.cap" unicode="&#xea28;" 
d="M310 486h-87l19 86h87zM498 486h-87l19 86h87z" />
    <glyph glyph-name="space_uni0308_uni0301.cap" unicode="&#xea29;" 
d="M310 486h-87l19 86h87zM498 486h-87l19 86h87zM606 746l-223 -122h-89l201 122h111z" />
    <glyph glyph-name="space_uni0308_uni0301" unicode="&#xea2a;" 
d="M342 568h-87l18 86h87zM502 568h-87l18 86h87zM624 828l-223 -122h-89l201 122h111z" />
    <glyph glyph-name="space_uni0308_uni030C.cap" unicode="&#xea2b;" 
d="M310 486h-87l19 86h87zM498 486h-87l19 86h87zM572 748l-155 -134h-60l-97 134h59l76 -97l118 97h59z" />
    <glyph glyph-name="space_uni0308_uni030C" unicode="&#xea2c;" 
d="M342 568h-87l18 86h87zM502 568h-87l18 86h87zM590 830l-155 -134h-60l-97 134h59l76 -97l118 97h59z" />
    <glyph glyph-name="uni0308.cap" unicode="&#xea2d;" horiz-adv-x="0" 
d="M-109 818h-87l18 86h87zM51 818h-87l18 86h87z" />
    <glyph glyph-name="space_uni0308_uni0300.cap" unicode="&#xea2e;" 
d="M310 486h-87l19 86h87zM498 486h-87l19 86h87zM484 624h-89l-171 122h111z" />
    <glyph glyph-name="space_uni0308_uni0300" unicode="&#xea2f;" 
d="M342 568h-87l18 86h87zM502 568h-87l18 86h87zM502 706h-89l-171 122h111z" />
    <glyph glyph-name="dotaccent.cap" unicode="&#xea30;" horiz-adv-x="286" 
d="M294 486h-96l21 96h96z" />
    <glyph glyph-name="uni0307.cap" unicode="&#xea31;" horiz-adv-x="0" 
d="M-26 813h-96l20 96h96z" />
    <glyph glyph-name="grave.cap" unicode="&#xea32;" 
d="M457 496h-89l-171 122h111z" />
    <glyph glyph-name="uni0300.cap" unicode="&#xea33;" horiz-adv-x="0" 
d="M-10 777h-65l-116 167h83z" />
    <glyph glyph-name="space_uni0309.cap" unicode="&#xea34;" 
d="M489 621q-6 -31 -39 -51l-4 -2l-4 -2l-5 -2.5l-5 -2.5q-30 -16 -43 -27t-17 -28l-4 -19l-2 -1h-27v1l4 19q13 67 74 96q15 7 18 19q5 20 -6 29q-9 8 -39 8q-51 0 -85 -44h-1h-1l-7 42l1 1q45 43 102 43q51 0 75 -20q23 -21 15 -59z" />
    <glyph glyph-name="space_uni0309" unicode="&#xea35;" 
d="M493 639q-6 -31 -39 -51l-18 -9q-31 -16 -44 -27t-17 -28l-4 -19l-1 -1h-27l-1 1l4 19q15 67 75 96q15 7 18 19q5 20 -6 29q-10 8 -39 8q-50 0 -86 -44h-1h-1l-6 42v1q46 43 103 43q51 0 74 -20q24 -22 16 -59z" />
    <glyph glyph-name="uni0309.cap" unicode="&#xea36;" horiz-adv-x="0" 
d="M42 889q-6 -31 -39 -51l-18 -9q-30 -16 -43 -27t-17 -28l-5 -19l-1 -1h-27l-1 1l5 19q13 67 74 96q15 7 18 19q5 20 -6 29q-9 8 -39 8q-50 0 -86 -44h-1h-1l-6 42l1 1q45 43 102 43q51 0 75 -20q23 -21 15 -59z" />
    </font>
</defs>
</svg>
